<?xml version="1.0" encoding="utf-8" standalone="no"?>
<!DOCTYPE svg PUBLIC "-//W3C//DTD SVG 1.1//EN"
  "http://www.w3.org/Graphics/SVG/1.1/DTD/svg11.dtd">
<!-- Created with matplotlib (https://matplotlib.org/) -->
<svg height="720pt" version="1.1" viewBox="0 0 959.976 720" width="959.976pt" xmlns="http://www.w3.org/2000/svg" xmlns:xlink="http://www.w3.org/1999/xlink">
 <defs>
  <style type="text/css">
*{stroke-linecap:butt;stroke-linejoin:round;}
  </style>
 </defs>
 <g id="figure_1">
  <g id="patch_1">
   <path d="M 0 720 
L 959.976 720 
L 959.976 0 
L 0 0 
z
" style="fill:#ffffff;"/>
  </g>
  <g id="axes_1">
   <g id="patch_2">
    <path d="M 157.473875 620.44 
L 934.056 620.44 
L 934.056 25.92 
L 157.473875 25.92 
z
" style="fill:#ffffff;"/>
   </g>
   <g id="matplotlib.axis_1">
    <g id="xtick_1">
     <g id="line2d_1">
      <defs>
       <path d="M 0 0 
L 0 3.5 
" id="m3b63ffb5b5" style="stroke:#000000;stroke-width:0.8;"/>
      </defs>
      <g>
       <use style="stroke:#000000;stroke-width:0.8;" x="192.773063" xlink:href="#m3b63ffb5b5" y="620.44"/>
      </g>
     </g>
     <g id="text_1">
      <!-- 10 -->
      <defs>
       <path d="M 12.40625 8.296875 
L 28.515625 8.296875 
L 28.515625 63.921875 
L 10.984375 60.40625 
L 10.984375 69.390625 
L 28.421875 72.90625 
L 38.28125 72.90625 
L 38.28125 8.296875 
L 54.390625 8.296875 
L 54.390625 0 
L 12.40625 0 
z
" id="DejaVuSans-49"/>
       <path d="M 31.78125 66.40625 
Q 24.171875 66.40625 20.328125 58.90625 
Q 16.5 51.421875 16.5 36.375 
Q 16.5 21.390625 20.328125 13.890625 
Q 24.171875 6.390625 31.78125 6.390625 
Q 39.453125 6.390625 43.28125 13.890625 
Q 47.125 21.390625 47.125 36.375 
Q 47.125 51.421875 43.28125 58.90625 
Q 39.453125 66.40625 31.78125 66.40625 
z
M 31.78125 74.21875 
Q 44.046875 74.21875 50.515625 64.515625 
Q 56.984375 54.828125 56.984375 36.375 
Q 56.984375 17.96875 50.515625 8.265625 
Q 44.046875 -1.421875 31.78125 -1.421875 
Q 19.53125 -1.421875 13.0625 8.265625 
Q 6.59375 17.96875 6.59375 36.375 
Q 6.59375 54.828125 13.0625 64.515625 
Q 19.53125 74.21875 31.78125 74.21875 
z
" id="DejaVuSans-48"/>
      </defs>
      <g transform="translate(167.323063 657.83375)scale(0.4 -0.4)">
       <use xlink:href="#DejaVuSans-49"/>
       <use x="63.623047" xlink:href="#DejaVuSans-48"/>
      </g>
     </g>
    </g>
    <g id="xtick_2">
     <g id="line2d_2">
      <g>
       <use style="stroke:#000000;stroke-width:0.8;" x="333.969813" xlink:href="#m3b63ffb5b5" y="620.44"/>
      </g>
     </g>
     <g id="text_2">
      <!-- 12 -->
      <defs>
       <path d="M 19.1875 8.296875 
L 53.609375 8.296875 
L 53.609375 0 
L 7.328125 0 
L 7.328125 8.296875 
Q 12.9375 14.109375 22.625 23.890625 
Q 32.328125 33.6875 34.8125 36.53125 
Q 39.546875 41.84375 41.421875 45.53125 
Q 43.3125 49.21875 43.3125 52.78125 
Q 43.3125 58.59375 39.234375 62.25 
Q 35.15625 65.921875 28.609375 65.921875 
Q 23.96875 65.921875 18.8125 64.3125 
Q 13.671875 62.703125 7.8125 59.421875 
L 7.8125 69.390625 
Q 13.765625 71.78125 18.9375 73 
Q 24.125 74.21875 28.421875 74.21875 
Q 39.75 74.21875 46.484375 68.546875 
Q 53.21875 62.890625 53.21875 53.421875 
Q 53.21875 48.921875 51.53125 44.890625 
Q 49.859375 40.875 45.40625 35.40625 
Q 44.1875 33.984375 37.640625 27.21875 
Q 31.109375 20.453125 19.1875 8.296875 
z
" id="DejaVuSans-50"/>
      </defs>
      <g transform="translate(308.519813 657.83375)scale(0.4 -0.4)">
       <use xlink:href="#DejaVuSans-49"/>
       <use x="63.623047" xlink:href="#DejaVuSans-50"/>
      </g>
     </g>
    </g>
    <g id="xtick_3">
     <g id="line2d_3">
      <g>
       <use style="stroke:#000000;stroke-width:0.8;" x="475.166563" xlink:href="#m3b63ffb5b5" y="620.44"/>
      </g>
     </g>
     <g id="text_3">
      <!-- 14 -->
      <defs>
       <path d="M 37.796875 64.3125 
L 12.890625 25.390625 
L 37.796875 25.390625 
z
M 35.203125 72.90625 
L 47.609375 72.90625 
L 47.609375 25.390625 
L 58.015625 25.390625 
L 58.015625 17.1875 
L 47.609375 17.1875 
L 47.609375 0 
L 37.796875 0 
L 37.796875 17.1875 
L 4.890625 17.1875 
L 4.890625 26.703125 
z
" id="DejaVuSans-52"/>
      </defs>
      <g transform="translate(449.716563 657.83375)scale(0.4 -0.4)">
       <use xlink:href="#DejaVuSans-49"/>
       <use x="63.623047" xlink:href="#DejaVuSans-52"/>
      </g>
     </g>
    </g>
    <g id="xtick_4">
     <g id="line2d_4">
      <g>
       <use style="stroke:#000000;stroke-width:0.8;" x="616.363313" xlink:href="#m3b63ffb5b5" y="620.44"/>
      </g>
     </g>
     <g id="text_4">
      <!-- 16 -->
      <defs>
       <path d="M 33.015625 40.375 
Q 26.375 40.375 22.484375 35.828125 
Q 18.609375 31.296875 18.609375 23.390625 
Q 18.609375 15.53125 22.484375 10.953125 
Q 26.375 6.390625 33.015625 6.390625 
Q 39.65625 6.390625 43.53125 10.953125 
Q 47.40625 15.53125 47.40625 23.390625 
Q 47.40625 31.296875 43.53125 35.828125 
Q 39.65625 40.375 33.015625 40.375 
z
M 52.59375 71.296875 
L 52.59375 62.3125 
Q 48.875 64.0625 45.09375 64.984375 
Q 41.3125 65.921875 37.59375 65.921875 
Q 27.828125 65.921875 22.671875 59.328125 
Q 17.53125 52.734375 16.796875 39.40625 
Q 19.671875 43.65625 24.015625 45.921875 
Q 28.375 48.1875 33.59375 48.1875 
Q 44.578125 48.1875 50.953125 41.515625 
Q 57.328125 34.859375 57.328125 23.390625 
Q 57.328125 12.15625 50.6875 5.359375 
Q 44.046875 -1.421875 33.015625 -1.421875 
Q 20.359375 -1.421875 13.671875 8.265625 
Q 6.984375 17.96875 6.984375 36.375 
Q 6.984375 53.65625 15.1875 63.9375 
Q 23.390625 74.21875 37.203125 74.21875 
Q 40.921875 74.21875 44.703125 73.484375 
Q 48.484375 72.75 52.59375 71.296875 
z
" id="DejaVuSans-54"/>
      </defs>
      <g transform="translate(590.913312 657.83375)scale(0.4 -0.4)">
       <use xlink:href="#DejaVuSans-49"/>
       <use x="63.623047" xlink:href="#DejaVuSans-54"/>
      </g>
     </g>
    </g>
    <g id="xtick_5">
     <g id="line2d_5">
      <g>
       <use style="stroke:#000000;stroke-width:0.8;" x="757.560063" xlink:href="#m3b63ffb5b5" y="620.44"/>
      </g>
     </g>
     <g id="text_5">
      <!-- 18 -->
      <defs>
       <path d="M 31.78125 34.625 
Q 24.75 34.625 20.71875 30.859375 
Q 16.703125 27.09375 16.703125 20.515625 
Q 16.703125 13.921875 20.71875 10.15625 
Q 24.75 6.390625 31.78125 6.390625 
Q 38.8125 6.390625 42.859375 10.171875 
Q 46.921875 13.96875 46.921875 20.515625 
Q 46.921875 27.09375 42.890625 30.859375 
Q 38.875 34.625 31.78125 34.625 
z
M 21.921875 38.8125 
Q 15.578125 40.375 12.03125 44.71875 
Q 8.5 49.078125 8.5 55.328125 
Q 8.5 64.0625 14.71875 69.140625 
Q 20.953125 74.21875 31.78125 74.21875 
Q 42.671875 74.21875 48.875 69.140625 
Q 55.078125 64.0625 55.078125 55.328125 
Q 55.078125 49.078125 51.53125 44.71875 
Q 48 40.375 41.703125 38.8125 
Q 48.828125 37.15625 52.796875 32.3125 
Q 56.78125 27.484375 56.78125 20.515625 
Q 56.78125 9.90625 50.3125 4.234375 
Q 43.84375 -1.421875 31.78125 -1.421875 
Q 19.734375 -1.421875 13.25 4.234375 
Q 6.78125 9.90625 6.78125 20.515625 
Q 6.78125 27.484375 10.78125 32.3125 
Q 14.796875 37.15625 21.921875 38.8125 
z
M 18.3125 54.390625 
Q 18.3125 48.734375 21.84375 45.5625 
Q 25.390625 42.390625 31.78125 42.390625 
Q 38.140625 42.390625 41.71875 45.5625 
Q 45.3125 48.734375 45.3125 54.390625 
Q 45.3125 60.0625 41.71875 63.234375 
Q 38.140625 66.40625 31.78125 66.40625 
Q 25.390625 66.40625 21.84375 63.234375 
Q 18.3125 60.0625 18.3125 54.390625 
z
" id="DejaVuSans-56"/>
      </defs>
      <g transform="translate(732.110063 657.83375)scale(0.4 -0.4)">
       <use xlink:href="#DejaVuSans-49"/>
       <use x="63.623047" xlink:href="#DejaVuSans-56"/>
      </g>
     </g>
    </g>
    <g id="xtick_6">
     <g id="line2d_6">
      <g>
       <use style="stroke:#000000;stroke-width:0.8;" x="898.756812" xlink:href="#m3b63ffb5b5" y="620.44"/>
      </g>
     </g>
     <g id="text_6">
      <!-- 20 -->
      <g transform="translate(873.306812 657.83375)scale(0.4 -0.4)">
       <use xlink:href="#DejaVuSans-50"/>
       <use x="63.623047" xlink:href="#DejaVuSans-48"/>
      </g>
     </g>
    </g>
    <g id="text_7">
     <!-- Time (s) -->
     <defs>
      <path d="M -0.296875 72.90625 
L 61.375 72.90625 
L 61.375 64.59375 
L 35.5 64.59375 
L 35.5 0 
L 25.59375 0 
L 25.59375 64.59375 
L -0.296875 64.59375 
z
" id="DejaVuSans-84"/>
      <path d="M 9.421875 54.6875 
L 18.40625 54.6875 
L 18.40625 0 
L 9.421875 0 
z
M 9.421875 75.984375 
L 18.40625 75.984375 
L 18.40625 64.59375 
L 9.421875 64.59375 
z
" id="DejaVuSans-105"/>
      <path d="M 52 44.1875 
Q 55.375 50.25 60.0625 53.125 
Q 64.75 56 71.09375 56 
Q 79.640625 56 84.28125 50.015625 
Q 88.921875 44.046875 88.921875 33.015625 
L 88.921875 0 
L 79.890625 0 
L 79.890625 32.71875 
Q 79.890625 40.578125 77.09375 44.375 
Q 74.3125 48.1875 68.609375 48.1875 
Q 61.625 48.1875 57.5625 43.546875 
Q 53.515625 38.921875 53.515625 30.90625 
L 53.515625 0 
L 44.484375 0 
L 44.484375 32.71875 
Q 44.484375 40.625 41.703125 44.40625 
Q 38.921875 48.1875 33.109375 48.1875 
Q 26.21875 48.1875 22.15625 43.53125 
Q 18.109375 38.875 18.109375 30.90625 
L 18.109375 0 
L 9.078125 0 
L 9.078125 54.6875 
L 18.109375 54.6875 
L 18.109375 46.1875 
Q 21.1875 51.21875 25.484375 53.609375 
Q 29.78125 56 35.6875 56 
Q 41.65625 56 45.828125 52.96875 
Q 50 49.953125 52 44.1875 
z
" id="DejaVuSans-109"/>
      <path d="M 56.203125 29.59375 
L 56.203125 25.203125 
L 14.890625 25.203125 
Q 15.484375 15.921875 20.484375 11.0625 
Q 25.484375 6.203125 34.421875 6.203125 
Q 39.59375 6.203125 44.453125 7.46875 
Q 49.3125 8.734375 54.109375 11.28125 
L 54.109375 2.78125 
Q 49.265625 0.734375 44.1875 -0.34375 
Q 39.109375 -1.421875 33.890625 -1.421875 
Q 20.796875 -1.421875 13.15625 6.1875 
Q 5.515625 13.8125 5.515625 26.8125 
Q 5.515625 40.234375 12.765625 48.109375 
Q 20.015625 56 32.328125 56 
Q 43.359375 56 49.78125 48.890625 
Q 56.203125 41.796875 56.203125 29.59375 
z
M 47.21875 32.234375 
Q 47.125 39.59375 43.09375 43.984375 
Q 39.0625 48.390625 32.421875 48.390625 
Q 24.90625 48.390625 20.390625 44.140625 
Q 15.875 39.890625 15.1875 32.171875 
z
" id="DejaVuSans-101"/>
      <path id="DejaVuSans-32"/>
      <path d="M 31 75.875 
Q 24.46875 64.65625 21.28125 53.65625 
Q 18.109375 42.671875 18.109375 31.390625 
Q 18.109375 20.125 21.3125 9.0625 
Q 24.515625 -2 31 -13.1875 
L 23.1875 -13.1875 
Q 15.875 -1.703125 12.234375 9.375 
Q 8.59375 20.453125 8.59375 31.390625 
Q 8.59375 42.28125 12.203125 53.3125 
Q 15.828125 64.359375 23.1875 75.875 
z
" id="DejaVuSans-40"/>
      <path d="M 44.28125 53.078125 
L 44.28125 44.578125 
Q 40.484375 46.53125 36.375 47.5 
Q 32.28125 48.484375 27.875 48.484375 
Q 21.1875 48.484375 17.84375 46.4375 
Q 14.5 44.390625 14.5 40.28125 
Q 14.5 37.15625 16.890625 35.375 
Q 19.28125 33.59375 26.515625 31.984375 
L 29.59375 31.296875 
Q 39.15625 29.25 43.1875 25.515625 
Q 47.21875 21.78125 47.21875 15.09375 
Q 47.21875 7.46875 41.1875 3.015625 
Q 35.15625 -1.421875 24.609375 -1.421875 
Q 20.21875 -1.421875 15.453125 -0.5625 
Q 10.6875 0.296875 5.421875 2 
L 5.421875 11.28125 
Q 10.40625 8.6875 15.234375 7.390625 
Q 20.0625 6.109375 24.8125 6.109375 
Q 31.15625 6.109375 34.5625 8.28125 
Q 37.984375 10.453125 37.984375 14.40625 
Q 37.984375 18.0625 35.515625 20.015625 
Q 33.0625 21.96875 24.703125 23.78125 
L 21.578125 24.515625 
Q 13.234375 26.265625 9.515625 29.90625 
Q 5.8125 33.546875 5.8125 39.890625 
Q 5.8125 47.609375 11.28125 51.796875 
Q 16.75 56 26.8125 56 
Q 31.78125 56 36.171875 55.265625 
Q 40.578125 54.546875 44.28125 53.078125 
z
" id="DejaVuSans-115"/>
      <path d="M 8.015625 75.875 
L 15.828125 75.875 
Q 23.140625 64.359375 26.78125 53.3125 
Q 30.421875 42.28125 30.421875 31.390625 
Q 30.421875 20.453125 26.78125 9.375 
Q 23.140625 -1.703125 15.828125 -13.1875 
L 8.015625 -13.1875 
Q 14.5 -2 17.703125 9.0625 
Q 20.90625 20.125 20.90625 31.390625 
Q 20.90625 42.671875 17.703125 53.65625 
Q 14.5 64.65625 8.015625 75.875 
z
" id="DejaVuSans-41"/>
     </defs>
     <g transform="translate(496.975562 688.38875)scale(0.24 -0.24)">
      <use xlink:href="#DejaVuSans-84"/>
      <use x="57.958984" xlink:href="#DejaVuSans-105"/>
      <use x="85.742188" xlink:href="#DejaVuSans-109"/>
      <use x="183.154297" xlink:href="#DejaVuSans-101"/>
      <use x="244.677734" xlink:href="#DejaVuSans-32"/>
      <use x="276.464844" xlink:href="#DejaVuSans-40"/>
      <use x="315.478516" xlink:href="#DejaVuSans-115"/>
      <use x="367.578125" xlink:href="#DejaVuSans-41"/>
     </g>
    </g>
   </g>
   <g id="matplotlib.axis_2">
    <g id="ytick_1">
     <g id="line2d_7">
      <defs>
       <path d="M 0 0 
L -3.5 0 
" id="m0bbec4e420" style="stroke:#000000;stroke-width:0.8;"/>
      </defs>
      <g>
       <use style="stroke:#000000;stroke-width:0.8;" x="157.473875" xlink:href="#m0bbec4e420" y="549.296141"/>
      </g>
     </g>
     <g id="text_8">
      <!-- 2 -->
      <g transform="translate(125.023875 564.493016)scale(0.4 -0.4)">
       <use xlink:href="#DejaVuSans-50"/>
      </g>
     </g>
    </g>
    <g id="ytick_2">
     <g id="line2d_8">
      <g>
       <use style="stroke:#000000;stroke-width:0.8;" x="157.473875" xlink:href="#m0bbec4e420" y="461.055696"/>
      </g>
     </g>
     <g id="text_9">
      <!-- 4 -->
      <g transform="translate(125.023875 476.252571)scale(0.4 -0.4)">
       <use xlink:href="#DejaVuSans-52"/>
      </g>
     </g>
    </g>
    <g id="ytick_3">
     <g id="line2d_9">
      <g>
       <use style="stroke:#000000;stroke-width:0.8;" x="157.473875" xlink:href="#m0bbec4e420" y="372.81525"/>
      </g>
     </g>
     <g id="text_10">
      <!-- 6 -->
      <g transform="translate(125.023875 388.012125)scale(0.4 -0.4)">
       <use xlink:href="#DejaVuSans-54"/>
      </g>
     </g>
    </g>
    <g id="ytick_4">
     <g id="line2d_10">
      <g>
       <use style="stroke:#000000;stroke-width:0.8;" x="157.473875" xlink:href="#m0bbec4e420" y="284.574805"/>
      </g>
     </g>
     <g id="text_11">
      <!-- 8 -->
      <g transform="translate(125.023875 299.77168)scale(0.4 -0.4)">
       <use xlink:href="#DejaVuSans-56"/>
      </g>
     </g>
    </g>
    <g id="ytick_5">
     <g id="line2d_11">
      <g>
       <use style="stroke:#000000;stroke-width:0.8;" x="157.473875" xlink:href="#m0bbec4e420" y="196.33436"/>
      </g>
     </g>
     <g id="text_12">
      <!-- 10 -->
      <g transform="translate(99.573875 211.531235)scale(0.4 -0.4)">
       <use xlink:href="#DejaVuSans-49"/>
       <use x="63.623047" xlink:href="#DejaVuSans-48"/>
      </g>
     </g>
    </g>
    <g id="ytick_6">
     <g id="line2d_12">
      <g>
       <use style="stroke:#000000;stroke-width:0.8;" x="157.473875" xlink:href="#m0bbec4e420" y="108.093915"/>
      </g>
     </g>
     <g id="text_13">
      <!-- 12 -->
      <g transform="translate(99.573875 123.29079)scale(0.4 -0.4)">
       <use xlink:href="#DejaVuSans-49"/>
       <use x="63.623047" xlink:href="#DejaVuSans-50"/>
      </g>
     </g>
    </g>
    <g id="text_14">
     <!-- Squared Speed $\left( \frac{m}{s} \right)^2$ -->
     <defs>
      <path d="M 53.515625 70.515625 
L 53.515625 60.890625 
Q 47.90625 63.578125 42.921875 64.890625 
Q 37.9375 66.21875 33.296875 66.21875 
Q 25.25 66.21875 20.875 63.09375 
Q 16.5 59.96875 16.5 54.203125 
Q 16.5 49.359375 19.40625 46.890625 
Q 22.3125 44.4375 30.421875 42.921875 
L 36.375 41.703125 
Q 47.40625 39.59375 52.65625 34.296875 
Q 57.90625 29 57.90625 20.125 
Q 57.90625 9.515625 50.796875 4.046875 
Q 43.703125 -1.421875 29.984375 -1.421875 
Q 24.8125 -1.421875 18.96875 -0.25 
Q 13.140625 0.921875 6.890625 3.21875 
L 6.890625 13.375 
Q 12.890625 10.015625 18.65625 8.296875 
Q 24.421875 6.59375 29.984375 6.59375 
Q 38.421875 6.59375 43.015625 9.90625 
Q 47.609375 13.234375 47.609375 19.390625 
Q 47.609375 24.75 44.3125 27.78125 
Q 41.015625 30.8125 33.5 32.328125 
L 27.484375 33.5 
Q 16.453125 35.6875 11.515625 40.375 
Q 6.59375 45.0625 6.59375 53.421875 
Q 6.59375 63.09375 13.40625 68.65625 
Q 20.21875 74.21875 32.171875 74.21875 
Q 37.3125 74.21875 42.625 73.28125 
Q 47.953125 72.359375 53.515625 70.515625 
z
" id="DejaVuSans-83"/>
      <path d="M 14.796875 27.296875 
Q 14.796875 17.390625 18.875 11.75 
Q 22.953125 6.109375 30.078125 6.109375 
Q 37.203125 6.109375 41.296875 11.75 
Q 45.40625 17.390625 45.40625 27.296875 
Q 45.40625 37.203125 41.296875 42.84375 
Q 37.203125 48.484375 30.078125 48.484375 
Q 22.953125 48.484375 18.875 42.84375 
Q 14.796875 37.203125 14.796875 27.296875 
z
M 45.40625 8.203125 
Q 42.578125 3.328125 38.25 0.953125 
Q 33.9375 -1.421875 27.875 -1.421875 
Q 17.96875 -1.421875 11.734375 6.484375 
Q 5.515625 14.40625 5.515625 27.296875 
Q 5.515625 40.1875 11.734375 48.09375 
Q 17.96875 56 27.875 56 
Q 33.9375 56 38.25 53.625 
Q 42.578125 51.265625 45.40625 46.390625 
L 45.40625 54.6875 
L 54.390625 54.6875 
L 54.390625 -20.796875 
L 45.40625 -20.796875 
z
" id="DejaVuSans-113"/>
      <path d="M 8.5 21.578125 
L 8.5 54.6875 
L 17.484375 54.6875 
L 17.484375 21.921875 
Q 17.484375 14.15625 20.5 10.265625 
Q 23.53125 6.390625 29.59375 6.390625 
Q 36.859375 6.390625 41.078125 11.03125 
Q 45.3125 15.671875 45.3125 23.6875 
L 45.3125 54.6875 
L 54.296875 54.6875 
L 54.296875 0 
L 45.3125 0 
L 45.3125 8.40625 
Q 42.046875 3.421875 37.71875 1 
Q 33.40625 -1.421875 27.6875 -1.421875 
Q 18.265625 -1.421875 13.375 4.4375 
Q 8.5 10.296875 8.5 21.578125 
z
M 31.109375 56 
z
" id="DejaVuSans-117"/>
      <path d="M 34.28125 27.484375 
Q 23.390625 27.484375 19.1875 25 
Q 14.984375 22.515625 14.984375 16.5 
Q 14.984375 11.71875 18.140625 8.90625 
Q 21.296875 6.109375 26.703125 6.109375 
Q 34.1875 6.109375 38.703125 11.40625 
Q 43.21875 16.703125 43.21875 25.484375 
L 43.21875 27.484375 
z
M 52.203125 31.203125 
L 52.203125 0 
L 43.21875 0 
L 43.21875 8.296875 
Q 40.140625 3.328125 35.546875 0.953125 
Q 30.953125 -1.421875 24.3125 -1.421875 
Q 15.921875 -1.421875 10.953125 3.296875 
Q 6 8.015625 6 15.921875 
Q 6 25.140625 12.171875 29.828125 
Q 18.359375 34.515625 30.609375 34.515625 
L 43.21875 34.515625 
L 43.21875 35.40625 
Q 43.21875 41.609375 39.140625 45 
Q 35.0625 48.390625 27.6875 48.390625 
Q 23 48.390625 18.546875 47.265625 
Q 14.109375 46.140625 10.015625 43.890625 
L 10.015625 52.203125 
Q 14.9375 54.109375 19.578125 55.046875 
Q 24.21875 56 28.609375 56 
Q 40.484375 56 46.34375 49.84375 
Q 52.203125 43.703125 52.203125 31.203125 
z
" id="DejaVuSans-97"/>
      <path d="M 41.109375 46.296875 
Q 39.59375 47.171875 37.8125 47.578125 
Q 36.03125 48 33.890625 48 
Q 26.265625 48 22.1875 43.046875 
Q 18.109375 38.09375 18.109375 28.8125 
L 18.109375 0 
L 9.078125 0 
L 9.078125 54.6875 
L 18.109375 54.6875 
L 18.109375 46.1875 
Q 20.953125 51.171875 25.484375 53.578125 
Q 30.03125 56 36.53125 56 
Q 37.453125 56 38.578125 55.875 
Q 39.703125 55.765625 41.0625 55.515625 
z
" id="DejaVuSans-114"/>
      <path d="M 45.40625 46.390625 
L 45.40625 75.984375 
L 54.390625 75.984375 
L 54.390625 0 
L 45.40625 0 
L 45.40625 8.203125 
Q 42.578125 3.328125 38.25 0.953125 
Q 33.9375 -1.421875 27.875 -1.421875 
Q 17.96875 -1.421875 11.734375 6.484375 
Q 5.515625 14.40625 5.515625 27.296875 
Q 5.515625 40.1875 11.734375 48.09375 
Q 17.96875 56 27.875 56 
Q 33.9375 56 38.25 53.625 
Q 42.578125 51.265625 45.40625 46.390625 
z
M 14.796875 27.296875 
Q 14.796875 17.390625 18.875 11.75 
Q 22.953125 6.109375 30.078125 6.109375 
Q 37.203125 6.109375 41.296875 11.75 
Q 45.40625 17.390625 45.40625 27.296875 
Q 45.40625 37.203125 41.296875 42.84375 
Q 37.203125 48.484375 30.078125 48.484375 
Q 22.953125 48.484375 18.875 42.84375 
Q 14.796875 37.203125 14.796875 27.296875 
z
" id="DejaVuSans-100"/>
      <path d="M 18.109375 8.203125 
L 18.109375 -20.796875 
L 9.078125 -20.796875 
L 9.078125 54.6875 
L 18.109375 54.6875 
L 18.109375 46.390625 
Q 20.953125 51.265625 25.265625 53.625 
Q 29.59375 56 35.59375 56 
Q 45.5625 56 51.78125 48.09375 
Q 58.015625 40.1875 58.015625 27.296875 
Q 58.015625 14.40625 51.78125 6.484375 
Q 45.5625 -1.421875 35.59375 -1.421875 
Q 29.59375 -1.421875 25.265625 0.953125 
Q 20.953125 3.328125 18.109375 8.203125 
z
M 48.6875 27.296875 
Q 48.6875 37.203125 44.609375 42.84375 
Q 40.53125 48.484375 33.40625 48.484375 
Q 26.265625 48.484375 22.1875 42.84375 
Q 18.109375 37.203125 18.109375 27.296875 
Q 18.109375 17.390625 22.1875 11.75 
Q 26.265625 6.109375 33.40625 6.109375 
Q 40.53125 6.109375 44.609375 11.75 
Q 48.6875 17.390625 48.6875 27.296875 
z
" id="DejaVuSans-112"/>
      <path d="M 38.203125 -13.40625 
L 38.203125 -16.40625 
Q 27 -5.796875 20.453125 9.84375 
Q 13.90625 25.5 13.90625 45.09375 
Q 13.90625 64.40625 20.453125 80.25 
Q 27 96.09375 38.203125 106.59375 
L 38.203125 103.59375 
Q 22 83.796875 22 45.09375 
Q 22 6.40625 38.203125 -13.40625 
z
" id="STIXSizeOneSym-Regular-40"/>
      <path d="M 89.796875 33.015625 
L 83.40625 0 
L 74.421875 0 
L 80.71875 32.71875 
Q 81.109375 34.8125 81.296875 36.328125 
Q 81.5 37.84375 81.5 38.921875 
Q 81.5 43.3125 79.046875 45.75 
Q 76.609375 48.1875 72.21875 48.1875 
Q 65.671875 48.1875 60.546875 43.28125 
Q 55.421875 38.375 53.90625 30.515625 
L 47.90625 0 
L 38.921875 0 
L 45.3125 32.71875 
Q 45.703125 34.515625 45.890625 36.046875 
Q 46.09375 37.59375 46.09375 38.8125 
Q 46.09375 43.265625 43.65625 45.71875 
Q 41.21875 48.1875 36.921875 48.1875 
Q 30.28125 48.1875 25.140625 43.28125 
Q 20.015625 38.375 18.5 30.515625 
L 12.5 0 
L 3.515625 0 
L 14.203125 54.6875 
L 23.1875 54.6875 
L 21.484375 46.1875 
Q 25.140625 50.984375 30.046875 53.484375 
Q 34.96875 56 40.578125 56 
Q 46.53125 56 50.359375 52.875 
Q 54.203125 49.75 54.984375 44.1875 
Q 59.078125 49.953125 64.46875 52.96875 
Q 69.875 56 75.875 56 
Q 82.90625 56 86.734375 51.953125 
Q 90.578125 47.90625 90.578125 40.484375 
Q 90.578125 38.875 90.375 36.9375 
Q 90.1875 35.015625 89.796875 33.015625 
z
" id="DejaVuSans-Oblique-109"/>
      <path d="M 50 53.078125 
L 48.296875 44.578125 
Q 44.734375 46.53125 40.765625 47.5 
Q 36.8125 48.484375 32.625 48.484375 
Q 25.53125 48.484375 21.453125 46.0625 
Q 17.390625 43.65625 17.390625 39.5 
Q 17.390625 34.671875 26.859375 32.078125 
Q 27.59375 31.890625 27.9375 31.78125 
L 30.8125 30.90625 
Q 39.796875 28.421875 42.796875 25.6875 
Q 45.796875 22.953125 45.796875 18.21875 
Q 45.796875 9.515625 38.890625 4.046875 
Q 31.984375 -1.421875 20.796875 -1.421875 
Q 16.453125 -1.421875 11.671875 -0.578125 
Q 6.890625 0.25 1.125 2 
L 2.875 11.28125 
Q 7.8125 8.734375 12.59375 7.421875 
Q 17.390625 6.109375 21.78125 6.109375 
Q 28.375 6.109375 32.5 8.9375 
Q 36.625 11.765625 36.625 16.109375 
Q 36.625 20.796875 25.78125 23.6875 
L 24.859375 23.921875 
L 21.78125 24.703125 
Q 14.9375 26.515625 11.765625 29.46875 
Q 8.59375 32.421875 8.59375 37.015625 
Q 8.59375 45.75 15.15625 50.875 
Q 21.734375 56 33.015625 56 
Q 37.453125 56 41.671875 55.265625 
Q 45.90625 54.546875 50 53.078125 
z
" id="DejaVuSans-Oblique-115"/>
      <path d="M 8.59375 103.59375 
L 8.59375 106.59375 
Q 19.796875 96 26.34375 80.34375 
Q 32.90625 64.703125 32.90625 45.09375 
Q 32.90625 25.796875 26.34375 9.9375 
Q 19.796875 -5.90625 8.59375 -16.40625 
L 8.59375 -13.40625 
Q 24.796875 6.40625 24.796875 45.09375 
Q 24.796875 83.796875 8.59375 103.59375 
z
" id="STIXSizeOneSym-Regular-41"/>
     </defs>
     <g transform="translate(88.853875 444.14)rotate(-90)scale(0.24 -0.24)">
      <use transform="translate(0 0.765625)" xlink:href="#DejaVuSans-83"/>
      <use transform="translate(63.476562 0.765625)" xlink:href="#DejaVuSans-113"/>
      <use transform="translate(126.953125 0.765625)" xlink:href="#DejaVuSans-117"/>
      <use transform="translate(190.332031 0.765625)" xlink:href="#DejaVuSans-97"/>
      <use transform="translate(251.611328 0.765625)" xlink:href="#DejaVuSans-114"/>
      <use transform="translate(292.724609 0.765625)" xlink:href="#DejaVuSans-101"/>
      <use transform="translate(354.248047 0.765625)" xlink:href="#DejaVuSans-100"/>
      <use transform="translate(417.724609 0.765625)" xlink:href="#DejaVuSans-32"/>
      <use transform="translate(449.511719 0.765625)" xlink:href="#DejaVuSans-83"/>
      <use transform="translate(512.988281 0.765625)" xlink:href="#DejaVuSans-112"/>
      <use transform="translate(576.464844 0.765625)" xlink:href="#DejaVuSans-101"/>
      <use transform="translate(637.988281 0.765625)" xlink:href="#DejaVuSans-101"/>
      <use transform="translate(699.511719 0.765625)" xlink:href="#DejaVuSans-100"/>
      <use transform="translate(762.988281 0.765625)" xlink:href="#DejaVuSans-32"/>
      <use transform="translate(794.775391 -12.132812)scale(0.899555)" xlink:href="#STIXSizeOneSym-Regular-40"/>
      <use transform="translate(836.873444 44.5625)scale(0.7)" xlink:href="#DejaVuSans-Oblique-109"/>
      <use transform="translate(852.873444 -25.8875)scale(0.7)" xlink:href="#DejaVuSans-Oblique-115"/>
      <use transform="translate(917.56192 -12.132812)scale(0.899555)" xlink:href="#STIXSizeOneSym-Regular-41"/>
      <use transform="translate(960.617004 39.046875)scale(0.7)" xlink:href="#DejaVuSans-50"/>
      <path d="M 836.873444 19.5625 
L 836.873444 25.8125 
L 905.06192 25.8125 
L 905.06192 19.5625 
L 836.873444 19.5625 
z
"/>
     </g>
    </g>
   </g>
   <g id="line2d_13">
    <path clip-path="url(#p5fbafce5c9)" d="M 192.773063 317.664972 
L 197.008965 335.701301 
L 201.244868 352.779612 
L 205.48077 368.943878 
L 209.716673 384.236144 
L 213.952575 398.69661 
L 218.188477 412.363696 
L 222.42438 425.27412 
L 226.660283 437.462965 
L 230.896185 448.963745 
L 235.132088 459.808472 
L 239.36799 470.027714 
L 243.603893 479.65066 
L 247.839795 488.705172 
L 252.075698 497.217848 
L 256.3116 505.214069 
L 260.547503 512.718056 
L 264.783405 519.752916 
L 269.019308 526.340693 
L 273.25521 532.502415 
L 277.491112 538.258136 
L 281.727015 543.626982 
L 285.962918 548.627191 
L 290.19882 553.276153 
L 294.434723 557.590451 
L 298.670625 561.585895 
L 302.906528 565.277559 
L 307.14243 568.679819 
L 311.378333 571.806378 
L 315.614235 574.670308 
L 319.850138 577.284073 
L 324.08604 579.659564 
L 328.321943 581.808122 
L 332.557845 583.740572 
L 337.499731 585.735716 
L 342.441618 587.466359 
L 347.383504 588.947293 
L 352.32539 590.192547 
L 357.267276 591.215434 
L 362.209163 592.028603 
L 367.857033 592.716535 
L 373.504903 593.163254 
L 379.152773 593.384864 
L 384.800643 593.396633 
L 391.154496 593.17707 
L 397.50835 592.729839 
L 403.862204 592.073513 
L 410.922041 591.120487 
L 418.687862 589.826685 
L 426.453684 588.304032 
L 434.925489 586.414713 
L 444.103278 584.138309 
L 454.693034 581.268955 
L 466.694757 577.778701 
L 482.932384 572.806336 
L 515.407636 562.804194 
L 528.115344 559.162887 
L 538.7051 556.359691 
L 547.882889 554.148778 
L 556.354694 552.32234 
L 564.826499 550.731579 
L 572.59232 549.504517 
L 579.652158 548.599008 
L 586.711995 547.908942 
L 593.771832 547.448334 
L 600.83167 547.230085 
L 607.185524 547.250458 
L 613.539378 547.483839 
L 619.893231 547.936322 
L 626.247085 548.612593 
L 632.600939 549.51572 
L 638.954793 550.646937 
L 645.308646 552.005396 
L 651.6625 553.587907 
L 658.016354 555.388656 
L 665.076191 557.634699 
L 672.136029 560.122543 
L 679.90185 563.111625 
L 688.373655 566.629698 
L 698.257428 570.989073 
L 727.908745 584.264308 
L 734.262599 586.780114 
L 739.910469 588.791285 
L 744.852355 590.327755 
L 749.088257 591.443519 
L 753.32416 592.341539 
L 757.560063 592.989167 
L 761.089981 593.312413 
L 764.6199 593.415971 
L 768.149819 593.277059 
L 771.679737 592.871612 
L 774.503673 592.338329 
L 777.327607 591.604598 
L 780.151542 590.656194 
L 782.975478 589.478293 
L 785.799412 588.055447 
L 788.623347 586.371571 
L 791.447282 584.40992 
L 794.271218 582.153072 
L 797.095153 579.582906 
L 799.919088 576.680585 
L 802.743022 573.426531 
L 805.566958 569.800406 
L 808.390892 565.781092 
L 811.214827 561.346664 
L 814.038762 556.474374 
L 816.862698 551.140621 
L 819.686633 545.320933 
L 822.510568 538.98994 
L 825.334502 532.121351 
L 828.158437 524.687928 
L 830.982372 516.661459 
L 833.806307 508.012737 
L 836.630243 498.711528 
L 839.454177 488.726547 
L 842.278113 478.025429 
L 845.102048 466.574703 
L 847.925983 454.339759 
L 850.749917 441.284826 
L 853.573853 427.372932 
L 857.103771 408.719661 
L 860.63369 388.590252 
L 864.163609 366.904173 
L 867.693528 343.577631 
L 871.223446 318.523466 
L 874.753365 291.651053 
L 878.283284 262.866196 
L 881.813202 232.071016 
L 885.343121 199.163845 
L 888.87304 164.039109 
L 892.402959 126.587216 
L 895.932878 86.694438 
L 898.756812 52.943636 
L 898.756812 52.943636 
" style="fill:none;stroke:#1f77b4;stroke-linecap:square;stroke-width:4;"/>
   </g>
   <g id="line2d_14">
    <path clip-path="url(#p5fbafce5c9)" d="M 192.773063 494.145863 
L 200.538884 497.895142 
L 208.304705 501.398771 
L 216.77651 504.974937 
L 225.954299 508.597661 
L 235.838071 512.249257 
L 246.427828 515.920407 
L 258.429551 519.833542 
L 271.843243 523.959001 
L 286.668901 528.284033 
L 304.318495 533.19485 
L 325.498008 538.843168 
L 349.501455 545.0083 
L 374.210886 551.128869 
L 396.802366 556.50556 
L 417.275895 561.1532 
L 435.631472 565.092142 
L 452.575083 568.496102 
L 468.106725 571.387847 
L 482.932384 573.917258 
L 497.052059 576.094989 
L 510.46575 577.938355 
L 523.173457 579.470234 
L 535.881165 580.784959 
L 548.588872 581.877167 
L 561.29658 582.744843 
L 574.004288 583.389704 
L 586.711995 583.817532 
L 600.125686 584.044931 
L 614.245361 584.054513 
L 629.07102 583.840424 
L 646.01463 583.365561 
L 667.194142 582.535259 
L 715.201037 580.574326 
L 730.73268 580.208308 
L 744.146371 580.102586 
L 756.854079 580.225304 
L 768.855803 580.569441 
L 780.151542 581.113521 
L 791.447282 581.879532 
L 802.743022 582.865991 
L 814.744746 584.140509 
L 828.158437 585.799115 
L 846.514015 588.319661 
L 866.28156 590.990992 
L 876.871316 592.188648 
L 885.343121 592.914107 
L 892.402959 593.295485 
L 898.756812 593.416364 
L 898.756812 593.416364 
" style="fill:none;stroke:#ff7f0e;stroke-linecap:square;stroke-width:4;"/>
   </g>
   <g id="line2d_15">
    <path clip-path="url(#p5fbafce5c9)" d="M 192.773063 593.416361 
L 898.756812 593.416361 
" style="fill:none;stroke:#ff0000;stroke-dasharray:14.8,6.4;stroke-dashoffset:0;stroke-width:4;"/>
   </g>
   <g id="line2d_16">
    <path clip-path="url(#p5fbafce5c9)" d="M 192.773063 593.416364 
L 898.756812 593.416364 
" style="fill:none;stroke:#0000ff;stroke-dasharray:14.8,6.4;stroke-dashoffset:0;stroke-width:4;"/>
   </g>
   <g id="patch_3">
    <path d="M 157.473875 620.44 
L 157.473875 25.92 
" style="fill:none;stroke:#000000;stroke-linecap:square;stroke-linejoin:miter;stroke-width:0.8;"/>
   </g>
   <g id="patch_4">
    <path d="M 934.056 620.44 
L 934.056 25.92 
" style="fill:none;stroke:#000000;stroke-linecap:square;stroke-linejoin:miter;stroke-width:0.8;"/>
   </g>
   <g id="patch_5">
    <path d="M 157.473875 620.44 
L 934.056 620.44 
" style="fill:none;stroke:#000000;stroke-linecap:square;stroke-linejoin:miter;stroke-width:0.8;"/>
   </g>
   <g id="patch_6">
    <path d="M 157.473875 25.92 
L 934.056 25.92 
" style="fill:none;stroke:#000000;stroke-linecap:square;stroke-linejoin:miter;stroke-width:0.8;"/>
   </g>
   <g id="legend_1">
    <g id="patch_7">
     <path d="M 174.273875 186.03 
L 481.192625 186.03 
Q 485.992625 186.03 485.992625 181.23 
L 485.992625 42.72 
Q 485.992625 37.92 481.192625 37.92 
L 174.273875 37.92 
Q 169.473875 37.92 169.473875 42.72 
L 169.473875 181.23 
Q 169.473875 186.03 174.273875 186.03 
z
" style="fill:#ffffff;opacity:0.8;stroke:#cccccc;stroke-linejoin:miter;"/>
    </g>
    <g id="line2d_17">
     <path d="M 179.073875 57.35625 
L 227.073875 57.35625 
" style="fill:none;stroke:#1f77b4;stroke-linecap:square;stroke-width:4;"/>
    </g>
    <g id="line2d_18"/>
    <g id="text_15">
     <!-- c1 speed -->
     <defs>
      <path d="M 48.78125 52.59375 
L 48.78125 44.1875 
Q 44.96875 46.296875 41.140625 47.34375 
Q 37.3125 48.390625 33.40625 48.390625 
Q 24.65625 48.390625 19.8125 42.84375 
Q 14.984375 37.3125 14.984375 27.296875 
Q 14.984375 17.28125 19.8125 11.734375 
Q 24.65625 6.203125 33.40625 6.203125 
Q 37.3125 6.203125 41.140625 7.25 
Q 44.96875 8.296875 48.78125 10.40625 
L 48.78125 2.09375 
Q 45.015625 0.34375 40.984375 -0.53125 
Q 36.96875 -1.421875 32.421875 -1.421875 
Q 20.0625 -1.421875 12.78125 6.34375 
Q 5.515625 14.109375 5.515625 27.296875 
Q 5.515625 40.671875 12.859375 48.328125 
Q 20.21875 56 33.015625 56 
Q 37.15625 56 41.109375 55.140625 
Q 45.0625 54.296875 48.78125 52.59375 
z
" id="DejaVuSans-99"/>
     </defs>
     <g transform="translate(246.273875 65.75625)scale(0.24 -0.24)">
      <use xlink:href="#DejaVuSans-99"/>
      <use x="54.980469" xlink:href="#DejaVuSans-49"/>
      <use x="118.603516" xlink:href="#DejaVuSans-32"/>
      <use x="150.390625" xlink:href="#DejaVuSans-115"/>
      <use x="202.490234" xlink:href="#DejaVuSans-112"/>
      <use x="265.966797" xlink:href="#DejaVuSans-101"/>
      <use x="327.490234" xlink:href="#DejaVuSans-101"/>
      <use x="389.013672" xlink:href="#DejaVuSans-100"/>
     </g>
    </g>
    <g id="line2d_19">
     <path d="M 179.073875 92.58375 
L 227.073875 92.58375 
" style="fill:none;stroke:#ff7f0e;stroke-linecap:square;stroke-width:4;"/>
    </g>
    <g id="line2d_20"/>
    <g id="text_16">
     <!-- c2 speed -->
     <g transform="translate(246.273875 100.98375)scale(0.24 -0.24)">
      <use xlink:href="#DejaVuSans-99"/>
      <use x="54.980469" xlink:href="#DejaVuSans-50"/>
      <use x="118.603516" xlink:href="#DejaVuSans-32"/>
      <use x="150.390625" xlink:href="#DejaVuSans-115"/>
      <use x="202.490234" xlink:href="#DejaVuSans-112"/>
      <use x="265.966797" xlink:href="#DejaVuSans-101"/>
      <use x="327.490234" xlink:href="#DejaVuSans-101"/>
      <use x="389.013672" xlink:href="#DejaVuSans-100"/>
     </g>
    </g>
    <g id="line2d_21">
     <path d="M 179.073875 127.81125 
L 227.073875 127.81125 
" style="fill:none;stroke:#ff0000;stroke-dasharray:14.8,6.4;stroke-dashoffset:0;stroke-width:4;"/>
    </g>
    <g id="line2d_22"/>
    <g id="text_17">
     <!-- c1 minimum speed -->
     <defs>
      <path d="M 54.890625 33.015625 
L 54.890625 0 
L 45.90625 0 
L 45.90625 32.71875 
Q 45.90625 40.484375 42.875 44.328125 
Q 39.84375 48.1875 33.796875 48.1875 
Q 26.515625 48.1875 22.3125 43.546875 
Q 18.109375 38.921875 18.109375 30.90625 
L 18.109375 0 
L 9.078125 0 
L 9.078125 54.6875 
L 18.109375 54.6875 
L 18.109375 46.1875 
Q 21.34375 51.125 25.703125 53.5625 
Q 30.078125 56 35.796875 56 
Q 45.21875 56 50.046875 50.171875 
Q 54.890625 44.34375 54.890625 33.015625 
z
" id="DejaVuSans-110"/>
     </defs>
     <g transform="translate(246.273875 136.21125)scale(0.24 -0.24)">
      <use xlink:href="#DejaVuSans-99"/>
      <use x="54.980469" xlink:href="#DejaVuSans-49"/>
      <use x="118.603516" xlink:href="#DejaVuSans-32"/>
      <use x="150.390625" xlink:href="#DejaVuSans-109"/>
      <use x="247.802734" xlink:href="#DejaVuSans-105"/>
      <use x="275.585938" xlink:href="#DejaVuSans-110"/>
      <use x="338.964844" xlink:href="#DejaVuSans-105"/>
      <use x="366.748047" xlink:href="#DejaVuSans-109"/>
      <use x="464.160156" xlink:href="#DejaVuSans-117"/>
      <use x="527.539062" xlink:href="#DejaVuSans-109"/>
      <use x="624.951172" xlink:href="#DejaVuSans-32"/>
      <use x="656.738281" xlink:href="#DejaVuSans-115"/>
      <use x="708.837891" xlink:href="#DejaVuSans-112"/>
      <use x="772.314453" xlink:href="#DejaVuSans-101"/>
      <use x="833.837891" xlink:href="#DejaVuSans-101"/>
      <use x="895.361328" xlink:href="#DejaVuSans-100"/>
     </g>
    </g>
    <g id="line2d_23">
     <path d="M 179.073875 163.03875 
L 227.073875 163.03875 
" style="fill:none;stroke:#0000ff;stroke-dasharray:14.8,6.4;stroke-dashoffset:0;stroke-width:4;"/>
    </g>
    <g id="line2d_24"/>
    <g id="text_18">
     <!-- c2 minimum speed -->
     <g transform="translate(246.273875 171.43875)scale(0.24 -0.24)">
      <use xlink:href="#DejaVuSans-99"/>
      <use x="54.980469" xlink:href="#DejaVuSans-50"/>
      <use x="118.603516" xlink:href="#DejaVuSans-32"/>
      <use x="150.390625" xlink:href="#DejaVuSans-109"/>
      <use x="247.802734" xlink:href="#DejaVuSans-105"/>
      <use x="275.585938" xlink:href="#DejaVuSans-110"/>
      <use x="338.964844" xlink:href="#DejaVuSans-105"/>
      <use x="366.748047" xlink:href="#DejaVuSans-109"/>
      <use x="464.160156" xlink:href="#DejaVuSans-117"/>
      <use x="527.539062" xlink:href="#DejaVuSans-109"/>
      <use x="624.951172" xlink:href="#DejaVuSans-32"/>
      <use x="656.738281" xlink:href="#DejaVuSans-115"/>
      <use x="708.837891" xlink:href="#DejaVuSans-112"/>
      <use x="772.314453" xlink:href="#DejaVuSans-101"/>
      <use x="833.837891" xlink:href="#DejaVuSans-101"/>
      <use x="895.361328" xlink:href="#DejaVuSans-100"/>
     </g>
    </g>
   </g>
  </g>
 </g>
 <defs>
  <clipPath id="p5fbafce5c9">
   <rect height="594.52" width="776.582125" x="157.473875" y="25.92"/>
  </clipPath>
 </defs>
</svg>
