<?xml version="1.0" encoding="utf-8" standalone="no"?>
<!DOCTYPE svg PUBLIC "-//W3C//DTD SVG 1.1//EN"
  "http://www.w3.org/Graphics/SVG/1.1/DTD/svg11.dtd">
<!-- Created with matplotlib (https://matplotlib.org/) -->
<svg height="720pt" version="1.1" viewBox="0 0 959.976 720" width="959.976pt" xmlns="http://www.w3.org/2000/svg" xmlns:xlink="http://www.w3.org/1999/xlink">
 <metadata>
  <rdf:RDF xmlns:cc="http://creativecommons.org/ns#" xmlns:dc="http://purl.org/dc/elements/1.1/" xmlns:rdf="http://www.w3.org/1999/02/22-rdf-syntax-ns#">
   <cc:Work>
    <dc:type rdf:resource="http://purl.org/dc/dcmitype/StillImage"/>
    <dc:date>2020-08-31T18:22:01.446442</dc:date>
    <dc:format>image/svg+xml</dc:format>
    <dc:creator>
     <cc:Agent>
      <dc:title>Matplotlib v3.3.1, https://matplotlib.org/</dc:title>
     </cc:Agent>
    </dc:creator>
   </cc:Work>
  </rdf:RDF>
 </metadata>
 <defs>
  <style type="text/css">*{stroke-linecap:butt;stroke-linejoin:round;}</style>
 </defs>
 <g id="figure_1">
  <g id="patch_1">
   <path d="M 0 720 
L 959.976 720 
L 959.976 0 
L 0 0 
z
" style="fill:#ffffff;"/>
  </g>
  <g id="axes_1">
   <g id="patch_2">
    <path d="M 176.9968 588.04 
L 916.776 588.04 
L 916.776 43.2 
L 176.9968 43.2 
z
" style="fill:#ffffff;"/>
   </g>
   <g id="matplotlib.axis_1">
    <g id="xtick_1">
     <g id="line2d_1">
      <defs>
       <path d="M 0 0 
L 0 3.5 
" id="m2ca330ab2b" style="stroke:#000000;stroke-width:0.8;"/>
      </defs>
      <g>
       <use style="stroke:#000000;stroke-width:0.8;" x="210.623127" xlink:href="#m2ca330ab2b" y="588.04"/>
      </g>
     </g>
     <g id="text_1">
      <!-- 10 -->
      <g transform="translate(185.173127 625.43375)scale(0.4 -0.4)">
       <defs>
        <path d="M 12.40625 8.296875 
L 28.515625 8.296875 
L 28.515625 63.921875 
L 10.984375 60.40625 
L 10.984375 69.390625 
L 28.421875 72.90625 
L 38.28125 72.90625 
L 38.28125 8.296875 
L 54.390625 8.296875 
L 54.390625 0 
L 12.40625 0 
z
" id="DejaVuSans-49"/>
        <path d="M 31.78125 66.40625 
Q 24.171875 66.40625 20.328125 58.90625 
Q 16.5 51.421875 16.5 36.375 
Q 16.5 21.390625 20.328125 13.890625 
Q 24.171875 6.390625 31.78125 6.390625 
Q 39.453125 6.390625 43.28125 13.890625 
Q 47.125 21.390625 47.125 36.375 
Q 47.125 51.421875 43.28125 58.90625 
Q 39.453125 66.40625 31.78125 66.40625 
z
M 31.78125 74.21875 
Q 44.046875 74.21875 50.515625 64.515625 
Q 56.984375 54.828125 56.984375 36.375 
Q 56.984375 17.96875 50.515625 8.265625 
Q 44.046875 -1.421875 31.78125 -1.421875 
Q 19.53125 -1.421875 13.0625 8.265625 
Q 6.59375 17.96875 6.59375 36.375 
Q 6.59375 54.828125 13.0625 64.515625 
Q 19.53125 74.21875 31.78125 74.21875 
z
" id="DejaVuSans-48"/>
       </defs>
       <use xlink:href="#DejaVuSans-49"/>
       <use x="63.623047" xlink:href="#DejaVuSans-48"/>
      </g>
     </g>
    </g>
    <g id="xtick_2">
     <g id="line2d_2">
      <g>
       <use style="stroke:#000000;stroke-width:0.8;" x="345.128436" xlink:href="#m2ca330ab2b" y="588.04"/>
      </g>
     </g>
     <g id="text_2">
      <!-- 12 -->
      <g transform="translate(319.678436 625.43375)scale(0.4 -0.4)">
       <defs>
        <path d="M 19.1875 8.296875 
L 53.609375 8.296875 
L 53.609375 0 
L 7.328125 0 
L 7.328125 8.296875 
Q 12.9375 14.109375 22.625 23.890625 
Q 32.328125 33.6875 34.8125 36.53125 
Q 39.546875 41.84375 41.421875 45.53125 
Q 43.3125 49.21875 43.3125 52.78125 
Q 43.3125 58.59375 39.234375 62.25 
Q 35.15625 65.921875 28.609375 65.921875 
Q 23.96875 65.921875 18.8125 64.3125 
Q 13.671875 62.703125 7.8125 59.421875 
L 7.8125 69.390625 
Q 13.765625 71.78125 18.9375 73 
Q 24.125 74.21875 28.421875 74.21875 
Q 39.75 74.21875 46.484375 68.546875 
Q 53.21875 62.890625 53.21875 53.421875 
Q 53.21875 48.921875 51.53125 44.890625 
Q 49.859375 40.875 45.40625 35.40625 
Q 44.1875 33.984375 37.640625 27.21875 
Q 31.109375 20.453125 19.1875 8.296875 
z
" id="DejaVuSans-50"/>
       </defs>
       <use xlink:href="#DejaVuSans-49"/>
       <use x="63.623047" xlink:href="#DejaVuSans-50"/>
      </g>
     </g>
    </g>
    <g id="xtick_3">
     <g id="line2d_3">
      <g>
       <use style="stroke:#000000;stroke-width:0.8;" x="479.633745" xlink:href="#m2ca330ab2b" y="588.04"/>
      </g>
     </g>
     <g id="text_3">
      <!-- 14 -->
      <g transform="translate(454.183745 625.43375)scale(0.4 -0.4)">
       <defs>
        <path d="M 37.796875 64.3125 
L 12.890625 25.390625 
L 37.796875 25.390625 
z
M 35.203125 72.90625 
L 47.609375 72.90625 
L 47.609375 25.390625 
L 58.015625 25.390625 
L 58.015625 17.1875 
L 47.609375 17.1875 
L 47.609375 0 
L 37.796875 0 
L 37.796875 17.1875 
L 4.890625 17.1875 
L 4.890625 26.703125 
z
" id="DejaVuSans-52"/>
       </defs>
       <use xlink:href="#DejaVuSans-49"/>
       <use x="63.623047" xlink:href="#DejaVuSans-52"/>
      </g>
     </g>
    </g>
    <g id="xtick_4">
     <g id="line2d_4">
      <g>
       <use style="stroke:#000000;stroke-width:0.8;" x="614.139055" xlink:href="#m2ca330ab2b" y="588.04"/>
      </g>
     </g>
     <g id="text_4">
      <!-- 16 -->
      <g transform="translate(588.689055 625.43375)scale(0.4 -0.4)">
       <defs>
        <path d="M 33.015625 40.375 
Q 26.375 40.375 22.484375 35.828125 
Q 18.609375 31.296875 18.609375 23.390625 
Q 18.609375 15.53125 22.484375 10.953125 
Q 26.375 6.390625 33.015625 6.390625 
Q 39.65625 6.390625 43.53125 10.953125 
Q 47.40625 15.53125 47.40625 23.390625 
Q 47.40625 31.296875 43.53125 35.828125 
Q 39.65625 40.375 33.015625 40.375 
z
M 52.59375 71.296875 
L 52.59375 62.3125 
Q 48.875 64.0625 45.09375 64.984375 
Q 41.3125 65.921875 37.59375 65.921875 
Q 27.828125 65.921875 22.671875 59.328125 
Q 17.53125 52.734375 16.796875 39.40625 
Q 19.671875 43.65625 24.015625 45.921875 
Q 28.375 48.1875 33.59375 48.1875 
Q 44.578125 48.1875 50.953125 41.515625 
Q 57.328125 34.859375 57.328125 23.390625 
Q 57.328125 12.15625 50.6875 5.359375 
Q 44.046875 -1.421875 33.015625 -1.421875 
Q 20.359375 -1.421875 13.671875 8.265625 
Q 6.984375 17.96875 6.984375 36.375 
Q 6.984375 53.65625 15.1875 63.9375 
Q 23.390625 74.21875 37.203125 74.21875 
Q 40.921875 74.21875 44.703125 73.484375 
Q 48.484375 72.75 52.59375 71.296875 
z
" id="DejaVuSans-54"/>
       </defs>
       <use xlink:href="#DejaVuSans-49"/>
       <use x="63.623047" xlink:href="#DejaVuSans-54"/>
      </g>
     </g>
    </g>
    <g id="xtick_5">
     <g id="line2d_5">
      <g>
       <use style="stroke:#000000;stroke-width:0.8;" x="748.644364" xlink:href="#m2ca330ab2b" y="588.04"/>
      </g>
     </g>
     <g id="text_5">
      <!-- 18 -->
      <g transform="translate(723.194364 625.43375)scale(0.4 -0.4)">
       <defs>
        <path d="M 31.78125 34.625 
Q 24.75 34.625 20.71875 30.859375 
Q 16.703125 27.09375 16.703125 20.515625 
Q 16.703125 13.921875 20.71875 10.15625 
Q 24.75 6.390625 31.78125 6.390625 
Q 38.8125 6.390625 42.859375 10.171875 
Q 46.921875 13.96875 46.921875 20.515625 
Q 46.921875 27.09375 42.890625 30.859375 
Q 38.875 34.625 31.78125 34.625 
z
M 21.921875 38.8125 
Q 15.578125 40.375 12.03125 44.71875 
Q 8.5 49.078125 8.5 55.328125 
Q 8.5 64.0625 14.71875 69.140625 
Q 20.953125 74.21875 31.78125 74.21875 
Q 42.671875 74.21875 48.875 69.140625 
Q 55.078125 64.0625 55.078125 55.328125 
Q 55.078125 49.078125 51.53125 44.71875 
Q 48 40.375 41.703125 38.8125 
Q 48.828125 37.15625 52.796875 32.3125 
Q 56.78125 27.484375 56.78125 20.515625 
Q 56.78125 9.90625 50.3125 4.234375 
Q 43.84375 -1.421875 31.78125 -1.421875 
Q 19.734375 -1.421875 13.25 4.234375 
Q 6.78125 9.90625 6.78125 20.515625 
Q 6.78125 27.484375 10.78125 32.3125 
Q 14.796875 37.15625 21.921875 38.8125 
z
M 18.3125 54.390625 
Q 18.3125 48.734375 21.84375 45.5625 
Q 25.390625 42.390625 31.78125 42.390625 
Q 38.140625 42.390625 41.71875 45.5625 
Q 45.3125 48.734375 45.3125 54.390625 
Q 45.3125 60.0625 41.71875 63.234375 
Q 38.140625 66.40625 31.78125 66.40625 
Q 25.390625 66.40625 21.84375 63.234375 
Q 18.3125 60.0625 18.3125 54.390625 
z
" id="DejaVuSans-56"/>
       </defs>
       <use xlink:href="#DejaVuSans-49"/>
       <use x="63.623047" xlink:href="#DejaVuSans-56"/>
      </g>
     </g>
    </g>
    <g id="xtick_6">
     <g id="line2d_6">
      <g>
       <use style="stroke:#000000;stroke-width:0.8;" x="883.149673" xlink:href="#m2ca330ab2b" y="588.04"/>
      </g>
     </g>
     <g id="text_6">
      <!-- 20 -->
      <g transform="translate(857.699673 625.43375)scale(0.4 -0.4)">
       <use xlink:href="#DejaVuSans-50"/>
       <use x="63.623047" xlink:href="#DejaVuSans-48"/>
      </g>
     </g>
    </g>
    <g id="text_7">
     <!-- Time (s) -->
     <g transform="translate(465.570775 668.14625)scale(0.4 -0.4)">
      <defs>
       <path d="M -0.296875 72.90625 
L 61.375 72.90625 
L 61.375 64.59375 
L 35.5 64.59375 
L 35.5 0 
L 25.59375 0 
L 25.59375 64.59375 
L -0.296875 64.59375 
z
" id="DejaVuSans-84"/>
       <path d="M 9.421875 54.6875 
L 18.40625 54.6875 
L 18.40625 0 
L 9.421875 0 
z
M 9.421875 75.984375 
L 18.40625 75.984375 
L 18.40625 64.59375 
L 9.421875 64.59375 
z
" id="DejaVuSans-105"/>
       <path d="M 52 44.1875 
Q 55.375 50.25 60.0625 53.125 
Q 64.75 56 71.09375 56 
Q 79.640625 56 84.28125 50.015625 
Q 88.921875 44.046875 88.921875 33.015625 
L 88.921875 0 
L 79.890625 0 
L 79.890625 32.71875 
Q 79.890625 40.578125 77.09375 44.375 
Q 74.3125 48.1875 68.609375 48.1875 
Q 61.625 48.1875 57.5625 43.546875 
Q 53.515625 38.921875 53.515625 30.90625 
L 53.515625 0 
L 44.484375 0 
L 44.484375 32.71875 
Q 44.484375 40.625 41.703125 44.40625 
Q 38.921875 48.1875 33.109375 48.1875 
Q 26.21875 48.1875 22.15625 43.53125 
Q 18.109375 38.875 18.109375 30.90625 
L 18.109375 0 
L 9.078125 0 
L 9.078125 54.6875 
L 18.109375 54.6875 
L 18.109375 46.1875 
Q 21.1875 51.21875 25.484375 53.609375 
Q 29.78125 56 35.6875 56 
Q 41.65625 56 45.828125 52.96875 
Q 50 49.953125 52 44.1875 
z
" id="DejaVuSans-109"/>
       <path d="M 56.203125 29.59375 
L 56.203125 25.203125 
L 14.890625 25.203125 
Q 15.484375 15.921875 20.484375 11.0625 
Q 25.484375 6.203125 34.421875 6.203125 
Q 39.59375 6.203125 44.453125 7.46875 
Q 49.3125 8.734375 54.109375 11.28125 
L 54.109375 2.78125 
Q 49.265625 0.734375 44.1875 -0.34375 
Q 39.109375 -1.421875 33.890625 -1.421875 
Q 20.796875 -1.421875 13.15625 6.1875 
Q 5.515625 13.8125 5.515625 26.8125 
Q 5.515625 40.234375 12.765625 48.109375 
Q 20.015625 56 32.328125 56 
Q 43.359375 56 49.78125 48.890625 
Q 56.203125 41.796875 56.203125 29.59375 
z
M 47.21875 32.234375 
Q 47.125 39.59375 43.09375 43.984375 
Q 39.0625 48.390625 32.421875 48.390625 
Q 24.90625 48.390625 20.390625 44.140625 
Q 15.875 39.890625 15.1875 32.171875 
z
" id="DejaVuSans-101"/>
       <path id="DejaVuSans-32"/>
       <path d="M 31 75.875 
Q 24.46875 64.65625 21.28125 53.65625 
Q 18.109375 42.671875 18.109375 31.390625 
Q 18.109375 20.125 21.3125 9.0625 
Q 24.515625 -2 31 -13.1875 
L 23.1875 -13.1875 
Q 15.875 -1.703125 12.234375 9.375 
Q 8.59375 20.453125 8.59375 31.390625 
Q 8.59375 42.28125 12.203125 53.3125 
Q 15.828125 64.359375 23.1875 75.875 
z
" id="DejaVuSans-40"/>
       <path d="M 44.28125 53.078125 
L 44.28125 44.578125 
Q 40.484375 46.53125 36.375 47.5 
Q 32.28125 48.484375 27.875 48.484375 
Q 21.1875 48.484375 17.84375 46.4375 
Q 14.5 44.390625 14.5 40.28125 
Q 14.5 37.15625 16.890625 35.375 
Q 19.28125 33.59375 26.515625 31.984375 
L 29.59375 31.296875 
Q 39.15625 29.25 43.1875 25.515625 
Q 47.21875 21.78125 47.21875 15.09375 
Q 47.21875 7.46875 41.1875 3.015625 
Q 35.15625 -1.421875 24.609375 -1.421875 
Q 20.21875 -1.421875 15.453125 -0.5625 
Q 10.6875 0.296875 5.421875 2 
L 5.421875 11.28125 
Q 10.40625 8.6875 15.234375 7.390625 
Q 20.0625 6.109375 24.8125 6.109375 
Q 31.15625 6.109375 34.5625 8.28125 
Q 37.984375 10.453125 37.984375 14.40625 
Q 37.984375 18.0625 35.515625 20.015625 
Q 33.0625 21.96875 24.703125 23.78125 
L 21.578125 24.515625 
Q 13.234375 26.265625 9.515625 29.90625 
Q 5.8125 33.546875 5.8125 39.890625 
Q 5.8125 47.609375 11.28125 51.796875 
Q 16.75 56 26.8125 56 
Q 31.78125 56 36.171875 55.265625 
Q 40.578125 54.546875 44.28125 53.078125 
z
" id="DejaVuSans-115"/>
       <path d="M 8.015625 75.875 
L 15.828125 75.875 
Q 23.140625 64.359375 26.78125 53.3125 
Q 30.421875 42.28125 30.421875 31.390625 
Q 30.421875 20.453125 26.78125 9.375 
Q 23.140625 -1.703125 15.828125 -13.1875 
L 8.015625 -13.1875 
Q 14.5 -2 17.703125 9.0625 
Q 20.90625 20.125 20.90625 31.390625 
Q 20.90625 42.671875 17.703125 53.65625 
Q 14.5 64.65625 8.015625 75.875 
z
" id="DejaVuSans-41"/>
      </defs>
      <use xlink:href="#DejaVuSans-84"/>
      <use x="57.958984" xlink:href="#DejaVuSans-105"/>
      <use x="85.742188" xlink:href="#DejaVuSans-109"/>
      <use x="183.154297" xlink:href="#DejaVuSans-101"/>
      <use x="244.677734" xlink:href="#DejaVuSans-32"/>
      <use x="276.464844" xlink:href="#DejaVuSans-40"/>
      <use x="315.478516" xlink:href="#DejaVuSans-115"/>
      <use x="367.578125" xlink:href="#DejaVuSans-41"/>
     </g>
    </g>
   </g>
   <g id="matplotlib.axis_2">
    <g id="ytick_1">
     <g id="line2d_7">
      <defs>
       <path d="M 0 0 
L -3.5 0 
" id="m3977781cf2" style="stroke:#000000;stroke-width:0.8;"/>
      </defs>
      <g>
       <use style="stroke:#000000;stroke-width:0.8;" x="176.9968" xlink:href="#m3977781cf2" y="484.660153"/>
      </g>
     </g>
     <g id="text_8">
      <!-- −4 -->
      <g transform="translate(111.02805 499.857028)scale(0.4 -0.4)">
       <defs>
        <path d="M 10.59375 35.5 
L 73.1875 35.5 
L 73.1875 27.203125 
L 10.59375 27.203125 
z
" id="DejaVuSans-8722"/>
       </defs>
       <use xlink:href="#DejaVuSans-8722"/>
       <use x="83.789062" xlink:href="#DejaVuSans-52"/>
      </g>
     </g>
    </g>
    <g id="ytick_2">
     <g id="line2d_8">
      <g>
       <use style="stroke:#000000;stroke-width:0.8;" x="176.9968" xlink:href="#m3977781cf2" y="312.995119"/>
      </g>
     </g>
     <g id="text_9">
      <!-- −2 -->
      <g transform="translate(111.02805 328.191994)scale(0.4 -0.4)">
       <use xlink:href="#DejaVuSans-8722"/>
       <use x="83.789062" xlink:href="#DejaVuSans-50"/>
      </g>
     </g>
    </g>
    <g id="ytick_3">
     <g id="line2d_9">
      <g>
       <use style="stroke:#000000;stroke-width:0.8;" x="176.9968" xlink:href="#m3977781cf2" y="141.330086"/>
      </g>
     </g>
     <g id="text_10">
      <!-- 0 -->
      <g transform="translate(144.5468 156.526961)scale(0.4 -0.4)">
       <use xlink:href="#DejaVuSans-48"/>
      </g>
     </g>
    </g>
    <g id="text_11">
     <!-- Angular Rate $\left( \frac{rad}{s^2} \right)$ -->
     <g transform="translate(86.22805 497.62)rotate(-90)scale(0.4 -0.4)">
      <defs>
       <path d="M 34.1875 63.1875 
L 20.796875 26.90625 
L 47.609375 26.90625 
z
M 28.609375 72.90625 
L 39.796875 72.90625 
L 67.578125 0 
L 57.328125 0 
L 50.6875 18.703125 
L 17.828125 18.703125 
L 11.1875 0 
L 0.78125 0 
z
" id="DejaVuSans-65"/>
       <path d="M 54.890625 33.015625 
L 54.890625 0 
L 45.90625 0 
L 45.90625 32.71875 
Q 45.90625 40.484375 42.875 44.328125 
Q 39.84375 48.1875 33.796875 48.1875 
Q 26.515625 48.1875 22.3125 43.546875 
Q 18.109375 38.921875 18.109375 30.90625 
L 18.109375 0 
L 9.078125 0 
L 9.078125 54.6875 
L 18.109375 54.6875 
L 18.109375 46.1875 
Q 21.34375 51.125 25.703125 53.5625 
Q 30.078125 56 35.796875 56 
Q 45.21875 56 50.046875 50.171875 
Q 54.890625 44.34375 54.890625 33.015625 
z
" id="DejaVuSans-110"/>
       <path d="M 45.40625 27.984375 
Q 45.40625 37.75 41.375 43.109375 
Q 37.359375 48.484375 30.078125 48.484375 
Q 22.859375 48.484375 18.828125 43.109375 
Q 14.796875 37.75 14.796875 27.984375 
Q 14.796875 18.265625 18.828125 12.890625 
Q 22.859375 7.515625 30.078125 7.515625 
Q 37.359375 7.515625 41.375 12.890625 
Q 45.40625 18.265625 45.40625 27.984375 
z
M 54.390625 6.78125 
Q 54.390625 -7.171875 48.1875 -13.984375 
Q 42 -20.796875 29.203125 -20.796875 
Q 24.46875 -20.796875 20.265625 -20.09375 
Q 16.0625 -19.390625 12.109375 -17.921875 
L 12.109375 -9.1875 
Q 16.0625 -11.328125 19.921875 -12.34375 
Q 23.78125 -13.375 27.78125 -13.375 
Q 36.625 -13.375 41.015625 -8.765625 
Q 45.40625 -4.15625 45.40625 5.171875 
L 45.40625 9.625 
Q 42.625 4.78125 38.28125 2.390625 
Q 33.9375 0 27.875 0 
Q 17.828125 0 11.671875 7.65625 
Q 5.515625 15.328125 5.515625 27.984375 
Q 5.515625 40.671875 11.671875 48.328125 
Q 17.828125 56 27.875 56 
Q 33.9375 56 38.28125 53.609375 
Q 42.625 51.21875 45.40625 46.390625 
L 45.40625 54.6875 
L 54.390625 54.6875 
z
" id="DejaVuSans-103"/>
       <path d="M 8.5 21.578125 
L 8.5 54.6875 
L 17.484375 54.6875 
L 17.484375 21.921875 
Q 17.484375 14.15625 20.5 10.265625 
Q 23.53125 6.390625 29.59375 6.390625 
Q 36.859375 6.390625 41.078125 11.03125 
Q 45.3125 15.671875 45.3125 23.6875 
L 45.3125 54.6875 
L 54.296875 54.6875 
L 54.296875 0 
L 45.3125 0 
L 45.3125 8.40625 
Q 42.046875 3.421875 37.71875 1 
Q 33.40625 -1.421875 27.6875 -1.421875 
Q 18.265625 -1.421875 13.375 4.4375 
Q 8.5 10.296875 8.5 21.578125 
z
M 31.109375 56 
z
" id="DejaVuSans-117"/>
       <path d="M 9.421875 75.984375 
L 18.40625 75.984375 
L 18.40625 0 
L 9.421875 0 
z
" id="DejaVuSans-108"/>
       <path d="M 34.28125 27.484375 
Q 23.390625 27.484375 19.1875 25 
Q 14.984375 22.515625 14.984375 16.5 
Q 14.984375 11.71875 18.140625 8.90625 
Q 21.296875 6.109375 26.703125 6.109375 
Q 34.1875 6.109375 38.703125 11.40625 
Q 43.21875 16.703125 43.21875 25.484375 
L 43.21875 27.484375 
z
M 52.203125 31.203125 
L 52.203125 0 
L 43.21875 0 
L 43.21875 8.296875 
Q 40.140625 3.328125 35.546875 0.953125 
Q 30.953125 -1.421875 24.3125 -1.421875 
Q 15.921875 -1.421875 10.953125 3.296875 
Q 6 8.015625 6 15.921875 
Q 6 25.140625 12.171875 29.828125 
Q 18.359375 34.515625 30.609375 34.515625 
L 43.21875 34.515625 
L 43.21875 35.40625 
Q 43.21875 41.609375 39.140625 45 
Q 35.0625 48.390625 27.6875 48.390625 
Q 23 48.390625 18.546875 47.265625 
Q 14.109375 46.140625 10.015625 43.890625 
L 10.015625 52.203125 
Q 14.9375 54.109375 19.578125 55.046875 
Q 24.21875 56 28.609375 56 
Q 40.484375 56 46.34375 49.84375 
Q 52.203125 43.703125 52.203125 31.203125 
z
" id="DejaVuSans-97"/>
       <path d="M 41.109375 46.296875 
Q 39.59375 47.171875 37.8125 47.578125 
Q 36.03125 48 33.890625 48 
Q 26.265625 48 22.1875 43.046875 
Q 18.109375 38.09375 18.109375 28.8125 
L 18.109375 0 
L 9.078125 0 
L 9.078125 54.6875 
L 18.109375 54.6875 
L 18.109375 46.1875 
Q 20.953125 51.171875 25.484375 53.578125 
Q 30.03125 56 36.53125 56 
Q 37.453125 56 38.578125 55.875 
Q 39.703125 55.765625 41.0625 55.515625 
z
" id="DejaVuSans-114"/>
       <path d="M 44.390625 34.1875 
Q 47.5625 33.109375 50.5625 29.59375 
Q 53.5625 26.078125 56.59375 19.921875 
L 66.609375 0 
L 56 0 
L 46.6875 18.703125 
Q 43.0625 26.03125 39.671875 28.421875 
Q 36.28125 30.8125 30.421875 30.8125 
L 19.671875 30.8125 
L 19.671875 0 
L 9.8125 0 
L 9.8125 72.90625 
L 32.078125 72.90625 
Q 44.578125 72.90625 50.734375 67.671875 
Q 56.890625 62.453125 56.890625 51.90625 
Q 56.890625 45.015625 53.6875 40.46875 
Q 50.484375 35.9375 44.390625 34.1875 
z
M 19.671875 64.796875 
L 19.671875 38.921875 
L 32.078125 38.921875 
Q 39.203125 38.921875 42.84375 42.21875 
Q 46.484375 45.515625 46.484375 51.90625 
Q 46.484375 58.296875 42.84375 61.546875 
Q 39.203125 64.796875 32.078125 64.796875 
z
" id="DejaVuSans-82"/>
       <path d="M 18.3125 70.21875 
L 18.3125 54.6875 
L 36.8125 54.6875 
L 36.8125 47.703125 
L 18.3125 47.703125 
L 18.3125 18.015625 
Q 18.3125 11.328125 20.140625 9.421875 
Q 21.96875 7.515625 27.59375 7.515625 
L 36.8125 7.515625 
L 36.8125 0 
L 27.59375 0 
Q 17.1875 0 13.234375 3.875 
Q 9.28125 7.765625 9.28125 18.015625 
L 9.28125 47.703125 
L 2.6875 47.703125 
L 2.6875 54.6875 
L 9.28125 54.6875 
L 9.28125 70.21875 
z
" id="DejaVuSans-116"/>
       <path d="M 50.296875 -24.296875 
L 50.296875 -27.90625 
Q 33.5 -12.09375 23.703125 11.40625 
Q 13.90625 34.90625 13.90625 64.296875 
Q 13.90625 93.796875 23.953125 118.640625 
Q 34 143.5 50.296875 156.59375 
L 50.296875 153.296875 
Q 38.90625 141.59375 31.15625 118.84375 
Q 23.40625 96.09375 23.40625 64.296875 
Q 23.40625 8.796875 50.296875 -24.296875 
z
" id="STIXSizeTwoSym-Regular-40"/>
       <path d="M 44.578125 46.390625 
Q 43.21875 47.125 41.453125 47.515625 
Q 39.703125 47.90625 37.703125 47.90625 
Q 30.515625 47.90625 25.140625 42.453125 
Q 19.78125 37.015625 18.015625 27.875 
L 12.5 0 
L 3.515625 0 
L 14.203125 54.6875 
L 23.1875 54.6875 
L 21.484375 46.1875 
Q 25.046875 50.921875 30 53.453125 
Q 34.96875 56 40.578125 56 
Q 42.046875 56 43.453125 55.828125 
Q 44.875 55.671875 46.296875 55.28125 
z
" id="DejaVuSans-Oblique-114"/>
       <path d="M 53.71875 31.203125 
L 47.609375 0 
L 38.625 0 
L 40.28125 8.296875 
Q 36.328125 3.421875 31.265625 1 
Q 26.21875 -1.421875 20.015625 -1.421875 
Q 13.03125 -1.421875 8.5625 2.84375 
Q 4.109375 7.125 4.109375 13.8125 
Q 4.109375 23.390625 11.75 28.953125 
Q 19.390625 34.515625 32.8125 34.515625 
L 45.3125 34.515625 
L 45.796875 36.921875 
Q 45.90625 37.3125 45.953125 37.765625 
Q 46 38.234375 46 39.203125 
Q 46 43.5625 42.453125 45.96875 
Q 38.921875 48.390625 32.515625 48.390625 
Q 28.125 48.390625 23.5 47.265625 
Q 18.890625 46.140625 14.015625 43.890625 
L 15.578125 52.203125 
Q 20.65625 54.109375 25.515625 55.046875 
Q 30.375 56 34.90625 56 
Q 44.578125 56 49.625 51.796875 
Q 54.6875 47.609375 54.6875 39.59375 
Q 54.6875 37.984375 54.4375 35.8125 
Q 54.203125 33.640625 53.71875 31.203125 
z
M 44 27.484375 
L 35.015625 27.484375 
Q 23.96875 27.484375 18.671875 24.53125 
Q 13.375 21.578125 13.375 15.375 
Q 13.375 11.078125 16.078125 8.640625 
Q 18.796875 6.203125 23.578125 6.203125 
Q 30.90625 6.203125 36.375 11.453125 
Q 41.84375 16.703125 43.609375 25.484375 
z
" id="DejaVuSans-Oblique-97"/>
       <path d="M 41.796875 8.203125 
Q 38.1875 3.46875 33.25 1.015625 
Q 28.328125 -1.421875 22.3125 -1.421875 
Q 14.109375 -1.421875 9.34375 4.171875 
Q 4.59375 9.765625 4.59375 19.484375 
Q 4.59375 27.59375 7.46875 34.9375 
Q 10.359375 42.28125 15.828125 48.09375 
Q 19.4375 51.953125 23.96875 53.96875 
Q 28.515625 56 33.5 56 
Q 38.765625 56 42.796875 53.453125 
Q 46.828125 50.921875 49.03125 46.1875 
L 54.890625 75.984375 
L 63.921875 75.984375 
L 49.125 0 
L 40.09375 0 
z
M 13.921875 21.09375 
Q 13.921875 14.015625 17.109375 10.0625 
Q 20.3125 6.109375 25.984375 6.109375 
Q 30.171875 6.109375 33.765625 8.125 
Q 37.359375 10.15625 40.09375 14.109375 
Q 42.96875 18.21875 44.625 23.578125 
Q 46.296875 28.953125 46.296875 34.1875 
Q 46.296875 40.96875 43.09375 44.765625 
Q 39.890625 48.578125 34.28125 48.578125 
Q 30.03125 48.578125 26.359375 46.578125 
Q 22.703125 44.578125 20.125 40.828125 
Q 17.28125 36.765625 15.59375 31.390625 
Q 13.921875 26.03125 13.921875 21.09375 
z
" id="DejaVuSans-Oblique-100"/>
       <path d="M 50 53.078125 
L 48.296875 44.578125 
Q 44.734375 46.53125 40.765625 47.5 
Q 36.8125 48.484375 32.625 48.484375 
Q 25.53125 48.484375 21.453125 46.0625 
Q 17.390625 43.65625 17.390625 39.5 
Q 17.390625 34.671875 26.859375 32.078125 
Q 27.59375 31.890625 27.9375 31.78125 
L 30.8125 30.90625 
Q 39.796875 28.421875 42.796875 25.6875 
Q 45.796875 22.953125 45.796875 18.21875 
Q 45.796875 9.515625 38.890625 4.046875 
Q 31.984375 -1.421875 20.796875 -1.421875 
Q 16.453125 -1.421875 11.671875 -0.578125 
Q 6.890625 0.25 1.125 2 
L 2.875 11.28125 
Q 7.8125 8.734375 12.59375 7.421875 
Q 17.390625 6.109375 21.78125 6.109375 
Q 28.375 6.109375 32.5 8.9375 
Q 36.625 11.765625 36.625 16.109375 
Q 36.625 20.796875 25.78125 23.6875 
L 24.859375 23.921875 
L 21.78125 24.703125 
Q 14.9375 26.515625 11.765625 29.46875 
Q 8.59375 32.421875 8.59375 37.015625 
Q 8.59375 45.75 15.15625 50.875 
Q 21.734375 56 33.015625 56 
Q 37.453125 56 41.671875 55.265625 
Q 45.90625 54.546875 50 53.078125 
z
" id="DejaVuSans-Oblique-115"/>
       <path d="M 11.40625 153 
L 11.40625 156.59375 
Q 28.203125 140.796875 38 117.296875 
Q 47.796875 93.796875 47.796875 64.296875 
Q 47.796875 34.90625 37.75 10.046875 
Q 27.703125 -14.796875 11.40625 -27.90625 
L 11.40625 -24.59375 
Q 22.796875 -12.90625 30.546875 9.890625 
Q 38.296875 32.703125 38.296875 64.296875 
Q 38.296875 119.90625 11.40625 153 
z
" id="STIXSizeTwoSym-Regular-41"/>
      </defs>
      <use transform="translate(0 0.01875)" xlink:href="#DejaVuSans-65"/>
      <use transform="translate(68.408203 0.01875)" xlink:href="#DejaVuSans-110"/>
      <use transform="translate(131.787109 0.01875)" xlink:href="#DejaVuSans-103"/>
      <use transform="translate(195.263672 0.01875)" xlink:href="#DejaVuSans-117"/>
      <use transform="translate(258.642578 0.01875)" xlink:href="#DejaVuSans-108"/>
      <use transform="translate(286.425781 0.01875)" xlink:href="#DejaVuSans-97"/>
      <use transform="translate(347.705078 0.01875)" xlink:href="#DejaVuSans-114"/>
      <use transform="translate(388.818359 0.01875)" xlink:href="#DejaVuSans-32"/>
      <use transform="translate(420.605469 0.01875)" xlink:href="#DejaVuSans-82"/>
      <use transform="translate(490.087891 0.01875)" xlink:href="#DejaVuSans-97"/>
      <use transform="translate(551.367188 0.01875)" xlink:href="#DejaVuSans-116"/>
      <use transform="translate(590.576172 0.01875)" xlink:href="#DejaVuSans-101"/>
      <use transform="translate(652.099609 0.01875)" xlink:href="#DejaVuSans-32"/>
      <use transform="translate(683.886719 -28.96875)scale(0.810806)" xlink:href="#STIXSizeTwoSym-Regular-40"/>
      <use transform="translate(731.641724 44.810937)scale(0.7)" xlink:href="#DejaVuSans-Oblique-114"/>
      <use transform="translate(760.421021 44.810937)scale(0.7)" xlink:href="#DejaVuSans-Oblique-97"/>
      <use transform="translate(803.316528 44.810937)scale(0.7)" xlink:href="#DejaVuSans-Oblique-100"/>
      <use transform="translate(753.641724 -50.598438)scale(0.7)" xlink:href="#DejaVuSans-Oblique-115"/>
      <use transform="translate(793.366377 -23.801563)scale(0.49)" xlink:href="#DejaVuSans-50"/>
      <use transform="translate(860.250122 -28.96875)scale(0.810806)" xlink:href="#STIXSizeTwoSym-Regular-41"/>
      <path d="M 731.641724 18.815625 
L 731.641724 25.065625 
L 847.750122 25.065625 
L 847.750122 18.815625 
L 731.641724 18.815625 
z
"/>
     </g>
    </g>
   </g>
   <g id="line2d_10">
    <path clip-path="url(#p597eb79e16)" d="M 793.479467 563.274545 
L 883.149673 159.468278 
" style="fill:none;stroke:#000000;stroke-dasharray:4,6.6;stroke-dashoffset:0;stroke-width:4;"/>
   </g>
   <g id="line2d_11">
    <path clip-path="url(#p597eb79e16)" d="M 367.545988 67.965455 
L 883.149673 159.468278 
" style="fill:none;stroke:#000000;stroke-dasharray:4,6.6;stroke-dashoffset:0;stroke-width:4;"/>
   </g>
   <g id="line2d_12">
    <path clip-path="url(#p597eb79e16)" d="M 771.061915 559.797164 
L 210.623127 124.755531 
" style="fill:none;stroke:#000000;stroke-dasharray:4,6.6;stroke-dashoffset:0;stroke-width:4;"/>
   </g>
   <g id="line2d_13">
    <path clip-path="url(#p597eb79e16)" d="M 771.061915 559.797164 
L 793.479467 563.274545 
" style="fill:none;stroke:#000000;stroke-dasharray:4,6.6;stroke-dashoffset:0;stroke-width:4;"/>
   </g>
   <g id="line2d_14">
    <path clip-path="url(#p597eb79e16)" d="M 345.128436 69.539016 
L 210.623127 124.755531 
" style="fill:none;stroke:#000000;stroke-dasharray:4,6.6;stroke-dashoffset:0;stroke-width:4;"/>
   </g>
   <g id="line2d_15">
    <path clip-path="url(#p597eb79e16)" d="M 345.128436 69.539016 
L 367.545988 67.965455 
" style="fill:none;stroke:#000000;stroke-dasharray:4,6.6;stroke-dashoffset:0;stroke-width:4;"/>
   </g>
   <g id="line2d_16">
    <path clip-path="url(#p597eb79e16)" d="M 883.149673 89.830576 
L 210.623127 159.817089 
" style="fill:none;stroke:#000000;stroke-dasharray:4,6.6;stroke-dashoffset:0;stroke-width:4;"/>
   </g>
   <g id="line2d_17">
    <path clip-path="url(#p597eb79e16)" d="M 569.303952 164.991386 
L 210.623127 159.817089 
" style="fill:none;stroke:#000000;stroke-dasharray:4,6.6;stroke-dashoffset:0;stroke-width:4;"/>
   </g>
   <g id="line2d_18">
    <path clip-path="url(#p597eb79e16)" d="M 838.31457 114.760275 
L 883.149673 89.830576 
" style="fill:none;stroke:#000000;stroke-dasharray:4,6.6;stroke-dashoffset:0;stroke-width:4;"/>
   </g>
   <g id="line2d_19">
    <path clip-path="url(#p597eb79e16)" d="M 838.31457 114.760275 
L 815.897018 125.128753 
" style="fill:none;stroke:#000000;stroke-dasharray:4,6.6;stroke-dashoffset:0;stroke-width:4;"/>
   </g>
   <g id="line2d_20">
    <path clip-path="url(#p597eb79e16)" d="M 793.479467 132.892919 
L 771.061915 138.839874 
" style="fill:none;stroke:#000000;stroke-dasharray:4,6.6;stroke-dashoffset:0;stroke-width:4;"/>
   </g>
   <g id="line2d_21">
    <path clip-path="url(#p597eb79e16)" d="M 793.479467 132.892919 
L 815.897018 125.128753 
" style="fill:none;stroke:#000000;stroke-dasharray:4,6.6;stroke-dashoffset:0;stroke-width:4;"/>
   </g>
   <g id="line2d_22">
    <path clip-path="url(#p597eb79e16)" d="M 591.721503 164.540424 
L 569.303952 164.991386 
" style="fill:none;stroke:#000000;stroke-dasharray:4,6.6;stroke-dashoffset:0;stroke-width:4;"/>
   </g>
   <g id="line2d_23">
    <path clip-path="url(#p597eb79e16)" d="M 591.721503 164.540424 
L 614.139055 163.196669 
" style="fill:none;stroke:#000000;stroke-dasharray:4,6.6;stroke-dashoffset:0;stroke-width:4;"/>
   </g>
   <g id="line2d_24">
    <path clip-path="url(#p597eb79e16)" d="M 636.556606 161.055087 
L 658.974158 158.29622 
" style="fill:none;stroke:#000000;stroke-dasharray:4,6.6;stroke-dashoffset:0;stroke-width:4;"/>
   </g>
   <g id="line2d_25">
    <path clip-path="url(#p597eb79e16)" d="M 636.556606 161.055087 
L 614.139055 163.196669 
" style="fill:none;stroke:#000000;stroke-dasharray:4,6.6;stroke-dashoffset:0;stroke-width:4;"/>
   </g>
   <g id="line2d_26">
    <path clip-path="url(#p597eb79e16)" d="M 748.644364 143.66656 
L 771.061915 138.839874 
" style="fill:none;stroke:#000000;stroke-dasharray:4,6.6;stroke-dashoffset:0;stroke-width:4;"/>
   </g>
   <g id="line2d_27">
    <path clip-path="url(#p597eb79e16)" d="M 748.644364 143.66656 
L 726.226812 147.836281 
" style="fill:none;stroke:#000000;stroke-dasharray:4,6.6;stroke-dashoffset:0;stroke-width:4;"/>
   </g>
   <g id="line2d_28">
    <path clip-path="url(#p597eb79e16)" d="M 681.391709 155.107336 
L 658.974158 158.29622 
" style="fill:none;stroke:#000000;stroke-dasharray:4,6.6;stroke-dashoffset:0;stroke-width:4;"/>
   </g>
   <g id="line2d_29">
    <path clip-path="url(#p597eb79e16)" d="M 703.809261 151.613724 
L 726.226812 147.836281 
" style="fill:none;stroke:#000000;stroke-dasharray:4,6.6;stroke-dashoffset:0;stroke-width:4;"/>
   </g>
   <g id="line2d_30">
    <path clip-path="url(#p597eb79e16)" d="M 703.809261 151.613724 
L 681.391709 155.107336 
" style="fill:none;stroke:#000000;stroke-dasharray:4,6.6;stroke-dashoffset:0;stroke-width:4;"/>
   </g>
   <g id="line2d_31">
    <path clip-path="url(#p597eb79e16)" d="M 210.623127 124.755531 
L 222.056079 122.886334 
L 232.816503 120.900359 
L 242.904401 118.81725 
L 252.9923 116.502093 
L 262.407671 114.120725 
L 271.823043 111.523106 
L 281.910941 108.509538 
L 293.343892 104.846707 
L 312.174636 98.515835 
L 323.607587 94.790661 
L 331.677905 92.393347 
L 338.403171 90.634973 
L 344.45591 89.297296 
L 349.836122 88.341284 
L 354.543808 87.707636 
L 359.251494 87.279071 
L 363.95918 87.06622 
L 368.666865 87.074847 
L 373.374551 87.305513 
L 378.082237 87.753549 
L 382.789923 88.409335 
L 388.170135 89.395048 
L 393.550348 90.607095 
L 399.603087 92.202546 
L 406.328352 94.207266 
L 414.398671 96.845314 
L 426.504148 101.059174 
L 447.352471 108.31854 
L 458.785423 112.035771 
L 468.873321 115.088705 
L 478.961219 117.915489 
L 489.049117 120.520866 
L 499.809542 123.073216 
L 511.242493 125.557338 
L 524.020497 128.099483 
L 538.816081 130.801281 
L 557.646825 133.989928 
L 604.051156 141.735523 
L 616.829161 144.150886 
L 627.589585 146.403315 
L 637.004957 148.599584 
L 645.075276 150.698256 
L 652.473068 152.839735 
L 659.198333 155.004892 
L 665.251072 157.164263 
L 671.303811 159.556762 
L 676.684023 161.90901 
L 682.064236 164.503976 
L 686.771921 166.998464 
L 691.479607 169.72629 
L 696.187293 172.711407 
L 700.894979 175.977512 
L 705.602665 179.546959 
L 710.310351 183.440537 
L 714.34551 187.043943 
L 719.053196 191.56365 
L 723.760881 196.41198 
L 729.141094 202.314536 
L 735.193833 209.28923 
L 745.954257 221.774833 
L 749.989417 226.117438 
L 753.352049 229.410032 
L 756.042156 231.7749 
L 758.732262 233.844488 
L 761.422368 235.575767 
L 764.112474 236.91152 
L 766.130054 237.645463 
L 768.147633 238.127838 
L 769.492687 238.318506 
L 771.510266 238.383657 
L 772.855319 238.305286 
L 774.872899 237.950049 
L 776.890479 237.345166 
L 778.908058 236.525832 
L 780.925638 235.482059 
L 783.615744 233.752037 
L 786.30585 231.697062 
L 788.995956 229.340024 
L 791.686063 226.775586 
L 796.393748 221.850868 
L 801.101434 216.595877 
L 806.481647 210.510116 
L 813.879439 202.312159 
L 820.604704 195.380236 
L 827.329969 189.118609 
L 830.020076 186.803122 
L 834.727761 183.027096 
L 837.417868 181.013936 
L 840.7805 178.630539 
L 847.505766 174.366428 
L 852.885978 171.346665 
L 857.593664 168.963508 
L 862.30135 166.824857 
L 866.336509 165.147238 
L 873.734301 162.416644 
L 878.441987 160.885498 
L 881.80462 159.849025 
L 883.149673 159.468278 
L 883.149673 159.468278 
" style="fill:none;stroke:#1f77b4;stroke-linecap:square;stroke-width:4;"/>
   </g>
   <g id="line2d_32">
    <path clip-path="url(#p597eb79e16)" d="M 210.623127 124.755531 
L 233.040679 119.682834 
L 255.45823 112.785818 
L 277.875782 103.556563 
L 300.293333 91.901676 
L 322.710885 79.211518 
L 345.128436 69.539016 
L 367.545988 67.965455 
L 389.963539 75.33722 
L 412.381091 87.270549 
L 434.798642 99.204609 
L 457.216194 109.1463 
L 479.633745 116.89513 
L 502.051297 122.87715 
L 524.468848 127.595885 
L 546.8864 131.479073 
L 569.303952 134.873495 
L 591.721503 138.083976 
L 614.139055 141.431302 
L 636.556606 145.342033 
L 658.974158 150.524954 
L 681.391709 158.40019 
L 703.809261 172.358343 
L 726.226812 202.306091 
L 748.644364 285.434367 
L 771.061915 559.797164 
L 793.479467 563.274545 
L 815.897018 283.419441 
L 838.31457 200.582102 
L 860.732121 171.999769 
L 883.149673 159.468278 
" style="fill:none;stroke:#1f77b4;stroke-dasharray:14.8,6.4;stroke-dashoffset:0;stroke-width:4;"/>
    <defs>
     <path d="M 0 4.5 
C 1.193414 4.5 2.338109 4.025852 3.181981 3.181981 
C 4.025852 2.338109 4.5 1.193414 4.5 0 
C 4.5 -1.193414 4.025852 -2.338109 3.181981 -3.181981 
C 2.338109 -4.025852 1.193414 -4.5 0 -4.5 
C -1.193414 -4.5 -2.338109 -4.025852 -3.181981 -3.181981 
C -4.025852 -2.338109 -4.5 -1.193414 -4.5 0 
C -4.5 1.193414 -4.025852 2.338109 -3.181981 3.181981 
C -2.338109 4.025852 -1.193414 4.5 0 4.5 
z
" id="m99a9057cc5" style="stroke:#1f77b4;"/>
    </defs>
    <g clip-path="url(#p597eb79e16)">
     <use style="fill:#1f77b4;stroke:#1f77b4;" x="210.623127" xlink:href="#m99a9057cc5" y="124.755531"/>
     <use style="fill:#1f77b4;stroke:#1f77b4;" x="233.040679" xlink:href="#m99a9057cc5" y="119.682834"/>
     <use style="fill:#1f77b4;stroke:#1f77b4;" x="255.45823" xlink:href="#m99a9057cc5" y="112.785818"/>
     <use style="fill:#1f77b4;stroke:#1f77b4;" x="277.875782" xlink:href="#m99a9057cc5" y="103.556563"/>
     <use style="fill:#1f77b4;stroke:#1f77b4;" x="300.293333" xlink:href="#m99a9057cc5" y="91.901676"/>
     <use style="fill:#1f77b4;stroke:#1f77b4;" x="322.710885" xlink:href="#m99a9057cc5" y="79.211518"/>
     <use style="fill:#1f77b4;stroke:#1f77b4;" x="345.128436" xlink:href="#m99a9057cc5" y="69.539016"/>
     <use style="fill:#1f77b4;stroke:#1f77b4;" x="367.545988" xlink:href="#m99a9057cc5" y="67.965455"/>
     <use style="fill:#1f77b4;stroke:#1f77b4;" x="389.963539" xlink:href="#m99a9057cc5" y="75.33722"/>
     <use style="fill:#1f77b4;stroke:#1f77b4;" x="412.381091" xlink:href="#m99a9057cc5" y="87.270549"/>
     <use style="fill:#1f77b4;stroke:#1f77b4;" x="434.798642" xlink:href="#m99a9057cc5" y="99.204609"/>
     <use style="fill:#1f77b4;stroke:#1f77b4;" x="457.216194" xlink:href="#m99a9057cc5" y="109.1463"/>
     <use style="fill:#1f77b4;stroke:#1f77b4;" x="479.633745" xlink:href="#m99a9057cc5" y="116.89513"/>
     <use style="fill:#1f77b4;stroke:#1f77b4;" x="502.051297" xlink:href="#m99a9057cc5" y="122.87715"/>
     <use style="fill:#1f77b4;stroke:#1f77b4;" x="524.468848" xlink:href="#m99a9057cc5" y="127.595885"/>
     <use style="fill:#1f77b4;stroke:#1f77b4;" x="546.8864" xlink:href="#m99a9057cc5" y="131.479073"/>
     <use style="fill:#1f77b4;stroke:#1f77b4;" x="569.303952" xlink:href="#m99a9057cc5" y="134.873495"/>
     <use style="fill:#1f77b4;stroke:#1f77b4;" x="591.721503" xlink:href="#m99a9057cc5" y="138.083976"/>
     <use style="fill:#1f77b4;stroke:#1f77b4;" x="614.139055" xlink:href="#m99a9057cc5" y="141.431302"/>
     <use style="fill:#1f77b4;stroke:#1f77b4;" x="636.556606" xlink:href="#m99a9057cc5" y="145.342033"/>
     <use style="fill:#1f77b4;stroke:#1f77b4;" x="658.974158" xlink:href="#m99a9057cc5" y="150.524954"/>
     <use style="fill:#1f77b4;stroke:#1f77b4;" x="681.391709" xlink:href="#m99a9057cc5" y="158.40019"/>
     <use style="fill:#1f77b4;stroke:#1f77b4;" x="703.809261" xlink:href="#m99a9057cc5" y="172.358343"/>
     <use style="fill:#1f77b4;stroke:#1f77b4;" x="726.226812" xlink:href="#m99a9057cc5" y="202.306091"/>
     <use style="fill:#1f77b4;stroke:#1f77b4;" x="748.644364" xlink:href="#m99a9057cc5" y="285.434367"/>
     <use style="fill:#1f77b4;stroke:#1f77b4;" x="771.061915" xlink:href="#m99a9057cc5" y="559.797164"/>
     <use style="fill:#1f77b4;stroke:#1f77b4;" x="793.479467" xlink:href="#m99a9057cc5" y="563.274545"/>
     <use style="fill:#1f77b4;stroke:#1f77b4;" x="815.897018" xlink:href="#m99a9057cc5" y="283.419441"/>
     <use style="fill:#1f77b4;stroke:#1f77b4;" x="838.31457" xlink:href="#m99a9057cc5" y="200.582102"/>
     <use style="fill:#1f77b4;stroke:#1f77b4;" x="860.732121" xlink:href="#m99a9057cc5" y="171.999769"/>
     <use style="fill:#1f77b4;stroke:#1f77b4;" x="883.149673" xlink:href="#m99a9057cc5" y="159.468278"/>
    </g>
   </g>
   <g id="line2d_33">
    <path clip-path="url(#p597eb79e16)" d="M 210.623127 159.817089 
L 268.46041 157.020488 
L 291.326313 156.183911 
L 312.174636 155.642877 
L 332.350432 155.346335 
L 351.853702 155.283359 
L 371.356972 155.442624 
L 391.532768 155.835337 
L 412.381091 156.46811 
L 435.246993 157.390804 
L 464.165635 158.797982 
L 511.91502 161.146447 
L 530.745763 161.827688 
L 546.8864 162.189306 
L 561.009457 162.291004 
L 574.459988 162.172818 
L 587.910519 161.827081 
L 600.688524 161.28031 
L 614.139055 160.475758 
L 627.589585 159.445039 
L 641.712643 158.135574 
L 656.508227 156.536471 
L 671.976337 154.641312 
L 688.116975 152.442911 
L 704.930138 149.924976 
L 721.070775 147.281533 
L 735.866359 144.63789 
L 749.31689 142.015577 
L 762.094895 139.285922 
L 774.200372 136.432611 
L 782.943217 134.183445 
L 796.393748 130.32284 
L 806.481647 127.060987 
L 815.897018 123.695477 
L 823.967337 120.53107 
L 838.090394 114.293478 
L 844.143133 111.288367 
L 845.488186 110.680346 
L 846.833239 109.950197 
L 850.195872 108.254982 
L 850.868399 108.030057 
L 851.540925 107.519722 
L 860.28377 102.815349 
L 860.956297 102.165254 
L 863.646403 100.783139 
L 867.681562 98.558242 
L 868.354089 98.342807 
L 869.026615 97.457868 
L 871.044195 96.79885 
L 871.716721 96.091632 
L 873.061775 95.488773 
L 873.734301 94.851666 
L 875.079354 94.389646 
L 876.424407 93.516082 
L 877.76946 92.897067 
L 878.441987 92.007459 
L 879.78704 91.891884 
L 880.459567 91.126705 
L 881.132093 90.655318 
L 881.80462 90.684136 
L 883.149673 89.830576 
L 883.149673 89.830576 
" style="fill:none;stroke:#ff7f0e;stroke-linecap:square;stroke-width:4;"/>
   </g>
   <g id="line2d_34">
    <path clip-path="url(#p597eb79e16)" d="M 210.623127 159.817089 
L 233.040679 158.592491 
L 255.45823 157.320412 
L 277.875782 156.172888 
L 300.293333 155.268163 
L 322.710885 154.678333 
L 345.128436 154.44242 
L 367.545988 154.57773 
L 389.963539 155.086619 
L 412.381091 155.957886 
L 434.798642 157.16266 
L 457.216194 158.64491 
L 479.633745 160.307844 
L 502.051297 162.000304 
L 524.468848 163.512127 
L 546.8864 164.591265 
L 569.303952 164.991386 
L 591.721503 164.540424 
L 614.139055 163.196669 
L 636.556606 161.055087 
L 658.974158 158.29622 
L 681.391709 155.107336 
L 703.809261 151.613724 
L 726.226812 147.836281 
L 748.644364 143.66656 
L 771.061915 138.839874 
L 793.479467 132.892919 
L 815.897018 125.128753 
L 838.31457 114.760275 
L 860.732121 101.847128 
L 883.149673 89.830576 
" style="fill:none;stroke:#ff7f0e;stroke-dasharray:14.8,6.4;stroke-dashoffset:0;stroke-width:4;"/>
    <defs>
     <path d="M 0 4.5 
C 1.193414 4.5 2.338109 4.025852 3.181981 3.181981 
C 4.025852 2.338109 4.5 1.193414 4.5 0 
C 4.5 -1.193414 4.025852 -2.338109 3.181981 -3.181981 
C 2.338109 -4.025852 1.193414 -4.5 0 -4.5 
C -1.193414 -4.5 -2.338109 -4.025852 -3.181981 -3.181981 
C -4.025852 -2.338109 -4.5 -1.193414 -4.5 0 
C -4.5 1.193414 -4.025852 2.338109 -3.181981 3.181981 
C -2.338109 4.025852 -1.193414 4.5 0 4.5 
z
" id="m6c82e54668" style="stroke:#ff7f0e;"/>
    </defs>
    <g clip-path="url(#p597eb79e16)">
     <use style="fill:#ff7f0e;stroke:#ff7f0e;" x="210.623127" xlink:href="#m6c82e54668" y="159.817089"/>
     <use style="fill:#ff7f0e;stroke:#ff7f0e;" x="233.040679" xlink:href="#m6c82e54668" y="158.592491"/>
     <use style="fill:#ff7f0e;stroke:#ff7f0e;" x="255.45823" xlink:href="#m6c82e54668" y="157.320412"/>
     <use style="fill:#ff7f0e;stroke:#ff7f0e;" x="277.875782" xlink:href="#m6c82e54668" y="156.172888"/>
     <use style="fill:#ff7f0e;stroke:#ff7f0e;" x="300.293333" xlink:href="#m6c82e54668" y="155.268163"/>
     <use style="fill:#ff7f0e;stroke:#ff7f0e;" x="322.710885" xlink:href="#m6c82e54668" y="154.678333"/>
     <use style="fill:#ff7f0e;stroke:#ff7f0e;" x="345.128436" xlink:href="#m6c82e54668" y="154.44242"/>
     <use style="fill:#ff7f0e;stroke:#ff7f0e;" x="367.545988" xlink:href="#m6c82e54668" y="154.57773"/>
     <use style="fill:#ff7f0e;stroke:#ff7f0e;" x="389.963539" xlink:href="#m6c82e54668" y="155.086619"/>
     <use style="fill:#ff7f0e;stroke:#ff7f0e;" x="412.381091" xlink:href="#m6c82e54668" y="155.957886"/>
     <use style="fill:#ff7f0e;stroke:#ff7f0e;" x="434.798642" xlink:href="#m6c82e54668" y="157.16266"/>
     <use style="fill:#ff7f0e;stroke:#ff7f0e;" x="457.216194" xlink:href="#m6c82e54668" y="158.64491"/>
     <use style="fill:#ff7f0e;stroke:#ff7f0e;" x="479.633745" xlink:href="#m6c82e54668" y="160.307844"/>
     <use style="fill:#ff7f0e;stroke:#ff7f0e;" x="502.051297" xlink:href="#m6c82e54668" y="162.000304"/>
     <use style="fill:#ff7f0e;stroke:#ff7f0e;" x="524.468848" xlink:href="#m6c82e54668" y="163.512127"/>
     <use style="fill:#ff7f0e;stroke:#ff7f0e;" x="546.8864" xlink:href="#m6c82e54668" y="164.591265"/>
     <use style="fill:#ff7f0e;stroke:#ff7f0e;" x="569.303952" xlink:href="#m6c82e54668" y="164.991386"/>
     <use style="fill:#ff7f0e;stroke:#ff7f0e;" x="591.721503" xlink:href="#m6c82e54668" y="164.540424"/>
     <use style="fill:#ff7f0e;stroke:#ff7f0e;" x="614.139055" xlink:href="#m6c82e54668" y="163.196669"/>
     <use style="fill:#ff7f0e;stroke:#ff7f0e;" x="636.556606" xlink:href="#m6c82e54668" y="161.055087"/>
     <use style="fill:#ff7f0e;stroke:#ff7f0e;" x="658.974158" xlink:href="#m6c82e54668" y="158.29622"/>
     <use style="fill:#ff7f0e;stroke:#ff7f0e;" x="681.391709" xlink:href="#m6c82e54668" y="155.107336"/>
     <use style="fill:#ff7f0e;stroke:#ff7f0e;" x="703.809261" xlink:href="#m6c82e54668" y="151.613724"/>
     <use style="fill:#ff7f0e;stroke:#ff7f0e;" x="726.226812" xlink:href="#m6c82e54668" y="147.836281"/>
     <use style="fill:#ff7f0e;stroke:#ff7f0e;" x="748.644364" xlink:href="#m6c82e54668" y="143.66656"/>
     <use style="fill:#ff7f0e;stroke:#ff7f0e;" x="771.061915" xlink:href="#m6c82e54668" y="138.839874"/>
     <use style="fill:#ff7f0e;stroke:#ff7f0e;" x="793.479467" xlink:href="#m6c82e54668" y="132.892919"/>
     <use style="fill:#ff7f0e;stroke:#ff7f0e;" x="815.897018" xlink:href="#m6c82e54668" y="125.128753"/>
     <use style="fill:#ff7f0e;stroke:#ff7f0e;" x="838.31457" xlink:href="#m6c82e54668" y="114.760275"/>
     <use style="fill:#ff7f0e;stroke:#ff7f0e;" x="860.732121" xlink:href="#m6c82e54668" y="101.847128"/>
     <use style="fill:#ff7f0e;stroke:#ff7f0e;" x="883.149673" xlink:href="#m6c82e54668" y="89.830576"/>
    </g>
   </g>
   <g id="patch_3">
    <path d="M 176.9968 588.04 
L 176.9968 43.2 
" style="fill:none;stroke:#000000;stroke-linecap:square;stroke-linejoin:miter;stroke-width:0.8;"/>
   </g>
   <g id="patch_4">
    <path d="M 916.776 588.04 
L 916.776 43.2 
" style="fill:none;stroke:#000000;stroke-linecap:square;stroke-linejoin:miter;stroke-width:0.8;"/>
   </g>
   <g id="patch_5">
    <path d="M 176.9968 588.04 
L 916.776 588.04 
" style="fill:none;stroke:#000000;stroke-linecap:square;stroke-linejoin:miter;stroke-width:0.8;"/>
   </g>
   <g id="patch_6">
    <path d="M 176.9968 43.2 
L 916.776 43.2 
" style="fill:none;stroke:#000000;stroke-linecap:square;stroke-linejoin:miter;stroke-width:0.8;"/>
   </g>
   <g id="legend_1">
    <g id="patch_7">
     <path d="M 204.9968 568.04 
L 456.1968 568.04 
Q 464.1968 568.04 464.1968 560.04 
L 464.1968 439.24 
Q 464.1968 431.24 456.1968 431.24 
L 204.9968 431.24 
Q 196.9968 431.24 196.9968 439.24 
L 196.9968 560.04 
Q 196.9968 568.04 204.9968 568.04 
z
" style="fill:#ffffff;opacity:0.8;stroke:#cccccc;stroke-linejoin:miter;"/>
    </g>
    <g id="line2d_35">
     <path d="M 212.9968 467.32125 
L 292.9968 467.32125 
" style="fill:none;stroke:#1f77b4;stroke-linecap:square;stroke-width:4;"/>
    </g>
    <g id="line2d_36"/>
    <g id="text_12">
     <!-- $\omega^{[1]}(t)$ -->
     <g transform="translate(324.9968 481.32125)scale(0.4 -0.4)">
      <defs>
       <path d="M 21.390625 -1.421875 
Q 1.125 -1.421875 6.78125 27.59375 
Q 8.984375 39.0625 19.625 54.6875 
L 29.296875 54.6875 
Q 19.234375 39.0625 17 27.34375 
Q 12.796875 6.203125 23.734375 6.203125 
Q 33.84375 6.203125 38.71875 32.46875 
L 47.015625 32.46875 
Q 41.703125 6.0625 51.8125 6.203125 
Q 62.703125 6.296875 66.796875 27.34375 
Q 69.046875 39.0625 65.140625 54.6875 
L 74.8125 54.6875 
Q 79.296875 39.0625 77.09375 27.59375 
Q 71.53125 -1.46875 51.21875 -1.421875 
Q 37.9375 -1.375 39.109375 13.1875 
Q 34.28125 -1.421875 21.390625 -1.421875 
z
" id="DejaVuSans-Oblique-969"/>
       <path d="M 8.59375 75.984375 
L 29.296875 75.984375 
L 29.296875 69 
L 17.578125 69 
L 17.578125 -6.203125 
L 29.296875 -6.203125 
L 29.296875 -13.1875 
L 8.59375 -13.1875 
z
" id="DejaVuSans-91"/>
       <path d="M 30.421875 75.984375 
L 30.421875 -13.1875 
L 9.71875 -13.1875 
L 9.71875 -6.203125 
L 21.390625 -6.203125 
L 21.390625 69 
L 9.71875 69 
L 9.71875 75.984375 
z
" id="DejaVuSans-93"/>
       <path d="M 42.28125 54.6875 
L 40.921875 47.703125 
L 23 47.703125 
L 17.1875 18.015625 
Q 16.890625 16.359375 16.75 15.234375 
Q 16.609375 14.109375 16.609375 13.484375 
Q 16.609375 10.359375 18.484375 8.9375 
Q 20.359375 7.515625 24.515625 7.515625 
L 33.59375 7.515625 
L 32.078125 0 
L 23.484375 0 
Q 15.484375 0 11.546875 3.125 
Q 7.625 6.25 7.625 12.59375 
Q 7.625 13.71875 7.765625 15.0625 
Q 7.90625 16.40625 8.203125 18.015625 
L 14.015625 47.703125 
L 6.390625 47.703125 
L 7.8125 54.6875 
L 15.28125 54.6875 
L 18.3125 70.21875 
L 27.296875 70.21875 
L 24.3125 54.6875 
z
" id="DejaVuSans-Oblique-116"/>
      </defs>
      <use transform="translate(0 0.529687)" xlink:href="#DejaVuSans-Oblique-969"/>
      <use transform="translate(88.20638 38.810937)scale(0.7)" xlink:href="#DejaVuSans-91"/>
      <use transform="translate(115.515951 38.810937)scale(0.7)" xlink:href="#DejaVuSans-49"/>
      <use transform="translate(160.052083 38.810937)scale(0.7)" xlink:href="#DejaVuSans-93"/>
      <use transform="translate(190.096029 0.529687)" xlink:href="#DejaVuSans-40"/>
      <use transform="translate(229.109701 0.529687)" xlink:href="#DejaVuSans-Oblique-116"/>
      <use transform="translate(268.318685 0.529687)" xlink:href="#DejaVuSans-41"/>
     </g>
    </g>
    <g id="line2d_37">
     <path d="M 212.9968 529.72125 
L 292.9968 529.72125 
" style="fill:none;stroke:#ff7f0e;stroke-linecap:square;stroke-width:4;"/>
    </g>
    <g id="line2d_38"/>
    <g id="text_13">
     <!-- $\omega^{[2]}(t)$ -->
     <g transform="translate(324.9968 543.72125)scale(0.4 -0.4)">
      <use transform="translate(0 0.529687)" xlink:href="#DejaVuSans-Oblique-969"/>
      <use transform="translate(88.20638 38.810937)scale(0.7)" xlink:href="#DejaVuSans-91"/>
      <use transform="translate(115.515951 38.810937)scale(0.7)" xlink:href="#DejaVuSans-50"/>
      <use transform="translate(160.052083 38.810937)scale(0.7)" xlink:href="#DejaVuSans-93"/>
      <use transform="translate(190.096029 0.529687)" xlink:href="#DejaVuSans-40"/>
      <use transform="translate(229.109701 0.529687)" xlink:href="#DejaVuSans-Oblique-116"/>
      <use transform="translate(268.318685 0.529687)" xlink:href="#DejaVuSans-41"/>
     </g>
    </g>
   </g>
  </g>
 </g>
 <defs>
  <clipPath id="p597eb79e16">
   <rect height="544.84" width="739.7792" x="176.9968" y="43.2"/>
  </clipPath>
 </defs>
</svg>
