<?xml version="1.0" encoding="utf-8" standalone="no"?>
<!DOCTYPE svg PUBLIC "-//W3C//DTD SVG 1.1//EN"
  "http://www.w3.org/Graphics/SVG/1.1/DTD/svg11.dtd">
<svg height="720pt" version="1.1" viewBox="0 0 959.76 720" width="959.76pt" xmlns="http://www.w3.org/2000/svg" xmlns:xlink="http://www.w3.org/1999/xlink">
 <metadata>
  <rdf:RDF xmlns:cc="http://creativecommons.org/ns#" xmlns:dc="http://purl.org/dc/elements/1.1/" xmlns:rdf="http://www.w3.org/1999/02/22-rdf-syntax-ns#">
   <cc:Work>
    <dc:type rdf:resource="http://purl.org/dc/dcmitype/StillImage"/>
    <dc:date>2021-10-18T11:12:48.617190</dc:date>
    <dc:format>image/svg+xml</dc:format>
    <dc:creator>
     <cc:Agent>
      <dc:title>Matplotlib v3.4.2, https://matplotlib.org/</dc:title>
     </cc:Agent>
    </dc:creator>
   </cc:Work>
  </rdf:RDF>
 </metadata>
 <defs>
  <style type="text/css">*{stroke-linecap:butt;stroke-linejoin:round;}</style>
 </defs>
 <g id="figure_1">
  <g id="patch_1">
   <path d="M 0 720 
L 959.76 720 
L 959.76 0 
L 0 0 
z
" style="fill:#ffffff;"/>
  </g>
  <g id="axes_1">
   <g id="patch_2">
    <path d="M 131.762 619.72 
L 925.2 619.72 
L 925.2 34.56 
L 131.762 34.56 
z
" style="fill:#ffffff;"/>
   </g>
   <g id="matplotlib.axis_1">
    <g id="xtick_1">
     <g id="line2d_1">
      <defs>
       <path d="M 0 0 
L 0 3.5 
" id="mcfde5fb065" style="stroke:#000000;stroke-width:0.8;"/>
      </defs>
      <g>
       <use style="stroke:#000000;stroke-width:0.8;" x="167.827364" xlink:href="#mcfde5fb065" y="619.72"/>
      </g>
     </g>
     <g id="text_1">
      <!-- 10 -->
      <g transform="translate(152.557364 644.95625)scale(0.24 -0.24)">
       <defs>
        <path d="M 794 531 
L 1825 531 
L 1825 4091 
L 703 3866 
L 703 4441 
L 1819 4666 
L 2450 4666 
L 2450 531 
L 3481 531 
L 3481 0 
L 794 0 
L 794 531 
z
" id="DejaVuSans-31" transform="scale(0.015625)"/>
        <path d="M 2034 4250 
Q 1547 4250 1301 3770 
Q 1056 3291 1056 2328 
Q 1056 1369 1301 889 
Q 1547 409 2034 409 
Q 2525 409 2770 889 
Q 3016 1369 3016 2328 
Q 3016 3291 2770 3770 
Q 2525 4250 2034 4250 
z
M 2034 4750 
Q 2819 4750 3233 4129 
Q 3647 3509 3647 2328 
Q 3647 1150 3233 529 
Q 2819 -91 2034 -91 
Q 1250 -91 836 529 
Q 422 1150 422 2328 
Q 422 3509 836 4129 
Q 1250 4750 2034 4750 
z
" id="DejaVuSans-30" transform="scale(0.015625)"/>
       </defs>
       <use xlink:href="#DejaVuSans-31"/>
       <use x="63.623047" xlink:href="#DejaVuSans-30"/>
      </g>
     </g>
    </g>
    <g id="xtick_2">
     <g id="line2d_2">
      <g>
       <use style="stroke:#000000;stroke-width:0.8;" x="312.088818" xlink:href="#mcfde5fb065" y="619.72"/>
      </g>
     </g>
     <g id="text_2">
      <!-- 12 -->
      <g transform="translate(296.818818 644.95625)scale(0.24 -0.24)">
       <defs>
        <path d="M 1228 531 
L 3431 531 
L 3431 0 
L 469 0 
L 469 531 
Q 828 903 1448 1529 
Q 2069 2156 2228 2338 
Q 2531 2678 2651 2914 
Q 2772 3150 2772 3378 
Q 2772 3750 2511 3984 
Q 2250 4219 1831 4219 
Q 1534 4219 1204 4116 
Q 875 4013 500 3803 
L 500 4441 
Q 881 4594 1212 4672 
Q 1544 4750 1819 4750 
Q 2544 4750 2975 4387 
Q 3406 4025 3406 3419 
Q 3406 3131 3298 2873 
Q 3191 2616 2906 2266 
Q 2828 2175 2409 1742 
Q 1991 1309 1228 531 
z
" id="DejaVuSans-32" transform="scale(0.015625)"/>
       </defs>
       <use xlink:href="#DejaVuSans-31"/>
       <use x="63.623047" xlink:href="#DejaVuSans-32"/>
      </g>
     </g>
    </g>
    <g id="xtick_3">
     <g id="line2d_3">
      <g>
       <use style="stroke:#000000;stroke-width:0.8;" x="456.350273" xlink:href="#mcfde5fb065" y="619.72"/>
      </g>
     </g>
     <g id="text_3">
      <!-- 14 -->
      <g transform="translate(441.080273 644.95625)scale(0.24 -0.24)">
       <defs>
        <path d="M 2419 4116 
L 825 1625 
L 2419 1625 
L 2419 4116 
z
M 2253 4666 
L 3047 4666 
L 3047 1625 
L 3713 1625 
L 3713 1100 
L 3047 1100 
L 3047 0 
L 2419 0 
L 2419 1100 
L 313 1100 
L 313 1709 
L 2253 4666 
z
" id="DejaVuSans-34" transform="scale(0.015625)"/>
       </defs>
       <use xlink:href="#DejaVuSans-31"/>
       <use x="63.623047" xlink:href="#DejaVuSans-34"/>
      </g>
     </g>
    </g>
    <g id="xtick_4">
     <g id="line2d_4">
      <g>
       <use style="stroke:#000000;stroke-width:0.8;" x="600.611727" xlink:href="#mcfde5fb065" y="619.72"/>
      </g>
     </g>
     <g id="text_4">
      <!-- 16 -->
      <g transform="translate(585.341727 644.95625)scale(0.24 -0.24)">
       <defs>
        <path d="M 2113 2584 
Q 1688 2584 1439 2293 
Q 1191 2003 1191 1497 
Q 1191 994 1439 701 
Q 1688 409 2113 409 
Q 2538 409 2786 701 
Q 3034 994 3034 1497 
Q 3034 2003 2786 2293 
Q 2538 2584 2113 2584 
z
M 3366 4563 
L 3366 3988 
Q 3128 4100 2886 4159 
Q 2644 4219 2406 4219 
Q 1781 4219 1451 3797 
Q 1122 3375 1075 2522 
Q 1259 2794 1537 2939 
Q 1816 3084 2150 3084 
Q 2853 3084 3261 2657 
Q 3669 2231 3669 1497 
Q 3669 778 3244 343 
Q 2819 -91 2113 -91 
Q 1303 -91 875 529 
Q 447 1150 447 2328 
Q 447 3434 972 4092 
Q 1497 4750 2381 4750 
Q 2619 4750 2861 4703 
Q 3103 4656 3366 4563 
z
" id="DejaVuSans-36" transform="scale(0.015625)"/>
       </defs>
       <use xlink:href="#DejaVuSans-31"/>
       <use x="63.623047" xlink:href="#DejaVuSans-36"/>
      </g>
     </g>
    </g>
    <g id="xtick_5">
     <g id="line2d_5">
      <g>
       <use style="stroke:#000000;stroke-width:0.8;" x="744.873182" xlink:href="#mcfde5fb065" y="619.72"/>
      </g>
     </g>
     <g id="text_5">
      <!-- 18 -->
      <g transform="translate(729.603182 644.95625)scale(0.24 -0.24)">
       <defs>
        <path d="M 2034 2216 
Q 1584 2216 1326 1975 
Q 1069 1734 1069 1313 
Q 1069 891 1326 650 
Q 1584 409 2034 409 
Q 2484 409 2743 651 
Q 3003 894 3003 1313 
Q 3003 1734 2745 1975 
Q 2488 2216 2034 2216 
z
M 1403 2484 
Q 997 2584 770 2862 
Q 544 3141 544 3541 
Q 544 4100 942 4425 
Q 1341 4750 2034 4750 
Q 2731 4750 3128 4425 
Q 3525 4100 3525 3541 
Q 3525 3141 3298 2862 
Q 3072 2584 2669 2484 
Q 3125 2378 3379 2068 
Q 3634 1759 3634 1313 
Q 3634 634 3220 271 
Q 2806 -91 2034 -91 
Q 1263 -91 848 271 
Q 434 634 434 1313 
Q 434 1759 690 2068 
Q 947 2378 1403 2484 
z
M 1172 3481 
Q 1172 3119 1398 2916 
Q 1625 2713 2034 2713 
Q 2441 2713 2670 2916 
Q 2900 3119 2900 3481 
Q 2900 3844 2670 4047 
Q 2441 4250 2034 4250 
Q 1625 4250 1398 4047 
Q 1172 3844 1172 3481 
z
" id="DejaVuSans-38" transform="scale(0.015625)"/>
       </defs>
       <use xlink:href="#DejaVuSans-31"/>
       <use x="63.623047" xlink:href="#DejaVuSans-38"/>
      </g>
     </g>
    </g>
    <g id="xtick_6">
     <g id="line2d_6">
      <g>
       <use style="stroke:#000000;stroke-width:0.8;" x="889.134636" xlink:href="#mcfde5fb065" y="619.72"/>
      </g>
     </g>
     <g id="text_6">
      <!-- 20 -->
      <g transform="translate(873.864636 644.95625)scale(0.24 -0.24)">
       <use xlink:href="#DejaVuSans-32"/>
       <use x="63.623047" xlink:href="#DejaVuSans-30"/>
      </g>
     </g>
    </g>
    <g id="text_7">
     <!-- Time (s) -->
     <g transform="translate(463.4285 678.2625)scale(0.32 -0.32)">
      <defs>
       <path d="M -19 4666 
L 3928 4666 
L 3928 4134 
L 2272 4134 
L 2272 0 
L 1638 0 
L 1638 4134 
L -19 4134 
L -19 4666 
z
" id="DejaVuSans-54" transform="scale(0.015625)"/>
       <path d="M 603 3500 
L 1178 3500 
L 1178 0 
L 603 0 
L 603 3500 
z
M 603 4863 
L 1178 4863 
L 1178 4134 
L 603 4134 
L 603 4863 
z
" id="DejaVuSans-69" transform="scale(0.015625)"/>
       <path d="M 3328 2828 
Q 3544 3216 3844 3400 
Q 4144 3584 4550 3584 
Q 5097 3584 5394 3201 
Q 5691 2819 5691 2113 
L 5691 0 
L 5113 0 
L 5113 2094 
Q 5113 2597 4934 2840 
Q 4756 3084 4391 3084 
Q 3944 3084 3684 2787 
Q 3425 2491 3425 1978 
L 3425 0 
L 2847 0 
L 2847 2094 
Q 2847 2600 2669 2842 
Q 2491 3084 2119 3084 
Q 1678 3084 1418 2786 
Q 1159 2488 1159 1978 
L 1159 0 
L 581 0 
L 581 3500 
L 1159 3500 
L 1159 2956 
Q 1356 3278 1631 3431 
Q 1906 3584 2284 3584 
Q 2666 3584 2933 3390 
Q 3200 3197 3328 2828 
z
" id="DejaVuSans-6d" transform="scale(0.015625)"/>
       <path d="M 3597 1894 
L 3597 1613 
L 953 1613 
Q 991 1019 1311 708 
Q 1631 397 2203 397 
Q 2534 397 2845 478 
Q 3156 559 3463 722 
L 3463 178 
Q 3153 47 2828 -22 
Q 2503 -91 2169 -91 
Q 1331 -91 842 396 
Q 353 884 353 1716 
Q 353 2575 817 3079 
Q 1281 3584 2069 3584 
Q 2775 3584 3186 3129 
Q 3597 2675 3597 1894 
z
M 3022 2063 
Q 3016 2534 2758 2815 
Q 2500 3097 2075 3097 
Q 1594 3097 1305 2825 
Q 1016 2553 972 2059 
L 3022 2063 
z
" id="DejaVuSans-65" transform="scale(0.015625)"/>
       <path id="DejaVuSans-20" transform="scale(0.015625)"/>
       <path d="M 1984 4856 
Q 1566 4138 1362 3434 
Q 1159 2731 1159 2009 
Q 1159 1288 1364 580 
Q 1569 -128 1984 -844 
L 1484 -844 
Q 1016 -109 783 600 
Q 550 1309 550 2009 
Q 550 2706 781 3412 
Q 1013 4119 1484 4856 
L 1984 4856 
z
" id="DejaVuSans-28" transform="scale(0.015625)"/>
       <path d="M 2834 3397 
L 2834 2853 
Q 2591 2978 2328 3040 
Q 2066 3103 1784 3103 
Q 1356 3103 1142 2972 
Q 928 2841 928 2578 
Q 928 2378 1081 2264 
Q 1234 2150 1697 2047 
L 1894 2003 
Q 2506 1872 2764 1633 
Q 3022 1394 3022 966 
Q 3022 478 2636 193 
Q 2250 -91 1575 -91 
Q 1294 -91 989 -36 
Q 684 19 347 128 
L 347 722 
Q 666 556 975 473 
Q 1284 391 1588 391 
Q 1994 391 2212 530 
Q 2431 669 2431 922 
Q 2431 1156 2273 1281 
Q 2116 1406 1581 1522 
L 1381 1569 
Q 847 1681 609 1914 
Q 372 2147 372 2553 
Q 372 3047 722 3315 
Q 1072 3584 1716 3584 
Q 2034 3584 2315 3537 
Q 2597 3491 2834 3397 
z
" id="DejaVuSans-73" transform="scale(0.015625)"/>
       <path d="M 513 4856 
L 1013 4856 
Q 1481 4119 1714 3412 
Q 1947 2706 1947 2009 
Q 1947 1309 1714 600 
Q 1481 -109 1013 -844 
L 513 -844 
Q 928 -128 1133 580 
Q 1338 1288 1338 2009 
Q 1338 2731 1133 3434 
Q 928 4138 513 4856 
z
" id="DejaVuSans-29" transform="scale(0.015625)"/>
      </defs>
      <use xlink:href="#DejaVuSans-54"/>
      <use x="57.958984" xlink:href="#DejaVuSans-69"/>
      <use x="85.742188" xlink:href="#DejaVuSans-6d"/>
      <use x="183.154297" xlink:href="#DejaVuSans-65"/>
      <use x="244.677734" xlink:href="#DejaVuSans-20"/>
      <use x="276.464844" xlink:href="#DejaVuSans-28"/>
      <use x="315.478516" xlink:href="#DejaVuSans-73"/>
      <use x="367.578125" xlink:href="#DejaVuSans-29"/>
     </g>
    </g>
   </g>
   <g id="matplotlib.axis_2">
    <g id="ytick_1">
     <g id="line2d_7">
      <defs>
       <path d="M 0 0 
L -3.5 0 
" id="m909fdd4e66" style="stroke:#000000;stroke-width:0.8;"/>
      </defs>
      <g>
       <use style="stroke:#000000;stroke-width:0.8;" x="131.762" xlink:href="#m909fdd4e66" y="600.874108"/>
      </g>
     </g>
     <g id="text_8">
      <!-- −5 -->
      <g transform="translate(89.38075 609.992233)scale(0.24 -0.24)">
       <defs>
        <path d="M 678 2272 
L 4684 2272 
L 4684 1741 
L 678 1741 
L 678 2272 
z
" id="DejaVuSans-2212" transform="scale(0.015625)"/>
        <path d="M 691 4666 
L 3169 4666 
L 3169 4134 
L 1269 4134 
L 1269 2991 
Q 1406 3038 1543 3061 
Q 1681 3084 1819 3084 
Q 2600 3084 3056 2656 
Q 3513 2228 3513 1497 
Q 3513 744 3044 326 
Q 2575 -91 1722 -91 
Q 1428 -91 1123 -41 
Q 819 9 494 109 
L 494 744 
Q 775 591 1075 516 
Q 1375 441 1709 441 
Q 2250 441 2565 725 
Q 2881 1009 2881 1497 
Q 2881 1984 2565 2268 
Q 2250 2553 1709 2553 
Q 1456 2553 1204 2497 
Q 953 2441 691 2322 
L 691 4666 
z
" id="DejaVuSans-35" transform="scale(0.015625)"/>
       </defs>
       <use xlink:href="#DejaVuSans-2212"/>
       <use x="83.789062" xlink:href="#DejaVuSans-35"/>
      </g>
     </g>
    </g>
    <g id="ytick_2">
     <g id="line2d_8">
      <g>
       <use style="stroke:#000000;stroke-width:0.8;" x="131.762" xlink:href="#m909fdd4e66" y="508.689695"/>
      </g>
     </g>
     <g id="text_9">
      <!-- −4 -->
      <g transform="translate(89.38075 517.80782)scale(0.24 -0.24)">
       <use xlink:href="#DejaVuSans-2212"/>
       <use x="83.789062" xlink:href="#DejaVuSans-34"/>
      </g>
     </g>
    </g>
    <g id="ytick_3">
     <g id="line2d_9">
      <g>
       <use style="stroke:#000000;stroke-width:0.8;" x="131.762" xlink:href="#m909fdd4e66" y="416.505282"/>
      </g>
     </g>
     <g id="text_10">
      <!-- −3 -->
      <g transform="translate(89.38075 425.623407)scale(0.24 -0.24)">
       <defs>
        <path d="M 2597 2516 
Q 3050 2419 3304 2112 
Q 3559 1806 3559 1356 
Q 3559 666 3084 287 
Q 2609 -91 1734 -91 
Q 1441 -91 1130 -33 
Q 819 25 488 141 
L 488 750 
Q 750 597 1062 519 
Q 1375 441 1716 441 
Q 2309 441 2620 675 
Q 2931 909 2931 1356 
Q 2931 1769 2642 2001 
Q 2353 2234 1838 2234 
L 1294 2234 
L 1294 2753 
L 1863 2753 
Q 2328 2753 2575 2939 
Q 2822 3125 2822 3475 
Q 2822 3834 2567 4026 
Q 2313 4219 1838 4219 
Q 1578 4219 1281 4162 
Q 984 4106 628 3988 
L 628 4550 
Q 988 4650 1302 4700 
Q 1616 4750 1894 4750 
Q 2613 4750 3031 4423 
Q 3450 4097 3450 3541 
Q 3450 3153 3228 2886 
Q 3006 2619 2597 2516 
z
" id="DejaVuSans-33" transform="scale(0.015625)"/>
       </defs>
       <use xlink:href="#DejaVuSans-2212"/>
       <use x="83.789062" xlink:href="#DejaVuSans-33"/>
      </g>
     </g>
    </g>
    <g id="ytick_4">
     <g id="line2d_10">
      <g>
       <use style="stroke:#000000;stroke-width:0.8;" x="131.762" xlink:href="#m909fdd4e66" y="324.320869"/>
      </g>
     </g>
     <g id="text_11">
      <!-- −2 -->
      <g transform="translate(89.38075 333.438994)scale(0.24 -0.24)">
       <use xlink:href="#DejaVuSans-2212"/>
       <use x="83.789062" xlink:href="#DejaVuSans-32"/>
      </g>
     </g>
    </g>
    <g id="ytick_5">
     <g id="line2d_11">
      <g>
       <use style="stroke:#000000;stroke-width:0.8;" x="131.762" xlink:href="#m909fdd4e66" y="232.136456"/>
      </g>
     </g>
     <g id="text_12">
      <!-- −1 -->
      <g transform="translate(89.38075 241.254581)scale(0.24 -0.24)">
       <use xlink:href="#DejaVuSans-2212"/>
       <use x="83.789062" xlink:href="#DejaVuSans-31"/>
      </g>
     </g>
    </g>
    <g id="ytick_6">
     <g id="line2d_12">
      <g>
       <use style="stroke:#000000;stroke-width:0.8;" x="131.762" xlink:href="#m909fdd4e66" y="139.952043"/>
      </g>
     </g>
     <g id="text_13">
      <!-- 0 -->
      <g transform="translate(109.492 149.070168)scale(0.24 -0.24)">
       <use xlink:href="#DejaVuSans-30"/>
      </g>
     </g>
    </g>
    <g id="ytick_7">
     <g id="line2d_13">
      <g>
       <use style="stroke:#000000;stroke-width:0.8;" x="131.762" xlink:href="#m909fdd4e66" y="47.767631"/>
      </g>
     </g>
     <g id="text_14">
      <!-- 1 -->
      <g transform="translate(109.492 56.885756)scale(0.24 -0.24)">
       <use xlink:href="#DejaVuSans-31"/>
      </g>
     </g>
    </g>
    <g id="text_15">
     <!-- Angular Rate $\left( \frac{rad}{s^2} \right)$ -->
     <g transform="translate(68.74075 472.74)rotate(-90)scale(0.32 -0.32)">
      <defs>
       <path d="M 2188 4044 
L 1331 1722 
L 3047 1722 
L 2188 4044 
z
M 1831 4666 
L 2547 4666 
L 4325 0 
L 3669 0 
L 3244 1197 
L 1141 1197 
L 716 0 
L 50 0 
L 1831 4666 
z
" id="DejaVuSans-41" transform="scale(0.015625)"/>
       <path d="M 3513 2113 
L 3513 0 
L 2938 0 
L 2938 2094 
Q 2938 2591 2744 2837 
Q 2550 3084 2163 3084 
Q 1697 3084 1428 2787 
Q 1159 2491 1159 1978 
L 1159 0 
L 581 0 
L 581 3500 
L 1159 3500 
L 1159 2956 
Q 1366 3272 1645 3428 
Q 1925 3584 2291 3584 
Q 2894 3584 3203 3211 
Q 3513 2838 3513 2113 
z
" id="DejaVuSans-6e" transform="scale(0.015625)"/>
       <path d="M 2906 1791 
Q 2906 2416 2648 2759 
Q 2391 3103 1925 3103 
Q 1463 3103 1205 2759 
Q 947 2416 947 1791 
Q 947 1169 1205 825 
Q 1463 481 1925 481 
Q 2391 481 2648 825 
Q 2906 1169 2906 1791 
z
M 3481 434 
Q 3481 -459 3084 -895 
Q 2688 -1331 1869 -1331 
Q 1566 -1331 1297 -1286 
Q 1028 -1241 775 -1147 
L 775 -588 
Q 1028 -725 1275 -790 
Q 1522 -856 1778 -856 
Q 2344 -856 2625 -561 
Q 2906 -266 2906 331 
L 2906 616 
Q 2728 306 2450 153 
Q 2172 0 1784 0 
Q 1141 0 747 490 
Q 353 981 353 1791 
Q 353 2603 747 3093 
Q 1141 3584 1784 3584 
Q 2172 3584 2450 3431 
Q 2728 3278 2906 2969 
L 2906 3500 
L 3481 3500 
L 3481 434 
z
" id="DejaVuSans-67" transform="scale(0.015625)"/>
       <path d="M 544 1381 
L 544 3500 
L 1119 3500 
L 1119 1403 
Q 1119 906 1312 657 
Q 1506 409 1894 409 
Q 2359 409 2629 706 
Q 2900 1003 2900 1516 
L 2900 3500 
L 3475 3500 
L 3475 0 
L 2900 0 
L 2900 538 
Q 2691 219 2414 64 
Q 2138 -91 1772 -91 
Q 1169 -91 856 284 
Q 544 659 544 1381 
z
M 1991 3584 
L 1991 3584 
z
" id="DejaVuSans-75" transform="scale(0.015625)"/>
       <path d="M 603 4863 
L 1178 4863 
L 1178 0 
L 603 0 
L 603 4863 
z
" id="DejaVuSans-6c" transform="scale(0.015625)"/>
       <path d="M 2194 1759 
Q 1497 1759 1228 1600 
Q 959 1441 959 1056 
Q 959 750 1161 570 
Q 1363 391 1709 391 
Q 2188 391 2477 730 
Q 2766 1069 2766 1631 
L 2766 1759 
L 2194 1759 
z
M 3341 1997 
L 3341 0 
L 2766 0 
L 2766 531 
Q 2569 213 2275 61 
Q 1981 -91 1556 -91 
Q 1019 -91 701 211 
Q 384 513 384 1019 
Q 384 1609 779 1909 
Q 1175 2209 1959 2209 
L 2766 2209 
L 2766 2266 
Q 2766 2663 2505 2880 
Q 2244 3097 1772 3097 
Q 1472 3097 1187 3025 
Q 903 2953 641 2809 
L 641 3341 
Q 956 3463 1253 3523 
Q 1550 3584 1831 3584 
Q 2591 3584 2966 3190 
Q 3341 2797 3341 1997 
z
" id="DejaVuSans-61" transform="scale(0.015625)"/>
       <path d="M 2631 2963 
Q 2534 3019 2420 3045 
Q 2306 3072 2169 3072 
Q 1681 3072 1420 2755 
Q 1159 2438 1159 1844 
L 1159 0 
L 581 0 
L 581 3500 
L 1159 3500 
L 1159 2956 
Q 1341 3275 1631 3429 
Q 1922 3584 2338 3584 
Q 2397 3584 2469 3576 
Q 2541 3569 2628 3553 
L 2631 2963 
z
" id="DejaVuSans-72" transform="scale(0.015625)"/>
       <path d="M 2841 2188 
Q 3044 2119 3236 1894 
Q 3428 1669 3622 1275 
L 4263 0 
L 3584 0 
L 2988 1197 
Q 2756 1666 2539 1819 
Q 2322 1972 1947 1972 
L 1259 1972 
L 1259 0 
L 628 0 
L 628 4666 
L 2053 4666 
Q 2853 4666 3247 4331 
Q 3641 3997 3641 3322 
Q 3641 2881 3436 2590 
Q 3231 2300 2841 2188 
z
M 1259 4147 
L 1259 2491 
L 2053 2491 
Q 2509 2491 2742 2702 
Q 2975 2913 2975 3322 
Q 2975 3731 2742 3939 
Q 2509 4147 2053 4147 
L 1259 4147 
z
" id="DejaVuSans-52" transform="scale(0.015625)"/>
       <path d="M 1172 4494 
L 1172 3500 
L 2356 3500 
L 2356 3053 
L 1172 3053 
L 1172 1153 
Q 1172 725 1289 603 
Q 1406 481 1766 481 
L 2356 481 
L 2356 0 
L 1766 0 
Q 1100 0 847 248 
Q 594 497 594 1153 
L 594 3053 
L 172 3053 
L 172 3500 
L 594 3500 
L 594 4494 
L 1172 4494 
z
" id="DejaVuSans-74" transform="scale(0.015625)"/>
       <path d="M 3219 -1555 
L 3219 -1786 
Q 2144 -774 1517 730 
Q 890 2234 890 4115 
Q 890 6003 1533 7593 
Q 2176 9184 3219 10022 
L 3219 9811 
Q 2490 9062 1994 7606 
Q 1498 6150 1498 4115 
Q 1498 563 3219 -1555 
z
" id="STIXSizeTwoSym-Regular-28" transform="scale(0.015625)"/>
       <path d="M 2853 2969 
Q 2766 3016 2653 3041 
Q 2541 3066 2413 3066 
Q 1953 3066 1609 2717 
Q 1266 2369 1153 1784 
L 800 0 
L 225 0 
L 909 3500 
L 1484 3500 
L 1375 2956 
Q 1603 3259 1920 3421 
Q 2238 3584 2597 3584 
Q 2691 3584 2781 3573 
Q 2872 3563 2963 3538 
L 2853 2969 
z
" id="DejaVuSans-Oblique-72" transform="scale(0.015625)"/>
       <path d="M 3438 1997 
L 3047 0 
L 2472 0 
L 2578 531 
Q 2325 219 2001 64 
Q 1678 -91 1281 -91 
Q 834 -91 548 182 
Q 263 456 263 884 
Q 263 1497 752 1853 
Q 1241 2209 2100 2209 
L 2900 2209 
L 2931 2363 
Q 2938 2388 2941 2417 
Q 2944 2447 2944 2509 
Q 2944 2788 2717 2942 
Q 2491 3097 2081 3097 
Q 1800 3097 1504 3025 
Q 1209 2953 897 2809 
L 997 3341 
Q 1322 3463 1633 3523 
Q 1944 3584 2234 3584 
Q 2853 3584 3176 3315 
Q 3500 3047 3500 2534 
Q 3500 2431 3484 2292 
Q 3469 2153 3438 1997 
z
M 2816 1759 
L 2241 1759 
Q 1534 1759 1195 1570 
Q 856 1381 856 984 
Q 856 709 1029 553 
Q 1203 397 1509 397 
Q 1978 397 2328 733 
Q 2678 1069 2791 1631 
L 2816 1759 
z
" id="DejaVuSans-Oblique-61" transform="scale(0.015625)"/>
       <path d="M 2675 525 
Q 2444 222 2128 65 
Q 1813 -91 1428 -91 
Q 903 -91 598 267 
Q 294 625 294 1247 
Q 294 1766 478 2236 
Q 663 2706 1013 3078 
Q 1244 3325 1534 3454 
Q 1825 3584 2144 3584 
Q 2481 3584 2739 3421 
Q 2997 3259 3138 2956 
L 3513 4863 
L 4091 4863 
L 3144 0 
L 2566 0 
L 2675 525 
z
M 891 1350 
Q 891 897 1095 644 
Q 1300 391 1663 391 
Q 1931 391 2161 520 
Q 2391 650 2566 903 
Q 2750 1166 2856 1509 
Q 2963 1853 2963 2188 
Q 2963 2622 2758 2865 
Q 2553 3109 2194 3109 
Q 1922 3109 1687 2981 
Q 1453 2853 1288 2613 
Q 1106 2353 998 2009 
Q 891 1666 891 1350 
z
" id="DejaVuSans-Oblique-64" transform="scale(0.015625)"/>
       <path d="M 3200 3397 
L 3091 2853 
Q 2863 2978 2609 3040 
Q 2356 3103 2088 3103 
Q 1634 3103 1373 2948 
Q 1113 2794 1113 2528 
Q 1113 2219 1719 2053 
Q 1766 2041 1788 2034 
L 1972 1978 
Q 2547 1819 2739 1644 
Q 2931 1469 2931 1166 
Q 2931 609 2489 259 
Q 2047 -91 1331 -91 
Q 1053 -91 747 -37 
Q 441 16 72 128 
L 184 722 
Q 500 559 806 475 
Q 1113 391 1394 391 
Q 1816 391 2080 572 
Q 2344 753 2344 1031 
Q 2344 1331 1650 1516 
L 1591 1531 
L 1394 1581 
Q 956 1697 753 1886 
Q 550 2075 550 2369 
Q 550 2928 970 3256 
Q 1391 3584 2113 3584 
Q 2397 3584 2667 3537 
Q 2938 3491 3200 3397 
z
" id="DejaVuSans-Oblique-73" transform="scale(0.015625)"/>
       <path d="M 730 9792 
L 730 10022 
Q 1805 9011 2432 7507 
Q 3059 6003 3059 4115 
Q 3059 2234 2416 643 
Q 1773 -947 730 -1786 
L 730 -1574 
Q 1459 -826 1955 633 
Q 2451 2093 2451 4115 
Q 2451 7674 730 9792 
z
" id="STIXSizeTwoSym-Regular-29" transform="scale(0.015625)"/>
      </defs>
      <use transform="translate(0 0.01875)" xlink:href="#DejaVuSans-41"/>
      <use transform="translate(68.408203 0.01875)" xlink:href="#DejaVuSans-6e"/>
      <use transform="translate(131.787109 0.01875)" xlink:href="#DejaVuSans-67"/>
      <use transform="translate(195.263672 0.01875)" xlink:href="#DejaVuSans-75"/>
      <use transform="translate(258.642578 0.01875)" xlink:href="#DejaVuSans-6c"/>
      <use transform="translate(286.425781 0.01875)" xlink:href="#DejaVuSans-61"/>
      <use transform="translate(347.705078 0.01875)" xlink:href="#DejaVuSans-72"/>
      <use transform="translate(388.818359 0.01875)" xlink:href="#DejaVuSans-20"/>
      <use transform="translate(420.605469 0.01875)" xlink:href="#DejaVuSans-52"/>
      <use transform="translate(490.087891 0.01875)" xlink:href="#DejaVuSans-61"/>
      <use transform="translate(551.367188 0.01875)" xlink:href="#DejaVuSans-74"/>
      <use transform="translate(590.576172 0.01875)" xlink:href="#DejaVuSans-65"/>
      <use transform="translate(652.099609 0.01875)" xlink:href="#DejaVuSans-20"/>
      <use transform="translate(683.886719 -28.96875)scale(0.810806)" xlink:href="#STIXSizeTwoSym-Regular-28"/>
      <use transform="translate(731.641724 44.810937)scale(0.7)" xlink:href="#DejaVuSans-Oblique-72"/>
      <use transform="translate(760.421021 44.810937)scale(0.7)" xlink:href="#DejaVuSans-Oblique-61"/>
      <use transform="translate(803.316528 44.810937)scale(0.7)" xlink:href="#DejaVuSans-Oblique-64"/>
      <use transform="translate(753.641724 -50.598438)scale(0.7)" xlink:href="#DejaVuSans-Oblique-73"/>
      <use transform="translate(793.366377 -23.801563)scale(0.49)" xlink:href="#DejaVuSans-32"/>
      <use transform="translate(860.250122 -28.96875)scale(0.810806)" xlink:href="#STIXSizeTwoSym-Regular-29"/>
      <path d="M 731.641724 18.815625 
L 731.641724 25.065625 
L 847.750122 25.065625 
L 847.750122 18.815625 
L 731.641724 18.815625 
z
"/>
     </g>
    </g>
   </g>
   <g id="line2d_14">
    <path clip-path="url(#pbdf39a101e)" d="M 792.960333 593.121818 
L 889.134636 159.432523 
" style="fill:none;stroke:#000000;stroke-dasharray:4,6.6;stroke-dashoffset:0;stroke-width:4;"/>
   </g>
   <g id="line2d_15">
    <path clip-path="url(#pbdf39a101e)" d="M 336.132394 61.158182 
L 889.134636 159.432523 
" style="fill:none;stroke:#000000;stroke-dasharray:4,6.6;stroke-dashoffset:0;stroke-width:4;"/>
   </g>
   <g id="line2d_16">
    <path clip-path="url(#pbdf39a101e)" d="M 768.916758 589.387099 
L 167.827364 122.150915 
" style="fill:none;stroke:#000000;stroke-dasharray:4,6.6;stroke-dashoffset:0;stroke-width:4;"/>
   </g>
   <g id="line2d_17">
    <path clip-path="url(#pbdf39a101e)" d="M 768.916758 589.387099 
L 792.960333 593.121818 
" style="fill:none;stroke:#000000;stroke-dasharray:4,6.6;stroke-dashoffset:0;stroke-width:4;"/>
   </g>
   <g id="line2d_18">
    <path clip-path="url(#pbdf39a101e)" d="M 312.088818 62.848192 
L 167.827364 122.150915 
" style="fill:none;stroke:#000000;stroke-dasharray:4,6.6;stroke-dashoffset:0;stroke-width:4;"/>
   </g>
   <g id="line2d_19">
    <path clip-path="url(#pbdf39a101e)" d="M 312.088818 62.848192 
L 336.132394 61.158182 
" style="fill:none;stroke:#000000;stroke-dasharray:4,6.6;stroke-dashoffset:0;stroke-width:4;"/>
   </g>
   <g id="line2d_20">
    <path clip-path="url(#pbdf39a101e)" d="M 889.134636 84.641396 
L 167.827364 159.807148 
" style="fill:none;stroke:#000000;stroke-dasharray:4,6.6;stroke-dashoffset:0;stroke-width:4;"/>
   </g>
   <g id="line2d_21">
    <path clip-path="url(#pbdf39a101e)" d="M 552.524576 165.36436 
L 167.827364 159.807148 
" style="fill:none;stroke:#000000;stroke-dasharray:4,6.6;stroke-dashoffset:0;stroke-width:4;"/>
   </g>
   <g id="line2d_22">
    <path clip-path="url(#pbdf39a101e)" d="M 841.047485 111.415977 
L 889.134636 84.641396 
" style="fill:none;stroke:#000000;stroke-dasharray:4,6.6;stroke-dashoffset:0;stroke-width:4;"/>
   </g>
   <g id="line2d_23">
    <path clip-path="url(#pbdf39a101e)" d="M 841.047485 111.415977 
L 817.003909 122.551757 
" style="fill:none;stroke:#000000;stroke-dasharray:4,6.6;stroke-dashoffset:0;stroke-width:4;"/>
   </g>
   <g id="line2d_24">
    <path clip-path="url(#pbdf39a101e)" d="M 792.960333 130.890498 
L 768.916758 137.277547 
" style="fill:none;stroke:#000000;stroke-dasharray:4,6.6;stroke-dashoffset:0;stroke-width:4;"/>
   </g>
   <g id="line2d_25">
    <path clip-path="url(#pbdf39a101e)" d="M 792.960333 130.890498 
L 817.003909 122.551757 
" style="fill:none;stroke:#000000;stroke-dasharray:4,6.6;stroke-dashoffset:0;stroke-width:4;"/>
   </g>
   <g id="line2d_26">
    <path clip-path="url(#pbdf39a101e)" d="M 576.568152 164.880025 
L 552.524576 165.36436 
" style="fill:none;stroke:#000000;stroke-dasharray:4,6.6;stroke-dashoffset:0;stroke-width:4;"/>
   </g>
   <g id="line2d_27">
    <path clip-path="url(#pbdf39a101e)" d="M 576.568152 164.880025 
L 600.611727 163.436828 
" style="fill:none;stroke:#000000;stroke-dasharray:4,6.6;stroke-dashoffset:0;stroke-width:4;"/>
   </g>
   <g id="line2d_28">
    <path clip-path="url(#pbdf39a101e)" d="M 624.655303 161.136761 
L 648.698879 158.173728 
" style="fill:none;stroke:#000000;stroke-dasharray:4,6.6;stroke-dashoffset:0;stroke-width:4;"/>
   </g>
   <g id="line2d_29">
    <path clip-path="url(#pbdf39a101e)" d="M 624.655303 161.136761 
L 600.611727 163.436828 
" style="fill:none;stroke:#000000;stroke-dasharray:4,6.6;stroke-dashoffset:0;stroke-width:4;"/>
   </g>
   <g id="line2d_30">
    <path clip-path="url(#pbdf39a101e)" d="M 744.873182 142.461425 
L 768.916758 137.277547 
" style="fill:none;stroke:#000000;stroke-dasharray:4,6.6;stroke-dashoffset:0;stroke-width:4;"/>
   </g>
   <g id="line2d_31">
    <path clip-path="url(#pbdf39a101e)" d="M 744.873182 142.461425 
L 720.829606 146.939719 
" style="fill:none;stroke:#000000;stroke-dasharray:4,6.6;stroke-dashoffset:0;stroke-width:4;"/>
   </g>
   <g id="line2d_32">
    <path clip-path="url(#pbdf39a101e)" d="M 672.742455 154.748857 
L 648.698879 158.173728 
" style="fill:none;stroke:#000000;stroke-dasharray:4,6.6;stroke-dashoffset:0;stroke-width:4;"/>
   </g>
   <g id="line2d_33">
    <path clip-path="url(#pbdf39a101e)" d="M 696.78603 150.996706 
L 720.829606 146.939719 
" style="fill:none;stroke:#000000;stroke-dasharray:4,6.6;stroke-dashoffset:0;stroke-width:4;"/>
   </g>
   <g id="line2d_34">
    <path clip-path="url(#pbdf39a101e)" d="M 696.78603 150.996706 
L 672.742455 154.748857 
" style="fill:none;stroke:#000000;stroke-dasharray:4,6.6;stroke-dashoffset:0;stroke-width:4;"/>
   </g>
   <g id="line2d_35">
    <path clip-path="url(#pbdf39a101e)" d="M 167.827364 122.150915 
L 179.36828 120.268573 
L 190.187889 118.290894 
L 201.007498 116.085511 
L 211.1058 113.804686 
L 221.204102 111.296742 
L 231.302404 108.556415 
L 241.400705 105.589416 
L 252.220315 102.184694 
L 265.925153 97.629282 
L 287.564371 90.422405 
L 296.220058 87.802448 
L 303.433131 85.86048 
L 309.203589 84.516531 
L 314.974047 83.397154 
L 320.023198 82.626878 
L 325.072349 82.070517 
L 330.1215 81.74155 
L 335.170651 81.648467 
L 340.219802 81.794291 
L 345.268953 82.176397 
L 350.318104 82.786673 
L 355.367255 83.612004 
L 361.137713 84.796115 
L 366.908171 86.207148 
L 373.399936 88.02238 
L 381.334316 90.495474 
L 391.432618 93.910541 
L 429.661904 107.112398 
L 440.481513 110.486078 
L 451.301122 113.619433 
L 462.120731 116.511273 
L 472.94034 119.174146 
L 484.481256 121.785657 
L 496.74348 124.33525 
L 510.448318 126.958529 
L 527.038385 129.893639 
L 550.120218 133.72109 
L 583.300353 139.234903 
L 598.447805 141.996137 
L 609.988722 144.310686 
L 620.087024 146.547679 
L 629.464018 148.856399 
L 637.398398 151.028377 
L 644.611471 153.214471 
L 651.824544 155.641014 
L 658.316309 158.06686 
L 664.086767 160.446427 
L 669.857225 163.066784 
L 674.906376 165.582309 
L 679.955527 168.33068 
L 685.004678 171.336661 
L 690.053829 174.626031 
L 694.381673 177.691031 
L 698.709516 180.997094 
L 703.03736 184.559399 
L 707.365204 188.38661 
L 711.693047 192.479336 
L 716.742198 197.587434 
L 721.791349 203.028511 
L 727.561807 209.576226 
L 744.873182 229.500615 
L 748.479718 233.18304 
L 751.364947 235.861405 
L 754.250176 238.241636 
L 757.135405 240.286629 
L 760.020635 241.939454 
L 762.184556 242.896005 
L 764.348478 243.60178 
L 766.5124 244.043103 
L 768.676322 244.199994 
L 770.840244 244.103736 
L 773.004165 243.72221 
L 775.168087 243.072564 
L 777.332009 242.192596 
L 779.495931 241.07158 
L 782.38116 239.213531 
L 785.266389 237.006482 
L 788.151618 234.475015 
L 791.036847 231.7208 
L 796.085998 226.431635 
L 800.413842 221.605079 
L 814.11868 206.210146 
L 821.331753 198.735414 
L 824.216982 195.933966 
L 827.102211 193.212322 
L 834.315284 187.008599 
L 837.92182 184.163195 
L 844.413585 179.544462 
L 848.020122 177.179957 
L 853.069273 174.162262 
L 858.118424 171.439703 
L 862.446267 169.286882 
L 867.495418 167.015643 
L 875.429798 163.865637 
L 879.036335 162.599078 
L 883.364178 161.155378 
L 888.413329 159.635777 
L 889.134636 159.432523 
L 889.134636 159.432523 
" style="fill:none;stroke:#1f77b4;stroke-linecap:square;stroke-width:4;"/>
   </g>
   <g id="line2d_36">
    <path clip-path="url(#pbdf39a101e)" d="M 167.827364 122.150915 
L 191.870939 116.702822 
L 215.914515 109.295404 
L 239.958091 99.383153 
L 264.001667 86.865765 
L 288.045242 73.236492 
L 312.088818 62.848192 
L 336.132394 61.158182 
L 360.17597 69.075483 
L 384.219545 81.891919 
L 408.263121 94.709139 
L 432.306697 105.386549 
L 456.350273 113.708818 
L 480.393848 120.133528 
L 504.437424 125.201465 
L 528.481 129.372022 
L 552.524576 133.017643 
L 576.568152 136.46571 
L 600.611727 140.06075 
L 624.655303 144.260888 
L 648.698879 149.827363 
L 672.742455 158.285393 
L 696.78603 173.276497 
L 720.829606 205.44048 
L 744.873182 294.720528 
L 768.916758 589.387099 
L 792.960333 593.121818 
L 817.003909 292.55649 
L 841.047485 203.588909 
L 865.091061 172.891387 
L 889.134636 159.432523 
" style="fill:none;stroke:#1f77b4;stroke-dasharray:14.8,6.4;stroke-dashoffset:0;stroke-width:4;"/>
    <defs>
     <path d="M 0 4.5 
C 1.193414 4.5 2.338109 4.025852 3.181981 3.181981 
C 4.025852 2.338109 4.5 1.193414 4.5 0 
C 4.5 -1.193414 4.025852 -2.338109 3.181981 -3.181981 
C 2.338109 -4.025852 1.193414 -4.5 0 -4.5 
C -1.193414 -4.5 -2.338109 -4.025852 -3.181981 -3.181981 
C -4.025852 -2.338109 -4.5 -1.193414 -4.5 0 
C -4.5 1.193414 -4.025852 2.338109 -3.181981 3.181981 
C -2.338109 4.025852 -1.193414 4.5 0 4.5 
z
" id="ma446f64bf1" style="stroke:#1f77b4;"/>
    </defs>
    <g clip-path="url(#pbdf39a101e)">
     <use style="fill:#1f77b4;stroke:#1f77b4;" x="167.827364" xlink:href="#ma446f64bf1" y="122.150915"/>
     <use style="fill:#1f77b4;stroke:#1f77b4;" x="191.870939" xlink:href="#ma446f64bf1" y="116.702822"/>
     <use style="fill:#1f77b4;stroke:#1f77b4;" x="215.914515" xlink:href="#ma446f64bf1" y="109.295404"/>
     <use style="fill:#1f77b4;stroke:#1f77b4;" x="239.958091" xlink:href="#ma446f64bf1" y="99.383153"/>
     <use style="fill:#1f77b4;stroke:#1f77b4;" x="264.001667" xlink:href="#ma446f64bf1" y="86.865765"/>
     <use style="fill:#1f77b4;stroke:#1f77b4;" x="288.045242" xlink:href="#ma446f64bf1" y="73.236492"/>
     <use style="fill:#1f77b4;stroke:#1f77b4;" x="312.088818" xlink:href="#ma446f64bf1" y="62.848192"/>
     <use style="fill:#1f77b4;stroke:#1f77b4;" x="336.132394" xlink:href="#ma446f64bf1" y="61.158182"/>
     <use style="fill:#1f77b4;stroke:#1f77b4;" x="360.17597" xlink:href="#ma446f64bf1" y="69.075483"/>
     <use style="fill:#1f77b4;stroke:#1f77b4;" x="384.219545" xlink:href="#ma446f64bf1" y="81.891919"/>
     <use style="fill:#1f77b4;stroke:#1f77b4;" x="408.263121" xlink:href="#ma446f64bf1" y="94.709139"/>
     <use style="fill:#1f77b4;stroke:#1f77b4;" x="432.306697" xlink:href="#ma446f64bf1" y="105.386549"/>
     <use style="fill:#1f77b4;stroke:#1f77b4;" x="456.350273" xlink:href="#ma446f64bf1" y="113.708818"/>
     <use style="fill:#1f77b4;stroke:#1f77b4;" x="480.393848" xlink:href="#ma446f64bf1" y="120.133528"/>
     <use style="fill:#1f77b4;stroke:#1f77b4;" x="504.437424" xlink:href="#ma446f64bf1" y="125.201465"/>
     <use style="fill:#1f77b4;stroke:#1f77b4;" x="528.481" xlink:href="#ma446f64bf1" y="129.372022"/>
     <use style="fill:#1f77b4;stroke:#1f77b4;" x="552.524576" xlink:href="#ma446f64bf1" y="133.017643"/>
     <use style="fill:#1f77b4;stroke:#1f77b4;" x="576.568152" xlink:href="#ma446f64bf1" y="136.46571"/>
     <use style="fill:#1f77b4;stroke:#1f77b4;" x="600.611727" xlink:href="#ma446f64bf1" y="140.06075"/>
     <use style="fill:#1f77b4;stroke:#1f77b4;" x="624.655303" xlink:href="#ma446f64bf1" y="144.260888"/>
     <use style="fill:#1f77b4;stroke:#1f77b4;" x="648.698879" xlink:href="#ma446f64bf1" y="149.827363"/>
     <use style="fill:#1f77b4;stroke:#1f77b4;" x="672.742455" xlink:href="#ma446f64bf1" y="158.285393"/>
     <use style="fill:#1f77b4;stroke:#1f77b4;" x="696.78603" xlink:href="#ma446f64bf1" y="173.276497"/>
     <use style="fill:#1f77b4;stroke:#1f77b4;" x="720.829606" xlink:href="#ma446f64bf1" y="205.44048"/>
     <use style="fill:#1f77b4;stroke:#1f77b4;" x="744.873182" xlink:href="#ma446f64bf1" y="294.720528"/>
     <use style="fill:#1f77b4;stroke:#1f77b4;" x="768.916758" xlink:href="#ma446f64bf1" y="589.387099"/>
     <use style="fill:#1f77b4;stroke:#1f77b4;" x="792.960333" xlink:href="#ma446f64bf1" y="593.121818"/>
     <use style="fill:#1f77b4;stroke:#1f77b4;" x="817.003909" xlink:href="#ma446f64bf1" y="292.55649"/>
     <use style="fill:#1f77b4;stroke:#1f77b4;" x="841.047485" xlink:href="#ma446f64bf1" y="203.588909"/>
     <use style="fill:#1f77b4;stroke:#1f77b4;" x="865.091061" xlink:href="#ma446f64bf1" y="172.891387"/>
     <use style="fill:#1f77b4;stroke:#1f77b4;" x="889.134636" xlink:href="#ma446f64bf1" y="159.432523"/>
    </g>
   </g>
   <g id="line2d_37">
    <path clip-path="url(#pbdf39a101e)" d="M 167.827364 159.807148 
L 229.138482 156.833614 
L 252.941622 155.950822 
L 274.58084 155.36939 
L 295.498751 155.03357 
L 315.695355 154.932501 
L 335.891958 155.054148 
L 356.088562 155.394647 
L 377.006473 155.965684 
L 400.088305 156.825757 
L 426.776675 158.055543 
L 501.071324 161.632391 
L 519.104005 162.176152 
L 534.972765 162.430367 
L 549.398911 162.441713 
L 563.103749 162.235709 
L 576.808587 161.805253 
L 590.513425 161.145641 
L 604.218264 160.260051 
L 618.644409 159.09462 
L 633.070555 157.706761 
L 648.218007 156.031612 
L 664.808075 153.96605 
L 681.398142 151.680089 
L 698.709516 149.069633 
L 715.299584 146.343918 
L 730.447036 143.639299 
L 744.873182 140.834554 
L 757.135405 138.237613 
L 767.955015 135.747511 
L 778.053316 133.224144 
L 791.758155 129.434852 
L 801.135149 126.553326 
L 816.282602 121.283939 
L 823.495675 118.470694 
L 835.757898 113.226895 
L 841.528356 110.548516 
L 847.298815 107.687136 
L 848.741429 107.03412 
L 850.184044 106.249937 
L 853.79058 104.429271 
L 854.511887 104.1877 
L 855.233195 103.639599 
L 864.610189 98.587086 
L 865.331496 97.888882 
L 868.216725 96.404486 
L 871.823262 94.237923 
L 873.265876 93.783561 
L 873.987184 92.833133 
L 876.151105 92.125346 
L 876.872413 91.365791 
L 878.315027 90.718318 
L 879.036335 90.034064 
L 880.478949 89.537853 
L 881.921564 88.599642 
L 883.364178 87.934818 
L 884.085485 86.979376 
L 884.806793 87.283017 
L 885.5281 86.855247 
L 886.249407 86.033443 
L 886.970715 85.527171 
L 887.692022 85.558122 
L 889.134636 84.641396 
L 889.134636 84.641396 
" style="fill:none;stroke:#ff7f0e;stroke-linecap:square;stroke-width:4;"/>
   </g>
   <g id="line2d_38">
    <path clip-path="url(#pbdf39a101e)" d="M 167.827364 159.807148 
L 191.870939 158.491925 
L 215.914515 157.125708 
L 239.958091 155.893263 
L 264.001667 154.921585 
L 288.045242 154.288106 
L 312.088818 154.034735 
L 336.132394 154.180059 
L 360.17597 154.726606 
L 384.219545 155.66235 
L 408.263121 156.956281 
L 432.306697 158.548224 
L 456.350273 160.33422 
L 480.393848 162.151928 
L 504.437424 163.775631 
L 528.481 164.934628 
L 552.524576 165.36436 
L 576.568152 164.880025 
L 600.611727 163.436828 
L 624.655303 161.136761 
L 648.698879 158.173728 
L 672.742455 154.748857 
L 696.78603 150.996706 
L 720.829606 146.939719 
L 744.873182 142.461425 
L 768.916758 137.277547 
L 792.960333 130.890498 
L 817.003909 122.551757 
L 841.047485 111.415977 
L 865.091061 97.547214 
L 889.134636 84.641396 
" style="fill:none;stroke:#ff7f0e;stroke-dasharray:14.8,6.4;stroke-dashoffset:0;stroke-width:4;"/>
    <defs>
     <path d="M 0 4.5 
C 1.193414 4.5 2.338109 4.025852 3.181981 3.181981 
C 4.025852 2.338109 4.5 1.193414 4.5 0 
C 4.5 -1.193414 4.025852 -2.338109 3.181981 -3.181981 
C 2.338109 -4.025852 1.193414 -4.5 0 -4.5 
C -1.193414 -4.5 -2.338109 -4.025852 -3.181981 -3.181981 
C -4.025852 -2.338109 -4.5 -1.193414 -4.5 0 
C -4.5 1.193414 -4.025852 2.338109 -3.181981 3.181981 
C -2.338109 4.025852 -1.193414 4.5 0 4.5 
z
" id="ma1655cfa2f" style="stroke:#ff7f0e;"/>
    </defs>
    <g clip-path="url(#pbdf39a101e)">
     <use style="fill:#ff7f0e;stroke:#ff7f0e;" x="167.827364" xlink:href="#ma1655cfa2f" y="159.807148"/>
     <use style="fill:#ff7f0e;stroke:#ff7f0e;" x="191.870939" xlink:href="#ma1655cfa2f" y="158.491925"/>
     <use style="fill:#ff7f0e;stroke:#ff7f0e;" x="215.914515" xlink:href="#ma1655cfa2f" y="157.125708"/>
     <use style="fill:#ff7f0e;stroke:#ff7f0e;" x="239.958091" xlink:href="#ma1655cfa2f" y="155.893263"/>
     <use style="fill:#ff7f0e;stroke:#ff7f0e;" x="264.001667" xlink:href="#ma1655cfa2f" y="154.921585"/>
     <use style="fill:#ff7f0e;stroke:#ff7f0e;" x="288.045242" xlink:href="#ma1655cfa2f" y="154.288106"/>
     <use style="fill:#ff7f0e;stroke:#ff7f0e;" x="312.088818" xlink:href="#ma1655cfa2f" y="154.034735"/>
     <use style="fill:#ff7f0e;stroke:#ff7f0e;" x="336.132394" xlink:href="#ma1655cfa2f" y="154.180059"/>
     <use style="fill:#ff7f0e;stroke:#ff7f0e;" x="360.17597" xlink:href="#ma1655cfa2f" y="154.726606"/>
     <use style="fill:#ff7f0e;stroke:#ff7f0e;" x="384.219545" xlink:href="#ma1655cfa2f" y="155.66235"/>
     <use style="fill:#ff7f0e;stroke:#ff7f0e;" x="408.263121" xlink:href="#ma1655cfa2f" y="156.956281"/>
     <use style="fill:#ff7f0e;stroke:#ff7f0e;" x="432.306697" xlink:href="#ma1655cfa2f" y="158.548224"/>
     <use style="fill:#ff7f0e;stroke:#ff7f0e;" x="456.350273" xlink:href="#ma1655cfa2f" y="160.33422"/>
     <use style="fill:#ff7f0e;stroke:#ff7f0e;" x="480.393848" xlink:href="#ma1655cfa2f" y="162.151928"/>
     <use style="fill:#ff7f0e;stroke:#ff7f0e;" x="504.437424" xlink:href="#ma1655cfa2f" y="163.775631"/>
     <use style="fill:#ff7f0e;stroke:#ff7f0e;" x="528.481" xlink:href="#ma1655cfa2f" y="164.934628"/>
     <use style="fill:#ff7f0e;stroke:#ff7f0e;" x="552.524576" xlink:href="#ma1655cfa2f" y="165.36436"/>
     <use style="fill:#ff7f0e;stroke:#ff7f0e;" x="576.568152" xlink:href="#ma1655cfa2f" y="164.880025"/>
     <use style="fill:#ff7f0e;stroke:#ff7f0e;" x="600.611727" xlink:href="#ma1655cfa2f" y="163.436828"/>
     <use style="fill:#ff7f0e;stroke:#ff7f0e;" x="624.655303" xlink:href="#ma1655cfa2f" y="161.136761"/>
     <use style="fill:#ff7f0e;stroke:#ff7f0e;" x="648.698879" xlink:href="#ma1655cfa2f" y="158.173728"/>
     <use style="fill:#ff7f0e;stroke:#ff7f0e;" x="672.742455" xlink:href="#ma1655cfa2f" y="154.748857"/>
     <use style="fill:#ff7f0e;stroke:#ff7f0e;" x="696.78603" xlink:href="#ma1655cfa2f" y="150.996706"/>
     <use style="fill:#ff7f0e;stroke:#ff7f0e;" x="720.829606" xlink:href="#ma1655cfa2f" y="146.939719"/>
     <use style="fill:#ff7f0e;stroke:#ff7f0e;" x="744.873182" xlink:href="#ma1655cfa2f" y="142.461425"/>
     <use style="fill:#ff7f0e;stroke:#ff7f0e;" x="768.916758" xlink:href="#ma1655cfa2f" y="137.277547"/>
     <use style="fill:#ff7f0e;stroke:#ff7f0e;" x="792.960333" xlink:href="#ma1655cfa2f" y="130.890498"/>
     <use style="fill:#ff7f0e;stroke:#ff7f0e;" x="817.003909" xlink:href="#ma1655cfa2f" y="122.551757"/>
     <use style="fill:#ff7f0e;stroke:#ff7f0e;" x="841.047485" xlink:href="#ma1655cfa2f" y="111.415977"/>
     <use style="fill:#ff7f0e;stroke:#ff7f0e;" x="865.091061" xlink:href="#ma1655cfa2f" y="97.547214"/>
     <use style="fill:#ff7f0e;stroke:#ff7f0e;" x="889.134636" xlink:href="#ma1655cfa2f" y="84.641396"/>
    </g>
   </g>
   <g id="patch_3">
    <path d="M 131.762 619.72 
L 131.762 34.56 
" style="fill:none;stroke:#000000;stroke-linecap:square;stroke-linejoin:miter;stroke-width:0.8;"/>
   </g>
   <g id="patch_4">
    <path d="M 925.2 619.72 
L 925.2 34.56 
" style="fill:none;stroke:#000000;stroke-linecap:square;stroke-linejoin:miter;stroke-width:0.8;"/>
   </g>
   <g id="patch_5">
    <path d="M 131.762 619.72 
L 925.2 619.72 
" style="fill:none;stroke:#000000;stroke-linecap:square;stroke-linejoin:miter;stroke-width:0.8;"/>
   </g>
   <g id="patch_6">
    <path d="M 131.762 34.56 
L 925.2 34.56 
" style="fill:none;stroke:#000000;stroke-linecap:square;stroke-linejoin:miter;stroke-width:0.8;"/>
   </g>
   <g id="legend_1">
    <g id="patch_7">
     <path d="M 148.562 607.72 
L 299.282 607.72 
Q 304.082 607.72 304.082 602.92 
L 304.082 530.44 
Q 304.082 525.64 299.282 525.64 
L 148.562 525.64 
Q 143.762 525.64 143.762 530.44 
L 143.762 602.92 
Q 143.762 607.72 148.562 607.72 
z
" style="fill:#ffffff;opacity:0.8;stroke:#cccccc;stroke-linejoin:miter;"/>
    </g>
    <g id="line2d_39">
     <path d="M 153.362 547.28875 
L 201.362 547.28875 
" style="fill:none;stroke:#1f77b4;stroke-linecap:square;stroke-width:4;"/>
    </g>
    <g id="line2d_40"/>
    <g id="text_16">
     <!-- $\omega^{[1]}(t)$ -->
     <g transform="translate(220.562 555.68875)scale(0.24 -0.24)">
      <defs>
       <path d="M 1369 -91 
Q 72 -91 434 1766 
Q 575 2500 1256 3500 
L 1875 3500 
Q 1231 2500 1088 1750 
Q 819 397 1519 397 
Q 2166 397 2478 2078 
L 3009 2078 
Q 2669 388 3316 397 
Q 4013 403 4275 1750 
Q 4419 2500 4169 3500 
L 4788 3500 
Q 5075 2500 4934 1766 
Q 4578 -94 3278 -91 
Q 2428 -88 2503 844 
Q 2194 -91 1369 -91 
z
" id="DejaVuSans-Oblique-3c9" transform="scale(0.015625)"/>
       <path d="M 550 4863 
L 1875 4863 
L 1875 4416 
L 1125 4416 
L 1125 -397 
L 1875 -397 
L 1875 -844 
L 550 -844 
L 550 4863 
z
" id="DejaVuSans-5b" transform="scale(0.015625)"/>
       <path d="M 1947 4863 
L 1947 -844 
L 622 -844 
L 622 -397 
L 1369 -397 
L 1369 4416 
L 622 4416 
L 622 4863 
L 1947 4863 
z
" id="DejaVuSans-5d" transform="scale(0.015625)"/>
       <path d="M 2706 3500 
L 2619 3053 
L 1472 3053 
L 1100 1153 
Q 1081 1047 1072 975 
Q 1063 903 1063 863 
Q 1063 663 1183 572 
Q 1303 481 1569 481 
L 2150 481 
L 2053 0 
L 1503 0 
Q 991 0 739 200 
Q 488 400 488 806 
Q 488 878 497 964 
Q 506 1050 525 1153 
L 897 3053 
L 409 3053 
L 500 3500 
L 978 3500 
L 1172 4494 
L 1747 4494 
L 1556 3500 
L 2706 3500 
z
" id="DejaVuSans-Oblique-74" transform="scale(0.015625)"/>
      </defs>
      <use transform="translate(0 0.529687)" xlink:href="#DejaVuSans-Oblique-3c9"/>
      <use transform="translate(88.20638 38.810937)scale(0.7)" xlink:href="#DejaVuSans-5b"/>
      <use transform="translate(115.515951 38.810937)scale(0.7)" xlink:href="#DejaVuSans-31"/>
      <use transform="translate(160.052083 38.810937)scale(0.7)" xlink:href="#DejaVuSans-5d"/>
      <use transform="translate(190.096029 0.529687)" xlink:href="#DejaVuSans-28"/>
      <use transform="translate(229.109701 0.529687)" xlink:href="#DejaVuSans-Oblique-74"/>
      <use transform="translate(268.318685 0.529687)" xlink:href="#DejaVuSans-29"/>
     </g>
    </g>
    <g id="line2d_41">
     <path d="M 153.362 584.72875 
L 201.362 584.72875 
" style="fill:none;stroke:#ff7f0e;stroke-linecap:square;stroke-width:4;"/>
    </g>
    <g id="line2d_42"/>
    <g id="text_17">
     <!-- $\omega^{[2]}(t)$ -->
     <g transform="translate(220.562 593.12875)scale(0.24 -0.24)">
      <use transform="translate(0 0.529687)" xlink:href="#DejaVuSans-Oblique-3c9"/>
      <use transform="translate(88.20638 38.810937)scale(0.7)" xlink:href="#DejaVuSans-5b"/>
      <use transform="translate(115.515951 38.810937)scale(0.7)" xlink:href="#DejaVuSans-32"/>
      <use transform="translate(160.052083 38.810937)scale(0.7)" xlink:href="#DejaVuSans-5d"/>
      <use transform="translate(190.096029 0.529687)" xlink:href="#DejaVuSans-28"/>
      <use transform="translate(229.109701 0.529687)" xlink:href="#DejaVuSans-Oblique-74"/>
      <use transform="translate(268.318685 0.529687)" xlink:href="#DejaVuSans-29"/>
     </g>
    </g>
   </g>
  </g>
 </g>
 <defs>
  <clipPath id="pbdf39a101e">
   <rect height="585.16" width="793.438" x="131.762" y="34.56"/>
  </clipPath>
 </defs>
</svg>
