<?xml version="1.0" encoding="utf-8" standalone="no"?>
<!DOCTYPE svg PUBLIC "-//W3C//DTD SVG 1.1//EN"
  "http://www.w3.org/Graphics/SVG/1.1/DTD/svg11.dtd">
<!-- Created with matplotlib (https://matplotlib.org/) -->
<svg height="720pt" version="1.1" viewBox="0 0 959.976 720" width="959.976pt" xmlns="http://www.w3.org/2000/svg" xmlns:xlink="http://www.w3.org/1999/xlink">
 <defs>
  <style type="text/css">
*{stroke-linecap:butt;stroke-linejoin:round;}
  </style>
 </defs>
 <g id="figure_1">
  <g id="patch_1">
   <path d="M 0 720 
L 959.976 720 
L 959.976 0 
L 0 0 
z
" style="fill:#ffffff;"/>
  </g>
  <g id="axes_1">
   <g id="patch_2">
    <path d="M 152.03 588.04 
L 916.776 588.04 
L 916.776 43.2 
L 152.03 43.2 
z
" style="fill:#ffffff;"/>
   </g>
   <g id="matplotlib.axis_1">
    <g id="xtick_1">
     <g id="line2d_1">
      <defs>
       <path d="M 0 0 
L 0 3.5 
" id="md1a0b6f126" style="stroke:#000000;stroke-width:0.8;"/>
      </defs>
      <g>
       <use style="stroke:#000000;stroke-width:0.8;" x="186.791182" xlink:href="#md1a0b6f126" y="588.04"/>
      </g>
     </g>
     <g id="text_1">
      <!-- 10 -->
      <defs>
       <path d="M 12.40625 8.296875 
L 28.515625 8.296875 
L 28.515625 63.921875 
L 10.984375 60.40625 
L 10.984375 69.390625 
L 28.421875 72.90625 
L 38.28125 72.90625 
L 38.28125 8.296875 
L 54.390625 8.296875 
L 54.390625 0 
L 12.40625 0 
z
" id="DejaVuSans-49"/>
       <path d="M 31.78125 66.40625 
Q 24.171875 66.40625 20.328125 58.90625 
Q 16.5 51.421875 16.5 36.375 
Q 16.5 21.390625 20.328125 13.890625 
Q 24.171875 6.390625 31.78125 6.390625 
Q 39.453125 6.390625 43.28125 13.890625 
Q 47.125 21.390625 47.125 36.375 
Q 47.125 51.421875 43.28125 58.90625 
Q 39.453125 66.40625 31.78125 66.40625 
z
M 31.78125 74.21875 
Q 44.046875 74.21875 50.515625 64.515625 
Q 56.984375 54.828125 56.984375 36.375 
Q 56.984375 17.96875 50.515625 8.265625 
Q 44.046875 -1.421875 31.78125 -1.421875 
Q 19.53125 -1.421875 13.0625 8.265625 
Q 6.59375 17.96875 6.59375 36.375 
Q 6.59375 54.828125 13.0625 64.515625 
Q 19.53125 74.21875 31.78125 74.21875 
z
" id="DejaVuSans-48"/>
      </defs>
      <g transform="translate(161.341182 625.43375)scale(0.4 -0.4)">
       <use xlink:href="#DejaVuSans-49"/>
       <use x="63.623047" xlink:href="#DejaVuSans-48"/>
      </g>
     </g>
    </g>
    <g id="xtick_2">
     <g id="line2d_2">
      <g>
       <use style="stroke:#000000;stroke-width:0.8;" x="325.835909" xlink:href="#md1a0b6f126" y="588.04"/>
      </g>
     </g>
     <g id="text_2">
      <!-- 12 -->
      <defs>
       <path d="M 19.1875 8.296875 
L 53.609375 8.296875 
L 53.609375 0 
L 7.328125 0 
L 7.328125 8.296875 
Q 12.9375 14.109375 22.625 23.890625 
Q 32.328125 33.6875 34.8125 36.53125 
Q 39.546875 41.84375 41.421875 45.53125 
Q 43.3125 49.21875 43.3125 52.78125 
Q 43.3125 58.59375 39.234375 62.25 
Q 35.15625 65.921875 28.609375 65.921875 
Q 23.96875 65.921875 18.8125 64.3125 
Q 13.671875 62.703125 7.8125 59.421875 
L 7.8125 69.390625 
Q 13.765625 71.78125 18.9375 73 
Q 24.125 74.21875 28.421875 74.21875 
Q 39.75 74.21875 46.484375 68.546875 
Q 53.21875 62.890625 53.21875 53.421875 
Q 53.21875 48.921875 51.53125 44.890625 
Q 49.859375 40.875 45.40625 35.40625 
Q 44.1875 33.984375 37.640625 27.21875 
Q 31.109375 20.453125 19.1875 8.296875 
z
" id="DejaVuSans-50"/>
      </defs>
      <g transform="translate(300.385909 625.43375)scale(0.4 -0.4)">
       <use xlink:href="#DejaVuSans-49"/>
       <use x="63.623047" xlink:href="#DejaVuSans-50"/>
      </g>
     </g>
    </g>
    <g id="xtick_3">
     <g id="line2d_3">
      <g>
       <use style="stroke:#000000;stroke-width:0.8;" x="464.880636" xlink:href="#md1a0b6f126" y="588.04"/>
      </g>
     </g>
     <g id="text_3">
      <!-- 14 -->
      <defs>
       <path d="M 37.796875 64.3125 
L 12.890625 25.390625 
L 37.796875 25.390625 
z
M 35.203125 72.90625 
L 47.609375 72.90625 
L 47.609375 25.390625 
L 58.015625 25.390625 
L 58.015625 17.1875 
L 47.609375 17.1875 
L 47.609375 0 
L 37.796875 0 
L 37.796875 17.1875 
L 4.890625 17.1875 
L 4.890625 26.703125 
z
" id="DejaVuSans-52"/>
      </defs>
      <g transform="translate(439.430636 625.43375)scale(0.4 -0.4)">
       <use xlink:href="#DejaVuSans-49"/>
       <use x="63.623047" xlink:href="#DejaVuSans-52"/>
      </g>
     </g>
    </g>
    <g id="xtick_4">
     <g id="line2d_4">
      <g>
       <use style="stroke:#000000;stroke-width:0.8;" x="603.925364" xlink:href="#md1a0b6f126" y="588.04"/>
      </g>
     </g>
     <g id="text_4">
      <!-- 16 -->
      <defs>
       <path d="M 33.015625 40.375 
Q 26.375 40.375 22.484375 35.828125 
Q 18.609375 31.296875 18.609375 23.390625 
Q 18.609375 15.53125 22.484375 10.953125 
Q 26.375 6.390625 33.015625 6.390625 
Q 39.65625 6.390625 43.53125 10.953125 
Q 47.40625 15.53125 47.40625 23.390625 
Q 47.40625 31.296875 43.53125 35.828125 
Q 39.65625 40.375 33.015625 40.375 
z
M 52.59375 71.296875 
L 52.59375 62.3125 
Q 48.875 64.0625 45.09375 64.984375 
Q 41.3125 65.921875 37.59375 65.921875 
Q 27.828125 65.921875 22.671875 59.328125 
Q 17.53125 52.734375 16.796875 39.40625 
Q 19.671875 43.65625 24.015625 45.921875 
Q 28.375 48.1875 33.59375 48.1875 
Q 44.578125 48.1875 50.953125 41.515625 
Q 57.328125 34.859375 57.328125 23.390625 
Q 57.328125 12.15625 50.6875 5.359375 
Q 44.046875 -1.421875 33.015625 -1.421875 
Q 20.359375 -1.421875 13.671875 8.265625 
Q 6.984375 17.96875 6.984375 36.375 
Q 6.984375 53.65625 15.1875 63.9375 
Q 23.390625 74.21875 37.203125 74.21875 
Q 40.921875 74.21875 44.703125 73.484375 
Q 48.484375 72.75 52.59375 71.296875 
z
" id="DejaVuSans-54"/>
      </defs>
      <g transform="translate(578.475364 625.43375)scale(0.4 -0.4)">
       <use xlink:href="#DejaVuSans-49"/>
       <use x="63.623047" xlink:href="#DejaVuSans-54"/>
      </g>
     </g>
    </g>
    <g id="xtick_5">
     <g id="line2d_5">
      <g>
       <use style="stroke:#000000;stroke-width:0.8;" x="742.970091" xlink:href="#md1a0b6f126" y="588.04"/>
      </g>
     </g>
     <g id="text_5">
      <!-- 18 -->
      <defs>
       <path d="M 31.78125 34.625 
Q 24.75 34.625 20.71875 30.859375 
Q 16.703125 27.09375 16.703125 20.515625 
Q 16.703125 13.921875 20.71875 10.15625 
Q 24.75 6.390625 31.78125 6.390625 
Q 38.8125 6.390625 42.859375 10.171875 
Q 46.921875 13.96875 46.921875 20.515625 
Q 46.921875 27.09375 42.890625 30.859375 
Q 38.875 34.625 31.78125 34.625 
z
M 21.921875 38.8125 
Q 15.578125 40.375 12.03125 44.71875 
Q 8.5 49.078125 8.5 55.328125 
Q 8.5 64.0625 14.71875 69.140625 
Q 20.953125 74.21875 31.78125 74.21875 
Q 42.671875 74.21875 48.875 69.140625 
Q 55.078125 64.0625 55.078125 55.328125 
Q 55.078125 49.078125 51.53125 44.71875 
Q 48 40.375 41.703125 38.8125 
Q 48.828125 37.15625 52.796875 32.3125 
Q 56.78125 27.484375 56.78125 20.515625 
Q 56.78125 9.90625 50.3125 4.234375 
Q 43.84375 -1.421875 31.78125 -1.421875 
Q 19.734375 -1.421875 13.25 4.234375 
Q 6.78125 9.90625 6.78125 20.515625 
Q 6.78125 27.484375 10.78125 32.3125 
Q 14.796875 37.15625 21.921875 38.8125 
z
M 18.3125 54.390625 
Q 18.3125 48.734375 21.84375 45.5625 
Q 25.390625 42.390625 31.78125 42.390625 
Q 38.140625 42.390625 41.71875 45.5625 
Q 45.3125 48.734375 45.3125 54.390625 
Q 45.3125 60.0625 41.71875 63.234375 
Q 38.140625 66.40625 31.78125 66.40625 
Q 25.390625 66.40625 21.84375 63.234375 
Q 18.3125 60.0625 18.3125 54.390625 
z
" id="DejaVuSans-56"/>
      </defs>
      <g transform="translate(717.520091 625.43375)scale(0.4 -0.4)">
       <use xlink:href="#DejaVuSans-49"/>
       <use x="63.623047" xlink:href="#DejaVuSans-56"/>
      </g>
     </g>
    </g>
    <g id="xtick_6">
     <g id="line2d_6">
      <g>
       <use style="stroke:#000000;stroke-width:0.8;" x="882.014818" xlink:href="#md1a0b6f126" y="588.04"/>
      </g>
     </g>
     <g id="text_6">
      <!-- 20 -->
      <g transform="translate(856.564818 625.43375)scale(0.4 -0.4)">
       <use xlink:href="#DejaVuSans-50"/>
       <use x="63.623047" xlink:href="#DejaVuSans-48"/>
      </g>
     </g>
    </g>
    <g id="text_7">
     <!-- Time -->
     <defs>
      <path d="M -0.296875 72.90625 
L 61.375 72.90625 
L 61.375 64.59375 
L 35.5 64.59375 
L 35.5 0 
L 25.59375 0 
L 25.59375 64.59375 
L -0.296875 64.59375 
z
" id="DejaVuSans-84"/>
      <path d="M 9.421875 54.6875 
L 18.40625 54.6875 
L 18.40625 0 
L 9.421875 0 
z
M 9.421875 75.984375 
L 18.40625 75.984375 
L 18.40625 64.59375 
L 9.421875 64.59375 
z
" id="DejaVuSans-105"/>
      <path d="M 52 44.1875 
Q 55.375 50.25 60.0625 53.125 
Q 64.75 56 71.09375 56 
Q 79.640625 56 84.28125 50.015625 
Q 88.921875 44.046875 88.921875 33.015625 
L 88.921875 0 
L 79.890625 0 
L 79.890625 32.71875 
Q 79.890625 40.578125 77.09375 44.375 
Q 74.3125 48.1875 68.609375 48.1875 
Q 61.625 48.1875 57.5625 43.546875 
Q 53.515625 38.921875 53.515625 30.90625 
L 53.515625 0 
L 44.484375 0 
L 44.484375 32.71875 
Q 44.484375 40.625 41.703125 44.40625 
Q 38.921875 48.1875 33.109375 48.1875 
Q 26.21875 48.1875 22.15625 43.53125 
Q 18.109375 38.875 18.109375 30.90625 
L 18.109375 0 
L 9.078125 0 
L 9.078125 54.6875 
L 18.109375 54.6875 
L 18.109375 46.1875 
Q 21.1875 51.21875 25.484375 53.609375 
Q 29.78125 56 35.6875 56 
Q 41.65625 56 45.828125 52.96875 
Q 50 49.953125 52 44.1875 
z
" id="DejaVuSans-109"/>
      <path d="M 56.203125 29.59375 
L 56.203125 25.203125 
L 14.890625 25.203125 
Q 15.484375 15.921875 20.484375 11.0625 
Q 25.484375 6.203125 34.421875 6.203125 
Q 39.59375 6.203125 44.453125 7.46875 
Q 49.3125 8.734375 54.109375 11.28125 
L 54.109375 2.78125 
Q 49.265625 0.734375 44.1875 -0.34375 
Q 39.109375 -1.421875 33.890625 -1.421875 
Q 20.796875 -1.421875 13.15625 6.1875 
Q 5.515625 13.8125 5.515625 26.8125 
Q 5.515625 40.234375 12.765625 48.109375 
Q 20.015625 56 32.328125 56 
Q 43.359375 56 49.78125 48.890625 
Q 56.203125 41.796875 56.203125 29.59375 
z
M 47.21875 32.234375 
Q 47.125 39.59375 43.09375 43.984375 
Q 39.0625 48.390625 32.421875 48.390625 
Q 24.90625 48.390625 20.390625 44.140625 
Q 15.875 39.890625 15.1875 32.171875 
z
" id="DejaVuSans-101"/>
     </defs>
     <g transform="translate(485.468625 668.14625)scale(0.4 -0.4)">
      <use xlink:href="#DejaVuSans-84"/>
      <use x="57.958984" xlink:href="#DejaVuSans-105"/>
      <use x="85.742188" xlink:href="#DejaVuSans-109"/>
      <use x="183.154297" xlink:href="#DejaVuSans-101"/>
     </g>
    </g>
   </g>
   <g id="matplotlib.axis_2">
    <g id="ytick_1">
     <g id="line2d_7">
      <defs>
       <path d="M 0 0 
L -3.5 0 
" id="m716e82b223" style="stroke:#000000;stroke-width:0.8;"/>
      </defs>
      <g>
       <use style="stroke:#000000;stroke-width:0.8;" x="152.03" xlink:href="#m716e82b223" y="484.660153"/>
      </g>
     </g>
     <g id="text_8">
      <!-- −4 -->
      <defs>
       <path d="M 10.59375 35.5 
L 73.1875 35.5 
L 73.1875 27.203125 
L 10.59375 27.203125 
z
" id="DejaVuSans-8722"/>
      </defs>
      <g transform="translate(86.06125 499.857028)scale(0.4 -0.4)">
       <use xlink:href="#DejaVuSans-8722"/>
       <use x="83.789062" xlink:href="#DejaVuSans-52"/>
      </g>
     </g>
    </g>
    <g id="ytick_2">
     <g id="line2d_8">
      <g>
       <use style="stroke:#000000;stroke-width:0.8;" x="152.03" xlink:href="#m716e82b223" y="312.995119"/>
      </g>
     </g>
     <g id="text_9">
      <!-- −2 -->
      <g transform="translate(86.06125 328.191994)scale(0.4 -0.4)">
       <use xlink:href="#DejaVuSans-8722"/>
       <use x="83.789062" xlink:href="#DejaVuSans-50"/>
      </g>
     </g>
    </g>
    <g id="ytick_3">
     <g id="line2d_9">
      <g>
       <use style="stroke:#000000;stroke-width:0.8;" x="152.03" xlink:href="#m716e82b223" y="141.330086"/>
      </g>
     </g>
     <g id="text_10">
      <!-- 0 -->
      <g transform="translate(119.58 156.526961)scale(0.4 -0.4)">
       <use xlink:href="#DejaVuSans-48"/>
      </g>
     </g>
    </g>
    <g id="text_11">
     <!-- Angular Rate -->
     <defs>
      <path d="M 34.1875 63.1875 
L 20.796875 26.90625 
L 47.609375 26.90625 
z
M 28.609375 72.90625 
L 39.796875 72.90625 
L 67.578125 0 
L 57.328125 0 
L 50.6875 18.703125 
L 17.828125 18.703125 
L 11.1875 0 
L 0.78125 0 
z
" id="DejaVuSans-65"/>
      <path d="M 54.890625 33.015625 
L 54.890625 0 
L 45.90625 0 
L 45.90625 32.71875 
Q 45.90625 40.484375 42.875 44.328125 
Q 39.84375 48.1875 33.796875 48.1875 
Q 26.515625 48.1875 22.3125 43.546875 
Q 18.109375 38.921875 18.109375 30.90625 
L 18.109375 0 
L 9.078125 0 
L 9.078125 54.6875 
L 18.109375 54.6875 
L 18.109375 46.1875 
Q 21.34375 51.125 25.703125 53.5625 
Q 30.078125 56 35.796875 56 
Q 45.21875 56 50.046875 50.171875 
Q 54.890625 44.34375 54.890625 33.015625 
z
" id="DejaVuSans-110"/>
      <path d="M 45.40625 27.984375 
Q 45.40625 37.75 41.375 43.109375 
Q 37.359375 48.484375 30.078125 48.484375 
Q 22.859375 48.484375 18.828125 43.109375 
Q 14.796875 37.75 14.796875 27.984375 
Q 14.796875 18.265625 18.828125 12.890625 
Q 22.859375 7.515625 30.078125 7.515625 
Q 37.359375 7.515625 41.375 12.890625 
Q 45.40625 18.265625 45.40625 27.984375 
z
M 54.390625 6.78125 
Q 54.390625 -7.171875 48.1875 -13.984375 
Q 42 -20.796875 29.203125 -20.796875 
Q 24.46875 -20.796875 20.265625 -20.09375 
Q 16.0625 -19.390625 12.109375 -17.921875 
L 12.109375 -9.1875 
Q 16.0625 -11.328125 19.921875 -12.34375 
Q 23.78125 -13.375 27.78125 -13.375 
Q 36.625 -13.375 41.015625 -8.765625 
Q 45.40625 -4.15625 45.40625 5.171875 
L 45.40625 9.625 
Q 42.625 4.78125 38.28125 2.390625 
Q 33.9375 0 27.875 0 
Q 17.828125 0 11.671875 7.65625 
Q 5.515625 15.328125 5.515625 27.984375 
Q 5.515625 40.671875 11.671875 48.328125 
Q 17.828125 56 27.875 56 
Q 33.9375 56 38.28125 53.609375 
Q 42.625 51.21875 45.40625 46.390625 
L 45.40625 54.6875 
L 54.390625 54.6875 
z
" id="DejaVuSans-103"/>
      <path d="M 8.5 21.578125 
L 8.5 54.6875 
L 17.484375 54.6875 
L 17.484375 21.921875 
Q 17.484375 14.15625 20.5 10.265625 
Q 23.53125 6.390625 29.59375 6.390625 
Q 36.859375 6.390625 41.078125 11.03125 
Q 45.3125 15.671875 45.3125 23.6875 
L 45.3125 54.6875 
L 54.296875 54.6875 
L 54.296875 0 
L 45.3125 0 
L 45.3125 8.40625 
Q 42.046875 3.421875 37.71875 1 
Q 33.40625 -1.421875 27.6875 -1.421875 
Q 18.265625 -1.421875 13.375 4.4375 
Q 8.5 10.296875 8.5 21.578125 
z
M 31.109375 56 
z
" id="DejaVuSans-117"/>
      <path d="M 9.421875 75.984375 
L 18.40625 75.984375 
L 18.40625 0 
L 9.421875 0 
z
" id="DejaVuSans-108"/>
      <path d="M 34.28125 27.484375 
Q 23.390625 27.484375 19.1875 25 
Q 14.984375 22.515625 14.984375 16.5 
Q 14.984375 11.71875 18.140625 8.90625 
Q 21.296875 6.109375 26.703125 6.109375 
Q 34.1875 6.109375 38.703125 11.40625 
Q 43.21875 16.703125 43.21875 25.484375 
L 43.21875 27.484375 
z
M 52.203125 31.203125 
L 52.203125 0 
L 43.21875 0 
L 43.21875 8.296875 
Q 40.140625 3.328125 35.546875 0.953125 
Q 30.953125 -1.421875 24.3125 -1.421875 
Q 15.921875 -1.421875 10.953125 3.296875 
Q 6 8.015625 6 15.921875 
Q 6 25.140625 12.171875 29.828125 
Q 18.359375 34.515625 30.609375 34.515625 
L 43.21875 34.515625 
L 43.21875 35.40625 
Q 43.21875 41.609375 39.140625 45 
Q 35.0625 48.390625 27.6875 48.390625 
Q 23 48.390625 18.546875 47.265625 
Q 14.109375 46.140625 10.015625 43.890625 
L 10.015625 52.203125 
Q 14.9375 54.109375 19.578125 55.046875 
Q 24.21875 56 28.609375 56 
Q 40.484375 56 46.34375 49.84375 
Q 52.203125 43.703125 52.203125 31.203125 
z
" id="DejaVuSans-97"/>
      <path d="M 41.109375 46.296875 
Q 39.59375 47.171875 37.8125 47.578125 
Q 36.03125 48 33.890625 48 
Q 26.265625 48 22.1875 43.046875 
Q 18.109375 38.09375 18.109375 28.8125 
L 18.109375 0 
L 9.078125 0 
L 9.078125 54.6875 
L 18.109375 54.6875 
L 18.109375 46.1875 
Q 20.953125 51.171875 25.484375 53.578125 
Q 30.03125 56 36.53125 56 
Q 37.453125 56 38.578125 55.875 
Q 39.703125 55.765625 41.0625 55.515625 
z
" id="DejaVuSans-114"/>
      <path id="DejaVuSans-32"/>
      <path d="M 44.390625 34.1875 
Q 47.5625 33.109375 50.5625 29.59375 
Q 53.5625 26.078125 56.59375 19.921875 
L 66.609375 0 
L 56 0 
L 46.6875 18.703125 
Q 43.0625 26.03125 39.671875 28.421875 
Q 36.28125 30.8125 30.421875 30.8125 
L 19.671875 30.8125 
L 19.671875 0 
L 9.8125 0 
L 9.8125 72.90625 
L 32.078125 72.90625 
Q 44.578125 72.90625 50.734375 67.671875 
Q 56.890625 62.453125 56.890625 51.90625 
Q 56.890625 45.015625 53.6875 40.46875 
Q 50.484375 35.9375 44.390625 34.1875 
z
M 19.671875 64.796875 
L 19.671875 38.921875 
L 32.078125 38.921875 
Q 39.203125 38.921875 42.84375 42.21875 
Q 46.484375 45.515625 46.484375 51.90625 
Q 46.484375 58.296875 42.84375 61.546875 
Q 39.203125 64.796875 32.078125 64.796875 
z
" id="DejaVuSans-82"/>
      <path d="M 18.3125 70.21875 
L 18.3125 54.6875 
L 36.8125 54.6875 
L 36.8125 47.703125 
L 18.3125 47.703125 
L 18.3125 18.015625 
Q 18.3125 11.328125 20.140625 9.421875 
Q 21.96875 7.515625 27.59375 7.515625 
L 36.8125 7.515625 
L 36.8125 0 
L 27.59375 0 
Q 17.1875 0 13.234375 3.875 
Q 9.28125 7.765625 9.28125 18.015625 
L 9.28125 47.703125 
L 2.6875 47.703125 
L 2.6875 54.6875 
L 9.28125 54.6875 
L 9.28125 70.21875 
z
" id="DejaVuSans-116"/>
     </defs>
     <g transform="translate(73.7425 445.58875)rotate(-90)scale(0.4 -0.4)">
      <use xlink:href="#DejaVuSans-65"/>
      <use x="68.408203" xlink:href="#DejaVuSans-110"/>
      <use x="131.787109" xlink:href="#DejaVuSans-103"/>
      <use x="195.263672" xlink:href="#DejaVuSans-117"/>
      <use x="258.642578" xlink:href="#DejaVuSans-108"/>
      <use x="286.425781" xlink:href="#DejaVuSans-97"/>
      <use x="347.705078" xlink:href="#DejaVuSans-114"/>
      <use x="388.818359" xlink:href="#DejaVuSans-32"/>
      <use x="420.605469" xlink:href="#DejaVuSans-82"/>
      <use x="487.837891" xlink:href="#DejaVuSans-97"/>
      <use x="549.117188" xlink:href="#DejaVuSans-116"/>
      <use x="588.326172" xlink:href="#DejaVuSans-101"/>
     </g>
    </g>
   </g>
   <g id="line2d_10">
    <path clip-path="url(#p8e19c11776)" d="M 789.318333 563.274545 
L 882.014818 159.468278 
" style="fill:none;stroke:#000000;stroke-dasharray:4,6.6;stroke-dashoffset:0;stroke-width:4;"/>
   </g>
   <g id="line2d_11">
    <path clip-path="url(#p8e19c11776)" d="M 349.01003 67.965455 
L 882.014818 159.468278 
" style="fill:none;stroke:#000000;stroke-dasharray:4,6.6;stroke-dashoffset:0;stroke-width:4;"/>
   </g>
   <g id="line2d_12">
    <path clip-path="url(#p8e19c11776)" d="M 766.144212 559.797164 
L 186.791182 124.755531 
" style="fill:none;stroke:#000000;stroke-dasharray:4,6.6;stroke-dashoffset:0;stroke-width:4;"/>
   </g>
   <g id="line2d_13">
    <path clip-path="url(#p8e19c11776)" d="M 766.144212 559.797164 
L 789.318333 563.274545 
" style="fill:none;stroke:#000000;stroke-dasharray:4,6.6;stroke-dashoffset:0;stroke-width:4;"/>
   </g>
   <g id="line2d_14">
    <path clip-path="url(#p8e19c11776)" d="M 325.835909 69.539016 
L 186.791182 124.755531 
" style="fill:none;stroke:#000000;stroke-dasharray:4,6.6;stroke-dashoffset:0;stroke-width:4;"/>
   </g>
   <g id="line2d_15">
    <path clip-path="url(#p8e19c11776)" d="M 325.835909 69.539016 
L 349.01003 67.965455 
" style="fill:none;stroke:#000000;stroke-dasharray:4,6.6;stroke-dashoffset:0;stroke-width:4;"/>
   </g>
   <g id="line2d_16">
    <path clip-path="url(#p8e19c11776)" d="M 882.014818 89.830576 
L 186.791182 159.817089 
" style="fill:none;stroke:#000000;stroke-dasharray:4,6.6;stroke-dashoffset:0;stroke-width:4;"/>
   </g>
   <g id="line2d_17">
    <path clip-path="url(#p8e19c11776)" d="M 557.577121 164.991386 
L 186.791182 159.817089 
" style="fill:none;stroke:#000000;stroke-dasharray:4,6.6;stroke-dashoffset:0;stroke-width:4;"/>
   </g>
   <g id="line2d_18">
    <path clip-path="url(#p8e19c11776)" d="M 835.666576 114.760275 
L 882.014818 89.830576 
" style="fill:none;stroke:#000000;stroke-dasharray:4,6.6;stroke-dashoffset:0;stroke-width:4;"/>
   </g>
   <g id="line2d_19">
    <path clip-path="url(#p8e19c11776)" d="M 835.666576 114.760275 
L 812.492455 125.128753 
" style="fill:none;stroke:#000000;stroke-dasharray:4,6.6;stroke-dashoffset:0;stroke-width:4;"/>
   </g>
   <g id="line2d_20">
    <path clip-path="url(#p8e19c11776)" d="M 789.318333 132.892919 
L 766.144212 138.839874 
" style="fill:none;stroke:#000000;stroke-dasharray:4,6.6;stroke-dashoffset:0;stroke-width:4;"/>
   </g>
   <g id="line2d_21">
    <path clip-path="url(#p8e19c11776)" d="M 789.318333 132.892919 
L 812.492455 125.128753 
" style="fill:none;stroke:#000000;stroke-dasharray:4,6.6;stroke-dashoffset:0;stroke-width:4;"/>
   </g>
   <g id="line2d_22">
    <path clip-path="url(#p8e19c11776)" d="M 580.751242 164.540424 
L 557.577121 164.991386 
" style="fill:none;stroke:#000000;stroke-dasharray:4,6.6;stroke-dashoffset:0;stroke-width:4;"/>
   </g>
   <g id="line2d_23">
    <path clip-path="url(#p8e19c11776)" d="M 580.751242 164.540424 
L 603.925364 163.196669 
" style="fill:none;stroke:#000000;stroke-dasharray:4,6.6;stroke-dashoffset:0;stroke-width:4;"/>
   </g>
   <g id="line2d_24">
    <path clip-path="url(#p8e19c11776)" d="M 627.099485 161.055087 
L 650.273606 158.29622 
" style="fill:none;stroke:#000000;stroke-dasharray:4,6.6;stroke-dashoffset:0;stroke-width:4;"/>
   </g>
   <g id="line2d_25">
    <path clip-path="url(#p8e19c11776)" d="M 627.099485 161.055087 
L 603.925364 163.196669 
" style="fill:none;stroke:#000000;stroke-dasharray:4,6.6;stroke-dashoffset:0;stroke-width:4;"/>
   </g>
   <g id="line2d_26">
    <path clip-path="url(#p8e19c11776)" d="M 742.970091 143.66656 
L 766.144212 138.839874 
" style="fill:none;stroke:#000000;stroke-dasharray:4,6.6;stroke-dashoffset:0;stroke-width:4;"/>
   </g>
   <g id="line2d_27">
    <path clip-path="url(#p8e19c11776)" d="M 742.970091 143.66656 
L 719.79597 147.836281 
" style="fill:none;stroke:#000000;stroke-dasharray:4,6.6;stroke-dashoffset:0;stroke-width:4;"/>
   </g>
   <g id="line2d_28">
    <path clip-path="url(#p8e19c11776)" d="M 673.447727 155.107336 
L 650.273606 158.29622 
" style="fill:none;stroke:#000000;stroke-dasharray:4,6.6;stroke-dashoffset:0;stroke-width:4;"/>
   </g>
   <g id="line2d_29">
    <path clip-path="url(#p8e19c11776)" d="M 696.621848 151.613724 
L 719.79597 147.836281 
" style="fill:none;stroke:#000000;stroke-dasharray:4,6.6;stroke-dashoffset:0;stroke-width:4;"/>
   </g>
   <g id="line2d_30">
    <path clip-path="url(#p8e19c11776)" d="M 696.621848 151.613724 
L 673.447727 155.107336 
" style="fill:none;stroke:#000000;stroke-dasharray:4,6.6;stroke-dashoffset:0;stroke-width:4;"/>
   </g>
   <g id="line2d_31">
    <path clip-path="url(#p8e19c11776)" d="M 186.791182 124.755531 
L 198.609984 122.886334 
L 209.733562 120.900359 
L 220.161916 118.81725 
L 230.590271 116.502093 
L 240.323402 114.120725 
L 250.056533 111.523106 
L 260.484887 108.509538 
L 272.303689 104.846707 
L 291.769951 98.515835 
L 303.588753 94.790661 
L 311.931436 92.393347 
L 318.883673 90.634973 
L 325.140685 89.297296 
L 330.702475 88.341284 
L 335.56904 87.707636 
L 340.435605 87.279071 
L 345.302171 87.06622 
L 350.168736 87.074847 
L 355.035302 87.305513 
L 359.901867 87.753549 
L 364.768433 88.409335 
L 370.330222 89.395048 
L 375.892011 90.607095 
L 382.149024 92.202546 
L 389.10126 94.207266 
L 397.443944 96.845314 
L 409.957969 101.059174 
L 431.509902 108.31854 
L 443.328704 112.035771 
L 453.757058 115.088705 
L 464.185413 117.915489 
L 474.613767 120.520866 
L 485.737345 123.073216 
L 497.556147 125.557338 
L 510.765396 128.099483 
L 526.060316 130.801281 
L 545.526578 133.989928 
L 593.497009 141.735523 
L 606.706258 144.150886 
L 617.829836 146.403315 
L 627.562967 148.599584 
L 635.905651 150.698256 
L 643.553111 152.839735 
L 650.505347 155.004892 
L 656.76236 157.164263 
L 663.019373 159.556762 
L 668.581162 161.90901 
L 674.142951 164.503976 
L 679.009516 166.998464 
L 683.876082 169.72629 
L 688.742647 172.711407 
L 693.609213 175.977512 
L 698.475778 179.546959 
L 702.64712 182.863806 
L 707.513685 187.043943 
L 712.380251 191.56365 
L 717.246816 196.41198 
L 722.808605 202.314536 
L 729.065618 209.28923 
L 740.189196 221.774833 
L 744.360538 226.117438 
L 747.836656 229.410032 
L 750.617551 231.7749 
L 753.398445 233.844488 
L 756.17934 235.575767 
L 758.960235 236.91152 
L 761.045905 237.645463 
L 763.131576 238.127838 
L 764.522024 238.318506 
L 766.607695 238.383657 
L 767.998142 238.305286 
L 770.083813 237.950049 
L 772.169484 237.345166 
L 774.255155 236.525832 
L 776.340825 235.482059 
L 779.12172 233.752037 
L 781.902615 231.697062 
L 784.683509 229.340024 
L 787.464404 226.775586 
L 792.330969 221.850868 
L 796.502311 217.356882 
L 809.71156 203.022725 
L 816.663796 196.063033 
L 820.139915 192.797925 
L 825.00648 188.51212 
L 831.263493 183.542198 
L 836.130058 180.042754 
L 840.996624 176.860741 
L 846.558413 173.568124 
L 851.424978 170.990165 
L 857.681991 168.023113 
L 861.853333 166.253285 
L 866.719898 164.341509 
L 870.196016 163.119116 
L 875.757805 161.289756 
L 881.319595 159.657527 
L 882.014818 159.468278 
L 882.014818 159.468278 
" style="fill:none;stroke:#1f77b4;stroke-linecap:square;stroke-width:4;"/>
   </g>
   <g id="line2d_32">
    <path clip-path="url(#p8e19c11776)" d="M 186.791182 124.755531 
L 209.965303 119.682834 
L 233.139424 112.785818 
L 256.313545 103.556563 
L 279.487667 91.901676 
L 302.661788 79.211518 
L 325.835909 69.539016 
L 349.01003 67.965455 
L 372.184152 75.33722 
L 395.358273 87.270549 
L 418.532394 99.204609 
L 441.706515 109.1463 
L 464.880636 116.89513 
L 488.054758 122.87715 
L 511.228879 127.595885 
L 534.403 131.479073 
L 557.577121 134.873495 
L 580.751242 138.083976 
L 603.925364 141.431302 
L 627.099485 145.342033 
L 650.273606 150.524954 
L 673.447727 158.40019 
L 696.621848 172.358343 
L 719.79597 202.306091 
L 742.970091 285.434367 
L 766.144212 559.797164 
L 789.318333 563.274545 
L 812.492455 283.419441 
L 835.666576 200.582102 
L 858.840697 171.999769 
L 882.014818 159.468278 
" style="fill:none;stroke:#1f77b4;stroke-dasharray:14.8,6.4;stroke-dashoffset:0;stroke-width:4;"/>
    <defs>
     <path d="M 0 4.5 
C 1.193414 4.5 2.338109 4.025852 3.181981 3.181981 
C 4.025852 2.338109 4.5 1.193414 4.5 0 
C 4.5 -1.193414 4.025852 -2.338109 3.181981 -3.181981 
C 2.338109 -4.025852 1.193414 -4.5 0 -4.5 
C -1.193414 -4.5 -2.338109 -4.025852 -3.181981 -3.181981 
C -4.025852 -2.338109 -4.5 -1.193414 -4.5 0 
C -4.5 1.193414 -4.025852 2.338109 -3.181981 3.181981 
C -2.338109 4.025852 -1.193414 4.5 0 4.5 
z
" id="mc89d447d66" style="stroke:#1f77b4;"/>
    </defs>
    <g clip-path="url(#p8e19c11776)">
     <use style="fill:#1f77b4;stroke:#1f77b4;" x="186.791182" xlink:href="#mc89d447d66" y="124.755531"/>
     <use style="fill:#1f77b4;stroke:#1f77b4;" x="209.965303" xlink:href="#mc89d447d66" y="119.682834"/>
     <use style="fill:#1f77b4;stroke:#1f77b4;" x="233.139424" xlink:href="#mc89d447d66" y="112.785818"/>
     <use style="fill:#1f77b4;stroke:#1f77b4;" x="256.313545" xlink:href="#mc89d447d66" y="103.556563"/>
     <use style="fill:#1f77b4;stroke:#1f77b4;" x="279.487667" xlink:href="#mc89d447d66" y="91.901676"/>
     <use style="fill:#1f77b4;stroke:#1f77b4;" x="302.661788" xlink:href="#mc89d447d66" y="79.211518"/>
     <use style="fill:#1f77b4;stroke:#1f77b4;" x="325.835909" xlink:href="#mc89d447d66" y="69.539016"/>
     <use style="fill:#1f77b4;stroke:#1f77b4;" x="349.01003" xlink:href="#mc89d447d66" y="67.965455"/>
     <use style="fill:#1f77b4;stroke:#1f77b4;" x="372.184152" xlink:href="#mc89d447d66" y="75.33722"/>
     <use style="fill:#1f77b4;stroke:#1f77b4;" x="395.358273" xlink:href="#mc89d447d66" y="87.270549"/>
     <use style="fill:#1f77b4;stroke:#1f77b4;" x="418.532394" xlink:href="#mc89d447d66" y="99.204609"/>
     <use style="fill:#1f77b4;stroke:#1f77b4;" x="441.706515" xlink:href="#mc89d447d66" y="109.1463"/>
     <use style="fill:#1f77b4;stroke:#1f77b4;" x="464.880636" xlink:href="#mc89d447d66" y="116.89513"/>
     <use style="fill:#1f77b4;stroke:#1f77b4;" x="488.054758" xlink:href="#mc89d447d66" y="122.87715"/>
     <use style="fill:#1f77b4;stroke:#1f77b4;" x="511.228879" xlink:href="#mc89d447d66" y="127.595885"/>
     <use style="fill:#1f77b4;stroke:#1f77b4;" x="534.403" xlink:href="#mc89d447d66" y="131.479073"/>
     <use style="fill:#1f77b4;stroke:#1f77b4;" x="557.577121" xlink:href="#mc89d447d66" y="134.873495"/>
     <use style="fill:#1f77b4;stroke:#1f77b4;" x="580.751242" xlink:href="#mc89d447d66" y="138.083976"/>
     <use style="fill:#1f77b4;stroke:#1f77b4;" x="603.925364" xlink:href="#mc89d447d66" y="141.431302"/>
     <use style="fill:#1f77b4;stroke:#1f77b4;" x="627.099485" xlink:href="#mc89d447d66" y="145.342033"/>
     <use style="fill:#1f77b4;stroke:#1f77b4;" x="650.273606" xlink:href="#mc89d447d66" y="150.524954"/>
     <use style="fill:#1f77b4;stroke:#1f77b4;" x="673.447727" xlink:href="#mc89d447d66" y="158.40019"/>
     <use style="fill:#1f77b4;stroke:#1f77b4;" x="696.621848" xlink:href="#mc89d447d66" y="172.358343"/>
     <use style="fill:#1f77b4;stroke:#1f77b4;" x="719.79597" xlink:href="#mc89d447d66" y="202.306091"/>
     <use style="fill:#1f77b4;stroke:#1f77b4;" x="742.970091" xlink:href="#mc89d447d66" y="285.434367"/>
     <use style="fill:#1f77b4;stroke:#1f77b4;" x="766.144212" xlink:href="#mc89d447d66" y="559.797164"/>
     <use style="fill:#1f77b4;stroke:#1f77b4;" x="789.318333" xlink:href="#mc89d447d66" y="563.274545"/>
     <use style="fill:#1f77b4;stroke:#1f77b4;" x="812.492455" xlink:href="#mc89d447d66" y="283.419441"/>
     <use style="fill:#1f77b4;stroke:#1f77b4;" x="835.666576" xlink:href="#mc89d447d66" y="200.582102"/>
     <use style="fill:#1f77b4;stroke:#1f77b4;" x="858.840697" xlink:href="#mc89d447d66" y="171.999769"/>
     <use style="fill:#1f77b4;stroke:#1f77b4;" x="882.014818" xlink:href="#mc89d447d66" y="159.468278"/>
    </g>
   </g>
   <g id="line2d_33">
    <path clip-path="url(#p8e19c11776)" d="M 186.791182 159.817089 
L 246.580415 157.020488 
L 270.218018 156.183911 
L 291.769951 155.642877 
L 312.62666 155.346335 
L 332.788145 155.283359 
L 352.949631 155.442624 
L 373.80634 155.835337 
L 395.358273 156.46811 
L 418.995876 157.390804 
L 448.890493 158.797982 
L 498.251371 161.146447 
L 517.717633 161.827688 
L 534.403 162.189306 
L 549.002696 162.291004 
L 562.907169 162.172818 
L 576.811642 161.827081 
L 590.020891 161.28031 
L 603.925364 160.475758 
L 617.829836 159.445039 
L 632.429533 158.135574 
L 647.724453 156.536471 
L 663.714596 154.641312 
L 680.399964 152.442911 
L 697.780555 149.924976 
L 714.465922 147.281533 
L 729.760842 144.63789 
L 743.665315 142.015577 
L 756.874564 139.285922 
L 769.388589 136.432611 
L 778.426496 134.183445 
L 792.330969 130.32284 
L 802.759324 127.060987 
L 812.492455 123.695477 
L 820.835138 120.53107 
L 835.434835 114.293478 
L 841.691847 111.288367 
L 843.082295 110.680346 
L 844.472742 109.950197 
L 847.94886 108.254982 
L 848.644084 108.030057 
L 849.339307 107.519722 
L 858.377215 102.815349 
L 859.072438 102.165254 
L 861.853333 100.783139 
L 866.024675 98.558242 
L 866.719898 98.342807 
L 867.415122 97.457868 
L 869.500793 96.79885 
L 870.196016 96.091632 
L 871.586464 95.488773 
L 872.281687 94.851666 
L 873.672135 94.389646 
L 875.062582 93.516082 
L 876.453029 92.897067 
L 877.148253 92.007459 
L 878.5387 91.891884 
L 879.233924 91.126705 
L 879.929147 90.655318 
L 880.624371 90.684136 
L 882.014818 89.830576 
L 882.014818 89.830576 
" style="fill:none;stroke:#ff7f0e;stroke-linecap:square;stroke-width:4;"/>
   </g>
   <g id="line2d_34">
    <path clip-path="url(#p8e19c11776)" d="M 186.791182 159.817089 
L 209.965303 158.592491 
L 233.139424 157.320412 
L 256.313545 156.172888 
L 279.487667 155.268163 
L 302.661788 154.678333 
L 325.835909 154.44242 
L 349.01003 154.57773 
L 372.184152 155.086619 
L 395.358273 155.957886 
L 418.532394 157.16266 
L 441.706515 158.64491 
L 464.880636 160.307844 
L 488.054758 162.000304 
L 511.228879 163.512127 
L 534.403 164.591265 
L 557.577121 164.991386 
L 580.751242 164.540424 
L 603.925364 163.196669 
L 627.099485 161.055087 
L 650.273606 158.29622 
L 673.447727 155.107336 
L 696.621848 151.613724 
L 719.79597 147.836281 
L 742.970091 143.66656 
L 766.144212 138.839874 
L 789.318333 132.892919 
L 812.492455 125.128753 
L 835.666576 114.760275 
L 858.840697 101.847128 
L 882.014818 89.830576 
" style="fill:none;stroke:#ff7f0e;stroke-dasharray:14.8,6.4;stroke-dashoffset:0;stroke-width:4;"/>
    <defs>
     <path d="M 0 4.5 
C 1.193414 4.5 2.338109 4.025852 3.181981 3.181981 
C 4.025852 2.338109 4.5 1.193414 4.5 0 
C 4.5 -1.193414 4.025852 -2.338109 3.181981 -3.181981 
C 2.338109 -4.025852 1.193414 -4.5 0 -4.5 
C -1.193414 -4.5 -2.338109 -4.025852 -3.181981 -3.181981 
C -4.025852 -2.338109 -4.5 -1.193414 -4.5 0 
C -4.5 1.193414 -4.025852 2.338109 -3.181981 3.181981 
C -2.338109 4.025852 -1.193414 4.5 0 4.5 
z
" id="mda068e1411" style="stroke:#ff7f0e;"/>
    </defs>
    <g clip-path="url(#p8e19c11776)">
     <use style="fill:#ff7f0e;stroke:#ff7f0e;" x="186.791182" xlink:href="#mda068e1411" y="159.817089"/>
     <use style="fill:#ff7f0e;stroke:#ff7f0e;" x="209.965303" xlink:href="#mda068e1411" y="158.592491"/>
     <use style="fill:#ff7f0e;stroke:#ff7f0e;" x="233.139424" xlink:href="#mda068e1411" y="157.320412"/>
     <use style="fill:#ff7f0e;stroke:#ff7f0e;" x="256.313545" xlink:href="#mda068e1411" y="156.172888"/>
     <use style="fill:#ff7f0e;stroke:#ff7f0e;" x="279.487667" xlink:href="#mda068e1411" y="155.268163"/>
     <use style="fill:#ff7f0e;stroke:#ff7f0e;" x="302.661788" xlink:href="#mda068e1411" y="154.678333"/>
     <use style="fill:#ff7f0e;stroke:#ff7f0e;" x="325.835909" xlink:href="#mda068e1411" y="154.44242"/>
     <use style="fill:#ff7f0e;stroke:#ff7f0e;" x="349.01003" xlink:href="#mda068e1411" y="154.57773"/>
     <use style="fill:#ff7f0e;stroke:#ff7f0e;" x="372.184152" xlink:href="#mda068e1411" y="155.086619"/>
     <use style="fill:#ff7f0e;stroke:#ff7f0e;" x="395.358273" xlink:href="#mda068e1411" y="155.957886"/>
     <use style="fill:#ff7f0e;stroke:#ff7f0e;" x="418.532394" xlink:href="#mda068e1411" y="157.16266"/>
     <use style="fill:#ff7f0e;stroke:#ff7f0e;" x="441.706515" xlink:href="#mda068e1411" y="158.64491"/>
     <use style="fill:#ff7f0e;stroke:#ff7f0e;" x="464.880636" xlink:href="#mda068e1411" y="160.307844"/>
     <use style="fill:#ff7f0e;stroke:#ff7f0e;" x="488.054758" xlink:href="#mda068e1411" y="162.000304"/>
     <use style="fill:#ff7f0e;stroke:#ff7f0e;" x="511.228879" xlink:href="#mda068e1411" y="163.512127"/>
     <use style="fill:#ff7f0e;stroke:#ff7f0e;" x="534.403" xlink:href="#mda068e1411" y="164.591265"/>
     <use style="fill:#ff7f0e;stroke:#ff7f0e;" x="557.577121" xlink:href="#mda068e1411" y="164.991386"/>
     <use style="fill:#ff7f0e;stroke:#ff7f0e;" x="580.751242" xlink:href="#mda068e1411" y="164.540424"/>
     <use style="fill:#ff7f0e;stroke:#ff7f0e;" x="603.925364" xlink:href="#mda068e1411" y="163.196669"/>
     <use style="fill:#ff7f0e;stroke:#ff7f0e;" x="627.099485" xlink:href="#mda068e1411" y="161.055087"/>
     <use style="fill:#ff7f0e;stroke:#ff7f0e;" x="650.273606" xlink:href="#mda068e1411" y="158.29622"/>
     <use style="fill:#ff7f0e;stroke:#ff7f0e;" x="673.447727" xlink:href="#mda068e1411" y="155.107336"/>
     <use style="fill:#ff7f0e;stroke:#ff7f0e;" x="696.621848" xlink:href="#mda068e1411" y="151.613724"/>
     <use style="fill:#ff7f0e;stroke:#ff7f0e;" x="719.79597" xlink:href="#mda068e1411" y="147.836281"/>
     <use style="fill:#ff7f0e;stroke:#ff7f0e;" x="742.970091" xlink:href="#mda068e1411" y="143.66656"/>
     <use style="fill:#ff7f0e;stroke:#ff7f0e;" x="766.144212" xlink:href="#mda068e1411" y="138.839874"/>
     <use style="fill:#ff7f0e;stroke:#ff7f0e;" x="789.318333" xlink:href="#mda068e1411" y="132.892919"/>
     <use style="fill:#ff7f0e;stroke:#ff7f0e;" x="812.492455" xlink:href="#mda068e1411" y="125.128753"/>
     <use style="fill:#ff7f0e;stroke:#ff7f0e;" x="835.666576" xlink:href="#mda068e1411" y="114.760275"/>
     <use style="fill:#ff7f0e;stroke:#ff7f0e;" x="858.840697" xlink:href="#mda068e1411" y="101.847128"/>
     <use style="fill:#ff7f0e;stroke:#ff7f0e;" x="882.014818" xlink:href="#mda068e1411" y="89.830576"/>
    </g>
   </g>
   <g id="patch_3">
    <path d="M 152.03 588.04 
L 152.03 43.2 
" style="fill:none;stroke:#000000;stroke-linecap:square;stroke-linejoin:miter;stroke-width:0.8;"/>
   </g>
   <g id="patch_4">
    <path d="M 916.776 588.04 
L 916.776 43.2 
" style="fill:none;stroke:#000000;stroke-linecap:square;stroke-linejoin:miter;stroke-width:0.8;"/>
   </g>
   <g id="patch_5">
    <path d="M 152.03 588.04 
L 916.776 588.04 
" style="fill:none;stroke:#000000;stroke-linecap:square;stroke-linejoin:miter;stroke-width:0.8;"/>
   </g>
   <g id="patch_6">
    <path d="M 152.03 43.2 
L 916.776 43.2 
" style="fill:none;stroke:#000000;stroke-linecap:square;stroke-linejoin:miter;stroke-width:0.8;"/>
   </g>
   <g id="legend_1">
    <g id="patch_7">
     <path d="M 180.03 568.04 
L 614.82375 568.04 
Q 622.82375 568.04 622.82375 560.04 
L 622.82375 446.615 
Q 622.82375 438.615 614.82375 438.615 
L 180.03 438.615 
Q 172.03 438.615 172.03 446.615 
L 172.03 560.04 
Q 172.03 568.04 180.03 568.04 
z
" style="fill:#ffffff;opacity:0.8;stroke:#cccccc;stroke-linejoin:miter;"/>
    </g>
    <g id="line2d_35">
     <path d="M 188.03 471.00875 
L 268.03 471.00875 
" style="fill:none;stroke:#1f77b4;stroke-linecap:square;stroke-width:4;"/>
    </g>
    <g id="line2d_36"/>
    <g id="text_12">
     <!-- c1 angular rate -->
     <defs>
      <path d="M 48.78125 52.59375 
L 48.78125 44.1875 
Q 44.96875 46.296875 41.140625 47.34375 
Q 37.3125 48.390625 33.40625 48.390625 
Q 24.65625 48.390625 19.8125 42.84375 
Q 14.984375 37.3125 14.984375 27.296875 
Q 14.984375 17.28125 19.8125 11.734375 
Q 24.65625 6.203125 33.40625 6.203125 
Q 37.3125 6.203125 41.140625 7.25 
Q 44.96875 8.296875 48.78125 10.40625 
L 48.78125 2.09375 
Q 45.015625 0.34375 40.984375 -0.53125 
Q 36.96875 -1.421875 32.421875 -1.421875 
Q 20.0625 -1.421875 12.78125 6.34375 
Q 5.515625 14.109375 5.515625 27.296875 
Q 5.515625 40.671875 12.859375 48.328125 
Q 20.21875 56 33.015625 56 
Q 37.15625 56 41.109375 55.140625 
Q 45.0625 54.296875 48.78125 52.59375 
z
" id="DejaVuSans-99"/>
     </defs>
     <g transform="translate(300.03 485.00875)scale(0.4 -0.4)">
      <use xlink:href="#DejaVuSans-99"/>
      <use x="54.980469" xlink:href="#DejaVuSans-49"/>
      <use x="118.603516" xlink:href="#DejaVuSans-32"/>
      <use x="150.390625" xlink:href="#DejaVuSans-97"/>
      <use x="211.669922" xlink:href="#DejaVuSans-110"/>
      <use x="275.048828" xlink:href="#DejaVuSans-103"/>
      <use x="338.525391" xlink:href="#DejaVuSans-117"/>
      <use x="401.904297" xlink:href="#DejaVuSans-108"/>
      <use x="429.6875" xlink:href="#DejaVuSans-97"/>
      <use x="490.966797" xlink:href="#DejaVuSans-114"/>
      <use x="532.080078" xlink:href="#DejaVuSans-32"/>
      <use x="563.867188" xlink:href="#DejaVuSans-114"/>
      <use x="604.980469" xlink:href="#DejaVuSans-97"/>
      <use x="666.259766" xlink:href="#DejaVuSans-116"/>
      <use x="705.46875" xlink:href="#DejaVuSans-101"/>
     </g>
    </g>
    <g id="line2d_37">
     <path d="M 188.03 529.72125 
L 268.03 529.72125 
" style="fill:none;stroke:#ff7f0e;stroke-linecap:square;stroke-width:4;"/>
    </g>
    <g id="line2d_38"/>
    <g id="text_13">
     <!-- c2 angular rate -->
     <g transform="translate(300.03 543.72125)scale(0.4 -0.4)">
      <use xlink:href="#DejaVuSans-99"/>
      <use x="54.980469" xlink:href="#DejaVuSans-50"/>
      <use x="118.603516" xlink:href="#DejaVuSans-32"/>
      <use x="150.390625" xlink:href="#DejaVuSans-97"/>
      <use x="211.669922" xlink:href="#DejaVuSans-110"/>
      <use x="275.048828" xlink:href="#DejaVuSans-103"/>
      <use x="338.525391" xlink:href="#DejaVuSans-117"/>
      <use x="401.904297" xlink:href="#DejaVuSans-108"/>
      <use x="429.6875" xlink:href="#DejaVuSans-97"/>
      <use x="490.966797" xlink:href="#DejaVuSans-114"/>
      <use x="532.080078" xlink:href="#DejaVuSans-32"/>
      <use x="563.867188" xlink:href="#DejaVuSans-114"/>
      <use x="604.980469" xlink:href="#DejaVuSans-97"/>
      <use x="666.259766" xlink:href="#DejaVuSans-116"/>
      <use x="705.46875" xlink:href="#DejaVuSans-101"/>
     </g>
    </g>
   </g>
  </g>
 </g>
 <defs>
  <clipPath id="p8e19c11776">
   <rect height="544.84" width="764.746" x="152.03" y="43.2"/>
  </clipPath>
 </defs>
</svg>
