<?xml version="1.0" encoding="utf-8" standalone="no"?>
<!DOCTYPE svg PUBLIC "-//W3C//DTD SVG 1.1//EN"
  "http://www.w3.org/Graphics/SVG/1.1/DTD/svg11.dtd">
<!-- Created with matplotlib (https://matplotlib.org/) -->
<svg height="688.32pt" version="1.1" viewBox="0 0 1056.24 688.32" width="1056.24pt" xmlns="http://www.w3.org/2000/svg" xmlns:xlink="http://www.w3.org/1999/xlink">
 <defs>
  <style type="text/css">
*{stroke-linecap:butt;stroke-linejoin:round;}
  </style>
 </defs>
 <g id="figure_1">
  <g id="patch_1">
   <path d="M 0 688.32 
L 1056.24 688.32 
L 1056.24 0 
L 0 0 
z
" style="fill:#ffffff;"/>
  </g>
  <g id="axes_1">
   <g id="patch_2">
    <path d="M 195.4044 607.78656 
L 1012.93416 607.78656 
L 1012.93416 17.89632 
L 195.4044 17.89632 
z
" style="fill:#ffffff;"/>
   </g>
   <g id="matplotlib.axis_1">
    <g id="xtick_1">
     <g id="line2d_1">
      <defs>
       <path d="M 0 0 
L 0 3.5 
" id="m542f8cd665" style="stroke:#000000;stroke-width:0.8;"/>
      </defs>
      <g>
       <use style="stroke:#000000;stroke-width:0.8;" x="277.157376" xlink:href="#m542f8cd665" y="607.78656"/>
      </g>
     </g>
     <g id="text_1">
      <!-- 0 -->
      <defs>
       <path d="M 31.78125 66.40625 
Q 24.171875 66.40625 20.328125 58.90625 
Q 16.5 51.421875 16.5 36.375 
Q 16.5 21.390625 20.328125 13.890625 
Q 24.171875 6.390625 31.78125 6.390625 
Q 39.453125 6.390625 43.28125 13.890625 
Q 47.125 21.390625 47.125 36.375 
Q 47.125 51.421875 43.28125 58.90625 
Q 39.453125 66.40625 31.78125 66.40625 
z
M 31.78125 74.21875 
Q 44.046875 74.21875 50.515625 64.515625 
Q 56.984375 54.828125 56.984375 36.375 
Q 56.984375 17.96875 50.515625 8.265625 
Q 44.046875 -1.421875 31.78125 -1.421875 
Q 19.53125 -1.421875 13.0625 8.265625 
Q 6.59375 17.96875 6.59375 36.375 
Q 6.59375 54.828125 13.0625 64.515625 
Q 19.53125 74.21875 31.78125 74.21875 
z
" id="DejaVuSans-48"/>
      </defs>
      <g transform="translate(264.432376 645.18031)scale(0.4 -0.4)">
       <use xlink:href="#DejaVuSans-48"/>
      </g>
     </g>
    </g>
    <g id="xtick_2">
     <g id="line2d_2">
      <g>
       <use style="stroke:#000000;stroke-width:0.8;" x="440.663328" xlink:href="#m542f8cd665" y="607.78656"/>
      </g>
     </g>
     <g id="text_2">
      <!-- 2 -->
      <defs>
       <path d="M 19.1875 8.296875 
L 53.609375 8.296875 
L 53.609375 0 
L 7.328125 0 
L 7.328125 8.296875 
Q 12.9375 14.109375 22.625 23.890625 
Q 32.328125 33.6875 34.8125 36.53125 
Q 39.546875 41.84375 41.421875 45.53125 
Q 43.3125 49.21875 43.3125 52.78125 
Q 43.3125 58.59375 39.234375 62.25 
Q 35.15625 65.921875 28.609375 65.921875 
Q 23.96875 65.921875 18.8125 64.3125 
Q 13.671875 62.703125 7.8125 59.421875 
L 7.8125 69.390625 
Q 13.765625 71.78125 18.9375 73 
Q 24.125 74.21875 28.421875 74.21875 
Q 39.75 74.21875 46.484375 68.546875 
Q 53.21875 62.890625 53.21875 53.421875 
Q 53.21875 48.921875 51.53125 44.890625 
Q 49.859375 40.875 45.40625 35.40625 
Q 44.1875 33.984375 37.640625 27.21875 
Q 31.109375 20.453125 19.1875 8.296875 
z
" id="DejaVuSans-50"/>
      </defs>
      <g transform="translate(427.938328 645.18031)scale(0.4 -0.4)">
       <use xlink:href="#DejaVuSans-50"/>
      </g>
     </g>
    </g>
    <g id="xtick_3">
     <g id="line2d_3">
      <g>
       <use style="stroke:#000000;stroke-width:0.8;" x="604.16928" xlink:href="#m542f8cd665" y="607.78656"/>
      </g>
     </g>
     <g id="text_3">
      <!-- 4 -->
      <defs>
       <path d="M 37.796875 64.3125 
L 12.890625 25.390625 
L 37.796875 25.390625 
z
M 35.203125 72.90625 
L 47.609375 72.90625 
L 47.609375 25.390625 
L 58.015625 25.390625 
L 58.015625 17.1875 
L 47.609375 17.1875 
L 47.609375 0 
L 37.796875 0 
L 37.796875 17.1875 
L 4.890625 17.1875 
L 4.890625 26.703125 
z
" id="DejaVuSans-52"/>
      </defs>
      <g transform="translate(591.44428 645.18031)scale(0.4 -0.4)">
       <use xlink:href="#DejaVuSans-52"/>
      </g>
     </g>
    </g>
    <g id="xtick_4">
     <g id="line2d_4">
      <g>
       <use style="stroke:#000000;stroke-width:0.8;" x="767.675232" xlink:href="#m542f8cd665" y="607.78656"/>
      </g>
     </g>
     <g id="text_4">
      <!-- 6 -->
      <defs>
       <path d="M 33.015625 40.375 
Q 26.375 40.375 22.484375 35.828125 
Q 18.609375 31.296875 18.609375 23.390625 
Q 18.609375 15.53125 22.484375 10.953125 
Q 26.375 6.390625 33.015625 6.390625 
Q 39.65625 6.390625 43.53125 10.953125 
Q 47.40625 15.53125 47.40625 23.390625 
Q 47.40625 31.296875 43.53125 35.828125 
Q 39.65625 40.375 33.015625 40.375 
z
M 52.59375 71.296875 
L 52.59375 62.3125 
Q 48.875 64.0625 45.09375 64.984375 
Q 41.3125 65.921875 37.59375 65.921875 
Q 27.828125 65.921875 22.671875 59.328125 
Q 17.53125 52.734375 16.796875 39.40625 
Q 19.671875 43.65625 24.015625 45.921875 
Q 28.375 48.1875 33.59375 48.1875 
Q 44.578125 48.1875 50.953125 41.515625 
Q 57.328125 34.859375 57.328125 23.390625 
Q 57.328125 12.15625 50.6875 5.359375 
Q 44.046875 -1.421875 33.015625 -1.421875 
Q 20.359375 -1.421875 13.671875 8.265625 
Q 6.984375 17.96875 6.984375 36.375 
Q 6.984375 53.65625 15.1875 63.9375 
Q 23.390625 74.21875 37.203125 74.21875 
Q 40.921875 74.21875 44.703125 73.484375 
Q 48.484375 72.75 52.59375 71.296875 
z
" id="DejaVuSans-54"/>
      </defs>
      <g transform="translate(754.950232 645.18031)scale(0.4 -0.4)">
       <use xlink:href="#DejaVuSans-54"/>
      </g>
     </g>
    </g>
    <g id="xtick_5">
     <g id="line2d_5">
      <g>
       <use style="stroke:#000000;stroke-width:0.8;" x="931.181184" xlink:href="#m542f8cd665" y="607.78656"/>
      </g>
     </g>
     <g id="text_5">
      <!-- 8 -->
      <defs>
       <path d="M 31.78125 34.625 
Q 24.75 34.625 20.71875 30.859375 
Q 16.703125 27.09375 16.703125 20.515625 
Q 16.703125 13.921875 20.71875 10.15625 
Q 24.75 6.390625 31.78125 6.390625 
Q 38.8125 6.390625 42.859375 10.171875 
Q 46.921875 13.96875 46.921875 20.515625 
Q 46.921875 27.09375 42.890625 30.859375 
Q 38.875 34.625 31.78125 34.625 
z
M 21.921875 38.8125 
Q 15.578125 40.375 12.03125 44.71875 
Q 8.5 49.078125 8.5 55.328125 
Q 8.5 64.0625 14.71875 69.140625 
Q 20.953125 74.21875 31.78125 74.21875 
Q 42.671875 74.21875 48.875 69.140625 
Q 55.078125 64.0625 55.078125 55.328125 
Q 55.078125 49.078125 51.53125 44.71875 
Q 48 40.375 41.703125 38.8125 
Q 48.828125 37.15625 52.796875 32.3125 
Q 56.78125 27.484375 56.78125 20.515625 
Q 56.78125 9.90625 50.3125 4.234375 
Q 43.84375 -1.421875 31.78125 -1.421875 
Q 19.734375 -1.421875 13.25 4.234375 
Q 6.78125 9.90625 6.78125 20.515625 
Q 6.78125 27.484375 10.78125 32.3125 
Q 14.796875 37.15625 21.921875 38.8125 
z
M 18.3125 54.390625 
Q 18.3125 48.734375 21.84375 45.5625 
Q 25.390625 42.390625 31.78125 42.390625 
Q 38.140625 42.390625 41.71875 45.5625 
Q 45.3125 48.734375 45.3125 54.390625 
Q 45.3125 60.0625 41.71875 63.234375 
Q 38.140625 66.40625 31.78125 66.40625 
Q 25.390625 66.40625 21.84375 63.234375 
Q 18.3125 60.0625 18.3125 54.390625 
z
" id="DejaVuSans-56"/>
      </defs>
      <g transform="translate(918.456184 645.18031)scale(0.4 -0.4)">
       <use xlink:href="#DejaVuSans-56"/>
      </g>
     </g>
    </g>
    <g id="text_6">
     <!-- Time -->
     <defs>
      <path d="M -0.296875 72.90625 
L 61.375 72.90625 
L 61.375 64.59375 
L 35.5 64.59375 
L 35.5 0 
L 25.59375 0 
L 25.59375 64.59375 
L -0.296875 64.59375 
z
" id="DejaVuSans-84"/>
      <path d="M 9.421875 54.6875 
L 18.40625 54.6875 
L 18.40625 0 
L 9.421875 0 
z
M 9.421875 75.984375 
L 18.40625 75.984375 
L 18.40625 64.59375 
L 9.421875 64.59375 
z
" id="DejaVuSans-105"/>
      <path d="M 52 44.1875 
Q 55.375 50.25 60.0625 53.125 
Q 64.75 56 71.09375 56 
Q 79.640625 56 84.28125 50.015625 
Q 88.921875 44.046875 88.921875 33.015625 
L 88.921875 0 
L 79.890625 0 
L 79.890625 32.71875 
Q 79.890625 40.578125 77.09375 44.375 
Q 74.3125 48.1875 68.609375 48.1875 
Q 61.625 48.1875 57.5625 43.546875 
Q 53.515625 38.921875 53.515625 30.90625 
L 53.515625 0 
L 44.484375 0 
L 44.484375 32.71875 
Q 44.484375 40.625 41.703125 44.40625 
Q 38.921875 48.1875 33.109375 48.1875 
Q 26.21875 48.1875 22.15625 43.53125 
Q 18.109375 38.875 18.109375 30.90625 
L 18.109375 0 
L 9.078125 0 
L 9.078125 54.6875 
L 18.109375 54.6875 
L 18.109375 46.1875 
Q 21.1875 51.21875 25.484375 53.609375 
Q 29.78125 56 35.6875 56 
Q 41.65625 56 45.828125 52.96875 
Q 50 49.953125 52 44.1875 
z
" id="DejaVuSans-109"/>
      <path d="M 56.203125 29.59375 
L 56.203125 25.203125 
L 14.890625 25.203125 
Q 15.484375 15.921875 20.484375 11.0625 
Q 25.484375 6.203125 34.421875 6.203125 
Q 39.59375 6.203125 44.453125 7.46875 
Q 49.3125 8.734375 54.109375 11.28125 
L 54.109375 2.78125 
Q 49.265625 0.734375 44.1875 -0.34375 
Q 39.109375 -1.421875 33.890625 -1.421875 
Q 20.796875 -1.421875 13.15625 6.1875 
Q 5.515625 13.8125 5.515625 26.8125 
Q 5.515625 40.234375 12.765625 48.109375 
Q 20.015625 56 32.328125 56 
Q 43.359375 56 49.78125 48.890625 
Q 56.203125 41.796875 56.203125 29.59375 
z
M 47.21875 32.234375 
Q 47.125 39.59375 43.09375 43.984375 
Q 39.0625 48.390625 32.421875 48.390625 
Q 24.90625 48.390625 20.390625 44.140625 
Q 15.875 39.890625 15.1875 32.171875 
z
" id="DejaVuSans-101"/>
     </defs>
     <g transform="translate(555.234905 687.89281)scale(0.4 -0.4)">
      <use xlink:href="#DejaVuSans-84"/>
      <use x="57.958984" xlink:href="#DejaVuSans-105"/>
      <use x="85.742188" xlink:href="#DejaVuSans-109"/>
      <use x="183.154297" xlink:href="#DejaVuSans-101"/>
     </g>
    </g>
   </g>
   <g id="matplotlib.axis_2">
    <g id="ytick_1">
     <g id="line2d_6">
      <defs>
       <path d="M 0 0 
L -3.5 0 
" id="m935880dd37" style="stroke:#000000;stroke-width:0.8;"/>
      </defs>
      <g>
       <use style="stroke:#000000;stroke-width:0.8;" x="195.4044" xlink:href="#m935880dd37" y="581.198506"/>
      </g>
     </g>
     <g id="text_7">
      <!-- 0 -->
      <g transform="translate(162.9544 596.395381)scale(0.4 -0.4)">
       <use xlink:href="#DejaVuSans-48"/>
      </g>
     </g>
    </g>
    <g id="ytick_2">
     <g id="line2d_7">
      <g>
       <use style="stroke:#000000;stroke-width:0.8;" x="195.4044" xlink:href="#m935880dd37" y="468.62936"/>
      </g>
     </g>
     <g id="text_8">
      <!-- 500 -->
      <defs>
       <path d="M 10.796875 72.90625 
L 49.515625 72.90625 
L 49.515625 64.59375 
L 19.828125 64.59375 
L 19.828125 46.734375 
Q 21.96875 47.46875 24.109375 47.828125 
Q 26.265625 48.1875 28.421875 48.1875 
Q 40.625 48.1875 47.75 41.5 
Q 54.890625 34.8125 54.890625 23.390625 
Q 54.890625 11.625 47.5625 5.09375 
Q 40.234375 -1.421875 26.90625 -1.421875 
Q 22.3125 -1.421875 17.546875 -0.640625 
Q 12.796875 0.140625 7.71875 1.703125 
L 7.71875 11.625 
Q 12.109375 9.234375 16.796875 8.0625 
Q 21.484375 6.890625 26.703125 6.890625 
Q 35.15625 6.890625 40.078125 11.328125 
Q 45.015625 15.765625 45.015625 23.390625 
Q 45.015625 31 40.078125 35.4375 
Q 35.15625 39.890625 26.703125 39.890625 
Q 22.75 39.890625 18.8125 39.015625 
Q 14.890625 38.140625 10.796875 36.28125 
z
" id="DejaVuSans-53"/>
      </defs>
      <g transform="translate(112.0544 483.826235)scale(0.4 -0.4)">
       <use xlink:href="#DejaVuSans-53"/>
       <use x="63.623047" xlink:href="#DejaVuSans-48"/>
       <use x="127.246094" xlink:href="#DejaVuSans-48"/>
      </g>
     </g>
    </g>
    <g id="ytick_3">
     <g id="line2d_8">
      <g>
       <use style="stroke:#000000;stroke-width:0.8;" x="195.4044" xlink:href="#m935880dd37" y="356.060214"/>
      </g>
     </g>
     <g id="text_9">
      <!-- 1000 -->
      <defs>
       <path d="M 12.40625 8.296875 
L 28.515625 8.296875 
L 28.515625 63.921875 
L 10.984375 60.40625 
L 10.984375 69.390625 
L 28.421875 72.90625 
L 38.28125 72.90625 
L 38.28125 8.296875 
L 54.390625 8.296875 
L 54.390625 0 
L 12.40625 0 
z
" id="DejaVuSans-49"/>
      </defs>
      <g transform="translate(86.6044 371.257089)scale(0.4 -0.4)">
       <use xlink:href="#DejaVuSans-49"/>
       <use x="63.623047" xlink:href="#DejaVuSans-48"/>
       <use x="127.246094" xlink:href="#DejaVuSans-48"/>
       <use x="190.869141" xlink:href="#DejaVuSans-48"/>
      </g>
     </g>
    </g>
    <g id="ytick_4">
     <g id="line2d_9">
      <g>
       <use style="stroke:#000000;stroke-width:0.8;" x="195.4044" xlink:href="#m935880dd37" y="243.491068"/>
      </g>
     </g>
     <g id="text_10">
      <!-- 1500 -->
      <g transform="translate(86.6044 258.687943)scale(0.4 -0.4)">
       <use xlink:href="#DejaVuSans-49"/>
       <use x="63.623047" xlink:href="#DejaVuSans-53"/>
       <use x="127.246094" xlink:href="#DejaVuSans-48"/>
       <use x="190.869141" xlink:href="#DejaVuSans-48"/>
      </g>
     </g>
    </g>
    <g id="ytick_5">
     <g id="line2d_10">
      <g>
       <use style="stroke:#000000;stroke-width:0.8;" x="195.4044" xlink:href="#m935880dd37" y="130.921922"/>
      </g>
     </g>
     <g id="text_11">
      <!-- 2000 -->
      <g transform="translate(86.6044 146.118797)scale(0.4 -0.4)">
       <use xlink:href="#DejaVuSans-50"/>
       <use x="63.623047" xlink:href="#DejaVuSans-48"/>
       <use x="127.246094" xlink:href="#DejaVuSans-48"/>
       <use x="190.869141" xlink:href="#DejaVuSans-48"/>
      </g>
     </g>
    </g>
    <g id="ytick_6">
     <g id="line2d_11">
      <g>
       <use style="stroke:#000000;stroke-width:0.8;" x="195.4044" xlink:href="#m935880dd37" y="18.352777"/>
      </g>
     </g>
     <g id="text_12">
      <!-- 2500 -->
      <g transform="translate(86.6044 33.549652)scale(0.4 -0.4)">
       <use xlink:href="#DejaVuSans-50"/>
       <use x="63.623047" xlink:href="#DejaVuSans-53"/>
       <use x="127.246094" xlink:href="#DejaVuSans-48"/>
       <use x="190.869141" xlink:href="#DejaVuSans-48"/>
      </g>
     </g>
    </g>
    <g id="text_13">
     <!-- Squared Euclidean Distance -->
     <defs>
      <path d="M 53.515625 70.515625 
L 53.515625 60.890625 
Q 47.90625 63.578125 42.921875 64.890625 
Q 37.9375 66.21875 33.296875 66.21875 
Q 25.25 66.21875 20.875 63.09375 
Q 16.5 59.96875 16.5 54.203125 
Q 16.5 49.359375 19.40625 46.890625 
Q 22.3125 44.4375 30.421875 42.921875 
L 36.375 41.703125 
Q 47.40625 39.59375 52.65625 34.296875 
Q 57.90625 29 57.90625 20.125 
Q 57.90625 9.515625 50.796875 4.046875 
Q 43.703125 -1.421875 29.984375 -1.421875 
Q 24.8125 -1.421875 18.96875 -0.25 
Q 13.140625 0.921875 6.890625 3.21875 
L 6.890625 13.375 
Q 12.890625 10.015625 18.65625 8.296875 
Q 24.421875 6.59375 29.984375 6.59375 
Q 38.421875 6.59375 43.015625 9.90625 
Q 47.609375 13.234375 47.609375 19.390625 
Q 47.609375 24.75 44.3125 27.78125 
Q 41.015625 30.8125 33.5 32.328125 
L 27.484375 33.5 
Q 16.453125 35.6875 11.515625 40.375 
Q 6.59375 45.0625 6.59375 53.421875 
Q 6.59375 63.09375 13.40625 68.65625 
Q 20.21875 74.21875 32.171875 74.21875 
Q 37.3125 74.21875 42.625 73.28125 
Q 47.953125 72.359375 53.515625 70.515625 
z
" id="DejaVuSans-83"/>
      <path d="M 14.796875 27.296875 
Q 14.796875 17.390625 18.875 11.75 
Q 22.953125 6.109375 30.078125 6.109375 
Q 37.203125 6.109375 41.296875 11.75 
Q 45.40625 17.390625 45.40625 27.296875 
Q 45.40625 37.203125 41.296875 42.84375 
Q 37.203125 48.484375 30.078125 48.484375 
Q 22.953125 48.484375 18.875 42.84375 
Q 14.796875 37.203125 14.796875 27.296875 
z
M 45.40625 8.203125 
Q 42.578125 3.328125 38.25 0.953125 
Q 33.9375 -1.421875 27.875 -1.421875 
Q 17.96875 -1.421875 11.734375 6.484375 
Q 5.515625 14.40625 5.515625 27.296875 
Q 5.515625 40.1875 11.734375 48.09375 
Q 17.96875 56 27.875 56 
Q 33.9375 56 38.25 53.625 
Q 42.578125 51.265625 45.40625 46.390625 
L 45.40625 54.6875 
L 54.390625 54.6875 
L 54.390625 -20.796875 
L 45.40625 -20.796875 
z
" id="DejaVuSans-113"/>
      <path d="M 8.5 21.578125 
L 8.5 54.6875 
L 17.484375 54.6875 
L 17.484375 21.921875 
Q 17.484375 14.15625 20.5 10.265625 
Q 23.53125 6.390625 29.59375 6.390625 
Q 36.859375 6.390625 41.078125 11.03125 
Q 45.3125 15.671875 45.3125 23.6875 
L 45.3125 54.6875 
L 54.296875 54.6875 
L 54.296875 0 
L 45.3125 0 
L 45.3125 8.40625 
Q 42.046875 3.421875 37.71875 1 
Q 33.40625 -1.421875 27.6875 -1.421875 
Q 18.265625 -1.421875 13.375 4.4375 
Q 8.5 10.296875 8.5 21.578125 
z
M 31.109375 56 
z
" id="DejaVuSans-117"/>
      <path d="M 34.28125 27.484375 
Q 23.390625 27.484375 19.1875 25 
Q 14.984375 22.515625 14.984375 16.5 
Q 14.984375 11.71875 18.140625 8.90625 
Q 21.296875 6.109375 26.703125 6.109375 
Q 34.1875 6.109375 38.703125 11.40625 
Q 43.21875 16.703125 43.21875 25.484375 
L 43.21875 27.484375 
z
M 52.203125 31.203125 
L 52.203125 0 
L 43.21875 0 
L 43.21875 8.296875 
Q 40.140625 3.328125 35.546875 0.953125 
Q 30.953125 -1.421875 24.3125 -1.421875 
Q 15.921875 -1.421875 10.953125 3.296875 
Q 6 8.015625 6 15.921875 
Q 6 25.140625 12.171875 29.828125 
Q 18.359375 34.515625 30.609375 34.515625 
L 43.21875 34.515625 
L 43.21875 35.40625 
Q 43.21875 41.609375 39.140625 45 
Q 35.0625 48.390625 27.6875 48.390625 
Q 23 48.390625 18.546875 47.265625 
Q 14.109375 46.140625 10.015625 43.890625 
L 10.015625 52.203125 
Q 14.9375 54.109375 19.578125 55.046875 
Q 24.21875 56 28.609375 56 
Q 40.484375 56 46.34375 49.84375 
Q 52.203125 43.703125 52.203125 31.203125 
z
" id="DejaVuSans-97"/>
      <path d="M 41.109375 46.296875 
Q 39.59375 47.171875 37.8125 47.578125 
Q 36.03125 48 33.890625 48 
Q 26.265625 48 22.1875 43.046875 
Q 18.109375 38.09375 18.109375 28.8125 
L 18.109375 0 
L 9.078125 0 
L 9.078125 54.6875 
L 18.109375 54.6875 
L 18.109375 46.1875 
Q 20.953125 51.171875 25.484375 53.578125 
Q 30.03125 56 36.53125 56 
Q 37.453125 56 38.578125 55.875 
Q 39.703125 55.765625 41.0625 55.515625 
z
" id="DejaVuSans-114"/>
      <path d="M 45.40625 46.390625 
L 45.40625 75.984375 
L 54.390625 75.984375 
L 54.390625 0 
L 45.40625 0 
L 45.40625 8.203125 
Q 42.578125 3.328125 38.25 0.953125 
Q 33.9375 -1.421875 27.875 -1.421875 
Q 17.96875 -1.421875 11.734375 6.484375 
Q 5.515625 14.40625 5.515625 27.296875 
Q 5.515625 40.1875 11.734375 48.09375 
Q 17.96875 56 27.875 56 
Q 33.9375 56 38.25 53.625 
Q 42.578125 51.265625 45.40625 46.390625 
z
M 14.796875 27.296875 
Q 14.796875 17.390625 18.875 11.75 
Q 22.953125 6.109375 30.078125 6.109375 
Q 37.203125 6.109375 41.296875 11.75 
Q 45.40625 17.390625 45.40625 27.296875 
Q 45.40625 37.203125 41.296875 42.84375 
Q 37.203125 48.484375 30.078125 48.484375 
Q 22.953125 48.484375 18.875 42.84375 
Q 14.796875 37.203125 14.796875 27.296875 
z
" id="DejaVuSans-100"/>
      <path id="DejaVuSans-32"/>
      <path d="M 9.8125 72.90625 
L 55.90625 72.90625 
L 55.90625 64.59375 
L 19.671875 64.59375 
L 19.671875 43.015625 
L 54.390625 43.015625 
L 54.390625 34.71875 
L 19.671875 34.71875 
L 19.671875 8.296875 
L 56.78125 8.296875 
L 56.78125 0 
L 9.8125 0 
z
" id="DejaVuSans-69"/>
      <path d="M 48.78125 52.59375 
L 48.78125 44.1875 
Q 44.96875 46.296875 41.140625 47.34375 
Q 37.3125 48.390625 33.40625 48.390625 
Q 24.65625 48.390625 19.8125 42.84375 
Q 14.984375 37.3125 14.984375 27.296875 
Q 14.984375 17.28125 19.8125 11.734375 
Q 24.65625 6.203125 33.40625 6.203125 
Q 37.3125 6.203125 41.140625 7.25 
Q 44.96875 8.296875 48.78125 10.40625 
L 48.78125 2.09375 
Q 45.015625 0.34375 40.984375 -0.53125 
Q 36.96875 -1.421875 32.421875 -1.421875 
Q 20.0625 -1.421875 12.78125 6.34375 
Q 5.515625 14.109375 5.515625 27.296875 
Q 5.515625 40.671875 12.859375 48.328125 
Q 20.21875 56 33.015625 56 
Q 37.15625 56 41.109375 55.140625 
Q 45.0625 54.296875 48.78125 52.59375 
z
" id="DejaVuSans-99"/>
      <path d="M 9.421875 75.984375 
L 18.40625 75.984375 
L 18.40625 0 
L 9.421875 0 
z
" id="DejaVuSans-108"/>
      <path d="M 54.890625 33.015625 
L 54.890625 0 
L 45.90625 0 
L 45.90625 32.71875 
Q 45.90625 40.484375 42.875 44.328125 
Q 39.84375 48.1875 33.796875 48.1875 
Q 26.515625 48.1875 22.3125 43.546875 
Q 18.109375 38.921875 18.109375 30.90625 
L 18.109375 0 
L 9.078125 0 
L 9.078125 54.6875 
L 18.109375 54.6875 
L 18.109375 46.1875 
Q 21.34375 51.125 25.703125 53.5625 
Q 30.078125 56 35.796875 56 
Q 45.21875 56 50.046875 50.171875 
Q 54.890625 44.34375 54.890625 33.015625 
z
" id="DejaVuSans-110"/>
      <path d="M 19.671875 64.796875 
L 19.671875 8.109375 
L 31.59375 8.109375 
Q 46.6875 8.109375 53.6875 14.9375 
Q 60.6875 21.78125 60.6875 36.53125 
Q 60.6875 51.171875 53.6875 57.984375 
Q 46.6875 64.796875 31.59375 64.796875 
z
M 9.8125 72.90625 
L 30.078125 72.90625 
Q 51.265625 72.90625 61.171875 64.09375 
Q 71.09375 55.28125 71.09375 36.53125 
Q 71.09375 17.671875 61.125 8.828125 
Q 51.171875 0 30.078125 0 
L 9.8125 0 
z
" id="DejaVuSans-68"/>
      <path d="M 44.28125 53.078125 
L 44.28125 44.578125 
Q 40.484375 46.53125 36.375 47.5 
Q 32.28125 48.484375 27.875 48.484375 
Q 21.1875 48.484375 17.84375 46.4375 
Q 14.5 44.390625 14.5 40.28125 
Q 14.5 37.15625 16.890625 35.375 
Q 19.28125 33.59375 26.515625 31.984375 
L 29.59375 31.296875 
Q 39.15625 29.25 43.1875 25.515625 
Q 47.21875 21.78125 47.21875 15.09375 
Q 47.21875 7.46875 41.1875 3.015625 
Q 35.15625 -1.421875 24.609375 -1.421875 
Q 20.21875 -1.421875 15.453125 -0.5625 
Q 10.6875 0.296875 5.421875 2 
L 5.421875 11.28125 
Q 10.40625 8.6875 15.234375 7.390625 
Q 20.0625 6.109375 24.8125 6.109375 
Q 31.15625 6.109375 34.5625 8.28125 
Q 37.984375 10.453125 37.984375 14.40625 
Q 37.984375 18.0625 35.515625 20.015625 
Q 33.0625 21.96875 24.703125 23.78125 
L 21.578125 24.515625 
Q 13.234375 26.265625 9.515625 29.90625 
Q 5.8125 33.546875 5.8125 39.890625 
Q 5.8125 47.609375 11.28125 51.796875 
Q 16.75 56 26.8125 56 
Q 31.78125 56 36.171875 55.265625 
Q 40.578125 54.546875 44.28125 53.078125 
z
" id="DejaVuSans-115"/>
      <path d="M 18.3125 70.21875 
L 18.3125 54.6875 
L 36.8125 54.6875 
L 36.8125 47.703125 
L 18.3125 47.703125 
L 18.3125 18.015625 
Q 18.3125 11.328125 20.140625 9.421875 
Q 21.96875 7.515625 27.59375 7.515625 
L 36.8125 7.515625 
L 36.8125 0 
L 27.59375 0 
Q 17.1875 0 13.234375 3.875 
Q 9.28125 7.765625 9.28125 18.015625 
L 9.28125 47.703125 
L 2.6875 47.703125 
L 2.6875 54.6875 
L 9.28125 54.6875 
L 9.28125 70.21875 
z
" id="DejaVuSans-116"/>
     </defs>
     <g transform="translate(74.28565 593.46019)rotate(-90)scale(0.4 -0.4)">
      <use xlink:href="#DejaVuSans-83"/>
      <use x="63.476562" xlink:href="#DejaVuSans-113"/>
      <use x="126.953125" xlink:href="#DejaVuSans-117"/>
      <use x="190.332031" xlink:href="#DejaVuSans-97"/>
      <use x="251.611328" xlink:href="#DejaVuSans-114"/>
      <use x="290.474609" xlink:href="#DejaVuSans-101"/>
      <use x="351.998047" xlink:href="#DejaVuSans-100"/>
      <use x="415.474609" xlink:href="#DejaVuSans-32"/>
      <use x="447.261719" xlink:href="#DejaVuSans-69"/>
      <use x="510.445312" xlink:href="#DejaVuSans-117"/>
      <use x="573.824219" xlink:href="#DejaVuSans-99"/>
      <use x="628.804688" xlink:href="#DejaVuSans-108"/>
      <use x="656.587891" xlink:href="#DejaVuSans-105"/>
      <use x="684.371094" xlink:href="#DejaVuSans-100"/>
      <use x="747.847656" xlink:href="#DejaVuSans-101"/>
      <use x="809.371094" xlink:href="#DejaVuSans-97"/>
      <use x="870.650391" xlink:href="#DejaVuSans-110"/>
      <use x="934.029297" xlink:href="#DejaVuSans-32"/>
      <use x="965.816406" xlink:href="#DejaVuSans-68"/>
      <use x="1042.818359" xlink:href="#DejaVuSans-105"/>
      <use x="1070.601562" xlink:href="#DejaVuSans-115"/>
      <use x="1122.701172" xlink:href="#DejaVuSans-116"/>
      <use x="1161.910156" xlink:href="#DejaVuSans-97"/>
      <use x="1223.189453" xlink:href="#DejaVuSans-110"/>
      <use x="1286.568359" xlink:href="#DejaVuSans-99"/>
      <use x="1341.548828" xlink:href="#DejaVuSans-101"/>
     </g>
    </g>
   </g>
   <g id="line2d_12">
    <path clip-path="url(#pc46be3dc24)" d="M 277.157376 147.510953 
L 280.69184 152.73634 
L 284.579751 158.883407 
L 288.821108 166.015958 
L 293.415912 174.184058 
L 298.717608 184.096352 
L 304.372751 195.145755 
L 311.088233 208.767148 
L 319.217501 225.77505 
L 331.23468 251.491754 
L 353.148358 298.428275 
L 363.398305 319.821353 
L 372.587912 338.498506 
L 381.070626 355.244096 
L 389.199894 370.803937 
L 396.975715 385.21565 
L 404.751537 399.151305 
L 412.173912 412.001643 
L 419.596287 424.407107 
L 427.018662 436.366948 
L 434.08759 447.343799 
L 441.156519 457.91874 
L 448.225447 468.093278 
L 455.294376 477.868442 
L 462.009858 486.785043 
L 468.72534 495.340342 
L 475.440822 503.532076 
L 481.802858 510.953937 
L 488.164894 518.041676 
L 494.526929 524.78948 
L 500.535519 530.843855 
L 506.544108 536.581591 
L 512.199251 541.685407 
L 517.854394 546.494317 
L 523.509537 551.000467 
L 528.811233 554.942711 
L 534.112929 558.604729 
L 539.061179 561.763724 
L 544.009429 564.667215 
L 548.957679 567.310122 
L 553.905929 569.687865 
L 558.500733 571.654925 
L 563.095537 573.387553 
L 567.69034 574.884131 
L 572.285144 576.144013 
L 576.879947 577.167693 
L 581.474751 577.956968 
L 586.069554 578.51512 
L 590.664358 578.847083 
L 595.259162 578.959612 
L 599.853965 578.861454 
L 604.802215 578.532654 
L 610.103912 577.942131 
L 615.405608 577.129153 
L 621.414197 575.975534 
L 628.129679 574.452764 
L 630.603804 573.84445 
L 630.603804 573.84445 
" style="fill:none;stroke:#1f77b4;stroke-linecap:square;stroke-width:4;"/>
   </g>
   <g id="line2d_13">
    <path clip-path="url(#pc46be3dc24)" d="M 277.157376 418.787639 
L 281.904763 418.895998 
L 286.652151 419.215621 
L 291.738637 419.782781 
L 296.825124 420.571471 
L 302.25071 421.6436 
L 307.676295 422.939218 
L 313.44098 424.54289 
L 319.544764 426.474096 
L 325.987647 428.745911 
L 333.108728 431.499753 
L 340.908007 434.759892 
L 350.063683 438.837477 
L 362.27125 444.539652 
L 387.703683 456.486281 
L 397.198458 460.668457 
L 405.336836 464.024692 
L 412.797017 466.871449 
L 419.918098 469.352047 
L 426.70008 471.476139 
L 433.142963 473.261721 
L 439.246746 474.732893 
L 445.35053 475.98128 
L 451.454314 477.001282 
L 457.558098 477.789871 
L 463.661882 478.346596 
L 469.765666 478.673568 
L 475.869449 478.775421 
L 481.973233 478.659245 
L 488.416116 478.310556 
L 494.858999 477.74332 
L 501.640981 476.928223 
L 509.101161 475.799344 
L 516.900441 474.39382 
L 525.717017 472.579224 
L 536.568189 470.10992 
L 574.886387 461.164588 
L 583.702964 459.464977 
L 591.502243 458.184965 
L 598.623324 457.2333 
L 605.405306 456.543699 
L 611.848189 456.101901 
L 616.256477 455.926434 
L 616.256477 455.926434 
" style="fill:none;stroke:#ff7f0e;stroke-linecap:square;stroke-width:4;"/>
   </g>
   <g id="line2d_14">
    <path clip-path="url(#pc46be3dc24)" d="M 277.157376 525.259243 
L 283.15884 525.373415 
L 288.910244 525.701293 
L 294.661647 526.246837 
L 300.413051 527.01087 
L 306.414515 528.038663 
L 312.415979 529.295896 
L 318.667505 530.838957 
L 325.169091 532.680234 
L 331.920739 534.824438 
L 339.422569 537.448819 
L 347.674583 540.575806 
L 357.927085 544.710004 
L 393.68581 559.350578 
L 402.437946 562.55869 
L 410.189837 565.170175 
L 417.691668 567.462792 
L 424.943437 569.441884 
L 431.945146 571.121913 
L 438.946854 572.571476 
L 445.948563 573.791795 
L 452.950271 574.788259 
L 460.202041 575.593738 
L 467.703871 576.197767 
L 475.455763 576.594016 
L 483.457715 576.779595 
L 491.95979 576.749259 
L 500.711925 576.491492 
L 509.464061 576.011401 
L 517.716075 575.343522 
L 525.217905 574.522632 
L 527.218393 574.262439 
L 527.218393 574.262439 
" style="fill:none;stroke:#2ca02c;stroke-linecap:square;stroke-width:4;"/>
   </g>
   <g id="line2d_15">
    <path clip-path="url(#pc46be3dc24)" d="M 277.157376 493.597353 
L 282.243863 496.971087 
L 288.008547 501.082318 
L 294.45143 505.95735 
L 302.928908 512.675764 
L 333.786926 537.432022 
L 341.247106 542.986113 
L 348.029088 547.766381 
L 354.471971 552.034726 
L 360.575755 555.808561 
L 366.34044 559.114736 
L 372.105124 562.15761 
L 377.53071 564.772223 
L 382.956296 567.138768 
L 388.381881 569.252706 
L 393.468368 571.00234 
L 398.554854 572.525712 
L 403.641341 573.822158 
L 408.727827 574.891759 
L 413.814314 575.735231 
L 418.9008 576.353826 
L 423.987287 576.749249 
L 429.073773 576.92357 
L 434.16026 576.879159 
L 439.246746 576.618622 
L 444.333233 576.144748 
L 449.758819 575.407438 
L 455.184404 574.43441 
L 460.60999 573.229436 
L 466.035575 571.796357 
L 471.461161 570.139063 
L 477.225846 568.136921 
L 482.990531 565.890898 
L 488.755215 563.40588 
L 494.5199 560.686884 
L 500.623684 557.558711 
L 506.727468 554.180574 
L 513.170351 550.351273 
L 519.613233 546.260112 
L 526.395216 541.681567 
L 533.177198 536.836702 
L 540.298279 531.479125 
L 547.758459 525.590477 
L 555.896837 518.875355 
L 564.713414 511.304307 
L 574.886387 502.266234 
L 589.806747 488.669547 
L 606.422603 473.59521 
L 614.900081 466.198516 
L 616.256477 465.046617 
L 616.256477 465.046617 
" style="fill:none;stroke:#d62728;stroke-linecap:square;stroke-width:4;"/>
   </g>
   <g id="line2d_16">
    <path clip-path="url(#pc46be3dc24)" d="M 277.157376 44.709513 
L 280.158108 49.716479 
L 283.408901 55.591954 
L 286.909756 62.386054 
L 290.910732 70.666766 
L 295.41183 80.539305 
L 300.413051 92.070784 
L 306.414515 106.504469 
L 313.916346 125.166469 
L 326.669457 157.609606 
L 341.172996 194.325166 
L 350.675315 217.757882 
L 359.17739 238.127767 
L 367.179342 256.723651 
L 374.931234 274.187085 
L 382.683125 291.113332 
L 390.685078 308.045262 
L 398.68703 324.463754 
L 407.189105 341.392737 
L 415.941241 358.317283 
L 424.943437 375.244612 
L 434.195695 392.173757 
L 443.447952 408.64548 
L 452.450149 424.221714 
L 460.952224 438.487889 
L 468.704115 451.068136 
L 475.955885 462.412007 
L 482.457471 472.181977 
L 488.458936 480.81953 
L 494.210339 488.713718 
L 499.46162 495.560216 
L 504.462841 501.731758 
L 509.214 507.255526 
L 513.715098 512.163727 
L 518.216197 516.737658 
L 522.467234 520.734975 
L 526.46821 524.198054 
L 527.218393 524.814125 
L 527.218393 524.814125 
" style="fill:none;stroke:#9467bd;stroke-linecap:square;stroke-width:4;"/>
   </g>
   <g id="line2d_17">
    <path clip-path="url(#pc46be3dc24)" d="M 277.157376 389.424631 
L 281.658474 389.537748 
L 286.659695 389.89446 
L 292.411098 390.539505 
L 299.162746 391.52738 
L 308.415003 393.123753 
L 339.922691 398.737405 
L 352.175681 400.590943 
L 367.929525 402.727111 
L 388.434529 405.531348 
L 398.436969 407.134729 
L 406.939044 408.719525 
L 414.690935 410.388887 
L 421.942705 412.172026 
L 429.194474 414.184955 
L 436.446244 416.431804 
L 443.948075 418.992842 
L 451.950027 421.960518 
L 461.702407 425.827272 
L 485.958325 435.576323 
L 492.459912 437.875809 
L 497.961254 439.589573 
L 502.712414 440.847278 
L 507.213512 441.807274 
L 511.214488 442.43926 
L 514.965403 442.815672 
L 518.466258 442.95566 
L 521.967112 442.869616 
L 525.217905 442.567571 
L 527.218393 442.266899 
L 527.218393 442.266899 
" style="fill:none;stroke:#8c564b;stroke-linecap:square;stroke-width:4;"/>
   </g>
   <g id="line2d_18">
    <path clip-path="url(#pc46be3dc24)" d="M 195.4044 580.973367 
L 1012.93416 580.973367 
" style="fill:none;stroke:#e377c2;stroke-dasharray:14.8,6.4;stroke-dashoffset:0;stroke-width:4;"/>
   </g>
   <g id="patch_3">
    <path d="M 195.4044 607.78656 
L 195.4044 17.89632 
" style="fill:none;stroke:#000000;stroke-linecap:square;stroke-linejoin:miter;stroke-width:0.8;"/>
   </g>
   <g id="patch_4">
    <path d="M 1012.93416 607.78656 
L 1012.93416 17.89632 
" style="fill:none;stroke:#000000;stroke-linecap:square;stroke-linejoin:miter;stroke-width:0.8;"/>
   </g>
   <g id="patch_5">
    <path d="M 195.4044 607.78656 
L 1012.93416 607.78656 
" style="fill:none;stroke:#000000;stroke-linecap:square;stroke-linejoin:miter;stroke-width:0.8;"/>
   </g>
   <g id="patch_6">
    <path d="M 195.4044 17.89632 
L 1012.93416 17.89632 
" style="fill:none;stroke:#000000;stroke-linecap:square;stroke-linejoin:miter;stroke-width:0.8;"/>
   </g>
   <g id="legend_1">
    <g id="patch_7">
     <path d="M 561.33416 471.00882 
L 984.93416 471.00882 
Q 992.93416 471.00882 992.93416 463.00882 
L 992.93416 45.89632 
Q 992.93416 37.89632 984.93416 37.89632 
L 561.33416 37.89632 
Q 553.33416 37.89632 553.33416 45.89632 
L 553.33416 463.00882 
Q 553.33416 471.00882 561.33416 471.00882 
z
" style="fill:#ffffff;opacity:0.8;stroke:#cccccc;stroke-linejoin:miter;"/>
    </g>
    <g id="line2d_19">
     <path d="M 569.33416 70.69632 
L 649.33416 70.69632 
" style="fill:none;stroke:#1f77b4;stroke-linecap:square;stroke-width:4;"/>
    </g>
    <g id="line2d_20"/>
    <g id="text_14">
     <!-- $||Veh_1 - Veh_2||$ -->
     <defs>
      <path d="M 21 76.421875 
L 21 -23.578125 
L 12.703125 -23.578125 
L 12.703125 76.421875 
z
" id="DejaVuSans-124"/>
      <path d="M 20.609375 0 
L 7.8125 72.90625 
L 17.484375 72.90625 
L 28.078125 10.203125 
L 63.484375 72.90625 
L 74.21875 72.90625 
L 32.078125 0 
z
" id="DejaVuSans-Oblique-86"/>
      <path d="M 48.09375 32.234375 
Q 48.25 33.015625 48.3125 33.84375 
Q 48.390625 34.671875 48.390625 35.5 
Q 48.390625 41.453125 44.890625 44.921875 
Q 41.40625 48.390625 35.40625 48.390625 
Q 28.71875 48.390625 23.578125 44.15625 
Q 18.453125 39.9375 15.828125 32.171875 
z
M 55.90625 25.203125 
L 14.109375 25.203125 
Q 13.8125 23.34375 13.71875 22.265625 
Q 13.625 21.1875 13.625 20.40625 
Q 13.625 13.625 17.796875 9.90625 
Q 21.96875 6.203125 29.59375 6.203125 
Q 35.453125 6.203125 40.671875 7.515625 
Q 45.90625 8.84375 50.390625 11.375 
L 48.6875 2.484375 
Q 43.84375 0.53125 38.6875 -0.4375 
Q 33.546875 -1.421875 28.21875 -1.421875 
Q 16.84375 -1.421875 10.71875 4.015625 
Q 4.59375 9.46875 4.59375 19.484375 
Q 4.59375 28.03125 7.640625 35.375 
Q 10.6875 42.71875 16.609375 48.484375 
Q 20.40625 52.09375 25.65625 54.046875 
Q 30.90625 56 36.8125 56 
Q 46.09375 56 51.578125 50.4375 
Q 57.078125 44.875 57.078125 35.5 
Q 57.078125 33.25 56.78125 30.6875 
Q 56.5 28.125 55.90625 25.203125 
z
" id="DejaVuSans-Oblique-101"/>
      <path d="M 55.71875 33.015625 
L 49.3125 0 
L 40.28125 0 
L 46.6875 32.671875 
Q 47.125 34.96875 47.359375 36.71875 
Q 47.609375 38.484375 47.609375 39.5 
Q 47.609375 43.609375 45.015625 45.890625 
Q 42.4375 48.1875 37.796875 48.1875 
Q 30.5625 48.1875 25.265625 43.296875 
Q 19.96875 38.421875 18.40625 30.328125 
L 12.5 0 
L 3.515625 0 
L 18.3125 75.984375 
L 27.296875 75.984375 
L 21.484375 46.09375 
Q 24.90625 50.6875 30.21875 53.34375 
Q 35.546875 56 41.40625 56 
Q 48.640625 56 52.609375 52.09375 
Q 56.59375 48.1875 56.59375 41.109375 
Q 56.59375 39.359375 56.375 37.359375 
Q 56.15625 35.359375 55.71875 33.015625 
z
" id="DejaVuSans-Oblique-104"/>
      <path d="M 10.59375 35.5 
L 73.1875 35.5 
L 73.1875 27.203125 
L 10.59375 27.203125 
z
" id="DejaVuSans-8722"/>
     </defs>
     <g transform="translate(681.33416 84.69632)scale(0.4 -0.4)">
      <use transform="translate(0 0.578125)" xlink:href="#DejaVuSans-124"/>
      <use transform="translate(33.691406 0.578125)" xlink:href="#DejaVuSans-124"/>
      <use transform="translate(67.382812 0.578125)" xlink:href="#DejaVuSans-Oblique-86"/>
      <use transform="translate(135.791016 0.578125)" xlink:href="#DejaVuSans-Oblique-101"/>
      <use transform="translate(197.314453 0.578125)" xlink:href="#DejaVuSans-Oblique-104"/>
      <use transform="translate(260.693359 -15.828125)scale(0.7)" xlink:href="#DejaVuSans-49"/>
      <use transform="translate(327.446289 0.578125)" xlink:href="#DejaVuSans-8722"/>
      <use transform="translate(430.717773 0.578125)" xlink:href="#DejaVuSans-Oblique-86"/>
      <use transform="translate(499.125977 0.578125)" xlink:href="#DejaVuSans-Oblique-101"/>
      <use transform="translate(560.649414 0.578125)" xlink:href="#DejaVuSans-Oblique-104"/>
      <use transform="translate(624.02832 -15.828125)scale(0.7)" xlink:href="#DejaVuSans-50"/>
      <use transform="translate(671.298828 0.578125)" xlink:href="#DejaVuSans-124"/>
      <use transform="translate(704.990234 0.578125)" xlink:href="#DejaVuSans-124"/>
     </g>
    </g>
    <g id="line2d_21">
     <path d="M 569.33416 131.09632 
L 649.33416 131.09632 
" style="fill:none;stroke:#ff7f0e;stroke-linecap:square;stroke-width:4;"/>
    </g>
    <g id="line2d_22"/>
    <g id="text_15">
     <!-- $||Veh_1 - Veh_2||$ -->
     <g transform="translate(681.33416 145.09632)scale(0.4 -0.4)">
      <use transform="translate(0 0.578125)" xlink:href="#DejaVuSans-124"/>
      <use transform="translate(33.691406 0.578125)" xlink:href="#DejaVuSans-124"/>
      <use transform="translate(67.382812 0.578125)" xlink:href="#DejaVuSans-Oblique-86"/>
      <use transform="translate(135.791016 0.578125)" xlink:href="#DejaVuSans-Oblique-101"/>
      <use transform="translate(197.314453 0.578125)" xlink:href="#DejaVuSans-Oblique-104"/>
      <use transform="translate(260.693359 -15.828125)scale(0.7)" xlink:href="#DejaVuSans-49"/>
      <use transform="translate(327.446289 0.578125)" xlink:href="#DejaVuSans-8722"/>
      <use transform="translate(430.717773 0.578125)" xlink:href="#DejaVuSans-Oblique-86"/>
      <use transform="translate(499.125977 0.578125)" xlink:href="#DejaVuSans-Oblique-101"/>
      <use transform="translate(560.649414 0.578125)" xlink:href="#DejaVuSans-Oblique-104"/>
      <use transform="translate(624.02832 -15.828125)scale(0.7)" xlink:href="#DejaVuSans-50"/>
      <use transform="translate(671.298828 0.578125)" xlink:href="#DejaVuSans-124"/>
      <use transform="translate(704.990234 0.578125)" xlink:href="#DejaVuSans-124"/>
     </g>
    </g>
    <g id="line2d_23">
     <path d="M 569.33416 191.49632 
L 649.33416 191.49632 
" style="fill:none;stroke:#2ca02c;stroke-linecap:square;stroke-width:4;"/>
    </g>
    <g id="line2d_24"/>
    <g id="text_16">
     <!-- $||Veh_1 - Veh_2||$ -->
     <g transform="translate(681.33416 205.49632)scale(0.4 -0.4)">
      <use transform="translate(0 0.578125)" xlink:href="#DejaVuSans-124"/>
      <use transform="translate(33.691406 0.578125)" xlink:href="#DejaVuSans-124"/>
      <use transform="translate(67.382812 0.578125)" xlink:href="#DejaVuSans-Oblique-86"/>
      <use transform="translate(135.791016 0.578125)" xlink:href="#DejaVuSans-Oblique-101"/>
      <use transform="translate(197.314453 0.578125)" xlink:href="#DejaVuSans-Oblique-104"/>
      <use transform="translate(260.693359 -15.828125)scale(0.7)" xlink:href="#DejaVuSans-49"/>
      <use transform="translate(327.446289 0.578125)" xlink:href="#DejaVuSans-8722"/>
      <use transform="translate(430.717773 0.578125)" xlink:href="#DejaVuSans-Oblique-86"/>
      <use transform="translate(499.125977 0.578125)" xlink:href="#DejaVuSans-Oblique-101"/>
      <use transform="translate(560.649414 0.578125)" xlink:href="#DejaVuSans-Oblique-104"/>
      <use transform="translate(624.02832 -15.828125)scale(0.7)" xlink:href="#DejaVuSans-50"/>
      <use transform="translate(671.298828 0.578125)" xlink:href="#DejaVuSans-124"/>
      <use transform="translate(704.990234 0.578125)" xlink:href="#DejaVuSans-124"/>
     </g>
    </g>
    <g id="line2d_25">
     <path d="M 569.33416 251.89632 
L 649.33416 251.89632 
" style="fill:none;stroke:#d62728;stroke-linecap:square;stroke-width:4;"/>
    </g>
    <g id="line2d_26"/>
    <g id="text_17">
     <!-- $||Veh_2 - Veh_3||$ -->
     <defs>
      <path d="M 40.578125 39.3125 
Q 47.65625 37.796875 51.625 33 
Q 55.609375 28.21875 55.609375 21.1875 
Q 55.609375 10.40625 48.1875 4.484375 
Q 40.765625 -1.421875 27.09375 -1.421875 
Q 22.515625 -1.421875 17.65625 -0.515625 
Q 12.796875 0.390625 7.625 2.203125 
L 7.625 11.71875 
Q 11.71875 9.328125 16.59375 8.109375 
Q 21.484375 6.890625 26.8125 6.890625 
Q 36.078125 6.890625 40.9375 10.546875 
Q 45.796875 14.203125 45.796875 21.1875 
Q 45.796875 27.640625 41.28125 31.265625 
Q 36.765625 34.90625 28.71875 34.90625 
L 20.21875 34.90625 
L 20.21875 43.015625 
L 29.109375 43.015625 
Q 36.375 43.015625 40.234375 45.921875 
Q 44.09375 48.828125 44.09375 54.296875 
Q 44.09375 59.90625 40.109375 62.90625 
Q 36.140625 65.921875 28.71875 65.921875 
Q 24.65625 65.921875 20.015625 65.03125 
Q 15.375 64.15625 9.8125 62.3125 
L 9.8125 71.09375 
Q 15.4375 72.65625 20.34375 73.4375 
Q 25.25 74.21875 29.59375 74.21875 
Q 40.828125 74.21875 47.359375 69.109375 
Q 53.90625 64.015625 53.90625 55.328125 
Q 53.90625 49.265625 50.4375 45.09375 
Q 46.96875 40.921875 40.578125 39.3125 
z
" id="DejaVuSans-51"/>
     </defs>
     <g transform="translate(681.33416 265.89632)scale(0.4 -0.4)">
      <use transform="translate(0 0.578125)" xlink:href="#DejaVuSans-124"/>
      <use transform="translate(33.691406 0.578125)" xlink:href="#DejaVuSans-124"/>
      <use transform="translate(67.382812 0.578125)" xlink:href="#DejaVuSans-Oblique-86"/>
      <use transform="translate(135.791016 0.578125)" xlink:href="#DejaVuSans-Oblique-101"/>
      <use transform="translate(197.314453 0.578125)" xlink:href="#DejaVuSans-Oblique-104"/>
      <use transform="translate(260.693359 -15.828125)scale(0.7)" xlink:href="#DejaVuSans-50"/>
      <use transform="translate(327.446289 0.578125)" xlink:href="#DejaVuSans-8722"/>
      <use transform="translate(430.717773 0.578125)" xlink:href="#DejaVuSans-Oblique-86"/>
      <use transform="translate(499.125977 0.578125)" xlink:href="#DejaVuSans-Oblique-101"/>
      <use transform="translate(560.649414 0.578125)" xlink:href="#DejaVuSans-Oblique-104"/>
      <use transform="translate(624.02832 -15.828125)scale(0.7)" xlink:href="#DejaVuSans-51"/>
      <use transform="translate(671.298828 0.578125)" xlink:href="#DejaVuSans-124"/>
      <use transform="translate(704.990234 0.578125)" xlink:href="#DejaVuSans-124"/>
     </g>
    </g>
    <g id="line2d_27">
     <path d="M 569.33416 312.29632 
L 649.33416 312.29632 
" style="fill:none;stroke:#9467bd;stroke-linecap:square;stroke-width:4;"/>
    </g>
    <g id="line2d_28"/>
    <g id="text_18">
     <!-- $||Veh_2 - Veh_3||$ -->
     <g transform="translate(681.33416 326.29632)scale(0.4 -0.4)">
      <use transform="translate(0 0.578125)" xlink:href="#DejaVuSans-124"/>
      <use transform="translate(33.691406 0.578125)" xlink:href="#DejaVuSans-124"/>
      <use transform="translate(67.382812 0.578125)" xlink:href="#DejaVuSans-Oblique-86"/>
      <use transform="translate(135.791016 0.578125)" xlink:href="#DejaVuSans-Oblique-101"/>
      <use transform="translate(197.314453 0.578125)" xlink:href="#DejaVuSans-Oblique-104"/>
      <use transform="translate(260.693359 -15.828125)scale(0.7)" xlink:href="#DejaVuSans-50"/>
      <use transform="translate(327.446289 0.578125)" xlink:href="#DejaVuSans-8722"/>
      <use transform="translate(430.717773 0.578125)" xlink:href="#DejaVuSans-Oblique-86"/>
      <use transform="translate(499.125977 0.578125)" xlink:href="#DejaVuSans-Oblique-101"/>
      <use transform="translate(560.649414 0.578125)" xlink:href="#DejaVuSans-Oblique-104"/>
      <use transform="translate(624.02832 -15.828125)scale(0.7)" xlink:href="#DejaVuSans-51"/>
      <use transform="translate(671.298828 0.578125)" xlink:href="#DejaVuSans-124"/>
      <use transform="translate(704.990234 0.578125)" xlink:href="#DejaVuSans-124"/>
     </g>
    </g>
    <g id="line2d_29">
     <path d="M 569.33416 372.69632 
L 649.33416 372.69632 
" style="fill:none;stroke:#8c564b;stroke-linecap:square;stroke-width:4;"/>
    </g>
    <g id="line2d_30"/>
    <g id="text_19">
     <!-- $||Veh_3 - Veh_4||$ -->
     <g transform="translate(681.33416 386.69632)scale(0.4 -0.4)">
      <use transform="translate(0 0.578125)" xlink:href="#DejaVuSans-124"/>
      <use transform="translate(33.691406 0.578125)" xlink:href="#DejaVuSans-124"/>
      <use transform="translate(67.382812 0.578125)" xlink:href="#DejaVuSans-Oblique-86"/>
      <use transform="translate(135.791016 0.578125)" xlink:href="#DejaVuSans-Oblique-101"/>
      <use transform="translate(197.314453 0.578125)" xlink:href="#DejaVuSans-Oblique-104"/>
      <use transform="translate(260.693359 -15.828125)scale(0.7)" xlink:href="#DejaVuSans-51"/>
      <use transform="translate(327.446289 0.578125)" xlink:href="#DejaVuSans-8722"/>
      <use transform="translate(430.717773 0.578125)" xlink:href="#DejaVuSans-Oblique-86"/>
      <use transform="translate(499.125977 0.578125)" xlink:href="#DejaVuSans-Oblique-101"/>
      <use transform="translate(560.649414 0.578125)" xlink:href="#DejaVuSans-Oblique-104"/>
      <use transform="translate(624.02832 -15.828125)scale(0.7)" xlink:href="#DejaVuSans-52"/>
      <use transform="translate(671.298828 0.578125)" xlink:href="#DejaVuSans-124"/>
      <use transform="translate(704.990234 0.578125)" xlink:href="#DejaVuSans-124"/>
     </g>
    </g>
    <g id="line2d_31">
     <path d="M 569.33416 432.69007 
L 649.33416 432.69007 
" style="fill:none;stroke:#e377c2;stroke-dasharray:14.8,6.4;stroke-dashoffset:0;stroke-width:4;"/>
    </g>
    <g id="line2d_32"/>
    <g id="text_20">
     <!-- $d_{s}$ -->
     <defs>
      <path d="M 41.796875 8.203125 
Q 38.1875 3.46875 33.25 1.015625 
Q 28.328125 -1.421875 22.3125 -1.421875 
Q 14.109375 -1.421875 9.34375 4.171875 
Q 4.59375 9.765625 4.59375 19.484375 
Q 4.59375 27.59375 7.46875 34.9375 
Q 10.359375 42.28125 15.828125 48.09375 
Q 19.4375 51.953125 23.96875 53.96875 
Q 28.515625 56 33.5 56 
Q 38.765625 56 42.796875 53.453125 
Q 46.828125 50.921875 49.03125 46.1875 
L 54.890625 75.984375 
L 63.921875 75.984375 
L 49.125 0 
L 40.09375 0 
z
M 13.921875 21.09375 
Q 13.921875 14.015625 17.109375 10.0625 
Q 20.3125 6.109375 25.984375 6.109375 
Q 30.171875 6.109375 33.765625 8.125 
Q 37.359375 10.15625 40.09375 14.109375 
Q 42.96875 18.21875 44.625 23.578125 
Q 46.296875 28.953125 46.296875 34.1875 
Q 46.296875 40.96875 43.09375 44.765625 
Q 39.890625 48.578125 34.28125 48.578125 
Q 30.03125 48.578125 26.359375 46.578125 
Q 22.703125 44.578125 20.125 40.828125 
Q 17.28125 36.765625 15.59375 31.390625 
Q 13.921875 26.03125 13.921875 21.09375 
z
" id="DejaVuSans-Oblique-100"/>
      <path d="M 50 53.078125 
L 48.296875 44.578125 
Q 44.734375 46.53125 40.765625 47.5 
Q 36.8125 48.484375 32.625 48.484375 
Q 25.53125 48.484375 21.453125 46.0625 
Q 17.390625 43.65625 17.390625 39.5 
Q 17.390625 34.671875 26.859375 32.078125 
Q 27.59375 31.890625 27.9375 31.78125 
L 30.8125 30.90625 
Q 39.796875 28.421875 42.796875 25.6875 
Q 45.796875 22.953125 45.796875 18.21875 
Q 45.796875 9.515625 38.890625 4.046875 
Q 31.984375 -1.421875 20.796875 -1.421875 
Q 16.453125 -1.421875 11.671875 -0.578125 
Q 6.890625 0.25 1.125 2 
L 2.875 11.28125 
Q 7.8125 8.734375 12.59375 7.421875 
Q 17.390625 6.109375 21.78125 6.109375 
Q 28.375 6.109375 32.5 8.9375 
Q 36.625 11.765625 36.625 16.109375 
Q 36.625 20.796875 25.78125 23.6875 
L 24.859375 23.921875 
L 21.78125 24.703125 
Q 14.9375 26.515625 11.765625 29.46875 
Q 8.59375 32.421875 8.59375 37.015625 
Q 8.59375 45.75 15.15625 50.875 
Q 21.734375 56 33.015625 56 
Q 37.453125 56 41.671875 55.265625 
Q 45.90625 54.546875 50 53.078125 
z
" id="DejaVuSans-Oblique-115"/>
     </defs>
     <g transform="translate(681.33416 446.69007)scale(0.4 -0.4)">
      <use transform="translate(0 0.015625)" xlink:href="#DejaVuSans-Oblique-100"/>
      <use transform="translate(63.476562 -16.390625)scale(0.7)" xlink:href="#DejaVuSans-Oblique-115"/>
     </g>
    </g>
   </g>
  </g>
 </g>
 <defs>
  <clipPath id="pc46be3dc24">
   <rect height="589.89024" width="817.52976" x="195.4044" y="17.89632"/>
  </clipPath>
 </defs>
</svg>
