<?xml version="1.0" encoding="utf-8" standalone="no"?>
<!DOCTYPE svg PUBLIC "-//W3C//DTD SVG 1.1//EN"
  "http://www.w3.org/Graphics/SVG/1.1/DTD/svg11.dtd">
<!-- Created with matplotlib (https://matplotlib.org/) -->
<svg height="716.4pt" version="1.1" viewBox="0 0 1342.8 716.4" width="1342.8pt" xmlns="http://www.w3.org/2000/svg" xmlns:xlink="http://www.w3.org/1999/xlink">
 <defs>
  <style type="text/css">
*{stroke-linecap:butt;stroke-linejoin:round;}
  </style>
 </defs>
 <g id="figure_1">
  <g id="patch_1">
   <path d="M 0 716.4 
L 1342.8 716.4 
L 1342.8 0 
L 0 0 
z
" style="fill:#ffffff;"/>
  </g>
  <g id="axes_1">
   <g id="patch_2">
    <path d="M 364.976182 677.7144 
L 977.823818 677.7144 
L 977.823818 3.582 
L 364.976182 3.582 
z
" style="fill:#ffffff;"/>
   </g>
   <g id="patch_3">
    <path clip-path="url(#p38b350e88b)" d="M 610.115236 463.217727 
C 620.950509 463.217727 631.343456 458.912828 639.005151 451.251133 
C 646.666846 443.589438 650.971745 433.196491 650.971745 422.361218 
C 650.971745 411.525945 646.666846 401.132998 639.005151 393.471304 
C 631.343456 385.809609 620.950509 381.504709 610.115236 381.504709 
C 599.279963 381.504709 588.887017 385.809609 581.225322 393.471304 
C 573.563627 401.132998 569.258727 411.525945 569.258727 422.361218 
C 569.258727 433.196491 573.563627 443.589438 581.225322 451.251133 
C 588.887017 458.912828 599.279963 463.217727 610.115236 463.217727 
z
" style="fill:#1f77b4;stroke:#000000;stroke-linejoin:miter;"/>
   </g>
   <g id="patch_4">
    <path clip-path="url(#p38b350e88b)" d="M 732.684764 320.219945 
C 743.520037 320.219945 753.912983 315.915046 761.574678 308.253351 
C 769.236373 300.591656 773.541273 290.198709 773.541273 279.363436 
C 773.541273 268.528163 769.236373 258.135217 761.574678 250.473522 
C 753.912983 242.811827 743.520037 238.506927 732.684764 238.506927 
C 721.849491 238.506927 711.456544 242.811827 703.794849 250.473522 
C 696.133154 258.135217 691.828255 268.528163 691.828255 279.363436 
C 691.828255 290.198709 696.133154 300.591656 703.794849 308.253351 
C 711.456544 315.915046 721.849491 320.219945 732.684764 320.219945 
z
" style="fill:#1f77b4;stroke:#000000;stroke-linejoin:miter;"/>
   </g>
   <g id="patch_5">
    <path clip-path="url(#p38b350e88b)" d="M 589.686982 218.078673 
C 600.522255 218.078673 610.915202 213.773773 618.576896 206.112078 
C 626.238591 198.450383 630.543491 188.057437 630.543491 177.222164 
C 630.543491 166.386891 626.238591 155.993944 618.576896 148.332249 
C 610.915202 140.670554 600.522255 136.365655 589.686982 136.365655 
C 578.851709 136.365655 568.458762 140.670554 560.797067 148.332249 
C 553.135372 155.993944 548.830473 166.386891 548.830473 177.222164 
C 548.830473 188.057437 553.135372 198.450383 560.797067 206.112078 
C 568.458762 213.773773 578.851709 218.078673 589.686982 218.078673 
z
" style="fill:#1f77b4;stroke:#000000;stroke-linejoin:miter;"/>
   </g>
   <g id="patch_6">
    <path clip-path="url(#p38b350e88b)" d="M 467.117455 381.504709 
C 477.952727 381.504709 488.345674 377.19981 496.007369 369.538115 
C 503.669064 361.87642 507.973964 351.483473 507.973964 340.6482 
C 507.973964 329.812927 503.669064 319.41998 496.007369 311.758285 
C 488.345674 304.09659 477.952727 299.791691 467.117455 299.791691 
C 456.282182 299.791691 445.889235 304.09659 438.22754 311.758285 
C 430.565845 319.41998 426.260945 329.812927 426.260945 340.6482 
C 426.260945 351.483473 430.565845 361.87642 438.22754 369.538115 
C 445.889235 377.19981 456.282182 381.504709 467.117455 381.504709 
z
" style="fill:#1f77b4;stroke:#000000;stroke-linejoin:miter;"/>
   </g>
   <g id="patch_7">
    <path clip-path="url(#p38b350e88b)" d="M 773.541273 585.787255 
C 784.376546 585.787255 794.769492 581.482355 802.431187 573.82066 
C 810.092882 566.158965 814.397782 555.766018 814.397782 544.930745 
C 814.397782 534.095473 810.092882 523.702526 802.431187 516.040831 
C 794.769492 508.379136 784.376546 504.074236 773.541273 504.074236 
C 762.706 504.074236 752.313053 508.379136 744.651358 516.040831 
C 736.989663 523.702526 732.684764 534.095473 732.684764 544.930745 
C 732.684764 555.766018 736.989663 566.158965 744.651358 573.82066 
C 752.313053 581.482355 762.706 585.787255 773.541273 585.787255 
z
" style="fill:#1f77b4;stroke:#000000;stroke-linejoin:miter;"/>
   </g>
   <g id="patch_8">
    <path clip-path="url(#p38b350e88b)" d="M 875.682545 218.078673 
C 886.517818 218.078673 896.910765 213.773773 904.57246 206.112078 
C 912.234155 198.450383 916.539055 188.057437 916.539055 177.222164 
C 916.539055 166.386891 912.234155 155.993944 904.57246 148.332249 
C 896.910765 140.670554 886.517818 136.365655 875.682545 136.365655 
C 864.847273 136.365655 854.454326 140.670554 846.792631 148.332249 
C 839.130936 155.993944 834.826036 166.386891 834.826036 177.222164 
C 834.826036 188.057437 839.130936 198.450383 846.792631 206.112078 
C 854.454326 213.773773 864.847273 218.078673 875.682545 218.078673 
z
" style="fill:#1f77b4;stroke:#000000;stroke-linejoin:miter;"/>
   </g>
   <g id="matplotlib.axis_1">
    <g id="xtick_1">
     <g id="line2d_1">
      <defs>
       <path d="M 0 0 
L 0 3.5 
" id="m75f4cfe184" style="stroke:#000000;stroke-width:0.8;"/>
      </defs>
      <g>
       <use style="stroke:#000000;stroke-width:0.8;" x="467.117455" xlink:href="#m75f4cfe184" y="677.7144"/>
      </g>
     </g>
     <g id="text_1">
      <!-- 0 -->
      <defs>
       <path d="M 31.78125 66.40625 
Q 24.171875 66.40625 20.328125 58.90625 
Q 16.5 51.421875 16.5 36.375 
Q 16.5 21.390625 20.328125 13.890625 
Q 24.171875 6.390625 31.78125 6.390625 
Q 39.453125 6.390625 43.28125 13.890625 
Q 47.125 21.390625 47.125 36.375 
Q 47.125 51.421875 43.28125 58.90625 
Q 39.453125 66.40625 31.78125 66.40625 
z
M 31.78125 74.21875 
Q 44.046875 74.21875 50.515625 64.515625 
Q 56.984375 54.828125 56.984375 36.375 
Q 56.984375 17.96875 50.515625 8.265625 
Q 44.046875 -1.421875 31.78125 -1.421875 
Q 19.53125 -1.421875 13.0625 8.265625 
Q 6.59375 17.96875 6.59375 36.375 
Q 6.59375 54.828125 13.0625 64.515625 
Q 19.53125 74.21875 31.78125 74.21875 
z
" id="DejaVuSans-48"/>
      </defs>
      <g transform="translate(454.392455 715.10815)scale(0.4 -0.4)">
       <use xlink:href="#DejaVuSans-48"/>
      </g>
     </g>
    </g>
    <g id="xtick_2">
     <g id="line2d_2">
      <g>
       <use style="stroke:#000000;stroke-width:0.8;" x="671.4" xlink:href="#m75f4cfe184" y="677.7144"/>
      </g>
     </g>
     <g id="text_2">
      <!-- 10 -->
      <defs>
       <path d="M 12.40625 8.296875 
L 28.515625 8.296875 
L 28.515625 63.921875 
L 10.984375 60.40625 
L 10.984375 69.390625 
L 28.421875 72.90625 
L 38.28125 72.90625 
L 38.28125 8.296875 
L 54.390625 8.296875 
L 54.390625 0 
L 12.40625 0 
z
" id="DejaVuSans-49"/>
      </defs>
      <g transform="translate(645.95 715.10815)scale(0.4 -0.4)">
       <use xlink:href="#DejaVuSans-49"/>
       <use x="63.623047" xlink:href="#DejaVuSans-48"/>
      </g>
     </g>
    </g>
    <g id="xtick_3">
     <g id="line2d_3">
      <g>
       <use style="stroke:#000000;stroke-width:0.8;" x="875.682545" xlink:href="#m75f4cfe184" y="677.7144"/>
      </g>
     </g>
     <g id="text_3">
      <!-- 20 -->
      <defs>
       <path d="M 19.1875 8.296875 
L 53.609375 8.296875 
L 53.609375 0 
L 7.328125 0 
L 7.328125 8.296875 
Q 12.9375 14.109375 22.625 23.890625 
Q 32.328125 33.6875 34.8125 36.53125 
Q 39.546875 41.84375 41.421875 45.53125 
Q 43.3125 49.21875 43.3125 52.78125 
Q 43.3125 58.59375 39.234375 62.25 
Q 35.15625 65.921875 28.609375 65.921875 
Q 23.96875 65.921875 18.8125 64.3125 
Q 13.671875 62.703125 7.8125 59.421875 
L 7.8125 69.390625 
Q 13.765625 71.78125 18.9375 73 
Q 24.125 74.21875 28.421875 74.21875 
Q 39.75 74.21875 46.484375 68.546875 
Q 53.21875 62.890625 53.21875 53.421875 
Q 53.21875 48.921875 51.53125 44.890625 
Q 49.859375 40.875 45.40625 35.40625 
Q 44.1875 33.984375 37.640625 27.21875 
Q 31.109375 20.453125 19.1875 8.296875 
z
" id="DejaVuSans-50"/>
      </defs>
      <g transform="translate(850.232545 715.10815)scale(0.4 -0.4)">
       <use xlink:href="#DejaVuSans-50"/>
       <use x="63.623047" xlink:href="#DejaVuSans-48"/>
      </g>
     </g>
    </g>
   </g>
   <g id="matplotlib.axis_2">
    <g id="ytick_1">
     <g id="line2d_4">
      <defs>
       <path d="M 0 0 
L -3.5 0 
" id="m0fff65df73" style="stroke:#000000;stroke-width:0.8;"/>
      </defs>
      <g>
       <use style="stroke:#000000;stroke-width:0.8;" x="364.976182" xlink:href="#m0fff65df73" y="647.072018"/>
      </g>
     </g>
     <g id="text_4">
      <!-- 0 -->
      <g transform="translate(332.526182 662.268893)scale(0.4 -0.4)">
       <use xlink:href="#DejaVuSans-48"/>
      </g>
     </g>
    </g>
    <g id="ytick_2">
     <g id="line2d_5">
      <g>
       <use style="stroke:#000000;stroke-width:0.8;" x="364.976182" xlink:href="#m0fff65df73" y="544.930745"/>
      </g>
     </g>
     <g id="text_5">
      <!-- 5 -->
      <defs>
       <path d="M 10.796875 72.90625 
L 49.515625 72.90625 
L 49.515625 64.59375 
L 19.828125 64.59375 
L 19.828125 46.734375 
Q 21.96875 47.46875 24.109375 47.828125 
Q 26.265625 48.1875 28.421875 48.1875 
Q 40.625 48.1875 47.75 41.5 
Q 54.890625 34.8125 54.890625 23.390625 
Q 54.890625 11.625 47.5625 5.09375 
Q 40.234375 -1.421875 26.90625 -1.421875 
Q 22.3125 -1.421875 17.546875 -0.640625 
Q 12.796875 0.140625 7.71875 1.703125 
L 7.71875 11.625 
Q 12.109375 9.234375 16.796875 8.0625 
Q 21.484375 6.890625 26.703125 6.890625 
Q 35.15625 6.890625 40.078125 11.328125 
Q 45.015625 15.765625 45.015625 23.390625 
Q 45.015625 31 40.078125 35.4375 
Q 35.15625 39.890625 26.703125 39.890625 
Q 22.75 39.890625 18.8125 39.015625 
Q 14.890625 38.140625 10.796875 36.28125 
z
" id="DejaVuSans-53"/>
      </defs>
      <g transform="translate(332.526182 560.12762)scale(0.4 -0.4)">
       <use xlink:href="#DejaVuSans-53"/>
      </g>
     </g>
    </g>
    <g id="ytick_3">
     <g id="line2d_6">
      <g>
       <use style="stroke:#000000;stroke-width:0.8;" x="364.976182" xlink:href="#m0fff65df73" y="442.789473"/>
      </g>
     </g>
     <g id="text_6">
      <!-- 10 -->
      <g transform="translate(307.076182 457.986348)scale(0.4 -0.4)">
       <use xlink:href="#DejaVuSans-49"/>
       <use x="63.623047" xlink:href="#DejaVuSans-48"/>
      </g>
     </g>
    </g>
    <g id="ytick_4">
     <g id="line2d_7">
      <g>
       <use style="stroke:#000000;stroke-width:0.8;" x="364.976182" xlink:href="#m0fff65df73" y="340.6482"/>
      </g>
     </g>
     <g id="text_7">
      <!-- 15 -->
      <g transform="translate(307.076182 355.845075)scale(0.4 -0.4)">
       <use xlink:href="#DejaVuSans-49"/>
       <use x="63.623047" xlink:href="#DejaVuSans-53"/>
      </g>
     </g>
    </g>
    <g id="ytick_5">
     <g id="line2d_8">
      <g>
       <use style="stroke:#000000;stroke-width:0.8;" x="364.976182" xlink:href="#m0fff65df73" y="238.506927"/>
      </g>
     </g>
     <g id="text_8">
      <!-- 20 -->
      <g transform="translate(307.076182 253.703802)scale(0.4 -0.4)">
       <use xlink:href="#DejaVuSans-50"/>
       <use x="63.623047" xlink:href="#DejaVuSans-48"/>
      </g>
     </g>
    </g>
    <g id="ytick_6">
     <g id="line2d_9">
      <g>
       <use style="stroke:#000000;stroke-width:0.8;" x="364.976182" xlink:href="#m0fff65df73" y="136.365655"/>
      </g>
     </g>
     <g id="text_9">
      <!-- 25 -->
      <g transform="translate(307.076182 151.56253)scale(0.4 -0.4)">
       <use xlink:href="#DejaVuSans-50"/>
       <use x="63.623047" xlink:href="#DejaVuSans-53"/>
      </g>
     </g>
    </g>
    <g id="ytick_7">
     <g id="line2d_10">
      <g>
       <use style="stroke:#000000;stroke-width:0.8;" x="364.976182" xlink:href="#m0fff65df73" y="34.224382"/>
      </g>
     </g>
     <g id="text_10">
      <!-- 30 -->
      <defs>
       <path d="M 40.578125 39.3125 
Q 47.65625 37.796875 51.625 33 
Q 55.609375 28.21875 55.609375 21.1875 
Q 55.609375 10.40625 48.1875 4.484375 
Q 40.765625 -1.421875 27.09375 -1.421875 
Q 22.515625 -1.421875 17.65625 -0.515625 
Q 12.796875 0.390625 7.625 2.203125 
L 7.625 11.71875 
Q 11.71875 9.328125 16.59375 8.109375 
Q 21.484375 6.890625 26.8125 6.890625 
Q 36.078125 6.890625 40.9375 10.546875 
Q 45.796875 14.203125 45.796875 21.1875 
Q 45.796875 27.640625 41.28125 31.265625 
Q 36.765625 34.90625 28.71875 34.90625 
L 20.21875 34.90625 
L 20.21875 43.015625 
L 29.109375 43.015625 
Q 36.375 43.015625 40.234375 45.921875 
Q 44.09375 48.828125 44.09375 54.296875 
Q 44.09375 59.90625 40.109375 62.90625 
Q 36.140625 65.921875 28.71875 65.921875 
Q 24.65625 65.921875 20.015625 65.03125 
Q 15.375 64.15625 9.8125 62.3125 
L 9.8125 71.09375 
Q 15.4375 72.65625 20.34375 73.4375 
Q 25.25 74.21875 29.59375 74.21875 
Q 40.828125 74.21875 47.359375 69.109375 
Q 53.90625 64.015625 53.90625 55.328125 
Q 53.90625 49.265625 50.4375 45.09375 
Q 46.96875 40.921875 40.578125 39.3125 
z
" id="DejaVuSans-51"/>
      </defs>
      <g transform="translate(307.076182 49.421257)scale(0.4 -0.4)">
       <use xlink:href="#DejaVuSans-51"/>
       <use x="63.623047" xlink:href="#DejaVuSans-48"/>
      </g>
     </g>
    </g>
   </g>
   <g id="line2d_11">
    <path clip-path="url(#p38b350e88b)" d="M 467.117455 647.072018 
L 467.226156 638.952181 
L 467.693479 623.075231 
L 468.740972 595.99607 
L 470.124929 565.841493 
L 471.496998 540.659485 
L 472.837825 520.131753 
L 474.179031 503.045084 
L 475.46903 489.266031 
L 476.783937 477.365947 
L 478.250816 466.116226 
L 479.713938 456.576914 
L 481.323821 447.608422 
L 482.886301 440.121187 
L 484.579362 433.089798 
L 486.408871 426.509361 
L 488.125651 421.114569 
L 489.953706 416.050267 
L 491.8954 411.306559 
L 493.952545 406.871946 
L 496.126382 402.733519 
L 498.417556 398.877151 
L 500.826114 395.287669 
L 503.351487 391.94903 
L 505.992496 388.844474 
L 508.747345 385.956682 
L 511.613628 383.267911 
L 514.588339 380.760137 
L 518.116137 378.092405 
L 521.774553 375.610123 
L 526.037366 373.005548 
L 530.942738 370.300518 
L 536.523193 367.496069 
L 543.864233 364.086552 
L 571.892744 351.368818 
L 578.534762 347.957659 
L 584.556563 344.602135 
L 589.945175 341.33829 
L 594.70314 338.213077 
L 599.355385 334.900425 
L 603.884596 331.393649 
L 608.274383 327.688484 
L 612.046975 324.226856 
L 615.68738 320.607091 
L 619.186543 316.830711 
L 622.536357 312.900537 
L 625.729743 308.820624 
L 628.760725 304.596189 
L 631.624502 300.233532 
L 634.317515 295.73996 
L 636.837507 291.123696 
L 639.183579 286.393793 
L 641.356244 281.560041 
L 643.59572 276.010952 
L 645.623309 270.359322 
L 647.446505 264.621521 
L 649.244767 258.165674 
L 650.820348 251.647935 
L 652.321583 244.435394 
L 653.720531 236.551747 
L 655.104115 227.385815 
L 656.7966 214.465178 
L 658.796362 199.430768 
L 660.071153 191.577343 
L 661.231142 185.698684 
L 662.45491 180.537599 
L 663.888168 175.504799 
L 665.368763 171.141665 
L 666.845608 167.410211 
L 668.510156 163.759352 
L 670.379713 160.188421 
L 672.471142 156.69605 
L 674.80072 153.280171 
L 677.383995 149.938016 
L 680.235627 146.666132 
L 683.36923 143.460394 
L 686.797191 140.316021 
L 690.530501 137.227604 
L 694.578553 134.189134 
L 698.948951 131.19404 
L 703.647301 128.235225 
L 709.422651 124.888416 
L 715.631809 121.567123 
L 722.271261 118.258775 
L 730.244014 114.536106 
L 739.702648 110.376482 
L 751.826217 105.316492 
L 769.119504 98.379915 
L 799.021084 86.410155 
L 811.860356 81.014294 
L 822.207535 76.43321 
L 831.149872 72.230807 
L 838.675548 68.452302 
L 844.830861 65.139235 
L 850.646872 61.759603 
L 855.18519 58.894641 
L 859.398217 55.988127 
L 863.241101 53.043213 
L 866.017072 50.662193 
L 868.50021 48.261355 
L 870.663772 45.843327 
L 872.479824 43.411073 
L 873.596319 41.579528 
L 874.488208 39.74337 
L 875.142329 37.904253 
L 875.545106 36.063955 
L 875.682545 34.224382 
L 875.682545 34.224382 
" style="fill:none;stroke:#1f77b4;stroke-linecap:square;stroke-width:4;"/>
   </g>
   <g id="line2d_12">
    <path clip-path="url(#p38b350e88b)" d="M 671.4 647.072018 
L 671.272483 642.758807 
L 670.901749 638.405263 
L 670.304985 634.020274 
L 669.498674 629.612157 
L 668.340822 624.555927 
L 666.952405 619.490368 
L 665.141461 613.792751 
L 663.094659 608.108685 
L 660.576869 601.823041 
L 657.836508 595.58269 
L 654.60401 588.785577 
L 650.862975 581.467398 
L 646.611606 573.671321 
L 641.864307 565.447442 
L 636.302177 556.286986 
L 629.967905 546.305378 
L 622.254772 534.590856 
L 611.374406 518.51424 
L 595.855723 495.559331 
L 588.969061 484.954312 
L 583.675601 476.418812 
L 579.054125 468.551953 
L 575.034625 461.266292 
L 571.545345 454.488021 
L 568.346568 447.785864 
L 565.414392 441.114308 
L 562.721011 434.426315 
L 560.235413 427.673623 
L 557.800042 420.421212 
L 555.400295 412.58552 
L 552.895268 403.646626 
L 550.025879 392.529358 
L 546.359039 377.334411 
L 531.608882 315.225596 
L 525.393429 290.523721 
L 517.89364 261.66589 
L 506.149295 217.493781 
L 494.169808 172.18494 
L 487.675895 146.774695 
L 482.638454 126.191438 
L 478.599116 108.75557 
L 475.324994 93.614408 
L 472.781393 80.795969 
L 470.895376 70.24161 
L 469.448483 61.007761 
L 468.401811 53.052262 
L 467.644201 45.585413 
L 467.237707 39.34381 
L 467.117455 34.224382 
L 467.117455 34.224382 
" style="fill:none;stroke:#2ca02c;stroke-linecap:square;stroke-width:4;"/>
   </g>
   <g id="line2d_13">
    <path clip-path="url(#p38b350e88b)" d="M 875.682545 647.072018 
L 875.577256 637.491041 
L 875.190584 623.482041 
L 874.460167 605.346486 
L 873.37883 584.103448 
L 871.987112 561.275501 
L 870.464382 539.819403 
L 868.779144 519.072067 
L 866.95928 499.331 
L 865.032966 480.785733 
L 863.030068 463.548061 
L 860.817149 446.460712 
L 858.564063 430.787327 
L 856.110969 415.346738 
L 853.661947 401.333356 
L 851.029735 387.575438 
L 848.209351 374.093487 
L 845.455203 361.991774 
L 842.537119 350.14635 
L 839.453488 338.565424 
L 836.203526 327.255322 
L 832.787315 316.220713 
L 829.205846 305.464821 
L 825.808157 295.930286 
L 822.277591 286.628459 
L 818.61693 277.559435 
L 814.829617 268.72278 
L 810.919758 260.117622 
L 806.892118 251.742732 
L 802.332157 242.794501 
L 797.644347 234.120742 
L 792.837704 225.718914 
L 787.922127 217.586331 
L 782.908369 209.720234 
L 777.807991 202.117849 
L 772.633321 194.776434 
L 766.918842 187.06212 
L 761.149311 179.651877 
L 755.343398 172.542538 
L 749.035136 165.176853 
L 742.73249 158.15723 
L 735.981405 150.980792 
L 729.300699 144.197791 
L 722.25939 137.36245 
L 714.927727 130.558835 
L 707.395673 123.874437 
L 699.363503 117.057267 
L 691.052701 110.308752 
L 682.408854 103.576837 
L 671.431188 95.334834 
L 662.053057 88.237193 
L 658.851181 85.540183 
L 657.089585 83.787434 
L 656.024544 82.423152 
L 655.457964 81.348005 
L 655.210991 80.413681 
L 655.214613 79.503996 
L 655.456748 78.593191 
L 655.975763 77.565443 
L 656.964885 76.171918 
L 659.53409 73.098334 
L 661.77592 70.245592 
L 663.549302 67.631474 
L 665.088022 64.962605 
L 666.466714 62.109905 
L 667.655938 59.13307 
L 668.644076 56.105671 
L 669.526229 52.715095 
L 670.273709 48.92795 
L 670.856309 44.709557 
L 671.210131 40.568789 
L 671.385298 36.032763 
L 671.4 34.224382 
L 671.4 34.224382 
" style="fill:none;stroke:#9467bd;stroke-linecap:square;stroke-width:4;"/>
   </g>
   <g id="patch_9">
    <path d="M 364.976182 677.7144 
L 364.976182 3.582 
" style="fill:none;stroke:#000000;stroke-linecap:square;stroke-linejoin:miter;stroke-width:0.8;"/>
   </g>
   <g id="patch_10">
    <path d="M 977.823818 677.7144 
L 977.823818 3.582 
" style="fill:none;stroke:#000000;stroke-linecap:square;stroke-linejoin:miter;stroke-width:0.8;"/>
   </g>
   <g id="patch_11">
    <path d="M 364.976182 677.7144 
L 977.823818 677.7144 
" style="fill:none;stroke:#000000;stroke-linecap:square;stroke-linejoin:miter;stroke-width:0.8;"/>
   </g>
   <g id="patch_12">
    <path d="M 364.976182 3.582 
L 977.823818 3.582 
" style="fill:none;stroke:#000000;stroke-linecap:square;stroke-linejoin:miter;stroke-width:0.8;"/>
   </g>
   <g id="line2d_14">
    <defs>
     <path d="M -9 9 
L 9 -9 
M -9 -9 
L 9 9 
" id="mf3bd424d31" style="stroke:#ff7f0e;stroke-width:7;"/>
    </defs>
    <g clip-path="url(#p38b350e88b)">
     <use style="fill:#ff7f0e;stroke:#ff7f0e;stroke-width:7;" x="543.509375" xlink:href="#mf3bd424d31" y="364.246539"/>
    </g>
   </g>
   <g id="line2d_15">
    <defs>
     <path d="M -9 9 
L 9 -9 
M -9 -9 
L 9 9 
" id="m2efb1e5592" style="stroke:#d62728;stroke-width:7;"/>
    </defs>
    <g clip-path="url(#p38b350e88b)">
     <use style="fill:#d62728;stroke:#d62728;stroke-width:7;" x="579.646891" xlink:href="#m2efb1e5592" y="469.588002"/>
    </g>
   </g>
   <g id="line2d_16">
    <defs>
     <path d="M -9 9 
L 9 -9 
M -9 -9 
L 9 9 
" id="m025cbba733" style="stroke:#8c564b;stroke-width:7;"/>
    </defs>
    <g clip-path="url(#p38b350e88b)">
     <use style="fill:#8c564b;stroke:#8c564b;stroke-width:7;" x="821.796951" xlink:href="#m025cbba733" y="285.40581"/>
    </g>
   </g>
  </g>
 </g>
 <defs>
  <clipPath id="p38b350e88b">
   <rect height="674.1324" width="612.847636" x="364.976182" y="3.582"/>
  </clipPath>
 </defs>
</svg>
