<?xml version="1.0" encoding="utf-8" standalone="no"?>
<!DOCTYPE svg PUBLIC "-//W3C//DTD SVG 1.1//EN"
  "http://www.w3.org/Graphics/SVG/1.1/DTD/svg11.dtd">
<!-- Created with matplotlib (https://matplotlib.org/) -->
<svg height="716.4pt" version="1.1" viewBox="0 0 1342.8 716.4" width="1342.8pt" xmlns="http://www.w3.org/2000/svg" xmlns:xlink="http://www.w3.org/1999/xlink">
 <defs>
  <style type="text/css">
*{stroke-linecap:butt;stroke-linejoin:round;}
  </style>
 </defs>
 <g id="figure_1">
  <g id="patch_1">
   <path d="M 0 716.4 
L 1342.8 716.4 
L 1342.8 0 
L 0 0 
z
" style="fill:#ffffff;"/>
  </g>
  <g id="axes_1">
   <g id="patch_2">
    <path d="M 366.604364 674.1324 
L 976.195636 674.1324 
L 976.195636 3.582 
L 366.604364 3.582 
z
" style="fill:#ffffff;"/>
   </g>
   <g id="patch_3">
    <path clip-path="url(#p4e2897ba0c)" d="M 610.440873 460.775455 
C 621.218572 460.775455 631.556296 456.493429 639.177281 448.872445 
C 646.798265 441.25146 651.080291 430.913736 651.080291 420.136036 
C 651.080291 409.358337 646.798265 399.020613 639.177281 391.399628 
C 631.556296 383.778644 621.218572 379.496618 610.440873 379.496618 
C 599.663173 379.496618 589.325449 383.778644 581.704465 391.399628 
C 574.08348 399.020613 569.801455 409.358337 569.801455 420.136036 
C 569.801455 430.913736 574.08348 441.25146 581.704465 448.872445 
C 589.325449 456.493429 599.663173 460.775455 610.440873 460.775455 
z
" style="fill:#1f77b4;stroke:#000000;stroke-linejoin:miter;"/>
   </g>
   <g id="patch_4">
    <path clip-path="url(#p4e2897ba0c)" d="M 732.359127 318.537491 
C 743.136827 318.537491 753.474551 314.255465 761.095535 306.634481 
C 768.71652 299.013496 772.998545 288.675772 772.998545 277.898073 
C 772.998545 267.120373 768.71652 256.782649 761.095535 249.161665 
C 753.474551 241.54068 743.136827 237.258655 732.359127 237.258655 
C 721.581428 237.258655 711.243704 241.54068 703.622719 249.161665 
C 696.001735 256.782649 691.719709 267.120373 691.719709 277.898073 
C 691.719709 288.675772 696.001735 299.013496 703.622719 306.634481 
C 711.243704 314.255465 721.581428 318.537491 732.359127 318.537491 
z
" style="fill:#1f77b4;stroke:#000000;stroke-linejoin:miter;"/>
   </g>
   <g id="patch_5">
    <path clip-path="url(#p4e2897ba0c)" d="M 590.121164 216.938945 
C 600.898863 216.938945 611.236587 212.65692 618.857572 205.035935 
C 626.478556 197.414951 630.760582 187.077227 630.760582 176.299527 
C 630.760582 165.521828 626.478556 155.184104 618.857572 147.563119 
C 611.236587 139.942135 600.898863 135.660109 590.121164 135.660109 
C 579.343464 135.660109 569.00574 139.942135 561.384755 147.563119 
C 553.763771 155.184104 549.481745 165.521828 549.481745 176.299527 
C 549.481745 187.077227 553.763771 197.414951 561.384755 205.035935 
C 569.00574 212.65692 579.343464 216.938945 590.121164 216.938945 
z
" style="fill:#1f77b4;stroke:#000000;stroke-linejoin:miter;"/>
   </g>
   <g id="patch_6">
    <path clip-path="url(#p4e2897ba0c)" d="M 468.202909 379.496618 
C 478.980609 379.496618 489.318333 375.214593 496.939317 367.593608 
C 504.560302 359.972624 508.842327 349.6349 508.842327 338.8572 
C 508.842327 328.0795 504.560302 317.741776 496.939317 310.120792 
C 489.318333 302.499807 478.980609 298.217782 468.202909 298.217782 
C 457.425209 298.217782 447.087485 302.499807 439.466501 310.120792 
C 431.845516 317.741776 427.563491 328.0795 427.563491 338.8572 
C 427.563491 349.6349 431.845516 359.972624 439.466501 367.593608 
C 447.087485 375.214593 457.425209 379.496618 468.202909 379.496618 
z
" style="fill:#1f77b4;stroke:#000000;stroke-linejoin:miter;"/>
   </g>
   <g id="patch_7">
    <path clip-path="url(#p4e2897ba0c)" d="M 772.998545 582.693709 
C 783.776245 582.693709 794.113969 578.411684 801.734954 570.790699 
C 809.355938 563.169715 813.637964 552.831991 813.637964 542.054291 
C 813.637964 531.276591 809.355938 520.938867 801.734954 513.317883 
C 794.113969 505.696898 783.776245 501.414873 772.998545 501.414873 
C 762.220846 501.414873 751.883122 505.696898 744.262137 513.317883 
C 736.641153 520.938867 732.359127 531.276591 732.359127 542.054291 
C 732.359127 552.831991 736.641153 563.169715 744.262137 570.790699 
C 751.883122 578.411684 762.220846 582.693709 772.998545 582.693709 
z
" style="fill:#1f77b4;stroke:#000000;stroke-linejoin:miter;"/>
   </g>
   <g id="patch_8">
    <path clip-path="url(#p4e2897ba0c)" d="M 874.597091 216.938945 
C 885.374791 216.938945 895.712515 212.65692 903.333499 205.035935 
C 910.954484 197.414951 915.236509 187.077227 915.236509 176.299527 
C 915.236509 165.521828 910.954484 155.184104 903.333499 147.563119 
C 895.712515 139.942135 885.374791 135.660109 874.597091 135.660109 
C 863.819391 135.660109 853.481667 139.942135 845.860683 147.563119 
C 838.239698 155.184104 833.957673 165.521828 833.957673 176.299527 
C 833.957673 187.077227 838.239698 197.414951 845.860683 205.035935 
C 853.481667 212.65692 863.819391 216.938945 874.597091 216.938945 
z
" style="fill:#1f77b4;stroke:#000000;stroke-linejoin:miter;"/>
   </g>
   <g id="matplotlib.axis_1">
    <g id="xtick_1">
     <g id="line2d_1">
      <defs>
       <path d="M 0 0 
L 0 3.5 
" id="m5613a9de9c" style="stroke:#000000;stroke-width:0.8;"/>
      </defs>
      <g>
       <use style="stroke:#000000;stroke-width:0.8;" x="468.202909" xlink:href="#m5613a9de9c" y="674.1324"/>
      </g>
     </g>
     <g id="text_1">
      <!-- 0 -->
      <defs>
       <path d="M 31.78125 66.40625 
Q 24.171875 66.40625 20.328125 58.90625 
Q 16.5 51.421875 16.5 36.375 
Q 16.5 21.390625 20.328125 13.890625 
Q 24.171875 6.390625 31.78125 6.390625 
Q 39.453125 6.390625 43.28125 13.890625 
Q 47.125 21.390625 47.125 36.375 
Q 47.125 51.421875 43.28125 58.90625 
Q 39.453125 66.40625 31.78125 66.40625 
z
M 31.78125 74.21875 
Q 44.046875 74.21875 50.515625 64.515625 
Q 56.984375 54.828125 56.984375 36.375 
Q 56.984375 17.96875 50.515625 8.265625 
Q 44.046875 -1.421875 31.78125 -1.421875 
Q 19.53125 -1.421875 13.0625 8.265625 
Q 6.59375 17.96875 6.59375 36.375 
Q 6.59375 54.828125 13.0625 64.515625 
Q 19.53125 74.21875 31.78125 74.21875 
z
" id="DejaVuSans-48"/>
      </defs>
      <g transform="translate(455.477909 711.52615)scale(0.4 -0.4)">
       <use xlink:href="#DejaVuSans-48"/>
      </g>
     </g>
    </g>
    <g id="xtick_2">
     <g id="line2d_2">
      <g>
       <use style="stroke:#000000;stroke-width:0.8;" x="671.4" xlink:href="#m5613a9de9c" y="674.1324"/>
      </g>
     </g>
     <g id="text_2">
      <!-- 10 -->
      <defs>
       <path d="M 12.40625 8.296875 
L 28.515625 8.296875 
L 28.515625 63.921875 
L 10.984375 60.40625 
L 10.984375 69.390625 
L 28.421875 72.90625 
L 38.28125 72.90625 
L 38.28125 8.296875 
L 54.390625 8.296875 
L 54.390625 0 
L 12.40625 0 
z
" id="DejaVuSans-49"/>
      </defs>
      <g transform="translate(645.95 711.52615)scale(0.4 -0.4)">
       <use xlink:href="#DejaVuSans-49"/>
       <use x="63.623047" xlink:href="#DejaVuSans-48"/>
      </g>
     </g>
    </g>
    <g id="xtick_3">
     <g id="line2d_3">
      <g>
       <use style="stroke:#000000;stroke-width:0.8;" x="874.597091" xlink:href="#m5613a9de9c" y="674.1324"/>
      </g>
     </g>
     <g id="text_3">
      <!-- 20 -->
      <defs>
       <path d="M 19.1875 8.296875 
L 53.609375 8.296875 
L 53.609375 0 
L 7.328125 0 
L 7.328125 8.296875 
Q 12.9375 14.109375 22.625 23.890625 
Q 32.328125 33.6875 34.8125 36.53125 
Q 39.546875 41.84375 41.421875 45.53125 
Q 43.3125 49.21875 43.3125 52.78125 
Q 43.3125 58.59375 39.234375 62.25 
Q 35.15625 65.921875 28.609375 65.921875 
Q 23.96875 65.921875 18.8125 64.3125 
Q 13.671875 62.703125 7.8125 59.421875 
L 7.8125 69.390625 
Q 13.765625 71.78125 18.9375 73 
Q 24.125 74.21875 28.421875 74.21875 
Q 39.75 74.21875 46.484375 68.546875 
Q 53.21875 62.890625 53.21875 53.421875 
Q 53.21875 48.921875 51.53125 44.890625 
Q 49.859375 40.875 45.40625 35.40625 
Q 44.1875 33.984375 37.640625 27.21875 
Q 31.109375 20.453125 19.1875 8.296875 
z
" id="DejaVuSans-50"/>
      </defs>
      <g transform="translate(849.147091 711.52615)scale(0.4 -0.4)">
       <use xlink:href="#DejaVuSans-50"/>
       <use x="63.623047" xlink:href="#DejaVuSans-48"/>
      </g>
     </g>
    </g>
   </g>
   <g id="matplotlib.axis_2">
    <g id="ytick_1">
     <g id="line2d_4">
      <defs>
       <path d="M 0 0 
L -3.5 0 
" id="mae254613a8" style="stroke:#000000;stroke-width:0.8;"/>
      </defs>
      <g>
       <use style="stroke:#000000;stroke-width:0.8;" x="366.604364" xlink:href="#mae254613a8" y="643.652836"/>
      </g>
     </g>
     <g id="text_4">
      <!-- 0 -->
      <g transform="translate(334.154364 658.849711)scale(0.4 -0.4)">
       <use xlink:href="#DejaVuSans-48"/>
      </g>
     </g>
    </g>
    <g id="ytick_2">
     <g id="line2d_5">
      <g>
       <use style="stroke:#000000;stroke-width:0.8;" x="366.604364" xlink:href="#mae254613a8" y="542.054291"/>
      </g>
     </g>
     <g id="text_5">
      <!-- 5 -->
      <defs>
       <path d="M 10.796875 72.90625 
L 49.515625 72.90625 
L 49.515625 64.59375 
L 19.828125 64.59375 
L 19.828125 46.734375 
Q 21.96875 47.46875 24.109375 47.828125 
Q 26.265625 48.1875 28.421875 48.1875 
Q 40.625 48.1875 47.75 41.5 
Q 54.890625 34.8125 54.890625 23.390625 
Q 54.890625 11.625 47.5625 5.09375 
Q 40.234375 -1.421875 26.90625 -1.421875 
Q 22.3125 -1.421875 17.546875 -0.640625 
Q 12.796875 0.140625 7.71875 1.703125 
L 7.71875 11.625 
Q 12.109375 9.234375 16.796875 8.0625 
Q 21.484375 6.890625 26.703125 6.890625 
Q 35.15625 6.890625 40.078125 11.328125 
Q 45.015625 15.765625 45.015625 23.390625 
Q 45.015625 31 40.078125 35.4375 
Q 35.15625 39.890625 26.703125 39.890625 
Q 22.75 39.890625 18.8125 39.015625 
Q 14.890625 38.140625 10.796875 36.28125 
z
" id="DejaVuSans-53"/>
      </defs>
      <g transform="translate(334.154364 557.251166)scale(0.4 -0.4)">
       <use xlink:href="#DejaVuSans-53"/>
      </g>
     </g>
    </g>
    <g id="ytick_3">
     <g id="line2d_6">
      <g>
       <use style="stroke:#000000;stroke-width:0.8;" x="366.604364" xlink:href="#mae254613a8" y="440.455745"/>
      </g>
     </g>
     <g id="text_6">
      <!-- 10 -->
      <g transform="translate(308.704364 455.65262)scale(0.4 -0.4)">
       <use xlink:href="#DejaVuSans-49"/>
       <use x="63.623047" xlink:href="#DejaVuSans-48"/>
      </g>
     </g>
    </g>
    <g id="ytick_4">
     <g id="line2d_7">
      <g>
       <use style="stroke:#000000;stroke-width:0.8;" x="366.604364" xlink:href="#mae254613a8" y="338.8572"/>
      </g>
     </g>
     <g id="text_7">
      <!-- 15 -->
      <g transform="translate(308.704364 354.054075)scale(0.4 -0.4)">
       <use xlink:href="#DejaVuSans-49"/>
       <use x="63.623047" xlink:href="#DejaVuSans-53"/>
      </g>
     </g>
    </g>
    <g id="ytick_5">
     <g id="line2d_8">
      <g>
       <use style="stroke:#000000;stroke-width:0.8;" x="366.604364" xlink:href="#mae254613a8" y="237.258655"/>
      </g>
     </g>
     <g id="text_8">
      <!-- 20 -->
      <g transform="translate(308.704364 252.45553)scale(0.4 -0.4)">
       <use xlink:href="#DejaVuSans-50"/>
       <use x="63.623047" xlink:href="#DejaVuSans-48"/>
      </g>
     </g>
    </g>
    <g id="ytick_6">
     <g id="line2d_9">
      <g>
       <use style="stroke:#000000;stroke-width:0.8;" x="366.604364" xlink:href="#mae254613a8" y="135.660109"/>
      </g>
     </g>
     <g id="text_9">
      <!-- 25 -->
      <g transform="translate(308.704364 150.856984)scale(0.4 -0.4)">
       <use xlink:href="#DejaVuSans-50"/>
       <use x="63.623047" xlink:href="#DejaVuSans-53"/>
      </g>
     </g>
    </g>
    <g id="ytick_7">
     <g id="line2d_10">
      <g>
       <use style="stroke:#000000;stroke-width:0.8;" x="366.604364" xlink:href="#mae254613a8" y="34.061564"/>
      </g>
     </g>
     <g id="text_10">
      <!-- 30 -->
      <defs>
       <path d="M 40.578125 39.3125 
Q 47.65625 37.796875 51.625 33 
Q 55.609375 28.21875 55.609375 21.1875 
Q 55.609375 10.40625 48.1875 4.484375 
Q 40.765625 -1.421875 27.09375 -1.421875 
Q 22.515625 -1.421875 17.65625 -0.515625 
Q 12.796875 0.390625 7.625 2.203125 
L 7.625 11.71875 
Q 11.71875 9.328125 16.59375 8.109375 
Q 21.484375 6.890625 26.8125 6.890625 
Q 36.078125 6.890625 40.9375 10.546875 
Q 45.796875 14.203125 45.796875 21.1875 
Q 45.796875 27.640625 41.28125 31.265625 
Q 36.765625 34.90625 28.71875 34.90625 
L 20.21875 34.90625 
L 20.21875 43.015625 
L 29.109375 43.015625 
Q 36.375 43.015625 40.234375 45.921875 
Q 44.09375 48.828125 44.09375 54.296875 
Q 44.09375 59.90625 40.109375 62.90625 
Q 36.140625 65.921875 28.71875 65.921875 
Q 24.65625 65.921875 20.015625 65.03125 
Q 15.375 64.15625 9.8125 62.3125 
L 9.8125 71.09375 
Q 15.4375 72.65625 20.34375 73.4375 
Q 25.25 74.21875 29.59375 74.21875 
Q 40.828125 74.21875 47.359375 69.109375 
Q 53.90625 64.015625 53.90625 55.328125 
Q 53.90625 49.265625 50.4375 45.09375 
Q 46.96875 40.921875 40.578125 39.3125 
z
" id="DejaVuSans-51"/>
      </defs>
      <g transform="translate(308.704364 49.258439)scale(0.4 -0.4)">
       <use xlink:href="#DejaVuSans-51"/>
       <use x="63.623047" xlink:href="#DejaVuSans-48"/>
      </g>
     </g>
    </g>
   </g>
   <g id="line2d_11">
    <path clip-path="url(#p4e2897ba0c)" d="M 468.202909 643.652836 
L 468.320294 637.831774 
L 468.707187 630.649685 
L 469.413262 622.007816 
L 470.485648 611.844664 
L 471.845062 601.062496 
L 473.616854 588.839882 
L 475.68124 576.200044 
L 478.025884 563.273518 
L 480.643522 550.172837 
L 483.29885 538.009023 
L 486.182385 525.844293 
L 489.293723 513.734558 
L 492.345672 502.723203 
L 495.588269 491.829728 
L 499.020313 481.08108 
L 502.639671 470.500229 
L 506.443056 460.106643 
L 510.425845 449.916729 
L 514.581951 439.944231 
L 518.90373 430.200589 
L 523.381936 420.695258 
L 528.005699 411.435998 
L 532.762558 402.429121 
L 537.638509 393.679712 
L 542.618093 385.191818 
L 547.684511 376.968609 
L 553.289361 368.302533 
L 558.95133 359.9566 
L 565.119447 351.278161 
L 571.289954 342.978171 
L 577.897797 334.463049 
L 584.886181 325.825726 
L 592.17787 317.163699 
L 600.105326 308.092163 
L 608.881298 298.394443 
L 619.248644 287.285208 
L 645.341924 259.526064 
L 650.812746 253.24872 
L 656.391935 246.485285 
L 663.483002 237.907012 
L 667.666062 233.23416 
L 672.033604 228.688911 
L 677.045122 223.791774 
L 683.108756 218.179918 
L 690.853509 211.335923 
L 700.697529 202.958156 
L 713.716933 192.189404 
L 734.531222 175.299227 
L 769.550409 146.882925 
L 786.112449 133.158945 
L 800.144818 121.254539 
L 812.228104 110.712319 
L 822.171608 101.760079 
L 830.892987 93.631063 
L 838.361546 86.394567 
L 845.46301 79.194028 
L 851.292436 72.961799 
L 855.942101 67.699469 
L 860.216049 62.536854 
L 863.450191 58.330146 
L 866.349882 54.227846 
L 868.878716 50.247498 
L 870.609077 47.163459 
L 872.057058 44.179305 
L 873.201288 41.305457 
L 874.019539 38.552787 
L 874.405438 36.57461 
L 874.584918 34.675918 
L 874.597091 34.061564 
L 874.597091 34.061564 
" style="fill:none;stroke:#1f77b4;stroke-linecap:square;stroke-width:4;"/>
   </g>
   <g id="line2d_12">
    <path clip-path="url(#p4e2897ba0c)" d="M 671.4 643.652836 
L 671.302492 639.976946 
L 670.952853 635.647514 
L 670.366232 631.282687 
L 669.559812 626.890953 
L 668.390136 621.84899 
L 666.978312 616.793087 
L 665.346641 611.733238 
L 663.274552 606.047526 
L 660.979507 600.380114 
L 658.200554 594.117211 
L 654.905097 587.284253 
L 651.400906 580.524367 
L 647.38619 573.247799 
L 642.863443 565.494926 
L 637.488948 556.734097 
L 631.284209 547.062027 
L 623.950225 536.049217 
L 613.845961 521.307852 
L 594.500225 493.158948 
L 587.37684 482.336773 
L 581.627367 473.189439 
L 576.82282 465.12754 
L 572.616556 457.639218 
L 568.943908 450.666487 
L 565.549661 443.757659 
L 562.417093 436.879635 
L 559.526109 429.998649 
L 556.853783 423.080464 
L 554.234512 415.676406 
L 551.66938 407.72832 
L 549.147696 399.162522 
L 546.528891 389.438354 
L 543.670547 377.914348 
L 540.165026 362.774576 
L 532.655192 328.97591 
L 526.43015 301.589407 
L 520.567404 276.832889 
L 513.953211 249.896879 
L 504.71173 213.293622 
L 490.906283 158.609214 
L 485.159242 134.881995 
L 480.752642 115.746809 
L 477.448484 100.470834 
L 474.806787 87.295431 
L 472.637622 75.377327 
L 470.936378 64.747243 
L 469.774413 56.163588 
L 468.971254 48.751696 
L 468.439341 41.773419 
L 468.218139 35.916077 
L 468.202909 34.061564 
L 468.202909 34.061564 
" style="fill:none;stroke:#ff7f0e;stroke-linecap:square;stroke-width:4;"/>
   </g>
   <g id="line2d_13">
    <path clip-path="url(#p4e2897ba0c)" d="M 874.597091 643.652836 
L 874.482502 633.226707 
L 874.094112 618.677773 
L 873.35841 599.655286 
L 872.312938 578.393417 
L 871.03094 556.738008 
L 869.545762 535.346727 
L 867.887771 514.679385 
L 866.088007 495.047635 
L 864.179712 476.65336 
L 862.198552 459.618174 
L 860.005657 442.711763 
L 857.785385 427.282681 
L 855.370024 412.074116 
L 852.979582 398.363176 
L 850.416581 384.901781 
L 847.678082 371.714343 
L 844.762011 358.821643 
L 841.955965 347.371513 
L 839.002046 336.190344 
L 835.900784 325.287138 
L 832.653419 314.669144 
L 829.26191 304.342006 
L 825.728948 294.309905 
L 822.057956 284.575694 
L 818.253084 275.141025 
L 814.319204 266.006465 
L 810.261897 257.171612 
L 806.087435 248.635196 
L 801.802764 240.395175 
L 797.415476 232.448833 
L 792.933784 224.792853 
L 788.366486 217.423402 
L 783.722934 210.3362 
L 779.012993 203.526585 
L 773.767732 196.350659 
L 768.469018 189.49756 
L 763.131764 182.959955 
L 757.771358 176.730257 
L 751.915791 170.276238 
L 746.072362 164.169081 
L 739.780277 157.932291 
L 733.554493 152.076883 
L 726.955116 146.182067 
L 720.042884 140.320348 
L 712.895337 134.56259 
L 705.608353 128.976522 
L 697.904288 123.343987 
L 689.297021 117.327197 
L 677.64921 109.48805 
L 667.865339 102.827322 
L 663.903093 99.870385 
L 661.377507 97.725891 
L 659.651833 95.977002 
L 658.530018 94.540712 
L 657.793814 93.257294 
L 657.362525 92.097867 
L 657.15434 90.936764 
L 657.157943 89.75548 
L 657.388087 88.420729 
L 657.882063 86.889936 
L 658.799404 84.831707 
L 660.783662 81.063209 
L 663.31757 76.132658 
L 664.97823 72.420641 
L 666.416822 68.654681 
L 667.593386 64.985616 
L 668.678331 60.859771 
L 669.559785 56.634458 
L 670.302418 51.944448 
L 670.831909 47.243056 
L 671.199533 42.09183 
L 671.383057 36.45787 
L 671.4 34.061564 
L 671.4 34.061564 
" style="fill:none;stroke:#2ca02c;stroke-linecap:square;stroke-width:4;"/>
   </g>
   <g id="patch_9">
    <path d="M 366.604364 674.1324 
L 366.604364 3.582 
" style="fill:none;stroke:#000000;stroke-linecap:square;stroke-linejoin:miter;stroke-width:0.8;"/>
   </g>
   <g id="patch_10">
    <path d="M 976.195636 674.1324 
L 976.195636 3.582 
" style="fill:none;stroke:#000000;stroke-linecap:square;stroke-linejoin:miter;stroke-width:0.8;"/>
   </g>
   <g id="patch_11">
    <path d="M 366.604364 674.1324 
L 976.195636 674.1324 
" style="fill:none;stroke:#000000;stroke-linecap:square;stroke-linejoin:miter;stroke-width:0.8;"/>
   </g>
   <g id="patch_12">
    <path d="M 366.604364 3.582 
L 976.195636 3.582 
" style="fill:none;stroke:#000000;stroke-linecap:square;stroke-linejoin:miter;stroke-width:0.8;"/>
   </g>
  </g>
 </g>
 <defs>
  <clipPath id="p4e2897ba0c">
   <rect height="670.5504" width="609.591273" x="366.604364" y="3.582"/>
  </clipPath>
 </defs>
</svg>
