<?xml version="1.0" encoding="utf-8" standalone="no"?>
<!DOCTYPE svg PUBLIC "-//W3C//DTD SVG 1.1//EN"
  "http://www.w3.org/Graphics/SVG/1.1/DTD/svg11.dtd">
<!-- Created with matplotlib (https://matplotlib.org/) -->
<svg height="692.64pt" version="1.1" viewBox="0 0 959.76 692.64" width="959.76pt" xmlns="http://www.w3.org/2000/svg" xmlns:xlink="http://www.w3.org/1999/xlink">
 <defs>
  <style type="text/css">
*{stroke-linecap:butt;stroke-linejoin:round;}
  </style>
 </defs>
 <g id="figure_1">
  <g id="patch_1">
   <path d="M 0 692.64 
L 959.76 692.64 
L 959.76 0 
L 0 0 
z
" style="fill:#ffffff;"/>
  </g>
  <g id="axes_1">
   <g id="patch_2">
    <path d="M 111.62 595.265794 
L 948.96 595.265794 
L 948.96 19.594544 
L 111.62 19.594544 
z
" style="fill:#ffffff;"/>
   </g>
   <g id="patch_3">
    <path clip-path="url(#pa4a05daaca)" d="M 294.788125 516.765169 
C 308.667198 516.765169 321.979688 511.250955 331.793675 501.436968 
C 341.607661 491.622982 347.121875 478.310491 347.121875 464.431419 
C 347.121875 450.552346 341.607661 437.239856 331.793675 427.425869 
C 321.979688 417.611883 308.667198 412.097669 294.788125 412.097669 
C 280.909052 412.097669 267.596562 417.611883 257.782575 427.425869 
C 247.968589 437.239856 242.454375 450.552346 242.454375 464.431419 
C 242.454375 478.310491 247.968589 491.622982 257.782575 501.436968 
C 267.596562 511.250955 280.909052 516.765169 294.788125 516.765169 
z
" style="fill:#ff0000;stroke:#000000;stroke-linejoin:miter;"/>
   </g>
   <g id="patch_4">
    <path clip-path="url(#pa4a05daaca)" d="M 451.789375 255.096419 
C 465.668448 255.096419 478.980938 249.582205 488.794925 239.768218 
C 498.608911 229.954232 504.123125 216.641741 504.123125 202.762669 
C 504.123125 188.883596 498.608911 175.571106 488.794925 165.757119 
C 478.980938 155.943133 465.668448 150.428919 451.789375 150.428919 
C 437.910302 150.428919 424.597812 155.943133 414.783825 165.757119 
C 404.969839 175.571106 399.455625 188.883596 399.455625 202.762669 
C 399.455625 216.641741 404.969839 229.954232 414.783825 239.768218 
C 424.597812 249.582205 437.910302 255.096419 451.789375 255.096419 
z
" style="fill:#008000;stroke:#000000;stroke-linejoin:miter;"/>
   </g>
   <g id="matplotlib.axis_1">
    <g id="xtick_1">
     <g id="line2d_1">
      <defs>
       <path d="M 0 0 
L 0 3.5 
" id="m63ddd0eb82" style="stroke:#000000;stroke-width:0.8;"/>
      </defs>
      <g>
       <use style="stroke:#000000;stroke-width:0.8;" x="137.786875" xlink:href="#m63ddd0eb82" y="595.265794"/>
      </g>
     </g>
     <g id="text_1">
      <!-- 0 -->
      <defs>
       <path d="M 31.78125 66.40625 
Q 24.171875 66.40625 20.328125 58.90625 
Q 16.5 51.421875 16.5 36.375 
Q 16.5 21.390625 20.328125 13.890625 
Q 24.171875 6.390625 31.78125 6.390625 
Q 39.453125 6.390625 43.28125 13.890625 
Q 47.125 21.390625 47.125 36.375 
Q 47.125 51.421875 43.28125 58.90625 
Q 39.453125 66.40625 31.78125 66.40625 
z
M 31.78125 74.21875 
Q 44.046875 74.21875 50.515625 64.515625 
Q 56.984375 54.828125 56.984375 36.375 
Q 56.984375 17.96875 50.515625 8.265625 
Q 44.046875 -1.421875 31.78125 -1.421875 
Q 19.53125 -1.421875 13.0625 8.265625 
Q 6.59375 17.96875 6.59375 36.375 
Q 6.59375 54.828125 13.0625 64.515625 
Q 19.53125 74.21875 31.78125 74.21875 
z
" id="DejaVuSans-48"/>
      </defs>
      <g transform="translate(125.061875 632.659544)scale(0.4 -0.4)">
       <use xlink:href="#DejaVuSans-48"/>
      </g>
     </g>
    </g>
    <g id="xtick_2">
     <g id="line2d_2">
      <g>
       <use style="stroke:#000000;stroke-width:0.8;" x="242.454375" xlink:href="#m63ddd0eb82" y="595.265794"/>
      </g>
     </g>
     <g id="text_2">
      <!-- 2 -->
      <defs>
       <path d="M 19.1875 8.296875 
L 53.609375 8.296875 
L 53.609375 0 
L 7.328125 0 
L 7.328125 8.296875 
Q 12.9375 14.109375 22.625 23.890625 
Q 32.328125 33.6875 34.8125 36.53125 
Q 39.546875 41.84375 41.421875 45.53125 
Q 43.3125 49.21875 43.3125 52.78125 
Q 43.3125 58.59375 39.234375 62.25 
Q 35.15625 65.921875 28.609375 65.921875 
Q 23.96875 65.921875 18.8125 64.3125 
Q 13.671875 62.703125 7.8125 59.421875 
L 7.8125 69.390625 
Q 13.765625 71.78125 18.9375 73 
Q 24.125 74.21875 28.421875 74.21875 
Q 39.75 74.21875 46.484375 68.546875 
Q 53.21875 62.890625 53.21875 53.421875 
Q 53.21875 48.921875 51.53125 44.890625 
Q 49.859375 40.875 45.40625 35.40625 
Q 44.1875 33.984375 37.640625 27.21875 
Q 31.109375 20.453125 19.1875 8.296875 
z
" id="DejaVuSans-50"/>
      </defs>
      <g transform="translate(229.729375 632.659544)scale(0.4 -0.4)">
       <use xlink:href="#DejaVuSans-50"/>
      </g>
     </g>
    </g>
    <g id="xtick_3">
     <g id="line2d_3">
      <g>
       <use style="stroke:#000000;stroke-width:0.8;" x="347.121875" xlink:href="#m63ddd0eb82" y="595.265794"/>
      </g>
     </g>
     <g id="text_3">
      <!-- 4 -->
      <defs>
       <path d="M 37.796875 64.3125 
L 12.890625 25.390625 
L 37.796875 25.390625 
z
M 35.203125 72.90625 
L 47.609375 72.90625 
L 47.609375 25.390625 
L 58.015625 25.390625 
L 58.015625 17.1875 
L 47.609375 17.1875 
L 47.609375 0 
L 37.796875 0 
L 37.796875 17.1875 
L 4.890625 17.1875 
L 4.890625 26.703125 
z
" id="DejaVuSans-52"/>
      </defs>
      <g transform="translate(334.396875 632.659544)scale(0.4 -0.4)">
       <use xlink:href="#DejaVuSans-52"/>
      </g>
     </g>
    </g>
    <g id="xtick_4">
     <g id="line2d_4">
      <g>
       <use style="stroke:#000000;stroke-width:0.8;" x="451.789375" xlink:href="#m63ddd0eb82" y="595.265794"/>
      </g>
     </g>
     <g id="text_4">
      <!-- 6 -->
      <defs>
       <path d="M 33.015625 40.375 
Q 26.375 40.375 22.484375 35.828125 
Q 18.609375 31.296875 18.609375 23.390625 
Q 18.609375 15.53125 22.484375 10.953125 
Q 26.375 6.390625 33.015625 6.390625 
Q 39.65625 6.390625 43.53125 10.953125 
Q 47.40625 15.53125 47.40625 23.390625 
Q 47.40625 31.296875 43.53125 35.828125 
Q 39.65625 40.375 33.015625 40.375 
z
M 52.59375 71.296875 
L 52.59375 62.3125 
Q 48.875 64.0625 45.09375 64.984375 
Q 41.3125 65.921875 37.59375 65.921875 
Q 27.828125 65.921875 22.671875 59.328125 
Q 17.53125 52.734375 16.796875 39.40625 
Q 19.671875 43.65625 24.015625 45.921875 
Q 28.375 48.1875 33.59375 48.1875 
Q 44.578125 48.1875 50.953125 41.515625 
Q 57.328125 34.859375 57.328125 23.390625 
Q 57.328125 12.15625 50.6875 5.359375 
Q 44.046875 -1.421875 33.015625 -1.421875 
Q 20.359375 -1.421875 13.671875 8.265625 
Q 6.984375 17.96875 6.984375 36.375 
Q 6.984375 53.65625 15.1875 63.9375 
Q 23.390625 74.21875 37.203125 74.21875 
Q 40.921875 74.21875 44.703125 73.484375 
Q 48.484375 72.75 52.59375 71.296875 
z
" id="DejaVuSans-54"/>
      </defs>
      <g transform="translate(439.064375 632.659544)scale(0.4 -0.4)">
       <use xlink:href="#DejaVuSans-54"/>
      </g>
     </g>
    </g>
    <g id="xtick_5">
     <g id="line2d_5">
      <g>
       <use style="stroke:#000000;stroke-width:0.8;" x="556.456875" xlink:href="#m63ddd0eb82" y="595.265794"/>
      </g>
     </g>
     <g id="text_5">
      <!-- 8 -->
      <defs>
       <path d="M 31.78125 34.625 
Q 24.75 34.625 20.71875 30.859375 
Q 16.703125 27.09375 16.703125 20.515625 
Q 16.703125 13.921875 20.71875 10.15625 
Q 24.75 6.390625 31.78125 6.390625 
Q 38.8125 6.390625 42.859375 10.171875 
Q 46.921875 13.96875 46.921875 20.515625 
Q 46.921875 27.09375 42.890625 30.859375 
Q 38.875 34.625 31.78125 34.625 
z
M 21.921875 38.8125 
Q 15.578125 40.375 12.03125 44.71875 
Q 8.5 49.078125 8.5 55.328125 
Q 8.5 64.0625 14.71875 69.140625 
Q 20.953125 74.21875 31.78125 74.21875 
Q 42.671875 74.21875 48.875 69.140625 
Q 55.078125 64.0625 55.078125 55.328125 
Q 55.078125 49.078125 51.53125 44.71875 
Q 48 40.375 41.703125 38.8125 
Q 48.828125 37.15625 52.796875 32.3125 
Q 56.78125 27.484375 56.78125 20.515625 
Q 56.78125 9.90625 50.3125 4.234375 
Q 43.84375 -1.421875 31.78125 -1.421875 
Q 19.734375 -1.421875 13.25 4.234375 
Q 6.78125 9.90625 6.78125 20.515625 
Q 6.78125 27.484375 10.78125 32.3125 
Q 14.796875 37.15625 21.921875 38.8125 
z
M 18.3125 54.390625 
Q 18.3125 48.734375 21.84375 45.5625 
Q 25.390625 42.390625 31.78125 42.390625 
Q 38.140625 42.390625 41.71875 45.5625 
Q 45.3125 48.734375 45.3125 54.390625 
Q 45.3125 60.0625 41.71875 63.234375 
Q 38.140625 66.40625 31.78125 66.40625 
Q 25.390625 66.40625 21.84375 63.234375 
Q 18.3125 60.0625 18.3125 54.390625 
z
" id="DejaVuSans-56"/>
      </defs>
      <g transform="translate(543.731875 632.659544)scale(0.4 -0.4)">
       <use xlink:href="#DejaVuSans-56"/>
      </g>
     </g>
    </g>
    <g id="xtick_6">
     <g id="line2d_6">
      <g>
       <use style="stroke:#000000;stroke-width:0.8;" x="661.124375" xlink:href="#m63ddd0eb82" y="595.265794"/>
      </g>
     </g>
     <g id="text_6">
      <!-- 10 -->
      <defs>
       <path d="M 12.40625 8.296875 
L 28.515625 8.296875 
L 28.515625 63.921875 
L 10.984375 60.40625 
L 10.984375 69.390625 
L 28.421875 72.90625 
L 38.28125 72.90625 
L 38.28125 8.296875 
L 54.390625 8.296875 
L 54.390625 0 
L 12.40625 0 
z
" id="DejaVuSans-49"/>
      </defs>
      <g transform="translate(635.674375 632.659544)scale(0.4 -0.4)">
       <use xlink:href="#DejaVuSans-49"/>
       <use x="63.623047" xlink:href="#DejaVuSans-48"/>
      </g>
     </g>
    </g>
    <g id="xtick_7">
     <g id="line2d_7">
      <g>
       <use style="stroke:#000000;stroke-width:0.8;" x="765.791875" xlink:href="#m63ddd0eb82" y="595.265794"/>
      </g>
     </g>
     <g id="text_7">
      <!-- 12 -->
      <g transform="translate(740.341875 632.659544)scale(0.4 -0.4)">
       <use xlink:href="#DejaVuSans-49"/>
       <use x="63.623047" xlink:href="#DejaVuSans-50"/>
      </g>
     </g>
    </g>
    <g id="xtick_8">
     <g id="line2d_8">
      <g>
       <use style="stroke:#000000;stroke-width:0.8;" x="870.459375" xlink:href="#m63ddd0eb82" y="595.265794"/>
      </g>
     </g>
     <g id="text_8">
      <!-- 14 -->
      <g transform="translate(845.009375 632.659544)scale(0.4 -0.4)">
       <use xlink:href="#DejaVuSans-49"/>
       <use x="63.623047" xlink:href="#DejaVuSans-52"/>
      </g>
     </g>
    </g>
    <g id="text_9">
     <!-- X Position (m) -->
     <defs>
      <path d="M 6.296875 72.90625 
L 16.890625 72.90625 
L 35.015625 45.796875 
L 53.21875 72.90625 
L 63.8125 72.90625 
L 40.375 37.890625 
L 65.375 0 
L 54.78125 0 
L 34.28125 31 
L 13.625 0 
L 2.984375 0 
L 29 38.921875 
z
" id="DejaVuSans-88"/>
      <path id="DejaVuSans-32"/>
      <path d="M 19.671875 64.796875 
L 19.671875 37.40625 
L 32.078125 37.40625 
Q 38.96875 37.40625 42.71875 40.96875 
Q 46.484375 44.53125 46.484375 51.125 
Q 46.484375 57.671875 42.71875 61.234375 
Q 38.96875 64.796875 32.078125 64.796875 
z
M 9.8125 72.90625 
L 32.078125 72.90625 
Q 44.34375 72.90625 50.609375 67.359375 
Q 56.890625 61.8125 56.890625 51.125 
Q 56.890625 40.328125 50.609375 34.8125 
Q 44.34375 29.296875 32.078125 29.296875 
L 19.671875 29.296875 
L 19.671875 0 
L 9.8125 0 
z
" id="DejaVuSans-80"/>
      <path d="M 30.609375 48.390625 
Q 23.390625 48.390625 19.1875 42.75 
Q 14.984375 37.109375 14.984375 27.296875 
Q 14.984375 17.484375 19.15625 11.84375 
Q 23.34375 6.203125 30.609375 6.203125 
Q 37.796875 6.203125 41.984375 11.859375 
Q 46.1875 17.53125 46.1875 27.296875 
Q 46.1875 37.015625 41.984375 42.703125 
Q 37.796875 48.390625 30.609375 48.390625 
z
M 30.609375 56 
Q 42.328125 56 49.015625 48.375 
Q 55.71875 40.765625 55.71875 27.296875 
Q 55.71875 13.875 49.015625 6.21875 
Q 42.328125 -1.421875 30.609375 -1.421875 
Q 18.84375 -1.421875 12.171875 6.21875 
Q 5.515625 13.875 5.515625 27.296875 
Q 5.515625 40.765625 12.171875 48.375 
Q 18.84375 56 30.609375 56 
z
" id="DejaVuSans-111"/>
      <path d="M 44.28125 53.078125 
L 44.28125 44.578125 
Q 40.484375 46.53125 36.375 47.5 
Q 32.28125 48.484375 27.875 48.484375 
Q 21.1875 48.484375 17.84375 46.4375 
Q 14.5 44.390625 14.5 40.28125 
Q 14.5 37.15625 16.890625 35.375 
Q 19.28125 33.59375 26.515625 31.984375 
L 29.59375 31.296875 
Q 39.15625 29.25 43.1875 25.515625 
Q 47.21875 21.78125 47.21875 15.09375 
Q 47.21875 7.46875 41.1875 3.015625 
Q 35.15625 -1.421875 24.609375 -1.421875 
Q 20.21875 -1.421875 15.453125 -0.5625 
Q 10.6875 0.296875 5.421875 2 
L 5.421875 11.28125 
Q 10.40625 8.6875 15.234375 7.390625 
Q 20.0625 6.109375 24.8125 6.109375 
Q 31.15625 6.109375 34.5625 8.28125 
Q 37.984375 10.453125 37.984375 14.40625 
Q 37.984375 18.0625 35.515625 20.015625 
Q 33.0625 21.96875 24.703125 23.78125 
L 21.578125 24.515625 
Q 13.234375 26.265625 9.515625 29.90625 
Q 5.8125 33.546875 5.8125 39.890625 
Q 5.8125 47.609375 11.28125 51.796875 
Q 16.75 56 26.8125 56 
Q 31.78125 56 36.171875 55.265625 
Q 40.578125 54.546875 44.28125 53.078125 
z
" id="DejaVuSans-115"/>
      <path d="M 9.421875 54.6875 
L 18.40625 54.6875 
L 18.40625 0 
L 9.421875 0 
z
M 9.421875 75.984375 
L 18.40625 75.984375 
L 18.40625 64.59375 
L 9.421875 64.59375 
z
" id="DejaVuSans-105"/>
      <path d="M 18.3125 70.21875 
L 18.3125 54.6875 
L 36.8125 54.6875 
L 36.8125 47.703125 
L 18.3125 47.703125 
L 18.3125 18.015625 
Q 18.3125 11.328125 20.140625 9.421875 
Q 21.96875 7.515625 27.59375 7.515625 
L 36.8125 7.515625 
L 36.8125 0 
L 27.59375 0 
Q 17.1875 0 13.234375 3.875 
Q 9.28125 7.765625 9.28125 18.015625 
L 9.28125 47.703125 
L 2.6875 47.703125 
L 2.6875 54.6875 
L 9.28125 54.6875 
L 9.28125 70.21875 
z
" id="DejaVuSans-116"/>
      <path d="M 54.890625 33.015625 
L 54.890625 0 
L 45.90625 0 
L 45.90625 32.71875 
Q 45.90625 40.484375 42.875 44.328125 
Q 39.84375 48.1875 33.796875 48.1875 
Q 26.515625 48.1875 22.3125 43.546875 
Q 18.109375 38.921875 18.109375 30.90625 
L 18.109375 0 
L 9.078125 0 
L 9.078125 54.6875 
L 18.109375 54.6875 
L 18.109375 46.1875 
Q 21.34375 51.125 25.703125 53.5625 
Q 30.078125 56 35.796875 56 
Q 45.21875 56 50.046875 50.171875 
Q 54.890625 44.34375 54.890625 33.015625 
z
" id="DejaVuSans-110"/>
      <path d="M 31 75.875 
Q 24.46875 64.65625 21.28125 53.65625 
Q 18.109375 42.671875 18.109375 31.390625 
Q 18.109375 20.125 21.3125 9.0625 
Q 24.515625 -2 31 -13.1875 
L 23.1875 -13.1875 
Q 15.875 -1.703125 12.234375 9.375 
Q 8.59375 20.453125 8.59375 31.390625 
Q 8.59375 42.28125 12.203125 53.3125 
Q 15.828125 64.359375 23.1875 75.875 
z
" id="DejaVuSans-40"/>
      <path d="M 52 44.1875 
Q 55.375 50.25 60.0625 53.125 
Q 64.75 56 71.09375 56 
Q 79.640625 56 84.28125 50.015625 
Q 88.921875 44.046875 88.921875 33.015625 
L 88.921875 0 
L 79.890625 0 
L 79.890625 32.71875 
Q 79.890625 40.578125 77.09375 44.375 
Q 74.3125 48.1875 68.609375 48.1875 
Q 61.625 48.1875 57.5625 43.546875 
Q 53.515625 38.921875 53.515625 30.90625 
L 53.515625 0 
L 44.484375 0 
L 44.484375 32.71875 
Q 44.484375 40.625 41.703125 44.40625 
Q 38.921875 48.1875 33.109375 48.1875 
Q 26.21875 48.1875 22.15625 43.53125 
Q 18.109375 38.875 18.109375 30.90625 
L 18.109375 0 
L 9.078125 0 
L 9.078125 54.6875 
L 18.109375 54.6875 
L 18.109375 46.1875 
Q 21.1875 51.21875 25.484375 53.609375 
Q 29.78125 56 35.6875 56 
Q 41.65625 56 45.828125 52.96875 
Q 50 49.953125 52 44.1875 
z
" id="DejaVuSans-109"/>
      <path d="M 8.015625 75.875 
L 15.828125 75.875 
Q 23.140625 64.359375 26.78125 53.3125 
Q 30.421875 42.28125 30.421875 31.390625 
Q 30.421875 20.453125 26.78125 9.375 
Q 23.140625 -1.703125 15.828125 -13.1875 
L 8.015625 -13.1875 
Q 14.5 -2 17.703125 9.0625 
Q 20.90625 20.125 20.90625 31.390625 
Q 20.90625 42.671875 17.703125 53.65625 
Q 14.5 64.65625 8.015625 75.875 
z
" id="DejaVuSans-41"/>
     </defs>
     <g transform="translate(390.93375 675.372044)scale(0.4 -0.4)">
      <use xlink:href="#DejaVuSans-88"/>
      <use x="68.505859" xlink:href="#DejaVuSans-32"/>
      <use x="100.292969" xlink:href="#DejaVuSans-80"/>
      <use x="156.970703" xlink:href="#DejaVuSans-111"/>
      <use x="218.152344" xlink:href="#DejaVuSans-115"/>
      <use x="270.251953" xlink:href="#DejaVuSans-105"/>
      <use x="298.035156" xlink:href="#DejaVuSans-116"/>
      <use x="337.244141" xlink:href="#DejaVuSans-105"/>
      <use x="365.027344" xlink:href="#DejaVuSans-111"/>
      <use x="426.208984" xlink:href="#DejaVuSans-110"/>
      <use x="489.587891" xlink:href="#DejaVuSans-32"/>
      <use x="521.375" xlink:href="#DejaVuSans-40"/>
      <use x="560.388672" xlink:href="#DejaVuSans-109"/>
      <use x="657.800781" xlink:href="#DejaVuSans-41"/>
     </g>
    </g>
   </g>
   <g id="matplotlib.axis_2">
    <g id="ytick_1">
     <g id="line2d_9">
      <defs>
       <path d="M 0 0 
L -3.5 0 
" id="me706b8a3c9" style="stroke:#000000;stroke-width:0.8;"/>
      </defs>
      <g>
       <use style="stroke:#000000;stroke-width:0.8;" x="111.62" xlink:href="#me706b8a3c9" y="569.098919"/>
      </g>
     </g>
     <g id="text_10">
      <!-- 0 -->
      <g transform="translate(79.17 584.295794)scale(0.4 -0.4)">
       <use xlink:href="#DejaVuSans-48"/>
      </g>
     </g>
    </g>
    <g id="ytick_2">
     <g id="line2d_10">
      <g>
       <use style="stroke:#000000;stroke-width:0.8;" x="111.62" xlink:href="#me706b8a3c9" y="464.431419"/>
      </g>
     </g>
     <g id="text_11">
      <!-- 2 -->
      <g transform="translate(79.17 479.628294)scale(0.4 -0.4)">
       <use xlink:href="#DejaVuSans-50"/>
      </g>
     </g>
    </g>
    <g id="ytick_3">
     <g id="line2d_11">
      <g>
       <use style="stroke:#000000;stroke-width:0.8;" x="111.62" xlink:href="#me706b8a3c9" y="359.763919"/>
      </g>
     </g>
     <g id="text_12">
      <!-- 4 -->
      <g transform="translate(79.17 374.960794)scale(0.4 -0.4)">
       <use xlink:href="#DejaVuSans-52"/>
      </g>
     </g>
    </g>
    <g id="ytick_4">
     <g id="line2d_12">
      <g>
       <use style="stroke:#000000;stroke-width:0.8;" x="111.62" xlink:href="#me706b8a3c9" y="255.096419"/>
      </g>
     </g>
     <g id="text_13">
      <!-- 6 -->
      <g transform="translate(79.17 270.293294)scale(0.4 -0.4)">
       <use xlink:href="#DejaVuSans-54"/>
      </g>
     </g>
    </g>
    <g id="ytick_5">
     <g id="line2d_13">
      <g>
       <use style="stroke:#000000;stroke-width:0.8;" x="111.62" xlink:href="#me706b8a3c9" y="150.428919"/>
      </g>
     </g>
     <g id="text_14">
      <!-- 8 -->
      <g transform="translate(79.17 165.625794)scale(0.4 -0.4)">
       <use xlink:href="#DejaVuSans-56"/>
      </g>
     </g>
    </g>
    <g id="ytick_6">
     <g id="line2d_14">
      <g>
       <use style="stroke:#000000;stroke-width:0.8;" x="111.62" xlink:href="#me706b8a3c9" y="45.761419"/>
      </g>
     </g>
     <g id="text_15">
      <!-- 10 -->
      <g transform="translate(53.72 60.958294)scale(0.4 -0.4)">
       <use xlink:href="#DejaVuSans-49"/>
       <use x="63.623047" xlink:href="#DejaVuSans-48"/>
      </g>
     </g>
    </g>
    <g id="text_16">
     <!-- Y Position (m) -->
     <defs>
      <path d="M -0.203125 72.90625 
L 10.40625 72.90625 
L 30.609375 42.921875 
L 50.6875 72.90625 
L 61.28125 72.90625 
L 35.5 34.71875 
L 35.5 0 
L 25.59375 0 
L 25.59375 34.71875 
z
" id="DejaVuSans-89"/>
     </defs>
     <g transform="translate(41.40125 445.302044)rotate(-90)scale(0.4 -0.4)">
      <use xlink:href="#DejaVuSans-89"/>
      <use x="61.083984" xlink:href="#DejaVuSans-32"/>
      <use x="92.871094" xlink:href="#DejaVuSans-80"/>
      <use x="149.548828" xlink:href="#DejaVuSans-111"/>
      <use x="210.730469" xlink:href="#DejaVuSans-115"/>
      <use x="262.830078" xlink:href="#DejaVuSans-105"/>
      <use x="290.613281" xlink:href="#DejaVuSans-116"/>
      <use x="329.822266" xlink:href="#DejaVuSans-105"/>
      <use x="357.605469" xlink:href="#DejaVuSans-111"/>
      <use x="418.787109" xlink:href="#DejaVuSans-110"/>
      <use x="482.166016" xlink:href="#DejaVuSans-32"/>
      <use x="513.953125" xlink:href="#DejaVuSans-40"/>
      <use x="552.966797" xlink:href="#DejaVuSans-109"/>
      <use x="650.378906" xlink:href="#DejaVuSans-41"/>
     </g>
    </g>
   </g>
   <g id="line2d_15">
    <path clip-path="url(#pa4a05daaca)" d="M 294.788125 569.098919 
L 294.892394 565.818507 
L 295.1945 562.672072 
L 295.762788 559.237758 
L 296.54936 555.970781 
L 297.535447 552.86369 
L 298.703744 549.907107 
L 300.038177 547.090033 
L 301.719282 544.072179 
L 303.571435 541.19608 
L 305.806788 538.14173 
L 308.452587 534.919748 
L 311.526029 531.523574 
L 315.583648 527.374313 
L 331.094745 511.853146 
L 334.800776 507.666534 
L 338.13917 503.55812 
L 341.104789 499.558856 
L 343.959194 495.314961 
L 346.442176 491.229599 
L 348.805794 486.916258 
L 351.039191 482.365953 
L 353.133051 477.571792 
L 355.079686 472.528928 
L 356.873089 467.234515 
L 358.508993 461.687642 
L 359.984898 455.889263 
L 361.300093 449.842121 
L 362.455653 443.55066 
L 363.545847 436.355143 
L 364.452596 428.881552 
L 365.242841 420.425857 
L 365.839662 411.672363 
L 366.288468 401.877725 
L 366.584488 390.211324 
L 366.688889 376.577321 
L 366.579045 358.407744 
L 366.221775 314.98243 
L 366.380897 300.418096 
L 366.720182 288.499274 
L 367.245437 277.538916 
L 367.939247 267.547211 
L 368.772266 258.519568 
L 369.810584 249.639743 
L 370.944752 241.71265 
L 372.269677 233.939117 
L 373.793027 226.332775 
L 375.520838 218.906284 
L 377.254304 212.385836 
L 379.158877 206.028174 
L 381.235348 199.840192 
L 383.483333 193.82795 
L 385.901264 187.996626 
L 388.486401 182.350476 
L 391.234838 176.892789 
L 394.141527 171.625854 
L 397.200306 166.550918 
L 400.403933 161.668156 
L 403.74413 156.976643 
L 407.211636 152.474324 
L 410.796257 148.157996 
L 414.90305 143.574862 
L 419.124436 139.208234 
L 423.442997 135.048624 
L 428.283685 130.69865 
L 433.643013 126.202713 
L 439.502382 121.596295 
L 446.27434 116.574288 
L 455.203903 110.257643 
L 469.674147 100.050475 
L 475.213241 95.861619 
L 479.703012 92.20193 
L 483.578787 88.75406 
L 486.880996 85.516291 
L 489.65676 82.500314 
L 492.232587 79.373549 
L 494.343487 76.491625 
L 496.276328 73.506038 
L 498.021573 70.41166 
L 499.569527 67.205305 
L 500.910232 63.886023 
L 502.033365 60.45542 
L 502.928102 56.918003 
L 503.51465 53.741169 
L 503.909392 50.495954 
L 504.103591 47.192225 
L 504.123125 45.761419 
L 504.123125 45.761419 
" style="fill:none;stroke:#1f77b4;stroke-linecap:square;stroke-width:4;"/>
   </g>
   <g id="line2d_16">
    <path clip-path="url(#pa4a05daaca)" d="M 294.788125 569.098919 
L 294.905843 565.63354 
L 295.238629 562.405933 
L 295.762349 559.380891 
L 296.547555 556.219747 
L 297.531536 553.232931 
L 298.704016 550.386984 
L 300.058355 547.651639 
L 301.752673 544.737362 
L 303.839425 541.631987 
L 306.372094 538.307376 
L 309.401122 534.7162 
L 313.46652 530.25474 
L 329.947806 512.522261 
L 334.121632 507.512177 
L 337.687653 502.89974 
L 340.91372 498.392507 
L 344.070314 493.602062 
L 346.857451 488.990157 
L 349.546877 484.125111 
L 352.121635 479.00067 
L 354.566558 473.612493 
L 356.868481 467.958212 
L 359.016417 462.037453 
L 361.001692 455.851859 
L 362.818049 449.405075 
L 364.461701 442.702722 
L 365.931358 435.752357 
L 367.228212 428.563401 
L 368.459559 420.393412 
L 369.49435 411.965614 
L 370.343948 403.29959 
L 371.076563 393.599572 
L 371.66701 382.836074 
L 372.128103 370.140668 
L 372.447884 354.60896 
L 372.685973 330.085705 
L 372.993412 305.54644 
L 373.398727 290.84183 
L 373.93678 278.930547 
L 374.64587 268.0801 
L 375.509772 258.278595 
L 376.499239 249.499431 
L 377.694191 240.937179 
L 378.970295 233.356353 
L 380.435863 225.9809 
L 382.097501 218.820786 
L 383.76461 212.567684 
L 385.59665 206.500588 
L 387.594626 200.623183 
L 389.758335 194.937977 
L 392.086387 189.446286 
L 394.576224 184.148227 
L 397.224149 179.042722 
L 400.025362 174.127497 
L 402.973999 169.399097 
L 406.063176 164.852904 
L 409.285037 160.483163 
L 413.009794 155.826455 
L 416.874203 151.368114 
L 420.863732 147.095609 
L 425.377979 142.593736 
L 430.427317 137.895492 
L 436.009301 133.023404 
L 442.541338 127.631867 
L 451.726019 120.377186 
L 465.399811 109.58731 
L 471.496862 104.476618 
L 476.157596 100.302735 
L 480.223346 96.383122 
L 483.721302 92.725692 
L 487.006962 88.966921 
L 489.764155 85.49089 
L 492.315754 81.923689 
L 494.646914 78.265833 
L 496.74383 74.521655 
L 498.401003 71.128005 
L 499.855617 67.682532 
L 501.101377 64.198371 
L 502.133596 60.692729 
L 502.94952 57.187388 
L 503.548703 53.709254 
L 503.933444 50.290964 
L 504.116986 46.56578 
L 504.123125 45.761419 
L 504.123125 45.761419 
" style="fill:none;stroke:#ff7f0e;stroke-linecap:square;stroke-width:4;"/>
   </g>
   <g id="line2d_17">
    <path clip-path="url(#pa4a05daaca)" d="M 294.788125 569.098919 
L 294.909661 565.70025 
L 295.231497 562.933932 
L 295.726149 560.650713 
L 296.303036 559.02519 
L 296.946597 557.87633 
L 297.711662 556.97838 
L 299.086481 555.775897 
L 304.194869 551.451542 
L 308.199867 547.73242 
L 312.243896 543.686553 
L 316.362551 539.256229 
L 320.307008 534.696858 
L 324.19305 529.870183 
L 327.9169 524.895332 
L 331.400787 519.890449 
L 334.91041 514.457273 
L 338.089605 509.146148 
L 341.22783 503.482685 
L 344.297438 497.470602 
L 347.272787 491.115541 
L 349.850775 485.108959 
L 352.318605 478.837526 
L 354.663321 472.309347 
L 356.874122 465.53375 
L 358.942465 458.521255 
L 360.862121 451.283535 
L 362.816036 442.993035 
L 364.579675 434.459276 
L 366.154544 425.702723 
L 367.545489 416.745163 
L 368.872743 406.687118 
L 370.00194 396.445615 
L 371.029872 385.102822 
L 371.93597 372.664327 
L 372.766895 358.190881 
L 373.636014 338.837786 
L 375.430272 296.987064 
L 376.331136 282.322239 
L 377.256104 270.722836 
L 378.300535 260.304924 
L 379.442745 251.023995 
L 380.78043 242.019877 
L 382.178922 234.088308 
L 383.760661 226.409261 
L 385.532664 218.990979 
L 387.294206 212.542654 
L 389.215893 206.313706 
L 391.298412 200.305874 
L 393.541111 194.519536 
L 395.942047 188.953708 
L 398.498041 183.606062 
L 401.204746 178.47294 
L 404.056717 173.549377 
L 407.047482 168.829136 
L 410.16962 164.304739 
L 413.414836 159.967511 
L 417.153898 155.355902 
L 421.020136 150.948156 
L 425.402515 146.315217 
L 429.900566 141.884674 
L 434.913792 137.25154 
L 440.863832 132.063223 
L 448.596892 125.642313 
L 467.207774 110.330137 
L 472.821491 105.337498 
L 477.430607 100.935969 
L 481.452858 96.775633 
L 484.911907 92.873679 
L 487.842254 89.256316 
L 490.580015 85.535377 
L 493.106761 81.711411 
L 495.161205 78.229864 
L 497.023068 74.678022 
L 498.681573 71.066885 
L 500.127335 67.411873 
L 501.352831 63.733449 
L 502.352947 60.057812 
L 503.12564 56.417655 
L 503.672695 52.853014 
L 504.026742 48.993564 
L 504.123125 45.761419 
L 504.123125 45.761419 
" style="fill:none;stroke:#2ca02c;stroke-linecap:square;stroke-width:4;"/>
   </g>
   <g id="line2d_18">
    <path clip-path="url(#pa4a05daaca)" d="M 294.788125 569.098919 
L 294.89143 565.990227 
L 295.176565 563.433666 
L 295.604916 561.430752 
L 296.149218 559.93234 
L 296.759267 558.909017 
L 297.449218 558.177603 
L 298.45811 557.461461 
L 304.703976 553.547661 
L 307.352906 551.433448 
L 310.011782 549.023418 
L 312.745428 546.249912 
L 315.470143 543.184294 
L 318.359245 539.594443 
L 321.124275 535.814711 
L 323.972916 531.544578 
L 326.876821 526.766124 
L 329.540615 521.969408 
L 332.205331 516.734285 
L 334.850718 511.057043 
L 337.4578 504.937345 
L 340.009241 498.378298 
L 342.489656 491.386486 
L 344.885858 483.971956 
L 347.187054 476.148157 
L 349.384973 467.931848 
L 351.676711 458.464426 
L 353.83279 448.576918 
L 355.853104 438.30403 
L 357.906489 426.70285 
L 359.964289 413.731669 
L 362.006378 399.37622 
L 364.155714 382.601025 
L 366.643036 361.298701 
L 373.41041 302.072415 
L 375.562915 285.871703 
L 377.611428 272.141039 
L 379.681064 259.825647 
L 381.753873 248.870611 
L 383.803053 239.203999 
L 386.003316 229.916514 
L 388.139577 221.815032 
L 390.408162 214.047478 
L 392.81012 206.61909 
L 395.344954 199.532215 
L 398.010685 192.786389 
L 400.803948 186.378424 
L 403.423107 180.895395 
L 406.137617 175.675445 
L 409.259607 170.174928 
L 412.485691 164.97767 
L 415.807501 160.069388 
L 419.216009 155.433997 
L 422.701661 151.053804 
L 426.613074 146.507514 
L 430.592078 142.219791 
L 434.993447 137.803618 
L 439.812181 133.283636 
L 445.407405 128.345398 
L 452.865077 122.092376 
L 468.840016 108.816955 
L 474.007376 104.190272 
L 478.311247 100.054709 
L 482.109148 96.101688 
L 485.417516 92.343898 
L 488.260736 88.805027 
L 490.927851 85.143084 
L 493.399283 81.356459 
L 495.439855 77.844749 
L 497.291531 74.241827 
L 498.940598 70.559512 
L 500.374503 66.815383 
L 501.58255 63.033808 
L 502.556782 59.247141 
L 503.293046 55.497103 
L 503.79228 51.836375 
L 504.062051 48.330423 
L 504.123125 45.761419 
L 504.123125 45.761419 
" style="fill:none;stroke:#d62728;stroke-linecap:square;stroke-width:4;"/>
   </g>
   <g id="patch_5">
    <path d="M 111.62 595.265794 
L 111.62 19.594544 
" style="fill:none;stroke:#000000;stroke-linecap:square;stroke-linejoin:miter;stroke-width:0.8;"/>
   </g>
   <g id="patch_6">
    <path d="M 948.96 595.265794 
L 948.96 19.594544 
" style="fill:none;stroke:#000000;stroke-linecap:square;stroke-linejoin:miter;stroke-width:0.8;"/>
   </g>
   <g id="patch_7">
    <path d="M 111.62 595.265794 
L 948.96 595.265794 
" style="fill:none;stroke:#000000;stroke-linecap:square;stroke-linejoin:miter;stroke-width:0.8;"/>
   </g>
   <g id="patch_8">
    <path d="M 111.62 19.594544 
L 948.96 19.594544 
" style="fill:none;stroke:#000000;stroke-linecap:square;stroke-linejoin:miter;stroke-width:0.8;"/>
   </g>
   <g id="legend_1">
    <g id="patch_9">
     <path d="M 467.24125 575.265794 
L 920.96 575.265794 
Q 928.96 575.265794 928.96 567.265794 
L 928.96 336.415794 
Q 928.96 328.415794 920.96 328.415794 
L 467.24125 328.415794 
Q 459.24125 328.415794 459.24125 336.415794 
L 459.24125 567.265794 
Q 459.24125 575.265794 467.24125 575.265794 
z
" style="fill:#ffffff;opacity:0.8;stroke:#cccccc;stroke-linejoin:miter;"/>
    </g>
    <g id="line2d_19">
     <path d="M 475.24125 360.809544 
L 555.24125 360.809544 
" style="fill:none;stroke:#1f77b4;stroke-linecap:square;stroke-width:4;"/>
    </g>
    <g id="line2d_20"/>
    <g id="text_17">
     <!-- No Elevation -->
     <defs>
      <path d="M 9.8125 72.90625 
L 23.09375 72.90625 
L 55.421875 11.921875 
L 55.421875 72.90625 
L 64.984375 72.90625 
L 64.984375 0 
L 51.703125 0 
L 19.390625 60.984375 
L 19.390625 0 
L 9.8125 0 
z
" id="DejaVuSans-78"/>
      <path d="M 9.8125 72.90625 
L 55.90625 72.90625 
L 55.90625 64.59375 
L 19.671875 64.59375 
L 19.671875 43.015625 
L 54.390625 43.015625 
L 54.390625 34.71875 
L 19.671875 34.71875 
L 19.671875 8.296875 
L 56.78125 8.296875 
L 56.78125 0 
L 9.8125 0 
z
" id="DejaVuSans-69"/>
      <path d="M 9.421875 75.984375 
L 18.40625 75.984375 
L 18.40625 0 
L 9.421875 0 
z
" id="DejaVuSans-108"/>
      <path d="M 56.203125 29.59375 
L 56.203125 25.203125 
L 14.890625 25.203125 
Q 15.484375 15.921875 20.484375 11.0625 
Q 25.484375 6.203125 34.421875 6.203125 
Q 39.59375 6.203125 44.453125 7.46875 
Q 49.3125 8.734375 54.109375 11.28125 
L 54.109375 2.78125 
Q 49.265625 0.734375 44.1875 -0.34375 
Q 39.109375 -1.421875 33.890625 -1.421875 
Q 20.796875 -1.421875 13.15625 6.1875 
Q 5.515625 13.8125 5.515625 26.8125 
Q 5.515625 40.234375 12.765625 48.109375 
Q 20.015625 56 32.328125 56 
Q 43.359375 56 49.78125 48.890625 
Q 56.203125 41.796875 56.203125 29.59375 
z
M 47.21875 32.234375 
Q 47.125 39.59375 43.09375 43.984375 
Q 39.0625 48.390625 32.421875 48.390625 
Q 24.90625 48.390625 20.390625 44.140625 
Q 15.875 39.890625 15.1875 32.171875 
z
" id="DejaVuSans-101"/>
      <path d="M 2.984375 54.6875 
L 12.5 54.6875 
L 29.59375 8.796875 
L 46.6875 54.6875 
L 56.203125 54.6875 
L 35.6875 0 
L 23.484375 0 
z
" id="DejaVuSans-118"/>
      <path d="M 34.28125 27.484375 
Q 23.390625 27.484375 19.1875 25 
Q 14.984375 22.515625 14.984375 16.5 
Q 14.984375 11.71875 18.140625 8.90625 
Q 21.296875 6.109375 26.703125 6.109375 
Q 34.1875 6.109375 38.703125 11.40625 
Q 43.21875 16.703125 43.21875 25.484375 
L 43.21875 27.484375 
z
M 52.203125 31.203125 
L 52.203125 0 
L 43.21875 0 
L 43.21875 8.296875 
Q 40.140625 3.328125 35.546875 0.953125 
Q 30.953125 -1.421875 24.3125 -1.421875 
Q 15.921875 -1.421875 10.953125 3.296875 
Q 6 8.015625 6 15.921875 
Q 6 25.140625 12.171875 29.828125 
Q 18.359375 34.515625 30.609375 34.515625 
L 43.21875 34.515625 
L 43.21875 35.40625 
Q 43.21875 41.609375 39.140625 45 
Q 35.0625 48.390625 27.6875 48.390625 
Q 23 48.390625 18.546875 47.265625 
Q 14.109375 46.140625 10.015625 43.890625 
L 10.015625 52.203125 
Q 14.9375 54.109375 19.578125 55.046875 
Q 24.21875 56 28.609375 56 
Q 40.484375 56 46.34375 49.84375 
Q 52.203125 43.703125 52.203125 31.203125 
z
" id="DejaVuSans-97"/>
     </defs>
     <g transform="translate(587.24125 374.809544)scale(0.4 -0.4)">
      <use xlink:href="#DejaVuSans-78"/>
      <use x="74.804688" xlink:href="#DejaVuSans-111"/>
      <use x="135.986328" xlink:href="#DejaVuSans-32"/>
      <use x="167.773438" xlink:href="#DejaVuSans-69"/>
      <use x="230.957031" xlink:href="#DejaVuSans-108"/>
      <use x="258.740234" xlink:href="#DejaVuSans-101"/>
      <use x="320.263672" xlink:href="#DejaVuSans-118"/>
      <use x="379.443359" xlink:href="#DejaVuSans-97"/>
      <use x="440.722656" xlink:href="#DejaVuSans-116"/>
      <use x="479.931641" xlink:href="#DejaVuSans-105"/>
      <use x="507.714844" xlink:href="#DejaVuSans-111"/>
      <use x="568.896484" xlink:href="#DejaVuSans-110"/>
     </g>
    </g>
    <g id="line2d_21">
     <path d="M 475.24125 419.522044 
L 555.24125 419.522044 
" style="fill:none;stroke:#ff7f0e;stroke-linecap:square;stroke-width:4;"/>
    </g>
    <g id="line2d_22"/>
    <g id="text_18">
     <!-- Elevated by 30 -->
     <defs>
      <path d="M 45.40625 46.390625 
L 45.40625 75.984375 
L 54.390625 75.984375 
L 54.390625 0 
L 45.40625 0 
L 45.40625 8.203125 
Q 42.578125 3.328125 38.25 0.953125 
Q 33.9375 -1.421875 27.875 -1.421875 
Q 17.96875 -1.421875 11.734375 6.484375 
Q 5.515625 14.40625 5.515625 27.296875 
Q 5.515625 40.1875 11.734375 48.09375 
Q 17.96875 56 27.875 56 
Q 33.9375 56 38.25 53.625 
Q 42.578125 51.265625 45.40625 46.390625 
z
M 14.796875 27.296875 
Q 14.796875 17.390625 18.875 11.75 
Q 22.953125 6.109375 30.078125 6.109375 
Q 37.203125 6.109375 41.296875 11.75 
Q 45.40625 17.390625 45.40625 27.296875 
Q 45.40625 37.203125 41.296875 42.84375 
Q 37.203125 48.484375 30.078125 48.484375 
Q 22.953125 48.484375 18.875 42.84375 
Q 14.796875 37.203125 14.796875 27.296875 
z
" id="DejaVuSans-100"/>
      <path d="M 48.6875 27.296875 
Q 48.6875 37.203125 44.609375 42.84375 
Q 40.53125 48.484375 33.40625 48.484375 
Q 26.265625 48.484375 22.1875 42.84375 
Q 18.109375 37.203125 18.109375 27.296875 
Q 18.109375 17.390625 22.1875 11.75 
Q 26.265625 6.109375 33.40625 6.109375 
Q 40.53125 6.109375 44.609375 11.75 
Q 48.6875 17.390625 48.6875 27.296875 
z
M 18.109375 46.390625 
Q 20.953125 51.265625 25.265625 53.625 
Q 29.59375 56 35.59375 56 
Q 45.5625 56 51.78125 48.09375 
Q 58.015625 40.1875 58.015625 27.296875 
Q 58.015625 14.40625 51.78125 6.484375 
Q 45.5625 -1.421875 35.59375 -1.421875 
Q 29.59375 -1.421875 25.265625 0.953125 
Q 20.953125 3.328125 18.109375 8.203125 
L 18.109375 0 
L 9.078125 0 
L 9.078125 75.984375 
L 18.109375 75.984375 
z
" id="DejaVuSans-98"/>
      <path d="M 32.171875 -5.078125 
Q 28.375 -14.84375 24.75 -17.8125 
Q 21.140625 -20.796875 15.09375 -20.796875 
L 7.90625 -20.796875 
L 7.90625 -13.28125 
L 13.1875 -13.28125 
Q 16.890625 -13.28125 18.9375 -11.515625 
Q 21 -9.765625 23.484375 -3.21875 
L 25.09375 0.875 
L 2.984375 54.6875 
L 12.5 54.6875 
L 29.59375 11.921875 
L 46.6875 54.6875 
L 56.203125 54.6875 
z
" id="DejaVuSans-121"/>
      <path d="M 40.578125 39.3125 
Q 47.65625 37.796875 51.625 33 
Q 55.609375 28.21875 55.609375 21.1875 
Q 55.609375 10.40625 48.1875 4.484375 
Q 40.765625 -1.421875 27.09375 -1.421875 
Q 22.515625 -1.421875 17.65625 -0.515625 
Q 12.796875 0.390625 7.625 2.203125 
L 7.625 11.71875 
Q 11.71875 9.328125 16.59375 8.109375 
Q 21.484375 6.890625 26.8125 6.890625 
Q 36.078125 6.890625 40.9375 10.546875 
Q 45.796875 14.203125 45.796875 21.1875 
Q 45.796875 27.640625 41.28125 31.265625 
Q 36.765625 34.90625 28.71875 34.90625 
L 20.21875 34.90625 
L 20.21875 43.015625 
L 29.109375 43.015625 
Q 36.375 43.015625 40.234375 45.921875 
Q 44.09375 48.828125 44.09375 54.296875 
Q 44.09375 59.90625 40.109375 62.90625 
Q 36.140625 65.921875 28.71875 65.921875 
Q 24.65625 65.921875 20.015625 65.03125 
Q 15.375 64.15625 9.8125 62.3125 
L 9.8125 71.09375 
Q 15.4375 72.65625 20.34375 73.4375 
Q 25.25 74.21875 29.59375 74.21875 
Q 40.828125 74.21875 47.359375 69.109375 
Q 53.90625 64.015625 53.90625 55.328125 
Q 53.90625 49.265625 50.4375 45.09375 
Q 46.96875 40.921875 40.578125 39.3125 
z
" id="DejaVuSans-51"/>
     </defs>
     <g transform="translate(587.24125 433.522044)scale(0.4 -0.4)">
      <use xlink:href="#DejaVuSans-69"/>
      <use x="63.183594" xlink:href="#DejaVuSans-108"/>
      <use x="90.966797" xlink:href="#DejaVuSans-101"/>
      <use x="152.490234" xlink:href="#DejaVuSans-118"/>
      <use x="211.669922" xlink:href="#DejaVuSans-97"/>
      <use x="272.949219" xlink:href="#DejaVuSans-116"/>
      <use x="312.158203" xlink:href="#DejaVuSans-101"/>
      <use x="373.681641" xlink:href="#DejaVuSans-100"/>
      <use x="437.158203" xlink:href="#DejaVuSans-32"/>
      <use x="468.945312" xlink:href="#DejaVuSans-98"/>
      <use x="532.421875" xlink:href="#DejaVuSans-121"/>
      <use x="591.601562" xlink:href="#DejaVuSans-32"/>
      <use x="623.388672" xlink:href="#DejaVuSans-51"/>
      <use x="687.011719" xlink:href="#DejaVuSans-48"/>
     </g>
    </g>
    <g id="line2d_23">
     <path d="M 475.24125 478.234544 
L 555.24125 478.234544 
" style="fill:none;stroke:#2ca02c;stroke-linecap:square;stroke-width:4;"/>
    </g>
    <g id="line2d_24"/>
    <g id="text_19">
     <!-- Elevated by 100 -->
     <g transform="translate(587.24125 492.234544)scale(0.4 -0.4)">
      <use xlink:href="#DejaVuSans-69"/>
      <use x="63.183594" xlink:href="#DejaVuSans-108"/>
      <use x="90.966797" xlink:href="#DejaVuSans-101"/>
      <use x="152.490234" xlink:href="#DejaVuSans-118"/>
      <use x="211.669922" xlink:href="#DejaVuSans-97"/>
      <use x="272.949219" xlink:href="#DejaVuSans-116"/>
      <use x="312.158203" xlink:href="#DejaVuSans-101"/>
      <use x="373.681641" xlink:href="#DejaVuSans-100"/>
      <use x="437.158203" xlink:href="#DejaVuSans-32"/>
      <use x="468.945312" xlink:href="#DejaVuSans-98"/>
      <use x="532.421875" xlink:href="#DejaVuSans-121"/>
      <use x="591.601562" xlink:href="#DejaVuSans-32"/>
      <use x="623.388672" xlink:href="#DejaVuSans-49"/>
      <use x="687.011719" xlink:href="#DejaVuSans-48"/>
      <use x="750.634766" xlink:href="#DejaVuSans-48"/>
     </g>
    </g>
    <g id="line2d_25">
     <path d="M 475.24125 536.947044 
L 555.24125 536.947044 
" style="fill:none;stroke:#d62728;stroke-linecap:square;stroke-width:4;"/>
    </g>
    <g id="line2d_26"/>
    <g id="text_20">
     <!-- Exact Extrema -->
     <defs>
      <path d="M 54.890625 54.6875 
L 35.109375 28.078125 
L 55.90625 0 
L 45.3125 0 
L 29.390625 21.484375 
L 13.484375 0 
L 2.875 0 
L 24.125 28.609375 
L 4.6875 54.6875 
L 15.28125 54.6875 
L 29.78125 35.203125 
L 44.28125 54.6875 
z
" id="DejaVuSans-120"/>
      <path d="M 48.78125 52.59375 
L 48.78125 44.1875 
Q 44.96875 46.296875 41.140625 47.34375 
Q 37.3125 48.390625 33.40625 48.390625 
Q 24.65625 48.390625 19.8125 42.84375 
Q 14.984375 37.3125 14.984375 27.296875 
Q 14.984375 17.28125 19.8125 11.734375 
Q 24.65625 6.203125 33.40625 6.203125 
Q 37.3125 6.203125 41.140625 7.25 
Q 44.96875 8.296875 48.78125 10.40625 
L 48.78125 2.09375 
Q 45.015625 0.34375 40.984375 -0.53125 
Q 36.96875 -1.421875 32.421875 -1.421875 
Q 20.0625 -1.421875 12.78125 6.34375 
Q 5.515625 14.109375 5.515625 27.296875 
Q 5.515625 40.671875 12.859375 48.328125 
Q 20.21875 56 33.015625 56 
Q 37.15625 56 41.109375 55.140625 
Q 45.0625 54.296875 48.78125 52.59375 
z
" id="DejaVuSans-99"/>
      <path d="M 41.109375 46.296875 
Q 39.59375 47.171875 37.8125 47.578125 
Q 36.03125 48 33.890625 48 
Q 26.265625 48 22.1875 43.046875 
Q 18.109375 38.09375 18.109375 28.8125 
L 18.109375 0 
L 9.078125 0 
L 9.078125 54.6875 
L 18.109375 54.6875 
L 18.109375 46.1875 
Q 20.953125 51.171875 25.484375 53.578125 
Q 30.03125 56 36.53125 56 
Q 37.453125 56 38.578125 55.875 
Q 39.703125 55.765625 41.0625 55.515625 
z
" id="DejaVuSans-114"/>
     </defs>
     <g transform="translate(587.24125 550.947044)scale(0.4 -0.4)">
      <use xlink:href="#DejaVuSans-69"/>
      <use x="63.183594" xlink:href="#DejaVuSans-120"/>
      <use x="122.363281" xlink:href="#DejaVuSans-97"/>
      <use x="183.642578" xlink:href="#DejaVuSans-99"/>
      <use x="238.623047" xlink:href="#DejaVuSans-116"/>
      <use x="277.832031" xlink:href="#DejaVuSans-32"/>
      <use x="309.619141" xlink:href="#DejaVuSans-69"/>
      <use x="372.802734" xlink:href="#DejaVuSans-120"/>
      <use x="431.982422" xlink:href="#DejaVuSans-116"/>
      <use x="471.191406" xlink:href="#DejaVuSans-114"/>
      <use x="510.054688" xlink:href="#DejaVuSans-101"/>
      <use x="571.578125" xlink:href="#DejaVuSans-109"/>
      <use x="668.990234" xlink:href="#DejaVuSans-97"/>
     </g>
    </g>
   </g>
  </g>
 </g>
 <defs>
  <clipPath id="pa4a05daaca">
   <rect height="575.67125" width="837.34" x="111.62" y="19.594544"/>
  </clipPath>
 </defs>
</svg>
