<?xml version="1.0" encoding="utf-8" standalone="no"?>
<!DOCTYPE svg PUBLIC "-//W3C//DTD SVG 1.1//EN"
  "http://www.w3.org/Graphics/SVG/1.1/DTD/svg11.dtd">
<!-- Created with matplotlib (https://matplotlib.org/) -->
<svg height="720pt" version="1.1" viewBox="0 0 959.976 720" width="959.976pt" xmlns="http://www.w3.org/2000/svg" xmlns:xlink="http://www.w3.org/1999/xlink">
 <defs>
  <style type="text/css">
*{stroke-linecap:butt;stroke-linejoin:round;}
  </style>
 </defs>
 <g id="figure_1">
  <g id="patch_1">
   <path d="M 0 720 
L 959.976 720 
L 959.976 0 
L 0 0 
z
" style="fill:#ffffff;"/>
  </g>
  <g id="axes_1">
   <g id="patch_2">
    <path d="M 182.27 588.04 
L 872.181 588.04 
L 872.181 58.32 
L 182.27 58.32 
z
" style="fill:#ffffff;"/>
   </g>
   <g id="patch_3">
    <path clip-path="url(#p99c8667e4a)" d="M 368.015269 445.423077 
C 382.089618 445.423077 395.589413 441.129643 405.541481 433.488354 
C 415.493548 425.847065 421.085346 415.481799 421.085346 404.675385 
C 421.085346 393.86897 415.493548 383.503704 405.541481 375.862415 
C 395.589413 368.221126 382.089618 363.927692 368.015269 363.927692 
C 353.94092 363.927692 340.441126 368.221126 330.489058 375.862415 
C 320.53699 383.503704 314.945192 393.86897 314.945192 404.675385 
C 314.945192 415.481799 320.53699 425.847065 330.489058 433.488354 
C 340.441126 441.129643 353.94092 445.423077 368.015269 445.423077 
z
" style="fill:#1f77b4;stroke:#000000;stroke-linejoin:miter;stroke-width:4;"/>
   </g>
   <g id="matplotlib.axis_1">
    <g id="xtick_1">
     <g id="line2d_1">
      <defs>
       <path d="M 0 0 
L 0 3.5 
" id="mffff2bf5b6" style="stroke:#000000;stroke-width:0.8;"/>
      </defs>
      <g>
       <use style="stroke:#000000;stroke-width:0.8;" x="208.805038" xlink:href="#mffff2bf5b6" y="588.04"/>
      </g>
     </g>
     <g id="text_1">
      <!-- 0 -->
      <defs>
       <path d="M 31.78125 66.40625 
Q 24.171875 66.40625 20.328125 58.90625 
Q 16.5 51.421875 16.5 36.375 
Q 16.5 21.390625 20.328125 13.890625 
Q 24.171875 6.390625 31.78125 6.390625 
Q 39.453125 6.390625 43.28125 13.890625 
Q 47.125 21.390625 47.125 36.375 
Q 47.125 51.421875 43.28125 58.90625 
Q 39.453125 66.40625 31.78125 66.40625 
z
M 31.78125 74.21875 
Q 44.046875 74.21875 50.515625 64.515625 
Q 56.984375 54.828125 56.984375 36.375 
Q 56.984375 17.96875 50.515625 8.265625 
Q 44.046875 -1.421875 31.78125 -1.421875 
Q 19.53125 -1.421875 13.0625 8.265625 
Q 6.59375 17.96875 6.59375 36.375 
Q 6.59375 54.828125 13.0625 64.515625 
Q 19.53125 74.21875 31.78125 74.21875 
z
" id="DejaVuSans-48"/>
      </defs>
      <g transform="translate(196.080038 625.43375)scale(0.4 -0.4)">
       <use xlink:href="#DejaVuSans-48"/>
      </g>
     </g>
    </g>
    <g id="xtick_2">
     <g id="line2d_2">
      <g>
       <use style="stroke:#000000;stroke-width:0.8;" x="474.155423" xlink:href="#mffff2bf5b6" y="588.04"/>
      </g>
     </g>
     <g id="text_2">
      <!-- 5 -->
      <defs>
       <path d="M 10.796875 72.90625 
L 49.515625 72.90625 
L 49.515625 64.59375 
L 19.828125 64.59375 
L 19.828125 46.734375 
Q 21.96875 47.46875 24.109375 47.828125 
Q 26.265625 48.1875 28.421875 48.1875 
Q 40.625 48.1875 47.75 41.5 
Q 54.890625 34.8125 54.890625 23.390625 
Q 54.890625 11.625 47.5625 5.09375 
Q 40.234375 -1.421875 26.90625 -1.421875 
Q 22.3125 -1.421875 17.546875 -0.640625 
Q 12.796875 0.140625 7.71875 1.703125 
L 7.71875 11.625 
Q 12.109375 9.234375 16.796875 8.0625 
Q 21.484375 6.890625 26.703125 6.890625 
Q 35.15625 6.890625 40.078125 11.328125 
Q 45.015625 15.765625 45.015625 23.390625 
Q 45.015625 31 40.078125 35.4375 
Q 35.15625 39.890625 26.703125 39.890625 
Q 22.75 39.890625 18.8125 39.015625 
Q 14.890625 38.140625 10.796875 36.28125 
z
" id="DejaVuSans-53"/>
      </defs>
      <g transform="translate(461.430423 625.43375)scale(0.4 -0.4)">
       <use xlink:href="#DejaVuSans-53"/>
      </g>
     </g>
    </g>
    <g id="xtick_3">
     <g id="line2d_3">
      <g>
       <use style="stroke:#000000;stroke-width:0.8;" x="739.505808" xlink:href="#mffff2bf5b6" y="588.04"/>
      </g>
     </g>
     <g id="text_3">
      <!-- 10 -->
      <defs>
       <path d="M 12.40625 8.296875 
L 28.515625 8.296875 
L 28.515625 63.921875 
L 10.984375 60.40625 
L 10.984375 69.390625 
L 28.421875 72.90625 
L 38.28125 72.90625 
L 38.28125 8.296875 
L 54.390625 8.296875 
L 54.390625 0 
L 12.40625 0 
z
" id="DejaVuSans-49"/>
      </defs>
      <g transform="translate(714.055808 625.43375)scale(0.4 -0.4)">
       <use xlink:href="#DejaVuSans-49"/>
       <use x="63.623047" xlink:href="#DejaVuSans-48"/>
      </g>
     </g>
    </g>
    <g id="text_4">
     <!-- X Position -->
     <defs>
      <path d="M 6.296875 72.90625 
L 16.890625 72.90625 
L 35.015625 45.796875 
L 53.21875 72.90625 
L 63.8125 72.90625 
L 40.375 37.890625 
L 65.375 0 
L 54.78125 0 
L 34.28125 31 
L 13.625 0 
L 2.984375 0 
L 29 38.921875 
z
" id="DejaVuSans-88"/>
      <path id="DejaVuSans-32"/>
      <path d="M 19.671875 64.796875 
L 19.671875 37.40625 
L 32.078125 37.40625 
Q 38.96875 37.40625 42.71875 40.96875 
Q 46.484375 44.53125 46.484375 51.125 
Q 46.484375 57.671875 42.71875 61.234375 
Q 38.96875 64.796875 32.078125 64.796875 
z
M 9.8125 72.90625 
L 32.078125 72.90625 
Q 44.34375 72.90625 50.609375 67.359375 
Q 56.890625 61.8125 56.890625 51.125 
Q 56.890625 40.328125 50.609375 34.8125 
Q 44.34375 29.296875 32.078125 29.296875 
L 19.671875 29.296875 
L 19.671875 0 
L 9.8125 0 
z
" id="DejaVuSans-80"/>
      <path d="M 30.609375 48.390625 
Q 23.390625 48.390625 19.1875 42.75 
Q 14.984375 37.109375 14.984375 27.296875 
Q 14.984375 17.484375 19.15625 11.84375 
Q 23.34375 6.203125 30.609375 6.203125 
Q 37.796875 6.203125 41.984375 11.859375 
Q 46.1875 17.53125 46.1875 27.296875 
Q 46.1875 37.015625 41.984375 42.703125 
Q 37.796875 48.390625 30.609375 48.390625 
z
M 30.609375 56 
Q 42.328125 56 49.015625 48.375 
Q 55.71875 40.765625 55.71875 27.296875 
Q 55.71875 13.875 49.015625 6.21875 
Q 42.328125 -1.421875 30.609375 -1.421875 
Q 18.84375 -1.421875 12.171875 6.21875 
Q 5.515625 13.875 5.515625 27.296875 
Q 5.515625 40.765625 12.171875 48.375 
Q 18.84375 56 30.609375 56 
z
" id="DejaVuSans-111"/>
      <path d="M 44.28125 53.078125 
L 44.28125 44.578125 
Q 40.484375 46.53125 36.375 47.5 
Q 32.28125 48.484375 27.875 48.484375 
Q 21.1875 48.484375 17.84375 46.4375 
Q 14.5 44.390625 14.5 40.28125 
Q 14.5 37.15625 16.890625 35.375 
Q 19.28125 33.59375 26.515625 31.984375 
L 29.59375 31.296875 
Q 39.15625 29.25 43.1875 25.515625 
Q 47.21875 21.78125 47.21875 15.09375 
Q 47.21875 7.46875 41.1875 3.015625 
Q 35.15625 -1.421875 24.609375 -1.421875 
Q 20.21875 -1.421875 15.453125 -0.5625 
Q 10.6875 0.296875 5.421875 2 
L 5.421875 11.28125 
Q 10.40625 8.6875 15.234375 7.390625 
Q 20.0625 6.109375 24.8125 6.109375 
Q 31.15625 6.109375 34.5625 8.28125 
Q 37.984375 10.453125 37.984375 14.40625 
Q 37.984375 18.0625 35.515625 20.015625 
Q 33.0625 21.96875 24.703125 23.78125 
L 21.578125 24.515625 
Q 13.234375 26.265625 9.515625 29.90625 
Q 5.8125 33.546875 5.8125 39.890625 
Q 5.8125 47.609375 11.28125 51.796875 
Q 16.75 56 26.8125 56 
Q 31.78125 56 36.171875 55.265625 
Q 40.578125 54.546875 44.28125 53.078125 
z
" id="DejaVuSans-115"/>
      <path d="M 9.421875 54.6875 
L 18.40625 54.6875 
L 18.40625 0 
L 9.421875 0 
z
M 9.421875 75.984375 
L 18.40625 75.984375 
L 18.40625 64.59375 
L 9.421875 64.59375 
z
" id="DejaVuSans-105"/>
      <path d="M 18.3125 70.21875 
L 18.3125 54.6875 
L 36.8125 54.6875 
L 36.8125 47.703125 
L 18.3125 47.703125 
L 18.3125 18.015625 
Q 18.3125 11.328125 20.140625 9.421875 
Q 21.96875 7.515625 27.59375 7.515625 
L 36.8125 7.515625 
L 36.8125 0 
L 27.59375 0 
Q 17.1875 0 13.234375 3.875 
Q 9.28125 7.765625 9.28125 18.015625 
L 9.28125 47.703125 
L 2.6875 47.703125 
L 2.6875 54.6875 
L 9.28125 54.6875 
L 9.28125 70.21875 
z
" id="DejaVuSans-116"/>
      <path d="M 54.890625 33.015625 
L 54.890625 0 
L 45.90625 0 
L 45.90625 32.71875 
Q 45.90625 40.484375 42.875 44.328125 
Q 39.84375 48.1875 33.796875 48.1875 
Q 26.515625 48.1875 22.3125 43.546875 
Q 18.109375 38.921875 18.109375 30.90625 
L 18.109375 0 
L 9.078125 0 
L 9.078125 54.6875 
L 18.109375 54.6875 
L 18.109375 46.1875 
Q 21.34375 51.125 25.703125 53.5625 
Q 30.078125 56 35.796875 56 
Q 45.21875 56 50.046875 50.171875 
Q 54.890625 44.34375 54.890625 33.015625 
z
" id="DejaVuSans-110"/>
     </defs>
     <g transform="translate(429.313 668.14625)scale(0.4 -0.4)">
      <use xlink:href="#DejaVuSans-88"/>
      <use x="68.505859" xlink:href="#DejaVuSans-32"/>
      <use x="100.292969" xlink:href="#DejaVuSans-80"/>
      <use x="156.970703" xlink:href="#DejaVuSans-111"/>
      <use x="218.152344" xlink:href="#DejaVuSans-115"/>
      <use x="270.251953" xlink:href="#DejaVuSans-105"/>
      <use x="298.035156" xlink:href="#DejaVuSans-116"/>
      <use x="337.244141" xlink:href="#DejaVuSans-105"/>
      <use x="365.027344" xlink:href="#DejaVuSans-111"/>
      <use x="426.208984" xlink:href="#DejaVuSans-110"/>
     </g>
    </g>
   </g>
   <g id="matplotlib.axis_2">
    <g id="ytick_1">
     <g id="line2d_4">
      <defs>
       <path d="M 0 0 
L -3.5 0 
" id="mb13438beca" style="stroke:#000000;stroke-width:0.8;"/>
      </defs>
      <g>
       <use style="stroke:#000000;stroke-width:0.8;" x="182.27" xlink:href="#mb13438beca" y="567.666154"/>
      </g>
     </g>
     <g id="text_5">
      <!-- 0.0 -->
      <defs>
       <path d="M 10.6875 12.40625 
L 21 12.40625 
L 21 0 
L 10.6875 0 
z
" id="DejaVuSans-46"/>
      </defs>
      <g transform="translate(111.6575 582.863029)scale(0.4 -0.4)">
       <use xlink:href="#DejaVuSans-48"/>
       <use x="63.623047" xlink:href="#DejaVuSans-46"/>
       <use x="95.410156" xlink:href="#DejaVuSans-48"/>
      </g>
     </g>
    </g>
    <g id="ytick_2">
     <g id="line2d_5">
      <g>
       <use style="stroke:#000000;stroke-width:0.8;" x="182.27" xlink:href="#mb13438beca" y="465.796923"/>
      </g>
     </g>
     <g id="text_6">
      <!-- 2.5 -->
      <defs>
       <path d="M 19.1875 8.296875 
L 53.609375 8.296875 
L 53.609375 0 
L 7.328125 0 
L 7.328125 8.296875 
Q 12.9375 14.109375 22.625 23.890625 
Q 32.328125 33.6875 34.8125 36.53125 
Q 39.546875 41.84375 41.421875 45.53125 
Q 43.3125 49.21875 43.3125 52.78125 
Q 43.3125 58.59375 39.234375 62.25 
Q 35.15625 65.921875 28.609375 65.921875 
Q 23.96875 65.921875 18.8125 64.3125 
Q 13.671875 62.703125 7.8125 59.421875 
L 7.8125 69.390625 
Q 13.765625 71.78125 18.9375 73 
Q 24.125 74.21875 28.421875 74.21875 
Q 39.75 74.21875 46.484375 68.546875 
Q 53.21875 62.890625 53.21875 53.421875 
Q 53.21875 48.921875 51.53125 44.890625 
Q 49.859375 40.875 45.40625 35.40625 
Q 44.1875 33.984375 37.640625 27.21875 
Q 31.109375 20.453125 19.1875 8.296875 
z
" id="DejaVuSans-50"/>
      </defs>
      <g transform="translate(111.6575 480.993798)scale(0.4 -0.4)">
       <use xlink:href="#DejaVuSans-50"/>
       <use x="63.623047" xlink:href="#DejaVuSans-46"/>
       <use x="95.410156" xlink:href="#DejaVuSans-53"/>
      </g>
     </g>
    </g>
    <g id="ytick_3">
     <g id="line2d_6">
      <g>
       <use style="stroke:#000000;stroke-width:0.8;" x="182.27" xlink:href="#mb13438beca" y="363.927692"/>
      </g>
     </g>
     <g id="text_7">
      <!-- 5.0 -->
      <g transform="translate(111.6575 379.124567)scale(0.4 -0.4)">
       <use xlink:href="#DejaVuSans-53"/>
       <use x="63.623047" xlink:href="#DejaVuSans-46"/>
       <use x="95.410156" xlink:href="#DejaVuSans-48"/>
      </g>
     </g>
    </g>
    <g id="ytick_4">
     <g id="line2d_7">
      <g>
       <use style="stroke:#000000;stroke-width:0.8;" x="182.27" xlink:href="#mb13438beca" y="262.058462"/>
      </g>
     </g>
     <g id="text_8">
      <!-- 7.5 -->
      <defs>
       <path d="M 8.203125 72.90625 
L 55.078125 72.90625 
L 55.078125 68.703125 
L 28.609375 0 
L 18.3125 0 
L 43.21875 64.59375 
L 8.203125 64.59375 
z
" id="DejaVuSans-55"/>
      </defs>
      <g transform="translate(111.6575 277.255337)scale(0.4 -0.4)">
       <use xlink:href="#DejaVuSans-55"/>
       <use x="63.623047" xlink:href="#DejaVuSans-46"/>
       <use x="95.410156" xlink:href="#DejaVuSans-53"/>
      </g>
     </g>
    </g>
    <g id="ytick_5">
     <g id="line2d_8">
      <g>
       <use style="stroke:#000000;stroke-width:0.8;" x="182.27" xlink:href="#mb13438beca" y="160.189231"/>
      </g>
     </g>
     <g id="text_9">
      <!-- 10.0 -->
      <g transform="translate(86.2075 175.386106)scale(0.4 -0.4)">
       <use xlink:href="#DejaVuSans-49"/>
       <use x="63.623047" xlink:href="#DejaVuSans-48"/>
       <use x="127.246094" xlink:href="#DejaVuSans-46"/>
       <use x="159.033203" xlink:href="#DejaVuSans-48"/>
      </g>
     </g>
    </g>
    <g id="ytick_6">
     <g id="line2d_9">
      <g>
       <use style="stroke:#000000;stroke-width:0.8;" x="182.27" xlink:href="#mb13438beca" y="58.32"/>
      </g>
     </g>
     <g id="text_10">
      <!-- 12.5 -->
      <g transform="translate(86.2075 73.516875)scale(0.4 -0.4)">
       <use xlink:href="#DejaVuSans-49"/>
       <use x="63.623047" xlink:href="#DejaVuSans-50"/>
       <use x="127.246094" xlink:href="#DejaVuSans-46"/>
       <use x="159.033203" xlink:href="#DejaVuSans-53"/>
      </g>
     </g>
    </g>
    <g id="text_11">
     <!-- Y Position -->
     <defs>
      <path d="M -0.203125 72.90625 
L 10.40625 72.90625 
L 30.609375 42.921875 
L 50.6875 72.90625 
L 61.28125 72.90625 
L 35.5 34.71875 
L 35.5 0 
L 25.59375 0 
L 25.59375 34.71875 
z
" id="DejaVuSans-89"/>
     </defs>
     <g transform="translate(73.88875 419.608125)rotate(-90)scale(0.4 -0.4)">
      <use xlink:href="#DejaVuSans-89"/>
      <use x="61.083984" xlink:href="#DejaVuSans-32"/>
      <use x="92.871094" xlink:href="#DejaVuSans-80"/>
      <use x="149.548828" xlink:href="#DejaVuSans-111"/>
      <use x="210.730469" xlink:href="#DejaVuSans-115"/>
      <use x="262.830078" xlink:href="#DejaVuSans-105"/>
      <use x="290.613281" xlink:href="#DejaVuSans-116"/>
      <use x="329.822266" xlink:href="#DejaVuSans-105"/>
      <use x="357.605469" xlink:href="#DejaVuSans-111"/>
      <use x="418.787109" xlink:href="#DejaVuSans-110"/>
     </g>
    </g>
   </g>
   <g id="line2d_10">
    <path clip-path="url(#p99c8667e4a)" d="M 208.805038 363.927692 
L 213.581345 372.86724 
L 218.357652 381.35869 
L 223.133959 389.415593 
L 227.910266 397.051045 
L 232.686573 404.277695 
L 237.46288 411.107761 
L 242.239187 417.55304 
L 247.015494 423.624918 
L 251.791801 429.334389 
L 256.568108 434.69206 
L 261.344415 439.708167 
L 266.120722 444.392585 
L 270.897028 448.754841 
L 275.673335 452.804129 
L 280.449642 456.549316 
L 285.225949 459.998959 
L 290.002256 463.161317 
L 294.778563 466.04436 
L 299.55487 468.655783 
L 304.331177 471.003019 
L 309.107484 473.093249 
L 313.883791 474.933417 
L 318.660098 476.530239 
L 323.436405 477.890218 
L 328.212712 479.019652 
L 332.989018 479.924651 
L 337.765325 480.611148 
L 342.806983 481.105103 
L 347.84864 481.36862 
L 352.890297 481.408119 
L 357.931955 481.229863 
L 363.238962 480.813698 
L 368.54597 480.170014 
L 373.852978 479.305658 
L 379.425336 478.167951 
L 384.997694 476.802057 
L 390.835402 475.134648 
L 396.673111 473.233792 
L 402.77617 471.006279 
L 408.879228 468.542862 
L 415.247638 465.731499 
L 421.881397 462.55345 
L 428.780507 458.99187 
L 435.944968 455.032249 
L 443.374778 450.662945 
L 451.06994 445.875781 
L 459.295802 440.488914 
L 468.052364 434.479766 
L 474.155423 430.142692 
L 474.155423 430.142692 
" style="fill:none;stroke:#1f77b4;stroke-linecap:square;stroke-width:4;"/>
   </g>
   <g id="line2d_11">
    <path clip-path="url(#p99c8667e4a)" d="M 208.805038 363.927692 
L 261.875115 465.796923 
L 314.945192 496.357692 
L 368.015269 496.357692 
L 421.085346 468.343654 
L 474.155423 430.142692 
" style="fill:none;stroke:#1f77b4;stroke-dasharray:14.8,6.4;stroke-dashoffset:0;stroke-width:4;"/>
    <defs>
     <path d="M 0 4.5 
C 1.193414 4.5 2.338109 4.025852 3.181981 3.181981 
C 4.025852 2.338109 4.5 1.193414 4.5 0 
C 4.5 -1.193414 4.025852 -2.338109 3.181981 -3.181981 
C 2.338109 -4.025852 1.193414 -4.5 0 -4.5 
C -1.193414 -4.5 -2.338109 -4.025852 -3.181981 -3.181981 
C -4.025852 -2.338109 -4.5 -1.193414 -4.5 0 
C -4.5 1.193414 -4.025852 2.338109 -3.181981 3.181981 
C -2.338109 4.025852 -1.193414 4.5 0 4.5 
z
" id="m9e0cf4bf58" style="stroke:#1f77b4;"/>
    </defs>
    <g clip-path="url(#p99c8667e4a)">
     <use style="fill:#1f77b4;stroke:#1f77b4;" x="208.805038" xlink:href="#m9e0cf4bf58" y="363.927692"/>
     <use style="fill:#1f77b4;stroke:#1f77b4;" x="261.875115" xlink:href="#m9e0cf4bf58" y="465.796923"/>
     <use style="fill:#1f77b4;stroke:#1f77b4;" x="314.945192" xlink:href="#m9e0cf4bf58" y="496.357692"/>
     <use style="fill:#1f77b4;stroke:#1f77b4;" x="368.015269" xlink:href="#m9e0cf4bf58" y="496.357692"/>
     <use style="fill:#1f77b4;stroke:#1f77b4;" x="421.085346" xlink:href="#m9e0cf4bf58" y="468.343654"/>
     <use style="fill:#1f77b4;stroke:#1f77b4;" x="474.155423" xlink:href="#m9e0cf4bf58" y="430.142692"/>
    </g>
   </g>
   <g id="line2d_12">
    <path clip-path="url(#p99c8667e4a)" d="M 474.155423 430.142692 
L 484.238738 422.747356 
L 495.914155 413.897275 
L 511.304477 401.926785 
L 541.02372 378.755713 
L 551.903086 370.595676 
L 560.924999 364.09826 
L 568.88551 358.633201 
L 576.049971 353.977649 
L 582.68373 349.927927 
L 588.786789 346.455514 
L 594.624498 343.389025 
L 600.196856 340.719396 
L 605.238513 338.54122 
L 610.28017 336.607618 
L 615.056477 335.018828 
L 619.567434 333.750961 
L 623.81304 332.777553 
L 628.058646 332.030241 
L 632.038902 331.546512 
L 636.019158 331.283887 
L 639.999413 331.253637 
L 643.714319 331.445252 
L 647.429224 331.858993 
L 651.14413 332.504719 
L 654.593685 333.320861 
L 658.04324 334.353992 
L 661.492795 335.612551 
L 664.94235 337.105155 
L 668.391905 338.840604 
L 671.84146 340.82788 
L 675.291015 343.076156 
L 678.74057 345.594789 
L 682.190125 348.393331 
L 685.63968 351.481525 
L 689.089235 354.869311 
L 692.53879 358.566829 
L 695.988345 362.584417 
L 699.4379 366.93262 
L 702.887455 371.622184 
L 706.60236 377.066815 
L 710.317265 382.934013 
L 714.032171 389.238021 
L 717.747076 395.993372 
L 721.461982 403.214893 
L 725.176887 410.917709 
L 728.891792 419.117241 
L 732.606698 427.829219 
L 736.586953 437.750362 
L 739.505808 445.423077 
L 739.505808 445.423077 
" style="fill:none;stroke:#2ca02c;stroke-linecap:square;stroke-width:4;"/>
   </g>
   <g id="line2d_13">
    <path clip-path="url(#p99c8667e4a)" d="M 474.155423 430.142692 
L 527.2255 391.941731 
L 580.295577 343.553846 
L 633.365654 302.806154 
L 686.435731 302.806154 
L 739.505808 445.423077 
" style="fill:none;stroke:#ff7f0e;stroke-dasharray:14.8,6.4;stroke-dashoffset:0;stroke-width:4;"/>
    <defs>
     <path d="M 0 4.5 
C 1.193414 4.5 2.338109 4.025852 3.181981 3.181981 
C 4.025852 2.338109 4.5 1.193414 4.5 0 
C 4.5 -1.193414 4.025852 -2.338109 3.181981 -3.181981 
C 2.338109 -4.025852 1.193414 -4.5 0 -4.5 
C -1.193414 -4.5 -2.338109 -4.025852 -3.181981 -3.181981 
C -4.025852 -2.338109 -4.5 -1.193414 -4.5 0 
C -4.5 1.193414 -4.025852 2.338109 -3.181981 3.181981 
C -2.338109 4.025852 -1.193414 4.5 0 4.5 
z
" id="m1a6ee201af" style="stroke:#ff7f0e;"/>
    </defs>
    <g clip-path="url(#p99c8667e4a)">
     <use style="fill:#ff7f0e;stroke:#ff7f0e;" x="474.155423" xlink:href="#m1a6ee201af" y="430.142692"/>
     <use style="fill:#ff7f0e;stroke:#ff7f0e;" x="527.2255" xlink:href="#m1a6ee201af" y="391.941731"/>
     <use style="fill:#ff7f0e;stroke:#ff7f0e;" x="580.295577" xlink:href="#m1a6ee201af" y="343.553846"/>
     <use style="fill:#ff7f0e;stroke:#ff7f0e;" x="633.365654" xlink:href="#m1a6ee201af" y="302.806154"/>
     <use style="fill:#ff7f0e;stroke:#ff7f0e;" x="686.435731" xlink:href="#m1a6ee201af" y="302.806154"/>
     <use style="fill:#ff7f0e;stroke:#ff7f0e;" x="739.505808" xlink:href="#m1a6ee201af" y="445.423077"/>
    </g>
   </g>
   <g id="line2d_14">
    <path clip-path="url(#p99c8667e4a)" d="M 261.875115 323.18 
L 267.775638 316.554173 
L 273.796275 310.119304 
L 280.21026 303.589738 
L 286.737824 297.256211 
L 293.661017 290.850072 
L 300.689167 284.64504 
L 308.112051 278.389346 
L 315.62927 272.340156 
L 323.537197 266.262527 
L 331.526984 260.397495 
L 339.900439 254.526972 
L 348.341619 248.87622 
L 357.156609 243.244125 
L 366.023779 237.840437 
L 375.252349 232.48123 
L 384.516447 227.360875 
L 393.806614 222.477151 
L 403.114004 217.828385 
L 412.751689 213.265316 
L 422.390508 208.951617 
L 432.022635 204.88692 
L 441.640869 201.071234 
L 451.23862 197.504884 
L 460.809888 194.188447 
L 470.34924 191.12269 
L 479.851796 188.308504 
L 488.998531 185.828155 
L 498.103343 183.584642 
L 507.163188 181.578774 
L 516.175437 179.811254 
L 525.13786 178.282627 
L 534.048609 176.993221 
L 542.601664 175.97533 
L 551.104136 175.180282 
L 559.555288 174.607529 
L 567.954661 174.256155 
L 570.344938 174.19625 
L 570.344938 174.19625 
" style="fill:none;stroke:#ff7f0e;stroke-linecap:square;stroke-width:4;"/>
   </g>
   <g id="line2d_15">
    <path clip-path="url(#p99c8667e4a)" d="M 261.875115 323.18 
L 314.945192 262.058462 
L 381.282788 221.310769 
L 447.620385 190.75 
L 510.641101 175.469615 
L 570.344938 174.19625 
" style="fill:none;stroke:#2ca02c;stroke-dasharray:14.8,6.4;stroke-dashoffset:0;stroke-width:4;"/>
    <defs>
     <path d="M 0 4.5 
C 1.193414 4.5 2.338109 4.025852 3.181981 3.181981 
C 4.025852 2.338109 4.5 1.193414 4.5 0 
C 4.5 -1.193414 4.025852 -2.338109 3.181981 -3.181981 
C 2.338109 -4.025852 1.193414 -4.5 0 -4.5 
C -1.193414 -4.5 -2.338109 -4.025852 -3.181981 -3.181981 
C -4.025852 -2.338109 -4.5 -1.193414 -4.5 0 
C -4.5 1.193414 -4.025852 2.338109 -3.181981 3.181981 
C -2.338109 4.025852 -1.193414 4.5 0 4.5 
z
" id="m8394924239" style="stroke:#2ca02c;"/>
    </defs>
    <g clip-path="url(#p99c8667e4a)">
     <use style="fill:#2ca02c;stroke:#2ca02c;" x="261.875115" xlink:href="#m8394924239" y="323.18"/>
     <use style="fill:#2ca02c;stroke:#2ca02c;" x="314.945192" xlink:href="#m8394924239" y="262.058462"/>
     <use style="fill:#2ca02c;stroke:#2ca02c;" x="381.282788" xlink:href="#m8394924239" y="221.310769"/>
     <use style="fill:#2ca02c;stroke:#2ca02c;" x="447.620385" xlink:href="#m8394924239" y="190.75"/>
     <use style="fill:#2ca02c;stroke:#2ca02c;" x="510.641101" xlink:href="#m8394924239" y="175.469615"/>
     <use style="fill:#2ca02c;stroke:#2ca02c;" x="570.344938" xlink:href="#m8394924239" y="174.19625"/>
    </g>
   </g>
   <g id="line2d_16">
    <path clip-path="url(#p99c8667e4a)" d="M 570.344938 174.19625 
L 578.67748 174.127494 
L 586.958154 174.276407 
L 595.187308 174.640549 
L 603.656655 175.241392 
L 612.072206 176.065883 
L 620.435039 177.10926 
L 628.746434 178.365961 
L 637.29186 179.883645 
L 645.785619 181.614619 
L 654.510334 183.617552 
L 663.463357 185.901441 
L 672.642532 188.471978 
L 682.322056 191.417845 
L 692.496392 194.752374 
L 703.433799 198.576942 
L 715.669187 203.099208 
L 730.536796 208.84315 
L 771.790514 224.925655 
L 782.444424 228.747526 
L 791.488104 231.758432 
L 799.460851 234.18537 
L 806.89771 236.217682 
L 813.800642 237.871463 
L 820.17097 239.17186 
L 826.274926 240.1908 
L 832.112982 240.936085 
L 837.685437 241.419082 
L 842.992458 241.65441 
L 845.645962 241.684615 
L 845.645962 241.684615 
" style="fill:none;stroke:#d62728;stroke-linecap:square;stroke-width:4;"/>
   </g>
   <g id="line2d_17">
    <path clip-path="url(#p99c8667e4a)" d="M 570.344938 174.19625 
L 630.048774 172.922885 
L 686.435731 185.656538 
L 739.505808 211.123846 
L 792.575885 241.684615 
L 845.645962 241.684615 
" style="fill:none;stroke:#d62728;stroke-dasharray:14.8,6.4;stroke-dashoffset:0;stroke-width:4;"/>
    <defs>
     <path d="M 0 4.5 
C 1.193414 4.5 2.338109 4.025852 3.181981 3.181981 
C 4.025852 2.338109 4.5 1.193414 4.5 0 
C 4.5 -1.193414 4.025852 -2.338109 3.181981 -3.181981 
C 2.338109 -4.025852 1.193414 -4.5 0 -4.5 
C -1.193414 -4.5 -2.338109 -4.025852 -3.181981 -3.181981 
C -4.025852 -2.338109 -4.5 -1.193414 -4.5 0 
C -4.5 1.193414 -4.025852 2.338109 -3.181981 3.181981 
C -2.338109 4.025852 -1.193414 4.5 0 4.5 
z
" id="ma1f23a8a9d" style="stroke:#d62728;"/>
    </defs>
    <g clip-path="url(#p99c8667e4a)">
     <use style="fill:#d62728;stroke:#d62728;" x="570.344938" xlink:href="#ma1f23a8a9d" y="174.19625"/>
     <use style="fill:#d62728;stroke:#d62728;" x="630.048774" xlink:href="#ma1f23a8a9d" y="172.922885"/>
     <use style="fill:#d62728;stroke:#d62728;" x="686.435731" xlink:href="#ma1f23a8a9d" y="185.656538"/>
     <use style="fill:#d62728;stroke:#d62728;" x="739.505808" xlink:href="#ma1f23a8a9d" y="211.123846"/>
     <use style="fill:#d62728;stroke:#d62728;" x="792.575885" xlink:href="#ma1f23a8a9d" y="241.684615"/>
     <use style="fill:#d62728;stroke:#d62728;" x="845.645962" xlink:href="#ma1f23a8a9d" y="241.684615"/>
    </g>
   </g>
   <g id="line2d_18">
    <path clip-path="url(#p99c8667e4a)" d="M 474.155423 430.142692 
L 208.805038 363.927692 
" style="fill:none;stroke:#000000;stroke-dasharray:4,6.6;stroke-dashoffset:0;stroke-width:4;"/>
   </g>
   <g id="line2d_19">
    <path clip-path="url(#p99c8667e4a)" d="M 368.015269 496.357692 
L 314.945192 496.357692 
" style="fill:none;stroke:#000000;stroke-dasharray:4,6.6;stroke-dashoffset:0;stroke-width:4;"/>
   </g>
   <g id="line2d_20">
    <path clip-path="url(#p99c8667e4a)" d="M 261.875115 465.796923 
L 208.805038 363.927692 
" style="fill:none;stroke:#000000;stroke-dasharray:4,6.6;stroke-dashoffset:0;stroke-width:4;"/>
   </g>
   <g id="line2d_21">
    <path clip-path="url(#p99c8667e4a)" d="M 261.875115 465.796923 
L 314.945192 496.357692 
" style="fill:none;stroke:#000000;stroke-dasharray:4,6.6;stroke-dashoffset:0;stroke-width:4;"/>
   </g>
   <g id="line2d_22">
    <path clip-path="url(#p99c8667e4a)" d="M 421.085346 468.343654 
L 474.155423 430.142692 
" style="fill:none;stroke:#000000;stroke-dasharray:4,6.6;stroke-dashoffset:0;stroke-width:4;"/>
   </g>
   <g id="line2d_23">
    <path clip-path="url(#p99c8667e4a)" d="M 421.085346 468.343654 
L 368.015269 496.357692 
" style="fill:none;stroke:#000000;stroke-dasharray:4,6.6;stroke-dashoffset:0;stroke-width:4;"/>
   </g>
   <g id="line2d_24">
    <path clip-path="url(#p99c8667e4a)" d="M 739.505808 445.423077 
L 474.155423 430.142692 
" style="fill:none;stroke:#000000;stroke-dasharray:4,6.6;stroke-dashoffset:0;stroke-width:4;"/>
   </g>
   <g id="line2d_25">
    <path clip-path="url(#p99c8667e4a)" d="M 686.435731 302.806154 
L 739.505808 445.423077 
" style="fill:none;stroke:#000000;stroke-dasharray:4,6.6;stroke-dashoffset:0;stroke-width:4;"/>
   </g>
   <g id="line2d_26">
    <path clip-path="url(#p99c8667e4a)" d="M 686.435731 302.806154 
L 633.365654 302.806154 
" style="fill:none;stroke:#000000;stroke-dasharray:4,6.6;stroke-dashoffset:0;stroke-width:4;"/>
   </g>
   <g id="line2d_27">
    <path clip-path="url(#p99c8667e4a)" d="M 580.295577 343.553846 
L 474.155423 430.142692 
" style="fill:none;stroke:#000000;stroke-dasharray:4,6.6;stroke-dashoffset:0;stroke-width:4;"/>
   </g>
   <g id="line2d_28">
    <path clip-path="url(#p99c8667e4a)" d="M 580.295577 343.553846 
L 633.365654 302.806154 
" style="fill:none;stroke:#000000;stroke-dasharray:4,6.6;stroke-dashoffset:0;stroke-width:4;"/>
   </g>
   <g id="line2d_29">
    <path clip-path="url(#p99c8667e4a)" d="M 570.344938 174.19625 
L 261.875115 323.18 
" style="fill:none;stroke:#000000;stroke-dasharray:4,6.6;stroke-dashoffset:0;stroke-width:4;"/>
   </g>
   <g id="line2d_30">
    <path clip-path="url(#p99c8667e4a)" d="M 314.945192 262.058462 
L 261.875115 323.18 
" style="fill:none;stroke:#000000;stroke-dasharray:4,6.6;stroke-dashoffset:0;stroke-width:4;"/>
   </g>
   <g id="line2d_31">
    <path clip-path="url(#p99c8667e4a)" d="M 510.641101 175.469615 
L 570.344938 174.19625 
" style="fill:none;stroke:#000000;stroke-dasharray:4,6.6;stroke-dashoffset:0;stroke-width:4;"/>
   </g>
   <g id="line2d_32">
    <path clip-path="url(#p99c8667e4a)" d="M 510.641101 175.469615 
L 447.620385 190.75 
" style="fill:none;stroke:#000000;stroke-dasharray:4,6.6;stroke-dashoffset:0;stroke-width:4;"/>
   </g>
   <g id="line2d_33">
    <path clip-path="url(#p99c8667e4a)" d="M 381.282788 221.310769 
L 314.945192 262.058462 
" style="fill:none;stroke:#000000;stroke-dasharray:4,6.6;stroke-dashoffset:0;stroke-width:4;"/>
   </g>
   <g id="line2d_34">
    <path clip-path="url(#p99c8667e4a)" d="M 381.282788 221.310769 
L 447.620385 190.75 
" style="fill:none;stroke:#000000;stroke-dasharray:4,6.6;stroke-dashoffset:0;stroke-width:4;"/>
   </g>
   <g id="line2d_35">
    <path clip-path="url(#p99c8667e4a)" d="M 630.048774 172.922885 
L 570.344938 174.19625 
" style="fill:none;stroke:#000000;stroke-dasharray:4,6.6;stroke-dashoffset:0;stroke-width:4;"/>
   </g>
   <g id="line2d_36">
    <path clip-path="url(#p99c8667e4a)" d="M 792.575885 241.684615 
L 570.344938 174.19625 
" style="fill:none;stroke:#000000;stroke-dasharray:4,6.6;stroke-dashoffset:0;stroke-width:4;"/>
   </g>
   <g id="line2d_37">
    <path clip-path="url(#p99c8667e4a)" d="M 792.575885 241.684615 
L 845.645962 241.684615 
" style="fill:none;stroke:#000000;stroke-dasharray:4,6.6;stroke-dashoffset:0;stroke-width:4;"/>
   </g>
   <g id="line2d_38">
    <path clip-path="url(#p99c8667e4a)" d="M 686.435731 185.656538 
L 845.645962 241.684615 
" style="fill:none;stroke:#000000;stroke-dasharray:4,6.6;stroke-dashoffset:0;stroke-width:4;"/>
   </g>
   <g id="line2d_39">
    <path clip-path="url(#p99c8667e4a)" d="M 686.435731 185.656538 
L 630.048774 172.922885 
" style="fill:none;stroke:#000000;stroke-dasharray:4,6.6;stroke-dashoffset:0;stroke-width:4;"/>
   </g>
   <g id="patch_4">
    <path d="M 182.27 588.04 
L 182.27 58.32 
" style="fill:none;stroke:#000000;stroke-linecap:square;stroke-linejoin:miter;stroke-width:0.8;"/>
   </g>
   <g id="patch_5">
    <path d="M 872.181 588.04 
L 872.181 58.32 
" style="fill:none;stroke:#000000;stroke-linecap:square;stroke-linejoin:miter;stroke-width:0.8;"/>
   </g>
   <g id="patch_6">
    <path d="M 182.27 588.04 
L 872.181 588.04 
" style="fill:none;stroke:#000000;stroke-linecap:square;stroke-linejoin:miter;stroke-width:0.8;"/>
   </g>
   <g id="patch_7">
    <path d="M 182.27 58.32 
L 872.181 58.32 
" style="fill:none;stroke:#000000;stroke-linecap:square;stroke-linejoin:miter;stroke-width:0.8;"/>
   </g>
  </g>
 </g>
 <defs>
  <clipPath id="p99c8667e4a">
   <rect height="529.72" width="689.911" x="182.27" y="58.32"/>
  </clipPath>
 </defs>
</svg>
