<?xml version="1.0" encoding="utf-8" standalone="no"?>
<!DOCTYPE svg PUBLIC "-//W3C//DTD SVG 1.1//EN"
  "http://www.w3.org/Graphics/SVG/1.1/DTD/svg11.dtd">
<svg height="720pt" version="1.1" viewBox="0 0 959.76 720" width="959.76pt" xmlns="http://www.w3.org/2000/svg" xmlns:xlink="http://www.w3.org/1999/xlink">
 <metadata>
  <rdf:RDF xmlns:cc="http://creativecommons.org/ns#" xmlns:dc="http://purl.org/dc/elements/1.1/" xmlns:rdf="http://www.w3.org/1999/02/22-rdf-syntax-ns#">
   <cc:Work>
    <dc:type rdf:resource="http://purl.org/dc/dcmitype/StillImage"/>
    <dc:date>2021-10-18T11:12:48.045934</dc:date>
    <dc:format>image/svg+xml</dc:format>
    <dc:creator>
     <cc:Agent>
      <dc:title>Matplotlib v3.4.2, https://matplotlib.org/</dc:title>
     </cc:Agent>
    </dc:creator>
   </cc:Work>
  </rdf:RDF>
 </metadata>
 <defs>
  <style type="text/css">*{stroke-linecap:butt;stroke-linejoin:round;}</style>
 </defs>
 <g id="figure_1">
  <g id="patch_1">
   <path d="M 0 720 
L 959.76 720 
L 959.76 0 
L 0 0 
z
" style="fill:#ffffff;"/>
  </g>
  <g id="axes_1">
   <g id="patch_2">
    <path d="M 107.12 619.72 
L 925.2 619.72 
L 925.2 34.56 
L 107.12 34.56 
z
" style="fill:#ffffff;"/>
   </g>
   <g id="patch_3">
    <path clip-path="url(#p4d921adcea)" d="M 327.372308 462.176923 
C 344.061335 462.176923 360.069069 457.434142 371.869994 448.993123 
C 383.670918 440.552104 390.301538 429.102019 390.301538 417.164615 
C 390.301538 405.227212 383.670918 393.777126 371.869994 385.336107 
C 360.069069 376.895088 344.061335 372.152308 327.372308 372.152308 
C 310.683281 372.152308 294.675546 376.895088 282.874622 385.336107 
C 271.073698 393.777126 264.443077 405.227212 264.443077 417.164615 
C 264.443077 429.102019 271.073698 440.552104 282.874622 448.993123 
C 294.675546 457.434142 310.683281 462.176923 327.372308 462.176923 
z
" style="fill:#1f77b4;stroke:#000000;stroke-linejoin:miter;stroke-width:4;"/>
   </g>
   <g id="matplotlib.axis_1">
    <g id="xtick_1">
     <g id="line2d_1">
      <defs>
       <path d="M 0 0 
L 0 3.5 
" id="mf12b2adc0d" style="stroke:#000000;stroke-width:0.8;"/>
      </defs>
      <g>
       <use style="stroke:#000000;stroke-width:0.8;" x="138.584615" xlink:href="#mf12b2adc0d" y="619.72"/>
      </g>
     </g>
     <g id="text_1">
      <!-- 0 -->
      <g transform="translate(130.949615 644.95625)scale(0.24 -0.24)">
       <defs>
        <path d="M 2034 4250 
Q 1547 4250 1301 3770 
Q 1056 3291 1056 2328 
Q 1056 1369 1301 889 
Q 1547 409 2034 409 
Q 2525 409 2770 889 
Q 3016 1369 3016 2328 
Q 3016 3291 2770 3770 
Q 2525 4250 2034 4250 
z
M 2034 4750 
Q 2819 4750 3233 4129 
Q 3647 3509 3647 2328 
Q 3647 1150 3233 529 
Q 2819 -91 2034 -91 
Q 1250 -91 836 529 
Q 422 1150 422 2328 
Q 422 3509 836 4129 
Q 1250 4750 2034 4750 
z
" id="DejaVuSans-30" transform="scale(0.015625)"/>
       </defs>
       <use xlink:href="#DejaVuSans-30"/>
      </g>
     </g>
    </g>
    <g id="xtick_2">
     <g id="line2d_2">
      <g>
       <use style="stroke:#000000;stroke-width:0.8;" x="264.443077" xlink:href="#mf12b2adc0d" y="619.72"/>
      </g>
     </g>
     <g id="text_2">
      <!-- 2 -->
      <g transform="translate(256.808077 644.95625)scale(0.24 -0.24)">
       <defs>
        <path d="M 1228 531 
L 3431 531 
L 3431 0 
L 469 0 
L 469 531 
Q 828 903 1448 1529 
Q 2069 2156 2228 2338 
Q 2531 2678 2651 2914 
Q 2772 3150 2772 3378 
Q 2772 3750 2511 3984 
Q 2250 4219 1831 4219 
Q 1534 4219 1204 4116 
Q 875 4013 500 3803 
L 500 4441 
Q 881 4594 1212 4672 
Q 1544 4750 1819 4750 
Q 2544 4750 2975 4387 
Q 3406 4025 3406 3419 
Q 3406 3131 3298 2873 
Q 3191 2616 2906 2266 
Q 2828 2175 2409 1742 
Q 1991 1309 1228 531 
z
" id="DejaVuSans-32" transform="scale(0.015625)"/>
       </defs>
       <use xlink:href="#DejaVuSans-32"/>
      </g>
     </g>
    </g>
    <g id="xtick_3">
     <g id="line2d_3">
      <g>
       <use style="stroke:#000000;stroke-width:0.8;" x="390.301538" xlink:href="#mf12b2adc0d" y="619.72"/>
      </g>
     </g>
     <g id="text_3">
      <!-- 4 -->
      <g transform="translate(382.666538 644.95625)scale(0.24 -0.24)">
       <defs>
        <path d="M 2419 4116 
L 825 1625 
L 2419 1625 
L 2419 4116 
z
M 2253 4666 
L 3047 4666 
L 3047 1625 
L 3713 1625 
L 3713 1100 
L 3047 1100 
L 3047 0 
L 2419 0 
L 2419 1100 
L 313 1100 
L 313 1709 
L 2253 4666 
z
" id="DejaVuSans-34" transform="scale(0.015625)"/>
       </defs>
       <use xlink:href="#DejaVuSans-34"/>
      </g>
     </g>
    </g>
    <g id="xtick_4">
     <g id="line2d_4">
      <g>
       <use style="stroke:#000000;stroke-width:0.8;" x="516.16" xlink:href="#mf12b2adc0d" y="619.72"/>
      </g>
     </g>
     <g id="text_4">
      <!-- 6 -->
      <g transform="translate(508.525 644.95625)scale(0.24 -0.24)">
       <defs>
        <path d="M 2113 2584 
Q 1688 2584 1439 2293 
Q 1191 2003 1191 1497 
Q 1191 994 1439 701 
Q 1688 409 2113 409 
Q 2538 409 2786 701 
Q 3034 994 3034 1497 
Q 3034 2003 2786 2293 
Q 2538 2584 2113 2584 
z
M 3366 4563 
L 3366 3988 
Q 3128 4100 2886 4159 
Q 2644 4219 2406 4219 
Q 1781 4219 1451 3797 
Q 1122 3375 1075 2522 
Q 1259 2794 1537 2939 
Q 1816 3084 2150 3084 
Q 2853 3084 3261 2657 
Q 3669 2231 3669 1497 
Q 3669 778 3244 343 
Q 2819 -91 2113 -91 
Q 1303 -91 875 529 
Q 447 1150 447 2328 
Q 447 3434 972 4092 
Q 1497 4750 2381 4750 
Q 2619 4750 2861 4703 
Q 3103 4656 3366 4563 
z
" id="DejaVuSans-36" transform="scale(0.015625)"/>
       </defs>
       <use xlink:href="#DejaVuSans-36"/>
      </g>
     </g>
    </g>
    <g id="xtick_5">
     <g id="line2d_5">
      <g>
       <use style="stroke:#000000;stroke-width:0.8;" x="642.018462" xlink:href="#mf12b2adc0d" y="619.72"/>
      </g>
     </g>
     <g id="text_5">
      <!-- 8 -->
      <g transform="translate(634.383462 644.95625)scale(0.24 -0.24)">
       <defs>
        <path d="M 2034 2216 
Q 1584 2216 1326 1975 
Q 1069 1734 1069 1313 
Q 1069 891 1326 650 
Q 1584 409 2034 409 
Q 2484 409 2743 651 
Q 3003 894 3003 1313 
Q 3003 1734 2745 1975 
Q 2488 2216 2034 2216 
z
M 1403 2484 
Q 997 2584 770 2862 
Q 544 3141 544 3541 
Q 544 4100 942 4425 
Q 1341 4750 2034 4750 
Q 2731 4750 3128 4425 
Q 3525 4100 3525 3541 
Q 3525 3141 3298 2862 
Q 3072 2584 2669 2484 
Q 3125 2378 3379 2068 
Q 3634 1759 3634 1313 
Q 3634 634 3220 271 
Q 2806 -91 2034 -91 
Q 1263 -91 848 271 
Q 434 634 434 1313 
Q 434 1759 690 2068 
Q 947 2378 1403 2484 
z
M 1172 3481 
Q 1172 3119 1398 2916 
Q 1625 2713 2034 2713 
Q 2441 2713 2670 2916 
Q 2900 3119 2900 3481 
Q 2900 3844 2670 4047 
Q 2441 4250 2034 4250 
Q 1625 4250 1398 4047 
Q 1172 3844 1172 3481 
z
" id="DejaVuSans-38" transform="scale(0.015625)"/>
       </defs>
       <use xlink:href="#DejaVuSans-38"/>
      </g>
     </g>
    </g>
    <g id="xtick_6">
     <g id="line2d_6">
      <g>
       <use style="stroke:#000000;stroke-width:0.8;" x="767.876923" xlink:href="#mf12b2adc0d" y="619.72"/>
      </g>
     </g>
     <g id="text_6">
      <!-- 10 -->
      <g transform="translate(752.606923 644.95625)scale(0.24 -0.24)">
       <defs>
        <path d="M 794 531 
L 1825 531 
L 1825 4091 
L 703 3866 
L 703 4441 
L 1819 4666 
L 2450 4666 
L 2450 531 
L 3481 531 
L 3481 0 
L 794 0 
L 794 531 
z
" id="DejaVuSans-31" transform="scale(0.015625)"/>
       </defs>
       <use xlink:href="#DejaVuSans-31"/>
       <use x="63.623047" xlink:href="#DejaVuSans-30"/>
      </g>
     </g>
    </g>
    <g id="xtick_7">
     <g id="line2d_7">
      <g>
       <use style="stroke:#000000;stroke-width:0.8;" x="893.735385" xlink:href="#mf12b2adc0d" y="619.72"/>
      </g>
     </g>
     <g id="text_7">
      <!-- 12 -->
      <g transform="translate(878.465385 644.95625)scale(0.24 -0.24)">
       <use xlink:href="#DejaVuSans-31"/>
       <use x="63.623047" xlink:href="#DejaVuSans-32"/>
      </g>
     </g>
    </g>
    <g id="text_8">
     <!-- X Position (m) -->
     <g transform="translate(404.675 678.2625)scale(0.32 -0.32)">
      <defs>
       <path d="M 403 4666 
L 1081 4666 
L 2241 2931 
L 3406 4666 
L 4084 4666 
L 2584 2425 
L 4184 0 
L 3506 0 
L 2194 1984 
L 872 0 
L 191 0 
L 1856 2491 
L 403 4666 
z
" id="DejaVuSans-58" transform="scale(0.015625)"/>
       <path id="DejaVuSans-20" transform="scale(0.015625)"/>
       <path d="M 1259 4147 
L 1259 2394 
L 2053 2394 
Q 2494 2394 2734 2622 
Q 2975 2850 2975 3272 
Q 2975 3691 2734 3919 
Q 2494 4147 2053 4147 
L 1259 4147 
z
M 628 4666 
L 2053 4666 
Q 2838 4666 3239 4311 
Q 3641 3956 3641 3272 
Q 3641 2581 3239 2228 
Q 2838 1875 2053 1875 
L 1259 1875 
L 1259 0 
L 628 0 
L 628 4666 
z
" id="DejaVuSans-50" transform="scale(0.015625)"/>
       <path d="M 1959 3097 
Q 1497 3097 1228 2736 
Q 959 2375 959 1747 
Q 959 1119 1226 758 
Q 1494 397 1959 397 
Q 2419 397 2687 759 
Q 2956 1122 2956 1747 
Q 2956 2369 2687 2733 
Q 2419 3097 1959 3097 
z
M 1959 3584 
Q 2709 3584 3137 3096 
Q 3566 2609 3566 1747 
Q 3566 888 3137 398 
Q 2709 -91 1959 -91 
Q 1206 -91 779 398 
Q 353 888 353 1747 
Q 353 2609 779 3096 
Q 1206 3584 1959 3584 
z
" id="DejaVuSans-6f" transform="scale(0.015625)"/>
       <path d="M 2834 3397 
L 2834 2853 
Q 2591 2978 2328 3040 
Q 2066 3103 1784 3103 
Q 1356 3103 1142 2972 
Q 928 2841 928 2578 
Q 928 2378 1081 2264 
Q 1234 2150 1697 2047 
L 1894 2003 
Q 2506 1872 2764 1633 
Q 3022 1394 3022 966 
Q 3022 478 2636 193 
Q 2250 -91 1575 -91 
Q 1294 -91 989 -36 
Q 684 19 347 128 
L 347 722 
Q 666 556 975 473 
Q 1284 391 1588 391 
Q 1994 391 2212 530 
Q 2431 669 2431 922 
Q 2431 1156 2273 1281 
Q 2116 1406 1581 1522 
L 1381 1569 
Q 847 1681 609 1914 
Q 372 2147 372 2553 
Q 372 3047 722 3315 
Q 1072 3584 1716 3584 
Q 2034 3584 2315 3537 
Q 2597 3491 2834 3397 
z
" id="DejaVuSans-73" transform="scale(0.015625)"/>
       <path d="M 603 3500 
L 1178 3500 
L 1178 0 
L 603 0 
L 603 3500 
z
M 603 4863 
L 1178 4863 
L 1178 4134 
L 603 4134 
L 603 4863 
z
" id="DejaVuSans-69" transform="scale(0.015625)"/>
       <path d="M 1172 4494 
L 1172 3500 
L 2356 3500 
L 2356 3053 
L 1172 3053 
L 1172 1153 
Q 1172 725 1289 603 
Q 1406 481 1766 481 
L 2356 481 
L 2356 0 
L 1766 0 
Q 1100 0 847 248 
Q 594 497 594 1153 
L 594 3053 
L 172 3053 
L 172 3500 
L 594 3500 
L 594 4494 
L 1172 4494 
z
" id="DejaVuSans-74" transform="scale(0.015625)"/>
       <path d="M 3513 2113 
L 3513 0 
L 2938 0 
L 2938 2094 
Q 2938 2591 2744 2837 
Q 2550 3084 2163 3084 
Q 1697 3084 1428 2787 
Q 1159 2491 1159 1978 
L 1159 0 
L 581 0 
L 581 3500 
L 1159 3500 
L 1159 2956 
Q 1366 3272 1645 3428 
Q 1925 3584 2291 3584 
Q 2894 3584 3203 3211 
Q 3513 2838 3513 2113 
z
" id="DejaVuSans-6e" transform="scale(0.015625)"/>
       <path d="M 1984 4856 
Q 1566 4138 1362 3434 
Q 1159 2731 1159 2009 
Q 1159 1288 1364 580 
Q 1569 -128 1984 -844 
L 1484 -844 
Q 1016 -109 783 600 
Q 550 1309 550 2009 
Q 550 2706 781 3412 
Q 1013 4119 1484 4856 
L 1984 4856 
z
" id="DejaVuSans-28" transform="scale(0.015625)"/>
       <path d="M 3328 2828 
Q 3544 3216 3844 3400 
Q 4144 3584 4550 3584 
Q 5097 3584 5394 3201 
Q 5691 2819 5691 2113 
L 5691 0 
L 5113 0 
L 5113 2094 
Q 5113 2597 4934 2840 
Q 4756 3084 4391 3084 
Q 3944 3084 3684 2787 
Q 3425 2491 3425 1978 
L 3425 0 
L 2847 0 
L 2847 2094 
Q 2847 2600 2669 2842 
Q 2491 3084 2119 3084 
Q 1678 3084 1418 2786 
Q 1159 2488 1159 1978 
L 1159 0 
L 581 0 
L 581 3500 
L 1159 3500 
L 1159 2956 
Q 1356 3278 1631 3431 
Q 1906 3584 2284 3584 
Q 2666 3584 2933 3390 
Q 3200 3197 3328 2828 
z
" id="DejaVuSans-6d" transform="scale(0.015625)"/>
       <path d="M 513 4856 
L 1013 4856 
Q 1481 4119 1714 3412 
Q 1947 2706 1947 2009 
Q 1947 1309 1714 600 
Q 1481 -109 1013 -844 
L 513 -844 
Q 928 -128 1133 580 
Q 1338 1288 1338 2009 
Q 1338 2731 1133 3434 
Q 928 4138 513 4856 
z
" id="DejaVuSans-29" transform="scale(0.015625)"/>
      </defs>
      <use xlink:href="#DejaVuSans-58"/>
      <use x="68.505859" xlink:href="#DejaVuSans-20"/>
      <use x="100.292969" xlink:href="#DejaVuSans-50"/>
      <use x="156.970703" xlink:href="#DejaVuSans-6f"/>
      <use x="218.152344" xlink:href="#DejaVuSans-73"/>
      <use x="270.251953" xlink:href="#DejaVuSans-69"/>
      <use x="298.035156" xlink:href="#DejaVuSans-74"/>
      <use x="337.244141" xlink:href="#DejaVuSans-69"/>
      <use x="365.027344" xlink:href="#DejaVuSans-6f"/>
      <use x="426.208984" xlink:href="#DejaVuSans-6e"/>
      <use x="489.587891" xlink:href="#DejaVuSans-20"/>
      <use x="521.375" xlink:href="#DejaVuSans-28"/>
      <use x="560.388672" xlink:href="#DejaVuSans-6d"/>
      <use x="657.800781" xlink:href="#DejaVuSans-29"/>
     </g>
    </g>
   </g>
   <g id="matplotlib.axis_2">
    <g id="ytick_1">
     <g id="line2d_8">
      <defs>
       <path d="M 0 0 
L -3.5 0 
" id="m12c173e87f" style="stroke:#000000;stroke-width:0.8;"/>
      </defs>
      <g>
       <use style="stroke:#000000;stroke-width:0.8;" x="107.12" xlink:href="#m12c173e87f" y="597.213846"/>
      </g>
     </g>
     <g id="text_9">
      <!-- 0 -->
      <g transform="translate(84.85 606.331971)scale(0.24 -0.24)">
       <use xlink:href="#DejaVuSans-30"/>
      </g>
     </g>
    </g>
    <g id="ytick_2">
     <g id="line2d_9">
      <g>
       <use style="stroke:#000000;stroke-width:0.8;" x="107.12" xlink:href="#m12c173e87f" y="507.189231"/>
      </g>
     </g>
     <g id="text_10">
      <!-- 2 -->
      <g transform="translate(84.85 516.307356)scale(0.24 -0.24)">
       <use xlink:href="#DejaVuSans-32"/>
      </g>
     </g>
    </g>
    <g id="ytick_3">
     <g id="line2d_10">
      <g>
       <use style="stroke:#000000;stroke-width:0.8;" x="107.12" xlink:href="#m12c173e87f" y="417.164615"/>
      </g>
     </g>
     <g id="text_11">
      <!-- 4 -->
      <g transform="translate(84.85 426.28274)scale(0.24 -0.24)">
       <use xlink:href="#DejaVuSans-34"/>
      </g>
     </g>
    </g>
    <g id="ytick_4">
     <g id="line2d_11">
      <g>
       <use style="stroke:#000000;stroke-width:0.8;" x="107.12" xlink:href="#m12c173e87f" y="327.14"/>
      </g>
     </g>
     <g id="text_12">
      <!-- 6 -->
      <g transform="translate(84.85 336.258125)scale(0.24 -0.24)">
       <use xlink:href="#DejaVuSans-36"/>
      </g>
     </g>
    </g>
    <g id="ytick_5">
     <g id="line2d_12">
      <g>
       <use style="stroke:#000000;stroke-width:0.8;" x="107.12" xlink:href="#m12c173e87f" y="237.115385"/>
      </g>
     </g>
     <g id="text_13">
      <!-- 8 -->
      <g transform="translate(84.85 246.23351)scale(0.24 -0.24)">
       <use xlink:href="#DejaVuSans-38"/>
      </g>
     </g>
    </g>
    <g id="ytick_6">
     <g id="line2d_13">
      <g>
       <use style="stroke:#000000;stroke-width:0.8;" x="107.12" xlink:href="#m12c173e87f" y="147.090769"/>
      </g>
     </g>
     <g id="text_14">
      <!-- 10 -->
      <g transform="translate(69.58 156.208894)scale(0.24 -0.24)">
       <use xlink:href="#DejaVuSans-31"/>
       <use x="63.623047" xlink:href="#DejaVuSans-30"/>
      </g>
     </g>
    </g>
    <g id="ytick_7">
     <g id="line2d_14">
      <g>
       <use style="stroke:#000000;stroke-width:0.8;" x="107.12" xlink:href="#m12c173e87f" y="57.066154"/>
      </g>
     </g>
     <g id="text_15">
      <!-- 12 -->
      <g transform="translate(69.58 66.184279)scale(0.24 -0.24)">
       <use xlink:href="#DejaVuSans-31"/>
       <use x="63.623047" xlink:href="#DejaVuSans-32"/>
      </g>
     </g>
    </g>
    <g id="text_16">
     <!-- Y Position (m) -->
     <g transform="translate(58.925 437.4375)rotate(-90)scale(0.32 -0.32)">
      <defs>
       <path d="M -13 4666 
L 666 4666 
L 1959 2747 
L 3244 4666 
L 3922 4666 
L 2272 2222 
L 2272 0 
L 1638 0 
L 1638 2222 
L -13 4666 
z
" id="DejaVuSans-59" transform="scale(0.015625)"/>
      </defs>
      <use xlink:href="#DejaVuSans-59"/>
      <use x="61.083984" xlink:href="#DejaVuSans-20"/>
      <use x="92.871094" xlink:href="#DejaVuSans-50"/>
      <use x="149.548828" xlink:href="#DejaVuSans-6f"/>
      <use x="210.730469" xlink:href="#DejaVuSans-73"/>
      <use x="262.830078" xlink:href="#DejaVuSans-69"/>
      <use x="290.613281" xlink:href="#DejaVuSans-74"/>
      <use x="329.822266" xlink:href="#DejaVuSans-69"/>
      <use x="357.605469" xlink:href="#DejaVuSans-6f"/>
      <use x="418.787109" xlink:href="#DejaVuSans-6e"/>
      <use x="482.166016" xlink:href="#DejaVuSans-20"/>
      <use x="513.953125" xlink:href="#DejaVuSans-28"/>
      <use x="552.966797" xlink:href="#DejaVuSans-6d"/>
      <use x="650.378906" xlink:href="#DejaVuSans-29"/>
     </g>
    </g>
   </g>
   <g id="line2d_15">
    <path clip-path="url(#p4d921adcea)" d="M 138.584615 372.152308 
L 143.9336 381.491967 
L 149.282585 390.389352 
L 154.631569 398.857108 
L 159.980554 406.907481 
L 165.329538 414.552321 
L 170.678523 421.803097 
L 176.027508 428.670905 
L 181.376492 435.166479 
L 186.725477 441.300199 
L 192.074462 447.082105 
L 197.423446 452.521902 
L 202.772431 457.628975 
L 208.121415 462.412395 
L 213.4704 466.880932 
L 218.504738 470.806566 
L 223.539077 474.467624 
L 228.573415 477.870731 
L 233.9224 481.211071 
L 239.271385 484.274906 
L 244.620369 487.069447 
L 249.969354 489.60167 
L 255.318338 491.878329 
L 260.667323 493.905962 
L 266.016308 495.690908 
L 271.365292 497.239308 
L 276.714277 498.557124 
L 282.063262 499.650142 
L 287.412246 500.523988 
L 293.075877 501.216423 
L 298.739508 501.675593 
L 304.403138 501.907655 
L 310.066769 501.918608 
L 315.7304 501.714315 
L 321.708677 501.271494 
L 327.686954 500.601847 
L 333.665231 499.711862 
L 339.958154 498.544015 
L 346.251077 497.14644 
L 352.544 495.526397 
L 359.151569 493.593792 
L 365.759138 491.432134 
L 372.681354 488.930872 
L 379.603569 486.196813 
L 386.840431 483.099954 
L 394.391938 479.620258 
L 402.258092 475.73956 
L 410.124246 471.612066 
L 418.305046 467.073773 
L 427.115138 461.925856 
L 436.239877 456.33259 
L 445.993908 450.088296 
L 453.230769 445.297308 
L 453.230769 445.297308 
" style="fill:none;stroke:#1f77b4;stroke-linecap:square;stroke-width:4;"/>
   </g>
   <g id="line2d_16">
    <path clip-path="url(#p4d921adcea)" d="M 138.584615 372.152308 
L 201.513846 484.683077 
L 264.443077 518.442308 
L 327.372308 518.442308 
L 390.301538 487.496346 
L 453.230769 445.297308 
" style="fill:none;stroke:#1f77b4;stroke-dasharray:14.8,6.4;stroke-dashoffset:0;stroke-width:4;"/>
    <defs>
     <path d="M 0 4.5 
C 1.193414 4.5 2.338109 4.025852 3.181981 3.181981 
C 4.025852 2.338109 4.5 1.193414 4.5 0 
C 4.5 -1.193414 4.025852 -2.338109 3.181981 -3.181981 
C 2.338109 -4.025852 1.193414 -4.5 0 -4.5 
C -1.193414 -4.5 -2.338109 -4.025852 -3.181981 -3.181981 
C -4.025852 -2.338109 -4.5 -1.193414 -4.5 0 
C -4.5 1.193414 -4.025852 2.338109 -3.181981 3.181981 
C -2.338109 4.025852 -1.193414 4.5 0 4.5 
z
" id="m5b78b73011" style="stroke:#1f77b4;"/>
    </defs>
    <g clip-path="url(#p4d921adcea)">
     <use style="fill:#1f77b4;stroke:#1f77b4;" x="138.584615" xlink:href="#m5b78b73011" y="372.152308"/>
     <use style="fill:#1f77b4;stroke:#1f77b4;" x="201.513846" xlink:href="#m5b78b73011" y="484.683077"/>
     <use style="fill:#1f77b4;stroke:#1f77b4;" x="264.443077" xlink:href="#m5b78b73011" y="518.442308"/>
     <use style="fill:#1f77b4;stroke:#1f77b4;" x="327.372308" xlink:href="#m5b78b73011" y="518.442308"/>
     <use style="fill:#1f77b4;stroke:#1f77b4;" x="390.301538" xlink:href="#m5b78b73011" y="487.496346"/>
     <use style="fill:#1f77b4;stroke:#1f77b4;" x="453.230769" xlink:href="#m5b78b73011" y="445.297308"/>
    </g>
   </g>
   <g id="line2d_17">
    <path clip-path="url(#p4d921adcea)" d="M 453.230769 445.297308 
L 464.558031 437.564974 
L 477.458523 428.476514 
L 493.820123 416.654531 
L 534.409477 387.193493 
L 546.366031 378.872583 
L 556.434708 372.134646 
L 565.2448 366.499778 
L 573.4256 361.531319 
L 580.977108 357.208181 
L 587.899323 353.497881 
L 594.506892 350.208219 
L 600.799815 347.327703 
L 606.778092 344.840545 
L 612.441723 342.727114 
L 617.790708 340.964426 
L 622.825046 339.526662 
L 627.859385 338.317042 
L 632.579077 337.402422 
L 637.298769 336.711997 
L 641.703815 336.28039 
L 646.108862 336.06441 
L 650.513908 336.074238 
L 654.604308 336.294667 
L 658.694708 336.727328 
L 662.785108 337.38095 
L 666.875508 338.264451 
L 670.965908 339.386942 
L 675.056308 340.757729 
L 678.832062 342.251669 
L 682.607815 343.972899 
L 686.383569 345.929192 
L 690.159323 348.128473 
L 693.935077 350.578815 
L 697.710831 353.288448 
L 701.486585 356.265751 
L 705.262338 359.519263 
L 709.038092 363.05768 
L 712.813846 366.889858 
L 716.5896 371.024814 
L 720.365354 375.471728 
L 724.141108 380.239946 
L 728.231508 385.779134 
L 732.321908 391.718893 
L 736.412308 398.071773 
L 740.502708 404.850565 
L 744.593108 412.068299 
L 748.683508 419.738248 
L 752.773908 427.873928 
L 756.864308 436.489107 
L 760.954708 445.597799 
L 765.359754 455.975453 
L 767.876923 462.176923 
L 767.876923 462.176923 
" style="fill:none;stroke:#2ca02c;stroke-linecap:square;stroke-width:4;"/>
   </g>
   <g id="line2d_18">
    <path clip-path="url(#p4d921adcea)" d="M 453.230769 445.297308 
L 516.16 403.098269 
L 579.089231 349.646154 
L 642.018462 304.633846 
L 704.947692 304.633846 
L 767.876923 462.176923 
" style="fill:none;stroke:#ff7f0e;stroke-dasharray:14.8,6.4;stroke-dashoffset:0;stroke-width:4;"/>
    <defs>
     <path d="M 0 4.5 
C 1.193414 4.5 2.338109 4.025852 3.181981 3.181981 
C 4.025852 2.338109 4.5 1.193414 4.5 0 
C 4.5 -1.193414 4.025852 -2.338109 3.181981 -3.181981 
C 2.338109 -4.025852 1.193414 -4.5 0 -4.5 
C -1.193414 -4.5 -2.338109 -4.025852 -3.181981 -3.181981 
C -4.025852 -2.338109 -4.5 -1.193414 -4.5 0 
C -4.5 1.193414 -4.025852 2.338109 -3.181981 3.181981 
C -2.338109 4.025852 -1.193414 4.5 0 4.5 
z
" id="mc4bf72a4bd" style="stroke:#ff7f0e;"/>
    </defs>
    <g clip-path="url(#p4d921adcea)">
     <use style="fill:#ff7f0e;stroke:#ff7f0e;" x="453.230769" xlink:href="#mc4bf72a4bd" y="445.297308"/>
     <use style="fill:#ff7f0e;stroke:#ff7f0e;" x="516.16" xlink:href="#mc4bf72a4bd" y="403.098269"/>
     <use style="fill:#ff7f0e;stroke:#ff7f0e;" x="579.089231" xlink:href="#mc4bf72a4bd" y="349.646154"/>
     <use style="fill:#ff7f0e;stroke:#ff7f0e;" x="642.018462" xlink:href="#mc4bf72a4bd" y="304.633846"/>
     <use style="fill:#ff7f0e;stroke:#ff7f0e;" x="704.947692" xlink:href="#mc4bf72a4bd" y="304.633846"/>
     <use style="fill:#ff7f0e;stroke:#ff7f0e;" x="767.876923" xlink:href="#mc4bf72a4bd" y="462.176923"/>
    </g>
   </g>
   <g id="line2d_19">
    <path clip-path="url(#p4d921adcea)" d="M 201.513846 327.14 
L 208.189349 320.148788 
L 214.995029 313.350054 
L 221.922553 306.738122 
L 229.301857 300.005915 
L 236.797072 293.467225 
L 244.747525 286.832527 
L 252.805688 280.398049 
L 261.319135 273.891788 
L 269.92989 267.592753 
L 278.992571 261.246495 
L 288.140079 255.115119 
L 297.36252 249.194345 
L 307.023213 243.256099 
L 316.744662 237.537876 
L 326.894058 231.829221 
L 337.088502 226.351464 
L 347.318423 221.102167 
L 357.955069 215.897685 
L 368.61075 210.935158 
L 379.276653 206.213405 
L 389.944565 201.731669 
L 400.606858 197.489571 
L 411.256473 193.487056 
L 421.886902 189.724349 
L 432.492171 186.201897 
L 443.066827 182.92033 
L 453.60592 179.880404 
L 464.104986 177.082955 
L 474.560033 174.528847 
L 484.967521 172.218927 
L 495.324349 170.153972 
L 505.260803 168.39538 
L 515.145614 166.865625 
L 524.977074 165.564963 
L 534.7538 164.493424 
L 544.474716 163.650769 
L 554.139047 163.036451 
L 563.746298 162.649568 
L 567.29 162.56375 
L 567.29 162.56375 
" style="fill:none;stroke:#ff7f0e;stroke-linecap:square;stroke-width:4;"/>
   </g>
   <g id="line2d_20">
    <path clip-path="url(#p4d921adcea)" d="M 201.513846 327.14 
L 264.443077 259.621538 
L 343.104615 214.609231 
L 421.766154 180.85 
L 496.494615 163.970385 
L 567.29 162.56375 
" style="fill:none;stroke:#2ca02c;stroke-dasharray:14.8,6.4;stroke-dashoffset:0;stroke-width:4;"/>
    <defs>
     <path d="M 0 4.5 
C 1.193414 4.5 2.338109 4.025852 3.181981 3.181981 
C 4.025852 2.338109 4.5 1.193414 4.5 0 
C 4.5 -1.193414 4.025852 -2.338109 3.181981 -3.181981 
C 2.338109 -4.025852 1.193414 -4.5 0 -4.5 
C -1.193414 -4.5 -2.338109 -4.025852 -3.181981 -3.181981 
C -4.025852 -2.338109 -4.5 -1.193414 -4.5 0 
C -4.5 1.193414 -4.025852 2.338109 -3.181981 3.181981 
C -2.338109 4.025852 -1.193414 4.5 0 4.5 
z
" id="mbbbd410d9d" style="stroke:#2ca02c;"/>
    </defs>
    <g clip-path="url(#p4d921adcea)">
     <use style="fill:#2ca02c;stroke:#2ca02c;" x="201.513846" xlink:href="#mbbbd410d9d" y="327.14"/>
     <use style="fill:#2ca02c;stroke:#2ca02c;" x="264.443077" xlink:href="#mbbbd410d9d" y="259.621538"/>
     <use style="fill:#2ca02c;stroke:#2ca02c;" x="343.104615" xlink:href="#mbbbd410d9d" y="214.609231"/>
     <use style="fill:#2ca02c;stroke:#2ca02c;" x="421.766154" xlink:href="#mbbbd410d9d" y="180.85"/>
     <use style="fill:#2ca02c;stroke:#2ca02c;" x="496.494615" xlink:href="#mbbbd410d9d" y="163.970385"/>
     <use style="fill:#2ca02c;stroke:#2ca02c;" x="567.29" xlink:href="#mbbbd410d9d" y="162.56375"/>
    </g>
   </g>
   <g id="line2d_21">
    <path clip-path="url(#p4d921adcea)" d="M 567.29 162.56375 
L 576.818715 162.486356 
L 586.290229 162.632626 
L 595.704901 163.000173 
L 605.063313 163.586081 
L 614.36626 164.386861 
L 623.956236 165.439866 
L 633.488939 166.71422 
L 642.965876 168.203799 
L 652.724287 169.966015 
L 662.426746 171.942829 
L 672.407264 174.203108 
L 682.662861 176.755861 
L 693.191093 179.606598 
L 704.316483 182.855046 
L 716.032761 186.514206 
L 728.65775 190.696069 
L 742.82535 195.629471 
L 760.755612 202.124759 
L 801.73244 217.062708 
L 814.373242 221.380144 
L 825.101981 224.814417 
L 834.559189 227.612905 
L 843.064992 229.906957 
L 850.937146 231.810188 
L 858.49206 233.410043 
L 865.415987 234.657999 
L 872.024367 235.634024 
L 878.317612 236.350277 
L 884.610632 236.840966 
L 890.588923 237.082018 
L 893.735385 237.115385 
L 893.735385 237.115385 
" style="fill:none;stroke:#d62728;stroke-linecap:square;stroke-width:4;"/>
   </g>
   <g id="line2d_22">
    <path clip-path="url(#p4d921adcea)" d="M 567.29 162.56375 
L 638.085385 161.157115 
L 704.947692 175.223462 
L 767.876923 203.356154 
L 830.806154 237.115385 
L 893.735385 237.115385 
" style="fill:none;stroke:#d62728;stroke-dasharray:14.8,6.4;stroke-dashoffset:0;stroke-width:4;"/>
    <defs>
     <path d="M 0 4.5 
C 1.193414 4.5 2.338109 4.025852 3.181981 3.181981 
C 4.025852 2.338109 4.5 1.193414 4.5 0 
C 4.5 -1.193414 4.025852 -2.338109 3.181981 -3.181981 
C 2.338109 -4.025852 1.193414 -4.5 0 -4.5 
C -1.193414 -4.5 -2.338109 -4.025852 -3.181981 -3.181981 
C -4.025852 -2.338109 -4.5 -1.193414 -4.5 0 
C -4.5 1.193414 -4.025852 2.338109 -3.181981 3.181981 
C -2.338109 4.025852 -1.193414 4.5 0 4.5 
z
" id="me8d967dddd" style="stroke:#d62728;"/>
    </defs>
    <g clip-path="url(#p4d921adcea)">
     <use style="fill:#d62728;stroke:#d62728;" x="567.29" xlink:href="#me8d967dddd" y="162.56375"/>
     <use style="fill:#d62728;stroke:#d62728;" x="638.085385" xlink:href="#me8d967dddd" y="161.157115"/>
     <use style="fill:#d62728;stroke:#d62728;" x="704.947692" xlink:href="#me8d967dddd" y="175.223462"/>
     <use style="fill:#d62728;stroke:#d62728;" x="767.876923" xlink:href="#me8d967dddd" y="203.356154"/>
     <use style="fill:#d62728;stroke:#d62728;" x="830.806154" xlink:href="#me8d967dddd" y="237.115385"/>
     <use style="fill:#d62728;stroke:#d62728;" x="893.735385" xlink:href="#me8d967dddd" y="237.115385"/>
    </g>
   </g>
   <g id="line2d_23">
    <path clip-path="url(#p4d921adcea)" d="M 453.230769 445.297308 
L 138.584615 372.152308 
" style="fill:none;stroke:#000000;stroke-dasharray:4,6.6;stroke-dashoffset:0;stroke-width:4;"/>
   </g>
   <g id="line2d_24">
    <path clip-path="url(#p4d921adcea)" d="M 327.372308 518.442308 
L 264.443077 518.442308 
" style="fill:none;stroke:#000000;stroke-dasharray:4,6.6;stroke-dashoffset:0;stroke-width:4;"/>
   </g>
   <g id="line2d_25">
    <path clip-path="url(#p4d921adcea)" d="M 201.513846 484.683077 
L 138.584615 372.152308 
" style="fill:none;stroke:#000000;stroke-dasharray:4,6.6;stroke-dashoffset:0;stroke-width:4;"/>
   </g>
   <g id="line2d_26">
    <path clip-path="url(#p4d921adcea)" d="M 201.513846 484.683077 
L 264.443077 518.442308 
" style="fill:none;stroke:#000000;stroke-dasharray:4,6.6;stroke-dashoffset:0;stroke-width:4;"/>
   </g>
   <g id="line2d_27">
    <path clip-path="url(#p4d921adcea)" d="M 390.301538 487.496346 
L 453.230769 445.297308 
" style="fill:none;stroke:#000000;stroke-dasharray:4,6.6;stroke-dashoffset:0;stroke-width:4;"/>
   </g>
   <g id="line2d_28">
    <path clip-path="url(#p4d921adcea)" d="M 390.301538 487.496346 
L 327.372308 518.442308 
" style="fill:none;stroke:#000000;stroke-dasharray:4,6.6;stroke-dashoffset:0;stroke-width:4;"/>
   </g>
   <g id="line2d_29">
    <path clip-path="url(#p4d921adcea)" d="M 767.876923 462.176923 
L 453.230769 445.297308 
" style="fill:none;stroke:#000000;stroke-dasharray:4,6.6;stroke-dashoffset:0;stroke-width:4;"/>
   </g>
   <g id="line2d_30">
    <path clip-path="url(#p4d921adcea)" d="M 704.947692 304.633846 
L 767.876923 462.176923 
" style="fill:none;stroke:#000000;stroke-dasharray:4,6.6;stroke-dashoffset:0;stroke-width:4;"/>
   </g>
   <g id="line2d_31">
    <path clip-path="url(#p4d921adcea)" d="M 704.947692 304.633846 
L 642.018462 304.633846 
" style="fill:none;stroke:#000000;stroke-dasharray:4,6.6;stroke-dashoffset:0;stroke-width:4;"/>
   </g>
   <g id="line2d_32">
    <path clip-path="url(#p4d921adcea)" d="M 579.089231 349.646154 
L 453.230769 445.297308 
" style="fill:none;stroke:#000000;stroke-dasharray:4,6.6;stroke-dashoffset:0;stroke-width:4;"/>
   </g>
   <g id="line2d_33">
    <path clip-path="url(#p4d921adcea)" d="M 579.089231 349.646154 
L 642.018462 304.633846 
" style="fill:none;stroke:#000000;stroke-dasharray:4,6.6;stroke-dashoffset:0;stroke-width:4;"/>
   </g>
   <g id="line2d_34">
    <path clip-path="url(#p4d921adcea)" d="M 567.29 162.56375 
L 201.513846 327.14 
" style="fill:none;stroke:#000000;stroke-dasharray:4,6.6;stroke-dashoffset:0;stroke-width:4;"/>
   </g>
   <g id="line2d_35">
    <path clip-path="url(#p4d921adcea)" d="M 264.443077 259.621538 
L 201.513846 327.14 
" style="fill:none;stroke:#000000;stroke-dasharray:4,6.6;stroke-dashoffset:0;stroke-width:4;"/>
   </g>
   <g id="line2d_36">
    <path clip-path="url(#p4d921adcea)" d="M 496.494615 163.970385 
L 567.29 162.56375 
" style="fill:none;stroke:#000000;stroke-dasharray:4,6.6;stroke-dashoffset:0;stroke-width:4;"/>
   </g>
   <g id="line2d_37">
    <path clip-path="url(#p4d921adcea)" d="M 496.494615 163.970385 
L 421.766154 180.85 
" style="fill:none;stroke:#000000;stroke-dasharray:4,6.6;stroke-dashoffset:0;stroke-width:4;"/>
   </g>
   <g id="line2d_38">
    <path clip-path="url(#p4d921adcea)" d="M 343.104615 214.609231 
L 264.443077 259.621538 
" style="fill:none;stroke:#000000;stroke-dasharray:4,6.6;stroke-dashoffset:0;stroke-width:4;"/>
   </g>
   <g id="line2d_39">
    <path clip-path="url(#p4d921adcea)" d="M 343.104615 214.609231 
L 421.766154 180.85 
" style="fill:none;stroke:#000000;stroke-dasharray:4,6.6;stroke-dashoffset:0;stroke-width:4;"/>
   </g>
   <g id="line2d_40">
    <path clip-path="url(#p4d921adcea)" d="M 638.085385 161.157115 
L 567.29 162.56375 
" style="fill:none;stroke:#000000;stroke-dasharray:4,6.6;stroke-dashoffset:0;stroke-width:4;"/>
   </g>
   <g id="line2d_41">
    <path clip-path="url(#p4d921adcea)" d="M 830.806154 237.115385 
L 567.29 162.56375 
" style="fill:none;stroke:#000000;stroke-dasharray:4,6.6;stroke-dashoffset:0;stroke-width:4;"/>
   </g>
   <g id="line2d_42">
    <path clip-path="url(#p4d921adcea)" d="M 830.806154 237.115385 
L 893.735385 237.115385 
" style="fill:none;stroke:#000000;stroke-dasharray:4,6.6;stroke-dashoffset:0;stroke-width:4;"/>
   </g>
   <g id="line2d_43">
    <path clip-path="url(#p4d921adcea)" d="M 704.947692 175.223462 
L 893.735385 237.115385 
" style="fill:none;stroke:#000000;stroke-dasharray:4,6.6;stroke-dashoffset:0;stroke-width:4;"/>
   </g>
   <g id="line2d_44">
    <path clip-path="url(#p4d921adcea)" d="M 704.947692 175.223462 
L 638.085385 161.157115 
" style="fill:none;stroke:#000000;stroke-dasharray:4,6.6;stroke-dashoffset:0;stroke-width:4;"/>
   </g>
   <g id="patch_4">
    <path d="M 107.12 619.72 
L 107.12 34.56 
" style="fill:none;stroke:#000000;stroke-linecap:square;stroke-linejoin:miter;stroke-width:0.8;"/>
   </g>
   <g id="patch_5">
    <path d="M 925.2 619.72 
L 925.2 34.56 
" style="fill:none;stroke:#000000;stroke-linecap:square;stroke-linejoin:miter;stroke-width:0.8;"/>
   </g>
   <g id="patch_6">
    <path d="M 107.12 619.72 
L 925.2 619.72 
" style="fill:none;stroke:#000000;stroke-linecap:square;stroke-linejoin:miter;stroke-width:0.8;"/>
   </g>
   <g id="patch_7">
    <path d="M 107.12 34.56 
L 925.2 34.56 
" style="fill:none;stroke:#000000;stroke-linecap:square;stroke-linejoin:miter;stroke-width:0.8;"/>
   </g>
  </g>
 </g>
 <defs>
  <clipPath id="p4d921adcea">
   <rect height="585.16" width="818.08" x="107.12" y="34.56"/>
  </clipPath>
 </defs>
</svg>
