<?xml version="1.0" encoding="utf-8" standalone="no"?>
<!DOCTYPE svg PUBLIC "-//W3C//DTD SVG 1.1//EN"
  "http://www.w3.org/Graphics/SVG/1.1/DTD/svg11.dtd">
<!-- Created with matplotlib (https://matplotlib.org/) -->
<svg height="720pt" version="1.1" viewBox="0 0 959.976 720" width="959.976pt" xmlns="http://www.w3.org/2000/svg" xmlns:xlink="http://www.w3.org/1999/xlink">
 <metadata>
  <rdf:RDF xmlns:cc="http://creativecommons.org/ns#" xmlns:dc="http://purl.org/dc/elements/1.1/" xmlns:rdf="http://www.w3.org/1999/02/22-rdf-syntax-ns#">
   <cc:Work>
    <dc:type rdf:resource="http://purl.org/dc/dcmitype/StillImage"/>
    <dc:date>2020-08-31T17:07:36.914933</dc:date>
    <dc:format>image/svg+xml</dc:format>
    <dc:creator>
     <cc:Agent>
      <dc:title>Matplotlib v3.3.1, https://matplotlib.org/</dc:title>
     </cc:Agent>
    </dc:creator>
   </cc:Work>
  </rdf:RDF>
 </metadata>
 <defs>
  <style type="text/css">*{stroke-linecap:butt;stroke-linejoin:round;}</style>
 </defs>
 <g id="figure_1">
  <g id="patch_1">
   <path d="M 0 720 
L 959.976 720 
L 959.976 0 
L 0 0 
z
" style="fill:#ffffff;"/>
  </g>
  <g id="axes_1">
   <g id="patch_2">
    <path d="M 154.19 588.04 
L 916.776 588.04 
L 916.776 43.2 
L 154.19 43.2 
z
" style="fill:#ffffff;"/>
   </g>
   <g id="matplotlib.axis_1">
    <g id="xtick_1">
     <g id="line2d_1">
      <defs>
       <path d="M 0 0 
L 0 3.5 
" id="md9460479d5" style="stroke:#000000;stroke-width:0.8;"/>
      </defs>
      <g>
       <use style="stroke:#000000;stroke-width:0.8;" x="188.853" xlink:href="#md9460479d5" y="588.04"/>
      </g>
     </g>
     <g id="text_1">
      <!-- 10 -->
      <g transform="translate(163.403 625.43375)scale(0.4 -0.4)">
       <defs>
        <path d="M 12.40625 8.296875 
L 28.515625 8.296875 
L 28.515625 63.921875 
L 10.984375 60.40625 
L 10.984375 69.390625 
L 28.421875 72.90625 
L 38.28125 72.90625 
L 38.28125 8.296875 
L 54.390625 8.296875 
L 54.390625 0 
L 12.40625 0 
z
" id="DejaVuSans-49"/>
        <path d="M 31.78125 66.40625 
Q 24.171875 66.40625 20.328125 58.90625 
Q 16.5 51.421875 16.5 36.375 
Q 16.5 21.390625 20.328125 13.890625 
Q 24.171875 6.390625 31.78125 6.390625 
Q 39.453125 6.390625 43.28125 13.890625 
Q 47.125 21.390625 47.125 36.375 
Q 47.125 51.421875 43.28125 58.90625 
Q 39.453125 66.40625 31.78125 66.40625 
z
M 31.78125 74.21875 
Q 44.046875 74.21875 50.515625 64.515625 
Q 56.984375 54.828125 56.984375 36.375 
Q 56.984375 17.96875 50.515625 8.265625 
Q 44.046875 -1.421875 31.78125 -1.421875 
Q 19.53125 -1.421875 13.0625 8.265625 
Q 6.59375 17.96875 6.59375 36.375 
Q 6.59375 54.828125 13.0625 64.515625 
Q 19.53125 74.21875 31.78125 74.21875 
z
" id="DejaVuSans-48"/>
       </defs>
       <use xlink:href="#DejaVuSans-49"/>
       <use x="63.623047" xlink:href="#DejaVuSans-48"/>
      </g>
     </g>
    </g>
    <g id="xtick_2">
     <g id="line2d_2">
      <g>
       <use style="stroke:#000000;stroke-width:0.8;" x="327.505" xlink:href="#md9460479d5" y="588.04"/>
      </g>
     </g>
     <g id="text_2">
      <!-- 12 -->
      <g transform="translate(302.055 625.43375)scale(0.4 -0.4)">
       <defs>
        <path d="M 19.1875 8.296875 
L 53.609375 8.296875 
L 53.609375 0 
L 7.328125 0 
L 7.328125 8.296875 
Q 12.9375 14.109375 22.625 23.890625 
Q 32.328125 33.6875 34.8125 36.53125 
Q 39.546875 41.84375 41.421875 45.53125 
Q 43.3125 49.21875 43.3125 52.78125 
Q 43.3125 58.59375 39.234375 62.25 
Q 35.15625 65.921875 28.609375 65.921875 
Q 23.96875 65.921875 18.8125 64.3125 
Q 13.671875 62.703125 7.8125 59.421875 
L 7.8125 69.390625 
Q 13.765625 71.78125 18.9375 73 
Q 24.125 74.21875 28.421875 74.21875 
Q 39.75 74.21875 46.484375 68.546875 
Q 53.21875 62.890625 53.21875 53.421875 
Q 53.21875 48.921875 51.53125 44.890625 
Q 49.859375 40.875 45.40625 35.40625 
Q 44.1875 33.984375 37.640625 27.21875 
Q 31.109375 20.453125 19.1875 8.296875 
z
" id="DejaVuSans-50"/>
       </defs>
       <use xlink:href="#DejaVuSans-49"/>
       <use x="63.623047" xlink:href="#DejaVuSans-50"/>
      </g>
     </g>
    </g>
    <g id="xtick_3">
     <g id="line2d_3">
      <g>
       <use style="stroke:#000000;stroke-width:0.8;" x="466.157" xlink:href="#md9460479d5" y="588.04"/>
      </g>
     </g>
     <g id="text_3">
      <!-- 14 -->
      <g transform="translate(440.707 625.43375)scale(0.4 -0.4)">
       <defs>
        <path d="M 37.796875 64.3125 
L 12.890625 25.390625 
L 37.796875 25.390625 
z
M 35.203125 72.90625 
L 47.609375 72.90625 
L 47.609375 25.390625 
L 58.015625 25.390625 
L 58.015625 17.1875 
L 47.609375 17.1875 
L 47.609375 0 
L 37.796875 0 
L 37.796875 17.1875 
L 4.890625 17.1875 
L 4.890625 26.703125 
z
" id="DejaVuSans-52"/>
       </defs>
       <use xlink:href="#DejaVuSans-49"/>
       <use x="63.623047" xlink:href="#DejaVuSans-52"/>
      </g>
     </g>
    </g>
    <g id="xtick_4">
     <g id="line2d_4">
      <g>
       <use style="stroke:#000000;stroke-width:0.8;" x="604.809" xlink:href="#md9460479d5" y="588.04"/>
      </g>
     </g>
     <g id="text_4">
      <!-- 16 -->
      <g transform="translate(579.359 625.43375)scale(0.4 -0.4)">
       <defs>
        <path d="M 33.015625 40.375 
Q 26.375 40.375 22.484375 35.828125 
Q 18.609375 31.296875 18.609375 23.390625 
Q 18.609375 15.53125 22.484375 10.953125 
Q 26.375 6.390625 33.015625 6.390625 
Q 39.65625 6.390625 43.53125 10.953125 
Q 47.40625 15.53125 47.40625 23.390625 
Q 47.40625 31.296875 43.53125 35.828125 
Q 39.65625 40.375 33.015625 40.375 
z
M 52.59375 71.296875 
L 52.59375 62.3125 
Q 48.875 64.0625 45.09375 64.984375 
Q 41.3125 65.921875 37.59375 65.921875 
Q 27.828125 65.921875 22.671875 59.328125 
Q 17.53125 52.734375 16.796875 39.40625 
Q 19.671875 43.65625 24.015625 45.921875 
Q 28.375 48.1875 33.59375 48.1875 
Q 44.578125 48.1875 50.953125 41.515625 
Q 57.328125 34.859375 57.328125 23.390625 
Q 57.328125 12.15625 50.6875 5.359375 
Q 44.046875 -1.421875 33.015625 -1.421875 
Q 20.359375 -1.421875 13.671875 8.265625 
Q 6.984375 17.96875 6.984375 36.375 
Q 6.984375 53.65625 15.1875 63.9375 
Q 23.390625 74.21875 37.203125 74.21875 
Q 40.921875 74.21875 44.703125 73.484375 
Q 48.484375 72.75 52.59375 71.296875 
z
" id="DejaVuSans-54"/>
       </defs>
       <use xlink:href="#DejaVuSans-49"/>
       <use x="63.623047" xlink:href="#DejaVuSans-54"/>
      </g>
     </g>
    </g>
    <g id="xtick_5">
     <g id="line2d_5">
      <g>
       <use style="stroke:#000000;stroke-width:0.8;" x="743.461" xlink:href="#md9460479d5" y="588.04"/>
      </g>
     </g>
     <g id="text_5">
      <!-- 18 -->
      <g transform="translate(718.011 625.43375)scale(0.4 -0.4)">
       <defs>
        <path d="M 31.78125 34.625 
Q 24.75 34.625 20.71875 30.859375 
Q 16.703125 27.09375 16.703125 20.515625 
Q 16.703125 13.921875 20.71875 10.15625 
Q 24.75 6.390625 31.78125 6.390625 
Q 38.8125 6.390625 42.859375 10.171875 
Q 46.921875 13.96875 46.921875 20.515625 
Q 46.921875 27.09375 42.890625 30.859375 
Q 38.875 34.625 31.78125 34.625 
z
M 21.921875 38.8125 
Q 15.578125 40.375 12.03125 44.71875 
Q 8.5 49.078125 8.5 55.328125 
Q 8.5 64.0625 14.71875 69.140625 
Q 20.953125 74.21875 31.78125 74.21875 
Q 42.671875 74.21875 48.875 69.140625 
Q 55.078125 64.0625 55.078125 55.328125 
Q 55.078125 49.078125 51.53125 44.71875 
Q 48 40.375 41.703125 38.8125 
Q 48.828125 37.15625 52.796875 32.3125 
Q 56.78125 27.484375 56.78125 20.515625 
Q 56.78125 9.90625 50.3125 4.234375 
Q 43.84375 -1.421875 31.78125 -1.421875 
Q 19.734375 -1.421875 13.25 4.234375 
Q 6.78125 9.90625 6.78125 20.515625 
Q 6.78125 27.484375 10.78125 32.3125 
Q 14.796875 37.15625 21.921875 38.8125 
z
M 18.3125 54.390625 
Q 18.3125 48.734375 21.84375 45.5625 
Q 25.390625 42.390625 31.78125 42.390625 
Q 38.140625 42.390625 41.71875 45.5625 
Q 45.3125 48.734375 45.3125 54.390625 
Q 45.3125 60.0625 41.71875 63.234375 
Q 38.140625 66.40625 31.78125 66.40625 
Q 25.390625 66.40625 21.84375 63.234375 
Q 18.3125 60.0625 18.3125 54.390625 
z
" id="DejaVuSans-56"/>
       </defs>
       <use xlink:href="#DejaVuSans-49"/>
       <use x="63.623047" xlink:href="#DejaVuSans-56"/>
      </g>
     </g>
    </g>
    <g id="xtick_6">
     <g id="line2d_6">
      <g>
       <use style="stroke:#000000;stroke-width:0.8;" x="882.113" xlink:href="#md9460479d5" y="588.04"/>
      </g>
     </g>
     <g id="text_6">
      <!-- 20 -->
      <g transform="translate(856.663 625.43375)scale(0.4 -0.4)">
       <use xlink:href="#DejaVuSans-50"/>
       <use x="63.623047" xlink:href="#DejaVuSans-48"/>
      </g>
     </g>
    </g>
    <g id="text_7">
     <!-- Time (s) -->
     <g transform="translate(454.167375 668.14625)scale(0.4 -0.4)">
      <defs>
       <path d="M -0.296875 72.90625 
L 61.375 72.90625 
L 61.375 64.59375 
L 35.5 64.59375 
L 35.5 0 
L 25.59375 0 
L 25.59375 64.59375 
L -0.296875 64.59375 
z
" id="DejaVuSans-84"/>
       <path d="M 9.421875 54.6875 
L 18.40625 54.6875 
L 18.40625 0 
L 9.421875 0 
z
M 9.421875 75.984375 
L 18.40625 75.984375 
L 18.40625 64.59375 
L 9.421875 64.59375 
z
" id="DejaVuSans-105"/>
       <path d="M 52 44.1875 
Q 55.375 50.25 60.0625 53.125 
Q 64.75 56 71.09375 56 
Q 79.640625 56 84.28125 50.015625 
Q 88.921875 44.046875 88.921875 33.015625 
L 88.921875 0 
L 79.890625 0 
L 79.890625 32.71875 
Q 79.890625 40.578125 77.09375 44.375 
Q 74.3125 48.1875 68.609375 48.1875 
Q 61.625 48.1875 57.5625 43.546875 
Q 53.515625 38.921875 53.515625 30.90625 
L 53.515625 0 
L 44.484375 0 
L 44.484375 32.71875 
Q 44.484375 40.625 41.703125 44.40625 
Q 38.921875 48.1875 33.109375 48.1875 
Q 26.21875 48.1875 22.15625 43.53125 
Q 18.109375 38.875 18.109375 30.90625 
L 18.109375 0 
L 9.078125 0 
L 9.078125 54.6875 
L 18.109375 54.6875 
L 18.109375 46.1875 
Q 21.1875 51.21875 25.484375 53.609375 
Q 29.78125 56 35.6875 56 
Q 41.65625 56 45.828125 52.96875 
Q 50 49.953125 52 44.1875 
z
" id="DejaVuSans-109"/>
       <path d="M 56.203125 29.59375 
L 56.203125 25.203125 
L 14.890625 25.203125 
Q 15.484375 15.921875 20.484375 11.0625 
Q 25.484375 6.203125 34.421875 6.203125 
Q 39.59375 6.203125 44.453125 7.46875 
Q 49.3125 8.734375 54.109375 11.28125 
L 54.109375 2.78125 
Q 49.265625 0.734375 44.1875 -0.34375 
Q 39.109375 -1.421875 33.890625 -1.421875 
Q 20.796875 -1.421875 13.15625 6.1875 
Q 5.515625 13.8125 5.515625 26.8125 
Q 5.515625 40.234375 12.765625 48.109375 
Q 20.015625 56 32.328125 56 
Q 43.359375 56 49.78125 48.890625 
Q 56.203125 41.796875 56.203125 29.59375 
z
M 47.21875 32.234375 
Q 47.125 39.59375 43.09375 43.984375 
Q 39.0625 48.390625 32.421875 48.390625 
Q 24.90625 48.390625 20.390625 44.140625 
Q 15.875 39.890625 15.1875 32.171875 
z
" id="DejaVuSans-101"/>
       <path id="DejaVuSans-32"/>
       <path d="M 31 75.875 
Q 24.46875 64.65625 21.28125 53.65625 
Q 18.109375 42.671875 18.109375 31.390625 
Q 18.109375 20.125 21.3125 9.0625 
Q 24.515625 -2 31 -13.1875 
L 23.1875 -13.1875 
Q 15.875 -1.703125 12.234375 9.375 
Q 8.59375 20.453125 8.59375 31.390625 
Q 8.59375 42.28125 12.203125 53.3125 
Q 15.828125 64.359375 23.1875 75.875 
z
" id="DejaVuSans-40"/>
       <path d="M 44.28125 53.078125 
L 44.28125 44.578125 
Q 40.484375 46.53125 36.375 47.5 
Q 32.28125 48.484375 27.875 48.484375 
Q 21.1875 48.484375 17.84375 46.4375 
Q 14.5 44.390625 14.5 40.28125 
Q 14.5 37.15625 16.890625 35.375 
Q 19.28125 33.59375 26.515625 31.984375 
L 29.59375 31.296875 
Q 39.15625 29.25 43.1875 25.515625 
Q 47.21875 21.78125 47.21875 15.09375 
Q 47.21875 7.46875 41.1875 3.015625 
Q 35.15625 -1.421875 24.609375 -1.421875 
Q 20.21875 -1.421875 15.453125 -0.5625 
Q 10.6875 0.296875 5.421875 2 
L 5.421875 11.28125 
Q 10.40625 8.6875 15.234375 7.390625 
Q 20.0625 6.109375 24.8125 6.109375 
Q 31.15625 6.109375 34.5625 8.28125 
Q 37.984375 10.453125 37.984375 14.40625 
Q 37.984375 18.0625 35.515625 20.015625 
Q 33.0625 21.96875 24.703125 23.78125 
L 21.578125 24.515625 
Q 13.234375 26.265625 9.515625 29.90625 
Q 5.8125 33.546875 5.8125 39.890625 
Q 5.8125 47.609375 11.28125 51.796875 
Q 16.75 56 26.8125 56 
Q 31.78125 56 36.171875 55.265625 
Q 40.578125 54.546875 44.28125 53.078125 
z
" id="DejaVuSans-115"/>
       <path d="M 8.015625 75.875 
L 15.828125 75.875 
Q 23.140625 64.359375 26.78125 53.3125 
Q 30.421875 42.28125 30.421875 31.390625 
Q 30.421875 20.453125 26.78125 9.375 
Q 23.140625 -1.703125 15.828125 -13.1875 
L 8.015625 -13.1875 
Q 14.5 -2 17.703125 9.0625 
Q 20.90625 20.125 20.90625 31.390625 
Q 20.90625 42.671875 17.703125 53.65625 
Q 14.5 64.65625 8.015625 75.875 
z
" id="DejaVuSans-41"/>
      </defs>
      <use xlink:href="#DejaVuSans-84"/>
      <use x="57.958984" xlink:href="#DejaVuSans-105"/>
      <use x="85.742188" xlink:href="#DejaVuSans-109"/>
      <use x="183.154297" xlink:href="#DejaVuSans-101"/>
      <use x="244.677734" xlink:href="#DejaVuSans-32"/>
      <use x="276.464844" xlink:href="#DejaVuSans-40"/>
      <use x="315.478516" xlink:href="#DejaVuSans-115"/>
      <use x="367.578125" xlink:href="#DejaVuSans-41"/>
     </g>
    </g>
   </g>
   <g id="matplotlib.axis_2">
    <g id="ytick_1">
     <g id="line2d_7">
      <defs>
       <path d="M 0 0 
L -3.5 0 
" id="m1ed8e88289" style="stroke:#000000;stroke-width:0.8;"/>
      </defs>
      <g>
       <use style="stroke:#000000;stroke-width:0.8;" x="154.19" xlink:href="#m1ed8e88289" y="430.602468"/>
      </g>
     </g>
     <g id="text_8">
      <!-- −2 -->
      <g transform="translate(88.22125 445.799343)scale(0.4 -0.4)">
       <defs>
        <path d="M 10.59375 35.5 
L 73.1875 35.5 
L 73.1875 27.203125 
L 10.59375 27.203125 
z
" id="DejaVuSans-8722"/>
       </defs>
       <use xlink:href="#DejaVuSans-8722"/>
       <use x="83.789062" xlink:href="#DejaVuSans-50"/>
      </g>
     </g>
    </g>
    <g id="ytick_2">
     <g id="line2d_8">
      <g>
       <use style="stroke:#000000;stroke-width:0.8;" x="154.19" xlink:href="#m1ed8e88289" y="253.706364"/>
      </g>
     </g>
     <g id="text_9">
      <!-- 0 -->
      <g transform="translate(121.74 268.903239)scale(0.4 -0.4)">
       <use xlink:href="#DejaVuSans-48"/>
      </g>
     </g>
    </g>
    <g id="ytick_3">
     <g id="line2d_9">
      <g>
       <use style="stroke:#000000;stroke-width:0.8;" x="154.19" xlink:href="#m1ed8e88289" y="76.81026"/>
      </g>
     </g>
     <g id="text_10">
      <!-- 2 -->
      <g transform="translate(121.74 92.007135)scale(0.4 -0.4)">
       <use xlink:href="#DejaVuSans-50"/>
      </g>
     </g>
    </g>
    <g id="text_11">
     <!-- $\tan (\psi)$ -->
     <g transform="translate(75.82125 377.22)rotate(-90)scale(0.4 -0.4)">
      <defs>
       <path d="M 18.3125 70.21875 
L 18.3125 54.6875 
L 36.8125 54.6875 
L 36.8125 47.703125 
L 18.3125 47.703125 
L 18.3125 18.015625 
Q 18.3125 11.328125 20.140625 9.421875 
Q 21.96875 7.515625 27.59375 7.515625 
L 36.8125 7.515625 
L 36.8125 0 
L 27.59375 0 
Q 17.1875 0 13.234375 3.875 
Q 9.28125 7.765625 9.28125 18.015625 
L 9.28125 47.703125 
L 2.6875 47.703125 
L 2.6875 54.6875 
L 9.28125 54.6875 
L 9.28125 70.21875 
z
" id="DejaVuSans-116"/>
       <path d="M 34.28125 27.484375 
Q 23.390625 27.484375 19.1875 25 
Q 14.984375 22.515625 14.984375 16.5 
Q 14.984375 11.71875 18.140625 8.90625 
Q 21.296875 6.109375 26.703125 6.109375 
Q 34.1875 6.109375 38.703125 11.40625 
Q 43.21875 16.703125 43.21875 25.484375 
L 43.21875 27.484375 
z
M 52.203125 31.203125 
L 52.203125 0 
L 43.21875 0 
L 43.21875 8.296875 
Q 40.140625 3.328125 35.546875 0.953125 
Q 30.953125 -1.421875 24.3125 -1.421875 
Q 15.921875 -1.421875 10.953125 3.296875 
Q 6 8.015625 6 15.921875 
Q 6 25.140625 12.171875 29.828125 
Q 18.359375 34.515625 30.609375 34.515625 
L 43.21875 34.515625 
L 43.21875 35.40625 
Q 43.21875 41.609375 39.140625 45 
Q 35.0625 48.390625 27.6875 48.390625 
Q 23 48.390625 18.546875 47.265625 
Q 14.109375 46.140625 10.015625 43.890625 
L 10.015625 52.203125 
Q 14.9375 54.109375 19.578125 55.046875 
Q 24.21875 56 28.609375 56 
Q 40.484375 56 46.34375 49.84375 
Q 52.203125 43.703125 52.203125 31.203125 
z
" id="DejaVuSans-97"/>
       <path d="M 54.890625 33.015625 
L 54.890625 0 
L 45.90625 0 
L 45.90625 32.71875 
Q 45.90625 40.484375 42.875 44.328125 
Q 39.84375 48.1875 33.796875 48.1875 
Q 26.515625 48.1875 22.3125 43.546875 
Q 18.109375 38.921875 18.109375 30.90625 
L 18.109375 0 
L 9.078125 0 
L 9.078125 54.6875 
L 18.109375 54.6875 
L 18.109375 46.1875 
Q 21.34375 51.125 25.703125 53.5625 
Q 30.078125 56 35.796875 56 
Q 45.21875 56 50.046875 50.171875 
Q 54.890625 44.34375 54.890625 33.015625 
z
" id="DejaVuSans-110"/>
       <path d="M 24.859375 -1.21875 
Q 13.921875 0.59375 9.625 5.328125 
Q 4.34375 11.140625 6.640625 23 
L 12.796875 54.6875 
L 21.875 54.6875 
L 15.765625 23.34375 
Q 14.0625 14.40625 17.484375 10.6875 
Q 20.515625 7.46875 26.421875 6.78125 
L 35.6875 54.6875 
L 44.625 54.6875 
L 35.359375 6.84375 
Q 41.890625 7.515625 45.75 10.75 
Q 50.734375 14.84375 52.390625 23.390625 
L 58.453125 54.6875 
L 67.53125 54.6875 
L 61.375 23.046875 
Q 58.984375 10.75 51.5625 5.375 
Q 44.875 0.53125 33.796875 -1.171875 
L 29.984375 -20.796875 
L 21.046875 -20.796875 
z
" id="DejaVuSans-Oblique-968"/>
      </defs>
      <use transform="translate(0 0.125)" xlink:href="#DejaVuSans-116"/>
      <use transform="translate(39.208984 0.125)" xlink:href="#DejaVuSans-97"/>
      <use transform="translate(100.488281 0.125)" xlink:href="#DejaVuSans-110"/>
      <use transform="translate(163.867188 0.125)" xlink:href="#DejaVuSans-40"/>
      <use transform="translate(202.880859 0.125)" xlink:href="#DejaVuSans-Oblique-968"/>
      <use transform="translate(268.847656 0.125)" xlink:href="#DejaVuSans-41"/>
     </g>
    </g>
   </g>
   <g id="line2d_10">
    <path clip-path="url(#p60241dccf8)" d="M 188.853 474.826494 
L 195.7856 462.653407 
L 202.7182 450.88921 
L 210.34406 438.402672 
L 217.96992 426.372767 
L 225.59578 414.780472 
L 233.22164 403.607415 
L 240.8475 392.835875 
L 248.47336 382.448786 
L 256.09922 372.429735 
L 263.72508 362.762959 
L 271.35094 353.43335 
L 279.67006 343.623163 
L 287.98918 334.179159 
L 296.3083 325.084381 
L 304.62742 316.322793 
L 312.94654 307.879289 
L 321.26566 299.739683 
L 329.58478 291.890715 
L 338.59716 283.701358 
L 347.60954 275.824175 
L 356.62192 268.24598 
L 365.6343 260.95486 
L 374.64668 253.940173 
L 383.65906 247.192554 
L 392.67144 240.703908 
L 402.37708 233.997961 
L 412.08272 227.577603 
L 421.78836 221.437681 
L 431.494 215.57475 
L 441.19964 209.987082 
L 450.21202 205.044962 
L 459.2244 200.341462 
L 468.23678 195.879163 
L 477.24916 191.66192 
L 486.26154 187.694859 
L 495.27392 183.984383 
L 503.59304 180.793681 
L 511.91216 177.835131 
L 520.23128 175.116656 
L 528.5504 172.647104 
L 536.17626 170.610349 
L 543.80212 168.799168 
L 551.42798 167.222423 
L 559.05384 165.889628 
L 565.98644 164.898232 
L 572.91904 164.12495 
L 579.85164 163.578334 
L 586.78424 163.267382 
L 593.02358 163.196815 
L 599.26292 163.331973 
L 605.50226 163.680344 
L 611.7416 164.249704 
L 617.98094 165.048126 
L 624.22028 166.083971 
L 630.45962 167.365898 
L 636.0057 168.719201 
L 641.55178 170.280483 
L 647.09786 172.056406 
L 652.64394 174.053812 
L 658.19002 176.279729 
L 663.7361 178.741365 
L 669.28218 181.446112 
L 674.82826 184.401545 
L 680.37434 187.615421 
L 685.92042 191.095678 
L 691.4665 194.850439 
L 697.01258 198.888008 
L 702.55866 203.216873 
L 708.10474 207.845703 
L 713.65082 212.783351 
L 719.1969 218.038852 
L 724.74298 223.621423 
L 730.28906 229.540465 
L 735.83514 235.80556 
L 741.38122 242.426474 
L 746.9273 249.413154 
L 752.47338 256.775731 
L 758.01946 264.524519 
L 763.56554 272.670012 
L 769.11162 281.222889 
L 774.6577 290.194012 
L 780.20378 299.594423 
L 785.74986 309.435349 
L 791.29594 319.728198 
L 796.84202 330.484562 
L 802.3881 341.716214 
L 807.93418 353.435111 
L 813.48026 365.653392 
L 819.02634 378.383378 
L 824.57242 391.637574 
L 830.1185 405.428666 
L 835.66458 419.769525 
L 841.21066 434.673201 
L 846.75674 450.152929 
L 852.99608 468.272899 
L 859.23542 487.158302 
L 865.47476 506.828809 
L 871.7141 527.304387 
L 877.95344 548.605291 
L 882.113 563.274545 
L 882.113 563.274545 
" style="fill:none;stroke:#1f77b4;stroke-linecap:square;stroke-width:4;"/>
   </g>
   <g id="line2d_11">
    <path clip-path="url(#p60241dccf8)" d="M 188.853 474.826494 
L 327.505 227.171948 
L 466.157 191.792727 
L 604.809 103.344675 
L 743.461 67.965455 
L 882.113 563.274545 
" style="fill:none;stroke:#1f77b4;stroke-dasharray:14.8,6.4;stroke-dashoffset:0;stroke-width:4;"/>
    <defs>
     <path d="M 0 4.5 
C 1.193414 4.5 2.338109 4.025852 3.181981 3.181981 
C 4.025852 2.338109 4.5 1.193414 4.5 0 
C 4.5 -1.193414 4.025852 -2.338109 3.181981 -3.181981 
C 2.338109 -4.025852 1.193414 -4.5 0 -4.5 
C -1.193414 -4.5 -2.338109 -4.025852 -3.181981 -3.181981 
C -4.025852 -2.338109 -4.5 -1.193414 -4.5 0 
C -4.5 1.193414 -4.025852 2.338109 -3.181981 3.181981 
C -2.338109 4.025852 -1.193414 4.5 0 4.5 
z
" id="m455de662b9" style="stroke:#1f77b4;"/>
    </defs>
    <g clip-path="url(#p60241dccf8)">
     <use style="fill:#1f77b4;stroke:#1f77b4;" x="188.853" xlink:href="#m455de662b9" y="474.826494"/>
     <use style="fill:#1f77b4;stroke:#1f77b4;" x="327.505" xlink:href="#m455de662b9" y="227.171948"/>
     <use style="fill:#1f77b4;stroke:#1f77b4;" x="466.157" xlink:href="#m455de662b9" y="191.792727"/>
     <use style="fill:#1f77b4;stroke:#1f77b4;" x="604.809" xlink:href="#m455de662b9" y="103.344675"/>
     <use style="fill:#1f77b4;stroke:#1f77b4;" x="743.461" xlink:href="#m455de662b9" y="67.965455"/>
     <use style="fill:#1f77b4;stroke:#1f77b4;" x="882.113" xlink:href="#m455de662b9" y="563.274545"/>
    </g>
   </g>
   <g id="line2d_12">
    <path clip-path="url(#p60241dccf8)" d="M 188.853 121.034286 
L 194.39908 125.828532 
L 199.94516 130.325106 
L 205.49124 134.551484 
L 211.73058 139.013542 
L 217.96992 143.195428 
L 224.20926 147.124496 
L 231.14186 151.223074 
L 238.07446 155.06903 
L 245.70032 159.038932 
L 253.32618 162.765524 
L 261.6453 166.585238 
L 270.65768 170.468921 
L 280.36332 174.394171 
L 290.76222 178.345684 
L 301.85438 182.315402 
L 314.33306 186.530557 
L 328.19826 190.963653 
L 344.14324 195.812266 
L 362.86126 201.263976 
L 389.20514 208.684443 
L 453.67832 226.75771 
L 480.71546 234.621012 
L 507.05934 242.513626 
L 537.56278 251.895136 
L 601.3427 271.596114 
L 620.06072 277.088718 
L 635.31244 281.342471 
L 649.17764 284.978377 
L 661.65632 288.017363 
L 672.74848 290.498655 
L 683.14738 292.608678 
L 692.85302 294.365821 
L 702.55866 295.895723 
L 711.57104 297.093293 
L 720.58342 298.057271 
L 728.90254 298.72363 
L 737.22166 299.160161 
L 744.84752 299.345547 
L 752.47338 299.313431 
L 760.09924 299.052001 
L 767.03184 298.605336 
L 773.96444 297.950333 
L 780.89704 297.077954 
L 787.82964 295.979111 
L 794.76224 294.644672 
L 801.69484 293.065448 
L 807.93418 291.427218 
L 814.17352 289.576438 
L 820.41286 287.50627 
L 826.6522 285.209816 
L 832.89154 282.680106 
L 839.13088 279.910086 
L 845.37022 276.892605 
L 851.60956 273.6204 
L 857.8489 270.086073 
L 864.08824 266.282077 
L 870.32758 262.200689 
L 876.56692 257.833985 
L 882.113 253.706364 
L 882.113 253.706364 
" style="fill:none;stroke:#ff7f0e;stroke-linecap:square;stroke-width:4;"/>
   </g>
   <g id="line2d_13">
    <path clip-path="url(#p60241dccf8)" d="M 188.853 121.034286 
L 327.505 209.482338 
L 466.157 216.853009 
L 604.809 280.240779 
L 743.461 359.844026 
L 882.113 253.706364 
" style="fill:none;stroke:#ff7f0e;stroke-dasharray:14.8,6.4;stroke-dashoffset:0;stroke-width:4;"/>
    <defs>
     <path d="M 0 4.5 
C 1.193414 4.5 2.338109 4.025852 3.181981 3.181981 
C 4.025852 2.338109 4.5 1.193414 4.5 0 
C 4.5 -1.193414 4.025852 -2.338109 3.181981 -3.181981 
C 2.338109 -4.025852 1.193414 -4.5 0 -4.5 
C -1.193414 -4.5 -2.338109 -4.025852 -3.181981 -3.181981 
C -4.025852 -2.338109 -4.5 -1.193414 -4.5 0 
C -4.5 1.193414 -4.025852 2.338109 -3.181981 3.181981 
C -2.338109 4.025852 -1.193414 4.5 0 4.5 
z
" id="mbe44c9af10" style="stroke:#ff7f0e;"/>
    </defs>
    <g clip-path="url(#p60241dccf8)">
     <use style="fill:#ff7f0e;stroke:#ff7f0e;" x="188.853" xlink:href="#mbe44c9af10" y="121.034286"/>
     <use style="fill:#ff7f0e;stroke:#ff7f0e;" x="327.505" xlink:href="#mbe44c9af10" y="209.482338"/>
     <use style="fill:#ff7f0e;stroke:#ff7f0e;" x="466.157" xlink:href="#mbe44c9af10" y="216.853009"/>
     <use style="fill:#ff7f0e;stroke:#ff7f0e;" x="604.809" xlink:href="#mbe44c9af10" y="280.240779"/>
     <use style="fill:#ff7f0e;stroke:#ff7f0e;" x="743.461" xlink:href="#mbe44c9af10" y="359.844026"/>
     <use style="fill:#ff7f0e;stroke:#ff7f0e;" x="882.113" xlink:href="#mbe44c9af10" y="253.706364"/>
    </g>
   </g>
   <g id="patch_3">
    <path d="M 154.19 588.04 
L 154.19 43.2 
" style="fill:none;stroke:#000000;stroke-linecap:square;stroke-linejoin:miter;stroke-width:0.8;"/>
   </g>
   <g id="patch_4">
    <path d="M 916.776 588.04 
L 916.776 43.2 
" style="fill:none;stroke:#000000;stroke-linecap:square;stroke-linejoin:miter;stroke-width:0.8;"/>
   </g>
   <g id="patch_5">
    <path d="M 154.19 588.04 
L 916.776 588.04 
" style="fill:none;stroke:#000000;stroke-linecap:square;stroke-linejoin:miter;stroke-width:0.8;"/>
   </g>
   <g id="patch_6">
    <path d="M 154.19 43.2 
L 916.776 43.2 
" style="fill:none;stroke:#000000;stroke-linecap:square;stroke-linejoin:miter;stroke-width:0.8;"/>
   </g>
   <g id="legend_1">
    <g id="patch_7">
     <path d="M 379.883 568.04 
L 691.083 568.04 
Q 699.083 568.04 699.083 560.04 
L 699.083 340.04 
Q 699.083 332.04 691.083 332.04 
L 379.883 332.04 
Q 371.883 332.04 371.883 340.04 
L 371.883 560.04 
Q 371.883 568.04 379.883 568.04 
z
" style="fill:#ffffff;opacity:0.8;stroke:#cccccc;stroke-linejoin:miter;"/>
    </g>
    <g id="line2d_14">
     <path d="M 387.883 393.24 
L 467.883 393.24 
" style="fill:none;stroke:#1f77b4;stroke-linecap:square;stroke-width:4;"/>
    </g>
    <g id="line2d_15"/>
    <g id="text_12">
     <!-- $\tan(\frac{\dot C^{[1]}_y(t)}{\dot C^{[1]}_x(t)})$ -->
     <g transform="translate(499.883 407.24)scale(0.4 -0.4)">
      <defs>
       <path d="M -29.59375 75.984375 
L -20.609375 75.984375 
L -20.609375 64.59375 
L -29.59375 64.59375 
z
M -25 56 
z
" id="DejaVuSans-775"/>
       <path d="M 69.484375 67.28125 
L 67.484375 56.890625 
Q 62.796875 61.625 57.546875 63.921875 
Q 52.296875 66.21875 46.1875 66.21875 
Q 37.84375 66.21875 31.515625 62.203125 
Q 25.203125 58.203125 20.609375 50 
Q 17.671875 44.734375 16.125 38.84375 
Q 14.59375 32.953125 14.59375 27 
Q 14.59375 17.046875 19.75 11.8125 
Q 24.90625 6.59375 34.71875 6.59375 
Q 41.5 6.59375 47.75 8.765625 
Q 54 10.9375 59.90625 15.28125 
L 57.625 3.609375 
Q 51.8125 1.125 45.875 -0.140625 
Q 39.9375 -1.421875 33.984375 -1.421875 
Q 19.96875 -1.421875 12.078125 6.1875 
Q 4.203125 13.8125 4.203125 27.390625 
Q 4.203125 36.078125 7.203125 44.46875 
Q 10.203125 52.875 15.828125 59.8125 
Q 21.78125 67.1875 29.421875 70.703125 
Q 37.0625 74.21875 47.21875 74.21875 
Q 53.46875 74.21875 59.0625 72.484375 
Q 64.65625 70.75 69.484375 67.28125 
z
" id="DejaVuSans-Oblique-67"/>
       <path d="M 8.59375 75.984375 
L 29.296875 75.984375 
L 29.296875 69 
L 17.578125 69 
L 17.578125 -6.203125 
L 29.296875 -6.203125 
L 29.296875 -13.1875 
L 8.59375 -13.1875 
z
" id="DejaVuSans-91"/>
       <path d="M 30.421875 75.984375 
L 30.421875 -13.1875 
L 9.71875 -13.1875 
L 9.71875 -6.203125 
L 21.390625 -6.203125 
L 21.390625 69 
L 9.71875 69 
L 9.71875 75.984375 
z
" id="DejaVuSans-93"/>
       <path d="M 24.8125 -5.078125 
Q 18.5625 -15.578125 14.625 -18.1875 
Q 10.6875 -20.796875 4.59375 -20.796875 
L -2.484375 -20.796875 
L -0.984375 -13.28125 
L 4.203125 -13.28125 
Q 7.953125 -13.28125 10.59375 -11.234375 
Q 13.234375 -9.1875 16.5 -3.21875 
L 19.28125 2 
L 7.171875 54.6875 
L 16.703125 54.6875 
L 25.78125 12.796875 
L 50.875 54.6875 
L 60.296875 54.6875 
z
" id="DejaVuSans-Oblique-121"/>
       <path d="M 42.28125 54.6875 
L 40.921875 47.703125 
L 23 47.703125 
L 17.1875 18.015625 
Q 16.890625 16.359375 16.75 15.234375 
Q 16.609375 14.109375 16.609375 13.484375 
Q 16.609375 10.359375 18.484375 8.9375 
Q 20.359375 7.515625 24.515625 7.515625 
L 33.59375 7.515625 
L 32.078125 0 
L 23.484375 0 
Q 15.484375 0 11.546875 3.125 
Q 7.625 6.25 7.625 12.59375 
Q 7.625 13.71875 7.765625 15.0625 
Q 7.90625 16.40625 8.203125 18.015625 
L 14.015625 47.703125 
L 6.390625 47.703125 
L 7.8125 54.6875 
L 15.28125 54.6875 
L 18.3125 70.21875 
L 27.296875 70.21875 
L 24.3125 54.6875 
z
" id="DejaVuSans-Oblique-116"/>
       <path d="M 60.015625 54.6875 
L 34.90625 27.875 
L 50.296875 0 
L 39.984375 0 
L 28.421875 21.6875 
L 8.296875 0 
L -2.59375 0 
L 24.3125 28.8125 
L 10.015625 54.6875 
L 20.3125 54.6875 
L 30.8125 34.90625 
L 49.125 54.6875 
z
" id="DejaVuSans-Oblique-120"/>
      </defs>
      <use transform="translate(0 0.179844)" xlink:href="#DejaVuSans-116"/>
      <use transform="translate(39.208984 0.179844)" xlink:href="#DejaVuSans-97"/>
      <use transform="translate(100.488281 0.179844)" xlink:href="#DejaVuSans-110"/>
      <use transform="translate(163.867188 0.179844)" xlink:href="#DejaVuSans-40"/>
      <use transform="translate(249.023828 94.807813)scale(0.7)" xlink:href="#DejaVuSans-775"/>
      <use transform="translate(202.880859 73.307813)scale(0.7)" xlink:href="#DejaVuSans-Oblique-67"/>
      <use transform="translate(252.427734 100.104687)scale(0.49)" xlink:href="#DejaVuSans-91"/>
      <use transform="translate(271.544434 100.104687)scale(0.49)" xlink:href="#DejaVuSans-49"/>
      <use transform="translate(302.719727 100.104687)scale(0.49)" xlink:href="#DejaVuSans-93"/>
      <use transform="translate(252.427734 54.167187)scale(0.49)" xlink:href="#DejaVuSans-Oblique-121"/>
      <use transform="translate(323.750488 73.307813)scale(0.7)" xlink:href="#DejaVuSans-40"/>
      <use transform="translate(351.060059 73.307813)scale(0.7)" xlink:href="#DejaVuSans-Oblique-116"/>
      <use transform="translate(378.506348 73.307813)scale(0.7)" xlink:href="#DejaVuSans-41"/>
      <use transform="translate(249.023828 -40.465469)scale(0.7)" xlink:href="#DejaVuSans-775"/>
      <use transform="translate(202.880859 -61.965469)scale(0.7)" xlink:href="#DejaVuSans-Oblique-67"/>
      <use transform="translate(252.427734 -35.168594)scale(0.49)" xlink:href="#DejaVuSans-91"/>
      <use transform="translate(271.544434 -35.168594)scale(0.49)" xlink:href="#DejaVuSans-49"/>
      <use transform="translate(302.719727 -35.168594)scale(0.49)" xlink:href="#DejaVuSans-93"/>
      <use transform="translate(252.427734 -81.106094)scale(0.49)" xlink:href="#DejaVuSans-Oblique-120"/>
      <use transform="translate(323.750488 -61.965469)scale(0.7)" xlink:href="#DejaVuSans-40"/>
      <use transform="translate(351.060059 -61.965469)scale(0.7)" xlink:href="#DejaVuSans-Oblique-116"/>
      <use transform="translate(378.506348 -61.965469)scale(0.7)" xlink:href="#DejaVuSans-41"/>
      <use transform="translate(418.315918 0.179844)" xlink:href="#DejaVuSans-41"/>
      <path d="M 202.880859 18.976719 
L 202.880859 25.226719 
L 405.815918 25.226719 
L 405.815918 18.976719 
L 202.880859 18.976719 
z
"/>
     </g>
    </g>
    <g id="line2d_16">
     <path d="M 387.883 505.24 
L 467.883 505.24 
" style="fill:none;stroke:#ff7f0e;stroke-linecap:square;stroke-width:4;"/>
    </g>
    <g id="line2d_17"/>
    <g id="text_13">
     <!-- $\tan(\frac{\dot C^{[2]}_y(t)}{\dot C^{[2]}_x(t)})$ -->
     <g transform="translate(499.883 519.24)scale(0.4 -0.4)">
      <use transform="translate(0 0.179844)" xlink:href="#DejaVuSans-116"/>
      <use transform="translate(39.208984 0.179844)" xlink:href="#DejaVuSans-97"/>
      <use transform="translate(100.488281 0.179844)" xlink:href="#DejaVuSans-110"/>
      <use transform="translate(163.867188 0.179844)" xlink:href="#DejaVuSans-40"/>
      <use transform="translate(249.023828 94.807813)scale(0.7)" xlink:href="#DejaVuSans-775"/>
      <use transform="translate(202.880859 73.307813)scale(0.7)" xlink:href="#DejaVuSans-Oblique-67"/>
      <use transform="translate(252.427734 100.104687)scale(0.49)" xlink:href="#DejaVuSans-91"/>
      <use transform="translate(271.544434 100.104687)scale(0.49)" xlink:href="#DejaVuSans-50"/>
      <use transform="translate(302.719727 100.104687)scale(0.49)" xlink:href="#DejaVuSans-93"/>
      <use transform="translate(252.427734 54.167187)scale(0.49)" xlink:href="#DejaVuSans-Oblique-121"/>
      <use transform="translate(323.750488 73.307813)scale(0.7)" xlink:href="#DejaVuSans-40"/>
      <use transform="translate(351.060059 73.307813)scale(0.7)" xlink:href="#DejaVuSans-Oblique-116"/>
      <use transform="translate(378.506348 73.307813)scale(0.7)" xlink:href="#DejaVuSans-41"/>
      <use transform="translate(249.023828 -40.465469)scale(0.7)" xlink:href="#DejaVuSans-775"/>
      <use transform="translate(202.880859 -61.965469)scale(0.7)" xlink:href="#DejaVuSans-Oblique-67"/>
      <use transform="translate(252.427734 -35.168594)scale(0.49)" xlink:href="#DejaVuSans-91"/>
      <use transform="translate(271.544434 -35.168594)scale(0.49)" xlink:href="#DejaVuSans-50"/>
      <use transform="translate(302.719727 -35.168594)scale(0.49)" xlink:href="#DejaVuSans-93"/>
      <use transform="translate(252.427734 -81.106094)scale(0.49)" xlink:href="#DejaVuSans-Oblique-120"/>
      <use transform="translate(323.750488 -61.965469)scale(0.7)" xlink:href="#DejaVuSans-40"/>
      <use transform="translate(351.060059 -61.965469)scale(0.7)" xlink:href="#DejaVuSans-Oblique-116"/>
      <use transform="translate(378.506348 -61.965469)scale(0.7)" xlink:href="#DejaVuSans-41"/>
      <use transform="translate(418.315918 0.179844)" xlink:href="#DejaVuSans-41"/>
      <path d="M 202.880859 18.976719 
L 202.880859 25.226719 
L 405.815918 25.226719 
L 405.815918 18.976719 
L 202.880859 18.976719 
z
"/>
     </g>
    </g>
   </g>
  </g>
 </g>
 <defs>
  <clipPath id="p60241dccf8">
   <rect height="544.84" width="762.586" x="154.19" y="43.2"/>
  </clipPath>
 </defs>
</svg>
