<?xml version="1.0" encoding="utf-8" standalone="no"?>
<!DOCTYPE svg PUBLIC "-//W3C//DTD SVG 1.1//EN"
  "http://www.w3.org/Graphics/SVG/1.1/DTD/svg11.dtd">
<!-- Created with matplotlib (https://matplotlib.org/) -->
<svg height="716.4pt" version="1.1" viewBox="0 0 1342.8 716.4" width="1342.8pt" xmlns="http://www.w3.org/2000/svg" xmlns:xlink="http://www.w3.org/1999/xlink">
 <defs>
  <style type="text/css">
*{stroke-linecap:butt;stroke-linejoin:round;}
  </style>
 </defs>
 <g id="figure_1">
  <g id="patch_1">
   <path d="M 0 716.4 
L 1342.8 716.4 
L 1342.8 0 
L 0 0 
z
" style="fill:#ffffff;"/>
  </g>
  <g id="axes_1">
   <g id="patch_2">
    <path d="M 1342.8 0.347286 
L 1342.8 716.052714 
L -0 716.052714 
L -0 0.347286 
L 1342.8 0.347286 
" style="fill:#ffffff;"/>
   </g>
   <g id="PathCollection_1">
    <defs>
     <path d="M 731.055957 -565.404839 
L 726.813922 -563.90243 
L 727.525781 -550.596665 
L 727.000795 -550.600333 
L 723.022985 -547.816876 
L 719.578484 -545.415615 
L 717.362091 -540.967573 
L 721.021045 -536.652447 
L 719.964069 -530.653862 
L 720.174647 -524.240118 
L 719.851584 -519.014626 
L 724.938532 -514.653237 
L 726.967282 -514.519743 
L 732.576181 -511.382904 
L 734.546605 -509.865742 
L 735.854571 -507.382135 
L 740.325898 -503.521073 
L 746.260872 -500.312007 
L 746.913408 -498.392656 
L 747.255267 -492.715263 
L 747.84841 -490.08038 
L 725.305746 -489.496593 
L 700.213397 -488.592532 
L 676.863563 -487.941038 
L 658.080163 -487.959499 
L 658.414293 -510.030368 
L 656.500534 -532.703792 
L 653.590916 -534.568442 
L 651.974708 -538.245472 
L 652.900246 -541.449922 
L 656.63232 -544.070894 
L 656.941842 -547.522029 
L 656.976364 -551.830575 
L 655.970647 -555.443619 
L 654.616032 -559.300177 
L 653.86496 -564.135623 
L 653.710482 -569.560377 
L 653.169764 -570.86199 
L 652.569949 -577.845359 
L 652.530351 -581.04703 
L 652.240225 -583.898818 
L 651.485298 -588.737335 
L 649.591403 -593.655022 
L 647.788627 -598.046145 
L 647.564321 -602.383088 
L 647.421594 -607.063727 
L 647.997286 -610.105686 
L 648.140512 -612.887999 
L 646.705293 -616.350225 
L 646.503586 -618.70956 
L 679.110963 -618.614628 
L 679.067015 -627.81855 
L 684.365364 -628.003993 
L 687.33619 -614.889088 
L 692.324243 -610.920908 
L 703.423287 -609.699373 
L 719.741193 -606.407913 
L 735.50168 -599.667584 
L 748.243398 -603.448751 
L 768.256226 -598.509211 
L 768.26006 -598.509482 
L 768.255878 -598.502388 
L 752.42342 -589.588055 
L 741.499998 -579.438928 
L 730.954265 -568.892398 
z
" id="m3e4c94330a" style="stroke:#000000;"/>
    </defs>
    <g clip-path="url(#p8c20a3dcd2)">
     <use style="fill:#efefdb;stroke:#000000;" x="0" xlink:href="#m3e4c94330a" y="716.4"/>
    </g>
   </g>
   <g id="PathCollection_2">
    <defs>
     <path d="M 533.192832 -551.902205 
L 530.418943 -530.350482 
L 502.577752 -533.341075 
L 472.54187 -536.749793 
L 446.702665 -540.541948 
L 414.021063 -545.471347 
L 412.106332 -533.600766 
L 411.667678 -532.823932 
L 410.064435 -534.413137 
L 408.996609 -537.959629 
L 407.301812 -538.909176 
L 404.135631 -534.689403 
L 400.184284 -534.602123 
L 391.037588 -537.735089 
L 390.18036 -535.524684 
L 384.880996 -537.377271 
L 381.202299 -534.728472 
L 379.393389 -541.32492 
L 378.002596 -545.095525 
L 374.738887 -546.31023 
L 374.061732 -548.202129 
L 374.197128 -554.482153 
L 371.85199 -557.955583 
L 371.432555 -565.670486 
L 370.118132 -569.258457 
L 368.264056 -570.295624 
L 365.939299 -567.359406 
L 362.154085 -565.249166 
L 359.715526 -568.145358 
L 360.781204 -574.127544 
L 362.980378 -575.237773 
L 362.848126 -581.496161 
L 365.67762 -587.290527 
L 368.493732 -592.091972 
L 363.710885 -593.307139 
L 360.290622 -597.54275 
L 357.37903 -605.675189 
L 355.507743 -609.850918 
L 352.33285 -612.847302 
L 350.215289 -617.208752 
L 351.145895 -621.394357 
L 348.385283 -628.49593 
L 352.61785 -653.26028 
L 398.720896 -643.73962 
L 445.113374 -635.753691 
L 491.742038 -629.297154 
L 538.563972 -624.364437 
L 534.918523 -580.736521 
z
" id="m975537bb26" style="stroke:#000000;"/>
    </defs>
    <g clip-path="url(#p8c20a3dcd2)">
     <use style="fill:#efefdb;stroke:#000000;" x="0" xlink:href="#m975537bb26" y="716.4"/>
    </g>
   </g>
   <g id="PathCollection_3">
    <defs>
     <path d="M 646.503586 -618.70956 
L 646.705293 -616.350225 
L 648.140512 -612.887999 
L 647.997286 -610.105686 
L 647.421594 -607.063727 
L 647.564321 -602.383088 
L 647.788627 -598.046145 
L 649.591403 -593.655022 
L 651.485298 -588.737335 
L 652.240225 -583.898818 
L 652.530351 -581.04703 
L 652.569949 -577.845359 
L 653.169764 -570.86199 
L 653.710482 -569.560377 
L 653.86496 -564.135623 
L 654.616032 -559.300177 
L 655.970647 -555.443619 
L 656.976364 -551.830575 
L 656.941842 -547.522029 
L 625.458571 -546.74463 
L 598.586354 -547.757678 
L 564.710716 -549.557698 
L 533.192832 -551.902205 
L 534.918523 -580.736521 
L 538.563972 -624.364437 
L 592.965923 -620.486742 
z
" id="m3d324965cf" style="stroke:#000000;"/>
    </defs>
    <g clip-path="url(#p8c20a3dcd2)">
     <use style="fill:#efefdb;stroke:#000000;" x="0" xlink:href="#m3d324965cf" y="716.4"/>
    </g>
   </g>
   <g id="PathCollection_4">
    <defs>
     <path d="M 411.667678 -532.823932 
L 412.189424 -532.305312 
L 402.503429 -474.409585 
L 350.878264 -483.709288 
L 299.490907 -495.09344 
L 309.453 -536.307534 
L 312.440081 -542.503185 
L 311.802521 -545.814591 
L 309.081587 -548.103362 
L 309.989561 -551.772138 
L 313.543827 -556.449786 
L 318.149311 -560.179962 
L 322.217418 -567.081574 
L 325.780858 -572.525559 
L 328.11327 -575.155999 
L 328.051667 -578.864883 
L 325.769853 -581.361458 
L 322.999399 -586.699298 
L 324.098217 -590.776291 
L 323.45714 -594.64388 
L 330.599357 -627.008878 
L 337.518778 -656.706356 
L 352.61785 -653.26028 
L 348.385283 -628.49593 
L 351.145895 -621.394357 
L 350.215289 -617.208752 
L 352.33285 -612.847302 
L 355.507743 -609.850918 
L 357.37903 -605.675189 
L 360.290622 -597.54275 
L 363.710885 -593.307139 
L 368.493732 -592.091972 
L 365.67762 -587.290527 
L 362.848126 -581.496161 
L 362.980378 -575.237773 
L 360.781204 -574.127544 
L 359.715526 -568.145358 
L 362.154085 -565.249166 
L 365.939299 -567.359406 
L 368.264056 -570.295624 
L 370.118132 -569.258457 
L 371.432555 -565.670486 
L 371.85199 -557.955583 
L 374.197128 -554.482153 
L 374.061732 -548.202129 
L 374.738887 -546.31023 
L 378.002596 -545.095525 
L 379.393389 -541.32492 
L 381.202299 -534.728472 
L 384.880996 -537.377271 
L 390.18036 -535.524684 
L 391.037588 -537.735089 
L 400.184284 -534.602123 
L 404.135631 -534.689403 
L 407.301812 -538.909176 
L 408.996609 -537.959629 
L 410.064435 -534.413137 
z
" id="m64756db447" style="stroke:#000000;"/>
    </defs>
    <g clip-path="url(#p8c20a3dcd2)">
     <use style="fill:#efefdb;stroke:#000000;" x="0" xlink:href="#m64756db447" y="716.4"/>
    </g>
   </g>
   <g id="PathCollection_5">
    <defs>
     <path d="M 337.518778 -656.706356 
L 330.599357 -627.008878 
L 323.45714 -594.64388 
L 324.098217 -590.776291 
L 322.999399 -586.699298 
L 289.823136 -594.689824 
L 283.452423 -593.793646 
L 279.634249 -595.879314 
L 276.010497 -594.845554 
L 269.387507 -593.929361 
L 262.244069 -596.218904 
L 258.086716 -595.385638 
L 254.5048 -595.520929 
L 252.330392 -597.429511 
L 246.906306 -600.042755 
L 243.074397 -600.370322 
L 236.194694 -599.777019 
L 232.256333 -600.871664 
L 228.831095 -602.844211 
L 228.615663 -606.384105 
L 229.349988 -610.319622 
L 227.73281 -615.550579 
L 223.54958 -618.25501 
L 220.367826 -621.505121 
L 215.604838 -623.118258 
L 212.128265 -624.245778 
L 215.062111 -637.819755 
L 216.415445 -658.779082 
L 215.393365 -670.757485 
L 218.674002 -674.593816 
L 238.231993 -659.898942 
L 239.901371 -635.872015 
L 245.545277 -640.743455 
L 248.690541 -660.217409 
L 249.196316 -680.540448 
L 292.156054 -668.221215 
z
" id="mbaea965d56" style="stroke:#000000;"/>
    </defs>
    <g clip-path="url(#p8c20a3dcd2)">
     <use style="fill:#efefdb;stroke:#000000;" x="0" xlink:href="#mbaea965d56" y="716.4"/>
    </g>
   </g>
   <g id="PathCollection_6">
    <defs>
     <path d="M 420.488306 -352.481011 
L 401.417678 -220.32657 
L 361.587194 -226.353118 
L 319.065947 -250.946294 
L 291.591763 -268.215521 
L 294.368224 -272.35805 
L 296.92004 -271.717259 
L 300.029183 -275.902607 
L 297.252319 -279.797754 
L 297.284515 -283.405756 
L 297.128716 -287.689634 
L 302.005328 -292.213396 
L 305.721354 -302.476959 
L 312.51593 -306.031846 
L 309.799708 -311.208183 
L 308.217001 -316.068189 
L 307.479766 -320.437027 
L 307.082107 -323.780566 
L 307.129572 -325.923281 
L 309.233185 -330.211024 
L 309.241278 -334.920647 
L 309.781421 -339.468139 
L 310.824771 -344.431594 
L 309.807307 -347.940502 
L 311.678297 -350.515561 
L 315.617947 -349.699281 
L 318.869552 -347.328448 
L 321.242826 -345.893125 
L 323.192081 -349.160711 
L 324.149036 -349.768599 
L 327.751663 -368.35492 
L 357.715846 -362.973694 
L 393.443818 -356.787411 
z
" id="ma21e5f7b39" style="stroke:#000000;"/>
    </defs>
    <g clip-path="url(#p8c20a3dcd2)">
     <use style="fill:#efefdb;stroke:#000000;" x="0" xlink:href="#ma21e5f7b39" y="716.4"/>
    </g>
   </g>
   <g id="PathCollection_7">
    <defs>
     <path d="M 248.819008 -507.730215 
L 230.383069 -439.626025 
L 256.228037 -400.093746 
L 281.974601 -361.98551 
L 307.129572 -325.923281 
L 307.082107 -323.780566 
L 307.479766 -320.437027 
L 308.217001 -316.068189 
L 309.799708 -311.208183 
L 312.51593 -306.031846 
L 305.721354 -302.476959 
L 302.005328 -292.213396 
L 297.128716 -287.689634 
L 297.284515 -283.405756 
L 297.252319 -279.797754 
L 300.029183 -275.902607 
L 296.92004 -271.717259 
L 294.368224 -272.35805 
L 269.009516 -275.224271 
L 246.421277 -278.549057 
L 245.947289 -291.075063 
L 236.661933 -307.30076 
L 228.409133 -312.266957 
L 227.980045 -319.357366 
L 217.600193 -323.240866 
L 212.43151 -331.188521 
L 195.50158 -338.159091 
L 191.717445 -343.152504 
L 192.906685 -356.234442 
L 181.463371 -384.105887 
L 175.63697 -419.943911 
L 177.84138 -424.97562 
L 172.225664 -434.793188 
L 164.412249 -457.8494 
L 167.784069 -476.903114 
L 162.518703 -492.079119 
L 172.232776 -509.46027 
L 177.810109 -528.878928 
z
" id="mb7f8fac27d" style="stroke:#000000;"/>
    </defs>
    <g clip-path="url(#p8c20a3dcd2)">
     <use style="fill:#efefdb;stroke:#000000;" x="0" xlink:href="#mb7f8fac27d" y="716.4"/>
    </g>
   </g>
   <g id="PathCollection_8">
    <defs>
     <path d="M 556.45044 -409.082416 
L 554.224122 -372.897982 
L 551.91046 -338.441109 
L 533.803496 -339.817894 
L 511.291375 -341.729865 
L 479.372227 -344.944864 
L 449.762208 -348.506622 
L 420.488306 -352.481011 
L 433.819214 -445.698725 
L 451.5284 -443.249851 
L 469.243527 -440.986007 
L 504.753961 -437.068495 
L 522.544217 -435.402731 
L 558.059262 -432.643275 
L 556.500962 -409.840147 
z
" id="m123bf712f2" style="stroke:#000000;"/>
    </defs>
    <g clip-path="url(#p8c20a3dcd2)">
     <use style="fill:#efefdb;stroke:#000000;" x="0" xlink:href="#m123bf712f2" y="716.4"/>
    </g>
   </g>
   <g id="PathCollection_9">
    <defs>
     <path d="M 350.878264 -483.709288 
L 327.751663 -368.35492 
L 324.149036 -349.768599 
L 323.192081 -349.160711 
L 321.242826 -345.893125 
L 318.869552 -347.328448 
L 315.617947 -349.699281 
L 311.678297 -350.515561 
L 309.807307 -347.940502 
L 310.824771 -344.431594 
L 309.781421 -339.468139 
L 309.241278 -334.920647 
L 309.233185 -330.211024 
L 307.129572 -325.923281 
L 281.974601 -361.98551 
L 256.228037 -400.093746 
L 230.383069 -439.626025 
L 248.819008 -507.730215 
L 299.476523 -495.032391 
L 299.490907 -495.09344 
z
" id="m414df59018" style="stroke:#000000;"/>
    </defs>
    <g clip-path="url(#p8c20a3dcd2)">
     <use style="fill:#efefdb;stroke:#000000;" x="0" xlink:href="#m414df59018" y="716.4"/>
    </g>
   </g>
   <g id="PathCollection_10">
    <defs>
     <path d="M 533.803496 -339.817894 
L 532.935437 -328.18079 
L 528.184433 -266.639477 
L 524.763359 -222.325179 
L 506.103623 -223.861614 
L 469.961127 -227.384536 
L 451.917564 -229.414342 
L 451.894665 -227.386454 
L 453.708397 -223.364807 
L 418.923017 -227.75484 
L 417.570068 -218.068771 
L 401.417678 -220.32657 
L 420.488306 -352.481011 
L 449.762208 -348.506622 
L 479.372227 -344.944864 
L 511.291375 -341.729865 
z
" id="m94bb4af03e" style="stroke:#000000;"/>
    </defs>
    <g clip-path="url(#p8c20a3dcd2)">
     <use style="fill:#efefdb;stroke:#000000;" x="0" xlink:href="#m94bb4af03e" y="716.4"/>
    </g>
   </g>
   <g id="PathCollection_11">
    <defs>
     <path d="M 322.999399 -586.699298 
L 325.769853 -581.361458 
L 328.051667 -578.864883 
L 328.11327 -575.155999 
L 325.780858 -572.525559 
L 322.217418 -567.081574 
L 318.149311 -560.179962 
L 313.543827 -556.449786 
L 309.989561 -551.772138 
L 309.081587 -548.103362 
L 311.802521 -545.814591 
L 312.440081 -542.503185 
L 309.453 -536.307534 
L 299.490907 -495.09344 
L 299.476523 -495.032391 
L 248.819008 -507.730215 
L 177.810109 -528.878928 
L 178.054647 -547.790911 
L 191.297059 -566.894491 
L 208.246639 -606.56769 
L 212.128265 -624.245778 
L 215.604838 -623.118258 
L 220.367826 -621.505121 
L 223.54958 -618.25501 
L 227.73281 -615.550579 
L 229.349988 -610.319622 
L 228.615663 -606.384105 
L 228.831095 -602.844211 
L 232.256333 -600.871664 
L 236.194694 -599.777019 
L 243.074397 -600.370322 
L 246.906306 -600.042755 
L 252.330392 -597.429511 
L 254.5048 -595.520929 
L 258.086716 -595.385638 
L 262.244069 -596.218904 
L 269.387507 -593.929361 
L 276.010497 -594.845554 
L 279.634249 -595.879314 
L 283.452423 -593.793646 
L 289.823136 -594.689824 
z
" id="m17ebe40c1e" style="stroke:#000000;"/>
    </defs>
    <g clip-path="url(#p8c20a3dcd2)">
     <use style="fill:#efefdb;stroke:#000000;" x="0" xlink:href="#m17ebe40c1e" y="716.4"/>
    </g>
   </g>
   <g id="PathCollection_12">
    <defs>
     <path d="M 433.819214 -445.698725 
L 420.488306 -352.481011 
L 393.443818 -356.787411 
L 357.715846 -362.973694 
L 327.751663 -368.35492 
L 350.878264 -483.709288 
L 402.503429 -474.409585 
L 398.647688 -451.800006 
z
" id="m1fa5a24f53" style="stroke:#000000;"/>
    </defs>
    <g clip-path="url(#p8c20a3dcd2)">
     <use style="fill:#efefdb;stroke:#000000;" x="0" xlink:href="#m1fa5a24f53" y="716.4"/>
    </g>
   </g>
   <g id="PathCollection_13">
    <defs>
     <path d="M 530.418943 -530.350482 
L 526.575675 -482.273783 
L 522.544217 -435.402731 
L 504.753961 -437.068495 
L 469.243527 -440.986007 
L 451.5284 -443.249851 
L 433.819214 -445.698725 
L 398.647688 -451.800006 
L 402.503429 -474.409585 
L 412.189424 -532.305312 
L 411.667678 -532.823932 
L 412.106332 -533.600766 
L 414.021063 -545.471347 
L 446.702665 -540.541948 
L 472.54187 -536.749793 
L 502.577752 -533.341075 
z
" id="ma258574ca0" style="stroke:#000000;"/>
    </defs>
    <g clip-path="url(#p8c20a3dcd2)">
     <use style="fill:#efefdb;stroke:#000000;" x="0" xlink:href="#ma258574ca0" y="716.4"/>
    </g>
   </g>
   <g id="PathCollection_14">
    <defs>
     <path d="M 786.973296 -316.070308 
L 786.907223 -314.104948 
L 785.193321 -310.663654 
L 781.993088 -308.149102 
L 781.51055 -304.206859 
L 778.669984 -300.923222 
L 779.346482 -294.095385 
L 777.276449 -291.763976 
L 777.025915 -289.873709 
L 773.678947 -287.903451 
L 773.815876 -284.487964 
L 771.59047 -278.028789 
L 769.419161 -276.562647 
L 766.150171 -273.162405 
L 764.349441 -268.185916 
L 760.498527 -259.736441 
L 760.344116 -254.123718 
L 762.957537 -248.054745 
L 762.250262 -243.359735 
L 745.410559 -243.341142 
L 723.706072 -241.727437 
L 704.485536 -241.252677 
L 705.33859 -254.685069 
L 700.768115 -254.677637 
L 696.936775 -254.294859 
L 695.875928 -255.825799 
L 696.087953 -276.469803 
L 696.105506 -299.395255 
L 691.907027 -324.225255 
L 715.007025 -324.392104 
L 735.996153 -325.055594 
L 756.030659 -325.974596 
L 777.730724 -325.798491 
L 779.49867 -322.99321 
L 777.519585 -320.329689 
L 775.5447 -317.656721 
L 774.520771 -315.245435 
z
" id="m2dc0697ba0" style="stroke:#000000;"/>
    </defs>
    <g clip-path="url(#p8c20a3dcd2)">
     <use style="fill:#efefdb;stroke:#000000;" x="0" xlink:href="#m2dc0697ba0" y="716.4"/>
    </g>
   </g>
   <g id="PathCollection_15">
    <defs>
     <path d="M 747.84841 -490.08038 
L 748.161422 -488.808324 
L 750.600352 -485.185317 
L 749.155265 -483.318761 
L 749.473463 -478.37048 
L 750.291168 -476.301734 
L 751.612177 -472.622501 
L 757.410064 -470.684724 
L 759.314575 -467.183808 
L 760.435554 -465.450454 
L 762.565991 -464.379088 
L 763.553144 -461.889692 
L 766.419467 -460.168694 
L 768.355029 -458.255111 
L 767.822437 -451.872753 
L 764.894021 -446.341967 
L 763.820377 -444.577701 
L 759.860987 -442.980198 
L 753.850188 -441.478746 
L 752.484505 -437.348246 
L 754.792059 -435.639525 
L 755.746441 -432.035552 
L 753.639611 -427.839769 
L 752.639722 -424.205391 
L 748.234129 -420.471434 
L 748.089628 -416.162045 
L 745.529135 -418.005475 
L 741.920596 -421.648353 
L 722.343591 -420.341207 
L 701.712657 -419.582259 
L 685.628666 -419.270841 
L 669.51316 -419.167288 
L 668.329367 -423.425187 
L 668.823475 -427.637389 
L 668.430006 -431.69837 
L 666.598324 -438.488679 
L 665.416936 -441.305253 
L 664.143881 -442.066325 
L 664.018931 -447.514661 
L 662.915735 -451.419096 
L 659.739739 -455.868158 
L 659.784333 -457.813964 
L 658.689604 -461.711042 
L 657.91512 -464.060365 
L 657.953405 -466.219023 
L 655.149026 -468.856592 
L 656.57133 -472.717431 
L 657.491534 -476.495162 
L 657.916982 -479.053358 
L 655.732479 -482.200685 
L 655.787895 -487.959786 
L 658.080163 -487.959499 
L 676.863563 -487.941038 
L 700.213397 -488.592532 
L 725.305746 -489.496593 
z
" id="m9a47a29703" style="stroke:#000000;"/>
    </defs>
    <g clip-path="url(#p8c20a3dcd2)">
     <use style="fill:#efefdb;stroke:#000000;" x="0" xlink:href="#m9a47a29703" y="716.4"/>
    </g>
   </g>
   <g id="PathCollection_16">
    <defs>
     <path d="M 691.853612 -335.035701 
L 675.295225 -334.839755 
L 641.327586 -334.952184 
L 607.357429 -335.724853 
L 588.49308 -336.447641 
L 569.648267 -337.377412 
L 551.91046 -338.441109 
L 554.224122 -372.897982 
L 556.45044 -409.082416 
L 556.488698 -409.079866 
L 588.067801 -407.279886 
L 611.577821 -406.335048 
L 653.197268 -405.500452 
L 678.114809 -405.497346 
L 682.445781 -402.397302 
L 684.805788 -402.472605 
L 685.363719 -399.067004 
L 682.851532 -394.681412 
L 684.264376 -392.455671 
L 686.574944 -387.539948 
L 691.420099 -385.378737 
L 691.610385 -360.18401 
z
" id="m2c6b5ec7df" style="stroke:#000000;"/>
    </defs>
    <g clip-path="url(#p8c20a3dcd2)">
     <use style="fill:#efefdb;stroke:#000000;" x="0" xlink:href="#m2c6b5ec7df" y="716.4"/>
    </g>
   </g>
   <g id="PathCollection_17">
    <defs>
     <path d="M 748.089628 -416.162045 
L 746.808473 -410.23749 
L 748.775863 -403.291623 
L 752.029341 -398.60858 
L 755.717109 -394.802876 
L 760.089022 -391.878717 
L 761.83106 -390.906392 
L 763.619997 -386.521421 
L 764.14235 -382.611482 
L 766.298242 -381.755327 
L 769.67196 -383.483146 
L 773.408568 -379.927972 
L 772.644127 -375.526043 
L 771.152083 -372.001633 
L 770.216146 -367.802081 
L 773.06532 -364.439015 
L 776.954364 -361.360053 
L 779.064558 -361.412479 
L 784.291459 -356.592246 
L 786.224387 -356.029555 
L 788.023232 -350.454384 
L 787.582356 -346.877421 
L 790.402124 -341.289007 
L 792.38678 -342.046917 
L 795.995062 -338.658814 
L 795.585836 -336.255051 
L 796.224927 -332.593885 
L 793.369112 -330.418995 
L 789.300051 -327.636886 
L 788.971157 -325.328017 
L 788.052628 -321.903504 
L 786.973296 -316.070308 
L 774.520771 -315.245435 
L 775.5447 -317.656721 
L 777.519585 -320.329689 
L 779.49867 -322.99321 
L 777.730724 -325.798491 
L 756.030659 -325.974596 
L 735.996153 -325.055594 
L 715.007025 -324.392104 
L 691.907027 -324.225255 
L 691.953574 -335.037219 
L 691.853612 -335.035701 
L 691.610385 -360.18401 
L 691.420099 -385.378737 
L 686.574944 -387.539948 
L 684.264376 -392.455671 
L 682.851532 -394.681412 
L 685.363719 -399.067004 
L 684.805788 -402.472605 
L 682.445781 -402.397302 
L 678.114809 -405.497346 
L 675.738152 -410.512393 
L 672.918407 -413.510974 
L 669.879162 -417.22498 
L 669.51316 -419.167288 
L 685.628666 -419.270841 
L 701.712657 -419.582259 
L 722.343591 -420.341207 
L 741.920596 -421.648353 
L 745.529135 -418.005475 
z
" id="m99a94f5441" style="stroke:#000000;"/>
    </defs>
    <g clip-path="url(#p8c20a3dcd2)">
     <use style="fill:#efefdb;stroke:#000000;" x="0" xlink:href="#m99a94f5441" y="716.4"/>
    </g>
   </g>
   <g id="PathCollection_18">
    <defs>
     <path d="M 657.91512 -464.060365 
L 658.689604 -461.711042 
L 659.784333 -457.813964 
L 659.739739 -455.868158 
L 662.915735 -451.419096 
L 664.018931 -447.514661 
L 664.143881 -442.066325 
L 665.416936 -441.305253 
L 666.598324 -438.488679 
L 668.430006 -431.69837 
L 668.823475 -427.637389 
L 668.329367 -423.425187 
L 669.51316 -419.167288 
L 669.879162 -417.22498 
L 672.918407 -413.510974 
L 675.738152 -410.512393 
L 678.114809 -405.497346 
L 653.197268 -405.500452 
L 611.577821 -406.335048 
L 588.067801 -407.279886 
L 556.488698 -409.079866 
L 556.45044 -409.082416 
L 556.500962 -409.840147 
L 558.059262 -432.643275 
L 522.544217 -435.402731 
L 526.575675 -482.273783 
L 560.291776 -479.64304 
L 586.228903 -478.114335 
L 620.936721 -476.739817 
L 625.330787 -473.635297 
L 631.669927 -471.612064 
L 633.190665 -472.653491 
L 637.313057 -472.486315 
L 643.517197 -472.623387 
L 647.974661 -469.532795 
L 652.725811 -467.514594 
L 653.502891 -465.548558 
L 654.989905 -464.402478 
z
" id="m2b93a86cb1" style="stroke:#000000;"/>
    </defs>
    <g clip-path="url(#p8c20a3dcd2)">
     <use style="fill:#efefdb;stroke:#000000;" x="0" xlink:href="#m2b93a86cb1" y="716.4"/>
    </g>
   </g>
   <g id="PathCollection_19">
    <defs>
     <path d="M 691.907027 -324.225255 
L 696.105506 -299.395255 
L 696.087953 -276.469803 
L 695.875928 -255.825799 
L 687.325853 -260.325132 
L 681.780225 -262.777655 
L 677.315528 -261.144708 
L 670.397996 -261.363791 
L 666.304553 -261.320897 
L 662.926989 -259.399971 
L 659.628514 -258.421685 
L 656.744597 -259.595185 
L 650.154815 -258.366862 
L 647.21222 -262.32967 
L 644.099735 -258.955299 
L 638.751853 -260.551758 
L 633.296452 -264.314485 
L 627.349586 -262.072137 
L 624.898192 -267.809396 
L 615.750638 -267.480905 
L 609.947165 -268.927476 
L 603.430434 -270.81809 
L 600.699234 -275.810895 
L 595.502392 -274.436057 
L 592.40805 -276.484855 
L 587.86188 -279.21475 
L 588.851853 -301.689841 
L 589.86673 -324.730338 
L 570.874248 -325.671705 
L 551.892792 -326.822174 
L 532.935437 -328.18079 
L 533.803496 -339.817894 
L 551.91046 -338.441109 
L 569.648267 -337.377412 
L 588.49308 -336.447641 
L 607.357429 -335.724853 
L 641.327586 -334.952184 
L 675.295225 -334.839755 
L 691.853612 -335.035701 
L 691.953574 -335.037219 
z
" id="mdc3fcbc2f6" style="stroke:#000000;"/>
    </defs>
    <g clip-path="url(#p8c20a3dcd2)">
     <use style="fill:#efefdb;stroke:#000000;" x="0" xlink:href="#mdc3fcbc2f6" y="716.4"/>
    </g>
   </g>
   <g id="PathCollection_20">
    <defs>
     <path d="M 658.080163 -487.959499 
L 655.787895 -487.959786 
L 655.732479 -482.200685 
L 657.916982 -479.053358 
L 657.491534 -476.495162 
L 656.57133 -472.717431 
L 655.149026 -468.856592 
L 657.953405 -466.219023 
L 657.91512 -464.060365 
L 654.989905 -464.402478 
L 653.502891 -465.548558 
L 652.725811 -467.514594 
L 647.974661 -469.532795 
L 643.517197 -472.623387 
L 637.313057 -472.486315 
L 633.190665 -472.653491 
L 631.669927 -471.612064 
L 625.330787 -473.635297 
L 620.936721 -476.739817 
L 586.228903 -478.114335 
L 560.291776 -479.64304 
L 526.575675 -482.273783 
L 530.418943 -530.350482 
L 533.192832 -551.902205 
L 564.710716 -549.557698 
L 598.586354 -547.757678 
L 625.458571 -546.74463 
L 656.941842 -547.522029 
L 656.63232 -544.070894 
L 652.900246 -541.449922 
L 651.974708 -538.245472 
L 653.590916 -534.568442 
L 656.500534 -532.703792 
L 658.414293 -510.030368 
z
" id="m96644397e6" style="stroke:#000000;"/>
    </defs>
    <g clip-path="url(#p8c20a3dcd2)">
     <use style="fill:#efefdb;stroke:#000000;" x="0" xlink:href="#m96644397e6" y="716.4"/>
    </g>
   </g>
   <g id="PathCollection_21">
    <defs>
     <path d="M 745.410559 -243.341142 
L 762.250262 -243.359735 
L 763.743585 -242.087457 
L 762.114233 -238.580869 
L 765.270005 -233.87733 
L 764.604039 -230.908635 
L 767.414777 -226.988994 
L 764.763982 -224.423087 
L 764.06817 -219.908366 
L 760.368517 -216.012753 
L 758.803233 -210.963723 
L 757.244404 -205.16125 
L 754.890062 -202.396789 
L 756.006176 -196.521964 
L 774.037384 -196.732412 
L 793.254886 -197.903809 
L 792.94172 -193.930997 
L 791.853784 -189.954672 
L 793.358156 -187.048151 
L 796.251386 -184.489191 
L 797.254967 -180.615563 
L 797.801419 -178.296698 
L 798.050035 -177.934955 
L 798.055273 -177.927336 
L 802.220159 -171.889112 
L 802.581035 -162.240428 
L 807.342267 -157.873783 
L 803.597639 -154.461119 
L 795.619904 -157.417176 
L 788.092092 -152.387155 
L 772.894824 -152.2117 
L 756.695042 -163.965074 
L 738.701817 -160.214638 
L 723.406616 -165.196988 
L 710.542965 -163.179542 
L 709.029497 -165.717567 
L 711.052345 -169.251882 
L 714.070998 -172.472868 
L 714.003623 -177.213466 
L 712.459361 -178.758536 
L 714.110606 -184.470041 
L 715.356611 -187.078426 
L 717.091649 -195.804122 
L 715.201786 -198.991453 
L 712.704456 -204.321543 
L 710.84005 -209.767887 
L 709.627907 -213.399005 
L 706.253611 -215.990861 
L 704.485536 -241.252677 
L 723.706072 -241.727437 
z
" id="m377693bb5a" style="stroke:#000000;"/>
    </defs>
    <g clip-path="url(#p8c20a3dcd2)">
     <use style="fill:#efefdb;stroke:#000000;" x="0" xlink:href="#m377693bb5a" y="716.4"/>
    </g>
   </g>
   <g id="PathCollection_22">
    <defs>
     <path d="M 695.875928 -255.825799 
L 696.936775 -254.294859 
L 700.768115 -254.677637 
L 705.33859 -254.685069 
L 704.485536 -241.252677 
L 706.253611 -215.990861 
L 709.627907 -213.399005 
L 710.84005 -209.767887 
L 712.704456 -204.321543 
L 715.201786 -198.991453 
L 717.091649 -195.804122 
L 715.356611 -187.078426 
L 714.110606 -184.470041 
L 712.459361 -178.758536 
L 714.003623 -177.213466 
L 714.070998 -172.472868 
L 711.052345 -169.251882 
L 709.029497 -165.717567 
L 710.542965 -163.179542 
L 693.14758 -157.285372 
L 674.2671 -139.440013 
L 653.306485 -129.168573 
L 641.620731 -117.871366 
L 636.5642 -107.174379 
L 636.109145 -90.633012 
L 637.012821 -79.086996 
L 641.03074 -70.844642 
L 632.524838 -70.243545 
L 617.185687 -75.861363 
L 600.49064 -83.804006 
L 594.843883 -95.291047 
L 590.759172 -112.235103 
L 578.79531 -126.381308 
L 572.167838 -140.709342 
L 562.519371 -157.551976 
L 548.434794 -167.875345 
L 531.4735 -168.543842 
L 516.957607 -150.764322 
L 500.247061 -159.325369 
L 490.161944 -167.461366 
L 486.260973 -180.966239 
L 480.66991 -193.979348 
L 469.6406 -205.605291 
L 460.102809 -214.180856 
L 453.708397 -223.364807 
L 451.894665 -227.386454 
L 451.917564 -229.414342 
L 469.961127 -227.384536 
L 506.103623 -223.861614 
L 524.763359 -222.325179 
L 528.184433 -266.639477 
L 532.935437 -328.18079 
L 551.892792 -326.822174 
L 570.874248 -325.671705 
L 589.86673 -324.730338 
L 588.851853 -301.689841 
L 587.86188 -279.21475 
L 592.40805 -276.484855 
L 595.502392 -274.436057 
L 600.699234 -275.810895 
L 603.430434 -270.81809 
L 609.947165 -268.927476 
L 615.750638 -267.480905 
L 624.898192 -267.809396 
L 627.349586 -262.072137 
L 633.296452 -264.314485 
L 638.751853 -260.551758 
L 644.099735 -258.955299 
L 647.21222 -262.32967 
L 650.154815 -258.366862 
L 656.744597 -259.595185 
L 659.628514 -258.421685 
L 662.926989 -259.399971 
L 666.304553 -261.320897 
L 670.397996 -261.363791 
L 677.315528 -261.144708 
L 681.780225 -262.777655 
L 687.325853 -260.325132 
z
" id="m2ec58c157f" style="stroke:#000000;"/>
    </defs>
    <g clip-path="url(#p8c20a3dcd2)">
     <use style="fill:#efefdb;stroke:#000000;" x="0" xlink:href="#m2ec58c157f" y="716.4"/>
    </g>
   </g>
   <g id="PathCollection_23">
    <defs>
     <path d="M 1072.609819 -486.183198 
L 1060.84772 -476.680212 
L 1060.833159 -476.710156 
L 1060.512932 -477.36888 
L 1059.190533 -480.00476 
L 1062.384716 -483.173278 
L 1060.543734 -484.777473 
L 1057.085089 -502.484644 
L 1070.221254 -505.413641 
L 1086.170383 -509.121726 
L 1089.695691 -496.733455 
L 1089.561684 -493.118578 
L 1082.301311 -489.935174 
z
" id="m3c7ac29638" style="stroke:#000000;"/>
    </defs>
    <g clip-path="url(#p8c20a3dcd2)">
     <use style="fill:#efefdb;stroke:#000000;" x="0" xlink:href="#m3c7ac29638" y="716.4"/>
    </g>
   </g>
   <g id="PathCollection_24">
    <defs>
     <path d="M 1097.365501 -533.093884 
L 1100.61783 -521.018014 
L 1109.632079 -510.599677 
L 1116.819943 -512.079603 
L 1112.634852 -519.820442 
L 1119.169106 -516.280961 
L 1119.714609 -509.421554 
L 1109.314979 -502.427492 
L 1101.001399 -500.548576 
L 1099.559143 -503.885756 
L 1096.158202 -505.74399 
L 1093.247193 -511.341316 
L 1086.170383 -509.121726 
L 1070.221254 -505.413641 
L 1057.085089 -502.484644 
L 1056.741723 -519.15844 
L 1070.721773 -522.395815 
L 1091.050752 -527.708637 
L 1092.15215 -530.427776 
L 1095.263784 -532.965146 
z
" id="mc3ecf72542" style="stroke:#000000;"/>
    </defs>
    <g clip-path="url(#p8c20a3dcd2)">
     <use style="fill:#efefdb;stroke:#000000;" x="0" xlink:href="#mc3ecf72542" y="716.4"/>
    </g>
   </g>
   <g id="PathCollection_25">
    <defs>
     <path d="M 1098.72965 -539.001928 
L 1097.365501 -533.093884 
L 1095.263784 -532.965146 
L 1092.15215 -530.427776 
L 1091.050752 -527.708637 
L 1070.721773 -522.395815 
L 1068.744813 -524.403554 
L 1069.284926 -527.710683 
L 1068.104315 -533.805788 
L 1068.237944 -535.366503 
L 1067.366244 -540.913207 
L 1067.968291 -545.950334 
L 1068.790974 -548.305939 
L 1069.299304 -554.243875 
L 1068.682765 -558.016274 
L 1068.628984 -560.386887 
L 1071.494622 -562.344494 
L 1074.439088 -565.993047 
L 1074.296181 -569.0052 
L 1072.189316 -571.944611 
L 1072.376331 -578.67502 
L 1072.347554 -578.679764 
L 1072.404751 -584.756014 
L 1077.243466 -587.345762 
L 1091.347127 -546.135039 
L 1091.356797 -543.72231 
L 1095.365874 -541.223791 
L 1097.043699 -538.273298 
z
" id="m1a25d3b13d" style="stroke:#000000;"/>
    </defs>
    <g clip-path="url(#p8c20a3dcd2)">
     <use style="fill:#efefdb;stroke:#000000;" x="0" xlink:href="#m1a25d3b13d" y="716.4"/>
    </g>
   </g>
   <g id="PathCollection_26">
    <defs>
     <path d="M 1101.001399 -500.548576 
L 1089.561684 -493.118578 
L 1089.695691 -496.733455 
L 1086.170383 -509.121726 
L 1093.247193 -511.341316 
L 1096.158202 -505.74399 
L 1099.559143 -503.885756 
z
" id="md663e0f186" style="stroke:#000000;"/>
    </defs>
    <g clip-path="url(#p8c20a3dcd2)">
     <use style="fill:#efefdb;stroke:#000000;" x="0" xlink:href="#md663e0f186" y="716.4"/>
    </g>
   </g>
   <g id="PathCollection_27">
    <defs>
     <path d="M 1070.721773 -522.395815 
L 1056.741723 -519.15844 
L 1052.631827 -538.192199 
L 1050.202513 -537.753482 
L 1049.672824 -538.546982 
L 1049.883736 -542.134804 
L 1046.846139 -547.735956 
L 1047.300461 -552.8975 
L 1045.505968 -556.159892 
L 1043.386846 -562.867111 
L 1043.286166 -565.981607 
L 1042.439345 -570.716486 
L 1072.347554 -578.679764 
L 1072.376331 -578.67502 
L 1072.189316 -571.944611 
L 1074.296181 -569.0052 
L 1074.439088 -565.993047 
L 1071.494622 -562.344494 
L 1068.628984 -560.386887 
L 1068.682765 -558.016274 
L 1069.299304 -554.243875 
L 1068.790974 -548.305939 
L 1067.968291 -545.950334 
L 1067.366244 -540.913207 
L 1068.237944 -535.366503 
L 1068.104315 -533.805788 
L 1069.284926 -527.710683 
L 1068.744813 -524.403554 
z
" id="ma2c74eff71" style="stroke:#000000;"/>
    </defs>
    <g clip-path="url(#p8c20a3dcd2)">
     <use style="fill:#efefdb;stroke:#000000;" x="0" xlink:href="#ma2c74eff71" y="716.4"/>
    </g>
   </g>
   <g id="PathCollection_28">
    <defs>
     <path d="M 866.650457 -298.888183 
L 875.074931 -270.391294 
L 882.497263 -247.634721 
L 886.235294 -240.637872 
L 888.489118 -236.650981 
L 885.693785 -232.121865 
L 885.481249 -224.512603 
L 887.101121 -220.213372 
L 887.102163 -215.995282 
L 887.01133 -212.067676 
L 888.658621 -209.220468 
L 889.99344 -206.563144 
L 848.561574 -201.858398 
L 837.060261 -199.395922 
L 836.90287 -197.565842 
L 842.095962 -192.262163 
L 841.454077 -187.493564 
L 840.271095 -184.111985 
L 821.823002 -185.116431 
L 818.166412 -221.150953 
L 818.503456 -259.094724 
L 819.351648 -289.853453 
L 817.574812 -294.281408 
L 841.852161 -296.53569 
z
" id="ma125cab187" style="stroke:#000000;"/>
    </defs>
    <g clip-path="url(#p8c20a3dcd2)">
     <use style="fill:#efefdb;stroke:#000000;" x="0" xlink:href="#ma125cab187" y="716.4"/>
    </g>
   </g>
   <g id="PathCollection_29">
    <defs>
     <path d="M 962.090786 -210.497497 
L 968.322073 -194.799859 
L 978.486576 -175.8383 
L 990.503478 -160.753357 
L 992.367259 -150.601444 
L 1007.108511 -124.97542 
L 1009.262849 -108.910757 
L 1009.958886 -99.528421 
L 1007.120666 -84.087887 
L 1001.166782 -79.972189 
L 990.018254 -81.071818 
L 984.889689 -90.951186 
L 975.827711 -95.110319 
L 961.309246 -113.771156 
L 948.715706 -130.431657 
L 944.195155 -139.230198 
L 946.190968 -155.554891 
L 938.47062 -167.677203 
L 919.62757 -185.139807 
L 911.141143 -187.68524 
L 891.738769 -174.3588 
L 887.903499 -175.098273 
L 876.64273 -184.962285 
L 863.150073 -189.401262 
L 840.271095 -184.111985 
L 841.454077 -187.493564 
L 842.095962 -192.262163 
L 836.90287 -197.565842 
L 837.060261 -199.395922 
L 848.561574 -201.858398 
L 889.99344 -206.563144 
L 893.855988 -200.597605 
L 914.448937 -202.150111 
L 947.924434 -203.366204 
L 950.059203 -199.497677 
L 952.362699 -202.002354 
L 951.152129 -210.166744 
L 953.470108 -211.341278 
L 957.747525 -210.247898 
z
" id="m00d66a208e" style="stroke:#000000;"/>
    </defs>
    <g clip-path="url(#p8c20a3dcd2)">
     <use style="fill:#efefdb;stroke:#000000;" x="0" xlink:href="#m00d66a208e" y="716.4"/>
    </g>
   </g>
   <g id="PathCollection_30">
    <defs>
     <path d="M 915.706946 -305.048089 
L 913.878271 -302.809738 
L 911.41517 -297.952465 
L 917.172658 -294.811329 
L 920.73043 -293.874552 
L 925.416576 -287.016866 
L 928.340823 -283.221412 
L 935.951884 -278.709431 
L 937.737177 -276.012704 
L 942.956991 -272.925767 
L 946.107108 -267.726635 
L 953.130363 -264.020537 
L 955.39649 -258.913759 
L 956.983044 -256.522369 
L 956.582316 -254.69541 
L 960.680888 -252.739155 
L 963.349182 -248.687709 
L 964.052365 -244.235049 
L 966.015058 -243.67131 
L 969.623582 -243.043015 
L 962.503592 -227.637637 
L 962.090786 -210.497497 
L 957.747525 -210.247898 
L 953.470108 -211.341278 
L 951.152129 -210.166744 
L 952.362699 -202.002354 
L 950.059203 -199.497677 
L 947.924434 -203.366204 
L 914.448937 -202.150111 
L 893.855988 -200.597605 
L 889.99344 -206.563144 
L 888.658621 -209.220468 
L 887.01133 -212.067676 
L 887.102163 -215.995282 
L 887.101121 -220.213372 
L 885.481249 -224.512603 
L 885.693785 -232.121865 
L 888.489118 -236.650981 
L 886.235294 -240.637872 
L 882.497263 -247.634721 
L 875.074931 -270.391294 
L 866.650457 -298.888183 
L 881.526201 -300.444446 
L 891.761502 -301.975395 
z
" id="m20b33d464f" style="stroke:#000000;"/>
    </defs>
    <g clip-path="url(#p8c20a3dcd2)">
     <use style="fill:#efefdb;stroke:#000000;" x="0" xlink:href="#m20b33d464f" y="716.4"/>
    </g>
   </g>
   <g id="PathCollection_31">
    <defs>
     <path d="M 798.055273 -177.927336 
L 798.052696 -177.925993 
L 798.050035 -177.934955 
L 797.254967 -180.615563 
L 796.251386 -184.489191 
L 793.358156 -187.048151 
L 791.853784 -189.954672 
L 792.94172 -193.930997 
L 793.254886 -197.903809 
L 774.037384 -196.732412 
L 756.006176 -196.521964 
L 754.890062 -202.396789 
L 757.244404 -205.16125 
L 758.803233 -210.963723 
L 760.368517 -216.012753 
L 764.06817 -219.908366 
L 764.763982 -224.423087 
L 767.414777 -226.988994 
L 764.604039 -230.908635 
L 765.270005 -233.87733 
L 762.114233 -238.580869 
L 763.743585 -242.087457 
L 762.250262 -243.359735 
L 762.957537 -248.054745 
L 760.344116 -254.123718 
L 760.498527 -259.736441 
L 764.349441 -268.185916 
L 766.150171 -273.162405 
L 769.419161 -276.562647 
L 771.59047 -278.028789 
L 773.815876 -284.487964 
L 773.678947 -287.903451 
L 777.025915 -289.873709 
L 777.276449 -291.763976 
L 796.332644 -293.087484 
L 817.574812 -294.281408 
L 819.351648 -289.853453 
L 818.503456 -259.094724 
L 818.166412 -221.150953 
L 821.823002 -185.116431 
L 806.288598 -182.242653 
z
" id="m3ad886cece" style="stroke:#000000;"/>
    </defs>
    <g clip-path="url(#p8c20a3dcd2)">
     <use style="fill:#efefdb;stroke:#000000;" x="0" xlink:href="#m3ad886cece" y="716.4"/>
    </g>
   </g>
   <g id="PathCollection_32">
    <defs>
     <path d="M 1007.226897 -293.764321 
L 999.039476 -283.364614 
L 997.717512 -275.05265 
L 978.889424 -256.06086 
L 969.623582 -243.043015 
L 966.015058 -243.67131 
L 964.052365 -244.235049 
L 963.349182 -248.687709 
L 960.680888 -252.739155 
L 956.582316 -254.69541 
L 956.983044 -256.522369 
L 955.39649 -258.913759 
L 953.130363 -264.020537 
L 946.107108 -267.726635 
L 942.956991 -272.925767 
L 937.737177 -276.012704 
L 935.951884 -278.709431 
L 928.340823 -283.221412 
L 925.416576 -287.016866 
L 920.73043 -293.874552 
L 917.172658 -294.811329 
L 911.41517 -297.952465 
L 913.878271 -302.809738 
L 915.706946 -305.048089 
L 917.527118 -306.015354 
L 927.280603 -311.535879 
L 944.943467 -314.082153 
L 954.063028 -314.473065 
L 954.55632 -312.444096 
L 956.221276 -314.301942 
L 959.877774 -310.869956 
L 960.284102 -308.156116 
L 981.59431 -311.651095 
z
" id="ma33d6f229f" style="stroke:#000000;"/>
    </defs>
    <g clip-path="url(#p8c20a3dcd2)">
     <use style="fill:#efefdb;stroke:#000000;" x="0" xlink:href="#ma33d6f229f" y="716.4"/>
    </g>
   </g>
   <g id="PathCollection_33">
    <defs>
     <path d="M 795.246426 -469.665042 
L 808.650575 -470.606829 
L 808.644979 -470.668724 
L 808.705211 -470.673763 
L 808.70591 -470.605715 
L 809.393063 -464.515587 
L 815.248121 -452.615319 
L 815.248713 -452.614836 
L 815.250139 -452.613673 
L 815.248745 -452.613543 
L 817.769708 -425.452706 
L 820.287017 -398.324114 
L 818.820521 -391.611896 
L 820.478065 -390.027599 
L 821.819886 -386.114688 
L 821.968968 -382.952947 
L 820.567202 -381.384734 
L 819.592934 -377.38217 
L 816.232341 -371.92738 
L 814.196991 -365.397899 
L 814.01414 -360.608356 
L 814.295405 -358.870792 
L 812.470445 -355.425337 
L 814.261702 -353.35641 
L 811.127909 -351.360995 
L 807.056911 -349.043743 
L 808.207491 -343.979612 
L 805.902369 -341.83978 
L 801.193799 -343.64617 
L 796.098297 -344.523452 
L 794.999096 -342.154645 
L 795.995062 -338.658814 
L 792.38678 -342.046917 
L 790.402124 -341.289007 
L 787.582356 -346.877421 
L 788.023232 -350.454384 
L 786.224387 -356.029555 
L 784.291459 -356.592246 
L 779.064558 -361.412479 
L 776.954364 -361.360053 
L 773.06532 -364.439015 
L 770.216146 -367.802081 
L 771.152083 -372.001633 
L 772.644127 -375.526043 
L 773.408568 -379.927972 
L 769.67196 -383.483146 
L 766.298242 -381.755327 
L 764.14235 -382.611482 
L 763.619997 -386.521421 
L 761.83106 -390.906392 
L 760.089022 -391.878717 
L 755.717109 -394.802876 
L 752.029341 -398.60858 
L 748.775863 -403.291623 
L 746.808473 -410.23749 
L 748.089628 -416.162045 
L 748.234129 -420.471434 
L 752.639722 -424.205391 
L 753.639611 -427.839769 
L 755.746441 -432.035552 
L 754.792059 -435.639525 
L 752.484505 -437.348246 
L 753.850188 -441.478746 
L 759.860987 -442.980198 
L 763.820377 -444.577701 
L 764.894021 -446.341967 
L 767.822437 -451.872753 
L 768.355029 -458.255111 
L 766.419467 -460.168694 
L 763.553144 -461.889692 
L 762.565991 -464.379088 
L 760.435554 -465.450454 
L 759.314575 -467.183808 
L 777.087774 -468.333379 
z
" id="m278533c8eb" style="stroke:#000000;"/>
    </defs>
    <g clip-path="url(#p8c20a3dcd2)">
     <use style="fill:#efefdb;stroke:#000000;" x="0" xlink:href="#m278533c8eb" y="716.4"/>
    </g>
   </g>
   <g id="PathCollection_34">
    <defs>
     <path d="M 827.465447 -454.930908 
L 846.35847 -456.845487 
L 862.829255 -458.910751 
L 863.065456 -457.080745 
L 865.627215 -435.925034 
L 868.297384 -413.178298 
L 870.193429 -396.979371 
L 869.279104 -395.750166 
L 871.353219 -391.164826 
L 870.774686 -389.337419 
L 867.703581 -388.923391 
L 865.097343 -386.515178 
L 860.66803 -386.843128 
L 860.795382 -382.308739 
L 858.40915 -380.301871 
L 856.445365 -376.004791 
L 853.924455 -374.980854 
L 850.631225 -367.563847 
L 846.662743 -369.161167 
L 845.191166 -371.907717 
L 842.465646 -366.899816 
L 840.686939 -364.085758 
L 836.412437 -366.425962 
L 832.367442 -363.769077 
L 831.186249 -361.351505 
L 825.12534 -364.370127 
L 821.386092 -361.433431 
L 816.434191 -362.821548 
L 816.478553 -360.213578 
L 814.01414 -360.608356 
L 814.196991 -365.397899 
L 816.232341 -371.92738 
L 819.592934 -377.38217 
L 820.567202 -381.384734 
L 821.968968 -382.952947 
L 821.819886 -386.114688 
L 820.478065 -390.027599 
L 818.820521 -391.611896 
L 820.287017 -398.324114 
L 817.769708 -425.452706 
L 815.248745 -452.613543 
L 815.248713 -452.614836 
L 815.250139 -452.613673 
L 817.014837 -451.177069 
L 822.979136 -451.881221 
L 827.465166 -454.93369 
z
" id="m56a3d098c4" style="stroke:#000000;"/>
    </defs>
    <g clip-path="url(#p8c20a3dcd2)">
     <use style="fill:#efefdb;stroke:#000000;" x="0" xlink:href="#m56a3d098c4" y="716.4"/>
    </g>
   </g>
   <g id="PathCollection_35">
    <defs>
     <path d="M 885.526984 -390.747323 
L 889.623927 -389.611311 
L 892.694852 -388.106108 
L 896.957998 -389.359384 
L 900.357451 -388.465914 
L 904.091158 -390.305031 
L 907.493249 -391.199236 
L 909.430311 -388.148661 
L 913.167479 -386.422745 
L 913.845978 -384.258634 
L 914.367955 -379.415305 
L 917.101653 -376.110496 
L 918.520882 -372.711424 
L 921.675225 -370.104118 
L 923.95634 -367.568684 
L 927.62822 -367.694964 
L 925.999013 -365.618829 
L 921.266876 -359.628161 
L 915.859728 -356.038479 
L 915.859722 -356.038475 
L 915.683609 -354.087076 
L 915.683607 -354.087054 
L 914.056517 -351.343511 
L 909.610134 -348.031982 
L 909.338336 -347.830329 
L 909.181238 -347.538619 
L 907.985454 -345.32244 
L 905.281745 -343.854054 
L 904.324824 -343.335916 
L 899.077735 -341.265589 
L 886.44385 -338.810046 
L 869.723755 -337.75372 
L 864.331758 -336.831999 
L 853.442291 -336.269281 
L 842.382196 -335.283062 
L 832.202292 -334.390261 
L 820.449378 -332.628847 
L 819.743305 -333.641263 
L 815.999331 -333.259654 
L 816.3818 -329.579582 
L 789.300051 -327.636886 
L 793.369112 -330.418995 
L 796.224927 -332.593885 
L 795.585836 -336.255051 
L 795.995062 -338.658814 
L 794.999096 -342.154645 
L 796.098297 -344.523452 
L 801.193799 -343.64617 
L 805.902369 -341.83978 
L 808.207491 -343.979612 
L 807.056911 -349.043743 
L 811.127909 -351.360995 
L 814.261702 -353.35641 
L 812.470445 -355.425337 
L 814.295405 -358.870792 
L 814.01414 -360.608356 
L 816.478553 -360.213578 
L 816.434191 -362.821548 
L 821.386092 -361.433431 
L 825.12534 -364.370127 
L 831.186249 -361.351505 
L 832.367442 -363.769077 
L 836.412437 -366.425962 
L 840.686939 -364.085758 
L 842.465646 -366.899816 
L 845.191166 -371.907717 
L 846.662743 -369.161167 
L 850.631225 -367.563847 
L 853.924455 -374.980854 
L 856.445365 -376.004791 
L 858.40915 -380.301871 
L 860.795382 -382.308739 
L 860.66803 -386.843128 
L 865.097343 -386.515178 
L 867.703581 -388.923391 
L 870.774686 -389.337419 
L 871.353219 -391.164826 
L 869.279104 -395.750166 
L 870.193429 -396.979371 
L 876.488777 -397.217626 
L 879.993582 -395.38312 
z
" id="m75f9dbe003" style="stroke:#000000;"/>
    </defs>
    <g clip-path="url(#p8c20a3dcd2)">
     <use style="fill:#efefdb;stroke:#000000;" x="0" xlink:href="#m75f9dbe003" y="716.4"/>
    </g>
   </g>
   <g id="PathCollection_36">
    <defs>
     <path d="M 968.318681 -350.774691 
L 1005.52887 -357.705855 
L 1025.172817 -361.970864 
L 1042.737958 -365.918334 
L 1045.054082 -366.453231 
L 1045.054084 -366.453225 
L 1052.874134 -344.065477 
L 1044.67237 -324.323779 
L 1026.429219 -313.277315 
L 1016.571897 -297.147931 
L 1007.226897 -293.764321 
L 981.59431 -311.651095 
L 960.284102 -308.156116 
L 959.877774 -310.869956 
L 956.221276 -314.301942 
L 954.55632 -312.444096 
L 954.063028 -314.473065 
L 944.943467 -314.082153 
L 927.280603 -311.535879 
L 917.527118 -306.015354 
L 915.706946 -305.048089 
L 891.761502 -301.975395 
L 891.548446 -306.977295 
L 895.413819 -308.978595 
L 896.409211 -311.66279 
L 898.741637 -314.854581 
L 902.526662 -315.995803 
L 906.859647 -317.687081 
L 910.93191 -320.310812 
L 912.520688 -322.638938 
L 915.871473 -325.021827 
L 915.526133 -326.696944 
L 919.8257 -330.54974 
L 921.661861 -328.730654 
L 927.986009 -334.169346 
L 931.313021 -334.214302 
L 933.609744 -338.568851 
L 937.285903 -340.182067 
L 936.550027 -343.470238 
L 936.563702 -346.461453 
z
" id="mdb2a39023a" style="stroke:#000000;"/>
    </defs>
    <g clip-path="url(#p8c20a3dcd2)">
     <use style="fill:#efefdb;stroke:#000000;" x="0" xlink:href="#mdb2a39023a" y="716.4"/>
    </g>
   </g>
   <g id="PathCollection_37">
    <defs>
     <path d="M 942.11789 -444.096835 
L 939.866742 -442.510532 
L 941.11903 -439.691836 
L 941.204027 -434.210267 
L 940.391248 -427.857894 
L 939.504797 -422.556328 
L 939.603771 -420.111422 
L 935.596966 -414.004871 
L 933.705223 -412.532999 
L 931.378686 -411.48599 
L 929.110533 -411.649529 
L 925.725386 -407.012837 
L 925.649876 -402.703743 
L 925.440159 -400.351553 
L 923.970263 -399.175966 
L 923.334444 -401.734894 
L 920.789388 -401.919347 
L 919.008525 -396.481321 
L 919.508244 -391.281446 
L 917.620321 -387.695079 
L 913.167479 -386.422745 
L 909.430311 -388.148661 
L 907.493249 -391.199236 
L 904.091158 -390.305031 
L 900.357451 -388.465914 
L 896.957998 -389.359384 
L 892.694852 -388.106108 
L 889.623927 -389.611311 
L 885.526984 -390.747323 
L 879.993582 -395.38312 
L 876.488777 -397.217626 
L 870.193429 -396.979371 
L 868.297384 -413.178298 
L 865.627215 -435.925034 
L 863.065456 -457.080745 
L 872.009416 -458.389686 
L 879.977477 -459.44201 
L 886.550174 -460.554512 
L 886.550545 -460.555093 
L 886.548049 -460.549915 
L 898.032947 -457.262036 
L 906.949719 -457.367914 
L 919.135861 -462.433171 
L 928.409705 -470.545665 
L 936.807555 -475.186044 
z
" id="m6323fb11d9" style="stroke:#000000;"/>
    </defs>
    <g clip-path="url(#p8c20a3dcd2)">
     <use style="fill:#efefdb;stroke:#000000;" x="0" xlink:href="#m6323fb11d9" y="716.4"/>
    </g>
   </g>
   <g id="PathCollection_38">
    <defs>
     <path d="M 819.743305 -333.641263 
L 820.449378 -332.628847 
L 832.202292 -334.390261 
L 842.382196 -335.283062 
L 853.442291 -336.269281 
L 864.331758 -336.831999 
L 869.723755 -337.75372 
L 886.44385 -338.810046 
L 899.077735 -341.265589 
L 899.077752 -341.265591 
L 927.126008 -344.522175 
L 929.294556 -344.962908 
L 936.563702 -346.461453 
L 936.550027 -343.470238 
L 937.285903 -340.182067 
L 933.609744 -338.568851 
L 931.313021 -334.214302 
L 927.986009 -334.169346 
L 921.661861 -328.730654 
L 919.8257 -330.54974 
L 915.526133 -326.696944 
L 915.871473 -325.021827 
L 912.520688 -322.638938 
L 910.93191 -320.310812 
L 906.859647 -317.687081 
L 902.526662 -315.995803 
L 898.741637 -314.854581 
L 896.409211 -311.66279 
L 895.413819 -308.978595 
L 891.548446 -306.977295 
L 891.761502 -301.975395 
L 881.526201 -300.444446 
L 866.650457 -298.888183 
L 841.852161 -296.53569 
L 817.574812 -294.281408 
L 796.332644 -293.087484 
L 777.276449 -291.763976 
L 779.346482 -294.095385 
L 778.669984 -300.923222 
L 781.51055 -304.206859 
L 781.993088 -308.149102 
L 785.193321 -310.663654 
L 786.907223 -314.104948 
L 786.973296 -316.070308 
L 788.052628 -321.903504 
L 788.971157 -325.328017 
L 789.300051 -327.636886 
L 816.3818 -329.579582 
L 815.999331 -333.259654 
z
" id="m1b37226adf" style="stroke:#000000;"/>
    </defs>
    <g clip-path="url(#p8c20a3dcd2)">
     <use style="fill:#efefdb;stroke:#000000;" x="0" xlink:href="#m1b37226adf" y="716.4"/>
    </g>
   </g>
   <g id="PathCollection_39">
    <path clip-path="url(#p8c20a3dcd2)" d="M 1046.384865 314.306539 
L 1040.29069 334.960687 
L 1038.415545 334.423529 
L 1040.542561 317.534281 
L 1040.542566 317.534244 
L 1042.251246 315.625914 
L 1046.384885 314.306467 
z
" style="fill:#efefdb;stroke:#000000;"/>
    <path clip-path="url(#p8c20a3dcd2)" d="M 995.518377 297.793124 
L 996.460018 298.189577 
L 997.591355 293.449559 
L 998.103475 293.494679 
L 1000.375813 293.692879 
L 1003.112146 294.933202 
L 1003.112135 294.933238 
L 1002.481315 297.080171 
L 1002.304293 297.681038 
L 1006.383538 298.283681 
L 1006.38354 298.283682 
L 1010.269653 300.152786 
L 1010.269672 300.152803 
L 1012.180789 301.810276 
L 1012.381364 303.180026 
L 1012.381364 303.180031 
L 1012.451506 305.111645 
L 1011.855155 305.753911 
L 1009.832367 307.926987 
L 1008.845533 313.487444 
L 1008.845545 313.487447 
L 1011.515491 314.239002 
L 1014.249789 312.619928 
L 1015.621756 314.995564 
L 1015.991948 315.635672 
L 1030.10115 320.329161 
L 1035.706872 342.018911 
L 1041.351608 342.43047 
L 1045.054091 349.946773 
L 1045.054084 349.946775 
L 1042.737958 350.481666 
L 1025.172806 354.429095 
L 1005.528878 358.694112 
L 968.318705 365.625299 
L 936.563713 369.938488 
L 929.294556 371.437092 
L 927.126017 371.877841 
L 899.077746 375.134411 
L 899.077752 375.134409 
L 904.324843 373.064096 
L 905.281745 372.545946 
L 907.985451 371.077497 
L 909.181238 368.861381 
L 909.338341 368.569669 
L 909.610134 368.368018 
L 914.056513 365.056446 
L 915.683609 362.312924 
L 915.683617 362.31291 
L 915.859728 360.361521 
L 915.859732 360.361476 
L 921.266874 356.771801 
L 925.999013 350.781171 
L 927.628223 348.705046 
L 929.067295 352.525447 
L 930.987041 353.933215 
L 931.489299 354.300813 
L 934.607241 355.723558 
L 938.552898 352.993075 
L 940.012731 351.978405 
L 942.508577 353.248722 
L 948.038822 350.660639 
L 949.105195 350.158729 
L 949.137178 348.84825 
L 949.157291 348.016265 
L 951.392326 348.484218 
L 953.285045 346.514052 
L 953.394126 346.400299 
L 953.39413 346.400295 
L 956.024252 346.289127 
L 958.645958 343.989126 
L 958.645972 343.989114 
L 958.662984 342.728875 
L 958.675338 341.797623 
L 958.675339 341.797613 
L 957.897485 339.127665 
L 957.897483 339.127658 
L 959.684679 334.68135 
L 962.690047 331.026361 
L 962.690053 331.026354 
L 962.980115 327.44656 
L 964.323046 324.820992 
L 965.369489 322.767303 
L 965.369492 322.767297 
L 966.198966 317.416893 
L 966.198974 317.416839 
L 968.939988 318.764186 
L 971.949188 319.918007 
L 974.391418 318.540239 
L 974.872808 316.271814 
L 976.117806 313.061382 
L 976.983676 310.788597 
L 977.509679 309.403511 
L 977.509688 309.403487 
L 979.003875 310.119846 
L 981.110512 306.624391 
L 982.838105 304.457119 
L 984.056677 302.923587 
L 984.565233 302.147978 
L 985.846139 300.190004 
L 986.011613 295.126503 
L 986.054869 293.767364 
L 986.05487 293.767309 
z
" style="fill:#efefdb;stroke:#000000;"/>
   </g>
   <g id="PathCollection_40">
    <defs>
     <path d="M 757.476988 -563.695051 
L 757.627549 -563.584067 
L 758.609633 -564.136007 
L 758.631661 -564.061702 
L 761.251525 -563.446125 
L 762.844735 -559.26625 
L 777.514547 -556.033247 
L 787.339957 -552.515309 
L 791.99886 -552.863004 
L 795.232918 -552.836183 
L 796.478119 -549.024902 
L 800.51888 -547.86946 
L 802.280071 -544.689302 
L 801.4425 -542.698898 
L 801.030845 -538.79553 
L 804.710789 -538.915829 
L 803.82461 -535.007265 
L 806.305187 -532.428137 
L 806.319438 -532.466944 
L 806.759916 -532.340778 
L 806.631339 -532.097607 
L 800.835384 -523.005806 
L 803.362588 -520.42158 
L 814.236936 -536.76407 
L 816.735971 -537.095467 
L 809.799082 -518.122075 
L 807.491715 -501.364015 
L 805.444014 -487.758774 
L 808.64412 -476.446019 
L 808.705211 -470.673763 
L 808.644979 -470.668724 
L 808.650575 -470.606829 
L 795.246426 -469.665042 
L 777.087774 -468.333379 
L 759.314575 -467.183808 
L 757.410064 -470.684724 
L 751.612177 -472.622501 
L 750.291168 -476.301734 
L 749.473463 -478.37048 
L 749.155265 -483.318761 
L 750.600352 -485.185317 
L 748.161422 -488.808324 
L 747.84841 -490.08038 
L 747.255267 -492.715263 
L 746.913408 -498.392656 
L 746.260872 -500.312007 
L 740.325898 -503.521073 
L 735.854571 -507.382135 
L 734.546605 -509.865742 
L 732.576181 -511.382904 
L 726.967282 -514.519743 
L 724.938532 -514.653237 
L 719.851584 -519.014626 
L 720.174647 -524.240118 
L 719.964069 -530.653862 
L 721.021045 -536.652447 
L 717.362091 -540.967573 
L 719.578484 -545.415615 
L 723.022985 -547.816876 
L 727.000795 -550.600333 
L 727.525781 -550.596665 
L 726.813922 -563.90243 
L 731.055957 -565.404839 
L 731.05599 -565.403736 
L 747.148253 -571.159571 
z
" id="mb72be5f9c6" style="stroke:#000000;"/>
    </defs>
    <g clip-path="url(#p8c20a3dcd2)">
     <use style="fill:#efefdb;stroke:#000000;" x="0" xlink:href="#mb72be5f9c6" y="716.4"/>
    </g>
   </g>
   <g id="PathCollection_41">
    <defs>
     <path d="M 942.11789 -444.096835 
L 945.789408 -422.753869 
L 964.418836 -426.068606 
L 966.425074 -414.298325 
L 968.803524 -416.876801 
L 971.383877 -420.118912 
L 974.758971 -421.705549 
L 976.694423 -424.58292 
L 982.154993 -424.673013 
L 983.769526 -426.763986 
L 986.86318 -429.188088 
L 992.742562 -428.458431 
L 995.582559 -425.603128 
L 997.591351 -422.950454 
L 996.459991 -418.21044 
L 995.518377 -418.606876 
L 986.054869 -422.632636 
L 986.054865 -422.632638 
L 986.011613 -421.273497 
L 985.846152 -416.209957 
L 984.565233 -414.252022 
L 984.056674 -413.476431 
L 982.838105 -411.942881 
L 981.110515 -409.775581 
L 979.003879 -406.280095 
L 977.509679 -406.996489 
L 977.50967 -406.996494 
L 976.983676 -405.611403 
L 976.117816 -403.338599 
L 974.87281 -400.128161 
L 974.391428 -397.859696 
L 971.949187 -396.481984 
L 968.939993 -397.63576 
L 966.198966 -398.983107 
L 966.198964 -398.983108 
L 965.369489 -393.632697 
L 965.369483 -393.632657 
L 964.323046 -391.579008 
L 962.980105 -388.953458 
L 962.690047 -385.373639 
L 962.690043 -385.373588 
L 959.684684 -381.718638 
L 957.897485 -377.272335 
L 957.897483 -377.272328 
L 958.675338 -374.602377 
L 958.675348 -374.602343 
L 958.662984 -373.671125 
L 958.645958 -372.410874 
L 958.645958 -372.410846 
L 956.024251 -370.11081 
L 953.394126 -369.999701 
L 953.394123 -369.999701 
L 953.285045 -369.885948 
L 951.392339 -367.915741 
L 949.157302 -368.383695 
L 949.137178 -367.55175 
L 949.105176 -366.241271 
L 948.038822 -365.739361 
L 942.508589 -363.151237 
L 940.012731 -364.421595 
L 940.012719 -364.421601 
L 938.552898 -363.406925 
L 934.607249 -360.676409 
L 931.489291 -362.099186 
L 930.987041 -362.466785 
L 929.067299 -363.874574 
L 927.62822 -367.694964 
L 923.95634 -367.568684 
L 921.675225 -370.104118 
L 918.520882 -372.711424 
L 917.101653 -376.110496 
L 914.367955 -379.415305 
L 913.845978 -384.258634 
L 913.167479 -386.422745 
L 917.620321 -387.695079 
L 919.508244 -391.281446 
L 919.008525 -396.481321 
L 920.789388 -401.919347 
L 923.334444 -401.734894 
L 923.970263 -399.175966 
L 925.440159 -400.351553 
L 925.649876 -402.703743 
L 925.725386 -407.012837 
L 929.110533 -411.649529 
L 931.378686 -411.48599 
L 933.705223 -412.532999 
L 935.596966 -414.004871 
L 939.603771 -420.111422 
L 939.504797 -422.556328 
L 940.391248 -427.857894 
L 941.204027 -434.210267 
L 941.11903 -439.691836 
L 939.866742 -442.510532 
z
" id="m0c9a1c4b4d" style="stroke:#000000;"/>
    </defs>
    <g clip-path="url(#p8c20a3dcd2)">
     <use style="fill:#efefdb;stroke:#000000;" x="0" xlink:href="#m0c9a1c4b4d" y="716.4"/>
    </g>
   </g>
   <g id="PathCollection_42">
    <defs>
     <path d="M 1036.466982 -442.78299 
L 1034.383822 -439.787471 
L 1035.864855 -435.477931 
L 1042.417601 -423.982349 
L 1047.809659 -420.941376 
L 1050.021541 -413.407739 
L 1038.009838 -410.647744 
L 1030.079818 -439.587595 
L 1031.02893 -441.70456 
L 1032.385191 -443.098739 
z
" id="mdb083d9112" style="stroke:#000000;"/>
    </defs>
    <g clip-path="url(#p8c20a3dcd2)">
     <use style="fill:#efefdb;stroke:#000000;" x="0" xlink:href="#mdb083d9112" y="716.4"/>
    </g>
   </g>
   <g id="PathCollection_43">
    <defs>
     <path d="M 1012.381364 -413.219969 
L 1012.381363 -413.219967 
L 1012.180777 -414.589695 
L 1010.269659 -416.247182 
L 1010.269672 -416.247197 
L 1011.490194 -417.663046 
L 1014.280224 -415.761568 
z
" id="mb104898ecf" style="stroke:#000000;"/>
    </defs>
    <g clip-path="url(#p8c20a3dcd2)">
     <use style="fill:#efefdb;stroke:#000000;" x="0" xlink:href="#mb104898ecf" y="716.4"/>
    </g>
   </g>
   <g id="PathCollection_44">
    <defs>
     <path d="M 999.246809 -432.974148 
L 1014.471711 -436.072883 
L 1030.079818 -439.587595 
L 1038.009838 -410.647744 
L 1050.021541 -413.407739 
L 1050.111151 -412.350032 
L 1046.384908 -402.093475 
L 1046.384865 -402.093461 
L 1042.251253 -400.774084 
L 1040.54257 -398.865714 
L 1040.542561 -398.865719 
L 1029.315143 -405.563948 
L 1023.002193 -424.185135 
L 1021.714612 -413.492073 
L 1028.761539 -399.757998 
L 1015.99195 -400.764344 
L 1015.621756 -401.404436 
L 1014.249785 -403.780006 
L 1011.515496 -402.160986 
L 1008.845543 -402.912542 
L 1008.845545 -402.912553 
L 1009.832387 -408.47295 
L 1011.855155 -410.646089 
L 1012.451486 -411.288358 
L 1012.381363 -413.219967 
L 1012.381364 -413.219969 
L 1014.280224 -415.761568 
L 1011.490194 -417.663046 
L 1010.269672 -416.247197 
L 1010.269659 -416.247182 
L 1006.38354 -418.116318 
L 1002.304283 -418.718955 
L 1002.481315 -419.319829 
L 1003.112158 -421.466752 
L 1003.112135 -421.466762 
L 1000.375832 -422.707062 
L 998.103475 -422.905321 
L 997.591351 -422.950454 
L 995.582559 -425.603128 
L 992.742562 -428.458431 
L 986.86318 -429.188088 
L 983.769526 -426.763986 
L 982.154993 -424.673013 
L 976.694423 -424.58292 
L 974.758971 -421.705549 
L 971.383877 -420.118912 
L 968.803524 -416.876801 
L 966.425074 -414.298325 
L 964.418836 -426.068606 
L 980.984501 -429.176286 
L 986.629093 -430.321722 
z
" id="m8ab619fa97" style="stroke:#000000;"/>
    </defs>
    <g clip-path="url(#p8c20a3dcd2)">
     <use style="fill:#efefdb;stroke:#000000;" x="0" xlink:href="#m8ab619fa97" y="716.4"/>
    </g>
   </g>
   <g id="PathCollection_45">
    <defs>
     <path d="M 1056.719986 -470.738164 
L 1052.974633 -463.094293 
L 1058.370663 -463.311284 
L 1058.618644 -445.962808 
L 1049.930042 -425.241348 
L 1047.208717 -430.815803 
L 1043.017993 -431.087145 
L 1035.864855 -435.477931 
L 1034.383822 -439.787471 
L 1036.466982 -442.78299 
L 1039.598904 -445.720026 
L 1040.535068 -447.447508 
L 1043.997823 -451.459821 
L 1045.665182 -454.491461 
L 1038.745345 -459.11471 
L 1037.871555 -461.468527 
L 1035.808373 -461.741764 
L 1035.032346 -465.448641 
L 1036.414576 -468.726974 
L 1034.786762 -471.493706 
L 1037.087825 -474.158384 
L 1038.897055 -480.003181 
L 1040.768133 -481.512582 
L 1056.220228 -475.69425 
z
" id="m291200538e" style="stroke:#000000;"/>
    </defs>
    <g clip-path="url(#p8c20a3dcd2)">
     <use style="fill:#efefdb;stroke:#000000;" x="0" xlink:href="#m291200538e" y="716.4"/>
    </g>
   </g>
   <g id="PathCollection_46">
    <defs>
     <path d="M 1052.631827 -538.192199 
L 1056.741723 -519.15844 
L 1057.085089 -502.484644 
L 1060.543734 -484.777473 
L 1062.384716 -483.173278 
L 1059.190533 -480.00476 
L 1060.512932 -477.36888 
L 1060.838948 -476.71515 
L 1060.833159 -476.710156 
L 1059.898805 -475.904992 
L 1084.142598 -486.764172 
L 1090.405132 -483.831124 
L 1067.966995 -470.630949 
L 1056.896133 -467.802205 
L 1056.719986 -470.738164 
L 1056.220228 -475.69425 
L 1040.768133 -481.512582 
L 1037.596232 -482.474014 
L 1034.282842 -483.369367 
L 1032.387201 -486.445571 
L 1032.249824 -489.077015 
L 1029.719904 -490.674598 
L 1025.154031 -493.417261 
L 1001.839325 -488.257037 
L 976.762998 -483.059904 
L 949.828981 -477.955665 
L 948.693239 -484.243167 
L 960.862188 -500.787145 
L 960.101466 -502.991154 
L 960.100677 -503.007822 
L 957.268935 -509.686539 
L 964.778451 -513.877209 
L 978.225978 -515.65996 
L 992.451266 -516.625309 
L 1003.40939 -526.98025 
L 1000.432457 -535.737567 
L 998.017085 -538.591417 
L 1011.29521 -558.493166 
L 1017.694509 -564.469494 
L 1042.439345 -570.716486 
L 1043.286166 -565.981607 
L 1043.386846 -562.867111 
L 1045.505968 -556.159892 
L 1047.300461 -552.8975 
L 1046.846139 -547.735956 
L 1049.883736 -542.134804 
L 1049.672824 -538.546982 
L 1050.202513 -537.753482 
z
" id="m9f25e8cde5" style="stroke:#000000;"/>
    </defs>
    <g clip-path="url(#p8c20a3dcd2)">
     <use style="fill:#efefdb;stroke:#000000;" x="0" xlink:href="#m9f25e8cde5" y="716.4"/>
    </g>
   </g>
   <g id="PathCollection_47">
    <defs>
     <path d="M 1040.768133 -481.512582 
L 1038.897055 -480.003181 
L 1037.087825 -474.158384 
L 1034.786762 -471.493706 
L 1036.414576 -468.726974 
L 1035.032346 -465.448641 
L 1035.808373 -461.741764 
L 1037.871555 -461.468527 
L 1038.745345 -459.11471 
L 1045.665182 -454.491461 
L 1043.997823 -451.459821 
L 1040.535068 -447.447508 
L 1039.598904 -445.720026 
L 1036.466982 -442.78299 
L 1032.385191 -443.098739 
L 1031.02893 -441.70456 
L 1030.079818 -439.587595 
L 1014.471711 -436.072883 
L 999.246809 -432.974148 
L 986.629093 -430.321722 
L 980.984501 -429.176286 
L 964.418836 -426.068606 
L 945.789408 -422.753869 
L 942.11789 -444.096835 
L 936.807555 -475.186044 
L 936.81347 -475.189337 
L 948.662885 -484.20251 
L 948.693239 -484.243167 
L 949.828981 -477.955665 
L 976.762998 -483.059904 
L 1001.839325 -488.257037 
L 1025.154031 -493.417261 
L 1029.719904 -490.674598 
L 1032.249824 -489.077015 
L 1032.387201 -486.445571 
L 1034.282842 -483.369367 
L 1037.596232 -482.474014 
z
" id="mb1354444fc" style="stroke:#000000;"/>
    </defs>
    <g clip-path="url(#p8c20a3dcd2)">
     <use style="fill:#efefdb;stroke:#000000;" x="0" xlink:href="#mb1354444fc" y="716.4"/>
    </g>
   </g>
   <g id="PathCollection_48">
    <defs>
     <path d="M 1098.72965 -539.001928 
L 1097.043699 -538.273298 
L 1095.365874 -541.223791 
L 1091.356797 -543.72231 
L 1091.347127 -546.135039 
L 1077.243466 -587.345762 
L 1083.065366 -592.815638 
L 1085.748259 -604.808504 
L 1085.376362 -623.959354 
L 1092.12327 -644.716554 
L 1099.09894 -640.298485 
L 1108.271597 -647.389818 
L 1117.215688 -643.030723 
L 1127.093826 -612.180592 
L 1141.613371 -602.813937 
L 1146.800055 -596.353127 
L 1133.15758 -579.878328 
L 1118.889761 -566.884323 
L 1103.586982 -555.008711 
z
" id="me473e87bd0" style="stroke:#000000;"/>
    </defs>
    <g clip-path="url(#p8c20a3dcd2)">
     <use style="fill:#efefdb;stroke:#000000;" x="0" xlink:href="#me473e87bd0" y="716.4"/>
    </g>
   </g>
   <g id="PathCollection_49">
    <path clip-path="url(#p8c20a3dcd2)" d="M 877.198526 173.553194 
L 880.048395 184.013799 
L 880.020955 194.904518 
L 872.021451 205.544553 
L 873.682731 211.320247 
L 877.086841 211.056851 
L 886.142009 199.28934 
L 892.727204 200.717619 
L 897.796445 213.813907 
L 900.087482 223.255615 
L 900.092112 223.251237 
L 900.091818 223.254346 
L 893.892152 237.280137 
L 891.262549 246.000395 
L 891.257622 246.00034 
L 886.550545 255.844907 
L 886.550174 255.845488 
L 879.977477 256.95799 
L 872.009416 258.010314 
L 863.065456 259.319255 
L 862.829255 257.489249 
L 846.35847 259.554513 
L 827.465447 261.469092 
L 827.465166 261.46631 
L 827.465594 261.466017 
L 830.684394 257.861999 
L 836.556414 245.690686 
L 835.359615 230.168561 
L 828.13182 216.251738 
L 827.930814 206.193658 
L 831.103747 194.188599 
L 834.421881 185.830643 
L 840.455885 179.442277 
L 842.920877 187.151936 
L 844.502277 175.195241 
L 847.872659 172.363722 
L 849.097591 163.138767 
L 863.709736 166.061773 
z
" style="fill:#efefdb;stroke:#000000;"/>
    <path clip-path="url(#p8c20a3dcd2)" d="M 801.233987 143.397931 
L 813.573106 151.317007 
L 827.491048 144.544044 
L 843.216599 140.647926 
L 847.432941 146.839973 
L 852.522397 147.174585 
L 853.228491 144.712223 
L 853.231318 144.711865 
L 852.522509 147.174443 
L 856.985629 147.343469 
L 856.985611 147.343496 
L 866.35316 155.653383 
L 852.17433 159.65122 
L 851.609622 159.614076 
L 838.392652 158.678142 
L 826.082192 164.822933 
L 815.076108 168.10404 
L 806.759916 184.059222 
L 806.319438 183.933056 
L 806.305187 183.971863 
L 803.82461 181.392735 
L 804.710789 177.484171 
L 801.030845 177.60447 
L 801.4425 173.701102 
L 802.280071 171.710698 
L 800.51888 168.53054 
L 796.478119 167.375098 
L 795.232918 163.563817 
L 791.99886 163.536996 
L 787.339957 163.884691 
L 777.514547 160.366753 
L 762.844735 157.13375 
L 761.251525 152.953875 
L 758.631661 152.338298 
L 758.609633 152.263993 
L 757.627549 152.815933 
L 757.476988 152.704949 
L 757.624673 152.810573 
L 769.825658 145.945406 
L 782.277159 137.286173 
L 795.860207 128.231858 
L 791.758683 141.191183 
z
" style="fill:#efefdb;stroke:#000000;"/>
   </g>
   <g id="line2d_1">
    <defs>
     <path d="M 0 7.5 
C 1.989023 7.5 3.896849 6.709753 5.303301 5.303301 
C 6.709753 3.896849 7.5 1.989023 7.5 0 
C 7.5 -1.989023 6.709753 -3.896849 5.303301 -5.303301 
C 3.896849 -6.709753 1.989023 -7.5 0 -7.5 
C -1.989023 -7.5 -3.896849 -6.709753 -5.303301 -5.303301 
C -6.709753 -3.896849 -7.5 -1.989023 -7.5 0 
C -7.5 1.989023 -6.709753 3.896849 -5.303301 5.303301 
C -3.896849 6.709753 -1.989023 7.5 0 7.5 
z
" id="mdafe55b920" style="stroke:#000000;"/>
    </defs>
    <g clip-path="url(#p8c20a3dcd2)">
     <use style="stroke:#000000;" x="246.754957" xlink:href="#mdafe55b920" y="433.547031"/>
    </g>
   </g>
   <g id="line2d_2">
    <g clip-path="url(#p8c20a3dcd2)">
     <use style="stroke:#000000;" x="1056.001237" xlink:href="#mdafe55b920" y="246.759774"/>
    </g>
   </g>
   <g id="line2d_3">
    <g clip-path="url(#p8c20a3dcd2)">
     <use style="stroke:#000000;" x="711.81677" xlink:href="#mdafe55b920" y="192.868995"/>
    </g>
   </g>
   <g id="line2d_4">
    <g clip-path="url(#p8c20a3dcd2)">
     <use style="stroke:#000000;" x="247.344441" xlink:href="#mdafe55b920" y="70.070895"/>
    </g>
   </g>
   <g id="line2d_5">
    <g clip-path="url(#p8c20a3dcd2)">
     <use style="stroke:#000000;" x="1008.89541" xlink:href="#mdafe55b920" y="618.405574"/>
    </g>
   </g>
   <g id="line2d_6">
    <g clip-path="url(#p8c20a3dcd2)">
     <use style="stroke:#000000;" x="502.818626" xlink:href="#mdafe55b920" y="309.045323"/>
    </g>
   </g>
   <g id="line2d_7">
    <path clip-path="url(#p8c20a3dcd2)" d="M 246.754957 433.547031 
L 250.635186 434.350471 
L 255.165304 435.063664 
L 260.661032 435.692061 
L 266.741953 436.145792 
L 272.878438 436.383956 
L 279.400676 436.420045 
L 286.254441 436.234337 
L 293.389084 435.809905 
L 300.224371 435.18959 
L 307.226135 434.341867 
L 314.361873 433.259329 
L 321.601579 431.936402 
L 328.9177 430.369256 
L 336.285081 428.555721 
L 343.680915 426.495196 
L 351.084675 424.188554 
L 358.478057 421.638047 
L 365.844898 418.847216 
L 373.171109 415.820791 
L 380.444589 412.564605 
L 387.655138 409.085498 
L 394.794371 405.391234 
L 401.855623 401.490414 
L 408.833851 397.392395 
L 416.252009 392.770128 
L 423.567258 387.944111 
L 430.778799 382.928359 
L 438.391317 377.360417 
L 445.888578 371.610104 
L 453.763768 365.297059 
L 462.001432 358.412709 
L 471.063251 350.538093 
L 480.921507 341.660974 
L 492.018793 331.361951 
L 507.510894 316.646709 
L 533.190011 292.229724 
L 544.902732 281.432213 
L 554.857792 272.558825 
L 563.960094 264.747242 
L 572.203176 257.955431 
L 580.036337 251.77145 
L 587.916532 245.830938 
L 595.373758 240.478126 
L 602.865306 235.370151 
L 610.383391 230.519276 
L 617.917178 225.936504 
L 624.981859 221.89231 
L 632.033528 218.099288 
L 639.054841 214.563409 
L 646.025357 211.289637 
L 652.921329 208.281926 
L 660.164082 205.370256 
L 667.253168 202.766941 
L 674.145633 200.472964 
L 680.793023 198.487969 
L 687.52649 196.715502 
L 693.849055 195.286023 
L 699.679439 194.193726 
L 704.927423 193.430666 
L 709.493325 192.986486 
L 711.81677 192.868995 
L 711.81677 192.868995 
" style="fill:none;stroke:#1f77b4;stroke-linecap:square;stroke-width:4;"/>
   </g>
   <g id="line2d_8">
    <path clip-path="url(#p8c20a3dcd2)" d="M 1056.001237 246.759774 
L 1052.37442 247.527236 
L 1048.549092 248.103867 
L 1044.021398 248.54988 
L 1038.728922 248.826008 
L 1032.610366 248.903981 
L 1025.607194 248.769588 
L 1016.412327 248.357785 
L 1002.80334 247.491662 
L 971.227649 245.408717 
L 957.827125 244.775431 
L 945.598507 244.405976 
L 933.884015 244.261896 
L 921.942619 244.338509 
L 910.603028 244.624017 
L 899.083549 245.124431 
L 887.389937 245.842584 
L 874.672691 246.851211 
L 861.764256 248.098921 
L 847.787442 249.677301 
L 832.704354 251.607947 
L 815.565304 254.030721 
L 794.424096 257.251718 
L 727.516965 267.627594 
L 709.730619 270.056847 
L 694.747141 271.888299 
L 680.641011 273.393832 
L 667.447304 274.58051 
L 655.196135 275.467762 
L 642.884621 276.130613 
L 631.554389 276.521192 
L 620.189827 276.686276 
L 609.835992 276.626616 
L 599.468055 276.354807 
L 589.093429 275.859459 
L 578.719901 275.129845 
L 569.39139 274.264616 
L 560.076534 273.194784 
L 550.781709 271.914169 
L 541.513482 270.417191 
L 532.278589 268.698903 
L 523.083918 266.755034 
L 513.936489 264.582021 
L 504.84343 262.177048 
L 495.811951 259.538079 
L 486.849323 256.663897 
L 477.962847 253.554133 
L 470.133594 250.592524 
L 462.375396 247.446143 
L 454.693336 244.116553 
L 447.092442 240.605923 
L 439.577678 236.917052 
L 431.232585 232.558324 
L 423.009442 227.98428 
L 414.914824 223.201903 
L 406.955061 218.219296 
L 399.136212 213.045706 
L 391.46402 207.691553 
L 383.943879 202.168459 
L 376.5808 196.489278 
L 369.379369 190.668117 
L 361.572372 184.052409 
L 353.974974 177.303474 
L 346.59131 170.446376 
L 338.720014 162.81112 
L 331.114326 155.117039 
L 323.122002 146.706263 
L 314.822512 137.641613 
L 305.706013 127.348076 
L 293.204967 112.851176 
L 279.694342 97.239627 
L 273.413218 90.313177 
L 268.324183 85.032202 
L 264.303279 81.165624 
L 260.829338 78.111385 
L 257.861551 75.761596 
L 254.955998 73.737017 
L 252.511397 72.278427 
L 250.10584 71.091455 
L 247.736134 70.191786 
L 247.344441 70.070895 
L 247.344441 70.070895 
" style="fill:none;stroke:#ff7f0e;stroke-linecap:square;stroke-width:4;"/>
   </g>
   <g id="line2d_9">
    <path clip-path="url(#p8c20a3dcd2)" d="M 711.81677 192.868995 
L 714.239674 192.909714 
L 717.148487 193.20161 
L 720.309587 193.746508 
L 723.990853 194.616107 
L 727.911119 195.769592 
L 732.369396 197.321657 
L 737.042344 199.187082 
L 741.90088 201.357872 
L 747.281796 204.01371 
L 752.814191 207.001751 
L 758.469902 210.312849 
L 764.223103 213.938074 
L 770.050169 217.868691 
L 775.929556 222.096136 
L 781.841688 226.611985 
L 787.768853 231.407927 
L 793.695105 236.47573 
L 799.606175 241.807207 
L 805.880325 247.775541 
L 812.109298 254.024648 
L 818.281445 260.544533 
L 824.386866 267.325101 
L 830.417315 274.356117 
L 836.366101 281.627181 
L 842.228001 289.127688 
L 848.356788 297.336259 
L 854.380134 305.778313 
L 860.296526 314.440194 
L 866.444249 323.835602 
L 872.473336 333.444585 
L 878.711786 343.799589 
L 885.144439 354.911873 
L 891.758338 366.78633 
L 898.543339 379.420091 
L 905.791593 393.386129 
L 913.774754 409.26735 
L 922.746632 427.631709 
L 933.786001 450.763611 
L 957.575305 501.321176 
L 975.428729 538.914922 
L 991.901308 573.651902 
L 997.465856 585.913073 
L 1001.299301 594.881697 
L 1004.004496 601.750311 
L 1006.027656 607.480314 
L 1007.462784 612.190609 
L 1008.482349 616.300759 
L 1008.89541 618.405574 
L 1008.89541 618.405574 
" style="fill:none;stroke:#2ca02c;stroke-linecap:square;stroke-width:4;"/>
   </g>
   <g id="line2d_10">
    <path clip-path="url(#p8c20a3dcd2)" d="M 247.344441 70.070895 
L 250.513882 71.130136 
L 254.471811 72.698696 
L 258.723682 74.61987 
L 263.344271 76.949538 
L 268.245169 79.678429 
L 273.090014 82.631408 
L 278.060107 85.926093 
L 282.838817 89.353407 
L 287.648726 93.069108 
L 292.459033 97.063368 
L 297.244135 101.325711 
L 301.98328 105.844983 
L 306.660242 110.609329 
L 311.263004 115.606168 
L 316.032068 121.118117 
L 320.704269 126.857732 
L 325.516595 133.1262 
L 330.456334 139.93536 
L 335.516252 147.290564 
L 340.919544 155.537013 
L 347.103514 165.396256 
L 355.159929 178.703888 
L 371.397694 205.633806 
L 377.776528 215.70364 
L 383.420093 224.190486 
L 388.520031 231.466817 
L 393.536567 238.236003 
L 398.459325 244.496293 
L 403.272413 250.2528 
L 407.955997 255.516398 
L 412.775003 260.596103 
L 417.433066 265.195724 
L 422.206328 269.6075 
L 427.088636 273.820261 
L 432.071072 277.82355 
L 437.14177 281.607723 
L 442.285729 285.164047 
L 447.484647 288.484799 
L 452.716747 291.563377 
L 457.956619 294.394406 
L 463.175065 296.973852 
L 468.659065 299.435983 
L 474.036661 301.610015 
L 479.558807 303.598984 
L 484.839133 305.269866 
L 490.069224 306.696013 
L 495.090187 307.835336 
L 499.695476 308.651757 
L 502.818626 309.045323 
L 502.818626 309.045323 
" style="fill:none;stroke:#d62728;stroke-linecap:square;stroke-width:4;"/>
   </g>
   <g id="patch_3">
    <path d="M 1342.8 0.347286 
L 1342.8 716.052714 
L -0 716.052714 
L -0 0.347286 
L 1342.8 0.347286 
" style="fill:none;stroke:#000000;stroke-linejoin:miter;stroke-width:0.8;"/>
   </g>
   <g id="legend_1">
    <g id="patch_4">
     <path d="M 28 696.052714 
L 337.21875 696.052714 
Q 345.21875 696.052714 345.21875 688.052714 
L 345.21875 457.202714 
Q 345.21875 449.202714 337.21875 449.202714 
L 28 449.202714 
Q 20 449.202714 20 457.202714 
L 20 688.052714 
Q 20 696.052714 28 696.052714 
z
" style="fill:#ffffff;opacity:0.8;stroke:#cccccc;stroke-linejoin:miter;"/>
    </g>
    <g id="line2d_11">
     <path d="M 36 481.596464 
L 116 481.596464 
" style="fill:none;stroke:#1f77b4;stroke-linecap:square;stroke-width:4;"/>
    </g>
    <g id="line2d_12"/>
    <g id="text_1">
     <!-- Vehicle 1 -->
     <defs>
      <path d="M 28.609375 0 
L 0.78125 72.90625 
L 11.078125 72.90625 
L 34.1875 11.53125 
L 57.328125 72.90625 
L 67.578125 72.90625 
L 39.796875 0 
z
" id="DejaVuSans-86"/>
      <path d="M 56.203125 29.59375 
L 56.203125 25.203125 
L 14.890625 25.203125 
Q 15.484375 15.921875 20.484375 11.0625 
Q 25.484375 6.203125 34.421875 6.203125 
Q 39.59375 6.203125 44.453125 7.46875 
Q 49.3125 8.734375 54.109375 11.28125 
L 54.109375 2.78125 
Q 49.265625 0.734375 44.1875 -0.34375 
Q 39.109375 -1.421875 33.890625 -1.421875 
Q 20.796875 -1.421875 13.15625 6.1875 
Q 5.515625 13.8125 5.515625 26.8125 
Q 5.515625 40.234375 12.765625 48.109375 
Q 20.015625 56 32.328125 56 
Q 43.359375 56 49.78125 48.890625 
Q 56.203125 41.796875 56.203125 29.59375 
z
M 47.21875 32.234375 
Q 47.125 39.59375 43.09375 43.984375 
Q 39.0625 48.390625 32.421875 48.390625 
Q 24.90625 48.390625 20.390625 44.140625 
Q 15.875 39.890625 15.1875 32.171875 
z
" id="DejaVuSans-101"/>
      <path d="M 54.890625 33.015625 
L 54.890625 0 
L 45.90625 0 
L 45.90625 32.71875 
Q 45.90625 40.484375 42.875 44.328125 
Q 39.84375 48.1875 33.796875 48.1875 
Q 26.515625 48.1875 22.3125 43.546875 
Q 18.109375 38.921875 18.109375 30.90625 
L 18.109375 0 
L 9.078125 0 
L 9.078125 75.984375 
L 18.109375 75.984375 
L 18.109375 46.1875 
Q 21.34375 51.125 25.703125 53.5625 
Q 30.078125 56 35.796875 56 
Q 45.21875 56 50.046875 50.171875 
Q 54.890625 44.34375 54.890625 33.015625 
z
" id="DejaVuSans-104"/>
      <path d="M 9.421875 54.6875 
L 18.40625 54.6875 
L 18.40625 0 
L 9.421875 0 
z
M 9.421875 75.984375 
L 18.40625 75.984375 
L 18.40625 64.59375 
L 9.421875 64.59375 
z
" id="DejaVuSans-105"/>
      <path d="M 48.78125 52.59375 
L 48.78125 44.1875 
Q 44.96875 46.296875 41.140625 47.34375 
Q 37.3125 48.390625 33.40625 48.390625 
Q 24.65625 48.390625 19.8125 42.84375 
Q 14.984375 37.3125 14.984375 27.296875 
Q 14.984375 17.28125 19.8125 11.734375 
Q 24.65625 6.203125 33.40625 6.203125 
Q 37.3125 6.203125 41.140625 7.25 
Q 44.96875 8.296875 48.78125 10.40625 
L 48.78125 2.09375 
Q 45.015625 0.34375 40.984375 -0.53125 
Q 36.96875 -1.421875 32.421875 -1.421875 
Q 20.0625 -1.421875 12.78125 6.34375 
Q 5.515625 14.109375 5.515625 27.296875 
Q 5.515625 40.671875 12.859375 48.328125 
Q 20.21875 56 33.015625 56 
Q 37.15625 56 41.109375 55.140625 
Q 45.0625 54.296875 48.78125 52.59375 
z
" id="DejaVuSans-99"/>
      <path d="M 9.421875 75.984375 
L 18.40625 75.984375 
L 18.40625 0 
L 9.421875 0 
z
" id="DejaVuSans-108"/>
      <path id="DejaVuSans-32"/>
      <path d="M 12.40625 8.296875 
L 28.515625 8.296875 
L 28.515625 63.921875 
L 10.984375 60.40625 
L 10.984375 69.390625 
L 28.421875 72.90625 
L 38.28125 72.90625 
L 38.28125 8.296875 
L 54.390625 8.296875 
L 54.390625 0 
L 12.40625 0 
z
" id="DejaVuSans-49"/>
     </defs>
     <g transform="translate(148 495.596464)scale(0.4 -0.4)">
      <use xlink:href="#DejaVuSans-86"/>
      <use x="60.658203" xlink:href="#DejaVuSans-101"/>
      <use x="122.181641" xlink:href="#DejaVuSans-104"/>
      <use x="185.560547" xlink:href="#DejaVuSans-105"/>
      <use x="213.34375" xlink:href="#DejaVuSans-99"/>
      <use x="268.324219" xlink:href="#DejaVuSans-108"/>
      <use x="296.107422" xlink:href="#DejaVuSans-101"/>
      <use x="357.630859" xlink:href="#DejaVuSans-32"/>
      <use x="389.417969" xlink:href="#DejaVuSans-49"/>
     </g>
    </g>
    <g id="line2d_13">
     <path d="M 36 540.308964 
L 116 540.308964 
" style="fill:none;stroke:#ff7f0e;stroke-linecap:square;stroke-width:4;"/>
    </g>
    <g id="line2d_14"/>
    <g id="text_2">
     <!-- Vehicle 2 -->
     <defs>
      <path d="M 19.1875 8.296875 
L 53.609375 8.296875 
L 53.609375 0 
L 7.328125 0 
L 7.328125 8.296875 
Q 12.9375 14.109375 22.625 23.890625 
Q 32.328125 33.6875 34.8125 36.53125 
Q 39.546875 41.84375 41.421875 45.53125 
Q 43.3125 49.21875 43.3125 52.78125 
Q 43.3125 58.59375 39.234375 62.25 
Q 35.15625 65.921875 28.609375 65.921875 
Q 23.96875 65.921875 18.8125 64.3125 
Q 13.671875 62.703125 7.8125 59.421875 
L 7.8125 69.390625 
Q 13.765625 71.78125 18.9375 73 
Q 24.125 74.21875 28.421875 74.21875 
Q 39.75 74.21875 46.484375 68.546875 
Q 53.21875 62.890625 53.21875 53.421875 
Q 53.21875 48.921875 51.53125 44.890625 
Q 49.859375 40.875 45.40625 35.40625 
Q 44.1875 33.984375 37.640625 27.21875 
Q 31.109375 20.453125 19.1875 8.296875 
z
" id="DejaVuSans-50"/>
     </defs>
     <g transform="translate(148 554.308964)scale(0.4 -0.4)">
      <use xlink:href="#DejaVuSans-86"/>
      <use x="60.658203" xlink:href="#DejaVuSans-101"/>
      <use x="122.181641" xlink:href="#DejaVuSans-104"/>
      <use x="185.560547" xlink:href="#DejaVuSans-105"/>
      <use x="213.34375" xlink:href="#DejaVuSans-99"/>
      <use x="268.324219" xlink:href="#DejaVuSans-108"/>
      <use x="296.107422" xlink:href="#DejaVuSans-101"/>
      <use x="357.630859" xlink:href="#DejaVuSans-32"/>
      <use x="389.417969" xlink:href="#DejaVuSans-50"/>
     </g>
    </g>
    <g id="line2d_15">
     <path d="M 36 599.021464 
L 116 599.021464 
" style="fill:none;stroke:#2ca02c;stroke-linecap:square;stroke-width:4;"/>
    </g>
    <g id="line2d_16"/>
    <g id="text_3">
     <!-- Vehicle 3 -->
     <defs>
      <path d="M 40.578125 39.3125 
Q 47.65625 37.796875 51.625 33 
Q 55.609375 28.21875 55.609375 21.1875 
Q 55.609375 10.40625 48.1875 4.484375 
Q 40.765625 -1.421875 27.09375 -1.421875 
Q 22.515625 -1.421875 17.65625 -0.515625 
Q 12.796875 0.390625 7.625 2.203125 
L 7.625 11.71875 
Q 11.71875 9.328125 16.59375 8.109375 
Q 21.484375 6.890625 26.8125 6.890625 
Q 36.078125 6.890625 40.9375 10.546875 
Q 45.796875 14.203125 45.796875 21.1875 
Q 45.796875 27.640625 41.28125 31.265625 
Q 36.765625 34.90625 28.71875 34.90625 
L 20.21875 34.90625 
L 20.21875 43.015625 
L 29.109375 43.015625 
Q 36.375 43.015625 40.234375 45.921875 
Q 44.09375 48.828125 44.09375 54.296875 
Q 44.09375 59.90625 40.109375 62.90625 
Q 36.140625 65.921875 28.71875 65.921875 
Q 24.65625 65.921875 20.015625 65.03125 
Q 15.375 64.15625 9.8125 62.3125 
L 9.8125 71.09375 
Q 15.4375 72.65625 20.34375 73.4375 
Q 25.25 74.21875 29.59375 74.21875 
Q 40.828125 74.21875 47.359375 69.109375 
Q 53.90625 64.015625 53.90625 55.328125 
Q 53.90625 49.265625 50.4375 45.09375 
Q 46.96875 40.921875 40.578125 39.3125 
z
" id="DejaVuSans-51"/>
     </defs>
     <g transform="translate(148 613.021464)scale(0.4 -0.4)">
      <use xlink:href="#DejaVuSans-86"/>
      <use x="60.658203" xlink:href="#DejaVuSans-101"/>
      <use x="122.181641" xlink:href="#DejaVuSans-104"/>
      <use x="185.560547" xlink:href="#DejaVuSans-105"/>
      <use x="213.34375" xlink:href="#DejaVuSans-99"/>
      <use x="268.324219" xlink:href="#DejaVuSans-108"/>
      <use x="296.107422" xlink:href="#DejaVuSans-101"/>
      <use x="357.630859" xlink:href="#DejaVuSans-32"/>
      <use x="389.417969" xlink:href="#DejaVuSans-51"/>
     </g>
    </g>
    <g id="line2d_17">
     <path d="M 36 657.733964 
L 116 657.733964 
" style="fill:none;stroke:#d62728;stroke-linecap:square;stroke-width:4;"/>
    </g>
    <g id="line2d_18"/>
    <g id="text_4">
     <!-- Vehicle 4 -->
     <defs>
      <path d="M 37.796875 64.3125 
L 12.890625 25.390625 
L 37.796875 25.390625 
z
M 35.203125 72.90625 
L 47.609375 72.90625 
L 47.609375 25.390625 
L 58.015625 25.390625 
L 58.015625 17.1875 
L 47.609375 17.1875 
L 47.609375 0 
L 37.796875 0 
L 37.796875 17.1875 
L 4.890625 17.1875 
L 4.890625 26.703125 
z
" id="DejaVuSans-52"/>
     </defs>
     <g transform="translate(148 671.733964)scale(0.4 -0.4)">
      <use xlink:href="#DejaVuSans-86"/>
      <use x="60.658203" xlink:href="#DejaVuSans-101"/>
      <use x="122.181641" xlink:href="#DejaVuSans-104"/>
      <use x="185.560547" xlink:href="#DejaVuSans-105"/>
      <use x="213.34375" xlink:href="#DejaVuSans-99"/>
      <use x="268.324219" xlink:href="#DejaVuSans-108"/>
      <use x="296.107422" xlink:href="#DejaVuSans-101"/>
      <use x="357.630859" xlink:href="#DejaVuSans-32"/>
      <use x="389.417969" xlink:href="#DejaVuSans-52"/>
     </g>
    </g>
   </g>
  </g>
 </g>
 <defs>
  <clipPath id="p8c20a3dcd2">
   <path d="M 1342.8 0.347286 
L 1342.8 716.052714 
L -0 716.052714 
L -0 0.347286 
L 1342.8 0.347286 
"/>
  </clipPath>
 </defs>
</svg>
