<?xml version="1.0" encoding="utf-8" standalone="no"?>
<!DOCTYPE svg PUBLIC "-//W3C//DTD SVG 1.1//EN"
  "http://www.w3.org/Graphics/SVG/1.1/DTD/svg11.dtd">
<!-- Created with matplotlib (https://matplotlib.org/) -->
<svg height="696.24pt" version="1.1" viewBox="0 0 997.2 696.24" width="997.2pt" xmlns="http://www.w3.org/2000/svg" xmlns:xlink="http://www.w3.org/1999/xlink">
 <defs>
  <style type="text/css">
*{stroke-linecap:butt;stroke-linejoin:round;}
  </style>
 </defs>
 <g id="figure_1">
  <g id="patch_1">
   <path d="M 0 696.24 
L 997.2 696.24 
L 997.2 0 
L 0 0 
z
" style="fill:#ffffff;"/>
  </g>
  <g id="axes_1">
   <g id="patch_2">
    <path d="M 143.5968 612.6912 
L 954.3204 612.6912 
L 954.3204 2.08872 
L 143.5968 2.08872 
z
" style="fill:#ffffff;"/>
   </g>
   <g id="matplotlib.axis_1">
    <g id="xtick_1">
     <g id="line2d_1">
      <defs>
       <path d="M 0 0 
L 0 3.5 
" id="mcda52c7bf8" style="stroke:#000000;stroke-width:0.8;"/>
      </defs>
      <g>
       <use style="stroke:#000000;stroke-width:0.8;" x="224.66916" xlink:href="#mcda52c7bf8" y="612.6912"/>
      </g>
     </g>
     <g id="text_1">
      <!-- 0 -->
      <defs>
       <path d="M 31.78125 66.40625 
Q 24.171875 66.40625 20.328125 58.90625 
Q 16.5 51.421875 16.5 36.375 
Q 16.5 21.390625 20.328125 13.890625 
Q 24.171875 6.390625 31.78125 6.390625 
Q 39.453125 6.390625 43.28125 13.890625 
Q 47.125 21.390625 47.125 36.375 
Q 47.125 51.421875 43.28125 58.90625 
Q 39.453125 66.40625 31.78125 66.40625 
z
M 31.78125 74.21875 
Q 44.046875 74.21875 50.515625 64.515625 
Q 56.984375 54.828125 56.984375 36.375 
Q 56.984375 17.96875 50.515625 8.265625 
Q 44.046875 -1.421875 31.78125 -1.421875 
Q 19.53125 -1.421875 13.0625 8.265625 
Q 6.59375 17.96875 6.59375 36.375 
Q 6.59375 54.828125 13.0625 64.515625 
Q 19.53125 74.21875 31.78125 74.21875 
z
" id="DejaVuSans-48"/>
      </defs>
      <g transform="translate(211.94416 650.08495)scale(0.4 -0.4)">
       <use xlink:href="#DejaVuSans-48"/>
      </g>
     </g>
    </g>
    <g id="xtick_2">
     <g id="line2d_2">
      <g>
       <use style="stroke:#000000;stroke-width:0.8;" x="386.81388" xlink:href="#mcda52c7bf8" y="612.6912"/>
      </g>
     </g>
     <g id="text_2">
      <!-- 2 -->
      <defs>
       <path d="M 19.1875 8.296875 
L 53.609375 8.296875 
L 53.609375 0 
L 7.328125 0 
L 7.328125 8.296875 
Q 12.9375 14.109375 22.625 23.890625 
Q 32.328125 33.6875 34.8125 36.53125 
Q 39.546875 41.84375 41.421875 45.53125 
Q 43.3125 49.21875 43.3125 52.78125 
Q 43.3125 58.59375 39.234375 62.25 
Q 35.15625 65.921875 28.609375 65.921875 
Q 23.96875 65.921875 18.8125 64.3125 
Q 13.671875 62.703125 7.8125 59.421875 
L 7.8125 69.390625 
Q 13.765625 71.78125 18.9375 73 
Q 24.125 74.21875 28.421875 74.21875 
Q 39.75 74.21875 46.484375 68.546875 
Q 53.21875 62.890625 53.21875 53.421875 
Q 53.21875 48.921875 51.53125 44.890625 
Q 49.859375 40.875 45.40625 35.40625 
Q 44.1875 33.984375 37.640625 27.21875 
Q 31.109375 20.453125 19.1875 8.296875 
z
" id="DejaVuSans-50"/>
      </defs>
      <g transform="translate(374.08888 650.08495)scale(0.4 -0.4)">
       <use xlink:href="#DejaVuSans-50"/>
      </g>
     </g>
    </g>
    <g id="xtick_3">
     <g id="line2d_3">
      <g>
       <use style="stroke:#000000;stroke-width:0.8;" x="548.9586" xlink:href="#mcda52c7bf8" y="612.6912"/>
      </g>
     </g>
     <g id="text_3">
      <!-- 4 -->
      <defs>
       <path d="M 37.796875 64.3125 
L 12.890625 25.390625 
L 37.796875 25.390625 
z
M 35.203125 72.90625 
L 47.609375 72.90625 
L 47.609375 25.390625 
L 58.015625 25.390625 
L 58.015625 17.1875 
L 47.609375 17.1875 
L 47.609375 0 
L 37.796875 0 
L 37.796875 17.1875 
L 4.890625 17.1875 
L 4.890625 26.703125 
z
" id="DejaVuSans-52"/>
      </defs>
      <g transform="translate(536.2336 650.08495)scale(0.4 -0.4)">
       <use xlink:href="#DejaVuSans-52"/>
      </g>
     </g>
    </g>
    <g id="xtick_4">
     <g id="line2d_4">
      <g>
       <use style="stroke:#000000;stroke-width:0.8;" x="711.10332" xlink:href="#mcda52c7bf8" y="612.6912"/>
      </g>
     </g>
     <g id="text_4">
      <!-- 6 -->
      <defs>
       <path d="M 33.015625 40.375 
Q 26.375 40.375 22.484375 35.828125 
Q 18.609375 31.296875 18.609375 23.390625 
Q 18.609375 15.53125 22.484375 10.953125 
Q 26.375 6.390625 33.015625 6.390625 
Q 39.65625 6.390625 43.53125 10.953125 
Q 47.40625 15.53125 47.40625 23.390625 
Q 47.40625 31.296875 43.53125 35.828125 
Q 39.65625 40.375 33.015625 40.375 
z
M 52.59375 71.296875 
L 52.59375 62.3125 
Q 48.875 64.0625 45.09375 64.984375 
Q 41.3125 65.921875 37.59375 65.921875 
Q 27.828125 65.921875 22.671875 59.328125 
Q 17.53125 52.734375 16.796875 39.40625 
Q 19.671875 43.65625 24.015625 45.921875 
Q 28.375 48.1875 33.59375 48.1875 
Q 44.578125 48.1875 50.953125 41.515625 
Q 57.328125 34.859375 57.328125 23.390625 
Q 57.328125 12.15625 50.6875 5.359375 
Q 44.046875 -1.421875 33.015625 -1.421875 
Q 20.359375 -1.421875 13.671875 8.265625 
Q 6.984375 17.96875 6.984375 36.375 
Q 6.984375 53.65625 15.1875 63.9375 
Q 23.390625 74.21875 37.203125 74.21875 
Q 40.921875 74.21875 44.703125 73.484375 
Q 48.484375 72.75 52.59375 71.296875 
z
" id="DejaVuSans-54"/>
      </defs>
      <g transform="translate(698.37832 650.08495)scale(0.4 -0.4)">
       <use xlink:href="#DejaVuSans-54"/>
      </g>
     </g>
    </g>
    <g id="xtick_5">
     <g id="line2d_5">
      <g>
       <use style="stroke:#000000;stroke-width:0.8;" x="873.24804" xlink:href="#mcda52c7bf8" y="612.6912"/>
      </g>
     </g>
     <g id="text_5">
      <!-- 8 -->
      <defs>
       <path d="M 31.78125 34.625 
Q 24.75 34.625 20.71875 30.859375 
Q 16.703125 27.09375 16.703125 20.515625 
Q 16.703125 13.921875 20.71875 10.15625 
Q 24.75 6.390625 31.78125 6.390625 
Q 38.8125 6.390625 42.859375 10.171875 
Q 46.921875 13.96875 46.921875 20.515625 
Q 46.921875 27.09375 42.890625 30.859375 
Q 38.875 34.625 31.78125 34.625 
z
M 21.921875 38.8125 
Q 15.578125 40.375 12.03125 44.71875 
Q 8.5 49.078125 8.5 55.328125 
Q 8.5 64.0625 14.71875 69.140625 
Q 20.953125 74.21875 31.78125 74.21875 
Q 42.671875 74.21875 48.875 69.140625 
Q 55.078125 64.0625 55.078125 55.328125 
Q 55.078125 49.078125 51.53125 44.71875 
Q 48 40.375 41.703125 38.8125 
Q 48.828125 37.15625 52.796875 32.3125 
Q 56.78125 27.484375 56.78125 20.515625 
Q 56.78125 9.90625 50.3125 4.234375 
Q 43.84375 -1.421875 31.78125 -1.421875 
Q 19.734375 -1.421875 13.25 4.234375 
Q 6.78125 9.90625 6.78125 20.515625 
Q 6.78125 27.484375 10.78125 32.3125 
Q 14.796875 37.15625 21.921875 38.8125 
z
M 18.3125 54.390625 
Q 18.3125 48.734375 21.84375 45.5625 
Q 25.390625 42.390625 31.78125 42.390625 
Q 38.140625 42.390625 41.71875 45.5625 
Q 45.3125 48.734375 45.3125 54.390625 
Q 45.3125 60.0625 41.71875 63.234375 
Q 38.140625 66.40625 31.78125 66.40625 
Q 25.390625 66.40625 21.84375 63.234375 
Q 18.3125 60.0625 18.3125 54.390625 
z
" id="DejaVuSans-56"/>
      </defs>
      <g transform="translate(860.52304 650.08495)scale(0.4 -0.4)">
       <use xlink:href="#DejaVuSans-56"/>
      </g>
     </g>
    </g>
    <g id="text_6">
     <!-- Time -->
     <defs>
      <path d="M -0.296875 72.90625 
L 61.375 72.90625 
L 61.375 64.59375 
L 35.5 64.59375 
L 35.5 0 
L 25.59375 0 
L 25.59375 64.59375 
L -0.296875 64.59375 
z
" id="DejaVuSans-84"/>
      <path d="M 9.421875 54.6875 
L 18.40625 54.6875 
L 18.40625 0 
L 9.421875 0 
z
M 9.421875 75.984375 
L 18.40625 75.984375 
L 18.40625 64.59375 
L 9.421875 64.59375 
z
" id="DejaVuSans-105"/>
      <path d="M 52 44.1875 
Q 55.375 50.25 60.0625 53.125 
Q 64.75 56 71.09375 56 
Q 79.640625 56 84.28125 50.015625 
Q 88.921875 44.046875 88.921875 33.015625 
L 88.921875 0 
L 79.890625 0 
L 79.890625 32.71875 
Q 79.890625 40.578125 77.09375 44.375 
Q 74.3125 48.1875 68.609375 48.1875 
Q 61.625 48.1875 57.5625 43.546875 
Q 53.515625 38.921875 53.515625 30.90625 
L 53.515625 0 
L 44.484375 0 
L 44.484375 32.71875 
Q 44.484375 40.625 41.703125 44.40625 
Q 38.921875 48.1875 33.109375 48.1875 
Q 26.21875 48.1875 22.15625 43.53125 
Q 18.109375 38.875 18.109375 30.90625 
L 18.109375 0 
L 9.078125 0 
L 9.078125 54.6875 
L 18.109375 54.6875 
L 18.109375 46.1875 
Q 21.1875 51.21875 25.484375 53.609375 
Q 29.78125 56 35.6875 56 
Q 41.65625 56 45.828125 52.96875 
Q 50 49.953125 52 44.1875 
z
" id="DejaVuSans-109"/>
      <path d="M 56.203125 29.59375 
L 56.203125 25.203125 
L 14.890625 25.203125 
Q 15.484375 15.921875 20.484375 11.0625 
Q 25.484375 6.203125 34.421875 6.203125 
Q 39.59375 6.203125 44.453125 7.46875 
Q 49.3125 8.734375 54.109375 11.28125 
L 54.109375 2.78125 
Q 49.265625 0.734375 44.1875 -0.34375 
Q 39.109375 -1.421875 33.890625 -1.421875 
Q 20.796875 -1.421875 13.15625 6.1875 
Q 5.515625 13.8125 5.515625 26.8125 
Q 5.515625 40.234375 12.765625 48.109375 
Q 20.015625 56 32.328125 56 
Q 43.359375 56 49.78125 48.890625 
Q 56.203125 41.796875 56.203125 29.59375 
z
M 47.21875 32.234375 
Q 47.125 39.59375 43.09375 43.984375 
Q 39.0625 48.390625 32.421875 48.390625 
Q 24.90625 48.390625 20.390625 44.140625 
Q 15.875 39.890625 15.1875 32.171875 
z
" id="DejaVuSans-101"/>
     </defs>
     <g transform="translate(500.024225 692.79745)scale(0.4 -0.4)">
      <use xlink:href="#DejaVuSans-84"/>
      <use x="57.958984" xlink:href="#DejaVuSans-105"/>
      <use x="85.742188" xlink:href="#DejaVuSans-109"/>
      <use x="183.154297" xlink:href="#DejaVuSans-101"/>
     </g>
    </g>
   </g>
   <g id="matplotlib.axis_2">
    <g id="ytick_1">
     <g id="line2d_6">
      <defs>
       <path d="M 0 0 
L -3.5 0 
" id="m5698054298" style="stroke:#000000;stroke-width:0.8;"/>
      </defs>
      <g>
       <use style="stroke:#000000;stroke-width:0.8;" x="143.5968" xlink:href="#m5698054298" y="596.500983"/>
      </g>
     </g>
     <g id="text_7">
      <!-- 0 -->
      <g transform="translate(111.1468 611.697858)scale(0.4 -0.4)">
       <use xlink:href="#DejaVuSans-48"/>
      </g>
     </g>
    </g>
    <g id="ytick_2">
     <g id="line2d_7">
      <g>
       <use style="stroke:#000000;stroke-width:0.8;" x="143.5968" xlink:href="#m5698054298" y="480.856574"/>
      </g>
     </g>
     <g id="text_8">
      <!-- 10 -->
      <defs>
       <path d="M 12.40625 8.296875 
L 28.515625 8.296875 
L 28.515625 63.921875 
L 10.984375 60.40625 
L 10.984375 69.390625 
L 28.421875 72.90625 
L 38.28125 72.90625 
L 38.28125 8.296875 
L 54.390625 8.296875 
L 54.390625 0 
L 12.40625 0 
z
" id="DejaVuSans-49"/>
      </defs>
      <g transform="translate(85.6968 496.053449)scale(0.4 -0.4)">
       <use xlink:href="#DejaVuSans-49"/>
       <use x="63.623047" xlink:href="#DejaVuSans-48"/>
      </g>
     </g>
    </g>
    <g id="ytick_3">
     <g id="line2d_8">
      <g>
       <use style="stroke:#000000;stroke-width:0.8;" x="143.5968" xlink:href="#m5698054298" y="365.212165"/>
      </g>
     </g>
     <g id="text_9">
      <!-- 20 -->
      <g transform="translate(85.6968 380.40904)scale(0.4 -0.4)">
       <use xlink:href="#DejaVuSans-50"/>
       <use x="63.623047" xlink:href="#DejaVuSans-48"/>
      </g>
     </g>
    </g>
    <g id="ytick_4">
     <g id="line2d_9">
      <g>
       <use style="stroke:#000000;stroke-width:0.8;" x="143.5968" xlink:href="#m5698054298" y="249.567755"/>
      </g>
     </g>
     <g id="text_10">
      <!-- 30 -->
      <defs>
       <path d="M 40.578125 39.3125 
Q 47.65625 37.796875 51.625 33 
Q 55.609375 28.21875 55.609375 21.1875 
Q 55.609375 10.40625 48.1875 4.484375 
Q 40.765625 -1.421875 27.09375 -1.421875 
Q 22.515625 -1.421875 17.65625 -0.515625 
Q 12.796875 0.390625 7.625 2.203125 
L 7.625 11.71875 
Q 11.71875 9.328125 16.59375 8.109375 
Q 21.484375 6.890625 26.8125 6.890625 
Q 36.078125 6.890625 40.9375 10.546875 
Q 45.796875 14.203125 45.796875 21.1875 
Q 45.796875 27.640625 41.28125 31.265625 
Q 36.765625 34.90625 28.71875 34.90625 
L 20.21875 34.90625 
L 20.21875 43.015625 
L 29.109375 43.015625 
Q 36.375 43.015625 40.234375 45.921875 
Q 44.09375 48.828125 44.09375 54.296875 
Q 44.09375 59.90625 40.109375 62.90625 
Q 36.140625 65.921875 28.71875 65.921875 
Q 24.65625 65.921875 20.015625 65.03125 
Q 15.375 64.15625 9.8125 62.3125 
L 9.8125 71.09375 
Q 15.4375 72.65625 20.34375 73.4375 
Q 25.25 74.21875 29.59375 74.21875 
Q 40.828125 74.21875 47.359375 69.109375 
Q 53.90625 64.015625 53.90625 55.328125 
Q 53.90625 49.265625 50.4375 45.09375 
Q 46.96875 40.921875 40.578125 39.3125 
z
" id="DejaVuSans-51"/>
      </defs>
      <g transform="translate(85.6968 264.76463)scale(0.4 -0.4)">
       <use xlink:href="#DejaVuSans-51"/>
       <use x="63.623047" xlink:href="#DejaVuSans-48"/>
      </g>
     </g>
    </g>
    <g id="ytick_5">
     <g id="line2d_10">
      <g>
       <use style="stroke:#000000;stroke-width:0.8;" x="143.5968" xlink:href="#m5698054298" y="133.923346"/>
      </g>
     </g>
     <g id="text_11">
      <!-- 40 -->
      <g transform="translate(85.6968 149.120221)scale(0.4 -0.4)">
       <use xlink:href="#DejaVuSans-52"/>
       <use x="63.623047" xlink:href="#DejaVuSans-48"/>
      </g>
     </g>
    </g>
    <g id="ytick_6">
     <g id="line2d_11">
      <g>
       <use style="stroke:#000000;stroke-width:0.8;" x="143.5968" xlink:href="#m5698054298" y="18.278937"/>
      </g>
     </g>
     <g id="text_12">
      <!-- 50 -->
      <defs>
       <path d="M 10.796875 72.90625 
L 49.515625 72.90625 
L 49.515625 64.59375 
L 19.828125 64.59375 
L 19.828125 46.734375 
Q 21.96875 47.46875 24.109375 47.828125 
Q 26.265625 48.1875 28.421875 48.1875 
Q 40.625 48.1875 47.75 41.5 
Q 54.890625 34.8125 54.890625 23.390625 
Q 54.890625 11.625 47.5625 5.09375 
Q 40.234375 -1.421875 26.90625 -1.421875 
Q 22.3125 -1.421875 17.546875 -0.640625 
Q 12.796875 0.140625 7.71875 1.703125 
L 7.71875 11.625 
Q 12.109375 9.234375 16.796875 8.0625 
Q 21.484375 6.890625 26.703125 6.890625 
Q 35.15625 6.890625 40.078125 11.328125 
Q 45.015625 15.765625 45.015625 23.390625 
Q 45.015625 31 40.078125 35.4375 
Q 35.15625 39.890625 26.703125 39.890625 
Q 22.75 39.890625 18.8125 39.015625 
Q 14.890625 38.140625 10.796875 36.28125 
z
" id="DejaVuSans-53"/>
      </defs>
      <g transform="translate(85.6968 33.475812)scale(0.4 -0.4)">
       <use xlink:href="#DejaVuSans-53"/>
       <use x="63.623047" xlink:href="#DejaVuSans-48"/>
      </g>
     </g>
    </g>
    <g id="text_13">
     <!-- Squared Speed -->
     <defs>
      <path d="M 53.515625 70.515625 
L 53.515625 60.890625 
Q 47.90625 63.578125 42.921875 64.890625 
Q 37.9375 66.21875 33.296875 66.21875 
Q 25.25 66.21875 20.875 63.09375 
Q 16.5 59.96875 16.5 54.203125 
Q 16.5 49.359375 19.40625 46.890625 
Q 22.3125 44.4375 30.421875 42.921875 
L 36.375 41.703125 
Q 47.40625 39.59375 52.65625 34.296875 
Q 57.90625 29 57.90625 20.125 
Q 57.90625 9.515625 50.796875 4.046875 
Q 43.703125 -1.421875 29.984375 -1.421875 
Q 24.8125 -1.421875 18.96875 -0.25 
Q 13.140625 0.921875 6.890625 3.21875 
L 6.890625 13.375 
Q 12.890625 10.015625 18.65625 8.296875 
Q 24.421875 6.59375 29.984375 6.59375 
Q 38.421875 6.59375 43.015625 9.90625 
Q 47.609375 13.234375 47.609375 19.390625 
Q 47.609375 24.75 44.3125 27.78125 
Q 41.015625 30.8125 33.5 32.328125 
L 27.484375 33.5 
Q 16.453125 35.6875 11.515625 40.375 
Q 6.59375 45.0625 6.59375 53.421875 
Q 6.59375 63.09375 13.40625 68.65625 
Q 20.21875 74.21875 32.171875 74.21875 
Q 37.3125 74.21875 42.625 73.28125 
Q 47.953125 72.359375 53.515625 70.515625 
z
" id="DejaVuSans-83"/>
      <path d="M 14.796875 27.296875 
Q 14.796875 17.390625 18.875 11.75 
Q 22.953125 6.109375 30.078125 6.109375 
Q 37.203125 6.109375 41.296875 11.75 
Q 45.40625 17.390625 45.40625 27.296875 
Q 45.40625 37.203125 41.296875 42.84375 
Q 37.203125 48.484375 30.078125 48.484375 
Q 22.953125 48.484375 18.875 42.84375 
Q 14.796875 37.203125 14.796875 27.296875 
z
M 45.40625 8.203125 
Q 42.578125 3.328125 38.25 0.953125 
Q 33.9375 -1.421875 27.875 -1.421875 
Q 17.96875 -1.421875 11.734375 6.484375 
Q 5.515625 14.40625 5.515625 27.296875 
Q 5.515625 40.1875 11.734375 48.09375 
Q 17.96875 56 27.875 56 
Q 33.9375 56 38.25 53.625 
Q 42.578125 51.265625 45.40625 46.390625 
L 45.40625 54.6875 
L 54.390625 54.6875 
L 54.390625 -20.796875 
L 45.40625 -20.796875 
z
" id="DejaVuSans-113"/>
      <path d="M 8.5 21.578125 
L 8.5 54.6875 
L 17.484375 54.6875 
L 17.484375 21.921875 
Q 17.484375 14.15625 20.5 10.265625 
Q 23.53125 6.390625 29.59375 6.390625 
Q 36.859375 6.390625 41.078125 11.03125 
Q 45.3125 15.671875 45.3125 23.6875 
L 45.3125 54.6875 
L 54.296875 54.6875 
L 54.296875 0 
L 45.3125 0 
L 45.3125 8.40625 
Q 42.046875 3.421875 37.71875 1 
Q 33.40625 -1.421875 27.6875 -1.421875 
Q 18.265625 -1.421875 13.375 4.4375 
Q 8.5 10.296875 8.5 21.578125 
z
M 31.109375 56 
z
" id="DejaVuSans-117"/>
      <path d="M 34.28125 27.484375 
Q 23.390625 27.484375 19.1875 25 
Q 14.984375 22.515625 14.984375 16.5 
Q 14.984375 11.71875 18.140625 8.90625 
Q 21.296875 6.109375 26.703125 6.109375 
Q 34.1875 6.109375 38.703125 11.40625 
Q 43.21875 16.703125 43.21875 25.484375 
L 43.21875 27.484375 
z
M 52.203125 31.203125 
L 52.203125 0 
L 43.21875 0 
L 43.21875 8.296875 
Q 40.140625 3.328125 35.546875 0.953125 
Q 30.953125 -1.421875 24.3125 -1.421875 
Q 15.921875 -1.421875 10.953125 3.296875 
Q 6 8.015625 6 15.921875 
Q 6 25.140625 12.171875 29.828125 
Q 18.359375 34.515625 30.609375 34.515625 
L 43.21875 34.515625 
L 43.21875 35.40625 
Q 43.21875 41.609375 39.140625 45 
Q 35.0625 48.390625 27.6875 48.390625 
Q 23 48.390625 18.546875 47.265625 
Q 14.109375 46.140625 10.015625 43.890625 
L 10.015625 52.203125 
Q 14.9375 54.109375 19.578125 55.046875 
Q 24.21875 56 28.609375 56 
Q 40.484375 56 46.34375 49.84375 
Q 52.203125 43.703125 52.203125 31.203125 
z
" id="DejaVuSans-97"/>
      <path d="M 41.109375 46.296875 
Q 39.59375 47.171875 37.8125 47.578125 
Q 36.03125 48 33.890625 48 
Q 26.265625 48 22.1875 43.046875 
Q 18.109375 38.09375 18.109375 28.8125 
L 18.109375 0 
L 9.078125 0 
L 9.078125 54.6875 
L 18.109375 54.6875 
L 18.109375 46.1875 
Q 20.953125 51.171875 25.484375 53.578125 
Q 30.03125 56 36.53125 56 
Q 37.453125 56 38.578125 55.875 
Q 39.703125 55.765625 41.0625 55.515625 
z
" id="DejaVuSans-114"/>
      <path d="M 45.40625 46.390625 
L 45.40625 75.984375 
L 54.390625 75.984375 
L 54.390625 0 
L 45.40625 0 
L 45.40625 8.203125 
Q 42.578125 3.328125 38.25 0.953125 
Q 33.9375 -1.421875 27.875 -1.421875 
Q 17.96875 -1.421875 11.734375 6.484375 
Q 5.515625 14.40625 5.515625 27.296875 
Q 5.515625 40.1875 11.734375 48.09375 
Q 17.96875 56 27.875 56 
Q 33.9375 56 38.25 53.625 
Q 42.578125 51.265625 45.40625 46.390625 
z
M 14.796875 27.296875 
Q 14.796875 17.390625 18.875 11.75 
Q 22.953125 6.109375 30.078125 6.109375 
Q 37.203125 6.109375 41.296875 11.75 
Q 45.40625 17.390625 45.40625 27.296875 
Q 45.40625 37.203125 41.296875 42.84375 
Q 37.203125 48.484375 30.078125 48.484375 
Q 22.953125 48.484375 18.875 42.84375 
Q 14.796875 37.203125 14.796875 27.296875 
z
" id="DejaVuSans-100"/>
      <path id="DejaVuSans-32"/>
      <path d="M 18.109375 8.203125 
L 18.109375 -20.796875 
L 9.078125 -20.796875 
L 9.078125 54.6875 
L 18.109375 54.6875 
L 18.109375 46.390625 
Q 20.953125 51.265625 25.265625 53.625 
Q 29.59375 56 35.59375 56 
Q 45.5625 56 51.78125 48.09375 
Q 58.015625 40.1875 58.015625 27.296875 
Q 58.015625 14.40625 51.78125 6.484375 
Q 45.5625 -1.421875 35.59375 -1.421875 
Q 29.59375 -1.421875 25.265625 0.953125 
Q 20.953125 3.328125 18.109375 8.203125 
z
M 48.6875 27.296875 
Q 48.6875 37.203125 44.609375 42.84375 
Q 40.53125 48.484375 33.40625 48.484375 
Q 26.265625 48.484375 22.1875 42.84375 
Q 18.109375 37.203125 18.109375 27.296875 
Q 18.109375 17.390625 22.1875 11.75 
Q 26.265625 6.109375 33.40625 6.109375 
Q 40.53125 6.109375 44.609375 11.75 
Q 48.6875 17.390625 48.6875 27.296875 
z
" id="DejaVuSans-112"/>
     </defs>
     <g transform="translate(73.37805 459.549335)rotate(-90)scale(0.4 -0.4)">
      <use xlink:href="#DejaVuSans-83"/>
      <use x="63.476562" xlink:href="#DejaVuSans-113"/>
      <use x="126.953125" xlink:href="#DejaVuSans-117"/>
      <use x="190.332031" xlink:href="#DejaVuSans-97"/>
      <use x="251.611328" xlink:href="#DejaVuSans-114"/>
      <use x="290.474609" xlink:href="#DejaVuSans-101"/>
      <use x="351.998047" xlink:href="#DejaVuSans-100"/>
      <use x="415.474609" xlink:href="#DejaVuSans-32"/>
      <use x="447.261719" xlink:href="#DejaVuSans-83"/>
      <use x="510.738281" xlink:href="#DejaVuSans-112"/>
      <use x="574.214844" xlink:href="#DejaVuSans-101"/>
      <use x="635.738281" xlink:href="#DejaVuSans-101"/>
      <use x="697.261719" xlink:href="#DejaVuSans-100"/>
     </g>
    </g>
   </g>
   <g id="line2d_12">
    <path clip-path="url(#p160a2b36d0)" d="M 224.66916 492.421015 
L 228.524703 460.403199 
L 235.534781 399.840297 
L 242.544858 339.978432 
L 247.101409 302.948482 
L 250.956952 273.296142 
L 254.461991 247.893571 
L 257.96703 224.097808 
L 261.121565 204.118382 
L 264.2761 185.529114 
L 267.430635 168.335128 
L 270.234666 154.212248 
L 273.038697 141.161087 
L 275.842728 129.153237 
L 278.646759 118.153453 
L 281.45079 108.120937 
L 283.904317 100.100531 
L 286.357845 92.753789 
L 288.811372 86.046898 
L 291.264899 79.945051 
L 293.718426 74.412854 
L 296.171954 69.414687 
L 298.625481 64.915031 
L 301.079008 60.878756 
L 303.532535 57.271371 
L 305.986062 54.059246 
L 308.43959 51.209804 
L 310.893117 48.691673 
L 313.346644 46.474828 
L 315.800171 44.530694 
L 318.604202 42.608141 
L 321.408234 40.968709 
L 324.212265 39.577396 
L 327.3668 38.268813 
L 330.521335 37.192131 
L 334.026374 36.222944 
L 337.881916 35.382024 
L 342.438467 34.6264 
L 347.696025 33.99302 
L 354.005095 33.467476 
L 362.066685 33.037286 
L 371.53029 32.758582 
L 381.694903 32.680015 
L 391.509012 32.82872 
L 401.32312 33.207036 
L 412.188741 33.858075 
L 432.167463 35.342474 
L 456.352231 37.245118 
L 461.960293 37.945153 
L 466.516844 38.730132 
L 470.372387 39.61514 
L 473.877426 40.652472 
L 477.031961 41.823296 
L 479.835992 43.09111 
L 482.640023 44.609574 
L 485.09355 46.174078 
L 487.547077 47.987634 
L 490.000605 50.079584 
L 492.454132 52.480858 
L 494.907659 55.223868 
L 497.361186 58.34239 
L 499.814713 61.8714 
L 502.268241 65.8469 
L 504.721768 70.305699 
L 507.175295 75.285169 
L 509.628822 80.822966 
L 512.08235 86.956707 
L 514.535877 93.723621 
L 516.989404 101.160146 
L 519.442931 109.301489 
L 521.896458 118.181145 
L 524.349986 127.830355 
L 527.154017 139.836627 
L 529.958048 152.921804 
L 532.762079 167.11539 
L 535.56611 182.438121 
L 538.720645 201.038309 
L 541.87518 221.076529 
L 545.029715 242.52605 
L 548.534754 267.948077 
L 552.390297 297.704939 
L 556.596344 332.037164 
L 561.503398 373.985279 
L 575.17305 492.421015 
L 575.17305 492.421015 
" style="fill:none;stroke:#1f77b4;stroke-linecap:square;stroke-width:4;"/>
   </g>
   <g id="line2d_13">
    <path clip-path="url(#p160a2b36d0)" d="M 224.66916 492.421015 
L 228.776143 485.677309 
L 233.567624 477.409504 
L 239.728099 466.30971 
L 247.942066 450.993697 
L 276.006453 398.204989 
L 284.904917 382.149406 
L 293.118883 367.794181 
L 301.33285 353.909842 
L 309.546817 340.491847 
L 317.760784 327.515867 
L 325.974751 314.944258 
L 334.873215 301.728459 
L 344.456176 287.895818 
L 355.408132 272.499476 
L 367.729082 255.583801 
L 382.103524 236.24776 
L 397.84696 215.444269 
L 413.590397 195.003198 
L 427.280341 177.581344 
L 438.916794 163.113249 
L 449.184253 150.68112 
L 458.767214 139.424004 
L 467.665678 129.323694 
L 475.879645 120.34451 
L 483.409115 112.436105 
L 490.938584 104.863597 
L 497.783556 98.291456 
L 504.628529 92.033196 
L 510.789004 86.680675 
L 516.949479 81.602075 
L 523.109954 76.803988 
L 529.270429 72.29112 
L 535.430904 68.066235 
L 541.591379 64.130134 
L 547.751855 60.481663 
L 553.91233 57.11776 
L 560.072805 54.033533 
L 566.23328 51.222379 
L 572.393755 48.676127 
L 578.55423 46.385225 
L 584.714705 44.338949 
L 590.87518 42.525647 
L 597.035655 40.93301 
L 603.880628 39.406805 
L 610.7256 38.11997 
L 617.570572 37.055609 
L 625.100042 36.122993 
L 632.629512 35.422031 
L 640.158981 34.937849 
L 648.372948 34.645054 
L 656.586915 34.592813 
L 664.116384 34.7597 
L 671.645854 35.143673 
L 678.490826 35.697978 
L 685.335799 36.470347 
L 691.496274 37.375707 
L 697.656749 38.507175 
L 703.132727 39.727689 
L 708.608705 41.176329 
L 713.400185 42.653072 
L 718.191666 44.346747 
L 722.983147 46.279877 
L 727.774627 48.476674 
L 731.881611 50.589032 
L 735.988594 52.931194 
L 740.095577 55.521054 
L 744.202561 58.377187 
L 748.309544 61.518766 
L 752.416528 64.965471 
L 756.523511 68.73738 
L 760.630494 72.854853 
L 764.737478 77.338396 
L 768.844461 82.208519 
L 772.951445 87.485569 
L 777.058428 93.189555 
L 781.165411 99.339956 
L 785.272395 105.955506 
L 789.379378 113.053969 
L 793.486362 120.651892 
L 797.593345 128.764336 
L 801.700328 137.404592 
L 805.807312 146.583876 
L 809.914295 156.310997 
L 814.021279 166.59201 
L 818.128262 177.429842 
L 822.235245 188.823892 
L 827.026726 202.813644 
L 831.818207 217.539254 
L 836.609687 232.976704 
L 842.085665 251.44664 
L 847.561643 270.731535 
L 853.722118 293.286212 
L 860.567091 319.214367 
L 870.150052 356.485525 
L 883.155499 407.04408 
L 889.315974 430.04869 
L 894.107455 447.090239 
L 898.214438 460.880773 
L 901.636925 471.653298 
L 905.059411 481.644639 
L 907.7974 488.989012 
L 909.166394 492.421015 
L 909.166394 492.421015 
" style="fill:none;stroke:#ff7f0e;stroke-linecap:square;stroke-width:4;"/>
   </g>
   <g id="line2d_14">
    <path clip-path="url(#p160a2b36d0)" d="M 224.66916 492.421015 
L 228.704472 467.243019 
L 234.75744 427.790662 
L 244.509444 364.219844 
L 249.553585 332.895315 
L 253.925173 307.141304 
L 257.960485 284.714877 
L 261.659521 265.391373 
L 265.358557 247.300802 
L 268.721317 231.943905 
L 272.084077 217.624166 
L 275.446837 204.327378 
L 278.473321 193.213833 
L 281.499805 182.88278 
L 284.526289 173.303729 
L 287.552774 164.442087 
L 290.579258 156.260081 
L 293.605742 148.717594 
L 296.632226 141.772912 
L 299.65871 135.383413 
L 302.685194 129.506165 
L 305.711678 124.098469 
L 308.738162 119.118332 
L 312.100922 114.036643 
L 315.463682 109.378488 
L 318.826442 105.092736 
L 322.525478 100.751423 
L 326.224514 96.743922 
L 330.259827 92.690345 
L 334.631415 88.605018 
L 339.675555 84.202798 
L 345.392247 79.519228 
L 352.117767 74.313562 
L 359.515839 68.875583 
L 366.913911 63.710649 
L 373.639432 59.287254 
L 379.356124 55.789445 
L 384.400264 52.959799 
L 388.771852 50.747343 
L 392.807164 48.94009 
L 396.5062 47.512119 
L 400.205236 46.331784 
L 403.567996 45.497995 
L 406.59448 44.961334 
L 409.620964 44.644072 
L 412.647449 44.562538 
L 415.337657 44.70111 
L 418.027865 45.050117 
L 420.718073 45.620751 
L 423.408281 46.424029 
L 426.098489 47.470756 
L 428.788697 48.771494 
L 431.478905 50.336534 
L 434.169113 52.175869 
L 436.859321 54.29917 
L 439.549529 56.715772 
L 442.239737 59.434646 
L 444.929945 62.464393 
L 447.620153 65.813223 
L 450.310361 69.488943 
L 453.336846 74.024053 
L 456.36333 78.992103 
L 459.389814 84.402254 
L 462.416298 90.26293 
L 465.442782 96.581779 
L 468.805542 104.148377 
L 472.168302 112.297179 
L 475.531062 121.03492 
L 478.893822 130.366813 
L 482.592858 141.322324 
L 486.291894 153.003156 
L 489.99093 165.408407 
L 494.026243 179.762381 
L 498.061555 194.962139 
L 502.433143 212.362372 
L 506.804731 230.701792 
L 511.512595 251.450135 
L 516.556735 274.744124 
L 521.937151 300.665538 
L 528.326395 332.612983 
L 537.405848 379.311389 
L 547.157852 429.195626 
L 552.201992 453.844569 
L 556.237304 472.467825 
L 559.600064 486.950846 
L 560.945168 492.421015 
L 560.945168 492.421015 
" style="fill:none;stroke:#2ca02c;stroke-linecap:square;stroke-width:4;"/>
   </g>
   <g id="line2d_15">
    <path clip-path="url(#p160a2b36d0)" d="M 224.66916 492.421015 
L 228.140869 451.422972 
L 239.795891 311.602375 
L 243.267599 273.670854 
L 246.24335 243.438868 
L 249.2191 215.527572 
L 251.946871 192.075144 
L 254.426663 172.551338 
L 256.906455 154.728366 
L 259.386247 138.570988 
L 261.618059 125.408122 
L 263.849872 113.498491 
L 266.081685 102.782568 
L 268.313498 93.194641 
L 270.54531 84.664577 
L 272.529144 77.911414 
L 274.512977 71.884153 
L 276.496811 66.530255 
L 278.480644 61.797521 
L 280.464478 57.634602 
L 282.448311 53.991443 
L 284.432145 50.819651 
L 286.415978 48.072811 
L 288.399812 45.706732 
L 290.383645 43.679654 
L 292.367479 41.95239 
L 294.599292 40.322243 
L 296.831104 38.977601 
L 299.310896 37.765785 
L 301.790688 36.799853 
L 304.518459 35.965947 
L 307.742189 35.21943 
L 311.461877 34.591814 
L 316.173481 34.032487 
L 322.62094 33.5046 
L 332.292129 32.952666 
L 341.963317 32.612825 
L 350.14663 32.541964 
L 358.577923 32.698869 
L 368.249111 33.114157 
L 377.672321 33.724723 
L 383.8718 34.330973 
L 388.335426 34.986622 
L 391.807134 35.711881 
L 394.782885 36.550892 
L 397.510656 37.554511 
L 399.990448 38.713112 
L 402.22226 40.000357 
L 404.454073 41.563082 
L 406.437907 43.221203 
L 408.42174 45.169757 
L 410.405574 47.447269 
L 412.389407 50.094868 
L 414.373241 53.156153 
L 416.357074 56.677006 
L 418.340908 60.705352 
L 420.324741 65.290861 
L 422.308575 70.4846 
L 424.292408 76.338598 
L 426.276242 82.905363 
L 428.260075 90.237305 
L 430.243909 98.386093 
L 432.227742 107.401914 
L 434.459555 118.640586 
L 436.691368 131.100299 
L 438.923181 144.837206 
L 441.154993 159.898341 
L 443.634785 178.22889 
L 446.114577 198.266263 
L 448.842348 222.280487 
L 451.570119 248.320549 
L 454.54587 278.922611 
L 457.769599 314.410072 
L 461.737266 360.788992 
L 468.680683 445.411528 
L 472.648351 492.421015 
L 472.648351 492.421015 
" style="fill:none;stroke:#d62728;stroke-linecap:square;stroke-width:4;"/>
   </g>
   <g id="line2d_16">
    <path clip-path="url(#p160a2b36d0)" d="M 143.5968 584.936542 
L 954.3204 584.936542 
" style="fill:none;stroke:#9467bd;stroke-dasharray:14.8,6.4;stroke-dashoffset:0;stroke-width:4;"/>
   </g>
   <g id="line2d_17">
    <path clip-path="url(#p160a2b36d0)" d="M 143.5968 29.843378 
L 954.3204 29.843378 
" style="fill:none;stroke:#8c564b;stroke-dasharray:14.8,6.4;stroke-dashoffset:0;stroke-width:4;"/>
   </g>
   <g id="patch_3">
    <path d="M 143.5968 612.6912 
L 143.5968 2.08872 
" style="fill:none;stroke:#000000;stroke-linecap:square;stroke-linejoin:miter;stroke-width:0.8;"/>
   </g>
   <g id="patch_4">
    <path d="M 954.3204 612.6912 
L 954.3204 2.08872 
" style="fill:none;stroke:#000000;stroke-linecap:square;stroke-linejoin:miter;stroke-width:0.8;"/>
   </g>
   <g id="patch_5">
    <path d="M 143.5968 612.6912 
L 954.3204 612.6912 
" style="fill:none;stroke:#000000;stroke-linecap:square;stroke-linejoin:miter;stroke-width:0.8;"/>
   </g>
   <g id="patch_6">
    <path d="M 143.5968 2.08872 
L 954.3204 2.08872 
" style="fill:none;stroke:#000000;stroke-linecap:square;stroke-linejoin:miter;stroke-width:0.8;"/>
   </g>
   <g id="legend_1">
    <g id="patch_7">
     <path d="M 617.10165 592.6912 
L 926.3204 592.6912 
Q 934.3204 592.6912 934.3204 584.6912 
L 934.3204 218.2412 
Q 934.3204 210.2412 926.3204 210.2412 
L 617.10165 210.2412 
Q 609.10165 210.2412 609.10165 218.2412 
L 609.10165 584.6912 
Q 609.10165 592.6912 617.10165 592.6912 
z
" style="fill:#ffffff;opacity:0.8;stroke:#cccccc;stroke-linejoin:miter;"/>
    </g>
    <g id="line2d_18">
     <path d="M 625.10165 242.63495 
L 705.10165 242.63495 
" style="fill:none;stroke:#1f77b4;stroke-linecap:square;stroke-width:4;"/>
    </g>
    <g id="line2d_19"/>
    <g id="text_14">
     <!-- Vehicle 1 -->
     <defs>
      <path d="M 28.609375 0 
L 0.78125 72.90625 
L 11.078125 72.90625 
L 34.1875 11.53125 
L 57.328125 72.90625 
L 67.578125 72.90625 
L 39.796875 0 
z
" id="DejaVuSans-86"/>
      <path d="M 54.890625 33.015625 
L 54.890625 0 
L 45.90625 0 
L 45.90625 32.71875 
Q 45.90625 40.484375 42.875 44.328125 
Q 39.84375 48.1875 33.796875 48.1875 
Q 26.515625 48.1875 22.3125 43.546875 
Q 18.109375 38.921875 18.109375 30.90625 
L 18.109375 0 
L 9.078125 0 
L 9.078125 75.984375 
L 18.109375 75.984375 
L 18.109375 46.1875 
Q 21.34375 51.125 25.703125 53.5625 
Q 30.078125 56 35.796875 56 
Q 45.21875 56 50.046875 50.171875 
Q 54.890625 44.34375 54.890625 33.015625 
z
" id="DejaVuSans-104"/>
      <path d="M 48.78125 52.59375 
L 48.78125 44.1875 
Q 44.96875 46.296875 41.140625 47.34375 
Q 37.3125 48.390625 33.40625 48.390625 
Q 24.65625 48.390625 19.8125 42.84375 
Q 14.984375 37.3125 14.984375 27.296875 
Q 14.984375 17.28125 19.8125 11.734375 
Q 24.65625 6.203125 33.40625 6.203125 
Q 37.3125 6.203125 41.140625 7.25 
Q 44.96875 8.296875 48.78125 10.40625 
L 48.78125 2.09375 
Q 45.015625 0.34375 40.984375 -0.53125 
Q 36.96875 -1.421875 32.421875 -1.421875 
Q 20.0625 -1.421875 12.78125 6.34375 
Q 5.515625 14.109375 5.515625 27.296875 
Q 5.515625 40.671875 12.859375 48.328125 
Q 20.21875 56 33.015625 56 
Q 37.15625 56 41.109375 55.140625 
Q 45.0625 54.296875 48.78125 52.59375 
z
" id="DejaVuSans-99"/>
      <path d="M 9.421875 75.984375 
L 18.40625 75.984375 
L 18.40625 0 
L 9.421875 0 
z
" id="DejaVuSans-108"/>
     </defs>
     <g transform="translate(737.10165 256.63495)scale(0.4 -0.4)">
      <use xlink:href="#DejaVuSans-86"/>
      <use x="60.658203" xlink:href="#DejaVuSans-101"/>
      <use x="122.181641" xlink:href="#DejaVuSans-104"/>
      <use x="185.560547" xlink:href="#DejaVuSans-105"/>
      <use x="213.34375" xlink:href="#DejaVuSans-99"/>
      <use x="268.324219" xlink:href="#DejaVuSans-108"/>
      <use x="296.107422" xlink:href="#DejaVuSans-101"/>
      <use x="357.630859" xlink:href="#DejaVuSans-32"/>
      <use x="389.417969" xlink:href="#DejaVuSans-49"/>
     </g>
    </g>
    <g id="line2d_20">
     <path d="M 625.10165 301.34745 
L 705.10165 301.34745 
" style="fill:none;stroke:#ff7f0e;stroke-linecap:square;stroke-width:4;"/>
    </g>
    <g id="line2d_21"/>
    <g id="text_15">
     <!-- Vehicle 2 -->
     <g transform="translate(737.10165 315.34745)scale(0.4 -0.4)">
      <use xlink:href="#DejaVuSans-86"/>
      <use x="60.658203" xlink:href="#DejaVuSans-101"/>
      <use x="122.181641" xlink:href="#DejaVuSans-104"/>
      <use x="185.560547" xlink:href="#DejaVuSans-105"/>
      <use x="213.34375" xlink:href="#DejaVuSans-99"/>
      <use x="268.324219" xlink:href="#DejaVuSans-108"/>
      <use x="296.107422" xlink:href="#DejaVuSans-101"/>
      <use x="357.630859" xlink:href="#DejaVuSans-32"/>
      <use x="389.417969" xlink:href="#DejaVuSans-50"/>
     </g>
    </g>
    <g id="line2d_22">
     <path d="M 625.10165 360.05995 
L 705.10165 360.05995 
" style="fill:none;stroke:#2ca02c;stroke-linecap:square;stroke-width:4;"/>
    </g>
    <g id="line2d_23"/>
    <g id="text_16">
     <!-- Vehicle 3 -->
     <g transform="translate(737.10165 374.05995)scale(0.4 -0.4)">
      <use xlink:href="#DejaVuSans-86"/>
      <use x="60.658203" xlink:href="#DejaVuSans-101"/>
      <use x="122.181641" xlink:href="#DejaVuSans-104"/>
      <use x="185.560547" xlink:href="#DejaVuSans-105"/>
      <use x="213.34375" xlink:href="#DejaVuSans-99"/>
      <use x="268.324219" xlink:href="#DejaVuSans-108"/>
      <use x="296.107422" xlink:href="#DejaVuSans-101"/>
      <use x="357.630859" xlink:href="#DejaVuSans-32"/>
      <use x="389.417969" xlink:href="#DejaVuSans-51"/>
     </g>
    </g>
    <g id="line2d_24">
     <path d="M 625.10165 418.77245 
L 705.10165 418.77245 
" style="fill:none;stroke:#d62728;stroke-linecap:square;stroke-width:4;"/>
    </g>
    <g id="line2d_25"/>
    <g id="text_17">
     <!-- Vehicle 4 -->
     <g transform="translate(737.10165 432.77245)scale(0.4 -0.4)">
      <use xlink:href="#DejaVuSans-86"/>
      <use x="60.658203" xlink:href="#DejaVuSans-101"/>
      <use x="122.181641" xlink:href="#DejaVuSans-104"/>
      <use x="185.560547" xlink:href="#DejaVuSans-105"/>
      <use x="213.34375" xlink:href="#DejaVuSans-99"/>
      <use x="268.324219" xlink:href="#DejaVuSans-108"/>
      <use x="296.107422" xlink:href="#DejaVuSans-101"/>
      <use x="357.630859" xlink:href="#DejaVuSans-32"/>
      <use x="389.417969" xlink:href="#DejaVuSans-52"/>
     </g>
    </g>
    <g id="line2d_26">
     <path d="M 625.10165 483.4912 
L 705.10165 483.4912 
" style="fill:none;stroke:#9467bd;stroke-dasharray:14.8,6.4;stroke-dashoffset:0;stroke-width:4;"/>
    </g>
    <g id="line2d_27"/>
    <g id="text_18">
     <!-- $v^2_{min}$ -->
     <defs>
      <path d="M 7.171875 54.6875 
L 16.703125 54.6875 
L 24.703125 8.203125 
L 50.875 54.6875 
L 60.40625 54.6875 
L 29.296875 0 
L 17.1875 0 
z
" id="DejaVuSans-Oblique-118"/>
      <path d="M 89.796875 33.015625 
L 83.40625 0 
L 74.421875 0 
L 80.71875 32.71875 
Q 81.109375 34.8125 81.296875 36.328125 
Q 81.5 37.84375 81.5 38.921875 
Q 81.5 43.3125 79.046875 45.75 
Q 76.609375 48.1875 72.21875 48.1875 
Q 65.671875 48.1875 60.546875 43.28125 
Q 55.421875 38.375 53.90625 30.515625 
L 47.90625 0 
L 38.921875 0 
L 45.3125 32.71875 
Q 45.703125 34.515625 45.890625 36.046875 
Q 46.09375 37.59375 46.09375 38.8125 
Q 46.09375 43.265625 43.65625 45.71875 
Q 41.21875 48.1875 36.921875 48.1875 
Q 30.28125 48.1875 25.140625 43.28125 
Q 20.015625 38.375 18.5 30.515625 
L 12.5 0 
L 3.515625 0 
L 14.203125 54.6875 
L 23.1875 54.6875 
L 21.484375 46.1875 
Q 25.140625 50.984375 30.046875 53.484375 
Q 34.96875 56 40.578125 56 
Q 46.53125 56 50.359375 52.875 
Q 54.203125 49.75 54.984375 44.1875 
Q 59.078125 49.953125 64.46875 52.96875 
Q 69.875 56 75.875 56 
Q 82.90625 56 86.734375 51.953125 
Q 90.578125 47.90625 90.578125 40.484375 
Q 90.578125 38.875 90.375 36.9375 
Q 90.1875 35.015625 89.796875 33.015625 
z
" id="DejaVuSans-Oblique-109"/>
      <path d="M 18.3125 75.984375 
L 27.296875 75.984375 
L 25.09375 64.59375 
L 16.109375 64.59375 
z
M 14.203125 54.6875 
L 23.1875 54.6875 
L 12.5 0 
L 3.515625 0 
z
" id="DejaVuSans-Oblique-105"/>
      <path d="M 55.71875 33.015625 
L 49.3125 0 
L 40.28125 0 
L 46.6875 32.671875 
Q 47.125 34.96875 47.359375 36.71875 
Q 47.609375 38.484375 47.609375 39.5 
Q 47.609375 43.609375 45.015625 45.890625 
Q 42.4375 48.1875 37.796875 48.1875 
Q 30.5625 48.1875 25.34375 43.375 
Q 20.125 38.578125 18.5 30.328125 
L 12.5 0 
L 3.515625 0 
L 14.109375 54.6875 
L 23.09375 54.6875 
L 21.296875 46.09375 
Q 25.046875 50.828125 30.3125 53.40625 
Q 35.59375 56 41.40625 56 
Q 48.640625 56 52.609375 52.09375 
Q 56.59375 48.1875 56.59375 41.109375 
Q 56.59375 39.359375 56.375 37.359375 
Q 56.15625 35.359375 55.71875 33.015625 
z
" id="DejaVuSans-Oblique-110"/>
     </defs>
     <g transform="translate(737.10165 497.4912)scale(0.4 -0.4)">
      <use transform="translate(0 0.701562)" xlink:href="#DejaVuSans-Oblique-118"/>
      <use transform="translate(63.645833 39.046875)scale(0.7)" xlink:href="#DejaVuSans-50"/>
      <use transform="translate(59.179688 -26.642188)scale(0.7)" xlink:href="#DejaVuSans-Oblique-109"/>
      <use transform="translate(127.368164 -26.642188)scale(0.7)" xlink:href="#DejaVuSans-Oblique-105"/>
      <use transform="translate(146.816406 -26.642188)scale(0.7)" xlink:href="#DejaVuSans-Oblique-110"/>
     </g>
    </g>
    <g id="line2d_28">
     <path d="M 625.10165 551.0912 
L 705.10165 551.0912 
" style="fill:none;stroke:#8c564b;stroke-dasharray:14.8,6.4;stroke-dashoffset:0;stroke-width:4;"/>
    </g>
    <g id="line2d_29"/>
    <g id="text_19">
     <!-- $v^2_{max}$ -->
     <defs>
      <path d="M 53.71875 31.203125 
L 47.609375 0 
L 38.625 0 
L 40.28125 8.296875 
Q 36.328125 3.421875 31.265625 1 
Q 26.21875 -1.421875 20.015625 -1.421875 
Q 13.03125 -1.421875 8.5625 2.84375 
Q 4.109375 7.125 4.109375 13.8125 
Q 4.109375 23.390625 11.75 28.953125 
Q 19.390625 34.515625 32.8125 34.515625 
L 45.3125 34.515625 
L 45.796875 36.921875 
Q 45.90625 37.3125 45.953125 37.765625 
Q 46 38.234375 46 39.203125 
Q 46 43.5625 42.453125 45.96875 
Q 38.921875 48.390625 32.515625 48.390625 
Q 28.125 48.390625 23.5 47.265625 
Q 18.890625 46.140625 14.015625 43.890625 
L 15.578125 52.203125 
Q 20.65625 54.109375 25.515625 55.046875 
Q 30.375 56 34.90625 56 
Q 44.578125 56 49.625 51.796875 
Q 54.6875 47.609375 54.6875 39.59375 
Q 54.6875 37.984375 54.4375 35.8125 
Q 54.203125 33.640625 53.71875 31.203125 
z
M 44 27.484375 
L 35.015625 27.484375 
Q 23.96875 27.484375 18.671875 24.53125 
Q 13.375 21.578125 13.375 15.375 
Q 13.375 11.078125 16.078125 8.640625 
Q 18.796875 6.203125 23.578125 6.203125 
Q 30.90625 6.203125 36.375 11.453125 
Q 41.84375 16.703125 43.609375 25.484375 
z
" id="DejaVuSans-Oblique-97"/>
      <path d="M 60.015625 54.6875 
L 34.90625 27.875 
L 50.296875 0 
L 39.984375 0 
L 28.421875 21.6875 
L 8.296875 0 
L -2.59375 0 
L 24.3125 28.8125 
L 10.015625 54.6875 
L 20.3125 54.6875 
L 30.8125 34.90625 
L 49.125 54.6875 
z
" id="DejaVuSans-Oblique-120"/>
     </defs>
     <g transform="translate(737.10165 565.0912)scale(0.4 -0.4)">
      <use transform="translate(0 0.765625)" xlink:href="#DejaVuSans-Oblique-118"/>
      <use transform="translate(63.645833 39.046875)scale(0.7)" xlink:href="#DejaVuSans-50"/>
      <use transform="translate(59.179688 -26.578125)scale(0.7)" xlink:href="#DejaVuSans-Oblique-109"/>
      <use transform="translate(127.368164 -26.578125)scale(0.7)" xlink:href="#DejaVuSans-Oblique-97"/>
      <use transform="translate(170.263672 -26.578125)scale(0.7)" xlink:href="#DejaVuSans-Oblique-120"/>
     </g>
    </g>
   </g>
  </g>
 </g>
 <defs>
  <clipPath id="p160a2b36d0">
   <rect height="610.60248" width="810.7236" x="143.5968" y="2.08872"/>
  </clipPath>
 </defs>
</svg>
