<?xml version="1.0" encoding="utf-8" standalone="no"?>
<!DOCTYPE svg PUBLIC "-//W3C//DTD SVG 1.1//EN"
  "http://www.w3.org/Graphics/SVG/1.1/DTD/svg11.dtd">
<!-- Created with matplotlib (https://matplotlib.org/) -->
<svg height="720pt" version="1.1" viewBox="0 0 959.976 720" width="959.976pt" xmlns="http://www.w3.org/2000/svg" xmlns:xlink="http://www.w3.org/1999/xlink">
 <defs>
  <style type="text/css">
*{stroke-linecap:butt;stroke-linejoin:round;}
  </style>
 </defs>
 <g id="figure_1">
  <g id="patch_1">
   <path d="M 0 720 
L 959.976 720 
L 959.976 0 
L 0 0 
z
" style="fill:#ffffff;"/>
  </g>
  <g id="axes_1">
   <g id="patch_2">
    <path d="M 75.67 630.92 
L 916.776 630.92 
L 916.776 89.28 
L 75.67 89.28 
z
" style="fill:#ffffff;"/>
   </g>
   <g id="matplotlib.axis_1">
    <g id="xtick_1">
     <g id="line2d_1">
      <defs>
       <path d="M 0 0 
L 0 3.5 
" id="mdead7a0575" style="stroke:#000000;stroke-width:0.8;"/>
      </defs>
      <g>
       <use style="stroke:#000000;stroke-width:0.8;" x="113.902091" xlink:href="#mdead7a0575" y="630.92"/>
      </g>
     </g>
     <g id="text_1">
      <!-- 0 -->
      <defs>
       <path d="M 31.78125 66.40625 
Q 24.171875 66.40625 20.328125 58.90625 
Q 16.5 51.421875 16.5 36.375 
Q 16.5 21.390625 20.328125 13.890625 
Q 24.171875 6.390625 31.78125 6.390625 
Q 39.453125 6.390625 43.28125 13.890625 
Q 47.125 21.390625 47.125 36.375 
Q 47.125 51.421875 43.28125 58.90625 
Q 39.453125 66.40625 31.78125 66.40625 
z
M 31.78125 74.21875 
Q 44.046875 74.21875 50.515625 64.515625 
Q 56.984375 54.828125 56.984375 36.375 
Q 56.984375 17.96875 50.515625 8.265625 
Q 44.046875 -1.421875 31.78125 -1.421875 
Q 19.53125 -1.421875 13.0625 8.265625 
Q 6.59375 17.96875 6.59375 36.375 
Q 6.59375 54.828125 13.0625 64.515625 
Q 19.53125 74.21875 31.78125 74.21875 
z
" id="DejaVuSans-48"/>
      </defs>
      <g transform="translate(101.177091 668.31375)scale(0.4 -0.4)">
       <use xlink:href="#DejaVuSans-48"/>
      </g>
     </g>
    </g>
    <g id="xtick_2">
     <g id="line2d_2">
      <g>
       <use style="stroke:#000000;stroke-width:0.8;" x="266.830455" xlink:href="#mdead7a0575" y="630.92"/>
      </g>
     </g>
     <g id="text_2">
      <!-- 2 -->
      <defs>
       <path d="M 19.1875 8.296875 
L 53.609375 8.296875 
L 53.609375 0 
L 7.328125 0 
L 7.328125 8.296875 
Q 12.9375 14.109375 22.625 23.890625 
Q 32.328125 33.6875 34.8125 36.53125 
Q 39.546875 41.84375 41.421875 45.53125 
Q 43.3125 49.21875 43.3125 52.78125 
Q 43.3125 58.59375 39.234375 62.25 
Q 35.15625 65.921875 28.609375 65.921875 
Q 23.96875 65.921875 18.8125 64.3125 
Q 13.671875 62.703125 7.8125 59.421875 
L 7.8125 69.390625 
Q 13.765625 71.78125 18.9375 73 
Q 24.125 74.21875 28.421875 74.21875 
Q 39.75 74.21875 46.484375 68.546875 
Q 53.21875 62.890625 53.21875 53.421875 
Q 53.21875 48.921875 51.53125 44.890625 
Q 49.859375 40.875 45.40625 35.40625 
Q 44.1875 33.984375 37.640625 27.21875 
Q 31.109375 20.453125 19.1875 8.296875 
z
" id="DejaVuSans-50"/>
      </defs>
      <g transform="translate(254.105455 668.31375)scale(0.4 -0.4)">
       <use xlink:href="#DejaVuSans-50"/>
      </g>
     </g>
    </g>
    <g id="xtick_3">
     <g id="line2d_3">
      <g>
       <use style="stroke:#000000;stroke-width:0.8;" x="419.758818" xlink:href="#mdead7a0575" y="630.92"/>
      </g>
     </g>
     <g id="text_3">
      <!-- 4 -->
      <defs>
       <path d="M 37.796875 64.3125 
L 12.890625 25.390625 
L 37.796875 25.390625 
z
M 35.203125 72.90625 
L 47.609375 72.90625 
L 47.609375 25.390625 
L 58.015625 25.390625 
L 58.015625 17.1875 
L 47.609375 17.1875 
L 47.609375 0 
L 37.796875 0 
L 37.796875 17.1875 
L 4.890625 17.1875 
L 4.890625 26.703125 
z
" id="DejaVuSans-52"/>
      </defs>
      <g transform="translate(407.033818 668.31375)scale(0.4 -0.4)">
       <use xlink:href="#DejaVuSans-52"/>
      </g>
     </g>
    </g>
    <g id="xtick_4">
     <g id="line2d_4">
      <g>
       <use style="stroke:#000000;stroke-width:0.8;" x="572.687182" xlink:href="#mdead7a0575" y="630.92"/>
      </g>
     </g>
     <g id="text_4">
      <!-- 6 -->
      <defs>
       <path d="M 33.015625 40.375 
Q 26.375 40.375 22.484375 35.828125 
Q 18.609375 31.296875 18.609375 23.390625 
Q 18.609375 15.53125 22.484375 10.953125 
Q 26.375 6.390625 33.015625 6.390625 
Q 39.65625 6.390625 43.53125 10.953125 
Q 47.40625 15.53125 47.40625 23.390625 
Q 47.40625 31.296875 43.53125 35.828125 
Q 39.65625 40.375 33.015625 40.375 
z
M 52.59375 71.296875 
L 52.59375 62.3125 
Q 48.875 64.0625 45.09375 64.984375 
Q 41.3125 65.921875 37.59375 65.921875 
Q 27.828125 65.921875 22.671875 59.328125 
Q 17.53125 52.734375 16.796875 39.40625 
Q 19.671875 43.65625 24.015625 45.921875 
Q 28.375 48.1875 33.59375 48.1875 
Q 44.578125 48.1875 50.953125 41.515625 
Q 57.328125 34.859375 57.328125 23.390625 
Q 57.328125 12.15625 50.6875 5.359375 
Q 44.046875 -1.421875 33.015625 -1.421875 
Q 20.359375 -1.421875 13.671875 8.265625 
Q 6.984375 17.96875 6.984375 36.375 
Q 6.984375 53.65625 15.1875 63.9375 
Q 23.390625 74.21875 37.203125 74.21875 
Q 40.921875 74.21875 44.703125 73.484375 
Q 48.484375 72.75 52.59375 71.296875 
z
" id="DejaVuSans-54"/>
      </defs>
      <g transform="translate(559.962182 668.31375)scale(0.4 -0.4)">
       <use xlink:href="#DejaVuSans-54"/>
      </g>
     </g>
    </g>
    <g id="xtick_5">
     <g id="line2d_5">
      <g>
       <use style="stroke:#000000;stroke-width:0.8;" x="725.615545" xlink:href="#mdead7a0575" y="630.92"/>
      </g>
     </g>
     <g id="text_5">
      <!-- 8 -->
      <defs>
       <path d="M 31.78125 34.625 
Q 24.75 34.625 20.71875 30.859375 
Q 16.703125 27.09375 16.703125 20.515625 
Q 16.703125 13.921875 20.71875 10.15625 
Q 24.75 6.390625 31.78125 6.390625 
Q 38.8125 6.390625 42.859375 10.171875 
Q 46.921875 13.96875 46.921875 20.515625 
Q 46.921875 27.09375 42.890625 30.859375 
Q 38.875 34.625 31.78125 34.625 
z
M 21.921875 38.8125 
Q 15.578125 40.375 12.03125 44.71875 
Q 8.5 49.078125 8.5 55.328125 
Q 8.5 64.0625 14.71875 69.140625 
Q 20.953125 74.21875 31.78125 74.21875 
Q 42.671875 74.21875 48.875 69.140625 
Q 55.078125 64.0625 55.078125 55.328125 
Q 55.078125 49.078125 51.53125 44.71875 
Q 48 40.375 41.703125 38.8125 
Q 48.828125 37.15625 52.796875 32.3125 
Q 56.78125 27.484375 56.78125 20.515625 
Q 56.78125 9.90625 50.3125 4.234375 
Q 43.84375 -1.421875 31.78125 -1.421875 
Q 19.734375 -1.421875 13.25 4.234375 
Q 6.78125 9.90625 6.78125 20.515625 
Q 6.78125 27.484375 10.78125 32.3125 
Q 14.796875 37.15625 21.921875 38.8125 
z
M 18.3125 54.390625 
Q 18.3125 48.734375 21.84375 45.5625 
Q 25.390625 42.390625 31.78125 42.390625 
Q 38.140625 42.390625 41.71875 45.5625 
Q 45.3125 48.734375 45.3125 54.390625 
Q 45.3125 60.0625 41.71875 63.234375 
Q 38.140625 66.40625 31.78125 66.40625 
Q 25.390625 66.40625 21.84375 63.234375 
Q 18.3125 60.0625 18.3125 54.390625 
z
" id="DejaVuSans-56"/>
      </defs>
      <g transform="translate(712.890545 668.31375)scale(0.4 -0.4)">
       <use xlink:href="#DejaVuSans-56"/>
      </g>
     </g>
    </g>
    <g id="xtick_6">
     <g id="line2d_6">
      <g>
       <use style="stroke:#000000;stroke-width:0.8;" x="878.543909" xlink:href="#mdead7a0575" y="630.92"/>
      </g>
     </g>
     <g id="text_6">
      <!-- 10 -->
      <defs>
       <path d="M 12.40625 8.296875 
L 28.515625 8.296875 
L 28.515625 63.921875 
L 10.984375 60.40625 
L 10.984375 69.390625 
L 28.421875 72.90625 
L 38.28125 72.90625 
L 38.28125 8.296875 
L 54.390625 8.296875 
L 54.390625 0 
L 12.40625 0 
z
" id="DejaVuSans-49"/>
      </defs>
      <g transform="translate(853.093909 668.31375)scale(0.4 -0.4)">
       <use xlink:href="#DejaVuSans-49"/>
       <use x="63.623047" xlink:href="#DejaVuSans-48"/>
      </g>
     </g>
    </g>
   </g>
   <g id="matplotlib.axis_2">
    <g id="ytick_1">
     <g id="line2d_7">
      <defs>
       <path d="M 0 0 
L -3.5 0 
" id="m2668fca6bb" style="stroke:#000000;stroke-width:0.8;"/>
      </defs>
      <g>
       <use style="stroke:#000000;stroke-width:0.8;" x="75.67" xlink:href="#m2668fca6bb" y="606.3"/>
      </g>
     </g>
     <g id="text_7">
      <!-- 0 -->
      <g transform="translate(43.22 621.496875)scale(0.4 -0.4)">
       <use xlink:href="#DejaVuSans-48"/>
      </g>
     </g>
    </g>
    <g id="ytick_2">
     <g id="line2d_8">
      <g>
       <use style="stroke:#000000;stroke-width:0.8;" x="75.67" xlink:href="#m2668fca6bb" y="496.877778"/>
      </g>
     </g>
     <g id="text_8">
      <!-- 2 -->
      <g transform="translate(43.22 512.074653)scale(0.4 -0.4)">
       <use xlink:href="#DejaVuSans-50"/>
      </g>
     </g>
    </g>
    <g id="ytick_3">
     <g id="line2d_9">
      <g>
       <use style="stroke:#000000;stroke-width:0.8;" x="75.67" xlink:href="#m2668fca6bb" y="387.455556"/>
      </g>
     </g>
     <g id="text_9">
      <!-- 4 -->
      <g transform="translate(43.22 402.652431)scale(0.4 -0.4)">
       <use xlink:href="#DejaVuSans-52"/>
      </g>
     </g>
    </g>
    <g id="ytick_4">
     <g id="line2d_10">
      <g>
       <use style="stroke:#000000;stroke-width:0.8;" x="75.67" xlink:href="#m2668fca6bb" y="278.033333"/>
      </g>
     </g>
     <g id="text_10">
      <!-- 6 -->
      <g transform="translate(43.22 293.230208)scale(0.4 -0.4)">
       <use xlink:href="#DejaVuSans-54"/>
      </g>
     </g>
    </g>
    <g id="ytick_5">
     <g id="line2d_11">
      <g>
       <use style="stroke:#000000;stroke-width:0.8;" x="75.67" xlink:href="#m2668fca6bb" y="168.611111"/>
      </g>
     </g>
     <g id="text_11">
      <!-- 8 -->
      <g transform="translate(43.22 183.807986)scale(0.4 -0.4)">
       <use xlink:href="#DejaVuSans-56"/>
      </g>
     </g>
    </g>
   </g>
   <g id="line2d_12">
    <path clip-path="url(#p330d2ff19a)" d="M 113.902091 332.744444 
L 117.7253 346.042516 
L 121.548509 358.594176 
L 125.371718 370.41873 
L 129.194927 381.535229 
L 133.018136 391.962469 
L 136.841345 401.718999 
L 140.664555 410.82312 
L 144.105443 418.47395 
L 147.546331 425.623959 
L 150.987219 432.285989 
L 154.428107 438.472732 
L 157.868995 444.196725 
L 161.309884 449.470359 
L 164.750772 454.305874 
L 167.809339 458.246089 
L 170.867906 461.858096 
L 173.926474 465.150206 
L 176.985041 468.130644 
L 180.043608 470.807547 
L 183.102175 473.188967 
L 186.160743 475.282873 
L 189.21931 477.097148 
L 192.277877 478.639596 
L 195.336445 479.917937 
L 198.395012 480.939813 
L 201.453579 481.712787 
L 204.512146 482.244343 
L 207.570714 482.541889 
L 210.629281 482.612757 
L 213.687848 482.464205 
L 216.746415 482.103416 
L 219.804983 481.537502 
L 223.245871 480.664424 
L 226.686759 479.55056 
L 230.127647 478.205717 
L 233.950856 476.452339 
L 237.774065 474.438922 
L 241.597275 472.178454 
L 245.802805 469.421908 
L 250.008335 466.398823 
L 254.596185 462.816484 
L 259.184036 458.958075 
L 264.154208 454.490981 
L 269.506701 449.375749 
L 275.241515 443.580676 
L 281.358649 437.083946 
L 288.240425 429.443192 
L 295.886844 420.61805 
L 305.062545 409.681944 
L 318.443777 393.349375 
L 337.942144 369.574601 
L 347.500166 358.287829 
L 355.528905 349.148606 
L 362.410682 341.636111 
L 368.910137 334.86654 
L 375.027272 328.826823 
L 380.762085 323.49182 
L 386.114578 318.826791 
L 391.08475 314.78966 
L 395.672601 311.333083 
L 400.260452 308.152175 
L 404.465982 305.492155 
L 408.671512 303.08948 
L 412.877042 300.956408 
L 416.700251 299.261511 
L 420.52346 297.808742 
L 424.346669 296.607295 
L 427.787557 295.74847 
L 431.228445 295.107365 
L 434.669334 294.690688 
L 438.110222 294.505156 
L 441.55111 294.55749 
L 444.991998 294.854426 
L 448.050565 295.329166 
L 451.109133 296.007249 
L 454.1677 296.893431 
L 457.226267 297.992481 
L 460.284835 299.30918 
L 463.343402 300.848321 
L 466.401969 302.614712 
L 469.460536 304.613175 
L 472.901425 307.144874 
L 476.342313 309.983332 
L 479.783201 313.135498 
L 483.224089 316.608351 
L 486.664977 320.408903 
L 490.105865 324.544203 
L 493.546754 329.021338 
L 496.223 332.744444 
L 496.223 332.744444 
" style="fill:none;stroke:#1f77b4;stroke-linecap:square;stroke-width:4;"/>
   </g>
   <g id="line2d_13">
    <path clip-path="url(#p330d2ff19a)" d="M 113.902091 332.744444 
L 190.366273 606.3 
L 266.830455 496.877778 
L 343.294636 332.744444 
L 419.758818 223.322222 
L 496.223 332.744444 
" style="fill:none;stroke:#ff7f0e;stroke-dasharray:14.8,6.4;stroke-dashoffset:0;stroke-width:4;"/>
    <defs>
     <path d="M 0 4.5 
C 1.193414 4.5 2.338109 4.025852 3.181981 3.181981 
C 4.025852 2.338109 4.5 1.193414 4.5 0 
C 4.5 -1.193414 4.025852 -2.338109 3.181981 -3.181981 
C 2.338109 -4.025852 1.193414 -4.5 0 -4.5 
C -1.193414 -4.5 -2.338109 -4.025852 -3.181981 -3.181981 
C -4.025852 -2.338109 -4.5 -1.193414 -4.5 0 
C -4.5 1.193414 -4.025852 2.338109 -3.181981 3.181981 
C -2.338109 4.025852 -1.193414 4.5 0 4.5 
z
" id="m18c690ec5e" style="stroke:#ff7f0e;"/>
    </defs>
    <g clip-path="url(#p330d2ff19a)">
     <use style="fill:#ff7f0e;stroke:#ff7f0e;" x="113.902091" xlink:href="#m18c690ec5e" y="332.744444"/>
     <use style="fill:#ff7f0e;stroke:#ff7f0e;" x="190.366273" xlink:href="#m18c690ec5e" y="606.3"/>
     <use style="fill:#ff7f0e;stroke:#ff7f0e;" x="266.830455" xlink:href="#m18c690ec5e" y="496.877778"/>
     <use style="fill:#ff7f0e;stroke:#ff7f0e;" x="343.294636" xlink:href="#m18c690ec5e" y="332.744444"/>
     <use style="fill:#ff7f0e;stroke:#ff7f0e;" x="419.758818" xlink:href="#m18c690ec5e" y="223.322222"/>
     <use style="fill:#ff7f0e;stroke:#ff7f0e;" x="496.223" xlink:href="#m18c690ec5e" y="332.744444"/>
    </g>
   </g>
   <g id="line2d_14">
    <path clip-path="url(#p330d2ff19a)" d="M 113.902091 442.166667 
L 119.254584 434.718964 
L 124.607076 427.684607 
L 129.959569 421.048279 
L 135.312062 414.794958 
L 140.664555 408.909914 
L 146.017047 403.378707 
L 151.36954 398.187187 
L 156.722033 393.321488 
L 162.074525 388.768026 
L 167.427018 384.513501 
L 172.779511 380.54489 
L 178.132004 376.849445 
L 183.484496 373.414695 
L 188.836989 370.228438 
L 194.189482 367.278743 
L 199.541975 364.553945 
L 205.659109 361.700664 
L 211.776244 359.109649 
L 217.893378 356.764745 
L 224.010513 354.650239 
L 230.127647 352.750849 
L 237.009424 350.85269 
L 243.8912 349.1875 
L 250.772976 347.735447 
L 258.419395 346.348744 
L 266.830455 345.069764 
L 275.241515 344.017572 
L 284.417216 343.092075 
L 294.35756 342.308201 
L 305.827187 341.627919 
L 319.59074 341.039568 
L 340.236069 340.405585 
L 368.527816 339.509007 
L 383.820653 338.792312 
L 396.819564 337.964467 
L 409.053833 336.955355 
L 420.52346 335.774441 
L 431.228445 334.444087 
L 441.168789 332.995344 
L 451.109133 331.328368 
L 461.049476 329.432669 
L 470.98982 327.299585 
L 480.930164 324.922225 
L 490.105865 322.506434 
L 499.281567 319.875289 
L 508.457269 317.027174 
L 517.632971 313.961621 
L 527.573315 310.396001 
L 537.513658 306.578203 
L 547.454002 302.5119 
L 557.394345 298.202146 
L 567.334689 293.655324 
L 578.039675 288.502441 
L 588.74466 283.094681 
L 599.449645 277.444782 
L 610.919273 271.138827 
L 623.153542 264.145951 
L 636.152453 256.44279 
L 649.916005 248.016235 
L 665.208842 238.378698 
L 682.795604 227.017607 
L 706.4995 211.409534 
L 749.319442 183.172662 
L 766.141562 172.367373 
L 780.669756 163.293336 
L 793.668667 155.438145 
L 805.138295 148.756438 
L 815.84328 142.763651 
L 825.783624 137.435128 
L 835.723967 132.3576 
L 844.899669 127.913182 
L 854.075371 123.719943 
L 862.486431 120.111917 
L 870.897491 116.743331 
L 878.543909 113.9 
L 878.543909 113.9 
" style="fill:none;stroke:#2ca02c;stroke-linecap:square;stroke-width:4;"/>
   </g>
   <g id="line2d_15">
    <path clip-path="url(#p330d2ff19a)" d="M 113.902091 442.166667 
L 266.830455 223.322222 
L 419.758818 442.166667 
L 572.687182 332.744444 
L 725.615545 168.611111 
L 878.543909 113.9 
" style="fill:none;stroke:#d62728;stroke-dasharray:14.8,6.4;stroke-dashoffset:0;stroke-width:4;"/>
    <defs>
     <path d="M 0 4.5 
C 1.193414 4.5 2.338109 4.025852 3.181981 3.181981 
C 4.025852 2.338109 4.5 1.193414 4.5 0 
C 4.5 -1.193414 4.025852 -2.338109 3.181981 -3.181981 
C 2.338109 -4.025852 1.193414 -4.5 0 -4.5 
C -1.193414 -4.5 -2.338109 -4.025852 -3.181981 -3.181981 
C -4.025852 -2.338109 -4.5 -1.193414 -4.5 0 
C -4.5 1.193414 -4.025852 2.338109 -3.181981 3.181981 
C -2.338109 4.025852 -1.193414 4.5 0 4.5 
z
" id="m976e5477b0" style="stroke:#d62728;"/>
    </defs>
    <g clip-path="url(#p330d2ff19a)">
     <use style="fill:#d62728;stroke:#d62728;" x="113.902091" xlink:href="#m976e5477b0" y="442.166667"/>
     <use style="fill:#d62728;stroke:#d62728;" x="266.830455" xlink:href="#m976e5477b0" y="223.322222"/>
     <use style="fill:#d62728;stroke:#d62728;" x="419.758818" xlink:href="#m976e5477b0" y="442.166667"/>
     <use style="fill:#d62728;stroke:#d62728;" x="572.687182" xlink:href="#m976e5477b0" y="332.744444"/>
     <use style="fill:#d62728;stroke:#d62728;" x="725.615545" xlink:href="#m976e5477b0" y="168.611111"/>
     <use style="fill:#d62728;stroke:#d62728;" x="878.543909" xlink:href="#m976e5477b0" y="113.9"/>
    </g>
   </g>
   <g id="patch_3">
    <path d="M 75.67 630.92 
L 75.67 89.28 
" style="fill:none;stroke:#000000;stroke-linecap:square;stroke-linejoin:miter;stroke-width:0.8;"/>
   </g>
   <g id="patch_4">
    <path d="M 916.776 630.92 
L 916.776 89.28 
" style="fill:none;stroke:#000000;stroke-linecap:square;stroke-linejoin:miter;stroke-width:0.8;"/>
   </g>
   <g id="patch_5">
    <path d="M 75.67 630.92 
L 916.776 630.92 
" style="fill:none;stroke:#000000;stroke-linecap:square;stroke-linejoin:miter;stroke-width:0.8;"/>
   </g>
   <g id="patch_6">
    <path d="M 75.67 89.28 
L 916.776 89.28 
" style="fill:none;stroke:#000000;stroke-linecap:square;stroke-linejoin:miter;stroke-width:0.8;"/>
   </g>
   <g id="text_12">
    <!-- Curves C1 and C2 -->
    <defs>
     <path d="M 64.40625 67.28125 
L 64.40625 56.890625 
Q 59.421875 61.53125 53.78125 63.8125 
Q 48.140625 66.109375 41.796875 66.109375 
Q 29.296875 66.109375 22.65625 58.46875 
Q 16.015625 50.828125 16.015625 36.375 
Q 16.015625 21.96875 22.65625 14.328125 
Q 29.296875 6.6875 41.796875 6.6875 
Q 48.140625 6.6875 53.78125 8.984375 
Q 59.421875 11.28125 64.40625 15.921875 
L 64.40625 5.609375 
Q 59.234375 2.09375 53.4375 0.328125 
Q 47.65625 -1.421875 41.21875 -1.421875 
Q 24.65625 -1.421875 15.125 8.703125 
Q 5.609375 18.84375 5.609375 36.375 
Q 5.609375 53.953125 15.125 64.078125 
Q 24.65625 74.21875 41.21875 74.21875 
Q 47.75 74.21875 53.53125 72.484375 
Q 59.328125 70.75 64.40625 67.28125 
z
" id="DejaVuSans-67"/>
     <path d="M 8.5 21.578125 
L 8.5 54.6875 
L 17.484375 54.6875 
L 17.484375 21.921875 
Q 17.484375 14.15625 20.5 10.265625 
Q 23.53125 6.390625 29.59375 6.390625 
Q 36.859375 6.390625 41.078125 11.03125 
Q 45.3125 15.671875 45.3125 23.6875 
L 45.3125 54.6875 
L 54.296875 54.6875 
L 54.296875 0 
L 45.3125 0 
L 45.3125 8.40625 
Q 42.046875 3.421875 37.71875 1 
Q 33.40625 -1.421875 27.6875 -1.421875 
Q 18.265625 -1.421875 13.375 4.4375 
Q 8.5 10.296875 8.5 21.578125 
z
M 31.109375 56 
z
" id="DejaVuSans-117"/>
     <path d="M 41.109375 46.296875 
Q 39.59375 47.171875 37.8125 47.578125 
Q 36.03125 48 33.890625 48 
Q 26.265625 48 22.1875 43.046875 
Q 18.109375 38.09375 18.109375 28.8125 
L 18.109375 0 
L 9.078125 0 
L 9.078125 54.6875 
L 18.109375 54.6875 
L 18.109375 46.1875 
Q 20.953125 51.171875 25.484375 53.578125 
Q 30.03125 56 36.53125 56 
Q 37.453125 56 38.578125 55.875 
Q 39.703125 55.765625 41.0625 55.515625 
z
" id="DejaVuSans-114"/>
     <path d="M 2.984375 54.6875 
L 12.5 54.6875 
L 29.59375 8.796875 
L 46.6875 54.6875 
L 56.203125 54.6875 
L 35.6875 0 
L 23.484375 0 
z
" id="DejaVuSans-118"/>
     <path d="M 56.203125 29.59375 
L 56.203125 25.203125 
L 14.890625 25.203125 
Q 15.484375 15.921875 20.484375 11.0625 
Q 25.484375 6.203125 34.421875 6.203125 
Q 39.59375 6.203125 44.453125 7.46875 
Q 49.3125 8.734375 54.109375 11.28125 
L 54.109375 2.78125 
Q 49.265625 0.734375 44.1875 -0.34375 
Q 39.109375 -1.421875 33.890625 -1.421875 
Q 20.796875 -1.421875 13.15625 6.1875 
Q 5.515625 13.8125 5.515625 26.8125 
Q 5.515625 40.234375 12.765625 48.109375 
Q 20.015625 56 32.328125 56 
Q 43.359375 56 49.78125 48.890625 
Q 56.203125 41.796875 56.203125 29.59375 
z
M 47.21875 32.234375 
Q 47.125 39.59375 43.09375 43.984375 
Q 39.0625 48.390625 32.421875 48.390625 
Q 24.90625 48.390625 20.390625 44.140625 
Q 15.875 39.890625 15.1875 32.171875 
z
" id="DejaVuSans-101"/>
     <path d="M 44.28125 53.078125 
L 44.28125 44.578125 
Q 40.484375 46.53125 36.375 47.5 
Q 32.28125 48.484375 27.875 48.484375 
Q 21.1875 48.484375 17.84375 46.4375 
Q 14.5 44.390625 14.5 40.28125 
Q 14.5 37.15625 16.890625 35.375 
Q 19.28125 33.59375 26.515625 31.984375 
L 29.59375 31.296875 
Q 39.15625 29.25 43.1875 25.515625 
Q 47.21875 21.78125 47.21875 15.09375 
Q 47.21875 7.46875 41.1875 3.015625 
Q 35.15625 -1.421875 24.609375 -1.421875 
Q 20.21875 -1.421875 15.453125 -0.5625 
Q 10.6875 0.296875 5.421875 2 
L 5.421875 11.28125 
Q 10.40625 8.6875 15.234375 7.390625 
Q 20.0625 6.109375 24.8125 6.109375 
Q 31.15625 6.109375 34.5625 8.28125 
Q 37.984375 10.453125 37.984375 14.40625 
Q 37.984375 18.0625 35.515625 20.015625 
Q 33.0625 21.96875 24.703125 23.78125 
L 21.578125 24.515625 
Q 13.234375 26.265625 9.515625 29.90625 
Q 5.8125 33.546875 5.8125 39.890625 
Q 5.8125 47.609375 11.28125 51.796875 
Q 16.75 56 26.8125 56 
Q 31.78125 56 36.171875 55.265625 
Q 40.578125 54.546875 44.28125 53.078125 
z
" id="DejaVuSans-115"/>
     <path id="DejaVuSans-32"/>
     <path d="M 34.28125 27.484375 
Q 23.390625 27.484375 19.1875 25 
Q 14.984375 22.515625 14.984375 16.5 
Q 14.984375 11.71875 18.140625 8.90625 
Q 21.296875 6.109375 26.703125 6.109375 
Q 34.1875 6.109375 38.703125 11.40625 
Q 43.21875 16.703125 43.21875 25.484375 
L 43.21875 27.484375 
z
M 52.203125 31.203125 
L 52.203125 0 
L 43.21875 0 
L 43.21875 8.296875 
Q 40.140625 3.328125 35.546875 0.953125 
Q 30.953125 -1.421875 24.3125 -1.421875 
Q 15.921875 -1.421875 10.953125 3.296875 
Q 6 8.015625 6 15.921875 
Q 6 25.140625 12.171875 29.828125 
Q 18.359375 34.515625 30.609375 34.515625 
L 43.21875 34.515625 
L 43.21875 35.40625 
Q 43.21875 41.609375 39.140625 45 
Q 35.0625 48.390625 27.6875 48.390625 
Q 23 48.390625 18.546875 47.265625 
Q 14.109375 46.140625 10.015625 43.890625 
L 10.015625 52.203125 
Q 14.9375 54.109375 19.578125 55.046875 
Q 24.21875 56 28.609375 56 
Q 40.484375 56 46.34375 49.84375 
Q 52.203125 43.703125 52.203125 31.203125 
z
" id="DejaVuSans-97"/>
     <path d="M 54.890625 33.015625 
L 54.890625 0 
L 45.90625 0 
L 45.90625 32.71875 
Q 45.90625 40.484375 42.875 44.328125 
Q 39.84375 48.1875 33.796875 48.1875 
Q 26.515625 48.1875 22.3125 43.546875 
Q 18.109375 38.921875 18.109375 30.90625 
L 18.109375 0 
L 9.078125 0 
L 9.078125 54.6875 
L 18.109375 54.6875 
L 18.109375 46.1875 
Q 21.34375 51.125 25.703125 53.5625 
Q 30.078125 56 35.796875 56 
Q 45.21875 56 50.046875 50.171875 
Q 54.890625 44.34375 54.890625 33.015625 
z
" id="DejaVuSans-110"/>
     <path d="M 45.40625 46.390625 
L 45.40625 75.984375 
L 54.390625 75.984375 
L 54.390625 0 
L 45.40625 0 
L 45.40625 8.203125 
Q 42.578125 3.328125 38.25 0.953125 
Q 33.9375 -1.421875 27.875 -1.421875 
Q 17.96875 -1.421875 11.734375 6.484375 
Q 5.515625 14.40625 5.515625 27.296875 
Q 5.515625 40.1875 11.734375 48.09375 
Q 17.96875 56 27.875 56 
Q 33.9375 56 38.25 53.625 
Q 42.578125 51.265625 45.40625 46.390625 
z
M 14.796875 27.296875 
Q 14.796875 17.390625 18.875 11.75 
Q 22.953125 6.109375 30.078125 6.109375 
Q 37.203125 6.109375 41.296875 11.75 
Q 45.40625 17.390625 45.40625 27.296875 
Q 45.40625 37.203125 41.296875 42.84375 
Q 37.203125 48.484375 30.078125 48.484375 
Q 22.953125 48.484375 18.875 42.84375 
Q 14.796875 37.203125 14.796875 27.296875 
z
" id="DejaVuSans-100"/>
    </defs>
    <g transform="translate(280.81925 79.2975)scale(0.48 -0.48)">
     <use xlink:href="#DejaVuSans-67"/>
     <use x="69.824219" xlink:href="#DejaVuSans-117"/>
     <use x="133.203125" xlink:href="#DejaVuSans-114"/>
     <use x="174.316406" xlink:href="#DejaVuSans-118"/>
     <use x="233.496094" xlink:href="#DejaVuSans-101"/>
     <use x="295.019531" xlink:href="#DejaVuSans-115"/>
     <use x="347.119141" xlink:href="#DejaVuSans-32"/>
     <use x="378.90625" xlink:href="#DejaVuSans-67"/>
     <use x="448.730469" xlink:href="#DejaVuSans-49"/>
     <use x="512.353516" xlink:href="#DejaVuSans-32"/>
     <use x="544.140625" xlink:href="#DejaVuSans-97"/>
     <use x="605.419922" xlink:href="#DejaVuSans-110"/>
     <use x="668.798828" xlink:href="#DejaVuSans-100"/>
     <use x="732.275391" xlink:href="#DejaVuSans-32"/>
     <use x="764.0625" xlink:href="#DejaVuSans-67"/>
     <use x="833.886719" xlink:href="#DejaVuSans-50"/>
    </g>
   </g>
   <g id="legend_1">
    <g id="patch_7">
     <path d="M 604.601 610.92 
L 888.776 610.92 
Q 896.776 610.92 896.776 602.92 
L 896.776 489.495 
Q 896.776 481.495 888.776 481.495 
L 604.601 481.495 
Q 596.601 481.495 596.601 489.495 
L 596.601 602.92 
Q 596.601 610.92 604.601 610.92 
z
" style="fill:#ffffff;opacity:0.8;stroke:#cccccc;stroke-linejoin:miter;"/>
    </g>
    <g id="line2d_16">
     <path d="M 612.601 513.88875 
L 692.601 513.88875 
" style="fill:none;stroke:#1f77b4;stroke-linecap:square;stroke-width:4;"/>
    </g>
    <g id="line2d_17"/>
    <g id="text_13">
     <!-- Curve 1 -->
     <g transform="translate(724.601 527.88875)scale(0.4 -0.4)">
      <use xlink:href="#DejaVuSans-67"/>
      <use x="69.824219" xlink:href="#DejaVuSans-117"/>
      <use x="133.203125" xlink:href="#DejaVuSans-114"/>
      <use x="174.316406" xlink:href="#DejaVuSans-118"/>
      <use x="233.496094" xlink:href="#DejaVuSans-101"/>
      <use x="295.019531" xlink:href="#DejaVuSans-32"/>
      <use x="326.806641" xlink:href="#DejaVuSans-49"/>
     </g>
    </g>
    <g id="line2d_18">
     <path d="M 612.601 572.60125 
L 692.601 572.60125 
" style="fill:none;stroke:#2ca02c;stroke-linecap:square;stroke-width:4;"/>
    </g>
    <g id="line2d_19"/>
    <g id="text_14">
     <!-- Curve 2 -->
     <g transform="translate(724.601 586.60125)scale(0.4 -0.4)">
      <use xlink:href="#DejaVuSans-67"/>
      <use x="69.824219" xlink:href="#DejaVuSans-117"/>
      <use x="133.203125" xlink:href="#DejaVuSans-114"/>
      <use x="174.316406" xlink:href="#DejaVuSans-118"/>
      <use x="233.496094" xlink:href="#DejaVuSans-101"/>
      <use x="295.019531" xlink:href="#DejaVuSans-32"/>
      <use x="326.806641" xlink:href="#DejaVuSans-50"/>
     </g>
    </g>
   </g>
  </g>
 </g>
 <defs>
  <clipPath id="p330d2ff19a">
   <rect height="541.64" width="841.106" x="75.67" y="89.28"/>
  </clipPath>
 </defs>
</svg>
