<?xml version="1.0" encoding="utf-8" standalone="no"?>
<!DOCTYPE svg PUBLIC "-//W3C//DTD SVG 1.1//EN"
  "http://www.w3.org/Graphics/SVG/1.1/DTD/svg11.dtd">
<svg height="720pt" version="1.1" viewBox="0 0 959.76 720" width="959.76pt" xmlns="http://www.w3.org/2000/svg" xmlns:xlink="http://www.w3.org/1999/xlink">
 <metadata>
  <rdf:RDF xmlns:cc="http://creativecommons.org/ns#" xmlns:dc="http://purl.org/dc/elements/1.1/" xmlns:rdf="http://www.w3.org/1999/02/22-rdf-syntax-ns#">
   <cc:Work>
    <dc:type rdf:resource="http://purl.org/dc/dcmitype/StillImage"/>
    <dc:date>2021-10-18T11:12:47.745216</dc:date>
    <dc:format>image/svg+xml</dc:format>
    <dc:creator>
     <cc:Agent>
      <dc:title>Matplotlib v3.4.2, https://matplotlib.org/</dc:title>
     </cc:Agent>
    </dc:creator>
   </cc:Work>
  </rdf:RDF>
 </metadata>
 <defs>
  <style type="text/css">*{stroke-linecap:butt;stroke-linejoin:round;}</style>
 </defs>
 <g id="figure_1">
  <g id="patch_1">
   <path d="M 0 720 
L 959.76 720 
L 959.76 0 
L 0 0 
z
" style="fill:#ffffff;"/>
  </g>
  <g id="axes_1">
   <g id="patch_2">
    <path d="M 107.12 619.72 
L 925.2 619.72 
L 925.2 34.56 
L 107.12 34.56 
z
" style="fill:#ffffff;"/>
   </g>
   <g id="patch_3">
    <path clip-path="url(#p61a74b7837)" d="M 327.372308 462.176923 
C 344.061335 462.176923 360.069069 457.434142 371.869994 448.993123 
C 383.670918 440.552104 390.301538 429.102019 390.301538 417.164615 
C 390.301538 405.227212 383.670918 393.777126 371.869994 385.336107 
C 360.069069 376.895088 344.061335 372.152308 327.372308 372.152308 
C 310.683281 372.152308 294.675546 376.895088 282.874622 385.336107 
C 271.073698 393.777126 264.443077 405.227212 264.443077 417.164615 
C 264.443077 429.102019 271.073698 440.552104 282.874622 448.993123 
C 294.675546 457.434142 310.683281 462.176923 327.372308 462.176923 
z
" style="fill:#1f77b4;stroke:#000000;stroke-linejoin:miter;stroke-width:4;"/>
   </g>
   <g id="matplotlib.axis_1">
    <g id="xtick_1">
     <g id="line2d_1">
      <defs>
       <path d="M 0 0 
L 0 3.5 
" id="m978237b0e1" style="stroke:#000000;stroke-width:0.8;"/>
      </defs>
      <g>
       <use style="stroke:#000000;stroke-width:0.8;" x="138.584615" xlink:href="#m978237b0e1" y="619.72"/>
      </g>
     </g>
     <g id="text_1">
      <!-- 0 -->
      <g transform="translate(130.949615 644.95625)scale(0.24 -0.24)">
       <defs>
        <path d="M 2034 4250 
Q 1547 4250 1301 3770 
Q 1056 3291 1056 2328 
Q 1056 1369 1301 889 
Q 1547 409 2034 409 
Q 2525 409 2770 889 
Q 3016 1369 3016 2328 
Q 3016 3291 2770 3770 
Q 2525 4250 2034 4250 
z
M 2034 4750 
Q 2819 4750 3233 4129 
Q 3647 3509 3647 2328 
Q 3647 1150 3233 529 
Q 2819 -91 2034 -91 
Q 1250 -91 836 529 
Q 422 1150 422 2328 
Q 422 3509 836 4129 
Q 1250 4750 2034 4750 
z
" id="DejaVuSans-30" transform="scale(0.015625)"/>
       </defs>
       <use xlink:href="#DejaVuSans-30"/>
      </g>
     </g>
    </g>
    <g id="xtick_2">
     <g id="line2d_2">
      <g>
       <use style="stroke:#000000;stroke-width:0.8;" x="264.443077" xlink:href="#m978237b0e1" y="619.72"/>
      </g>
     </g>
     <g id="text_2">
      <!-- 2 -->
      <g transform="translate(256.808077 644.95625)scale(0.24 -0.24)">
       <defs>
        <path d="M 1228 531 
L 3431 531 
L 3431 0 
L 469 0 
L 469 531 
Q 828 903 1448 1529 
Q 2069 2156 2228 2338 
Q 2531 2678 2651 2914 
Q 2772 3150 2772 3378 
Q 2772 3750 2511 3984 
Q 2250 4219 1831 4219 
Q 1534 4219 1204 4116 
Q 875 4013 500 3803 
L 500 4441 
Q 881 4594 1212 4672 
Q 1544 4750 1819 4750 
Q 2544 4750 2975 4387 
Q 3406 4025 3406 3419 
Q 3406 3131 3298 2873 
Q 3191 2616 2906 2266 
Q 2828 2175 2409 1742 
Q 1991 1309 1228 531 
z
" id="DejaVuSans-32" transform="scale(0.015625)"/>
       </defs>
       <use xlink:href="#DejaVuSans-32"/>
      </g>
     </g>
    </g>
    <g id="xtick_3">
     <g id="line2d_3">
      <g>
       <use style="stroke:#000000;stroke-width:0.8;" x="390.301538" xlink:href="#m978237b0e1" y="619.72"/>
      </g>
     </g>
     <g id="text_3">
      <!-- 4 -->
      <g transform="translate(382.666538 644.95625)scale(0.24 -0.24)">
       <defs>
        <path d="M 2419 4116 
L 825 1625 
L 2419 1625 
L 2419 4116 
z
M 2253 4666 
L 3047 4666 
L 3047 1625 
L 3713 1625 
L 3713 1100 
L 3047 1100 
L 3047 0 
L 2419 0 
L 2419 1100 
L 313 1100 
L 313 1709 
L 2253 4666 
z
" id="DejaVuSans-34" transform="scale(0.015625)"/>
       </defs>
       <use xlink:href="#DejaVuSans-34"/>
      </g>
     </g>
    </g>
    <g id="xtick_4">
     <g id="line2d_4">
      <g>
       <use style="stroke:#000000;stroke-width:0.8;" x="516.16" xlink:href="#m978237b0e1" y="619.72"/>
      </g>
     </g>
     <g id="text_4">
      <!-- 6 -->
      <g transform="translate(508.525 644.95625)scale(0.24 -0.24)">
       <defs>
        <path d="M 2113 2584 
Q 1688 2584 1439 2293 
Q 1191 2003 1191 1497 
Q 1191 994 1439 701 
Q 1688 409 2113 409 
Q 2538 409 2786 701 
Q 3034 994 3034 1497 
Q 3034 2003 2786 2293 
Q 2538 2584 2113 2584 
z
M 3366 4563 
L 3366 3988 
Q 3128 4100 2886 4159 
Q 2644 4219 2406 4219 
Q 1781 4219 1451 3797 
Q 1122 3375 1075 2522 
Q 1259 2794 1537 2939 
Q 1816 3084 2150 3084 
Q 2853 3084 3261 2657 
Q 3669 2231 3669 1497 
Q 3669 778 3244 343 
Q 2819 -91 2113 -91 
Q 1303 -91 875 529 
Q 447 1150 447 2328 
Q 447 3434 972 4092 
Q 1497 4750 2381 4750 
Q 2619 4750 2861 4703 
Q 3103 4656 3366 4563 
z
" id="DejaVuSans-36" transform="scale(0.015625)"/>
       </defs>
       <use xlink:href="#DejaVuSans-36"/>
      </g>
     </g>
    </g>
    <g id="xtick_5">
     <g id="line2d_5">
      <g>
       <use style="stroke:#000000;stroke-width:0.8;" x="642.018462" xlink:href="#m978237b0e1" y="619.72"/>
      </g>
     </g>
     <g id="text_5">
      <!-- 8 -->
      <g transform="translate(634.383462 644.95625)scale(0.24 -0.24)">
       <defs>
        <path d="M 2034 2216 
Q 1584 2216 1326 1975 
Q 1069 1734 1069 1313 
Q 1069 891 1326 650 
Q 1584 409 2034 409 
Q 2484 409 2743 651 
Q 3003 894 3003 1313 
Q 3003 1734 2745 1975 
Q 2488 2216 2034 2216 
z
M 1403 2484 
Q 997 2584 770 2862 
Q 544 3141 544 3541 
Q 544 4100 942 4425 
Q 1341 4750 2034 4750 
Q 2731 4750 3128 4425 
Q 3525 4100 3525 3541 
Q 3525 3141 3298 2862 
Q 3072 2584 2669 2484 
Q 3125 2378 3379 2068 
Q 3634 1759 3634 1313 
Q 3634 634 3220 271 
Q 2806 -91 2034 -91 
Q 1263 -91 848 271 
Q 434 634 434 1313 
Q 434 1759 690 2068 
Q 947 2378 1403 2484 
z
M 1172 3481 
Q 1172 3119 1398 2916 
Q 1625 2713 2034 2713 
Q 2441 2713 2670 2916 
Q 2900 3119 2900 3481 
Q 2900 3844 2670 4047 
Q 2441 4250 2034 4250 
Q 1625 4250 1398 4047 
Q 1172 3844 1172 3481 
z
" id="DejaVuSans-38" transform="scale(0.015625)"/>
       </defs>
       <use xlink:href="#DejaVuSans-38"/>
      </g>
     </g>
    </g>
    <g id="xtick_6">
     <g id="line2d_6">
      <g>
       <use style="stroke:#000000;stroke-width:0.8;" x="767.876923" xlink:href="#m978237b0e1" y="619.72"/>
      </g>
     </g>
     <g id="text_6">
      <!-- 10 -->
      <g transform="translate(752.606923 644.95625)scale(0.24 -0.24)">
       <defs>
        <path d="M 794 531 
L 1825 531 
L 1825 4091 
L 703 3866 
L 703 4441 
L 1819 4666 
L 2450 4666 
L 2450 531 
L 3481 531 
L 3481 0 
L 794 0 
L 794 531 
z
" id="DejaVuSans-31" transform="scale(0.015625)"/>
       </defs>
       <use xlink:href="#DejaVuSans-31"/>
       <use x="63.623047" xlink:href="#DejaVuSans-30"/>
      </g>
     </g>
    </g>
    <g id="xtick_7">
     <g id="line2d_7">
      <g>
       <use style="stroke:#000000;stroke-width:0.8;" x="893.735385" xlink:href="#m978237b0e1" y="619.72"/>
      </g>
     </g>
     <g id="text_7">
      <!-- 12 -->
      <g transform="translate(878.465385 644.95625)scale(0.24 -0.24)">
       <use xlink:href="#DejaVuSans-31"/>
       <use x="63.623047" xlink:href="#DejaVuSans-32"/>
      </g>
     </g>
    </g>
    <g id="text_8">
     <!-- X Position (m) -->
     <g transform="translate(404.675 678.2625)scale(0.32 -0.32)">
      <defs>
       <path d="M 403 4666 
L 1081 4666 
L 2241 2931 
L 3406 4666 
L 4084 4666 
L 2584 2425 
L 4184 0 
L 3506 0 
L 2194 1984 
L 872 0 
L 191 0 
L 1856 2491 
L 403 4666 
z
" id="DejaVuSans-58" transform="scale(0.015625)"/>
       <path id="DejaVuSans-20" transform="scale(0.015625)"/>
       <path d="M 1259 4147 
L 1259 2394 
L 2053 2394 
Q 2494 2394 2734 2622 
Q 2975 2850 2975 3272 
Q 2975 3691 2734 3919 
Q 2494 4147 2053 4147 
L 1259 4147 
z
M 628 4666 
L 2053 4666 
Q 2838 4666 3239 4311 
Q 3641 3956 3641 3272 
Q 3641 2581 3239 2228 
Q 2838 1875 2053 1875 
L 1259 1875 
L 1259 0 
L 628 0 
L 628 4666 
z
" id="DejaVuSans-50" transform="scale(0.015625)"/>
       <path d="M 1959 3097 
Q 1497 3097 1228 2736 
Q 959 2375 959 1747 
Q 959 1119 1226 758 
Q 1494 397 1959 397 
Q 2419 397 2687 759 
Q 2956 1122 2956 1747 
Q 2956 2369 2687 2733 
Q 2419 3097 1959 3097 
z
M 1959 3584 
Q 2709 3584 3137 3096 
Q 3566 2609 3566 1747 
Q 3566 888 3137 398 
Q 2709 -91 1959 -91 
Q 1206 -91 779 398 
Q 353 888 353 1747 
Q 353 2609 779 3096 
Q 1206 3584 1959 3584 
z
" id="DejaVuSans-6f" transform="scale(0.015625)"/>
       <path d="M 2834 3397 
L 2834 2853 
Q 2591 2978 2328 3040 
Q 2066 3103 1784 3103 
Q 1356 3103 1142 2972 
Q 928 2841 928 2578 
Q 928 2378 1081 2264 
Q 1234 2150 1697 2047 
L 1894 2003 
Q 2506 1872 2764 1633 
Q 3022 1394 3022 966 
Q 3022 478 2636 193 
Q 2250 -91 1575 -91 
Q 1294 -91 989 -36 
Q 684 19 347 128 
L 347 722 
Q 666 556 975 473 
Q 1284 391 1588 391 
Q 1994 391 2212 530 
Q 2431 669 2431 922 
Q 2431 1156 2273 1281 
Q 2116 1406 1581 1522 
L 1381 1569 
Q 847 1681 609 1914 
Q 372 2147 372 2553 
Q 372 3047 722 3315 
Q 1072 3584 1716 3584 
Q 2034 3584 2315 3537 
Q 2597 3491 2834 3397 
z
" id="DejaVuSans-73" transform="scale(0.015625)"/>
       <path d="M 603 3500 
L 1178 3500 
L 1178 0 
L 603 0 
L 603 3500 
z
M 603 4863 
L 1178 4863 
L 1178 4134 
L 603 4134 
L 603 4863 
z
" id="DejaVuSans-69" transform="scale(0.015625)"/>
       <path d="M 1172 4494 
L 1172 3500 
L 2356 3500 
L 2356 3053 
L 1172 3053 
L 1172 1153 
Q 1172 725 1289 603 
Q 1406 481 1766 481 
L 2356 481 
L 2356 0 
L 1766 0 
Q 1100 0 847 248 
Q 594 497 594 1153 
L 594 3053 
L 172 3053 
L 172 3500 
L 594 3500 
L 594 4494 
L 1172 4494 
z
" id="DejaVuSans-74" transform="scale(0.015625)"/>
       <path d="M 3513 2113 
L 3513 0 
L 2938 0 
L 2938 2094 
Q 2938 2591 2744 2837 
Q 2550 3084 2163 3084 
Q 1697 3084 1428 2787 
Q 1159 2491 1159 1978 
L 1159 0 
L 581 0 
L 581 3500 
L 1159 3500 
L 1159 2956 
Q 1366 3272 1645 3428 
Q 1925 3584 2291 3584 
Q 2894 3584 3203 3211 
Q 3513 2838 3513 2113 
z
" id="DejaVuSans-6e" transform="scale(0.015625)"/>
       <path d="M 1984 4856 
Q 1566 4138 1362 3434 
Q 1159 2731 1159 2009 
Q 1159 1288 1364 580 
Q 1569 -128 1984 -844 
L 1484 -844 
Q 1016 -109 783 600 
Q 550 1309 550 2009 
Q 550 2706 781 3412 
Q 1013 4119 1484 4856 
L 1984 4856 
z
" id="DejaVuSans-28" transform="scale(0.015625)"/>
       <path d="M 3328 2828 
Q 3544 3216 3844 3400 
Q 4144 3584 4550 3584 
Q 5097 3584 5394 3201 
Q 5691 2819 5691 2113 
L 5691 0 
L 5113 0 
L 5113 2094 
Q 5113 2597 4934 2840 
Q 4756 3084 4391 3084 
Q 3944 3084 3684 2787 
Q 3425 2491 3425 1978 
L 3425 0 
L 2847 0 
L 2847 2094 
Q 2847 2600 2669 2842 
Q 2491 3084 2119 3084 
Q 1678 3084 1418 2786 
Q 1159 2488 1159 1978 
L 1159 0 
L 581 0 
L 581 3500 
L 1159 3500 
L 1159 2956 
Q 1356 3278 1631 3431 
Q 1906 3584 2284 3584 
Q 2666 3584 2933 3390 
Q 3200 3197 3328 2828 
z
" id="DejaVuSans-6d" transform="scale(0.015625)"/>
       <path d="M 513 4856 
L 1013 4856 
Q 1481 4119 1714 3412 
Q 1947 2706 1947 2009 
Q 1947 1309 1714 600 
Q 1481 -109 1013 -844 
L 513 -844 
Q 928 -128 1133 580 
Q 1338 1288 1338 2009 
Q 1338 2731 1133 3434 
Q 928 4138 513 4856 
z
" id="DejaVuSans-29" transform="scale(0.015625)"/>
      </defs>
      <use xlink:href="#DejaVuSans-58"/>
      <use x="68.505859" xlink:href="#DejaVuSans-20"/>
      <use x="100.292969" xlink:href="#DejaVuSans-50"/>
      <use x="156.970703" xlink:href="#DejaVuSans-6f"/>
      <use x="218.152344" xlink:href="#DejaVuSans-73"/>
      <use x="270.251953" xlink:href="#DejaVuSans-69"/>
      <use x="298.035156" xlink:href="#DejaVuSans-74"/>
      <use x="337.244141" xlink:href="#DejaVuSans-69"/>
      <use x="365.027344" xlink:href="#DejaVuSans-6f"/>
      <use x="426.208984" xlink:href="#DejaVuSans-6e"/>
      <use x="489.587891" xlink:href="#DejaVuSans-20"/>
      <use x="521.375" xlink:href="#DejaVuSans-28"/>
      <use x="560.388672" xlink:href="#DejaVuSans-6d"/>
      <use x="657.800781" xlink:href="#DejaVuSans-29"/>
     </g>
    </g>
   </g>
   <g id="matplotlib.axis_2">
    <g id="ytick_1">
     <g id="line2d_8">
      <defs>
       <path d="M 0 0 
L -3.5 0 
" id="m55a7ac1804" style="stroke:#000000;stroke-width:0.8;"/>
      </defs>
      <g>
       <use style="stroke:#000000;stroke-width:0.8;" x="107.12" xlink:href="#m55a7ac1804" y="597.213846"/>
      </g>
     </g>
     <g id="text_9">
      <!-- 0 -->
      <g transform="translate(84.85 606.331971)scale(0.24 -0.24)">
       <use xlink:href="#DejaVuSans-30"/>
      </g>
     </g>
    </g>
    <g id="ytick_2">
     <g id="line2d_9">
      <g>
       <use style="stroke:#000000;stroke-width:0.8;" x="107.12" xlink:href="#m55a7ac1804" y="507.189231"/>
      </g>
     </g>
     <g id="text_10">
      <!-- 2 -->
      <g transform="translate(84.85 516.307356)scale(0.24 -0.24)">
       <use xlink:href="#DejaVuSans-32"/>
      </g>
     </g>
    </g>
    <g id="ytick_3">
     <g id="line2d_10">
      <g>
       <use style="stroke:#000000;stroke-width:0.8;" x="107.12" xlink:href="#m55a7ac1804" y="417.164615"/>
      </g>
     </g>
     <g id="text_11">
      <!-- 4 -->
      <g transform="translate(84.85 426.28274)scale(0.24 -0.24)">
       <use xlink:href="#DejaVuSans-34"/>
      </g>
     </g>
    </g>
    <g id="ytick_4">
     <g id="line2d_11">
      <g>
       <use style="stroke:#000000;stroke-width:0.8;" x="107.12" xlink:href="#m55a7ac1804" y="327.14"/>
      </g>
     </g>
     <g id="text_12">
      <!-- 6 -->
      <g transform="translate(84.85 336.258125)scale(0.24 -0.24)">
       <use xlink:href="#DejaVuSans-36"/>
      </g>
     </g>
    </g>
    <g id="ytick_5">
     <g id="line2d_12">
      <g>
       <use style="stroke:#000000;stroke-width:0.8;" x="107.12" xlink:href="#m55a7ac1804" y="237.115385"/>
      </g>
     </g>
     <g id="text_13">
      <!-- 8 -->
      <g transform="translate(84.85 246.23351)scale(0.24 -0.24)">
       <use xlink:href="#DejaVuSans-38"/>
      </g>
     </g>
    </g>
    <g id="ytick_6">
     <g id="line2d_13">
      <g>
       <use style="stroke:#000000;stroke-width:0.8;" x="107.12" xlink:href="#m55a7ac1804" y="147.090769"/>
      </g>
     </g>
     <g id="text_14">
      <!-- 10 -->
      <g transform="translate(69.58 156.208894)scale(0.24 -0.24)">
       <use xlink:href="#DejaVuSans-31"/>
       <use x="63.623047" xlink:href="#DejaVuSans-30"/>
      </g>
     </g>
    </g>
    <g id="ytick_7">
     <g id="line2d_14">
      <g>
       <use style="stroke:#000000;stroke-width:0.8;" x="107.12" xlink:href="#m55a7ac1804" y="57.066154"/>
      </g>
     </g>
     <g id="text_15">
      <!-- 12 -->
      <g transform="translate(69.58 66.184279)scale(0.24 -0.24)">
       <use xlink:href="#DejaVuSans-31"/>
       <use x="63.623047" xlink:href="#DejaVuSans-32"/>
      </g>
     </g>
    </g>
    <g id="text_16">
     <!-- Y Position (m) -->
     <g transform="translate(58.925 437.4375)rotate(-90)scale(0.32 -0.32)">
      <defs>
       <path d="M -13 4666 
L 666 4666 
L 1959 2747 
L 3244 4666 
L 3922 4666 
L 2272 2222 
L 2272 0 
L 1638 0 
L 1638 2222 
L -13 4666 
z
" id="DejaVuSans-59" transform="scale(0.015625)"/>
      </defs>
      <use xlink:href="#DejaVuSans-59"/>
      <use x="61.083984" xlink:href="#DejaVuSans-20"/>
      <use x="92.871094" xlink:href="#DejaVuSans-50"/>
      <use x="149.548828" xlink:href="#DejaVuSans-6f"/>
      <use x="210.730469" xlink:href="#DejaVuSans-73"/>
      <use x="262.830078" xlink:href="#DejaVuSans-69"/>
      <use x="290.613281" xlink:href="#DejaVuSans-74"/>
      <use x="329.822266" xlink:href="#DejaVuSans-69"/>
      <use x="357.605469" xlink:href="#DejaVuSans-6f"/>
      <use x="418.787109" xlink:href="#DejaVuSans-6e"/>
      <use x="482.166016" xlink:href="#DejaVuSans-20"/>
      <use x="513.953125" xlink:href="#DejaVuSans-28"/>
      <use x="552.966797" xlink:href="#DejaVuSans-6d"/>
      <use x="650.378906" xlink:href="#DejaVuSans-29"/>
     </g>
    </g>
   </g>
   <g id="line2d_15">
    <path clip-path="url(#p61a74b7837)" d="M 138.584615 372.152308 
L 144.248246 382.02746 
L 149.911877 391.407617 
L 154.946215 399.342096 
L 159.980554 406.907481 
L 165.014892 414.113643 
L 170.049231 420.970153 
L 175.083569 427.486288 
L 180.117908 433.671042 
L 185.152246 439.533127 
L 190.186585 445.080989 
L 195.220923 450.322808 
L 200.255262 455.26651 
L 205.2896 459.91977 
L 210.323938 464.290026 
L 215.358277 468.384479 
L 220.392615 472.210107 
L 225.426954 475.773668 
L 230.461292 479.081709 
L 235.495631 482.140574 
L 240.529969 484.95641 
L 245.564308 487.535176 
L 250.598646 489.882649 
L 255.632985 492.004432 
L 260.667323 493.905962 
L 265.701662 495.592518 
L 270.736 497.069225 
L 276.399631 498.485884 
L 282.063262 499.650142 
L 287.726892 500.568683 
L 293.390523 501.247994 
L 299.054154 501.694388 
L 304.717785 501.914009 
L 310.381415 501.912852 
L 316.045046 501.69677 
L 321.708677 501.271494 
L 327.372308 500.642641 
L 333.665231 499.711862 
L 339.958154 498.544015 
L 346.251077 497.14644 
L 352.544 495.526397 
L 358.836923 493.691081 
L 365.759138 491.432134 
L 372.681354 488.930872 
L 379.603569 486.196813 
L 387.155077 482.959943 
L 394.706585 479.469953 
L 402.258092 475.73956 
L 410.438892 471.442043 
L 418.619692 466.894449 
L 427.429785 461.737273 
L 436.869169 455.937679 
L 446.937846 449.470637 
L 457.635815 442.321863 
L 469.592369 434.049604 
L 483.4368 424.186566 
L 502.944862 409.986012 
L 529.375138 390.77569 
L 541.960985 381.903146 
L 552.658954 374.627648 
L 562.098338 368.480921 
L 570.279138 363.40941 
L 577.830646 358.976469 
L 584.752862 355.152559 
L 591.675077 351.586277 
L 597.968 348.591963 
L 604.260923 345.85683 
L 609.924554 343.636078 
L 615.588185 341.661766 
L 620.622523 340.128407 
L 625.656862 338.817308 
L 630.6912 337.742024 
L 635.725538 336.916499 
L 640.130585 336.410304 
L 644.535631 336.116158 
L 648.940677 336.044156 
L 653.345723 336.204638 
L 657.750769 336.608192 
L 662.155815 337.265656 
L 665.931569 338.039689 
L 669.707323 339.01555 
L 673.483077 340.200518 
L 677.258831 341.602013 
L 681.034585 343.227602 
L 684.810338 345.084998 
L 688.586092 347.182061 
L 692.361846 349.526804 
L 696.1376 352.127389 
L 699.913354 354.992134 
L 703.689108 358.129512 
L 707.464862 361.548152 
L 711.240615 365.256843 
L 715.016369 369.264535 
L 718.792123 373.58034 
L 722.567877 378.213535 
L 726.343631 383.173562 
L 730.119385 388.470032 
L 733.895138 394.112725 
L 737.670892 400.111592 
L 741.446646 406.476758 
L 745.851692 414.379496 
L 750.256738 422.811493 
L 754.661785 431.789739 
L 759.066831 441.33156 
L 763.471877 451.454619 
L 767.876923 462.176923 
L 767.876923 462.176923 
" style="fill:none;stroke:#1f77b4;stroke-linecap:square;stroke-width:4;"/>
   </g>
   <g id="line2d_16">
    <path clip-path="url(#p61a74b7837)" d="M 138.584615 372.152308 
L 264.443077 597.213846 
L 390.301538 507.189231 
L 516.16 462.176923 
L 642.018462 147.090769 
L 767.876923 462.176923 
" style="fill:none;stroke:#1f77b4;stroke-dasharray:14.8,6.4;stroke-dashoffset:0;stroke-width:4;"/>
    <defs>
     <path d="M 0 4.5 
C 1.193414 4.5 2.338109 4.025852 3.181981 3.181981 
C 4.025852 2.338109 4.5 1.193414 4.5 0 
C 4.5 -1.193414 4.025852 -2.338109 3.181981 -3.181981 
C 2.338109 -4.025852 1.193414 -4.5 0 -4.5 
C -1.193414 -4.5 -2.338109 -4.025852 -3.181981 -3.181981 
C -4.025852 -2.338109 -4.5 -1.193414 -4.5 0 
C -4.5 1.193414 -4.025852 2.338109 -3.181981 3.181981 
C -2.338109 4.025852 -1.193414 4.5 0 4.5 
z
" id="m59613b51f5" style="stroke:#1f77b4;"/>
    </defs>
    <g clip-path="url(#p61a74b7837)">
     <use style="fill:#1f77b4;stroke:#1f77b4;" x="138.584615" xlink:href="#m59613b51f5" y="372.152308"/>
     <use style="fill:#1f77b4;stroke:#1f77b4;" x="264.443077" xlink:href="#m59613b51f5" y="597.213846"/>
     <use style="fill:#1f77b4;stroke:#1f77b4;" x="390.301538" xlink:href="#m59613b51f5" y="507.189231"/>
     <use style="fill:#1f77b4;stroke:#1f77b4;" x="516.16" xlink:href="#m59613b51f5" y="462.176923"/>
     <use style="fill:#1f77b4;stroke:#1f77b4;" x="642.018462" xlink:href="#m59613b51f5" y="147.090769"/>
     <use style="fill:#1f77b4;stroke:#1f77b4;" x="767.876923" xlink:href="#m59613b51f5" y="462.176923"/>
    </g>
   </g>
   <g id="line2d_17">
    <path clip-path="url(#p61a74b7837)" d="M 201.513846 327.14 
L 207.868449 320.477292 
L 214.341491 313.989418 
L 221.590028 307.048819 
L 228.963853 300.307685 
L 236.453989 293.760316 
L 244.051771 287.401433 
L 252.453219 280.673716 
L 260.962398 274.15871 
L 269.569292 267.851139 
L 278.264301 261.746227 
L 287.772676 255.356304 
L 297.36252 249.194345 
L 307.023213 243.256099 
L 316.744662 237.537876 
L 326.51729 232.036519 
L 337.088502 226.351464 
L 347.697871 220.912109 
L 358.335356 215.716294 
L 368.99155 210.762384 
L 379.657662 206.049213 
L 390.325501 201.57604 
L 400.98746 197.342498 
L 411.636499 193.348543 
L 422.266128 189.594406 
L 432.870395 186.080546 
L 443.443863 182.807596 
L 453.981601 179.776315 
L 464.479161 176.987541 
L 474.932567 174.44214 
L 485.338297 172.140956 
L 495.693264 170.084763 
L 505.994805 168.274213 
L 516.240661 166.709791 
L 526.428961 165.391761 
L 536.558207 164.32012 
L 546.627257 163.494547 
L 555.922485 162.94768 
L 565.164723 162.611522 
L 574.353809 162.48486 
L 583.489801 162.566101 
L 593.269489 162.883788 
L 602.988491 163.437177 
L 612.647635 164.222536 
L 622.247981 165.235432 
L 631.790806 166.470684 
L 641.277583 167.922317 
L 650.709967 169.583506 
L 660.757805 171.587104 
L 670.747727 173.811685 
L 680.682336 176.24523 
L 691.221395 179.056208 
L 702.357549 182.266376 
L 714.084368 185.889956 
L 726.39661 189.930711 
L 740.576415 194.832097 
L 757.880857 201.070644 
L 804.262479 217.945965 
L 816.267499 222.003876 
L 826.994045 225.393054 
L 836.449779 228.142381 
L 844.639665 230.305558 
L 852.82606 232.232075 
L 860.380515 233.772074 
L 867.304162 234.959171 
L 874.22704 235.909283 
L 880.520186 236.548574 
L 886.813165 236.956148 
L 892.4768 237.110008 
L 893.735385 237.115385 
L 893.735385 237.115385 
" style="fill:none;stroke:#ff7f0e;stroke-linecap:square;stroke-width:4;"/>
   </g>
   <g id="line2d_18">
    <path clip-path="url(#p61a74b7837)" d="M 201.513846 327.14 
L 327.372308 192.103077 
L 516.16 147.090769 
L 642.018462 102.078462 
L 767.876923 237.115385 
L 893.735385 237.115385 
" style="fill:none;stroke:#ff7f0e;stroke-dasharray:14.8,6.4;stroke-dashoffset:0;stroke-width:4;"/>
    <defs>
     <path d="M 0 4.5 
C 1.193414 4.5 2.338109 4.025852 3.181981 3.181981 
C 4.025852 2.338109 4.5 1.193414 4.5 0 
C 4.5 -1.193414 4.025852 -2.338109 3.181981 -3.181981 
C 2.338109 -4.025852 1.193414 -4.5 0 -4.5 
C -1.193414 -4.5 -2.338109 -4.025852 -3.181981 -3.181981 
C -4.025852 -2.338109 -4.5 -1.193414 -4.5 0 
C -4.5 1.193414 -4.025852 2.338109 -3.181981 3.181981 
C -2.338109 4.025852 -1.193414 4.5 0 4.5 
z
" id="m6e264dbe05" style="stroke:#ff7f0e;"/>
    </defs>
    <g clip-path="url(#p61a74b7837)">
     <use style="fill:#ff7f0e;stroke:#ff7f0e;" x="201.513846" xlink:href="#m6e264dbe05" y="327.14"/>
     <use style="fill:#ff7f0e;stroke:#ff7f0e;" x="327.372308" xlink:href="#m6e264dbe05" y="192.103077"/>
     <use style="fill:#ff7f0e;stroke:#ff7f0e;" x="516.16" xlink:href="#m6e264dbe05" y="147.090769"/>
     <use style="fill:#ff7f0e;stroke:#ff7f0e;" x="642.018462" xlink:href="#m6e264dbe05" y="102.078462"/>
     <use style="fill:#ff7f0e;stroke:#ff7f0e;" x="767.876923" xlink:href="#m6e264dbe05" y="237.115385"/>
     <use style="fill:#ff7f0e;stroke:#ff7f0e;" x="893.735385" xlink:href="#m6e264dbe05" y="237.115385"/>
    </g>
   </g>
   <g id="patch_4">
    <path d="M 107.12 619.72 
L 107.12 34.56 
" style="fill:none;stroke:#000000;stroke-linecap:square;stroke-linejoin:miter;stroke-width:0.8;"/>
   </g>
   <g id="patch_5">
    <path d="M 925.2 619.72 
L 925.2 34.56 
" style="fill:none;stroke:#000000;stroke-linecap:square;stroke-linejoin:miter;stroke-width:0.8;"/>
   </g>
   <g id="patch_6">
    <path d="M 107.12 619.72 
L 925.2 619.72 
" style="fill:none;stroke:#000000;stroke-linecap:square;stroke-linejoin:miter;stroke-width:0.8;"/>
   </g>
   <g id="patch_7">
    <path d="M 107.12 34.56 
L 925.2 34.56 
" style="fill:none;stroke:#000000;stroke-linecap:square;stroke-linejoin:miter;stroke-width:0.8;"/>
   </g>
   <g id="legend_1">
    <g id="patch_8">
     <path d="M 761.04 128.64 
L 908.4 128.64 
Q 913.2 128.64 913.2 123.84 
L 913.2 51.36 
Q 913.2 46.56 908.4 46.56 
L 761.04 46.56 
Q 756.24 46.56 756.24 51.36 
L 756.24 123.84 
Q 756.24 128.64 761.04 128.64 
z
" style="fill:#ffffff;opacity:0.8;stroke:#cccccc;stroke-linejoin:miter;"/>
    </g>
    <g id="line2d_19">
     <path d="M 765.84 68.20875 
L 813.84 68.20875 
" style="fill:none;stroke:#1f77b4;stroke-linecap:square;stroke-width:4;"/>
    </g>
    <g id="line2d_20"/>
    <g id="text_17">
     <!-- $\mathbf{C}^{[1]}(t)$ -->
     <g transform="translate(833.04 76.60875)scale(0.24 -0.24)">
      <defs>
       <path d="M 4288 256 
Q 3956 84 3597 -3 
Q 3238 -91 2847 -91 
Q 1681 -91 1000 561 
Q 319 1213 319 2328 
Q 319 3447 1000 4098 
Q 1681 4750 2847 4750 
Q 3238 4750 3597 4662 
Q 3956 4575 4288 4403 
L 4288 3438 
Q 3953 3666 3628 3772 
Q 3303 3878 2944 3878 
Q 2300 3878 1931 3465 
Q 1563 3053 1563 2328 
Q 1563 1606 1931 1193 
Q 2300 781 2944 781 
Q 3303 781 3628 887 
Q 3953 994 4288 1222 
L 4288 256 
z
" id="DejaVuSans-Bold-43" transform="scale(0.015625)"/>
       <path d="M 550 4863 
L 1875 4863 
L 1875 4416 
L 1125 4416 
L 1125 -397 
L 1875 -397 
L 1875 -844 
L 550 -844 
L 550 4863 
z
" id="DejaVuSans-5b" transform="scale(0.015625)"/>
       <path d="M 1947 4863 
L 1947 -844 
L 622 -844 
L 622 -397 
L 1369 -397 
L 1369 4416 
L 622 4416 
L 622 4863 
L 1947 4863 
z
" id="DejaVuSans-5d" transform="scale(0.015625)"/>
       <path d="M 2706 3500 
L 2619 3053 
L 1472 3053 
L 1100 1153 
Q 1081 1047 1072 975 
Q 1063 903 1063 863 
Q 1063 663 1183 572 
Q 1303 481 1569 481 
L 2150 481 
L 2053 0 
L 1503 0 
Q 991 0 739 200 
Q 488 400 488 806 
Q 488 878 497 964 
Q 506 1050 525 1153 
L 897 3053 
L 409 3053 
L 500 3500 
L 978 3500 
L 1172 4494 
L 1747 4494 
L 1556 3500 
L 2706 3500 
z
" id="DejaVuSans-Oblique-74" transform="scale(0.015625)"/>
      </defs>
      <use transform="translate(0 0.529687)" xlink:href="#DejaVuSans-Bold-43"/>
      <use transform="translate(74.345703 38.810937)scale(0.7)" xlink:href="#DejaVuSans-5b"/>
      <use transform="translate(101.655273 38.810937)scale(0.7)" xlink:href="#DejaVuSans-31"/>
      <use transform="translate(146.191406 38.810937)scale(0.7)" xlink:href="#DejaVuSans-5d"/>
      <use transform="translate(176.235352 0.529687)" xlink:href="#DejaVuSans-28"/>
      <use transform="translate(215.249023 0.529687)" xlink:href="#DejaVuSans-Oblique-74"/>
      <use transform="translate(254.458008 0.529687)" xlink:href="#DejaVuSans-29"/>
     </g>
    </g>
    <g id="line2d_21">
     <path d="M 765.84 105.64875 
L 813.84 105.64875 
" style="fill:none;stroke:#ff7f0e;stroke-linecap:square;stroke-width:4;"/>
    </g>
    <g id="line2d_22"/>
    <g id="text_18">
     <!-- $\mathbf{C}^{[2]}(t)$ -->
     <g transform="translate(833.04 114.04875)scale(0.24 -0.24)">
      <use transform="translate(0 0.529687)" xlink:href="#DejaVuSans-Bold-43"/>
      <use transform="translate(74.345703 38.810937)scale(0.7)" xlink:href="#DejaVuSans-5b"/>
      <use transform="translate(101.655273 38.810937)scale(0.7)" xlink:href="#DejaVuSans-32"/>
      <use transform="translate(146.191406 38.810937)scale(0.7)" xlink:href="#DejaVuSans-5d"/>
      <use transform="translate(176.235352 0.529687)" xlink:href="#DejaVuSans-28"/>
      <use transform="translate(215.249023 0.529687)" xlink:href="#DejaVuSans-Oblique-74"/>
      <use transform="translate(254.458008 0.529687)" xlink:href="#DejaVuSans-29"/>
     </g>
    </g>
   </g>
  </g>
 </g>
 <defs>
  <clipPath id="p61a74b7837">
   <rect height="585.16" width="818.08" x="107.12" y="34.56"/>
  </clipPath>
 </defs>
</svg>
