<?xml version="1.0" encoding="utf-8" standalone="no"?>
<!DOCTYPE svg PUBLIC "-//W3C//DTD SVG 1.1//EN"
  "http://www.w3.org/Graphics/SVG/1.1/DTD/svg11.dtd">
<svg height="720pt" version="1.1" viewBox="0 0 959.76 720" width="959.76pt" xmlns="http://www.w3.org/2000/svg" xmlns:xlink="http://www.w3.org/1999/xlink">
 <metadata>
  <rdf:RDF xmlns:cc="http://creativecommons.org/ns#" xmlns:dc="http://purl.org/dc/elements/1.1/" xmlns:rdf="http://www.w3.org/1999/02/22-rdf-syntax-ns#">
   <cc:Work>
    <dc:type rdf:resource="http://purl.org/dc/dcmitype/StillImage"/>
    <dc:date>2021-10-18T11:12:48.248237</dc:date>
    <dc:format>image/svg+xml</dc:format>
    <dc:creator>
     <cc:Agent>
      <dc:title>Matplotlib v3.4.2, https://matplotlib.org/</dc:title>
     </cc:Agent>
    </dc:creator>
   </cc:Work>
  </rdf:RDF>
 </metadata>
 <defs>
  <style type="text/css">*{stroke-linecap:butt;stroke-linejoin:round;}</style>
 </defs>
 <g id="figure_1">
  <g id="patch_1">
   <path d="M 0 720 
L 959.76 720 
L 959.76 0 
L 0 0 
z
" style="fill:#ffffff;"/>
  </g>
  <g id="axes_1">
   <g id="patch_2">
    <path d="M 144.08225 619.72 
L 925.2 619.72 
L 925.2 34.56 
L 144.08225 34.56 
z
" style="fill:#ffffff;"/>
   </g>
   <g id="matplotlib.axis_1">
    <g id="xtick_1">
     <g id="line2d_1">
      <defs>
       <path d="M 0 0 
L 0 3.5 
" id="m24bed26009" style="stroke:#000000;stroke-width:0.8;"/>
      </defs>
      <g>
       <use style="stroke:#000000;stroke-width:0.8;" x="179.587602" xlink:href="#m24bed26009" y="619.72"/>
      </g>
     </g>
     <g id="text_1">
      <!-- 10 -->
      <g transform="translate(164.317602 644.95625)scale(0.24 -0.24)">
       <defs>
        <path d="M 794 531 
L 1825 531 
L 1825 4091 
L 703 3866 
L 703 4441 
L 1819 4666 
L 2450 4666 
L 2450 531 
L 3481 531 
L 3481 0 
L 794 0 
L 794 531 
z
" id="DejaVuSans-31" transform="scale(0.015625)"/>
        <path d="M 2034 4250 
Q 1547 4250 1301 3770 
Q 1056 3291 1056 2328 
Q 1056 1369 1301 889 
Q 1547 409 2034 409 
Q 2525 409 2770 889 
Q 3016 1369 3016 2328 
Q 3016 3291 2770 3770 
Q 2525 4250 2034 4250 
z
M 2034 4750 
Q 2819 4750 3233 4129 
Q 3647 3509 3647 2328 
Q 3647 1150 3233 529 
Q 2819 -91 2034 -91 
Q 1250 -91 836 529 
Q 422 1150 422 2328 
Q 422 3509 836 4129 
Q 1250 4750 2034 4750 
z
" id="DejaVuSans-30" transform="scale(0.015625)"/>
       </defs>
       <use xlink:href="#DejaVuSans-31"/>
       <use x="63.623047" xlink:href="#DejaVuSans-30"/>
      </g>
     </g>
    </g>
    <g id="xtick_2">
     <g id="line2d_2">
      <g>
       <use style="stroke:#000000;stroke-width:0.8;" x="321.609011" xlink:href="#m24bed26009" y="619.72"/>
      </g>
     </g>
     <g id="text_2">
      <!-- 12 -->
      <g transform="translate(306.339011 644.95625)scale(0.24 -0.24)">
       <defs>
        <path d="M 1228 531 
L 3431 531 
L 3431 0 
L 469 0 
L 469 531 
Q 828 903 1448 1529 
Q 2069 2156 2228 2338 
Q 2531 2678 2651 2914 
Q 2772 3150 2772 3378 
Q 2772 3750 2511 3984 
Q 2250 4219 1831 4219 
Q 1534 4219 1204 4116 
Q 875 4013 500 3803 
L 500 4441 
Q 881 4594 1212 4672 
Q 1544 4750 1819 4750 
Q 2544 4750 2975 4387 
Q 3406 4025 3406 3419 
Q 3406 3131 3298 2873 
Q 3191 2616 2906 2266 
Q 2828 2175 2409 1742 
Q 1991 1309 1228 531 
z
" id="DejaVuSans-32" transform="scale(0.015625)"/>
       </defs>
       <use xlink:href="#DejaVuSans-31"/>
       <use x="63.623047" xlink:href="#DejaVuSans-32"/>
      </g>
     </g>
    </g>
    <g id="xtick_3">
     <g id="line2d_3">
      <g>
       <use style="stroke:#000000;stroke-width:0.8;" x="463.63042" xlink:href="#m24bed26009" y="619.72"/>
      </g>
     </g>
     <g id="text_3">
      <!-- 14 -->
      <g transform="translate(448.36042 644.95625)scale(0.24 -0.24)">
       <defs>
        <path d="M 2419 4116 
L 825 1625 
L 2419 1625 
L 2419 4116 
z
M 2253 4666 
L 3047 4666 
L 3047 1625 
L 3713 1625 
L 3713 1100 
L 3047 1100 
L 3047 0 
L 2419 0 
L 2419 1100 
L 313 1100 
L 313 1709 
L 2253 4666 
z
" id="DejaVuSans-34" transform="scale(0.015625)"/>
       </defs>
       <use xlink:href="#DejaVuSans-31"/>
       <use x="63.623047" xlink:href="#DejaVuSans-34"/>
      </g>
     </g>
    </g>
    <g id="xtick_4">
     <g id="line2d_4">
      <g>
       <use style="stroke:#000000;stroke-width:0.8;" x="605.65183" xlink:href="#m24bed26009" y="619.72"/>
      </g>
     </g>
     <g id="text_4">
      <!-- 16 -->
      <g transform="translate(590.38183 644.95625)scale(0.24 -0.24)">
       <defs>
        <path d="M 2113 2584 
Q 1688 2584 1439 2293 
Q 1191 2003 1191 1497 
Q 1191 994 1439 701 
Q 1688 409 2113 409 
Q 2538 409 2786 701 
Q 3034 994 3034 1497 
Q 3034 2003 2786 2293 
Q 2538 2584 2113 2584 
z
M 3366 4563 
L 3366 3988 
Q 3128 4100 2886 4159 
Q 2644 4219 2406 4219 
Q 1781 4219 1451 3797 
Q 1122 3375 1075 2522 
Q 1259 2794 1537 2939 
Q 1816 3084 2150 3084 
Q 2853 3084 3261 2657 
Q 3669 2231 3669 1497 
Q 3669 778 3244 343 
Q 2819 -91 2113 -91 
Q 1303 -91 875 529 
Q 447 1150 447 2328 
Q 447 3434 972 4092 
Q 1497 4750 2381 4750 
Q 2619 4750 2861 4703 
Q 3103 4656 3366 4563 
z
" id="DejaVuSans-36" transform="scale(0.015625)"/>
       </defs>
       <use xlink:href="#DejaVuSans-31"/>
       <use x="63.623047" xlink:href="#DejaVuSans-36"/>
      </g>
     </g>
    </g>
    <g id="xtick_5">
     <g id="line2d_5">
      <g>
       <use style="stroke:#000000;stroke-width:0.8;" x="747.673239" xlink:href="#m24bed26009" y="619.72"/>
      </g>
     </g>
     <g id="text_5">
      <!-- 18 -->
      <g transform="translate(732.403239 644.95625)scale(0.24 -0.24)">
       <defs>
        <path d="M 2034 2216 
Q 1584 2216 1326 1975 
Q 1069 1734 1069 1313 
Q 1069 891 1326 650 
Q 1584 409 2034 409 
Q 2484 409 2743 651 
Q 3003 894 3003 1313 
Q 3003 1734 2745 1975 
Q 2488 2216 2034 2216 
z
M 1403 2484 
Q 997 2584 770 2862 
Q 544 3141 544 3541 
Q 544 4100 942 4425 
Q 1341 4750 2034 4750 
Q 2731 4750 3128 4425 
Q 3525 4100 3525 3541 
Q 3525 3141 3298 2862 
Q 3072 2584 2669 2484 
Q 3125 2378 3379 2068 
Q 3634 1759 3634 1313 
Q 3634 634 3220 271 
Q 2806 -91 2034 -91 
Q 1263 -91 848 271 
Q 434 634 434 1313 
Q 434 1759 690 2068 
Q 947 2378 1403 2484 
z
M 1172 3481 
Q 1172 3119 1398 2916 
Q 1625 2713 2034 2713 
Q 2441 2713 2670 2916 
Q 2900 3119 2900 3481 
Q 2900 3844 2670 4047 
Q 2441 4250 2034 4250 
Q 1625 4250 1398 4047 
Q 1172 3844 1172 3481 
z
" id="DejaVuSans-38" transform="scale(0.015625)"/>
       </defs>
       <use xlink:href="#DejaVuSans-31"/>
       <use x="63.623047" xlink:href="#DejaVuSans-38"/>
      </g>
     </g>
    </g>
    <g id="xtick_6">
     <g id="line2d_6">
      <g>
       <use style="stroke:#000000;stroke-width:0.8;" x="889.694648" xlink:href="#m24bed26009" y="619.72"/>
      </g>
     </g>
     <g id="text_6">
      <!-- 20 -->
      <g transform="translate(874.424648 644.95625)scale(0.24 -0.24)">
       <use xlink:href="#DejaVuSans-32"/>
       <use x="63.623047" xlink:href="#DejaVuSans-30"/>
      </g>
     </g>
    </g>
    <g id="text_7">
     <!-- Time (s) -->
     <g transform="translate(469.588625 678.2625)scale(0.32 -0.32)">
      <defs>
       <path d="M -19 4666 
L 3928 4666 
L 3928 4134 
L 2272 4134 
L 2272 0 
L 1638 0 
L 1638 4134 
L -19 4134 
L -19 4666 
z
" id="DejaVuSans-54" transform="scale(0.015625)"/>
       <path d="M 603 3500 
L 1178 3500 
L 1178 0 
L 603 0 
L 603 3500 
z
M 603 4863 
L 1178 4863 
L 1178 4134 
L 603 4134 
L 603 4863 
z
" id="DejaVuSans-69" transform="scale(0.015625)"/>
       <path d="M 3328 2828 
Q 3544 3216 3844 3400 
Q 4144 3584 4550 3584 
Q 5097 3584 5394 3201 
Q 5691 2819 5691 2113 
L 5691 0 
L 5113 0 
L 5113 2094 
Q 5113 2597 4934 2840 
Q 4756 3084 4391 3084 
Q 3944 3084 3684 2787 
Q 3425 2491 3425 1978 
L 3425 0 
L 2847 0 
L 2847 2094 
Q 2847 2600 2669 2842 
Q 2491 3084 2119 3084 
Q 1678 3084 1418 2786 
Q 1159 2488 1159 1978 
L 1159 0 
L 581 0 
L 581 3500 
L 1159 3500 
L 1159 2956 
Q 1356 3278 1631 3431 
Q 1906 3584 2284 3584 
Q 2666 3584 2933 3390 
Q 3200 3197 3328 2828 
z
" id="DejaVuSans-6d" transform="scale(0.015625)"/>
       <path d="M 3597 1894 
L 3597 1613 
L 953 1613 
Q 991 1019 1311 708 
Q 1631 397 2203 397 
Q 2534 397 2845 478 
Q 3156 559 3463 722 
L 3463 178 
Q 3153 47 2828 -22 
Q 2503 -91 2169 -91 
Q 1331 -91 842 396 
Q 353 884 353 1716 
Q 353 2575 817 3079 
Q 1281 3584 2069 3584 
Q 2775 3584 3186 3129 
Q 3597 2675 3597 1894 
z
M 3022 2063 
Q 3016 2534 2758 2815 
Q 2500 3097 2075 3097 
Q 1594 3097 1305 2825 
Q 1016 2553 972 2059 
L 3022 2063 
z
" id="DejaVuSans-65" transform="scale(0.015625)"/>
       <path id="DejaVuSans-20" transform="scale(0.015625)"/>
       <path d="M 1984 4856 
Q 1566 4138 1362 3434 
Q 1159 2731 1159 2009 
Q 1159 1288 1364 580 
Q 1569 -128 1984 -844 
L 1484 -844 
Q 1016 -109 783 600 
Q 550 1309 550 2009 
Q 550 2706 781 3412 
Q 1013 4119 1484 4856 
L 1984 4856 
z
" id="DejaVuSans-28" transform="scale(0.015625)"/>
       <path d="M 2834 3397 
L 2834 2853 
Q 2591 2978 2328 3040 
Q 2066 3103 1784 3103 
Q 1356 3103 1142 2972 
Q 928 2841 928 2578 
Q 928 2378 1081 2264 
Q 1234 2150 1697 2047 
L 1894 2003 
Q 2506 1872 2764 1633 
Q 3022 1394 3022 966 
Q 3022 478 2636 193 
Q 2250 -91 1575 -91 
Q 1294 -91 989 -36 
Q 684 19 347 128 
L 347 722 
Q 666 556 975 473 
Q 1284 391 1588 391 
Q 1994 391 2212 530 
Q 2431 669 2431 922 
Q 2431 1156 2273 1281 
Q 2116 1406 1581 1522 
L 1381 1569 
Q 847 1681 609 1914 
Q 372 2147 372 2553 
Q 372 3047 722 3315 
Q 1072 3584 1716 3584 
Q 2034 3584 2315 3537 
Q 2597 3491 2834 3397 
z
" id="DejaVuSans-73" transform="scale(0.015625)"/>
       <path d="M 513 4856 
L 1013 4856 
Q 1481 4119 1714 3412 
Q 1947 2706 1947 2009 
Q 1947 1309 1714 600 
Q 1481 -109 1013 -844 
L 513 -844 
Q 928 -128 1133 580 
Q 1338 1288 1338 2009 
Q 1338 2731 1133 3434 
Q 928 4138 513 4856 
z
" id="DejaVuSans-29" transform="scale(0.015625)"/>
      </defs>
      <use xlink:href="#DejaVuSans-54"/>
      <use x="57.958984" xlink:href="#DejaVuSans-69"/>
      <use x="85.742188" xlink:href="#DejaVuSans-6d"/>
      <use x="183.154297" xlink:href="#DejaVuSans-65"/>
      <use x="244.677734" xlink:href="#DejaVuSans-20"/>
      <use x="276.464844" xlink:href="#DejaVuSans-28"/>
      <use x="315.478516" xlink:href="#DejaVuSans-73"/>
      <use x="367.578125" xlink:href="#DejaVuSans-29"/>
     </g>
    </g>
   </g>
   <g id="matplotlib.axis_2">
    <g id="ytick_1">
     <g id="line2d_7">
      <defs>
       <path d="M 0 0 
L -3.5 0 
" id="mff5a01a682" style="stroke:#000000;stroke-width:0.8;"/>
      </defs>
      <g>
       <use style="stroke:#000000;stroke-width:0.8;" x="144.08225" xlink:href="#mff5a01a682" y="556.481466"/>
      </g>
     </g>
     <g id="text_8">
      <!-- −5.0 -->
      <g transform="translate(78.8035 565.599591)scale(0.24 -0.24)">
       <defs>
        <path d="M 678 2272 
L 4684 2272 
L 4684 1741 
L 678 1741 
L 678 2272 
z
" id="DejaVuSans-2212" transform="scale(0.015625)"/>
        <path d="M 691 4666 
L 3169 4666 
L 3169 4134 
L 1269 4134 
L 1269 2991 
Q 1406 3038 1543 3061 
Q 1681 3084 1819 3084 
Q 2600 3084 3056 2656 
Q 3513 2228 3513 1497 
Q 3513 744 3044 326 
Q 2575 -91 1722 -91 
Q 1428 -91 1123 -41 
Q 819 9 494 109 
L 494 744 
Q 775 591 1075 516 
Q 1375 441 1709 441 
Q 2250 441 2565 725 
Q 2881 1009 2881 1497 
Q 2881 1984 2565 2268 
Q 2250 2553 1709 2553 
Q 1456 2553 1204 2497 
Q 953 2441 691 2322 
L 691 4666 
z
" id="DejaVuSans-35" transform="scale(0.015625)"/>
        <path d="M 684 794 
L 1344 794 
L 1344 0 
L 684 0 
L 684 794 
z
" id="DejaVuSans-2e" transform="scale(0.015625)"/>
       </defs>
       <use xlink:href="#DejaVuSans-2212"/>
       <use x="83.789062" xlink:href="#DejaVuSans-35"/>
       <use x="147.412109" xlink:href="#DejaVuSans-2e"/>
       <use x="179.199219" xlink:href="#DejaVuSans-30"/>
      </g>
     </g>
    </g>
    <g id="ytick_2">
     <g id="line2d_8">
      <g>
       <use style="stroke:#000000;stroke-width:0.8;" x="144.08225" xlink:href="#mff5a01a682" y="488.628961"/>
      </g>
     </g>
     <g id="text_9">
      <!-- −2.5 -->
      <g transform="translate(78.8035 497.747086)scale(0.24 -0.24)">
       <use xlink:href="#DejaVuSans-2212"/>
       <use x="83.789062" xlink:href="#DejaVuSans-32"/>
       <use x="147.412109" xlink:href="#DejaVuSans-2e"/>
       <use x="179.199219" xlink:href="#DejaVuSans-35"/>
      </g>
     </g>
    </g>
    <g id="ytick_3">
     <g id="line2d_9">
      <g>
       <use style="stroke:#000000;stroke-width:0.8;" x="144.08225" xlink:href="#mff5a01a682" y="420.776456"/>
      </g>
     </g>
     <g id="text_10">
      <!-- 0.0 -->
      <g transform="translate(98.91475 429.894581)scale(0.24 -0.24)">
       <use xlink:href="#DejaVuSans-30"/>
       <use x="63.623047" xlink:href="#DejaVuSans-2e"/>
       <use x="95.410156" xlink:href="#DejaVuSans-30"/>
      </g>
     </g>
    </g>
    <g id="ytick_4">
     <g id="line2d_10">
      <g>
       <use style="stroke:#000000;stroke-width:0.8;" x="144.08225" xlink:href="#mff5a01a682" y="352.923952"/>
      </g>
     </g>
     <g id="text_11">
      <!-- 2.5 -->
      <g transform="translate(98.91475 362.042077)scale(0.24 -0.24)">
       <use xlink:href="#DejaVuSans-32"/>
       <use x="63.623047" xlink:href="#DejaVuSans-2e"/>
       <use x="95.410156" xlink:href="#DejaVuSans-35"/>
      </g>
     </g>
    </g>
    <g id="ytick_5">
     <g id="line2d_11">
      <g>
       <use style="stroke:#000000;stroke-width:0.8;" x="144.08225" xlink:href="#mff5a01a682" y="285.071447"/>
      </g>
     </g>
     <g id="text_12">
      <!-- 5.0 -->
      <g transform="translate(98.91475 294.189572)scale(0.24 -0.24)">
       <use xlink:href="#DejaVuSans-35"/>
       <use x="63.623047" xlink:href="#DejaVuSans-2e"/>
       <use x="95.410156" xlink:href="#DejaVuSans-30"/>
      </g>
     </g>
    </g>
    <g id="ytick_6">
     <g id="line2d_12">
      <g>
       <use style="stroke:#000000;stroke-width:0.8;" x="144.08225" xlink:href="#mff5a01a682" y="217.218942"/>
      </g>
     </g>
     <g id="text_13">
      <!-- 7.5 -->
      <g transform="translate(98.91475 226.337067)scale(0.24 -0.24)">
       <defs>
        <path d="M 525 4666 
L 3525 4666 
L 3525 4397 
L 1831 0 
L 1172 0 
L 2766 4134 
L 525 4134 
L 525 4666 
z
" id="DejaVuSans-37" transform="scale(0.015625)"/>
       </defs>
       <use xlink:href="#DejaVuSans-37"/>
       <use x="63.623047" xlink:href="#DejaVuSans-2e"/>
       <use x="95.410156" xlink:href="#DejaVuSans-35"/>
      </g>
     </g>
    </g>
    <g id="ytick_7">
     <g id="line2d_13">
      <g>
       <use style="stroke:#000000;stroke-width:0.8;" x="144.08225" xlink:href="#mff5a01a682" y="149.366438"/>
      </g>
     </g>
     <g id="text_14">
      <!-- 10.0 -->
      <g transform="translate(83.64475 158.484563)scale(0.24 -0.24)">
       <use xlink:href="#DejaVuSans-31"/>
       <use x="63.623047" xlink:href="#DejaVuSans-30"/>
       <use x="127.246094" xlink:href="#DejaVuSans-2e"/>
       <use x="159.033203" xlink:href="#DejaVuSans-30"/>
      </g>
     </g>
    </g>
    <g id="ytick_8">
     <g id="line2d_14">
      <g>
       <use style="stroke:#000000;stroke-width:0.8;" x="144.08225" xlink:href="#mff5a01a682" y="81.513933"/>
      </g>
     </g>
     <g id="text_15">
      <!-- 12.5 -->
      <g transform="translate(83.64475 90.632058)scale(0.24 -0.24)">
       <use xlink:href="#DejaVuSans-31"/>
       <use x="63.623047" xlink:href="#DejaVuSans-32"/>
       <use x="127.246094" xlink:href="#DejaVuSans-2e"/>
       <use x="159.033203" xlink:href="#DejaVuSans-35"/>
      </g>
     </g>
    </g>
    <g id="text_16">
     <!-- Squared Speed $\left( \frac{m}{s} \right)^2$ -->
     <g transform="translate(65.8435 488.42)rotate(-90)scale(0.32 -0.32)">
      <defs>
       <path d="M 3425 4513 
L 3425 3897 
Q 3066 4069 2747 4153 
Q 2428 4238 2131 4238 
Q 1616 4238 1336 4038 
Q 1056 3838 1056 3469 
Q 1056 3159 1242 3001 
Q 1428 2844 1947 2747 
L 2328 2669 
Q 3034 2534 3370 2195 
Q 3706 1856 3706 1288 
Q 3706 609 3251 259 
Q 2797 -91 1919 -91 
Q 1588 -91 1214 -16 
Q 841 59 441 206 
L 441 856 
Q 825 641 1194 531 
Q 1563 422 1919 422 
Q 2459 422 2753 634 
Q 3047 847 3047 1241 
Q 3047 1584 2836 1778 
Q 2625 1972 2144 2069 
L 1759 2144 
Q 1053 2284 737 2584 
Q 422 2884 422 3419 
Q 422 4038 858 4394 
Q 1294 4750 2059 4750 
Q 2388 4750 2728 4690 
Q 3069 4631 3425 4513 
z
" id="DejaVuSans-53" transform="scale(0.015625)"/>
       <path d="M 947 1747 
Q 947 1113 1208 752 
Q 1469 391 1925 391 
Q 2381 391 2643 752 
Q 2906 1113 2906 1747 
Q 2906 2381 2643 2742 
Q 2381 3103 1925 3103 
Q 1469 3103 1208 2742 
Q 947 2381 947 1747 
z
M 2906 525 
Q 2725 213 2448 61 
Q 2172 -91 1784 -91 
Q 1150 -91 751 415 
Q 353 922 353 1747 
Q 353 2572 751 3078 
Q 1150 3584 1784 3584 
Q 2172 3584 2448 3432 
Q 2725 3281 2906 2969 
L 2906 3500 
L 3481 3500 
L 3481 -1331 
L 2906 -1331 
L 2906 525 
z
" id="DejaVuSans-71" transform="scale(0.015625)"/>
       <path d="M 544 1381 
L 544 3500 
L 1119 3500 
L 1119 1403 
Q 1119 906 1312 657 
Q 1506 409 1894 409 
Q 2359 409 2629 706 
Q 2900 1003 2900 1516 
L 2900 3500 
L 3475 3500 
L 3475 0 
L 2900 0 
L 2900 538 
Q 2691 219 2414 64 
Q 2138 -91 1772 -91 
Q 1169 -91 856 284 
Q 544 659 544 1381 
z
M 1991 3584 
L 1991 3584 
z
" id="DejaVuSans-75" transform="scale(0.015625)"/>
       <path d="M 2194 1759 
Q 1497 1759 1228 1600 
Q 959 1441 959 1056 
Q 959 750 1161 570 
Q 1363 391 1709 391 
Q 2188 391 2477 730 
Q 2766 1069 2766 1631 
L 2766 1759 
L 2194 1759 
z
M 3341 1997 
L 3341 0 
L 2766 0 
L 2766 531 
Q 2569 213 2275 61 
Q 1981 -91 1556 -91 
Q 1019 -91 701 211 
Q 384 513 384 1019 
Q 384 1609 779 1909 
Q 1175 2209 1959 2209 
L 2766 2209 
L 2766 2266 
Q 2766 2663 2505 2880 
Q 2244 3097 1772 3097 
Q 1472 3097 1187 3025 
Q 903 2953 641 2809 
L 641 3341 
Q 956 3463 1253 3523 
Q 1550 3584 1831 3584 
Q 2591 3584 2966 3190 
Q 3341 2797 3341 1997 
z
" id="DejaVuSans-61" transform="scale(0.015625)"/>
       <path d="M 2631 2963 
Q 2534 3019 2420 3045 
Q 2306 3072 2169 3072 
Q 1681 3072 1420 2755 
Q 1159 2438 1159 1844 
L 1159 0 
L 581 0 
L 581 3500 
L 1159 3500 
L 1159 2956 
Q 1341 3275 1631 3429 
Q 1922 3584 2338 3584 
Q 2397 3584 2469 3576 
Q 2541 3569 2628 3553 
L 2631 2963 
z
" id="DejaVuSans-72" transform="scale(0.015625)"/>
       <path d="M 2906 2969 
L 2906 4863 
L 3481 4863 
L 3481 0 
L 2906 0 
L 2906 525 
Q 2725 213 2448 61 
Q 2172 -91 1784 -91 
Q 1150 -91 751 415 
Q 353 922 353 1747 
Q 353 2572 751 3078 
Q 1150 3584 1784 3584 
Q 2172 3584 2448 3432 
Q 2725 3281 2906 2969 
z
M 947 1747 
Q 947 1113 1208 752 
Q 1469 391 1925 391 
Q 2381 391 2643 752 
Q 2906 1113 2906 1747 
Q 2906 2381 2643 2742 
Q 2381 3103 1925 3103 
Q 1469 3103 1208 2742 
Q 947 2381 947 1747 
z
" id="DejaVuSans-64" transform="scale(0.015625)"/>
       <path d="M 1159 525 
L 1159 -1331 
L 581 -1331 
L 581 3500 
L 1159 3500 
L 1159 2969 
Q 1341 3281 1617 3432 
Q 1894 3584 2278 3584 
Q 2916 3584 3314 3078 
Q 3713 2572 3713 1747 
Q 3713 922 3314 415 
Q 2916 -91 2278 -91 
Q 1894 -91 1617 61 
Q 1341 213 1159 525 
z
M 3116 1747 
Q 3116 2381 2855 2742 
Q 2594 3103 2138 3103 
Q 1681 3103 1420 2742 
Q 1159 2381 1159 1747 
Q 1159 1113 1420 752 
Q 1681 391 2138 391 
Q 2594 391 2855 752 
Q 3116 1113 3116 1747 
z
" id="DejaVuSans-70" transform="scale(0.015625)"/>
       <path d="M 2445 -858 
L 2445 -1050 
Q 1728 -371 1309 630 
Q 890 1632 890 2886 
Q 890 4122 1309 5136 
Q 1728 6150 2445 6822 
L 2445 6630 
Q 1408 5363 1408 2886 
Q 1408 410 2445 -858 
z
" id="STIXSizeOneSym-Regular-28" transform="scale(0.015625)"/>
       <path d="M 5747 2113 
L 5338 0 
L 4763 0 
L 5166 2094 
Q 5191 2228 5203 2325 
Q 5216 2422 5216 2491 
Q 5216 2772 5059 2928 
Q 4903 3084 4622 3084 
Q 4203 3084 3875 2770 
Q 3547 2456 3450 1953 
L 3066 0 
L 2491 0 
L 2900 2094 
Q 2925 2209 2937 2307 
Q 2950 2406 2950 2484 
Q 2950 2769 2794 2926 
Q 2638 3084 2363 3084 
Q 1938 3084 1609 2770 
Q 1281 2456 1184 1953 
L 800 0 
L 225 0 
L 909 3500 
L 1484 3500 
L 1375 2956 
Q 1609 3263 1923 3423 
Q 2238 3584 2597 3584 
Q 2978 3584 3223 3384 
Q 3469 3184 3519 2828 
Q 3781 3197 4126 3390 
Q 4472 3584 4856 3584 
Q 5306 3584 5551 3325 
Q 5797 3066 5797 2591 
Q 5797 2488 5784 2364 
Q 5772 2241 5747 2113 
z
" id="DejaVuSans-Oblique-6d" transform="scale(0.015625)"/>
       <path d="M 3200 3397 
L 3091 2853 
Q 2863 2978 2609 3040 
Q 2356 3103 2088 3103 
Q 1634 3103 1373 2948 
Q 1113 2794 1113 2528 
Q 1113 2219 1719 2053 
Q 1766 2041 1788 2034 
L 1972 1978 
Q 2547 1819 2739 1644 
Q 2931 1469 2931 1166 
Q 2931 609 2489 259 
Q 2047 -91 1331 -91 
Q 1053 -91 747 -37 
Q 441 16 72 128 
L 184 722 
Q 500 559 806 475 
Q 1113 391 1394 391 
Q 1816 391 2080 572 
Q 2344 753 2344 1031 
Q 2344 1331 1650 1516 
L 1591 1531 
L 1394 1581 
Q 956 1697 753 1886 
Q 550 2075 550 2369 
Q 550 2928 970 3256 
Q 1391 3584 2113 3584 
Q 2397 3584 2667 3537 
Q 2938 3491 3200 3397 
z
" id="DejaVuSans-Oblique-73" transform="scale(0.015625)"/>
       <path d="M 550 6630 
L 550 6822 
Q 1267 6144 1686 5142 
Q 2106 4141 2106 2886 
Q 2106 1651 1686 636 
Q 1267 -378 550 -1050 
L 550 -858 
Q 1587 410 1587 2886 
Q 1587 5363 550 6630 
z
" id="STIXSizeOneSym-Regular-29" transform="scale(0.015625)"/>
      </defs>
      <use transform="translate(0 0.765625)" xlink:href="#DejaVuSans-53"/>
      <use transform="translate(63.476562 0.765625)" xlink:href="#DejaVuSans-71"/>
      <use transform="translate(126.953125 0.765625)" xlink:href="#DejaVuSans-75"/>
      <use transform="translate(190.332031 0.765625)" xlink:href="#DejaVuSans-61"/>
      <use transform="translate(251.611328 0.765625)" xlink:href="#DejaVuSans-72"/>
      <use transform="translate(292.724609 0.765625)" xlink:href="#DejaVuSans-65"/>
      <use transform="translate(354.248047 0.765625)" xlink:href="#DejaVuSans-64"/>
      <use transform="translate(417.724609 0.765625)" xlink:href="#DejaVuSans-20"/>
      <use transform="translate(449.511719 0.765625)" xlink:href="#DejaVuSans-53"/>
      <use transform="translate(512.988281 0.765625)" xlink:href="#DejaVuSans-70"/>
      <use transform="translate(576.464844 0.765625)" xlink:href="#DejaVuSans-65"/>
      <use transform="translate(637.988281 0.765625)" xlink:href="#DejaVuSans-65"/>
      <use transform="translate(699.511719 0.765625)" xlink:href="#DejaVuSans-64"/>
      <use transform="translate(762.988281 0.765625)" xlink:href="#DejaVuSans-20"/>
      <use transform="translate(794.775391 -12.132812)scale(0.899555)" xlink:href="#STIXSizeOneSym-Regular-28"/>
      <use transform="translate(836.873444 44.5625)scale(0.7)" xlink:href="#DejaVuSans-Oblique-6d"/>
      <use transform="translate(852.873444 -25.8875)scale(0.7)" xlink:href="#DejaVuSans-Oblique-73"/>
      <use transform="translate(917.56192 -12.132812)scale(0.899555)" xlink:href="#STIXSizeOneSym-Regular-29"/>
      <use transform="translate(960.617004 39.046875)scale(0.7)" xlink:href="#DejaVuSans-32"/>
      <path d="M 836.873444 19.5625 
L 836.873444 25.8125 
L 905.06192 25.8125 
L 905.06192 19.5625 
L 836.873444 19.5625 
z
"/>
     </g>
    </g>
   </g>
   <g id="line2d_15">
    <path clip-path="url(#pab9e36fb22)" d="M 179.587602 224.004193 
L 183.848245 235.099424 
L 188.108887 245.605319 
L 192.369529 255.548931 
L 196.630171 264.956124 
L 200.890814 273.851626 
L 205.151456 282.259072 
L 209.412098 290.20105 
L 213.67274 297.699142 
L 217.933383 304.773963 
L 222.194025 311.445207 
L 226.454667 317.731677 
L 230.71531 323.651329 
L 234.975952 329.221304 
L 239.236594 334.457963 
L 243.497236 339.37692 
L 247.757879 343.993073 
L 252.018521 348.320638 
L 256.279163 352.373176 
L 261.249913 356.770757 
L 266.220662 360.831091 
L 271.191411 364.572643 
L 276.16216 368.012881 
L 281.13291 371.168329 
L 286.103659 374.054619 
L 291.074408 376.686537 
L 296.045158 379.078069 
L 301.015907 381.242448 
L 306.696763 383.453904 
L 312.37762 385.402615 
L 318.058476 387.105124 
L 323.739333 388.576973 
L 329.420189 389.832772 
L 335.811152 391.004374 
L 342.202116 391.938252 
L 348.593079 392.651563 
L 355.69415 393.204948 
L 362.79522 393.52644 
L 369.89629 393.635265 
L 377.707468 393.530783 
L 385.518645 393.213132 
L 394.03993 392.648114 
L 403.271322 391.80751 
L 413.21282 390.670544 
L 423.864426 389.2255 
L 435.936246 387.355626 
L 450.138387 384.915454 
L 468.60117 381.496665 
L 509.787378 373.789111 
L 523.989519 371.397603 
L 536.061339 369.579218 
L 547.423052 368.097127 
L 557.36455 367.016673 
L 567.306049 366.166695 
L 576.537441 365.60628 
L 585.058725 365.301483 
L 593.58001 365.214535 
L 602.101294 365.35705 
L 610.622579 365.738414 
L 618.433756 366.303579 
L 626.244934 367.077863 
L 634.056111 368.061371 
L 642.577396 369.369301 
L 651.09868 370.91385 
L 659.619965 372.680425 
L 668.851357 374.819859 
L 679.502962 377.531585 
L 692.994996 381.220253 
L 715.718422 387.460925 
L 724.239706 389.553098 
L 731.340777 391.074706 
L 737.73174 392.20698 
L 743.412596 392.974265 
L 748.383346 393.422594 
L 753.354095 393.626828 
L 757.614737 393.579482 
L 761.87538 393.300345 
L 765.425915 392.871346 
L 768.97645 392.246287 
L 772.526985 391.407808 
L 776.07752 390.337632 
L 779.628056 389.016528 
L 783.178591 387.424274 
L 786.729126 385.539625 
L 789.569554 383.806426 
L 792.409983 381.859909 
L 795.250411 379.687681 
L 798.090839 377.276872 
L 800.931267 374.614122 
L 803.771695 371.685562 
L 806.612123 368.476808 
L 809.452552 364.972942 
L 812.29298 361.158495 
L 815.133408 357.017437 
L 817.973836 352.533161 
L 820.814264 347.688462 
L 823.654693 342.465528 
L 826.495121 336.84592 
L 829.335549 330.810555 
L 832.175977 324.339692 
L 835.016405 317.412913 
L 837.856833 310.009103 
L 841.407369 300.050198 
L 844.957904 289.267539 
L 848.508439 277.615047 
L 852.058974 265.044743 
L 855.60951 251.506692 
L 859.160045 236.948937 
L 862.71058 221.31744 
L 866.261115 204.556019 
L 869.81165 186.606278 
L 873.362186 167.407548 
L 876.912721 146.89681 
L 880.463256 125.008632 
L 884.013791 101.675094 
L 887.564327 76.825715 
L 889.694648 61.158182 
L 889.694648 61.158182 
" style="fill:none;stroke:#1f77b4;stroke-linecap:square;stroke-width:4;"/>
   </g>
   <g id="line2d_16">
    <path clip-path="url(#pab9e36fb22)" d="M 179.587602 224.004193 
L 250.598307 413.991206 
L 321.609011 413.388073 
L 392.619716 408.110656 
L 463.63042 387.496418 
L 534.641125 362.724869 
L 605.65183 338.642615 
L 676.662534 323.97355 
L 747.673239 398.912872 
L 818.683943 593.121818 
L 889.694648 61.158182 
" style="fill:none;stroke:#1f77b4;stroke-dasharray:14.8,6.4;stroke-dashoffset:0;stroke-width:4;"/>
    <defs>
     <path d="M 0 4.5 
C 1.193414 4.5 2.338109 4.025852 3.181981 3.181981 
C 4.025852 2.338109 4.5 1.193414 4.5 0 
C 4.5 -1.193414 4.025852 -2.338109 3.181981 -3.181981 
C 2.338109 -4.025852 1.193414 -4.5 0 -4.5 
C -1.193414 -4.5 -2.338109 -4.025852 -3.181981 -3.181981 
C -4.025852 -2.338109 -4.5 -1.193414 -4.5 0 
C -4.5 1.193414 -4.025852 2.338109 -3.181981 3.181981 
C -2.338109 4.025852 -1.193414 4.5 0 4.5 
z
" id="m58ec4653c5" style="stroke:#1f77b4;"/>
    </defs>
    <g clip-path="url(#pab9e36fb22)">
     <use style="fill:#1f77b4;stroke:#1f77b4;" x="179.587602" xlink:href="#m58ec4653c5" y="224.004193"/>
     <use style="fill:#1f77b4;stroke:#1f77b4;" x="250.598307" xlink:href="#m58ec4653c5" y="413.991206"/>
     <use style="fill:#1f77b4;stroke:#1f77b4;" x="321.609011" xlink:href="#m58ec4653c5" y="413.388073"/>
     <use style="fill:#1f77b4;stroke:#1f77b4;" x="392.619716" xlink:href="#m58ec4653c5" y="408.110656"/>
     <use style="fill:#1f77b4;stroke:#1f77b4;" x="463.63042" xlink:href="#m58ec4653c5" y="387.496418"/>
     <use style="fill:#1f77b4;stroke:#1f77b4;" x="534.641125" xlink:href="#m58ec4653c5" y="362.724869"/>
     <use style="fill:#1f77b4;stroke:#1f77b4;" x="605.65183" xlink:href="#m58ec4653c5" y="338.642615"/>
     <use style="fill:#1f77b4;stroke:#1f77b4;" x="676.662534" xlink:href="#m58ec4653c5" y="323.97355"/>
     <use style="fill:#1f77b4;stroke:#1f77b4;" x="747.673239" xlink:href="#m58ec4653c5" y="398.912872"/>
     <use style="fill:#1f77b4;stroke:#1f77b4;" x="818.683943" xlink:href="#m58ec4653c5" y="593.121818"/>
     <use style="fill:#1f77b4;stroke:#1f77b4;" x="889.694648" xlink:href="#m58ec4653c5" y="61.158182"/>
    </g>
   </g>
   <g id="line2d_17">
    <path clip-path="url(#pab9e36fb22)" d="M 179.587602 332.5682 
L 188.818994 335.277169 
L 198.760493 337.964542 
L 209.412098 340.618782 
L 221.483918 343.392568 
L 234.975952 346.254005 
L 249.8882 349.187269 
L 267.640876 352.444382 
L 288.944087 356.115007 
L 315.218048 360.404494 
L 346.462758 365.27169 
L 376.997361 369.808692 
L 403.981429 373.596181 
L 427.414961 376.659879 
L 448.008065 379.131895 
L 467.180956 381.210849 
L 484.933632 382.916529 
L 501.976201 384.334721 
L 518.308663 385.477684 
L 534.641125 386.399621 
L 550.973587 387.096374 
L 567.306049 387.569764 
L 584.348618 387.834881 
L 602.101294 387.881919 
L 621.274185 387.705527 
L 643.99761 387.262983 
L 723.529599 385.485614 
L 740.572168 385.465045 
L 756.194523 385.669724 
L 771.106771 386.092665 
L 785.308912 386.71375 
L 800.22116 387.590127 
L 816.553622 388.780074 
L 839.987155 390.743881 
L 861.290366 392.456968 
L 872.652079 393.159613 
L 881.88347 393.525913 
L 889.694648 393.635455 
L 889.694648 393.635455 
" style="fill:none;stroke:#ff7f0e;stroke-linecap:square;stroke-width:4;"/>
   </g>
   <g id="line2d_18">
    <path clip-path="url(#pab9e36fb22)" d="M 179.587602 332.5682 
L 250.598307 354.281002 
L 321.609011 360.312336 
L 392.619716 372.375003 
L 463.63042 384.588454 
L 534.641125 394.927883 
L 605.65183 397.125012 
L 676.662534 384.588454 
L 747.673239 371.922653 
L 818.683943 393.635455 
L 889.694648 393.635455 
" style="fill:none;stroke:#ff7f0e;stroke-dasharray:14.8,6.4;stroke-dashoffset:0;stroke-width:4;"/>
    <defs>
     <path d="M 0 4.5 
C 1.193414 4.5 2.338109 4.025852 3.181981 3.181981 
C 4.025852 2.338109 4.5 1.193414 4.5 0 
C 4.5 -1.193414 4.025852 -2.338109 3.181981 -3.181981 
C 2.338109 -4.025852 1.193414 -4.5 0 -4.5 
C -1.193414 -4.5 -2.338109 -4.025852 -3.181981 -3.181981 
C -4.025852 -2.338109 -4.5 -1.193414 -4.5 0 
C -4.5 1.193414 -4.025852 2.338109 -3.181981 3.181981 
C -2.338109 4.025852 -1.193414 4.5 0 4.5 
z
" id="m5814cb81d7" style="stroke:#ff7f0e;"/>
    </defs>
    <g clip-path="url(#pab9e36fb22)">
     <use style="fill:#ff7f0e;stroke:#ff7f0e;" x="179.587602" xlink:href="#m5814cb81d7" y="332.5682"/>
     <use style="fill:#ff7f0e;stroke:#ff7f0e;" x="250.598307" xlink:href="#m5814cb81d7" y="354.281002"/>
     <use style="fill:#ff7f0e;stroke:#ff7f0e;" x="321.609011" xlink:href="#m5814cb81d7" y="360.312336"/>
     <use style="fill:#ff7f0e;stroke:#ff7f0e;" x="392.619716" xlink:href="#m5814cb81d7" y="372.375003"/>
     <use style="fill:#ff7f0e;stroke:#ff7f0e;" x="463.63042" xlink:href="#m5814cb81d7" y="384.588454"/>
     <use style="fill:#ff7f0e;stroke:#ff7f0e;" x="534.641125" xlink:href="#m5814cb81d7" y="394.927883"/>
     <use style="fill:#ff7f0e;stroke:#ff7f0e;" x="605.65183" xlink:href="#m5814cb81d7" y="397.125012"/>
     <use style="fill:#ff7f0e;stroke:#ff7f0e;" x="676.662534" xlink:href="#m5814cb81d7" y="384.588454"/>
     <use style="fill:#ff7f0e;stroke:#ff7f0e;" x="747.673239" xlink:href="#m5814cb81d7" y="371.922653"/>
     <use style="fill:#ff7f0e;stroke:#ff7f0e;" x="818.683943" xlink:href="#m5814cb81d7" y="393.635455"/>
     <use style="fill:#ff7f0e;stroke:#ff7f0e;" x="889.694648" xlink:href="#m5814cb81d7" y="393.635455"/>
    </g>
   </g>
   <g id="line2d_19">
    <path clip-path="url(#pab9e36fb22)" d="M 889.694648 61.158182 
L 179.587602 224.004193 
" style="fill:none;stroke:#000000;stroke-dasharray:4,6.6;stroke-dashoffset:0;stroke-width:4;"/>
   </g>
   <g id="line2d_20">
    <path clip-path="url(#pab9e36fb22)" d="M 818.683943 593.121818 
L 889.694648 61.158182 
" style="fill:none;stroke:#000000;stroke-dasharray:4,6.6;stroke-dashoffset:0;stroke-width:4;"/>
   </g>
   <g id="line2d_21">
    <path clip-path="url(#pab9e36fb22)" d="M 250.598307 413.991206 
L 179.587602 224.004193 
" style="fill:none;stroke:#000000;stroke-dasharray:4,6.6;stroke-dashoffset:0;stroke-width:4;"/>
   </g>
   <g id="line2d_22">
    <path clip-path="url(#pab9e36fb22)" d="M 250.598307 413.991206 
L 818.683943 593.121818 
" style="fill:none;stroke:#000000;stroke-dasharray:4,6.6;stroke-dashoffset:0;stroke-width:4;"/>
   </g>
   <g id="line2d_23">
    <path clip-path="url(#pab9e36fb22)" d="M 605.65183 397.125012 
L 889.694648 393.635455 
" style="fill:none;stroke:#000000;stroke-dasharray:4,6.6;stroke-dashoffset:0;stroke-width:4;"/>
   </g>
   <g id="line2d_24">
    <path clip-path="url(#pab9e36fb22)" d="M 250.598307 354.281002 
L 179.587602 332.5682 
" style="fill:none;stroke:#000000;stroke-dasharray:4,6.6;stroke-dashoffset:0;stroke-width:4;"/>
   </g>
   <g id="line2d_25">
    <path clip-path="url(#pab9e36fb22)" d="M 747.673239 371.922653 
L 179.587602 332.5682 
" style="fill:none;stroke:#000000;stroke-dasharray:4,6.6;stroke-dashoffset:0;stroke-width:4;"/>
   </g>
   <g id="line2d_26">
    <path clip-path="url(#pab9e36fb22)" d="M 747.673239 371.922653 
L 889.694648 393.635455 
" style="fill:none;stroke:#000000;stroke-dasharray:4,6.6;stroke-dashoffset:0;stroke-width:4;"/>
   </g>
   <g id="line2d_27">
    <path clip-path="url(#pab9e36fb22)" d="M 534.641125 394.927883 
L 605.65183 397.125012 
" style="fill:none;stroke:#000000;stroke-dasharray:4,6.6;stroke-dashoffset:0;stroke-width:4;"/>
   </g>
   <g id="line2d_28">
    <path clip-path="url(#pab9e36fb22)" d="M 534.641125 394.927883 
L 250.598307 354.281002 
" style="fill:none;stroke:#000000;stroke-dasharray:4,6.6;stroke-dashoffset:0;stroke-width:4;"/>
   </g>
   <g id="patch_3">
    <path d="M 144.08225 619.72 
L 144.08225 34.56 
" style="fill:none;stroke:#000000;stroke-linecap:square;stroke-linejoin:miter;stroke-width:0.8;"/>
   </g>
   <g id="patch_4">
    <path d="M 925.2 619.72 
L 925.2 34.56 
" style="fill:none;stroke:#000000;stroke-linecap:square;stroke-linejoin:miter;stroke-width:0.8;"/>
   </g>
   <g id="patch_5">
    <path d="M 144.08225 619.72 
L 925.2 619.72 
" style="fill:none;stroke:#000000;stroke-linecap:square;stroke-linejoin:miter;stroke-width:0.8;"/>
   </g>
   <g id="patch_6">
    <path d="M 144.08225 34.56 
L 925.2 34.56 
" style="fill:none;stroke:#000000;stroke-linecap:square;stroke-linejoin:miter;stroke-width:0.8;"/>
   </g>
   <g id="legend_1">
    <g id="patch_7">
     <path d="M 160.88225 140.64 
L 352.16225 140.64 
Q 356.96225 140.64 356.96225 135.84 
L 356.96225 51.36 
Q 356.96225 46.56 352.16225 46.56 
L 160.88225 46.56 
Q 156.08225 46.56 156.08225 51.36 
L 156.08225 135.84 
Q 156.08225 140.64 160.88225 140.64 
z
" style="fill:#ffffff;opacity:0.8;stroke:#cccccc;stroke-linejoin:miter;"/>
    </g>
    <g id="line2d_29">
     <path d="M 165.68225 73.44 
L 213.68225 73.44 
" style="fill:none;stroke:#1f77b4;stroke-linecap:square;stroke-width:4;"/>
    </g>
    <g id="line2d_30"/>
    <g id="text_17">
     <!-- $||\dot \mathbf{C}^{[1]}(t)||^2$ -->
     <g transform="translate(232.88225 81.84)scale(0.24 -0.24)">
      <defs>
       <path d="M 1344 4891 
L 1344 -1509 
L 813 -1509 
L 813 4891 
L 1344 4891 
z
" id="DejaVuSans-7c" transform="scale(0.015625)"/>
       <path d="M -1894 4863 
L -1319 4863 
L -1319 4134 
L -1894 4134 
L -1894 4863 
z
M -1600 3584 
L -1600 3584 
z
" id="DejaVuSans-307" transform="scale(0.015625)"/>
       <path d="M 4288 256 
Q 3956 84 3597 -3 
Q 3238 -91 2847 -91 
Q 1681 -91 1000 561 
Q 319 1213 319 2328 
Q 319 3447 1000 4098 
Q 1681 4750 2847 4750 
Q 3238 4750 3597 4662 
Q 3956 4575 4288 4403 
L 4288 3438 
Q 3953 3666 3628 3772 
Q 3303 3878 2944 3878 
Q 2300 3878 1931 3465 
Q 1563 3053 1563 2328 
Q 1563 1606 1931 1193 
Q 2300 781 2944 781 
Q 3303 781 3628 887 
Q 3953 994 4288 1222 
L 4288 256 
z
" id="DejaVuSans-Bold-43" transform="scale(0.015625)"/>
       <path d="M 550 4863 
L 1875 4863 
L 1875 4416 
L 1125 4416 
L 1125 -397 
L 1875 -397 
L 1875 -844 
L 550 -844 
L 550 4863 
z
" id="DejaVuSans-5b" transform="scale(0.015625)"/>
       <path d="M 1947 4863 
L 1947 -844 
L 622 -844 
L 622 -397 
L 1369 -397 
L 1369 4416 
L 622 4416 
L 622 4863 
L 1947 4863 
z
" id="DejaVuSans-5d" transform="scale(0.015625)"/>
       <path d="M 2706 3500 
L 2619 3053 
L 1472 3053 
L 1100 1153 
Q 1081 1047 1072 975 
Q 1063 903 1063 863 
Q 1063 663 1183 572 
Q 1303 481 1569 481 
L 2150 481 
L 2053 0 
L 1503 0 
Q 991 0 739 200 
Q 488 400 488 806 
Q 488 878 497 964 
Q 506 1050 525 1153 
L 897 3053 
L 409 3053 
L 500 3500 
L 978 3500 
L 1172 4494 
L 1747 4494 
L 1556 3500 
L 2706 3500 
z
" id="DejaVuSans-Oblique-74" transform="scale(0.015625)"/>
      </defs>
      <use transform="translate(0 0.296875)" xlink:href="#DejaVuSans-7c"/>
      <use transform="translate(33.691406 0.296875)" xlink:href="#DejaVuSans-7c"/>
      <use transform="translate(138.32373 31.015625)" xlink:href="#DejaVuSans-307"/>
      <use transform="translate(67.382812 0.296875)" xlink:href="#DejaVuSans-Bold-43"/>
      <use transform="translate(141.728516 38.578125)scale(0.7)" xlink:href="#DejaVuSans-5b"/>
      <use transform="translate(169.038086 38.578125)scale(0.7)" xlink:href="#DejaVuSans-31"/>
      <use transform="translate(213.574219 38.578125)scale(0.7)" xlink:href="#DejaVuSans-5d"/>
      <use transform="translate(243.618164 0.296875)" xlink:href="#DejaVuSans-28"/>
      <use transform="translate(282.631836 0.296875)" xlink:href="#DejaVuSans-Oblique-74"/>
      <use transform="translate(321.84082 0.296875)" xlink:href="#DejaVuSans-29"/>
      <use transform="translate(360.854492 0.296875)" xlink:href="#DejaVuSans-7c"/>
      <use transform="translate(394.545898 0.296875)" xlink:href="#DejaVuSans-7c"/>
      <use transform="translate(429.194336 38.578125)scale(0.7)" xlink:href="#DejaVuSans-32"/>
     </g>
    </g>
    <g id="line2d_31">
     <path d="M 165.68225 116.88 
L 213.68225 116.88 
" style="fill:none;stroke:#ff7f0e;stroke-linecap:square;stroke-width:4;"/>
    </g>
    <g id="line2d_32"/>
    <g id="text_18">
     <!-- $||\dot \mathbf{C}^{[2]}(t)||^2$ -->
     <g transform="translate(232.88225 125.28)scale(0.24 -0.24)">
      <use transform="translate(0 0.296875)" xlink:href="#DejaVuSans-7c"/>
      <use transform="translate(33.691406 0.296875)" xlink:href="#DejaVuSans-7c"/>
      <use transform="translate(138.32373 31.015625)" xlink:href="#DejaVuSans-307"/>
      <use transform="translate(67.382812 0.296875)" xlink:href="#DejaVuSans-Bold-43"/>
      <use transform="translate(141.728516 38.578125)scale(0.7)" xlink:href="#DejaVuSans-5b"/>
      <use transform="translate(169.038086 38.578125)scale(0.7)" xlink:href="#DejaVuSans-32"/>
      <use transform="translate(213.574219 38.578125)scale(0.7)" xlink:href="#DejaVuSans-5d"/>
      <use transform="translate(243.618164 0.296875)" xlink:href="#DejaVuSans-28"/>
      <use transform="translate(282.631836 0.296875)" xlink:href="#DejaVuSans-Oblique-74"/>
      <use transform="translate(321.84082 0.296875)" xlink:href="#DejaVuSans-29"/>
      <use transform="translate(360.854492 0.296875)" xlink:href="#DejaVuSans-7c"/>
      <use transform="translate(394.545898 0.296875)" xlink:href="#DejaVuSans-7c"/>
      <use transform="translate(429.194336 38.578125)scale(0.7)" xlink:href="#DejaVuSans-32"/>
     </g>
    </g>
   </g>
  </g>
 </g>
 <defs>
  <clipPath id="pab9e36fb22">
   <rect height="585.16" width="781.11775" x="144.08225" y="34.56"/>
  </clipPath>
 </defs>
</svg>
