<?xml version="1.0" encoding="utf-8" standalone="no"?>
<!DOCTYPE svg PUBLIC "-//W3C//DTD SVG 1.1//EN"
  "http://www.w3.org/Graphics/SVG/1.1/DTD/svg11.dtd">
<svg height="720pt" version="1.1" viewBox="0 0 959.976 720" width="959.976pt" xmlns="http://www.w3.org/2000/svg" xmlns:xlink="http://www.w3.org/1999/xlink">
 <metadata>
  <rdf:RDF xmlns:cc="http://creativecommons.org/ns#" xmlns:dc="http://purl.org/dc/elements/1.1/" xmlns:rdf="http://www.w3.org/1999/02/22-rdf-syntax-ns#">
   <cc:Work>
    <dc:type rdf:resource="http://purl.org/dc/dcmitype/StillImage"/>
    <dc:date>2021-10-18T18:22:07.810150</dc:date>
    <dc:format>image/svg+xml</dc:format>
    <dc:creator>
     <cc:Agent>
      <dc:title>Matplotlib v3.4.2, https://matplotlib.org/</dc:title>
     </cc:Agent>
    </dc:creator>
   </cc:Work>
  </rdf:RDF>
 </metadata>
 <defs>
  <style type="text/css">*{stroke-linecap:butt;stroke-linejoin:round;}</style>
 </defs>
 <g id="figure_1">
  <g id="patch_1">
   <path d="M 0 720 
L 959.976 720 
L 959.976 0 
L 0 0 
z
" style="fill:#ffffff;"/>
  </g>
  <g id="axes_1">
   <g id="patch_2">
    <path d="M 107.12 615.442822 
L 925.416 615.442822 
L 925.416 52.864322 
L 107.12 52.864322 
z
" style="fill:#ffffff;"/>
   </g>
   <g id="patch_3">
    <path clip-path="url(#p6e500d55c6)" d="M 286.12225 538.727572 
C 299.685665 538.727572 312.695383 533.33877 322.286166 523.747988 
C 331.876948 514.157205 337.26575 501.147487 337.26575 487.584072 
C 337.26575 474.020657 331.876948 461.010939 322.286166 451.420156 
C 312.695383 441.829374 299.685665 436.440572 286.12225 436.440572 
C 272.558835 436.440572 259.549117 441.829374 249.958334 451.420156 
C 240.367552 461.010939 234.97875 474.020657 234.97875 487.584072 
C 234.97875 501.147487 240.367552 514.157205 249.958334 523.747988 
C 259.549117 533.33877 272.558835 538.727572 286.12225 538.727572 
z
" style="fill:#ff0000;stroke:#000000;stroke-linejoin:miter;"/>
   </g>
   <g id="patch_4">
    <path clip-path="url(#p6e500d55c6)" d="M 439.55275 283.010072 
C 453.116165 283.010072 466.125883 277.62127 475.716666 268.030488 
C 485.307448 258.439705 490.69625 245.429987 490.69625 231.866572 
C 490.69625 218.303157 485.307448 205.293439 475.716666 195.702656 
C 466.125883 186.111874 453.116165 180.723072 439.55275 180.723072 
C 425.989335 180.723072 412.979617 186.111874 403.388834 195.702656 
C 393.798052 205.293439 388.40925 218.303157 388.40925 231.866572 
C 388.40925 245.429987 393.798052 258.439705 403.388834 268.030488 
C 412.979617 277.62127 425.989335 283.010072 439.55275 283.010072 
z
" style="fill:#008000;stroke:#000000;stroke-linejoin:miter;"/>
   </g>
   <g id="matplotlib.axis_1">
    <g id="xtick_1">
     <g id="line2d_1">
      <defs>
       <path d="M 0 0 
L 0 3.5 
" id="m79b26fdd3e" style="stroke:#000000;stroke-width:0.8;"/>
      </defs>
      <g>
       <use style="stroke:#000000;stroke-width:0.8;" x="132.69175" xlink:href="#m79b26fdd3e" y="615.442822"/>
      </g>
     </g>
     <g id="text_1">
      <!-- 0 -->
      <g transform="translate(125.05675 640.679072)scale(0.24 -0.24)">
       <defs>
        <path d="M 2034 4250 
Q 1547 4250 1301 3770 
Q 1056 3291 1056 2328 
Q 1056 1369 1301 889 
Q 1547 409 2034 409 
Q 2525 409 2770 889 
Q 3016 1369 3016 2328 
Q 3016 3291 2770 3770 
Q 2525 4250 2034 4250 
z
M 2034 4750 
Q 2819 4750 3233 4129 
Q 3647 3509 3647 2328 
Q 3647 1150 3233 529 
Q 2819 -91 2034 -91 
Q 1250 -91 836 529 
Q 422 1150 422 2328 
Q 422 3509 836 4129 
Q 1250 4750 2034 4750 
z
" id="DejaVuSans-30" transform="scale(0.015625)"/>
       </defs>
       <use xlink:href="#DejaVuSans-30"/>
      </g>
     </g>
    </g>
    <g id="xtick_2">
     <g id="line2d_2">
      <g>
       <use style="stroke:#000000;stroke-width:0.8;" x="234.97875" xlink:href="#m79b26fdd3e" y="615.442822"/>
      </g>
     </g>
     <g id="text_2">
      <!-- 2 -->
      <g transform="translate(227.34375 640.679072)scale(0.24 -0.24)">
       <defs>
        <path d="M 1228 531 
L 3431 531 
L 3431 0 
L 469 0 
L 469 531 
Q 828 903 1448 1529 
Q 2069 2156 2228 2338 
Q 2531 2678 2651 2914 
Q 2772 3150 2772 3378 
Q 2772 3750 2511 3984 
Q 2250 4219 1831 4219 
Q 1534 4219 1204 4116 
Q 875 4013 500 3803 
L 500 4441 
Q 881 4594 1212 4672 
Q 1544 4750 1819 4750 
Q 2544 4750 2975 4387 
Q 3406 4025 3406 3419 
Q 3406 3131 3298 2873 
Q 3191 2616 2906 2266 
Q 2828 2175 2409 1742 
Q 1991 1309 1228 531 
z
" id="DejaVuSans-32" transform="scale(0.015625)"/>
       </defs>
       <use xlink:href="#DejaVuSans-32"/>
      </g>
     </g>
    </g>
    <g id="xtick_3">
     <g id="line2d_3">
      <g>
       <use style="stroke:#000000;stroke-width:0.8;" x="337.26575" xlink:href="#m79b26fdd3e" y="615.442822"/>
      </g>
     </g>
     <g id="text_3">
      <!-- 4 -->
      <g transform="translate(329.63075 640.679072)scale(0.24 -0.24)">
       <defs>
        <path d="M 2419 4116 
L 825 1625 
L 2419 1625 
L 2419 4116 
z
M 2253 4666 
L 3047 4666 
L 3047 1625 
L 3713 1625 
L 3713 1100 
L 3047 1100 
L 3047 0 
L 2419 0 
L 2419 1100 
L 313 1100 
L 313 1709 
L 2253 4666 
z
" id="DejaVuSans-34" transform="scale(0.015625)"/>
       </defs>
       <use xlink:href="#DejaVuSans-34"/>
      </g>
     </g>
    </g>
    <g id="xtick_4">
     <g id="line2d_4">
      <g>
       <use style="stroke:#000000;stroke-width:0.8;" x="439.55275" xlink:href="#m79b26fdd3e" y="615.442822"/>
      </g>
     </g>
     <g id="text_4">
      <!-- 6 -->
      <g transform="translate(431.91775 640.679072)scale(0.24 -0.24)">
       <defs>
        <path d="M 2113 2584 
Q 1688 2584 1439 2293 
Q 1191 2003 1191 1497 
Q 1191 994 1439 701 
Q 1688 409 2113 409 
Q 2538 409 2786 701 
Q 3034 994 3034 1497 
Q 3034 2003 2786 2293 
Q 2538 2584 2113 2584 
z
M 3366 4563 
L 3366 3988 
Q 3128 4100 2886 4159 
Q 2644 4219 2406 4219 
Q 1781 4219 1451 3797 
Q 1122 3375 1075 2522 
Q 1259 2794 1537 2939 
Q 1816 3084 2150 3084 
Q 2853 3084 3261 2657 
Q 3669 2231 3669 1497 
Q 3669 778 3244 343 
Q 2819 -91 2113 -91 
Q 1303 -91 875 529 
Q 447 1150 447 2328 
Q 447 3434 972 4092 
Q 1497 4750 2381 4750 
Q 2619 4750 2861 4703 
Q 3103 4656 3366 4563 
z
" id="DejaVuSans-36" transform="scale(0.015625)"/>
       </defs>
       <use xlink:href="#DejaVuSans-36"/>
      </g>
     </g>
    </g>
    <g id="xtick_5">
     <g id="line2d_5">
      <g>
       <use style="stroke:#000000;stroke-width:0.8;" x="541.83975" xlink:href="#m79b26fdd3e" y="615.442822"/>
      </g>
     </g>
     <g id="text_5">
      <!-- 8 -->
      <g transform="translate(534.20475 640.679072)scale(0.24 -0.24)">
       <defs>
        <path d="M 2034 2216 
Q 1584 2216 1326 1975 
Q 1069 1734 1069 1313 
Q 1069 891 1326 650 
Q 1584 409 2034 409 
Q 2484 409 2743 651 
Q 3003 894 3003 1313 
Q 3003 1734 2745 1975 
Q 2488 2216 2034 2216 
z
M 1403 2484 
Q 997 2584 770 2862 
Q 544 3141 544 3541 
Q 544 4100 942 4425 
Q 1341 4750 2034 4750 
Q 2731 4750 3128 4425 
Q 3525 4100 3525 3541 
Q 3525 3141 3298 2862 
Q 3072 2584 2669 2484 
Q 3125 2378 3379 2068 
Q 3634 1759 3634 1313 
Q 3634 634 3220 271 
Q 2806 -91 2034 -91 
Q 1263 -91 848 271 
Q 434 634 434 1313 
Q 434 1759 690 2068 
Q 947 2378 1403 2484 
z
M 1172 3481 
Q 1172 3119 1398 2916 
Q 1625 2713 2034 2713 
Q 2441 2713 2670 2916 
Q 2900 3119 2900 3481 
Q 2900 3844 2670 4047 
Q 2441 4250 2034 4250 
Q 1625 4250 1398 4047 
Q 1172 3844 1172 3481 
z
" id="DejaVuSans-38" transform="scale(0.015625)"/>
       </defs>
       <use xlink:href="#DejaVuSans-38"/>
      </g>
     </g>
    </g>
    <g id="xtick_6">
     <g id="line2d_6">
      <g>
       <use style="stroke:#000000;stroke-width:0.8;" x="644.12675" xlink:href="#m79b26fdd3e" y="615.442822"/>
      </g>
     </g>
     <g id="text_6">
      <!-- 10 -->
      <g transform="translate(628.85675 640.679072)scale(0.24 -0.24)">
       <defs>
        <path d="M 794 531 
L 1825 531 
L 1825 4091 
L 703 3866 
L 703 4441 
L 1819 4666 
L 2450 4666 
L 2450 531 
L 3481 531 
L 3481 0 
L 794 0 
L 794 531 
z
" id="DejaVuSans-31" transform="scale(0.015625)"/>
       </defs>
       <use xlink:href="#DejaVuSans-31"/>
       <use x="63.623047" xlink:href="#DejaVuSans-30"/>
      </g>
     </g>
    </g>
    <g id="xtick_7">
     <g id="line2d_7">
      <g>
       <use style="stroke:#000000;stroke-width:0.8;" x="746.41375" xlink:href="#m79b26fdd3e" y="615.442822"/>
      </g>
     </g>
     <g id="text_7">
      <!-- 12 -->
      <g transform="translate(731.14375 640.679072)scale(0.24 -0.24)">
       <use xlink:href="#DejaVuSans-31"/>
       <use x="63.623047" xlink:href="#DejaVuSans-32"/>
      </g>
     </g>
    </g>
    <g id="xtick_8">
     <g id="line2d_8">
      <g>
       <use style="stroke:#000000;stroke-width:0.8;" x="848.70075" xlink:href="#m79b26fdd3e" y="615.442822"/>
      </g>
     </g>
     <g id="text_8">
      <!-- 14 -->
      <g transform="translate(833.43075 640.679072)scale(0.24 -0.24)">
       <use xlink:href="#DejaVuSans-31"/>
       <use x="63.623047" xlink:href="#DejaVuSans-34"/>
      </g>
     </g>
    </g>
    <g id="text_9">
     <!-- X Position (m) -->
     <g transform="translate(404.783 673.985322)scale(0.32 -0.32)">
      <defs>
       <path d="M 403 4666 
L 1081 4666 
L 2241 2931 
L 3406 4666 
L 4084 4666 
L 2584 2425 
L 4184 0 
L 3506 0 
L 2194 1984 
L 872 0 
L 191 0 
L 1856 2491 
L 403 4666 
z
" id="DejaVuSans-58" transform="scale(0.015625)"/>
       <path id="DejaVuSans-20" transform="scale(0.015625)"/>
       <path d="M 1259 4147 
L 1259 2394 
L 2053 2394 
Q 2494 2394 2734 2622 
Q 2975 2850 2975 3272 
Q 2975 3691 2734 3919 
Q 2494 4147 2053 4147 
L 1259 4147 
z
M 628 4666 
L 2053 4666 
Q 2838 4666 3239 4311 
Q 3641 3956 3641 3272 
Q 3641 2581 3239 2228 
Q 2838 1875 2053 1875 
L 1259 1875 
L 1259 0 
L 628 0 
L 628 4666 
z
" id="DejaVuSans-50" transform="scale(0.015625)"/>
       <path d="M 1959 3097 
Q 1497 3097 1228 2736 
Q 959 2375 959 1747 
Q 959 1119 1226 758 
Q 1494 397 1959 397 
Q 2419 397 2687 759 
Q 2956 1122 2956 1747 
Q 2956 2369 2687 2733 
Q 2419 3097 1959 3097 
z
M 1959 3584 
Q 2709 3584 3137 3096 
Q 3566 2609 3566 1747 
Q 3566 888 3137 398 
Q 2709 -91 1959 -91 
Q 1206 -91 779 398 
Q 353 888 353 1747 
Q 353 2609 779 3096 
Q 1206 3584 1959 3584 
z
" id="DejaVuSans-6f" transform="scale(0.015625)"/>
       <path d="M 2834 3397 
L 2834 2853 
Q 2591 2978 2328 3040 
Q 2066 3103 1784 3103 
Q 1356 3103 1142 2972 
Q 928 2841 928 2578 
Q 928 2378 1081 2264 
Q 1234 2150 1697 2047 
L 1894 2003 
Q 2506 1872 2764 1633 
Q 3022 1394 3022 966 
Q 3022 478 2636 193 
Q 2250 -91 1575 -91 
Q 1294 -91 989 -36 
Q 684 19 347 128 
L 347 722 
Q 666 556 975 473 
Q 1284 391 1588 391 
Q 1994 391 2212 530 
Q 2431 669 2431 922 
Q 2431 1156 2273 1281 
Q 2116 1406 1581 1522 
L 1381 1569 
Q 847 1681 609 1914 
Q 372 2147 372 2553 
Q 372 3047 722 3315 
Q 1072 3584 1716 3584 
Q 2034 3584 2315 3537 
Q 2597 3491 2834 3397 
z
" id="DejaVuSans-73" transform="scale(0.015625)"/>
       <path d="M 603 3500 
L 1178 3500 
L 1178 0 
L 603 0 
L 603 3500 
z
M 603 4863 
L 1178 4863 
L 1178 4134 
L 603 4134 
L 603 4863 
z
" id="DejaVuSans-69" transform="scale(0.015625)"/>
       <path d="M 1172 4494 
L 1172 3500 
L 2356 3500 
L 2356 3053 
L 1172 3053 
L 1172 1153 
Q 1172 725 1289 603 
Q 1406 481 1766 481 
L 2356 481 
L 2356 0 
L 1766 0 
Q 1100 0 847 248 
Q 594 497 594 1153 
L 594 3053 
L 172 3053 
L 172 3500 
L 594 3500 
L 594 4494 
L 1172 4494 
z
" id="DejaVuSans-74" transform="scale(0.015625)"/>
       <path d="M 3513 2113 
L 3513 0 
L 2938 0 
L 2938 2094 
Q 2938 2591 2744 2837 
Q 2550 3084 2163 3084 
Q 1697 3084 1428 2787 
Q 1159 2491 1159 1978 
L 1159 0 
L 581 0 
L 581 3500 
L 1159 3500 
L 1159 2956 
Q 1366 3272 1645 3428 
Q 1925 3584 2291 3584 
Q 2894 3584 3203 3211 
Q 3513 2838 3513 2113 
z
" id="DejaVuSans-6e" transform="scale(0.015625)"/>
       <path d="M 1984 4856 
Q 1566 4138 1362 3434 
Q 1159 2731 1159 2009 
Q 1159 1288 1364 580 
Q 1569 -128 1984 -844 
L 1484 -844 
Q 1016 -109 783 600 
Q 550 1309 550 2009 
Q 550 2706 781 3412 
Q 1013 4119 1484 4856 
L 1984 4856 
z
" id="DejaVuSans-28" transform="scale(0.015625)"/>
       <path d="M 3328 2828 
Q 3544 3216 3844 3400 
Q 4144 3584 4550 3584 
Q 5097 3584 5394 3201 
Q 5691 2819 5691 2113 
L 5691 0 
L 5113 0 
L 5113 2094 
Q 5113 2597 4934 2840 
Q 4756 3084 4391 3084 
Q 3944 3084 3684 2787 
Q 3425 2491 3425 1978 
L 3425 0 
L 2847 0 
L 2847 2094 
Q 2847 2600 2669 2842 
Q 2491 3084 2119 3084 
Q 1678 3084 1418 2786 
Q 1159 2488 1159 1978 
L 1159 0 
L 581 0 
L 581 3500 
L 1159 3500 
L 1159 2956 
Q 1356 3278 1631 3431 
Q 1906 3584 2284 3584 
Q 2666 3584 2933 3390 
Q 3200 3197 3328 2828 
z
" id="DejaVuSans-6d" transform="scale(0.015625)"/>
       <path d="M 513 4856 
L 1013 4856 
Q 1481 4119 1714 3412 
Q 1947 2706 1947 2009 
Q 1947 1309 1714 600 
Q 1481 -109 1013 -844 
L 513 -844 
Q 928 -128 1133 580 
Q 1338 1288 1338 2009 
Q 1338 2731 1133 3434 
Q 928 4138 513 4856 
z
" id="DejaVuSans-29" transform="scale(0.015625)"/>
      </defs>
      <use xlink:href="#DejaVuSans-58"/>
      <use x="68.505859" xlink:href="#DejaVuSans-20"/>
      <use x="100.292969" xlink:href="#DejaVuSans-50"/>
      <use x="156.970703" xlink:href="#DejaVuSans-6f"/>
      <use x="218.152344" xlink:href="#DejaVuSans-73"/>
      <use x="270.251953" xlink:href="#DejaVuSans-69"/>
      <use x="298.035156" xlink:href="#DejaVuSans-74"/>
      <use x="337.244141" xlink:href="#DejaVuSans-69"/>
      <use x="365.027344" xlink:href="#DejaVuSans-6f"/>
      <use x="426.208984" xlink:href="#DejaVuSans-6e"/>
      <use x="489.587891" xlink:href="#DejaVuSans-20"/>
      <use x="521.375" xlink:href="#DejaVuSans-28"/>
      <use x="560.388672" xlink:href="#DejaVuSans-6d"/>
      <use x="657.800781" xlink:href="#DejaVuSans-29"/>
     </g>
    </g>
   </g>
   <g id="matplotlib.axis_2">
    <g id="ytick_1">
     <g id="line2d_9">
      <defs>
       <path d="M 0 0 
L -3.5 0 
" id="m305d689c92" style="stroke:#000000;stroke-width:0.8;"/>
      </defs>
      <g>
       <use style="stroke:#000000;stroke-width:0.8;" x="107.12" xlink:href="#m305d689c92" y="589.871072"/>
      </g>
     </g>
     <g id="text_10">
      <!-- 0 -->
      <g transform="translate(84.85 598.989197)scale(0.24 -0.24)">
       <use xlink:href="#DejaVuSans-30"/>
      </g>
     </g>
    </g>
    <g id="ytick_2">
     <g id="line2d_10">
      <g>
       <use style="stroke:#000000;stroke-width:0.8;" x="107.12" xlink:href="#m305d689c92" y="487.584072"/>
      </g>
     </g>
     <g id="text_11">
      <!-- 2 -->
      <g transform="translate(84.85 496.702197)scale(0.24 -0.24)">
       <use xlink:href="#DejaVuSans-32"/>
      </g>
     </g>
    </g>
    <g id="ytick_3">
     <g id="line2d_11">
      <g>
       <use style="stroke:#000000;stroke-width:0.8;" x="107.12" xlink:href="#m305d689c92" y="385.297072"/>
      </g>
     </g>
     <g id="text_12">
      <!-- 4 -->
      <g transform="translate(84.85 394.415197)scale(0.24 -0.24)">
       <use xlink:href="#DejaVuSans-34"/>
      </g>
     </g>
    </g>
    <g id="ytick_4">
     <g id="line2d_12">
      <g>
       <use style="stroke:#000000;stroke-width:0.8;" x="107.12" xlink:href="#m305d689c92" y="283.010072"/>
      </g>
     </g>
     <g id="text_13">
      <!-- 6 -->
      <g transform="translate(84.85 292.128197)scale(0.24 -0.24)">
       <use xlink:href="#DejaVuSans-36"/>
      </g>
     </g>
    </g>
    <g id="ytick_5">
     <g id="line2d_13">
      <g>
       <use style="stroke:#000000;stroke-width:0.8;" x="107.12" xlink:href="#m305d689c92" y="180.723072"/>
      </g>
     </g>
     <g id="text_14">
      <!-- 8 -->
      <g transform="translate(84.85 189.841197)scale(0.24 -0.24)">
       <use xlink:href="#DejaVuSans-38"/>
      </g>
     </g>
    </g>
    <g id="ytick_6">
     <g id="line2d_14">
      <g>
       <use style="stroke:#000000;stroke-width:0.8;" x="107.12" xlink:href="#m305d689c92" y="78.436072"/>
      </g>
     </g>
     <g id="text_15">
      <!-- 10 -->
      <g transform="translate(69.58 87.554197)scale(0.24 -0.24)">
       <use xlink:href="#DejaVuSans-31"/>
       <use x="63.623047" xlink:href="#DejaVuSans-30"/>
      </g>
     </g>
    </g>
    <g id="text_16">
     <!-- Y Position (m) -->
     <g transform="translate(58.925 444.451072)rotate(-90)scale(0.32 -0.32)">
      <defs>
       <path d="M -13 4666 
L 666 4666 
L 1959 2747 
L 3244 4666 
L 3922 4666 
L 2272 2222 
L 2272 0 
L 1638 0 
L 1638 2222 
L -13 4666 
z
" id="DejaVuSans-59" transform="scale(0.015625)"/>
      </defs>
      <use xlink:href="#DejaVuSans-59"/>
      <use x="61.083984" xlink:href="#DejaVuSans-20"/>
      <use x="92.871094" xlink:href="#DejaVuSans-50"/>
      <use x="149.548828" xlink:href="#DejaVuSans-6f"/>
      <use x="210.730469" xlink:href="#DejaVuSans-73"/>
      <use x="262.830078" xlink:href="#DejaVuSans-69"/>
      <use x="290.613281" xlink:href="#DejaVuSans-74"/>
      <use x="329.822266" xlink:href="#DejaVuSans-69"/>
      <use x="357.605469" xlink:href="#DejaVuSans-6f"/>
      <use x="418.787109" xlink:href="#DejaVuSans-6e"/>
      <use x="482.166016" xlink:href="#DejaVuSans-20"/>
      <use x="513.953125" xlink:href="#DejaVuSans-28"/>
      <use x="552.966797" xlink:href="#DejaVuSans-6d"/>
      <use x="650.378906" xlink:href="#DejaVuSans-29"/>
     </g>
    </g>
   </g>
   <g id="line2d_15">
    <path clip-path="url(#p6e500d55c6)" d="M 286.12225 589.871072 
L 286.224144 586.665263 
L 286.519377 583.590384 
L 287.074738 580.234175 
L 287.843421 577.041496 
L 288.807079 574.005068 
L 289.948805 571.115725 
L 291.426572 568.027591 
L 293.08897 565.094716 
L 294.916402 562.298203 
L 297.117889 559.326387 
L 299.71944 556.188676 
L 302.995977 552.60542 
L 307.260132 548.288936 
L 320.47607 535.138595 
L 324.395913 530.802412 
L 327.680626 526.847886 
L 330.605101 523.001369 
L 333.42608 518.921044 
L 335.885302 514.993414 
L 338.231341 510.846026 
L 340.453148 506.469482 
L 342.54116 501.856436 
L 344.487378 497.001556 
L 346.285435 491.901481 
L 347.930645 486.554761 
L 349.420046 480.961788 
L 350.752415 475.124726 
L 352.037334 468.426683 
L 353.136056 461.445355 
L 354.054216 454.190311 
L 354.859459 445.977257 
L 355.473095 437.469988 
L 355.941131 427.945141 
L 356.244549 417.360603 
L 356.381839 404.897834 
L 356.328006 388.863079 
L 355.967145 335.666428 
L 356.20342 322.297629 
L 356.6286 310.69466 
L 357.244626 300.043245 
L 358.029811 290.348797 
L 358.951462 281.602736 
L 360.081628 273.012148 
L 361.300865 265.353741 
L 362.711204 257.853503 
L 364.31919 250.524196 
L 366.129733 243.377587 
L 367.935106 237.11071 
L 369.908338 231.007496 
L 372.049435 225.074144 
L 374.357252 219.316007 
L 376.829492 213.737549 
L 379.462716 208.342303 
L 382.252359 203.132836 
L 385.192759 198.110709 
L 388.277186 193.276448 
L 391.497883 188.629508 
L 394.846114 184.168251 
L 398.312215 179.889925 
L 402.288843 175.346009 
L 406.382361 171.016115 
L 410.576056 166.891496 
L 415.283678 162.578929 
L 420.503974 158.123739 
L 426.22118 153.563032 
L 432.400831 148.920397 
L 440.291811 143.281169 
L 458.997309 130.034478 
L 464.302496 125.91686 
L 468.582579 122.301536 
L 471.935821 119.198095 
L 475.075162 115.989412 
L 477.702583 112.995453 
L 480.128767 109.887865 
L 482.105813 107.021566 
L 483.904204 104.051236 
L 485.514553 100.972778 
L 486.927269 97.784133 
L 488.132459 94.485581 
L 489.119804 91.080065 
L 489.878435 87.573541 
L 490.345542 84.42973 
L 490.620399 81.224304 
L 490.69625 78.436072 
L 490.69625 78.436072 
" style="fill:none;stroke:#1f77b4;stroke-linecap:square;stroke-width:4;"/>
   </g>
   <g id="line2d_16">
    <path clip-path="url(#p6e500d55c6)" d="M 286.12225 589.871072 
L 286.237288 586.484504 
L 286.562502 583.3303 
L 287.074309 580.374056 
L 287.841655 577.284804 
L 288.803256 574.365918 
L 289.949068 571.584696 
L 291.414548 568.649129 
L 293.089127 565.808332 
L 295.14838 562.778069 
L 297.644258 559.530177 
L 300.849523 555.764687 
L 305.11637 551.122573 
L 319.321842 535.91361 
L 323.394959 531.122261 
L 327.178006 526.33271 
L 330.62983 521.593804 
L 333.728939 516.963668 
L 336.738964 512.045988 
L 339.377545 507.316636 
L 341.905649 502.334314 
L 344.308268 497.094594 
L 346.572333 491.594964 
L 348.686886 485.834866 
L 350.643222 479.815707 
L 352.434984 473.540853 
L 354.058229 467.015609 
L 355.511453 460.247169 
L 356.79558 453.244566 
L 358.016827 445.284165 
L 359.045134 437.070189 
L 359.959675 427.842596 
L 360.675629 418.363188 
L 361.252649 407.844487 
L 361.703255 395.437814 
L 362.015765 380.259348 
L 362.255438 355.434821 
L 362.548888 332.31267 
L 362.944986 317.942491 
L 363.470801 306.302112 
L 364.163764 295.69844 
L 365.008019 286.119856 
L 365.974983 277.540361 
L 367.142758 269.172844 
L 368.389839 261.764433 
L 369.822075 254.556725 
L 371.445922 247.559459 
L 373.266057 240.780733 
L 375.074422 234.872065 
L 377.044984 229.149105 
L 379.177416 223.614172 
L 381.470232 218.268425 
L 383.920806 213.111847 
L 386.525404 208.143253 
L 389.279217 203.360293 
L 392.176402 198.759464 
L 395.210124 194.336128 
L 398.372603 190.084537 
L 402.026898 185.553635 
L 405.816303 181.215432 
L 409.726498 177.057532 
L 414.148777 172.675552 
L 419.092602 168.101065 
L 424.554797 163.355294 
L 430.942524 158.10039 
L 440.342076 150.691316 
L 452.853652 140.810381 
L 458.812035 135.815925 
L 463.736447 131.392687 
L 467.690595 127.553244 
L 471.089244 123.969535 
L 474.278224 120.285868 
L 476.951127 116.879072 
L 479.421457 113.383067 
L 481.674808 109.798744 
L 483.697818 106.130789 
L 485.29294 102.807413 
L 486.689263 99.434793 
L 487.880819 96.026241 
L 488.863243 92.599101 
L 489.634105 89.175257 
L 490.19328 85.781669 
L 490.572697 82.040927 
L 490.69625 78.436072 
L 490.69625 78.436072 
" style="fill:none;stroke:#ff7f0e;stroke-linecap:square;stroke-width:4;"/>
   </g>
   <g id="line2d_17">
    <path clip-path="url(#p6e500d55c6)" d="M 286.12225 589.871072 
L 286.245252 586.37265 
L 286.592153 583.125073 
L 287.138244 580.081595 
L 287.867716 577.202358 
L 288.87078 574.183993 
L 290.077529 571.283012 
L 291.484533 568.464306 
L 293.245249 565.446094 
L 295.414562 562.200754 
L 298.046547 558.684171 
L 301.409407 554.571344 
L 306.831647 548.337037 
L 315.516914 538.33718 
L 319.948859 532.885459 
L 323.859066 527.725702 
L 327.190637 522.984824 
L 330.467658 517.929047 
L 333.395794 513.003337 
L 336.227229 507.787863 
L 338.699303 502.78797 
L 341.059418 497.537164 
L 343.295111 492.032779 
L 345.395951 486.274007 
L 347.353673 480.261935 
L 349.162267 473.999547 
L 350.818031 467.491721 
L 352.319592 460.7452 
L 353.794393 453.058606 
L 355.088202 445.107427 
L 356.30221 436.150839 
L 357.323836 426.922985 
L 358.234271 416.651559 
L 359.017105 405.313221 
L 359.710546 392.06818 
L 360.4022 374.352101 
L 361.966764 331.743072 
L 362.773976 317.473219 
L 363.643618 305.923147 
L 364.655836 295.40885 
L 365.791551 285.916818 
L 367.02049 277.419458 
L 368.443112 269.136092 
L 369.914003 261.80531 
L 371.561081 254.675661 
L 373.389474 247.756189 
L 375.402631 241.054232 
L 377.602318 234.575373 
L 379.741622 228.938317 
L 382.031013 223.486568 
L 384.468332 218.220433 
L 387.050371 213.13902 
L 389.77291 208.240248 
L 392.630748 203.52086 
L 395.957305 198.482079 
L 399.433568 193.651605 
L 403.048515 189.020104 
L 406.789903 184.576665 
L 411.035463 179.891245 
L 415.3985 175.399901 
L 420.267753 170.69772 
L 426.055624 165.435063 
L 432.751886 159.655294 
L 444.039848 150.262509 
L 453.388664 142.376297 
L 459.223114 137.176082 
L 464.044699 132.581324 
L 467.916467 128.605485 
L 471.566723 124.533167 
L 474.66889 120.738495 
L 477.543616 116.851443 
L 479.920015 113.274316 
L 482.082646 109.626389 
L 484.019248 105.915335 
L 485.719139 102.153257 
L 487.173651 98.357314 
L 488.376636 94.550403 
L 489.32507 90.761911 
L 490.019749 87.028551 
L 490.466106 83.395275 
L 490.675158 79.916286 
L 490.69625 78.436072 
L 490.69625 78.436072 
" style="fill:none;stroke:#2ca02c;stroke-linecap:square;stroke-width:4;"/>
   </g>
   <g id="line2d_18">
    <path clip-path="url(#p6e500d55c6)" d="M 286.12225 589.871072 
L 286.224432 586.672437 
L 286.556601 583.350752 
L 287.101147 580.188581 
L 287.848185 577.146301 
L 288.79354 574.190838 
L 290.049927 571.032515 
L 291.541515 567.911467 
L 293.268006 564.798216 
L 295.400357 561.402021 
L 298.188853 557.408925 
L 301.74711 552.72288 
L 308.1463 544.74307 
L 315.215554 535.825009 
L 319.581721 529.970181 
L 323.434595 524.439788 
L 326.991266 518.930059 
L 330.22023 513.500911 
L 333.107908 508.219152 
L 335.904429 502.634013 
L 338.590566 496.736765 
L 340.92261 491.099627 
L 343.139045 485.196937 
L 345.231398 479.028121 
L 347.193376 472.594626 
L 349.196218 465.216312 
L 351.034303 457.529513 
L 352.708828 449.544679 
L 354.224301 441.275121 
L 355.705287 431.947993 
L 357.122978 421.511161 
L 358.458727 409.924616 
L 359.787357 396.304827 
L 361.242165 378.833258 
L 365.319094 327.817008 
L 366.773535 313.585387 
L 368.262595 301.300919 
L 369.732504 290.941832 
L 371.405149 280.775631 
L 373.133099 271.652657 
L 375.059911 262.73979 
L 376.992091 254.836127 
L 379.101371 247.13555 
L 381.390603 239.649525 
L 383.860501 232.387787 
L 386.236725 226.050602 
L 388.755592 219.906116 
L 391.413158 213.957696 
L 394.204112 208.20753 
L 397.121829 202.656634 
L 400.502776 196.722493 
L 404.017928 191.0324 
L 407.653093 185.582947 
L 411.39258 180.369183 
L 415.60618 174.898599 
L 419.901239 169.695085 
L 424.649732 164.308855 
L 429.829394 158.795495 
L 435.399044 153.204193 
L 441.684152 147.211337 
L 450.044819 139.568693 
L 464.475398 126.423569 
L 469.552042 121.468215 
L 473.604549 117.200317 
L 476.775503 113.551485 
L 479.413545 110.204782 
L 481.770998 106.862311 
L 483.685335 103.789231 
L 485.365256 100.695853 
L 486.813244 97.571053 
L 488.032052 94.403423 
L 489.023873 91.180829 
L 489.78936 87.889891 
L 490.326503 84.515378 
L 490.611758 81.360219 
L 490.69625 78.436072 
L 490.69625 78.436072 
" style="fill:none;stroke:#d62728;stroke-linecap:square;stroke-width:4;"/>
   </g>
   <g id="patch_5">
    <path d="M 107.12 615.442822 
L 107.12 52.864322 
" style="fill:none;stroke:#000000;stroke-linecap:square;stroke-linejoin:miter;stroke-width:0.8;"/>
   </g>
   <g id="patch_6">
    <path d="M 925.416 615.442822 
L 925.416 52.864322 
" style="fill:none;stroke:#000000;stroke-linecap:square;stroke-linejoin:miter;stroke-width:0.8;"/>
   </g>
   <g id="patch_7">
    <path d="M 107.12 615.442822 
L 925.416 615.442822 
" style="fill:none;stroke:#000000;stroke-linecap:square;stroke-linejoin:miter;stroke-width:0.8;"/>
   </g>
   <g id="patch_8">
    <path d="M 107.12 52.864322 
L 925.416 52.864322 
" style="fill:none;stroke:#000000;stroke-linecap:square;stroke-linejoin:miter;stroke-width:0.8;"/>
   </g>
   <g id="legend_1">
    <g id="patch_9">
     <path d="M 636.38475 212.974322 
L 908.616 212.974322 
Q 913.416 212.974322 913.416 208.174322 
L 913.416 69.664322 
Q 913.416 64.864322 908.616 64.864322 
L 636.38475 64.864322 
Q 631.58475 64.864322 631.58475 69.664322 
L 631.58475 208.174322 
Q 631.58475 212.974322 636.38475 212.974322 
z
" style="fill:#ffffff;opacity:0.8;stroke:#cccccc;stroke-linejoin:miter;"/>
    </g>
    <g id="line2d_19">
     <path d="M 641.18475 84.300572 
L 689.18475 84.300572 
" style="fill:none;stroke:#1f77b4;stroke-linecap:square;stroke-width:4;"/>
    </g>
    <g id="line2d_20"/>
    <g id="text_17">
     <!-- No Elevation -->
     <g transform="translate(708.38475 92.700572)scale(0.24 -0.24)">
      <defs>
       <path d="M 628 4666 
L 1478 4666 
L 3547 763 
L 3547 4666 
L 4159 4666 
L 4159 0 
L 3309 0 
L 1241 3903 
L 1241 0 
L 628 0 
L 628 4666 
z
" id="DejaVuSans-4e" transform="scale(0.015625)"/>
       <path d="M 628 4666 
L 3578 4666 
L 3578 4134 
L 1259 4134 
L 1259 2753 
L 3481 2753 
L 3481 2222 
L 1259 2222 
L 1259 531 
L 3634 531 
L 3634 0 
L 628 0 
L 628 4666 
z
" id="DejaVuSans-45" transform="scale(0.015625)"/>
       <path d="M 603 4863 
L 1178 4863 
L 1178 0 
L 603 0 
L 603 4863 
z
" id="DejaVuSans-6c" transform="scale(0.015625)"/>
       <path d="M 3597 1894 
L 3597 1613 
L 953 1613 
Q 991 1019 1311 708 
Q 1631 397 2203 397 
Q 2534 397 2845 478 
Q 3156 559 3463 722 
L 3463 178 
Q 3153 47 2828 -22 
Q 2503 -91 2169 -91 
Q 1331 -91 842 396 
Q 353 884 353 1716 
Q 353 2575 817 3079 
Q 1281 3584 2069 3584 
Q 2775 3584 3186 3129 
Q 3597 2675 3597 1894 
z
M 3022 2063 
Q 3016 2534 2758 2815 
Q 2500 3097 2075 3097 
Q 1594 3097 1305 2825 
Q 1016 2553 972 2059 
L 3022 2063 
z
" id="DejaVuSans-65" transform="scale(0.015625)"/>
       <path d="M 191 3500 
L 800 3500 
L 1894 563 
L 2988 3500 
L 3597 3500 
L 2284 0 
L 1503 0 
L 191 3500 
z
" id="DejaVuSans-76" transform="scale(0.015625)"/>
       <path d="M 2194 1759 
Q 1497 1759 1228 1600 
Q 959 1441 959 1056 
Q 959 750 1161 570 
Q 1363 391 1709 391 
Q 2188 391 2477 730 
Q 2766 1069 2766 1631 
L 2766 1759 
L 2194 1759 
z
M 3341 1997 
L 3341 0 
L 2766 0 
L 2766 531 
Q 2569 213 2275 61 
Q 1981 -91 1556 -91 
Q 1019 -91 701 211 
Q 384 513 384 1019 
Q 384 1609 779 1909 
Q 1175 2209 1959 2209 
L 2766 2209 
L 2766 2266 
Q 2766 2663 2505 2880 
Q 2244 3097 1772 3097 
Q 1472 3097 1187 3025 
Q 903 2953 641 2809 
L 641 3341 
Q 956 3463 1253 3523 
Q 1550 3584 1831 3584 
Q 2591 3584 2966 3190 
Q 3341 2797 3341 1997 
z
" id="DejaVuSans-61" transform="scale(0.015625)"/>
      </defs>
      <use xlink:href="#DejaVuSans-4e"/>
      <use x="74.804688" xlink:href="#DejaVuSans-6f"/>
      <use x="135.986328" xlink:href="#DejaVuSans-20"/>
      <use x="167.773438" xlink:href="#DejaVuSans-45"/>
      <use x="230.957031" xlink:href="#DejaVuSans-6c"/>
      <use x="258.740234" xlink:href="#DejaVuSans-65"/>
      <use x="320.263672" xlink:href="#DejaVuSans-76"/>
      <use x="379.443359" xlink:href="#DejaVuSans-61"/>
      <use x="440.722656" xlink:href="#DejaVuSans-74"/>
      <use x="479.931641" xlink:href="#DejaVuSans-69"/>
      <use x="507.714844" xlink:href="#DejaVuSans-6f"/>
      <use x="568.896484" xlink:href="#DejaVuSans-6e"/>
     </g>
    </g>
    <g id="line2d_21">
     <path d="M 641.18475 119.528072 
L 689.18475 119.528072 
" style="fill:none;stroke:#ff7f0e;stroke-linecap:square;stroke-width:4;"/>
    </g>
    <g id="line2d_22"/>
    <g id="text_18">
     <!-- Elevated by 30 -->
     <g transform="translate(708.38475 127.928072)scale(0.24 -0.24)">
      <defs>
       <path d="M 2906 2969 
L 2906 4863 
L 3481 4863 
L 3481 0 
L 2906 0 
L 2906 525 
Q 2725 213 2448 61 
Q 2172 -91 1784 -91 
Q 1150 -91 751 415 
Q 353 922 353 1747 
Q 353 2572 751 3078 
Q 1150 3584 1784 3584 
Q 2172 3584 2448 3432 
Q 2725 3281 2906 2969 
z
M 947 1747 
Q 947 1113 1208 752 
Q 1469 391 1925 391 
Q 2381 391 2643 752 
Q 2906 1113 2906 1747 
Q 2906 2381 2643 2742 
Q 2381 3103 1925 3103 
Q 1469 3103 1208 2742 
Q 947 2381 947 1747 
z
" id="DejaVuSans-64" transform="scale(0.015625)"/>
       <path d="M 3116 1747 
Q 3116 2381 2855 2742 
Q 2594 3103 2138 3103 
Q 1681 3103 1420 2742 
Q 1159 2381 1159 1747 
Q 1159 1113 1420 752 
Q 1681 391 2138 391 
Q 2594 391 2855 752 
Q 3116 1113 3116 1747 
z
M 1159 2969 
Q 1341 3281 1617 3432 
Q 1894 3584 2278 3584 
Q 2916 3584 3314 3078 
Q 3713 2572 3713 1747 
Q 3713 922 3314 415 
Q 2916 -91 2278 -91 
Q 1894 -91 1617 61 
Q 1341 213 1159 525 
L 1159 0 
L 581 0 
L 581 4863 
L 1159 4863 
L 1159 2969 
z
" id="DejaVuSans-62" transform="scale(0.015625)"/>
       <path d="M 2059 -325 
Q 1816 -950 1584 -1140 
Q 1353 -1331 966 -1331 
L 506 -1331 
L 506 -850 
L 844 -850 
Q 1081 -850 1212 -737 
Q 1344 -625 1503 -206 
L 1606 56 
L 191 3500 
L 800 3500 
L 1894 763 
L 2988 3500 
L 3597 3500 
L 2059 -325 
z
" id="DejaVuSans-79" transform="scale(0.015625)"/>
       <path d="M 2597 2516 
Q 3050 2419 3304 2112 
Q 3559 1806 3559 1356 
Q 3559 666 3084 287 
Q 2609 -91 1734 -91 
Q 1441 -91 1130 -33 
Q 819 25 488 141 
L 488 750 
Q 750 597 1062 519 
Q 1375 441 1716 441 
Q 2309 441 2620 675 
Q 2931 909 2931 1356 
Q 2931 1769 2642 2001 
Q 2353 2234 1838 2234 
L 1294 2234 
L 1294 2753 
L 1863 2753 
Q 2328 2753 2575 2939 
Q 2822 3125 2822 3475 
Q 2822 3834 2567 4026 
Q 2313 4219 1838 4219 
Q 1578 4219 1281 4162 
Q 984 4106 628 3988 
L 628 4550 
Q 988 4650 1302 4700 
Q 1616 4750 1894 4750 
Q 2613 4750 3031 4423 
Q 3450 4097 3450 3541 
Q 3450 3153 3228 2886 
Q 3006 2619 2597 2516 
z
" id="DejaVuSans-33" transform="scale(0.015625)"/>
      </defs>
      <use xlink:href="#DejaVuSans-45"/>
      <use x="63.183594" xlink:href="#DejaVuSans-6c"/>
      <use x="90.966797" xlink:href="#DejaVuSans-65"/>
      <use x="152.490234" xlink:href="#DejaVuSans-76"/>
      <use x="211.669922" xlink:href="#DejaVuSans-61"/>
      <use x="272.949219" xlink:href="#DejaVuSans-74"/>
      <use x="312.158203" xlink:href="#DejaVuSans-65"/>
      <use x="373.681641" xlink:href="#DejaVuSans-64"/>
      <use x="437.158203" xlink:href="#DejaVuSans-20"/>
      <use x="468.945312" xlink:href="#DejaVuSans-62"/>
      <use x="532.421875" xlink:href="#DejaVuSans-79"/>
      <use x="591.601562" xlink:href="#DejaVuSans-20"/>
      <use x="623.388672" xlink:href="#DejaVuSans-33"/>
      <use x="687.011719" xlink:href="#DejaVuSans-30"/>
     </g>
    </g>
    <g id="line2d_23">
     <path d="M 641.18475 154.755572 
L 689.18475 154.755572 
" style="fill:none;stroke:#2ca02c;stroke-linecap:square;stroke-width:4;"/>
    </g>
    <g id="line2d_24"/>
    <g id="text_19">
     <!-- Elevated by 100 -->
     <g transform="translate(708.38475 163.155572)scale(0.24 -0.24)">
      <use xlink:href="#DejaVuSans-45"/>
      <use x="63.183594" xlink:href="#DejaVuSans-6c"/>
      <use x="90.966797" xlink:href="#DejaVuSans-65"/>
      <use x="152.490234" xlink:href="#DejaVuSans-76"/>
      <use x="211.669922" xlink:href="#DejaVuSans-61"/>
      <use x="272.949219" xlink:href="#DejaVuSans-74"/>
      <use x="312.158203" xlink:href="#DejaVuSans-65"/>
      <use x="373.681641" xlink:href="#DejaVuSans-64"/>
      <use x="437.158203" xlink:href="#DejaVuSans-20"/>
      <use x="468.945312" xlink:href="#DejaVuSans-62"/>
      <use x="532.421875" xlink:href="#DejaVuSans-79"/>
      <use x="591.601562" xlink:href="#DejaVuSans-20"/>
      <use x="623.388672" xlink:href="#DejaVuSans-31"/>
      <use x="687.011719" xlink:href="#DejaVuSans-30"/>
      <use x="750.634766" xlink:href="#DejaVuSans-30"/>
     </g>
    </g>
    <g id="line2d_25">
     <path d="M 641.18475 189.983072 
L 689.18475 189.983072 
" style="fill:none;stroke:#d62728;stroke-linecap:square;stroke-width:4;"/>
    </g>
    <g id="line2d_26"/>
    <g id="text_20">
     <!-- Exact Extrema -->
     <g transform="translate(708.38475 198.383072)scale(0.24 -0.24)">
      <defs>
       <path d="M 3513 3500 
L 2247 1797 
L 3578 0 
L 2900 0 
L 1881 1375 
L 863 0 
L 184 0 
L 1544 1831 
L 300 3500 
L 978 3500 
L 1906 2253 
L 2834 3500 
L 3513 3500 
z
" id="DejaVuSans-78" transform="scale(0.015625)"/>
       <path d="M 3122 3366 
L 3122 2828 
Q 2878 2963 2633 3030 
Q 2388 3097 2138 3097 
Q 1578 3097 1268 2742 
Q 959 2388 959 1747 
Q 959 1106 1268 751 
Q 1578 397 2138 397 
Q 2388 397 2633 464 
Q 2878 531 3122 666 
L 3122 134 
Q 2881 22 2623 -34 
Q 2366 -91 2075 -91 
Q 1284 -91 818 406 
Q 353 903 353 1747 
Q 353 2603 823 3093 
Q 1294 3584 2113 3584 
Q 2378 3584 2631 3529 
Q 2884 3475 3122 3366 
z
" id="DejaVuSans-63" transform="scale(0.015625)"/>
       <path d="M 2631 2963 
Q 2534 3019 2420 3045 
Q 2306 3072 2169 3072 
Q 1681 3072 1420 2755 
Q 1159 2438 1159 1844 
L 1159 0 
L 581 0 
L 581 3500 
L 1159 3500 
L 1159 2956 
Q 1341 3275 1631 3429 
Q 1922 3584 2338 3584 
Q 2397 3584 2469 3576 
Q 2541 3569 2628 3553 
L 2631 2963 
z
" id="DejaVuSans-72" transform="scale(0.015625)"/>
      </defs>
      <use xlink:href="#DejaVuSans-45"/>
      <use x="63.183594" xlink:href="#DejaVuSans-78"/>
      <use x="122.363281" xlink:href="#DejaVuSans-61"/>
      <use x="183.642578" xlink:href="#DejaVuSans-63"/>
      <use x="238.623047" xlink:href="#DejaVuSans-74"/>
      <use x="277.832031" xlink:href="#DejaVuSans-20"/>
      <use x="309.619141" xlink:href="#DejaVuSans-45"/>
      <use x="372.802734" xlink:href="#DejaVuSans-78"/>
      <use x="431.982422" xlink:href="#DejaVuSans-74"/>
      <use x="471.191406" xlink:href="#DejaVuSans-72"/>
      <use x="510.054688" xlink:href="#DejaVuSans-65"/>
      <use x="571.578125" xlink:href="#DejaVuSans-6d"/>
      <use x="668.990234" xlink:href="#DejaVuSans-61"/>
     </g>
    </g>
   </g>
  </g>
 </g>
 <defs>
  <clipPath id="p6e500d55c6">
   <rect height="562.5785" width="818.296" x="107.12" y="52.864322"/>
  </clipPath>
 </defs>
</svg>
