<?xml version="1.0" encoding="utf-8" standalone="no"?>
<!DOCTYPE svg PUBLIC "-//W3C//DTD SVG 1.1//EN"
  "http://www.w3.org/Graphics/SVG/1.1/DTD/svg11.dtd">
<svg height="720pt" version="1.1" viewBox="0 0 959.976 720" width="959.976pt" xmlns="http://www.w3.org/2000/svg" xmlns:xlink="http://www.w3.org/1999/xlink">
 <metadata>
  <rdf:RDF xmlns:cc="http://creativecommons.org/ns#" xmlns:dc="http://purl.org/dc/elements/1.1/" xmlns:rdf="http://www.w3.org/1999/02/22-rdf-syntax-ns#">
   <cc:Work>
    <dc:type rdf:resource="http://purl.org/dc/dcmitype/StillImage"/>
    <dc:date>2021-10-18T18:22:07.992552</dc:date>
    <dc:format>image/svg+xml</dc:format>
    <dc:creator>
     <cc:Agent>
      <dc:title>Matplotlib v3.4.2, https://matplotlib.org/</dc:title>
     </cc:Agent>
    </dc:creator>
   </cc:Work>
  </rdf:RDF>
 </metadata>
 <defs>
  <style type="text/css">*{stroke-linecap:butt;stroke-linejoin:round;}</style>
 </defs>
 <g id="figure_1">
  <g id="patch_1">
   <path d="M 0 720 
L 959.976 720 
L 959.976 0 
L 0 0 
z
" style="fill:#ffffff;"/>
  </g>
  <g id="axes_1">
   <g id="patch_2">
    <path d="M 130.07 619.72 
L 925.416 619.72 
L 925.416 34.56 
L 130.07 34.56 
z
" style="fill:#ffffff;"/>
   </g>
   <g id="matplotlib.axis_1">
    <g id="xtick_1">
     <g id="line2d_1">
      <defs>
       <path d="M 0 0 
L 0 3.5 
" id="mfa33020824" style="stroke:#000000;stroke-width:0.8;"/>
      </defs>
      <g>
       <use style="stroke:#000000;stroke-width:0.8;" x="196.348833" xlink:href="#mfa33020824" y="619.72"/>
      </g>
     </g>
     <g id="text_1">
      <!-- 0 -->
      <g transform="translate(188.713833 644.95625)scale(0.24 -0.24)">
       <defs>
        <path d="M 2034 4250 
Q 1547 4250 1301 3770 
Q 1056 3291 1056 2328 
Q 1056 1369 1301 889 
Q 1547 409 2034 409 
Q 2525 409 2770 889 
Q 3016 1369 3016 2328 
Q 3016 3291 2770 3770 
Q 2525 4250 2034 4250 
z
M 2034 4750 
Q 2819 4750 3233 4129 
Q 3647 3509 3647 2328 
Q 3647 1150 3233 529 
Q 2819 -91 2034 -91 
Q 1250 -91 836 529 
Q 422 1150 422 2328 
Q 422 3509 836 4129 
Q 1250 4750 2034 4750 
z
" id="DejaVuSans-30" transform="scale(0.015625)"/>
       </defs>
       <use xlink:href="#DejaVuSans-30"/>
      </g>
     </g>
    </g>
    <g id="xtick_2">
     <g id="line2d_2">
      <g>
       <use style="stroke:#000000;stroke-width:0.8;" x="328.9065" xlink:href="#mfa33020824" y="619.72"/>
      </g>
     </g>
     <g id="text_2">
      <!-- 2 -->
      <g transform="translate(321.2715 644.95625)scale(0.24 -0.24)">
       <defs>
        <path d="M 1228 531 
L 3431 531 
L 3431 0 
L 469 0 
L 469 531 
Q 828 903 1448 1529 
Q 2069 2156 2228 2338 
Q 2531 2678 2651 2914 
Q 2772 3150 2772 3378 
Q 2772 3750 2511 3984 
Q 2250 4219 1831 4219 
Q 1534 4219 1204 4116 
Q 875 4013 500 3803 
L 500 4441 
Q 881 4594 1212 4672 
Q 1544 4750 1819 4750 
Q 2544 4750 2975 4387 
Q 3406 4025 3406 3419 
Q 3406 3131 3298 2873 
Q 3191 2616 2906 2266 
Q 2828 2175 2409 1742 
Q 1991 1309 1228 531 
z
" id="DejaVuSans-32" transform="scale(0.015625)"/>
       </defs>
       <use xlink:href="#DejaVuSans-32"/>
      </g>
     </g>
    </g>
    <g id="xtick_3">
     <g id="line2d_3">
      <g>
       <use style="stroke:#000000;stroke-width:0.8;" x="461.464167" xlink:href="#mfa33020824" y="619.72"/>
      </g>
     </g>
     <g id="text_3">
      <!-- 4 -->
      <g transform="translate(453.829167 644.95625)scale(0.24 -0.24)">
       <defs>
        <path d="M 2419 4116 
L 825 1625 
L 2419 1625 
L 2419 4116 
z
M 2253 4666 
L 3047 4666 
L 3047 1625 
L 3713 1625 
L 3713 1100 
L 3047 1100 
L 3047 0 
L 2419 0 
L 2419 1100 
L 313 1100 
L 313 1709 
L 2253 4666 
z
" id="DejaVuSans-34" transform="scale(0.015625)"/>
       </defs>
       <use xlink:href="#DejaVuSans-34"/>
      </g>
     </g>
    </g>
    <g id="xtick_4">
     <g id="line2d_4">
      <g>
       <use style="stroke:#000000;stroke-width:0.8;" x="594.021833" xlink:href="#mfa33020824" y="619.72"/>
      </g>
     </g>
     <g id="text_4">
      <!-- 6 -->
      <g transform="translate(586.386833 644.95625)scale(0.24 -0.24)">
       <defs>
        <path d="M 2113 2584 
Q 1688 2584 1439 2293 
Q 1191 2003 1191 1497 
Q 1191 994 1439 701 
Q 1688 409 2113 409 
Q 2538 409 2786 701 
Q 3034 994 3034 1497 
Q 3034 2003 2786 2293 
Q 2538 2584 2113 2584 
z
M 3366 4563 
L 3366 3988 
Q 3128 4100 2886 4159 
Q 2644 4219 2406 4219 
Q 1781 4219 1451 3797 
Q 1122 3375 1075 2522 
Q 1259 2794 1537 2939 
Q 1816 3084 2150 3084 
Q 2853 3084 3261 2657 
Q 3669 2231 3669 1497 
Q 3669 778 3244 343 
Q 2819 -91 2113 -91 
Q 1303 -91 875 529 
Q 447 1150 447 2328 
Q 447 3434 972 4092 
Q 1497 4750 2381 4750 
Q 2619 4750 2861 4703 
Q 3103 4656 3366 4563 
z
" id="DejaVuSans-36" transform="scale(0.015625)"/>
       </defs>
       <use xlink:href="#DejaVuSans-36"/>
      </g>
     </g>
    </g>
    <g id="xtick_5">
     <g id="line2d_5">
      <g>
       <use style="stroke:#000000;stroke-width:0.8;" x="726.5795" xlink:href="#mfa33020824" y="619.72"/>
      </g>
     </g>
     <g id="text_5">
      <!-- 8 -->
      <g transform="translate(718.9445 644.95625)scale(0.24 -0.24)">
       <defs>
        <path d="M 2034 2216 
Q 1584 2216 1326 1975 
Q 1069 1734 1069 1313 
Q 1069 891 1326 650 
Q 1584 409 2034 409 
Q 2484 409 2743 651 
Q 3003 894 3003 1313 
Q 3003 1734 2745 1975 
Q 2488 2216 2034 2216 
z
M 1403 2484 
Q 997 2584 770 2862 
Q 544 3141 544 3541 
Q 544 4100 942 4425 
Q 1341 4750 2034 4750 
Q 2731 4750 3128 4425 
Q 3525 4100 3525 3541 
Q 3525 3141 3298 2862 
Q 3072 2584 2669 2484 
Q 3125 2378 3379 2068 
Q 3634 1759 3634 1313 
Q 3634 634 3220 271 
Q 2806 -91 2034 -91 
Q 1263 -91 848 271 
Q 434 634 434 1313 
Q 434 1759 690 2068 
Q 947 2378 1403 2484 
z
M 1172 3481 
Q 1172 3119 1398 2916 
Q 1625 2713 2034 2713 
Q 2441 2713 2670 2916 
Q 2900 3119 2900 3481 
Q 2900 3844 2670 4047 
Q 2441 4250 2034 4250 
Q 1625 4250 1398 4047 
Q 1172 3844 1172 3481 
z
" id="DejaVuSans-38" transform="scale(0.015625)"/>
       </defs>
       <use xlink:href="#DejaVuSans-38"/>
      </g>
     </g>
    </g>
    <g id="xtick_6">
     <g id="line2d_6">
      <g>
       <use style="stroke:#000000;stroke-width:0.8;" x="859.137167" xlink:href="#mfa33020824" y="619.72"/>
      </g>
     </g>
     <g id="text_6">
      <!-- 10 -->
      <g transform="translate(843.867167 644.95625)scale(0.24 -0.24)">
       <defs>
        <path d="M 794 531 
L 1825 531 
L 1825 4091 
L 703 3866 
L 703 4441 
L 1819 4666 
L 2450 4666 
L 2450 531 
L 3481 531 
L 3481 0 
L 794 0 
L 794 531 
z
" id="DejaVuSans-31" transform="scale(0.015625)"/>
       </defs>
       <use xlink:href="#DejaVuSans-31"/>
       <use x="63.623047" xlink:href="#DejaVuSans-30"/>
      </g>
     </g>
    </g>
    <g id="text_7">
     <!-- Time (s) -->
     <g transform="translate(462.6905 678.2625)scale(0.32 -0.32)">
      <defs>
       <path d="M -19 4666 
L 3928 4666 
L 3928 4134 
L 2272 4134 
L 2272 0 
L 1638 0 
L 1638 4134 
L -19 4134 
L -19 4666 
z
" id="DejaVuSans-54" transform="scale(0.015625)"/>
       <path d="M 603 3500 
L 1178 3500 
L 1178 0 
L 603 0 
L 603 3500 
z
M 603 4863 
L 1178 4863 
L 1178 4134 
L 603 4134 
L 603 4863 
z
" id="DejaVuSans-69" transform="scale(0.015625)"/>
       <path d="M 3328 2828 
Q 3544 3216 3844 3400 
Q 4144 3584 4550 3584 
Q 5097 3584 5394 3201 
Q 5691 2819 5691 2113 
L 5691 0 
L 5113 0 
L 5113 2094 
Q 5113 2597 4934 2840 
Q 4756 3084 4391 3084 
Q 3944 3084 3684 2787 
Q 3425 2491 3425 1978 
L 3425 0 
L 2847 0 
L 2847 2094 
Q 2847 2600 2669 2842 
Q 2491 3084 2119 3084 
Q 1678 3084 1418 2786 
Q 1159 2488 1159 1978 
L 1159 0 
L 581 0 
L 581 3500 
L 1159 3500 
L 1159 2956 
Q 1356 3278 1631 3431 
Q 1906 3584 2284 3584 
Q 2666 3584 2933 3390 
Q 3200 3197 3328 2828 
z
" id="DejaVuSans-6d" transform="scale(0.015625)"/>
       <path d="M 3597 1894 
L 3597 1613 
L 953 1613 
Q 991 1019 1311 708 
Q 1631 397 2203 397 
Q 2534 397 2845 478 
Q 3156 559 3463 722 
L 3463 178 
Q 3153 47 2828 -22 
Q 2503 -91 2169 -91 
Q 1331 -91 842 396 
Q 353 884 353 1716 
Q 353 2575 817 3079 
Q 1281 3584 2069 3584 
Q 2775 3584 3186 3129 
Q 3597 2675 3597 1894 
z
M 3022 2063 
Q 3016 2534 2758 2815 
Q 2500 3097 2075 3097 
Q 1594 3097 1305 2825 
Q 1016 2553 972 2059 
L 3022 2063 
z
" id="DejaVuSans-65" transform="scale(0.015625)"/>
       <path id="DejaVuSans-20" transform="scale(0.015625)"/>
       <path d="M 1984 4856 
Q 1566 4138 1362 3434 
Q 1159 2731 1159 2009 
Q 1159 1288 1364 580 
Q 1569 -128 1984 -844 
L 1484 -844 
Q 1016 -109 783 600 
Q 550 1309 550 2009 
Q 550 2706 781 3412 
Q 1013 4119 1484 4856 
L 1984 4856 
z
" id="DejaVuSans-28" transform="scale(0.015625)"/>
       <path d="M 2834 3397 
L 2834 2853 
Q 2591 2978 2328 3040 
Q 2066 3103 1784 3103 
Q 1356 3103 1142 2972 
Q 928 2841 928 2578 
Q 928 2378 1081 2264 
Q 1234 2150 1697 2047 
L 1894 2003 
Q 2506 1872 2764 1633 
Q 3022 1394 3022 966 
Q 3022 478 2636 193 
Q 2250 -91 1575 -91 
Q 1294 -91 989 -36 
Q 684 19 347 128 
L 347 722 
Q 666 556 975 473 
Q 1284 391 1588 391 
Q 1994 391 2212 530 
Q 2431 669 2431 922 
Q 2431 1156 2273 1281 
Q 2116 1406 1581 1522 
L 1381 1569 
Q 847 1681 609 1914 
Q 372 2147 372 2553 
Q 372 3047 722 3315 
Q 1072 3584 1716 3584 
Q 2034 3584 2315 3537 
Q 2597 3491 2834 3397 
z
" id="DejaVuSans-73" transform="scale(0.015625)"/>
       <path d="M 513 4856 
L 1013 4856 
Q 1481 4119 1714 3412 
Q 1947 2706 1947 2009 
Q 1947 1309 1714 600 
Q 1481 -109 1013 -844 
L 513 -844 
Q 928 -128 1133 580 
Q 1338 1288 1338 2009 
Q 1338 2731 1133 3434 
Q 928 4138 513 4856 
z
" id="DejaVuSans-29" transform="scale(0.015625)"/>
      </defs>
      <use xlink:href="#DejaVuSans-54"/>
      <use x="57.958984" xlink:href="#DejaVuSans-69"/>
      <use x="85.742188" xlink:href="#DejaVuSans-6d"/>
      <use x="183.154297" xlink:href="#DejaVuSans-65"/>
      <use x="244.677734" xlink:href="#DejaVuSans-20"/>
      <use x="276.464844" xlink:href="#DejaVuSans-28"/>
      <use x="315.478516" xlink:href="#DejaVuSans-73"/>
      <use x="367.578125" xlink:href="#DejaVuSans-29"/>
     </g>
    </g>
   </g>
   <g id="matplotlib.axis_2">
    <g id="ytick_1">
     <g id="line2d_7">
      <defs>
       <path d="M 0 0 
L -3.5 0 
" id="m05d1c028d2" style="stroke:#000000;stroke-width:0.8;"/>
      </defs>
      <g>
       <use style="stroke:#000000;stroke-width:0.8;" x="130.07" xlink:href="#m05d1c028d2" y="561.204"/>
      </g>
     </g>
     <g id="text_8">
      <!-- −20 -->
      <g transform="translate(72.41875 570.322125)scale(0.24 -0.24)">
       <defs>
        <path d="M 678 2272 
L 4684 2272 
L 4684 1741 
L 678 1741 
L 678 2272 
z
" id="DejaVuSans-2212" transform="scale(0.015625)"/>
       </defs>
       <use xlink:href="#DejaVuSans-2212"/>
       <use x="83.789062" xlink:href="#DejaVuSans-32"/>
       <use x="147.412109" xlink:href="#DejaVuSans-30"/>
      </g>
     </g>
    </g>
    <g id="ytick_2">
     <g id="line2d_8">
      <g>
       <use style="stroke:#000000;stroke-width:0.8;" x="130.07" xlink:href="#m05d1c028d2" y="444.172"/>
      </g>
     </g>
     <g id="text_9">
      <!-- −10 -->
      <g transform="translate(72.41875 453.290125)scale(0.24 -0.24)">
       <use xlink:href="#DejaVuSans-2212"/>
       <use x="83.789062" xlink:href="#DejaVuSans-31"/>
       <use x="147.412109" xlink:href="#DejaVuSans-30"/>
      </g>
     </g>
    </g>
    <g id="ytick_3">
     <g id="line2d_9">
      <g>
       <use style="stroke:#000000;stroke-width:0.8;" x="130.07" xlink:href="#m05d1c028d2" y="327.14"/>
      </g>
     </g>
     <g id="text_10">
      <!-- 0 -->
      <g transform="translate(107.8 336.258125)scale(0.24 -0.24)">
       <use xlink:href="#DejaVuSans-30"/>
      </g>
     </g>
    </g>
    <g id="ytick_4">
     <g id="line2d_10">
      <g>
       <use style="stroke:#000000;stroke-width:0.8;" x="130.07" xlink:href="#m05d1c028d2" y="210.108"/>
      </g>
     </g>
     <g id="text_11">
      <!-- 10 -->
      <g transform="translate(92.53 219.226125)scale(0.24 -0.24)">
       <use xlink:href="#DejaVuSans-31"/>
       <use x="63.623047" xlink:href="#DejaVuSans-30"/>
      </g>
     </g>
    </g>
    <g id="ytick_5">
     <g id="line2d_11">
      <g>
       <use style="stroke:#000000;stroke-width:0.8;" x="130.07" xlink:href="#m05d1c028d2" y="93.076"/>
      </g>
     </g>
     <g id="text_12">
      <!-- 20 -->
      <g transform="translate(92.53 102.194125)scale(0.24 -0.24)">
       <use xlink:href="#DejaVuSans-32"/>
       <use x="63.623047" xlink:href="#DejaVuSans-30"/>
      </g>
     </g>
    </g>
    <g id="text_13">
     <!-- $\tan (\psi)$ -->
     <g transform="translate(61.69875 376.42)rotate(-90)scale(0.32 -0.32)">
      <defs>
       <path d="M 1172 4494 
L 1172 3500 
L 2356 3500 
L 2356 3053 
L 1172 3053 
L 1172 1153 
Q 1172 725 1289 603 
Q 1406 481 1766 481 
L 2356 481 
L 2356 0 
L 1766 0 
Q 1100 0 847 248 
Q 594 497 594 1153 
L 594 3053 
L 172 3053 
L 172 3500 
L 594 3500 
L 594 4494 
L 1172 4494 
z
" id="DejaVuSans-74" transform="scale(0.015625)"/>
       <path d="M 2194 1759 
Q 1497 1759 1228 1600 
Q 959 1441 959 1056 
Q 959 750 1161 570 
Q 1363 391 1709 391 
Q 2188 391 2477 730 
Q 2766 1069 2766 1631 
L 2766 1759 
L 2194 1759 
z
M 3341 1997 
L 3341 0 
L 2766 0 
L 2766 531 
Q 2569 213 2275 61 
Q 1981 -91 1556 -91 
Q 1019 -91 701 211 
Q 384 513 384 1019 
Q 384 1609 779 1909 
Q 1175 2209 1959 2209 
L 2766 2209 
L 2766 2266 
Q 2766 2663 2505 2880 
Q 2244 3097 1772 3097 
Q 1472 3097 1187 3025 
Q 903 2953 641 2809 
L 641 3341 
Q 956 3463 1253 3523 
Q 1550 3584 1831 3584 
Q 2591 3584 2966 3190 
Q 3341 2797 3341 1997 
z
" id="DejaVuSans-61" transform="scale(0.015625)"/>
       <path d="M 3513 2113 
L 3513 0 
L 2938 0 
L 2938 2094 
Q 2938 2591 2744 2837 
Q 2550 3084 2163 3084 
Q 1697 3084 1428 2787 
Q 1159 2491 1159 1978 
L 1159 0 
L 581 0 
L 581 3500 
L 1159 3500 
L 1159 2956 
Q 1366 3272 1645 3428 
Q 1925 3584 2291 3584 
Q 2894 3584 3203 3211 
Q 3513 2838 3513 2113 
z
" id="DejaVuSans-6e" transform="scale(0.015625)"/>
       <path d="M 1591 -78 
Q 891 38 616 341 
Q 278 713 425 1472 
L 819 3500 
L 1400 3500 
L 1009 1494 
Q 900 922 1119 684 
Q 1313 478 1691 434 
L 2284 3500 
L 2856 3500 
L 2263 438 
Q 2681 481 2928 688 
Q 3247 950 3353 1497 
L 3741 3500 
L 4322 3500 
L 3928 1475 
Q 3775 688 3300 344 
Q 2872 34 2163 -75 
L 1919 -1331 
L 1347 -1331 
L 1591 -78 
z
" id="DejaVuSans-Oblique-3c8" transform="scale(0.015625)"/>
      </defs>
      <use transform="translate(0 0.125)" xlink:href="#DejaVuSans-74"/>
      <use transform="translate(39.208984 0.125)" xlink:href="#DejaVuSans-61"/>
      <use transform="translate(100.488281 0.125)" xlink:href="#DejaVuSans-6e"/>
      <use transform="translate(163.867188 0.125)" xlink:href="#DejaVuSans-28"/>
      <use transform="translate(202.880859 0.125)" xlink:href="#DejaVuSans-Oblique-3c8"/>
      <use transform="translate(268.847656 0.125)" xlink:href="#DejaVuSans-29"/>
     </g>
    </g>
   </g>
   <g id="line2d_12">
    <path clip-path="url(#p86534f60a0)" d="M 196.954406 721 
L 196.954443 -1 
M 198.725572 -1 
L 198.771469 7.090797 
L 199.377128 71.162316 
L 199.982786 113.886547 
L 200.588445 144.412188 
L 201.194104 167.313523 
L 201.799763 185.131794 
L 203.011081 211.063624 
L 204.222398 229.031603 
L 205.433716 242.220189 
L 206.645034 252.315249 
L 207.856351 260.292798 
L 209.067669 266.757027 
L 210.278987 272.101965 
L 211.490304 276.595545 
L 212.701622 280.426309 
L 213.91294 283.73078 
L 215.729916 287.915337 
L 217.546893 291.383568 
L 219.363869 294.303527 
L 221.180846 296.794076 
L 222.997822 298.941652 
L 224.814799 300.810615 
L 227.237434 302.952051 
L 229.66007 304.77056 
L 232.082705 306.329314 
L 235.110999 307.983142 
L 238.139294 309.372101 
L 241.773247 310.75831 
L 245.4072 311.896752 
L 249.646812 312.971549 
L 253.886424 313.822516 
L 258.731694 314.56877 
L 264.182624 315.167288 
L 269.633554 315.549318 
L 275.690142 315.753787 
L 282.352389 315.74054 
L 289.014637 315.497848 
L 295.676884 315.035748 
L 302.339131 314.355151 
L 309.001378 313.448567 
L 315.057967 312.415023 
L 321.114555 311.162963 
L 326.565485 309.827956 
L 332.016414 308.269952 
L 336.861685 306.672048 
L 341.706956 304.844266 
L 345.946568 303.028851 
L 350.18618 300.981559 
L 354.425792 298.667113 
L 358.059745 296.438217 
L 361.693698 293.948609 
L 365.327651 291.158761 
L 368.355945 288.570342 
L 371.384239 285.70733 
L 374.412534 282.530526 
L 377.440828 278.993199 
L 380.469122 275.039268 
L 382.891757 271.53108 
L 385.314393 267.671807 
L 387.737028 263.41275 
L 390.159664 258.696224 
L 392.582299 253.453448 
L 395.004934 247.60184 
L 397.42757 241.041471 
L 399.850205 233.650403 
L 401.667182 227.472894 
L 403.484158 220.667968 
L 405.301135 213.145048 
L 407.118111 204.796035 
L 408.935088 195.490952 
L 410.752064 185.072235 
L 412.569041 173.34716 
L 414.386017 160.077649 
L 416.202994 144.966347 
L 418.01997 127.637275 
L 419.836947 107.608439 
L 421.653923 84.252203 
L 423.4709 56.736571 
L 424.682218 35.541938 
L 425.893535 11.574187 
L 426.470982 -1 
M 446.197082 -1 
L 446.203857 721 
M 487.160431 721 
L 487.163986 -1 
M 507.917774 -1 
L 509.474456 29.980245 
L 511.291432 60.485547 
L 513.108409 86.271625 
L 514.925386 108.306946 
L 516.742362 127.31596 
L 518.559339 143.850964 
L 520.376315 158.34004 
L 522.193292 171.119861 
L 524.010268 182.458653 
L 525.827245 192.57259 
L 527.644221 201.637712 
L 529.461198 209.798728 
L 531.278174 217.175606 
L 533.70081 225.962568 
L 536.123445 233.726917 
L 538.54608 240.625336 
L 540.968716 246.785002 
L 543.391351 252.31012 
L 545.813987 257.286803 
L 548.236622 261.786771 
L 550.659257 265.870182 
L 553.081893 269.587832 
L 556.110187 273.785665 
L 559.138481 277.549727 
L 562.166775 280.938599 
L 565.19507 284.001138 
L 568.223364 286.778371 
L 571.857317 289.782881 
L 575.49127 292.476392 
L 579.125223 294.900514 
L 583.364835 297.434198 
L 587.604447 299.694026 
L 591.844059 301.71764 
L 596.68933 303.780861 
L 601.5346 305.614503 
L 606.98553 307.44183 
L 613.042118 309.221982 
L 619.098707 310.777273 
L 625.760954 312.266269 
L 633.02886 313.663509 
L 640.902425 314.947488 
L 649.381649 316.098909 
L 658.466532 317.098395 
L 667.551414 317.878876 
L 677.241956 318.484999 
L 686.932497 318.86152 
L 696.01738 318.998985 
L 705.102263 318.909846 
L 713.581486 318.594748 
L 720.849393 318.116054 
L 727.51164 317.475437 
L 733.568228 316.69111 
L 739.019158 315.785138 
L 744.470088 314.645538 
L 749.315358 313.388269 
L 753.55497 312.051456 
L 757.188923 310.686127 
L 760.822876 309.067515 
L 763.851171 307.477532 
L 766.879465 305.612243 
L 769.3021 303.873463 
L 771.724736 301.861351 
L 774.147371 299.507489 
L 775.964347 297.462338 
L 777.781324 295.119067 
L 779.598301 292.406752 
L 781.415277 289.229463 
L 783.232254 285.454159 
L 784.443571 282.514446 
L 785.654889 279.149545 
L 786.866207 275.258145 
L 788.077524 270.703695 
L 789.288842 265.297634 
L 790.50016 258.772004 
L 791.711477 250.732755 
L 792.922795 240.575674 
L 794.134113 227.324725 
L 795.34543 209.294017 
L 795.951089 197.590619 
L 796.556748 183.29907 
L 797.162407 165.449087 
L 797.768066 142.515936 
L 798.373725 111.95837 
L 798.979384 69.2021 
L 799.619627 -1 
M 801.402068 -1 
L 801.402106 721 
L 801.402106 721 
" style="fill:none;stroke:#1f77b4;stroke-linecap:square;stroke-width:4;"/>
   </g>
   <g id="line2d_13">
    <path clip-path="url(#p86534f60a0)" d="M 196.854947 721 
L 196.854978 -1 
M 198.735796 -1 
L 198.879817 20.808683 
L 199.386014 71.919073 
L 199.892211 108.434461 
L 200.398407 135.827987 
L 201.410801 174.195554 
L 202.423194 199.792054 
L 203.435588 218.090306 
L 204.447981 231.82662 
L 205.460375 242.521095 
L 206.472768 251.085726 
L 207.485162 258.100825 
L 208.497555 263.953221 
L 210.016146 271.115781 
L 211.534736 276.854681 
L 213.053326 281.556493 
L 214.571917 285.478835 
L 216.090507 288.799984 
L 217.609097 291.647227 
L 219.127687 294.11387 
L 221.152474 296.929121 
L 223.177261 299.312646 
L 225.202048 301.352493 
L 227.226835 303.113637 
L 229.757819 304.996703 
L 232.288803 306.591847 
L 234.819787 307.952093 
L 237.856967 309.330079 
L 240.894148 310.479342 
L 244.437525 311.582791 
L 248.487099 312.586865 
L 252.536673 313.365371 
L 257.092444 314.017917 
L 262.154412 314.510789 
L 267.722576 314.814022 
L 273.29074 314.900234 
L 279.365101 314.772642 
L 285.439462 314.429115 
L 291.513823 313.874787 
L 297.588184 313.105188 
L 303.662546 312.106578 
L 309.23071 310.970107 
L 314.798874 309.59527 
L 319.860842 308.10877 
L 324.416613 306.548623 
L 328.972383 304.744515 
L 333.021957 302.903536 
L 337.071531 300.802746 
L 340.614909 298.717671 
L 344.158286 296.365461 
L 347.195467 294.104576 
L 350.232647 291.584093 
L 353.269828 288.765792 
L 356.307008 285.604014 
L 358.837992 282.667562 
L 361.368976 279.41697 
L 363.899959 275.80786 
L 366.430943 271.787759 
L 368.961927 267.2943 
L 371.492911 262.25295 
L 373.517698 257.765775 
L 375.542485 252.816649 
L 377.567272 247.342075 
L 379.592059 241.267497 
L 381.616846 234.504987 
L 383.641633 226.950351 
L 385.66642 218.479527 
L 387.691207 208.944051 
L 389.715994 198.165338 
L 391.740781 185.92745 
L 393.765568 171.967896 
L 395.790355 155.965934 
L 397.308945 142.390442 
L 398.827536 127.247302 
L 400.346126 110.30292 
L 401.864716 91.282751 
L 403.383306 69.863743 
L 404.901897 45.665674 
L 406.420487 18.241507 
L 407.3798 -1 
M 456.770623 -1 
L 458.052556 24.368039 
L 459.571146 51.04035 
L 461.089737 74.5967 
L 462.608327 95.467461 
L 464.126917 114.018585 
L 466.151704 135.67567 
L 468.176491 154.367934 
L 470.201278 170.589133 
L 472.226065 184.739419 
L 474.250852 197.144553 
L 476.275639 208.071063 
L 478.300426 217.738142 
L 480.325213 226.327014 
L 482.35 233.988291 
L 484.374787 240.847797 
L 486.399574 247.011174 
L 488.424361 252.567551 
L 490.449148 257.592482 
L 492.980132 263.223399 
L 495.511116 268.22939 
L 498.0421 272.697869 
L 500.573084 276.701626 
L 503.104067 280.30163 
L 505.635051 283.549222 
L 508.166035 286.487868 
L 511.203215 289.658103 
L 514.240396 292.490258 
L 517.277576 295.029201 
L 520.820954 297.67054 
L 524.364331 300.013416 
L 527.907708 302.098798 
L 531.957282 304.210128 
L 536.006856 306.071206 
L 540.562627 307.9082 
L 545.118398 309.511389 
L 550.180366 311.057352 
L 555.74853 312.512227 
L 561.822891 313.847796 
L 567.897252 314.956937 
L 574.47781 315.935708 
L 581.564564 316.760144 
L 588.651319 317.368916 
L 596.24427 317.797956 
L 603.837222 318.003273 
L 611.430173 317.982139 
L 618.516928 317.745959 
L 625.097485 317.320024 
L 631.678043 316.666078 
L 637.246208 315.903133 
L 642.308175 315.009476 
L 647.370143 313.883887 
L 651.925913 312.625835 
L 655.975488 311.264064 
L 659.518865 309.837809 
L 662.556045 308.399144 
L 665.593226 306.713238 
L 668.12421 305.075457 
L 670.655193 303.175336 
L 673.186177 300.948377 
L 675.210964 298.873039 
L 677.235751 296.471114 
L 679.260538 293.660021 
L 680.779129 291.216297 
L 682.297719 288.414827 
L 683.816309 285.170277 
L 685.334899 281.367326 
L 686.85349 276.846174 
L 688.37208 271.378746 
L 689.384473 267.047917 
L 690.396867 262.009644 
L 691.40926 256.072282 
L 692.421654 248.967621 
L 693.434047 240.308356 
L 694.446441 229.513669 
L 695.458834 215.67102 
L 696.471228 197.259731 
L 697.483622 171.542867 
L 697.989818 154.42442 
L 698.496015 133.046943 
L 699.002212 105.586018 
L 699.508409 69.000957 
L 700.138759 -1 
M 702.039445 -1 
L 702.039476 721 
L 702.039476 721 
" style="fill:none;stroke:#ff7f0e;stroke-linecap:square;stroke-width:4;"/>
   </g>
   <g id="line2d_14">
    <path clip-path="url(#p86534f60a0)" d="M 196.820663 721 
L 196.820692 -1 
M 198.712421 -1 
L 199.180305 53.351875 
L 199.652217 92.51618 
L 200.596041 144.752515 
L 201.539865 178.012402 
L 202.483689 201.053751 
L 203.427513 217.963452 
L 204.371337 230.905064 
L 205.315161 241.1311 
L 206.258985 249.416869 
L 207.202809 256.267954 
L 208.618545 264.577586 
L 210.034281 271.176361 
L 211.450017 276.543702 
L 212.865753 280.994557 
L 214.281489 284.744337 
L 215.697225 287.945354 
L 217.112961 290.708341 
L 219.000609 293.850465 
L 220.888257 296.501476 
L 222.775905 298.763741 
L 224.663553 300.712365 
L 227.023113 302.79167 
L 229.382673 304.550204 
L 231.742233 306.048378 
L 234.573705 307.565747 
L 237.405177 308.832199 
L 240.708561 310.050778 
L 244.011945 311.039741 
L 247.787241 311.938334 
L 252.034449 312.704717 
L 256.753569 313.304367 
L 261.472689 313.680796 
L 266.663721 313.873071 
L 272.326665 313.848097 
L 277.989609 313.59823 
L 283.652553 313.132664 
L 289.315497 312.450757 
L 294.978441 311.542837 
L 300.169473 310.496206 
L 305.360505 309.222402 
L 310.079625 307.842575 
L 314.798745 306.221795 
L 319.045953 304.526957 
L 323.293161 302.574067 
L 327.068457 300.588591 
L 330.843753 298.331926 
L 334.147137 296.101848 
L 337.450521 293.598053 
L 340.753905 290.780437 
L 343.585377 288.079675 
L 346.416849 285.078209 
L 349.24832 281.734954 
L 352.079792 278.001973 
L 354.439352 274.553308 
L 356.798912 270.757864 
L 359.158472 266.573 
L 361.518032 261.950102 
L 363.877592 256.833799 
L 366.237152 251.161139 
L 368.596712 244.860771 
L 370.956272 237.852224 
L 373.315832 230.04541 
L 375.675392 221.340562 
L 378.034952 211.628949 
L 380.394512 200.794877 
L 382.754072 188.719686 
L 385.113632 175.288806 
L 387.473192 160.403206 
L 389.832752 143.996952 
L 392.192312 126.062616 
L 395.023784 102.654085 
L 398.327168 73.306247 
L 404.462024 18.249347 
L 406.349672 3.228592 
L 406.929167 -1 
M 422.36365 -1 
L 423.810416 9.901082 
L 426.169976 29.667999 
L 430.417184 68.056251 
L 434.19248 101.61053 
L 437.023952 124.982195 
L 439.383512 142.907805 
L 441.743072 159.322603 
L 444.102632 174.231346 
L 446.462192 187.697411 
L 448.821752 199.817508 
L 451.181312 210.704188 
L 453.540872 220.474394 
L 455.900432 229.242398 
L 458.259992 237.115767 
L 460.619552 244.193332 
L 462.979112 250.564437 
L 465.338672 256.308967 
L 467.698232 261.497815 
L 470.057792 266.193586 
L 472.417352 270.451388 
L 474.776912 274.319639 
L 477.608384 278.506806 
L 480.439856 282.257645 
L 483.271328 285.626652 
L 486.1028 288.660519 
L 488.934272 291.399313 
L 492.237656 294.267334 
L 495.54104 296.827067 
L 498.844424 299.117846 
L 502.61972 301.449003 
L 506.395016 303.51391 
L 510.642224 305.561716 
L 514.889432 307.357308 
L 519.608552 309.097262 
L 524.327672 310.604774 
L 529.518703 312.030673 
L 535.181647 313.345207 
L 541.316503 314.522445 
L 547.451359 315.474051 
L 554.058127 316.273606 
L 561.136807 316.893781 
L 568.215487 317.284307 
L 575.294167 317.451166 
L 582.372847 317.390752 
L 588.979615 317.1168 
L 595.114471 316.654768 
L 601.249327 315.963857 
L 606.440359 315.169154 
L 611.159479 314.246497 
L 615.878599 313.092167 
L 620.125807 311.809009 
L 623.901103 310.426244 
L 627.204487 308.983526 
L 630.035959 307.533163 
L 632.867431 305.839192 
L 635.226991 304.19903 
L 637.586551 302.302626 
L 639.946111 300.088727 
L 641.833759 298.033991 
L 643.721407 295.666137 
L 645.609055 292.909035 
L 647.496703 289.659052 
L 648.912439 286.813091 
L 650.328175 283.526475 
L 651.743911 279.687589 
L 653.159647 275.143121 
L 654.575383 269.676521 
L 655.991119 262.971557 
L 656.934943 257.586012 
L 657.878767 251.236405 
L 658.822591 243.634997 
L 659.766415 234.366297 
L 660.710239 222.807229 
L 661.654063 207.978883 
L 662.597887 188.250013 
L 663.541711 160.684737 
L 664.013623 142.332518 
L 664.485535 119.411774 
L 664.957447 89.96551 
L 665.429359 50.732097 
L 665.874109 -1 
M 667.788972 -1 
L 667.789001 721 
L 667.789001 721 
" style="fill:none;stroke:#2ca02c;stroke-linecap:square;stroke-width:4;"/>
   </g>
   <g id="line2d_15">
    <path clip-path="url(#p86534f60a0)" d="M 196.776223 721 
L 196.776249 -1 
M 198.731021 -1 
L 198.913653 24.853889 
L 199.768593 100.513628 
L 200.623533 145.927971 
L 201.478473 176.219281 
L 202.333413 197.86838 
L 203.188353 214.115569 
L 204.043293 226.760936 
L 204.898233 236.88447 
L 206.180642 248.779246 
L 207.463052 257.938784 
L 208.745462 265.210224 
L 210.027872 271.122915 
L 211.310282 276.024623 
L 212.592692 280.153233 
L 213.875102 283.676956 
L 215.584982 287.641018 
L 217.294861 290.951525 
L 219.004741 293.753614 
L 220.714621 296.151704 
L 222.424501 298.222858 
L 224.561851 300.439287 
L 226.699201 302.319843 
L 228.83655 303.92735 
L 231.40137 305.561902 
L 233.96619 306.932754 
L 236.95848 308.259714 
L 239.950769 309.344962 
L 243.370529 310.341151 
L 247.217759 311.203881 
L 251.064988 311.838357 
L 255.339688 312.31663 
L 260.041858 312.604796 
L 264.744027 312.672443 
L 269.873667 312.516628 
L 275.003306 312.133483 
L 280.132946 311.525926 
L 285.262585 310.688145 
L 289.964755 309.706026 
L 294.666925 308.501549 
L 298.941624 307.193879 
L 303.216324 305.660092 
L 307.063553 304.062873 
L 310.910783 302.234139 
L 314.758013 300.143681 
L 318.177772 298.036949 
L 321.597532 295.6658 
L 325.017292 292.996355 
L 328.009582 290.385521 
L 331.001871 287.487382 
L 333.994161 284.269454 
L 336.986451 280.696136 
L 339.97874 276.729034 
L 342.54356 272.984611 
L 345.10838 268.895201 
L 347.6732 264.435427 
L 350.23802 259.581966 
L 353.230309 253.396788 
L 356.222599 246.632052 
L 359.214889 239.291327 
L 362.634648 230.244781 
L 366.481878 219.390282 
L 375.886217 192.446371 
L 378.451037 185.983422 
L 380.588387 181.259617 
L 382.298267 178.031315 
L 383.580677 175.982611 
L 384.863086 174.285759 
L 386.145496 172.965601 
L 387.427906 172.041919 
L 388.282846 171.653561 
L 389.137786 171.450365 
L 389.992726 171.433632 
L 390.847666 171.603346 
L 391.702606 171.958169 
L 392.557546 172.495473 
L 393.839956 173.634774 
L 395.122366 175.157689 
L 396.404775 177.040983 
L 398.114655 180.064308 
L 399.824535 183.604058 
L 401.961885 188.630658 
L 404.526705 195.329268 
L 407.946464 204.948784 
L 416.495864 229.303278 
L 419.915623 238.296617 
L 422.907913 245.608979 
L 425.900203 252.361295 
L 428.892492 258.548606 
L 431.884782 264.187246 
L 434.877072 269.306628 
L 437.869362 273.94329 
L 440.861651 278.136789 
L 443.853941 281.927 
L 446.846231 285.352424 
L 449.838521 288.449215 
L 452.83081 291.25069 
L 456.25057 294.129492 
L 459.67033 296.702491 
L 463.090089 299.005292 
L 466.937319 301.311625 
L 470.784549 303.353717 
L 475.059248 305.352543 
L 479.333948 307.103639 
L 484.036118 308.781623 
L 489.165757 310.355373 
L 494.295397 311.69716 
L 499.852506 312.923462 
L 505.837086 314.012929 
L 512.249135 314.945546 
L 518.661184 315.659975 
L 525.500704 316.19995 
L 532.340223 316.520176 
L 539.179743 316.620104 
L 545.591792 316.503243 
L 552.003841 316.1615 
L 557.988421 315.609158 
L 563.11806 314.92323 
L 567.82023 314.086922 
L 572.09493 313.117582 
L 575.942159 312.037335 
L 579.789389 310.714395 
L 583.209149 309.285653 
L 586.201438 307.792455 
L 588.766258 306.28967 
L 591.331078 304.533334 
L 593.468428 302.832416 
L 595.605778 300.866079 
L 597.743127 298.571758 
L 599.453007 296.444128 
L 601.162887 293.99485 
L 602.872767 291.146916 
L 604.582647 287.795922 
L 605.865057 284.867291 
L 607.147466 281.492315 
L 608.429876 277.56035 
L 609.712286 272.920482 
L 610.994696 267.361389 
L 612.277106 260.577765 
L 613.559516 252.111577 
L 614.414456 245.193366 
L 615.269396 236.899558 
L 616.124336 226.771984 
L 616.979276 214.123358 
L 617.834216 197.873614 
L 618.689155 176.222585 
L 619.544095 145.929886 
L 620.399035 100.51461 
L 620.826505 68.085367 
L 621.436609 -1 
M 623.391379 -1 
L 623.391406 721 
L 623.391406 721 
" style="fill:none;stroke:#d62728;stroke-linecap:square;stroke-width:4;"/>
   </g>
   <g id="patch_3">
    <path d="M 130.07 619.72 
L 130.07 34.56 
" style="fill:none;stroke:#000000;stroke-linecap:square;stroke-linejoin:miter;stroke-width:0.8;"/>
   </g>
   <g id="patch_4">
    <path d="M 925.416 619.72 
L 925.416 34.56 
" style="fill:none;stroke:#000000;stroke-linecap:square;stroke-linejoin:miter;stroke-width:0.8;"/>
   </g>
   <g id="patch_5">
    <path d="M 130.07 619.72 
L 925.416 619.72 
" style="fill:none;stroke:#000000;stroke-linecap:square;stroke-linejoin:miter;stroke-width:0.8;"/>
   </g>
   <g id="patch_6">
    <path d="M 130.07 34.56 
L 925.416 34.56 
" style="fill:none;stroke:#000000;stroke-linecap:square;stroke-linejoin:miter;stroke-width:0.8;"/>
   </g>
   <g id="legend_1">
    <g id="patch_7">
     <path d="M 152.47 603.72 
L 515.445 603.72 
Q 521.845 603.72 521.845 597.32 
L 521.845 412.64 
Q 521.845 406.24 515.445 406.24 
L 152.47 406.24 
Q 146.07 406.24 146.07 412.64 
L 146.07 597.32 
Q 146.07 603.72 152.47 603.72 
z
" style="fill:#ffffff;opacity:0.8;stroke:#cccccc;stroke-linejoin:miter;"/>
    </g>
    <g id="line2d_16">
     <path d="M 158.87 432.155 
L 222.87 432.155 
" style="fill:none;stroke:#1f77b4;stroke-linecap:square;stroke-width:4;"/>
    </g>
    <g id="line2d_17"/>
    <g id="text_14">
     <!-- No Elevation -->
     <g transform="translate(248.47 443.355)scale(0.32 -0.32)">
      <defs>
       <path d="M 628 4666 
L 1478 4666 
L 3547 763 
L 3547 4666 
L 4159 4666 
L 4159 0 
L 3309 0 
L 1241 3903 
L 1241 0 
L 628 0 
L 628 4666 
z
" id="DejaVuSans-4e" transform="scale(0.015625)"/>
       <path d="M 1959 3097 
Q 1497 3097 1228 2736 
Q 959 2375 959 1747 
Q 959 1119 1226 758 
Q 1494 397 1959 397 
Q 2419 397 2687 759 
Q 2956 1122 2956 1747 
Q 2956 2369 2687 2733 
Q 2419 3097 1959 3097 
z
M 1959 3584 
Q 2709 3584 3137 3096 
Q 3566 2609 3566 1747 
Q 3566 888 3137 398 
Q 2709 -91 1959 -91 
Q 1206 -91 779 398 
Q 353 888 353 1747 
Q 353 2609 779 3096 
Q 1206 3584 1959 3584 
z
" id="DejaVuSans-6f" transform="scale(0.015625)"/>
       <path d="M 628 4666 
L 3578 4666 
L 3578 4134 
L 1259 4134 
L 1259 2753 
L 3481 2753 
L 3481 2222 
L 1259 2222 
L 1259 531 
L 3634 531 
L 3634 0 
L 628 0 
L 628 4666 
z
" id="DejaVuSans-45" transform="scale(0.015625)"/>
       <path d="M 603 4863 
L 1178 4863 
L 1178 0 
L 603 0 
L 603 4863 
z
" id="DejaVuSans-6c" transform="scale(0.015625)"/>
       <path d="M 191 3500 
L 800 3500 
L 1894 563 
L 2988 3500 
L 3597 3500 
L 2284 0 
L 1503 0 
L 191 3500 
z
" id="DejaVuSans-76" transform="scale(0.015625)"/>
      </defs>
      <use xlink:href="#DejaVuSans-4e"/>
      <use x="74.804688" xlink:href="#DejaVuSans-6f"/>
      <use x="135.986328" xlink:href="#DejaVuSans-20"/>
      <use x="167.773438" xlink:href="#DejaVuSans-45"/>
      <use x="230.957031" xlink:href="#DejaVuSans-6c"/>
      <use x="258.740234" xlink:href="#DejaVuSans-65"/>
      <use x="320.263672" xlink:href="#DejaVuSans-76"/>
      <use x="379.443359" xlink:href="#DejaVuSans-61"/>
      <use x="440.722656" xlink:href="#DejaVuSans-74"/>
      <use x="479.931641" xlink:href="#DejaVuSans-69"/>
      <use x="507.714844" xlink:href="#DejaVuSans-6f"/>
      <use x="568.896484" xlink:href="#DejaVuSans-6e"/>
     </g>
    </g>
    <g id="line2d_18">
     <path d="M 158.87 479.125 
L 222.87 479.125 
" style="fill:none;stroke:#ff7f0e;stroke-linecap:square;stroke-width:4;"/>
    </g>
    <g id="line2d_19"/>
    <g id="text_15">
     <!-- Elevated by 30 -->
     <g transform="translate(248.47 490.325)scale(0.32 -0.32)">
      <defs>
       <path d="M 2906 2969 
L 2906 4863 
L 3481 4863 
L 3481 0 
L 2906 0 
L 2906 525 
Q 2725 213 2448 61 
Q 2172 -91 1784 -91 
Q 1150 -91 751 415 
Q 353 922 353 1747 
Q 353 2572 751 3078 
Q 1150 3584 1784 3584 
Q 2172 3584 2448 3432 
Q 2725 3281 2906 2969 
z
M 947 1747 
Q 947 1113 1208 752 
Q 1469 391 1925 391 
Q 2381 391 2643 752 
Q 2906 1113 2906 1747 
Q 2906 2381 2643 2742 
Q 2381 3103 1925 3103 
Q 1469 3103 1208 2742 
Q 947 2381 947 1747 
z
" id="DejaVuSans-64" transform="scale(0.015625)"/>
       <path d="M 3116 1747 
Q 3116 2381 2855 2742 
Q 2594 3103 2138 3103 
Q 1681 3103 1420 2742 
Q 1159 2381 1159 1747 
Q 1159 1113 1420 752 
Q 1681 391 2138 391 
Q 2594 391 2855 752 
Q 3116 1113 3116 1747 
z
M 1159 2969 
Q 1341 3281 1617 3432 
Q 1894 3584 2278 3584 
Q 2916 3584 3314 3078 
Q 3713 2572 3713 1747 
Q 3713 922 3314 415 
Q 2916 -91 2278 -91 
Q 1894 -91 1617 61 
Q 1341 213 1159 525 
L 1159 0 
L 581 0 
L 581 4863 
L 1159 4863 
L 1159 2969 
z
" id="DejaVuSans-62" transform="scale(0.015625)"/>
       <path d="M 2059 -325 
Q 1816 -950 1584 -1140 
Q 1353 -1331 966 -1331 
L 506 -1331 
L 506 -850 
L 844 -850 
Q 1081 -850 1212 -737 
Q 1344 -625 1503 -206 
L 1606 56 
L 191 3500 
L 800 3500 
L 1894 763 
L 2988 3500 
L 3597 3500 
L 2059 -325 
z
" id="DejaVuSans-79" transform="scale(0.015625)"/>
       <path d="M 2597 2516 
Q 3050 2419 3304 2112 
Q 3559 1806 3559 1356 
Q 3559 666 3084 287 
Q 2609 -91 1734 -91 
Q 1441 -91 1130 -33 
Q 819 25 488 141 
L 488 750 
Q 750 597 1062 519 
Q 1375 441 1716 441 
Q 2309 441 2620 675 
Q 2931 909 2931 1356 
Q 2931 1769 2642 2001 
Q 2353 2234 1838 2234 
L 1294 2234 
L 1294 2753 
L 1863 2753 
Q 2328 2753 2575 2939 
Q 2822 3125 2822 3475 
Q 2822 3834 2567 4026 
Q 2313 4219 1838 4219 
Q 1578 4219 1281 4162 
Q 984 4106 628 3988 
L 628 4550 
Q 988 4650 1302 4700 
Q 1616 4750 1894 4750 
Q 2613 4750 3031 4423 
Q 3450 4097 3450 3541 
Q 3450 3153 3228 2886 
Q 3006 2619 2597 2516 
z
" id="DejaVuSans-33" transform="scale(0.015625)"/>
      </defs>
      <use xlink:href="#DejaVuSans-45"/>
      <use x="63.183594" xlink:href="#DejaVuSans-6c"/>
      <use x="90.966797" xlink:href="#DejaVuSans-65"/>
      <use x="152.490234" xlink:href="#DejaVuSans-76"/>
      <use x="211.669922" xlink:href="#DejaVuSans-61"/>
      <use x="272.949219" xlink:href="#DejaVuSans-74"/>
      <use x="312.158203" xlink:href="#DejaVuSans-65"/>
      <use x="373.681641" xlink:href="#DejaVuSans-64"/>
      <use x="437.158203" xlink:href="#DejaVuSans-20"/>
      <use x="468.945312" xlink:href="#DejaVuSans-62"/>
      <use x="532.421875" xlink:href="#DejaVuSans-79"/>
      <use x="591.601562" xlink:href="#DejaVuSans-20"/>
      <use x="623.388672" xlink:href="#DejaVuSans-33"/>
      <use x="687.011719" xlink:href="#DejaVuSans-30"/>
     </g>
    </g>
    <g id="line2d_20">
     <path d="M 158.87 526.095 
L 222.87 526.095 
" style="fill:none;stroke:#2ca02c;stroke-linecap:square;stroke-width:4;"/>
    </g>
    <g id="line2d_21"/>
    <g id="text_16">
     <!-- Elevated by 100 -->
     <g transform="translate(248.47 537.295)scale(0.32 -0.32)">
      <use xlink:href="#DejaVuSans-45"/>
      <use x="63.183594" xlink:href="#DejaVuSans-6c"/>
      <use x="90.966797" xlink:href="#DejaVuSans-65"/>
      <use x="152.490234" xlink:href="#DejaVuSans-76"/>
      <use x="211.669922" xlink:href="#DejaVuSans-61"/>
      <use x="272.949219" xlink:href="#DejaVuSans-74"/>
      <use x="312.158203" xlink:href="#DejaVuSans-65"/>
      <use x="373.681641" xlink:href="#DejaVuSans-64"/>
      <use x="437.158203" xlink:href="#DejaVuSans-20"/>
      <use x="468.945312" xlink:href="#DejaVuSans-62"/>
      <use x="532.421875" xlink:href="#DejaVuSans-79"/>
      <use x="591.601562" xlink:href="#DejaVuSans-20"/>
      <use x="623.388672" xlink:href="#DejaVuSans-31"/>
      <use x="687.011719" xlink:href="#DejaVuSans-30"/>
      <use x="750.634766" xlink:href="#DejaVuSans-30"/>
     </g>
    </g>
    <g id="line2d_22">
     <path d="M 158.87 573.065 
L 222.87 573.065 
" style="fill:none;stroke:#d62728;stroke-linecap:square;stroke-width:4;"/>
    </g>
    <g id="line2d_23"/>
    <g id="text_17">
     <!-- Exact Extrema -->
     <g transform="translate(248.47 584.265)scale(0.32 -0.32)">
      <defs>
       <path d="M 3513 3500 
L 2247 1797 
L 3578 0 
L 2900 0 
L 1881 1375 
L 863 0 
L 184 0 
L 1544 1831 
L 300 3500 
L 978 3500 
L 1906 2253 
L 2834 3500 
L 3513 3500 
z
" id="DejaVuSans-78" transform="scale(0.015625)"/>
       <path d="M 3122 3366 
L 3122 2828 
Q 2878 2963 2633 3030 
Q 2388 3097 2138 3097 
Q 1578 3097 1268 2742 
Q 959 2388 959 1747 
Q 959 1106 1268 751 
Q 1578 397 2138 397 
Q 2388 397 2633 464 
Q 2878 531 3122 666 
L 3122 134 
Q 2881 22 2623 -34 
Q 2366 -91 2075 -91 
Q 1284 -91 818 406 
Q 353 903 353 1747 
Q 353 2603 823 3093 
Q 1294 3584 2113 3584 
Q 2378 3584 2631 3529 
Q 2884 3475 3122 3366 
z
" id="DejaVuSans-63" transform="scale(0.015625)"/>
       <path d="M 2631 2963 
Q 2534 3019 2420 3045 
Q 2306 3072 2169 3072 
Q 1681 3072 1420 2755 
Q 1159 2438 1159 1844 
L 1159 0 
L 581 0 
L 581 3500 
L 1159 3500 
L 1159 2956 
Q 1341 3275 1631 3429 
Q 1922 3584 2338 3584 
Q 2397 3584 2469 3576 
Q 2541 3569 2628 3553 
L 2631 2963 
z
" id="DejaVuSans-72" transform="scale(0.015625)"/>
      </defs>
      <use xlink:href="#DejaVuSans-45"/>
      <use x="63.183594" xlink:href="#DejaVuSans-78"/>
      <use x="122.363281" xlink:href="#DejaVuSans-61"/>
      <use x="183.642578" xlink:href="#DejaVuSans-63"/>
      <use x="238.623047" xlink:href="#DejaVuSans-74"/>
      <use x="277.832031" xlink:href="#DejaVuSans-20"/>
      <use x="309.619141" xlink:href="#DejaVuSans-45"/>
      <use x="372.802734" xlink:href="#DejaVuSans-78"/>
      <use x="431.982422" xlink:href="#DejaVuSans-74"/>
      <use x="471.191406" xlink:href="#DejaVuSans-72"/>
      <use x="510.054688" xlink:href="#DejaVuSans-65"/>
      <use x="571.578125" xlink:href="#DejaVuSans-6d"/>
      <use x="668.990234" xlink:href="#DejaVuSans-61"/>
     </g>
    </g>
   </g>
  </g>
 </g>
 <defs>
  <clipPath id="p86534f60a0">
   <rect height="585.16" width="795.346" x="130.07" y="34.56"/>
  </clipPath>
 </defs>
</svg>
