<?xml version="1.0" encoding="utf-8" standalone="no"?>
<!DOCTYPE svg PUBLIC "-//W3C//DTD SVG 1.1//EN"
  "http://www.w3.org/Graphics/SVG/1.1/DTD/svg11.dtd">
<svg xmlns:xlink="http://www.w3.org/1999/xlink" width="959.976pt" height="720pt" viewBox="0 0 959.976 720" xmlns="http://www.w3.org/2000/svg" version="1.1">
 <metadata>
  <rdf:RDF xmlns:dc="http://purl.org/dc/elements/1.1/" xmlns:cc="http://creativecommons.org/ns#" xmlns:rdf="http://www.w3.org/1999/02/22-rdf-syntax-ns#">
   <cc:Work>
    <dc:type rdf:resource="http://purl.org/dc/dcmitype/StillImage"/>
    <dc:date>2022-02-26T12:12:56.878559</dc:date>
    <dc:format>image/svg+xml</dc:format>
    <dc:creator>
     <cc:Agent>
      <dc:title>Matplotlib v3.5.1, https://matplotlib.org/</dc:title>
     </cc:Agent>
    </dc:creator>
   </cc:Work>
  </rdf:RDF>
 </metadata>
 <defs>
  <style type="text/css">*{stroke-linejoin: round; stroke-linecap: butt}</style>
 </defs>
 <g id="figure_1">
  <g id="patch_1">
   <path d="M 0 720 
L 959.976 720 
L 959.976 0 
L 0 0 
z
" style="fill: #ffffff"/>
  </g>
  <g id="axes_1">
   <g id="patch_2">
    <path d="M 152.343875 635.56 
L 934.056 635.56 
L 934.056 25.92 
L 152.343875 25.92 
z
" style="fill: #ffffff"/>
   </g>
   <g id="matplotlib.axis_1">
    <g id="xtick_1">
     <g id="line2d_1">
      <defs>
       <path id="mbac9f08c30" d="M 0 0 
L 0 3.5 
" style="stroke: #000000; stroke-width: 0.8"/>
      </defs>
      <g>
       <use xlink:href="#mbac9f08c30" x="187.876244" y="635.56" style="stroke: #000000; stroke-width: 0.8"/>
      </g>
     </g>
     <g id="text_1">
      <!-- -1 -->
      <g transform="translate(175.911869 660.79625)scale(0.24 -0.24)">
       <defs>
        <path id="DejaVuSans-2d" d="M 313 2009 
L 1997 2009 
L 1997 1497 
L 313 1497 
L 313 2009 
z
" transform="scale(0.015625)"/>
        <path id="DejaVuSans-31" d="M 794 531 
L 1825 531 
L 1825 4091 
L 703 3866 
L 703 4441 
L 1819 4666 
L 2450 4666 
L 2450 531 
L 3481 531 
L 3481 0 
L 794 0 
L 794 531 
z
" transform="scale(0.015625)"/>
       </defs>
       <use xlink:href="#DejaVuSans-2d"/>
       <use xlink:href="#DejaVuSans-31" x="36.083984"/>
      </g>
     </g>
    </g>
    <g id="xtick_2">
     <g id="line2d_2">
      <g>
       <use xlink:href="#mbac9f08c30" x="275.390695" y="635.56" style="stroke: #000000; stroke-width: 0.8"/>
      </g>
     </g>
     <g id="text_2">
      <!-- 0 -->
      <g transform="translate(267.755695 660.79625)scale(0.24 -0.24)">
       <defs>
        <path id="DejaVuSans-30" d="M 2034 4250 
Q 1547 4250 1301 3770 
Q 1056 3291 1056 2328 
Q 1056 1369 1301 889 
Q 1547 409 2034 409 
Q 2525 409 2770 889 
Q 3016 1369 3016 2328 
Q 3016 3291 2770 3770 
Q 2525 4250 2034 4250 
z
M 2034 4750 
Q 2819 4750 3233 4129 
Q 3647 3509 3647 2328 
Q 3647 1150 3233 529 
Q 2819 -91 2034 -91 
Q 1250 -91 836 529 
Q 422 1150 422 2328 
Q 422 3509 836 4129 
Q 1250 4750 2034 4750 
z
" transform="scale(0.015625)"/>
       </defs>
       <use xlink:href="#DejaVuSans-30"/>
      </g>
     </g>
    </g>
    <g id="xtick_3">
     <g id="line2d_3">
      <g>
       <use xlink:href="#mbac9f08c30" x="362.905146" y="635.56" style="stroke: #000000; stroke-width: 0.8"/>
      </g>
     </g>
     <g id="text_3">
      <!-- 1 -->
      <g transform="translate(355.270146 660.79625)scale(0.24 -0.24)">
       <use xlink:href="#DejaVuSans-31"/>
      </g>
     </g>
    </g>
    <g id="xtick_4">
     <g id="line2d_4">
      <g>
       <use xlink:href="#mbac9f08c30" x="450.419597" y="635.56" style="stroke: #000000; stroke-width: 0.8"/>
      </g>
     </g>
     <g id="text_4">
      <!-- 2 -->
      <g transform="translate(442.784597 660.79625)scale(0.24 -0.24)">
       <defs>
        <path id="DejaVuSans-32" d="M 1228 531 
L 3431 531 
L 3431 0 
L 469 0 
L 469 531 
Q 828 903 1448 1529 
Q 2069 2156 2228 2338 
Q 2531 2678 2651 2914 
Q 2772 3150 2772 3378 
Q 2772 3750 2511 3984 
Q 2250 4219 1831 4219 
Q 1534 4219 1204 4116 
Q 875 4013 500 3803 
L 500 4441 
Q 881 4594 1212 4672 
Q 1544 4750 1819 4750 
Q 2544 4750 2975 4387 
Q 3406 4025 3406 3419 
Q 3406 3131 3298 2873 
Q 3191 2616 2906 2266 
Q 2828 2175 2409 1742 
Q 1991 1309 1228 531 
z
" transform="scale(0.015625)"/>
       </defs>
       <use xlink:href="#DejaVuSans-32"/>
      </g>
     </g>
    </g>
    <g id="xtick_5">
     <g id="line2d_5">
      <g>
       <use xlink:href="#mbac9f08c30" x="537.934048" y="635.56" style="stroke: #000000; stroke-width: 0.8"/>
      </g>
     </g>
     <g id="text_5">
      <!-- 3 -->
      <g transform="translate(530.299048 660.79625)scale(0.24 -0.24)">
       <defs>
        <path id="DejaVuSans-33" d="M 2597 2516 
Q 3050 2419 3304 2112 
Q 3559 1806 3559 1356 
Q 3559 666 3084 287 
Q 2609 -91 1734 -91 
Q 1441 -91 1130 -33 
Q 819 25 488 141 
L 488 750 
Q 750 597 1062 519 
Q 1375 441 1716 441 
Q 2309 441 2620 675 
Q 2931 909 2931 1356 
Q 2931 1769 2642 2001 
Q 2353 2234 1838 2234 
L 1294 2234 
L 1294 2753 
L 1863 2753 
Q 2328 2753 2575 2939 
Q 2822 3125 2822 3475 
Q 2822 3834 2567 4026 
Q 2313 4219 1838 4219 
Q 1578 4219 1281 4162 
Q 984 4106 628 3988 
L 628 4550 
Q 988 4650 1302 4700 
Q 1616 4750 1894 4750 
Q 2613 4750 3031 4423 
Q 3450 4097 3450 3541 
Q 3450 3153 3228 2886 
Q 3006 2619 2597 2516 
z
" transform="scale(0.015625)"/>
       </defs>
       <use xlink:href="#DejaVuSans-33"/>
      </g>
     </g>
    </g>
    <g id="xtick_6">
     <g id="line2d_6">
      <g>
       <use xlink:href="#mbac9f08c30" x="625.448498" y="635.56" style="stroke: #000000; stroke-width: 0.8"/>
      </g>
     </g>
     <g id="text_6">
      <!-- 4 -->
      <g transform="translate(617.813498 660.79625)scale(0.24 -0.24)">
       <defs>
        <path id="DejaVuSans-34" d="M 2419 4116 
L 825 1625 
L 2419 1625 
L 2419 4116 
z
M 2253 4666 
L 3047 4666 
L 3047 1625 
L 3713 1625 
L 3713 1100 
L 3047 1100 
L 3047 0 
L 2419 0 
L 2419 1100 
L 313 1100 
L 313 1709 
L 2253 4666 
z
" transform="scale(0.015625)"/>
       </defs>
       <use xlink:href="#DejaVuSans-34"/>
      </g>
     </g>
    </g>
    <g id="xtick_7">
     <g id="line2d_7">
      <g>
       <use xlink:href="#mbac9f08c30" x="712.962949" y="635.56" style="stroke: #000000; stroke-width: 0.8"/>
      </g>
     </g>
     <g id="text_7">
      <!-- 5 -->
      <g transform="translate(705.327949 660.79625)scale(0.24 -0.24)">
       <defs>
        <path id="DejaVuSans-35" d="M 691 4666 
L 3169 4666 
L 3169 4134 
L 1269 4134 
L 1269 2991 
Q 1406 3038 1543 3061 
Q 1681 3084 1819 3084 
Q 2600 3084 3056 2656 
Q 3513 2228 3513 1497 
Q 3513 744 3044 326 
Q 2575 -91 1722 -91 
Q 1428 -91 1123 -41 
Q 819 9 494 109 
L 494 744 
Q 775 591 1075 516 
Q 1375 441 1709 441 
Q 2250 441 2565 725 
Q 2881 1009 2881 1497 
Q 2881 1984 2565 2268 
Q 2250 2553 1709 2553 
Q 1456 2553 1204 2497 
Q 953 2441 691 2322 
L 691 4666 
z
" transform="scale(0.015625)"/>
       </defs>
       <use xlink:href="#DejaVuSans-35"/>
      </g>
     </g>
    </g>
    <g id="xtick_8">
     <g id="line2d_8">
      <g>
       <use xlink:href="#mbac9f08c30" x="800.4774" y="635.56" style="stroke: #000000; stroke-width: 0.8"/>
      </g>
     </g>
     <g id="text_8">
      <!-- 6 -->
      <g transform="translate(792.8424 660.79625)scale(0.24 -0.24)">
       <defs>
        <path id="DejaVuSans-36" d="M 2113 2584 
Q 1688 2584 1439 2293 
Q 1191 2003 1191 1497 
Q 1191 994 1439 701 
Q 1688 409 2113 409 
Q 2538 409 2786 701 
Q 3034 994 3034 1497 
Q 3034 2003 2786 2293 
Q 2538 2584 2113 2584 
z
M 3366 4563 
L 3366 3988 
Q 3128 4100 2886 4159 
Q 2644 4219 2406 4219 
Q 1781 4219 1451 3797 
Q 1122 3375 1075 2522 
Q 1259 2794 1537 2939 
Q 1816 3084 2150 3084 
Q 2853 3084 3261 2657 
Q 3669 2231 3669 1497 
Q 3669 778 3244 343 
Q 2819 -91 2113 -91 
Q 1303 -91 875 529 
Q 447 1150 447 2328 
Q 447 3434 972 4092 
Q 1497 4750 2381 4750 
Q 2619 4750 2861 4703 
Q 3103 4656 3366 4563 
z
" transform="scale(0.015625)"/>
       </defs>
       <use xlink:href="#DejaVuSans-36"/>
      </g>
     </g>
    </g>
    <g id="xtick_9">
     <g id="line2d_9">
      <g>
       <use xlink:href="#mbac9f08c30" x="887.991851" y="635.56" style="stroke: #000000; stroke-width: 0.8"/>
      </g>
     </g>
     <g id="text_9">
      <!-- 7 -->
      <g transform="translate(880.356851 660.79625)scale(0.24 -0.24)">
       <defs>
        <path id="DejaVuSans-37" d="M 525 4666 
L 3525 4666 
L 3525 4397 
L 1831 0 
L 1172 0 
L 2766 4134 
L 525 4134 
L 525 4666 
z
" transform="scale(0.015625)"/>
       </defs>
       <use xlink:href="#DejaVuSans-37"/>
      </g>
     </g>
    </g>
    <g id="text_10">
     <!-- Time (hr) -->
     <g transform="translate(488.123687 688.02375)scale(0.24 -0.24)">
      <defs>
       <path id="DejaVuSans-54" d="M -19 4666 
L 3928 4666 
L 3928 4134 
L 2272 4134 
L 2272 0 
L 1638 0 
L 1638 4134 
L -19 4134 
L -19 4666 
z
" transform="scale(0.015625)"/>
       <path id="DejaVuSans-69" d="M 603 3500 
L 1178 3500 
L 1178 0 
L 603 0 
L 603 3500 
z
M 603 4863 
L 1178 4863 
L 1178 4134 
L 603 4134 
L 603 4863 
z
" transform="scale(0.015625)"/>
       <path id="DejaVuSans-6d" d="M 3328 2828 
Q 3544 3216 3844 3400 
Q 4144 3584 4550 3584 
Q 5097 3584 5394 3201 
Q 5691 2819 5691 2113 
L 5691 0 
L 5113 0 
L 5113 2094 
Q 5113 2597 4934 2840 
Q 4756 3084 4391 3084 
Q 3944 3084 3684 2787 
Q 3425 2491 3425 1978 
L 3425 0 
L 2847 0 
L 2847 2094 
Q 2847 2600 2669 2842 
Q 2491 3084 2119 3084 
Q 1678 3084 1418 2786 
Q 1159 2488 1159 1978 
L 1159 0 
L 581 0 
L 581 3500 
L 1159 3500 
L 1159 2956 
Q 1356 3278 1631 3431 
Q 1906 3584 2284 3584 
Q 2666 3584 2933 3390 
Q 3200 3197 3328 2828 
z
" transform="scale(0.015625)"/>
       <path id="DejaVuSans-65" d="M 3597 1894 
L 3597 1613 
L 953 1613 
Q 991 1019 1311 708 
Q 1631 397 2203 397 
Q 2534 397 2845 478 
Q 3156 559 3463 722 
L 3463 178 
Q 3153 47 2828 -22 
Q 2503 -91 2169 -91 
Q 1331 -91 842 396 
Q 353 884 353 1716 
Q 353 2575 817 3079 
Q 1281 3584 2069 3584 
Q 2775 3584 3186 3129 
Q 3597 2675 3597 1894 
z
M 3022 2063 
Q 3016 2534 2758 2815 
Q 2500 3097 2075 3097 
Q 1594 3097 1305 2825 
Q 1016 2553 972 2059 
L 3022 2063 
z
" transform="scale(0.015625)"/>
       <path id="DejaVuSans-20" transform="scale(0.015625)"/>
       <path id="DejaVuSans-28" d="M 1984 4856 
Q 1566 4138 1362 3434 
Q 1159 2731 1159 2009 
Q 1159 1288 1364 580 
Q 1569 -128 1984 -844 
L 1484 -844 
Q 1016 -109 783 600 
Q 550 1309 550 2009 
Q 550 2706 781 3412 
Q 1013 4119 1484 4856 
L 1984 4856 
z
" transform="scale(0.015625)"/>
       <path id="DejaVuSans-68" d="M 3513 2113 
L 3513 0 
L 2938 0 
L 2938 2094 
Q 2938 2591 2744 2837 
Q 2550 3084 2163 3084 
Q 1697 3084 1428 2787 
Q 1159 2491 1159 1978 
L 1159 0 
L 581 0 
L 581 4863 
L 1159 4863 
L 1159 2956 
Q 1366 3272 1645 3428 
Q 1925 3584 2291 3584 
Q 2894 3584 3203 3211 
Q 3513 2838 3513 2113 
z
" transform="scale(0.015625)"/>
       <path id="DejaVuSans-72" d="M 2631 2963 
Q 2534 3019 2420 3045 
Q 2306 3072 2169 3072 
Q 1681 3072 1420 2755 
Q 1159 2438 1159 1844 
L 1159 0 
L 581 0 
L 581 3500 
L 1159 3500 
L 1159 2956 
Q 1341 3275 1631 3429 
Q 1922 3584 2338 3584 
Q 2397 3584 2469 3576 
Q 2541 3569 2628 3553 
L 2631 2963 
z
" transform="scale(0.015625)"/>
       <path id="DejaVuSans-29" d="M 513 4856 
L 1013 4856 
Q 1481 4119 1714 3412 
Q 1947 2706 1947 2009 
Q 1947 1309 1714 600 
Q 1481 -109 1013 -844 
L 513 -844 
Q 928 -128 1133 580 
Q 1338 1288 1338 2009 
Q 1338 2731 1133 3434 
Q 928 4138 513 4856 
z
" transform="scale(0.015625)"/>
      </defs>
      <use xlink:href="#DejaVuSans-54"/>
      <use xlink:href="#DejaVuSans-69" x="57.958984"/>
      <use xlink:href="#DejaVuSans-6d" x="85.742188"/>
      <use xlink:href="#DejaVuSans-65" x="183.154297"/>
      <use xlink:href="#DejaVuSans-20" x="244.677734"/>
      <use xlink:href="#DejaVuSans-28" x="276.464844"/>
      <use xlink:href="#DejaVuSans-68" x="315.478516"/>
      <use xlink:href="#DejaVuSans-72" x="378.857422"/>
      <use xlink:href="#DejaVuSans-29" x="419.970703"/>
     </g>
    </g>
   </g>
   <g id="matplotlib.axis_2">
    <g id="ytick_1">
     <g id="line2d_10">
      <defs>
       <path id="m26ba63420a" d="M 0 0 
L -3.5 0 
" style="stroke: #000000; stroke-width: 0.8"/>
      </defs>
      <g>
       <use xlink:href="#m26ba63420a" x="152.343875" y="607.849091" style="stroke: #000000; stroke-width: 0.8"/>
      </g>
     </g>
     <g id="text_11">
      <!-- 40,000 -->
      <g transform="translate(61.366375 616.967216)scale(0.24 -0.24)">
       <defs>
        <path id="DejaVuSans-2c" d="M 750 794 
L 1409 794 
L 1409 256 
L 897 -744 
L 494 -744 
L 750 256 
L 750 794 
z
" transform="scale(0.015625)"/>
       </defs>
       <use xlink:href="#DejaVuSans-34"/>
       <use xlink:href="#DejaVuSans-30" x="63.623047"/>
       <use xlink:href="#DejaVuSans-2c" x="127.246094"/>
       <use xlink:href="#DejaVuSans-30" x="159.033203"/>
       <use xlink:href="#DejaVuSans-30" x="222.65625"/>
       <use xlink:href="#DejaVuSans-30" x="286.279297"/>
      </g>
     </g>
    </g>
    <g id="ytick_2">
     <g id="line2d_11">
      <g>
       <use xlink:href="#m26ba63420a" x="152.343875" y="507.447246" style="stroke: #000000; stroke-width: 0.8"/>
      </g>
     </g>
     <g id="text_12">
      <!-- 45,000 -->
      <g transform="translate(61.366375 516.565371)scale(0.24 -0.24)">
       <use xlink:href="#DejaVuSans-34"/>
       <use xlink:href="#DejaVuSans-35" x="63.623047"/>
       <use xlink:href="#DejaVuSans-2c" x="127.246094"/>
       <use xlink:href="#DejaVuSans-30" x="159.033203"/>
       <use xlink:href="#DejaVuSans-30" x="222.65625"/>
       <use xlink:href="#DejaVuSans-30" x="286.279297"/>
      </g>
     </g>
    </g>
    <g id="ytick_3">
     <g id="line2d_12">
      <g>
       <use xlink:href="#m26ba63420a" x="152.343875" y="407.045402" style="stroke: #000000; stroke-width: 0.8"/>
      </g>
     </g>
     <g id="text_13">
      <!-- 50,000 -->
      <g transform="translate(61.366375 416.163527)scale(0.24 -0.24)">
       <use xlink:href="#DejaVuSans-35"/>
       <use xlink:href="#DejaVuSans-30" x="63.623047"/>
       <use xlink:href="#DejaVuSans-2c" x="127.246094"/>
       <use xlink:href="#DejaVuSans-30" x="159.033203"/>
       <use xlink:href="#DejaVuSans-30" x="222.65625"/>
       <use xlink:href="#DejaVuSans-30" x="286.279297"/>
      </g>
     </g>
    </g>
    <g id="ytick_4">
     <g id="line2d_13">
      <g>
       <use xlink:href="#m26ba63420a" x="152.343875" y="306.643557" style="stroke: #000000; stroke-width: 0.8"/>
      </g>
     </g>
     <g id="text_14">
      <!-- 55,000 -->
      <g transform="translate(61.366375 315.761682)scale(0.24 -0.24)">
       <use xlink:href="#DejaVuSans-35"/>
       <use xlink:href="#DejaVuSans-35" x="63.623047"/>
       <use xlink:href="#DejaVuSans-2c" x="127.246094"/>
       <use xlink:href="#DejaVuSans-30" x="159.033203"/>
       <use xlink:href="#DejaVuSans-30" x="222.65625"/>
       <use xlink:href="#DejaVuSans-30" x="286.279297"/>
      </g>
     </g>
    </g>
    <g id="ytick_5">
     <g id="line2d_14">
      <g>
       <use xlink:href="#m26ba63420a" x="152.343875" y="206.241713" style="stroke: #000000; stroke-width: 0.8"/>
      </g>
     </g>
     <g id="text_15">
      <!-- 60,000 -->
      <g transform="translate(61.366375 215.359838)scale(0.24 -0.24)">
       <use xlink:href="#DejaVuSans-36"/>
       <use xlink:href="#DejaVuSans-30" x="63.623047"/>
       <use xlink:href="#DejaVuSans-2c" x="127.246094"/>
       <use xlink:href="#DejaVuSans-30" x="159.033203"/>
       <use xlink:href="#DejaVuSans-30" x="222.65625"/>
       <use xlink:href="#DejaVuSans-30" x="286.279297"/>
      </g>
     </g>
    </g>
    <g id="ytick_6">
     <g id="line2d_15">
      <g>
       <use xlink:href="#m26ba63420a" x="152.343875" y="105.839868" style="stroke: #000000; stroke-width: 0.8"/>
      </g>
     </g>
     <g id="text_16">
      <!-- 65,000 -->
      <g transform="translate(61.366375 114.957993)scale(0.24 -0.24)">
       <use xlink:href="#DejaVuSans-36"/>
       <use xlink:href="#DejaVuSans-35" x="63.623047"/>
       <use xlink:href="#DejaVuSans-2c" x="127.246094"/>
       <use xlink:href="#DejaVuSans-30" x="159.033203"/>
       <use xlink:href="#DejaVuSans-30" x="222.65625"/>
       <use xlink:href="#DejaVuSans-30" x="286.279297"/>
      </g>
     </g>
    </g>
    <g id="text_17">
     <!-- Squared Speed $\left(\frac{m}{s}\right)^2$ -->
     <g transform="translate(50.646375 451.7)rotate(-90)scale(0.24 -0.24)">
      <defs>
       <path id="DejaVuSans-53" d="M 3425 4513 
L 3425 3897 
Q 3066 4069 2747 4153 
Q 2428 4238 2131 4238 
Q 1616 4238 1336 4038 
Q 1056 3838 1056 3469 
Q 1056 3159 1242 3001 
Q 1428 2844 1947 2747 
L 2328 2669 
Q 3034 2534 3370 2195 
Q 3706 1856 3706 1288 
Q 3706 609 3251 259 
Q 2797 -91 1919 -91 
Q 1588 -91 1214 -16 
Q 841 59 441 206 
L 441 856 
Q 825 641 1194 531 
Q 1563 422 1919 422 
Q 2459 422 2753 634 
Q 3047 847 3047 1241 
Q 3047 1584 2836 1778 
Q 2625 1972 2144 2069 
L 1759 2144 
Q 1053 2284 737 2584 
Q 422 2884 422 3419 
Q 422 4038 858 4394 
Q 1294 4750 2059 4750 
Q 2388 4750 2728 4690 
Q 3069 4631 3425 4513 
z
" transform="scale(0.015625)"/>
       <path id="DejaVuSans-71" d="M 947 1747 
Q 947 1113 1208 752 
Q 1469 391 1925 391 
Q 2381 391 2643 752 
Q 2906 1113 2906 1747 
Q 2906 2381 2643 2742 
Q 2381 3103 1925 3103 
Q 1469 3103 1208 2742 
Q 947 2381 947 1747 
z
M 2906 525 
Q 2725 213 2448 61 
Q 2172 -91 1784 -91 
Q 1150 -91 751 415 
Q 353 922 353 1747 
Q 353 2572 751 3078 
Q 1150 3584 1784 3584 
Q 2172 3584 2448 3432 
Q 2725 3281 2906 2969 
L 2906 3500 
L 3481 3500 
L 3481 -1331 
L 2906 -1331 
L 2906 525 
z
" transform="scale(0.015625)"/>
       <path id="DejaVuSans-75" d="M 544 1381 
L 544 3500 
L 1119 3500 
L 1119 1403 
Q 1119 906 1312 657 
Q 1506 409 1894 409 
Q 2359 409 2629 706 
Q 2900 1003 2900 1516 
L 2900 3500 
L 3475 3500 
L 3475 0 
L 2900 0 
L 2900 538 
Q 2691 219 2414 64 
Q 2138 -91 1772 -91 
Q 1169 -91 856 284 
Q 544 659 544 1381 
z
M 1991 3584 
L 1991 3584 
z
" transform="scale(0.015625)"/>
       <path id="DejaVuSans-61" d="M 2194 1759 
Q 1497 1759 1228 1600 
Q 959 1441 959 1056 
Q 959 750 1161 570 
Q 1363 391 1709 391 
Q 2188 391 2477 730 
Q 2766 1069 2766 1631 
L 2766 1759 
L 2194 1759 
z
M 3341 1997 
L 3341 0 
L 2766 0 
L 2766 531 
Q 2569 213 2275 61 
Q 1981 -91 1556 -91 
Q 1019 -91 701 211 
Q 384 513 384 1019 
Q 384 1609 779 1909 
Q 1175 2209 1959 2209 
L 2766 2209 
L 2766 2266 
Q 2766 2663 2505 2880 
Q 2244 3097 1772 3097 
Q 1472 3097 1187 3025 
Q 903 2953 641 2809 
L 641 3341 
Q 956 3463 1253 3523 
Q 1550 3584 1831 3584 
Q 2591 3584 2966 3190 
Q 3341 2797 3341 1997 
z
" transform="scale(0.015625)"/>
       <path id="DejaVuSans-64" d="M 2906 2969 
L 2906 4863 
L 3481 4863 
L 3481 0 
L 2906 0 
L 2906 525 
Q 2725 213 2448 61 
Q 2172 -91 1784 -91 
Q 1150 -91 751 415 
Q 353 922 353 1747 
Q 353 2572 751 3078 
Q 1150 3584 1784 3584 
Q 2172 3584 2448 3432 
Q 2725 3281 2906 2969 
z
M 947 1747 
Q 947 1113 1208 752 
Q 1469 391 1925 391 
Q 2381 391 2643 752 
Q 2906 1113 2906 1747 
Q 2906 2381 2643 2742 
Q 2381 3103 1925 3103 
Q 1469 3103 1208 2742 
Q 947 2381 947 1747 
z
" transform="scale(0.015625)"/>
       <path id="DejaVuSans-70" d="M 1159 525 
L 1159 -1331 
L 581 -1331 
L 581 3500 
L 1159 3500 
L 1159 2969 
Q 1341 3281 1617 3432 
Q 1894 3584 2278 3584 
Q 2916 3584 3314 3078 
Q 3713 2572 3713 1747 
Q 3713 922 3314 415 
Q 2916 -91 2278 -91 
Q 1894 -91 1617 61 
Q 1341 213 1159 525 
z
M 3116 1747 
Q 3116 2381 2855 2742 
Q 2594 3103 2138 3103 
Q 1681 3103 1420 2742 
Q 1159 2381 1159 1747 
Q 1159 1113 1420 752 
Q 1681 391 2138 391 
Q 2594 391 2855 752 
Q 3116 1113 3116 1747 
z
" transform="scale(0.015625)"/>
       <path id="STIXSizeOneSym-Regular-28" d="M 2445 -858 
L 2445 -1050 
Q 1728 -371 1309 630 
Q 890 1632 890 2886 
Q 890 4122 1309 5136 
Q 1728 6150 2445 6822 
L 2445 6630 
Q 1408 5363 1408 2886 
Q 1408 410 2445 -858 
z
" transform="scale(0.015625)"/>
       <path id="DejaVuSans-Oblique-6d" d="M 5747 2113 
L 5338 0 
L 4763 0 
L 5166 2094 
Q 5191 2228 5203 2325 
Q 5216 2422 5216 2491 
Q 5216 2772 5059 2928 
Q 4903 3084 4622 3084 
Q 4203 3084 3875 2770 
Q 3547 2456 3450 1953 
L 3066 0 
L 2491 0 
L 2900 2094 
Q 2925 2209 2937 2307 
Q 2950 2406 2950 2484 
Q 2950 2769 2794 2926 
Q 2638 3084 2363 3084 
Q 1938 3084 1609 2770 
Q 1281 2456 1184 1953 
L 800 0 
L 225 0 
L 909 3500 
L 1484 3500 
L 1375 2956 
Q 1609 3263 1923 3423 
Q 2238 3584 2597 3584 
Q 2978 3584 3223 3384 
Q 3469 3184 3519 2828 
Q 3781 3197 4126 3390 
Q 4472 3584 4856 3584 
Q 5306 3584 5551 3325 
Q 5797 3066 5797 2591 
Q 5797 2488 5784 2364 
Q 5772 2241 5747 2113 
z
" transform="scale(0.015625)"/>
       <path id="DejaVuSans-Oblique-73" d="M 3200 3397 
L 3091 2853 
Q 2863 2978 2609 3040 
Q 2356 3103 2088 3103 
Q 1634 3103 1373 2948 
Q 1113 2794 1113 2528 
Q 1113 2219 1719 2053 
Q 1766 2041 1788 2034 
L 1972 1978 
Q 2547 1819 2739 1644 
Q 2931 1469 2931 1166 
Q 2931 609 2489 259 
Q 2047 -91 1331 -91 
Q 1053 -91 747 -37 
Q 441 16 72 128 
L 184 722 
Q 500 559 806 475 
Q 1113 391 1394 391 
Q 1816 391 2080 572 
Q 2344 753 2344 1031 
Q 2344 1331 1650 1516 
L 1591 1531 
L 1394 1581 
Q 956 1697 753 1886 
Q 550 2075 550 2369 
Q 550 2928 970 3256 
Q 1391 3584 2113 3584 
Q 2397 3584 2667 3537 
Q 2938 3491 3200 3397 
z
" transform="scale(0.015625)"/>
       <path id="STIXSizeOneSym-Regular-29" d="M 550 6630 
L 550 6822 
Q 1267 6144 1686 5142 
Q 2106 4141 2106 2886 
Q 2106 1651 1686 636 
Q 1267 -378 550 -1050 
L 550 -858 
Q 1587 410 1587 2886 
Q 1587 5363 550 6630 
z
" transform="scale(0.015625)"/>
      </defs>
      <use xlink:href="#DejaVuSans-53" transform="translate(0 0.765625)"/>
      <use xlink:href="#DejaVuSans-71" transform="translate(63.476562 0.765625)"/>
      <use xlink:href="#DejaVuSans-75" transform="translate(126.953125 0.765625)"/>
      <use xlink:href="#DejaVuSans-61" transform="translate(190.332031 0.765625)"/>
      <use xlink:href="#DejaVuSans-72" transform="translate(251.611328 0.765625)"/>
      <use xlink:href="#DejaVuSans-65" transform="translate(292.724609 0.765625)"/>
      <use xlink:href="#DejaVuSans-64" transform="translate(354.248047 0.765625)"/>
      <use xlink:href="#DejaVuSans-20" transform="translate(417.724609 0.765625)"/>
      <use xlink:href="#DejaVuSans-53" transform="translate(449.511719 0.765625)"/>
      <use xlink:href="#DejaVuSans-70" transform="translate(512.988281 0.765625)"/>
      <use xlink:href="#DejaVuSans-65" transform="translate(576.464844 0.765625)"/>
      <use xlink:href="#DejaVuSans-65" transform="translate(637.988281 0.765625)"/>
      <use xlink:href="#DejaVuSans-64" transform="translate(699.511719 0.765625)"/>
      <use xlink:href="#DejaVuSans-20" transform="translate(762.988281 0.765625)"/>
      <use xlink:href="#STIXSizeOneSym-Regular-28" transform="translate(794.775391 -12.132812)scale(0.899555)"/>
      <use xlink:href="#DejaVuSans-Oblique-6d" transform="translate(836.873444 44.5625)scale(0.7)"/>
      <use xlink:href="#DejaVuSans-Oblique-73" transform="translate(852.873444 -25.8875)scale(0.7)"/>
      <use xlink:href="#STIXSizeOneSym-Regular-29" transform="translate(917.56192 -12.132812)scale(0.899555)"/>
      <use xlink:href="#DejaVuSans-32" transform="translate(960.617004 39.046875)scale(0.7)"/>
      <path d="M 836.873444 19.5625 
L 836.873444 25.8125 
L 905.06192 25.8125 
L 905.06192 19.5625 
L 836.873444 19.5625 
z
"/>
     </g>
    </g>
   </g>
   <g id="line2d_16">
    <path d="M 275.390695 567.186344 
L 276.895841 566.352567 
L 278.400987 565.280575 
L 280.28242 563.640478 
L 282.163852 561.706259 
L 284.421571 559.052422 
L 287.055577 555.576916 
L 290.065869 551.216104 
L 293.828734 545.359406 
L 300.225604 534.907394 
L 307.375048 523.330551 
L 311.890486 516.441623 
L 315.653351 511.086381 
L 319.039929 506.624539 
L 322.426508 502.538812 
L 325.4368 499.243775 
L 328.447092 496.278587 
L 331.457384 493.650635 
L 334.091389 491.630311 
L 336.725395 489.870179 
L 339.359401 488.367814 
L 341.993406 487.118986 
L 344.627412 486.117858 
L 347.261417 485.357181 
L 349.895423 484.828472 
L 352.529428 484.522182 
L 355.163434 484.427846 
L 357.797439 484.534231 
L 360.807731 484.886345 
L 363.818023 485.466584 
L 367.204602 486.368135 
L 370.59118 487.506148 
L 374.354045 489.013421 
L 378.493197 490.92152 
L 383.384921 493.445875 
L 389.405505 496.836391 
L 399.565241 502.879619 
L 408.596117 508.145007 
L 414.616701 511.39498 
L 419.508426 513.800991 
L 424.023864 515.792683 
L 428.539302 517.532832 
L 432.678453 518.884948 
L 436.817605 519.98778 
L 440.58047 520.76314 
L 444.343335 521.31455 
L 448.1062 521.637035 
L 451.869065 521.727879 
L 455.63193 521.586604 
L 459.394795 521.214939 
L 463.15766 520.616798 
L 466.920525 519.798254 
L 470.68339 518.767507 
L 474.822541 517.400948 
L 478.961693 515.806736 
L 483.477131 513.831051 
L 488.368855 511.445553 
L 494.013153 508.431069 
L 500.78631 504.544804 
L 522.234641 492.019256 
L 527.126365 489.524706 
L 531.265517 487.638645 
L 535.028382 486.144847 
L 538.791247 484.898166 
L 542.177825 484.016835 
L 545.188117 483.446377 
L 548.198409 483.094728 
L 551.208701 482.979036 
L 553.842707 483.084343 
L 556.476712 483.393456 
L 559.110718 483.916295 
L 561.744723 484.662065 
L 564.378729 485.639142 
L 567.012734 486.854934 
L 569.64674 488.315749 
L 572.280745 490.026642 
L 574.914751 491.99125 
L 577.548756 494.211625 
L 580.559048 497.06265 
L 583.56934 500.245278 
L 586.579633 503.752978 
L 589.966211 508.074142 
L 593.35279 512.770544 
L 597.115655 518.390986 
L 601.254806 524.996797 
L 606.146531 533.243657 
L 621.950564 560.287132 
L 624.960856 564.849388 
L 627.594861 568.481349 
L 629.85258 571.2568 
L 632.110299 573.656238 
L 633.991732 575.320907 
L 635.496878 576.404008 
L 637.002024 577.241996 
L 638.50717 577.8114 
L 640.012316 578.087564 
L 641.141175 578.086722 
L 642.270035 577.895007 
L 643.398894 577.500618 
L 644.527754 576.891329 
L 645.656613 576.054481 
L 646.785473 574.976969 
L 647.914332 573.645233 
L 649.419478 571.449814 
L 650.924624 568.74287 
L 651.677197 567.186344 
L 651.677197 567.186344 
" clip-path="url(#p29572f77c1)" style="fill: none; stroke: #1f77b4; stroke-width: 4; stroke-linecap: square"/>
   </g>
   <g id="line2d_17">
    <path d="M 275.390695 567.186344 
L 277.260094 567.631481 
L 279.129493 567.883449 
L 280.998892 567.950241 
L 282.86829 567.839702 
L 285.360822 567.429751 
L 287.853354 566.736058 
L 290.345886 565.776011 
L 292.838417 564.566555 
L 295.330949 563.124186 
L 298.446614 561.018118 
L 301.562278 558.603607 
L 304.677943 555.910028 
L 308.416741 552.34921 
L 312.155538 548.474372 
L 316.517469 543.616766 
L 321.502532 537.703779 
L 327.110729 530.704614 
L 335.211457 520.192016 
L 353.282312 496.586743 
L 360.136774 488.079586 
L 365.744971 481.46138 
L 370.730034 475.89433 
L 375.715098 470.666687 
L 380.077028 466.398879 
L 384.438959 462.438822 
L 388.800889 458.804473 
L 392.539687 455.960201 
L 396.278485 453.374573 
L 400.017282 451.054287 
L 403.75608 449.004694 
L 407.494877 447.229821 
L 411.233675 445.732408 
L 414.972473 444.513942 
L 418.088137 443.711861 
L 421.203802 443.103216 
L 424.319467 442.686966 
L 427.435131 442.461525 
L 430.550796 442.424775 
L 434.289594 442.626004 
L 438.028391 443.089622 
L 441.767189 443.809118 
L 445.505987 444.777012 
L 449.244784 445.984895 
L 452.983582 447.423464 
L 456.722379 449.082566 
L 461.08431 451.282239 
L 465.44624 453.748387 
L 469.808171 456.460934 
L 474.793235 459.83529 
L 479.778298 463.469912 
L 485.386494 467.825744 
L 492.240957 473.458524 
L 500.341685 480.422909 
L 525.890135 502.640128 
L 532.121465 507.666722 
L 537.729661 511.916901 
L 542.714724 515.42706 
L 547.076655 518.257997 
L 551.438586 520.83631 
L 555.800516 523.135776 
L 559.539314 524.865499 
L 563.278111 526.356142 
L 567.016909 527.592729 
L 570.755707 528.56086 
L 573.871371 529.152608 
L 576.987036 529.540737 
L 580.102701 529.717975 
L 583.218365 529.677413 
L 586.33403 529.412525 
L 589.449695 528.917183 
L 592.565359 528.185679 
L 595.681024 527.212737 
L 598.796689 525.993537 
L 601.912353 524.523728 
L 605.028018 522.799445 
L 608.143683 520.817327 
L 611.259347 518.574531 
L 614.375012 516.068748 
L 617.490677 513.298219 
L 620.606341 510.261747 
L 623.722006 506.958714 
L 627.460804 502.643215 
L 631.199601 497.944959 
L 634.938399 492.866327 
L 638.677197 487.411009 
L 642.415994 481.584028 
L 646.154792 475.391768 
L 650.516722 467.716225 
L 654.878653 459.568852 
L 659.240583 450.967007 
L 664.225647 440.605627 
L 669.21071 429.711029 
L 674.818907 416.865655 
L 680.427103 403.456686 
L 686.658433 387.98152 
L 694.136028 368.755935 
L 703.483022 344.01586 
L 728.408339 277.605246 
L 735.262802 260.2 
L 740.870998 246.544879 
L 745.856061 234.966135 
L 750.217992 225.345597 
L 754.579923 216.270766 
L 758.31872 208.977117 
L 762.057518 202.175517 
L 765.173182 196.913965 
L 768.288847 192.048097 
L 771.404512 187.602424 
L 774.520177 183.601361 
L 777.012708 180.736941 
L 779.50524 178.184928 
L 781.997772 175.957537 
L 784.490303 174.066852 
L 786.982835 172.524805 
L 788.852234 171.604141 
L 790.721633 170.891088 
L 792.591032 170.39046 
L 794.46043 170.107 
L 796.329829 170.045368 
L 798.199228 170.210134 
L 800.068627 170.605778 
L 801.938026 171.236676 
L 803.807424 172.107099 
L 805.676823 173.221202 
L 807.546222 174.58302 
L 809.415621 176.19646 
L 811.28502 178.065292 
L 813.154419 180.193144 
L 815.64695 183.439187 
L 818.139482 187.159675 
L 820.632014 191.361873 
L 823.124545 196.05248 
L 825.617077 201.237589 
L 828.109609 206.922655 
L 830.602141 213.112453 
L 833.094672 219.811045 
L 836.210337 228.904737 
L 839.326002 238.803225 
L 842.441666 249.509141 
L 845.557331 261.022921 
L 848.672996 273.342669 
L 851.788661 286.464021 
L 855.527458 303.257746 
L 859.266256 321.178269 
L 863.005053 340.202175 
L 866.743851 360.299567 
L 871.105782 385.053822 
L 875.467712 411.147833 
L 879.829643 438.496129 
L 884.814706 471.157026 
L 890.422903 509.479105 
L 896.654232 553.667212 
L 898.523631 567.186344 
L 898.523631 567.186344 
" clip-path="url(#p29572f77c1)" style="fill: none; stroke: #ff7f0e; stroke-width: 4; stroke-linecap: square"/>
   </g>
   <g id="line2d_18">
    <path d="M 275.390695 567.186344 
L 276.34065 569.305769 
L 277.290605 570.805658 
L 277.923909 571.476692 
L 278.557212 571.895009 
L 279.190515 572.069288 
L 279.823819 572.008007 
L 280.457122 571.719444 
L 281.090425 571.211682 
L 282.04038 570.056252 
L 282.990335 568.451181 
L 283.94029 566.421393 
L 285.206897 563.095735 
L 286.473504 559.11218 
L 288.056762 553.286388 
L 289.640021 546.609326 
L 291.539931 537.599317 
L 293.756492 525.89389 
L 296.289706 511.198634 
L 299.139571 493.324529 
L 302.622739 470.051601 
L 307.689166 434.48487 
L 320.988536 340.288095 
L 325.738311 308.696042 
L 329.854783 282.834493 
L 333.654603 260.409071 
L 337.137772 241.181026 
L 340.304288 224.863101 
L 343.470805 209.6884 
L 346.32067 197.027069 
L 349.170535 185.317976 
L 352.0204 174.562884 
L 354.553614 165.800606 
L 357.086827 157.782889 
L 359.620041 150.500741 
L 362.153254 143.942625 
L 364.369816 138.787376 
L 366.586378 134.165312 
L 368.802939 130.064721 
L 371.019501 126.472856 
L 372.919411 123.788652 
L 374.819321 121.458994 
L 376.719231 119.47427 
L 378.619141 117.824441 
L 380.519051 116.499062 
L 382.418961 115.487304 
L 384.00222 114.875677 
L 385.585478 114.467411 
L 387.168736 114.255681 
L 388.751995 114.23351 
L 390.651905 114.44708 
L 392.551815 114.910768 
L 394.451725 115.611717 
L 396.351635 116.536811 
L 398.568197 117.881543 
L 400.784758 119.49156 
L 403.317972 121.628194 
L 405.851185 124.049224 
L 408.70105 127.070642 
L 411.867567 130.740248 
L 415.667387 135.485658 
L 420.733814 142.200144 
L 434.033184 160.025938 
L 438.149656 165.059053 
L 441.632824 168.966941 
L 444.799341 172.177969 
L 447.649206 174.749162 
L 450.18242 176.755271 
L 452.715633 178.47868 
L 454.932195 179.742013 
L 457.148757 180.76758 
L 459.365318 181.548314 
L 461.58188 182.079141 
L 463.798442 182.35709 
L 466.015003 182.381416 
L 468.231565 182.153698 
L 470.448127 181.677954 
L 472.664689 180.960729 
L 474.88125 180.011192 
L 477.414464 178.656896 
L 479.947677 177.036933 
L 482.797542 174.930742 
L 485.964059 172.292573 
L 489.763879 168.815772 
L 502.746598 156.596681 
L 505.596463 154.39326 
L 507.813025 152.943766 
L 509.712935 151.928524 
L 511.612845 151.158551 
L 513.196103 150.729157 
L 514.779361 150.514398 
L 516.36262 150.534869 
L 517.945878 150.811349 
L 519.529136 151.364725 
L 520.795743 152.020845 
L 522.379002 153.1253 
L 523.96226 154.564996 
L 525.545518 156.360439 
L 527.128777 158.531797 
L 528.712035 161.098785 
L 530.295293 164.080549 
L 531.878552 167.495535 
L 533.778462 172.190108 
L 535.678372 177.562395 
L 537.578282 183.638554 
L 539.478192 190.441944 
L 541.378102 197.992696 
L 543.594664 207.768205 
L 545.811226 218.602052 
L 548.027787 230.504288 
L 550.561001 245.414608 
L 553.094214 261.701894 
L 555.944079 281.620208 
L 558.793944 303.135215 
L 561.960461 328.741798 
L 565.760281 361.461798 
L 570.510056 404.477187 
L 579.059651 482.213331 
L 582.226168 508.682868 
L 584.759382 527.896864 
L 586.659292 540.760709 
L 588.24255 550.235288 
L 589.825808 558.383478 
L 591.092415 563.815635 
L 592.04237 567.186344 
L 592.04237 567.186344 
" clip-path="url(#p29572f77c1)" style="fill: none; stroke: #2ca02c; stroke-width: 4; stroke-linecap: square"/>
   </g>
   <g id="line2d_19">
    <path d="M 275.390695 567.186344 
L 278.985869 557.013476 
L 281.810649 549.696427 
L 284.121832 544.277416 
L 286.433016 539.436971 
L 288.487401 535.654931 
L 290.284988 532.763403 
L 292.082575 530.268911 
L 293.880162 528.173166 
L 295.420951 526.692277 
L 296.96174 525.498503 
L 298.502529 524.586018 
L 300.043318 523.94733 
L 301.584107 523.57347 
L 303.124896 523.454174 
L 304.665685 523.578051 
L 306.206474 523.932739 
L 307.747263 524.505053 
L 309.54485 525.429269 
L 311.342437 526.607823 
L 313.396822 528.235672 
L 315.708005 530.381716 
L 318.275987 533.095416 
L 321.357565 536.710691 
L 325.209537 541.601933 
L 337.27905 557.192505 
L 340.360628 560.706497 
L 343.185408 563.603637 
L 345.75339 565.915744 
L 348.064573 567.6992 
L 350.118958 569.024748 
L 352.173343 570.087386 
L 353.97093 570.788789 
L 355.768518 571.266608 
L 357.566105 571.511769 
L 359.363692 571.516001 
L 361.161279 571.271804 
L 362.958866 570.772424 
L 364.756453 570.011817 
L 366.55404 568.984624 
L 368.351627 567.686135 
L 370.149214 566.112263 
L 371.946801 564.259517 
L 374.001187 561.796885 
L 376.055572 558.962704 
L 378.109957 555.754351 
L 380.42114 551.695514 
L 382.732324 547.159561 
L 385.043507 542.146414 
L 387.611489 536.017993 
L 390.17947 529.305129 
L 393.00425 521.252045 
L 395.82903 512.50723 
L 398.910608 502.192721 
L 401.992185 491.088884 
L 405.330561 478.196809 
L 408.925736 463.350689 
L 412.52091 447.560586 
L 416.372882 429.670254 
L 420.738451 408.298925 
L 425.617616 383.237402 
L 431.523973 351.639847 
L 451.040633 246.07104 
L 454.892605 227.008446 
L 458.230981 211.556642 
L 461.055761 199.446639 
L 463.623742 189.343045 
L 465.934926 181.090318 
L 467.989311 174.498951 
L 470.043696 168.675669 
L 471.841283 164.26196 
L 473.382072 161.020403 
L 474.922861 158.30831 
L 476.206852 156.472813 
L 477.490843 155.040435 
L 478.518035 154.195491 
L 479.545228 153.62682 
L 480.572421 153.342408 
L 481.599613 153.350133 
L 482.370008 153.552306 
L 483.3972 154.08982 
L 484.424393 154.940401 
L 485.451586 156.111331 
L 486.478778 157.609682 
L 487.762769 159.953446 
L 489.04676 162.832235 
L 490.330751 166.258103 
L 491.87154 171.10706 
L 493.412328 176.777675 
L 494.953117 183.285572 
L 496.750704 191.953931 
L 498.548292 201.796468 
L 500.345879 212.824312 
L 502.400264 226.885123 
L 504.454649 242.497056 
L 506.765832 261.893595 
L 509.077016 283.186661 
L 511.644997 308.981776 
L 514.469777 339.78769 
L 517.551355 375.9995 
L 521.146529 421.086007 
L 526.025694 485.472118 
L 532.18885 567.186344 
L 532.18885 567.186344 
" clip-path="url(#p29572f77c1)" style="fill: none; stroke: #d62728; stroke-width: 4; stroke-linecap: square"/>
   </g>
   <g id="line2d_20">
    <path d="M 187.876244 607.849091 
L 898.523631 607.849091 
" clip-path="url(#p29572f77c1)" style="fill: none; stroke-dasharray: 14.8,6.4; stroke-dashoffset: 0; stroke: #ff0000; stroke-width: 4"/>
   </g>
   <g id="line2d_21">
    <path d="M 187.876244 53.630909 
L 898.523631 53.630909 
" clip-path="url(#p29572f77c1)" style="fill: none; stroke-dasharray: 14.8,6.4; stroke-dashoffset: 0; stroke: #ff0000; stroke-width: 4"/>
   </g>
   <g id="patch_3">
    <path d="M 152.343875 635.56 
L 152.343875 25.92 
" style="fill: none; stroke: #000000; stroke-width: 0.8; stroke-linejoin: miter; stroke-linecap: square"/>
   </g>
   <g id="patch_4">
    <path d="M 934.056 635.56 
L 934.056 25.92 
" style="fill: none; stroke: #000000; stroke-width: 0.8; stroke-linejoin: miter; stroke-linecap: square"/>
   </g>
   <g id="patch_5">
    <path d="M 152.343875 635.56 
L 934.056 635.56 
" style="fill: none; stroke: #000000; stroke-width: 0.8; stroke-linejoin: miter; stroke-linecap: square"/>
   </g>
   <g id="patch_6">
    <path d="M 152.343875 25.92 
L 934.056 25.92 
" style="fill: none; stroke: #000000; stroke-width: 0.8; stroke-linejoin: miter; stroke-linecap: square"/>
   </g>
   <g id="legend_1">
    <g id="patch_7">
     <path d="M 731.72475 623.56 
L 917.256 623.56 
Q 922.056 623.56 922.056 618.76 
L 922.056 398.89 
Q 922.056 394.09 917.256 394.09 
L 731.72475 394.09 
Q 726.92475 394.09 726.92475 398.89 
L 726.92475 618.76 
Q 726.92475 623.56 731.72475 623.56 
z
" style="fill: #ffffff; opacity: 0.8; stroke: #cccccc; stroke-linejoin: miter"/>
    </g>
    <g id="line2d_22">
     <path d="M 736.52475 413.52625 
L 760.52475 413.52625 
L 784.52475 413.52625 
" style="fill: none; stroke: #1f77b4; stroke-width: 4; stroke-linecap: square"/>
    </g>
    <g id="text_18">
     <!-- Vehicle 1 -->
     <g transform="translate(803.72475 421.92625)scale(0.24 -0.24)">
      <defs>
       <path id="DejaVuSans-56" d="M 1831 0 
L 50 4666 
L 709 4666 
L 2188 738 
L 3669 4666 
L 4325 4666 
L 2547 0 
L 1831 0 
z
" transform="scale(0.015625)"/>
       <path id="DejaVuSans-63" d="M 3122 3366 
L 3122 2828 
Q 2878 2963 2633 3030 
Q 2388 3097 2138 3097 
Q 1578 3097 1268 2742 
Q 959 2388 959 1747 
Q 959 1106 1268 751 
Q 1578 397 2138 397 
Q 2388 397 2633 464 
Q 2878 531 3122 666 
L 3122 134 
Q 2881 22 2623 -34 
Q 2366 -91 2075 -91 
Q 1284 -91 818 406 
Q 353 903 353 1747 
Q 353 2603 823 3093 
Q 1294 3584 2113 3584 
Q 2378 3584 2631 3529 
Q 2884 3475 3122 3366 
z
" transform="scale(0.015625)"/>
       <path id="DejaVuSans-6c" d="M 603 4863 
L 1178 4863 
L 1178 0 
L 603 0 
L 603 4863 
z
" transform="scale(0.015625)"/>
      </defs>
      <use xlink:href="#DejaVuSans-56"/>
      <use xlink:href="#DejaVuSans-65" x="60.658203"/>
      <use xlink:href="#DejaVuSans-68" x="122.181641"/>
      <use xlink:href="#DejaVuSans-69" x="185.560547"/>
      <use xlink:href="#DejaVuSans-63" x="213.34375"/>
      <use xlink:href="#DejaVuSans-6c" x="268.324219"/>
      <use xlink:href="#DejaVuSans-65" x="296.107422"/>
      <use xlink:href="#DejaVuSans-20" x="357.630859"/>
      <use xlink:href="#DejaVuSans-31" x="389.417969"/>
     </g>
    </g>
    <g id="line2d_23">
     <path d="M 736.52475 448.75375 
L 760.52475 448.75375 
L 784.52475 448.75375 
" style="fill: none; stroke: #ff7f0e; stroke-width: 4; stroke-linecap: square"/>
    </g>
    <g id="text_19">
     <!-- Vehicle 2 -->
     <g transform="translate(803.72475 457.15375)scale(0.24 -0.24)">
      <use xlink:href="#DejaVuSans-56"/>
      <use xlink:href="#DejaVuSans-65" x="60.658203"/>
      <use xlink:href="#DejaVuSans-68" x="122.181641"/>
      <use xlink:href="#DejaVuSans-69" x="185.560547"/>
      <use xlink:href="#DejaVuSans-63" x="213.34375"/>
      <use xlink:href="#DejaVuSans-6c" x="268.324219"/>
      <use xlink:href="#DejaVuSans-65" x="296.107422"/>
      <use xlink:href="#DejaVuSans-20" x="357.630859"/>
      <use xlink:href="#DejaVuSans-32" x="389.417969"/>
     </g>
    </g>
    <g id="line2d_24">
     <path d="M 736.52475 483.98125 
L 760.52475 483.98125 
L 784.52475 483.98125 
" style="fill: none; stroke: #2ca02c; stroke-width: 4; stroke-linecap: square"/>
    </g>
    <g id="text_20">
     <!-- Vehicle 3 -->
     <g transform="translate(803.72475 492.38125)scale(0.24 -0.24)">
      <use xlink:href="#DejaVuSans-56"/>
      <use xlink:href="#DejaVuSans-65" x="60.658203"/>
      <use xlink:href="#DejaVuSans-68" x="122.181641"/>
      <use xlink:href="#DejaVuSans-69" x="185.560547"/>
      <use xlink:href="#DejaVuSans-63" x="213.34375"/>
      <use xlink:href="#DejaVuSans-6c" x="268.324219"/>
      <use xlink:href="#DejaVuSans-65" x="296.107422"/>
      <use xlink:href="#DejaVuSans-20" x="357.630859"/>
      <use xlink:href="#DejaVuSans-33" x="389.417969"/>
     </g>
    </g>
    <g id="line2d_25">
     <path d="M 736.52475 519.20875 
L 760.52475 519.20875 
L 784.52475 519.20875 
" style="fill: none; stroke: #d62728; stroke-width: 4; stroke-linecap: square"/>
    </g>
    <g id="text_21">
     <!-- Vehicle 4 -->
     <g transform="translate(803.72475 527.60875)scale(0.24 -0.24)">
      <use xlink:href="#DejaVuSans-56"/>
      <use xlink:href="#DejaVuSans-65" x="60.658203"/>
      <use xlink:href="#DejaVuSans-68" x="122.181641"/>
      <use xlink:href="#DejaVuSans-69" x="185.560547"/>
      <use xlink:href="#DejaVuSans-63" x="213.34375"/>
      <use xlink:href="#DejaVuSans-6c" x="268.324219"/>
      <use xlink:href="#DejaVuSans-65" x="296.107422"/>
      <use xlink:href="#DejaVuSans-20" x="357.630859"/>
      <use xlink:href="#DejaVuSans-34" x="389.417969"/>
     </g>
    </g>
    <g id="line2d_26">
     <path d="M 736.52475 558.04 
L 760.52475 558.04 
L 784.52475 558.04 
" style="fill: none; stroke-dasharray: 14.8,6.4; stroke-dashoffset: 0; stroke: #ff0000; stroke-width: 4"/>
    </g>
    <g id="text_22">
     <!-- $v^2_{min}$ -->
     <g transform="translate(803.72475 566.44)scale(0.24 -0.24)">
      <defs>
       <path id="DejaVuSans-Oblique-76" d="M 459 3500 
L 1069 3500 
L 1581 525 
L 3256 3500 
L 3866 3500 
L 1875 0 
L 1100 0 
L 459 3500 
z
" transform="scale(0.015625)"/>
       <path id="DejaVuSans-Oblique-69" d="M 1172 4863 
L 1747 4863 
L 1606 4134 
L 1031 4134 
L 1172 4863 
z
M 909 3500 
L 1484 3500 
L 800 0 
L 225 0 
L 909 3500 
z
" transform="scale(0.015625)"/>
       <path id="DejaVuSans-Oblique-6e" d="M 3566 2113 
L 3156 0 
L 2578 0 
L 2988 2091 
Q 3016 2238 3031 2350 
Q 3047 2463 3047 2528 
Q 3047 2791 2881 2937 
Q 2716 3084 2419 3084 
Q 1956 3084 1622 2776 
Q 1288 2469 1184 1941 
L 800 0 
L 225 0 
L 903 3500 
L 1478 3500 
L 1363 2950 
Q 1603 3253 1940 3418 
Q 2278 3584 2650 3584 
Q 3113 3584 3367 3334 
Q 3622 3084 3622 2631 
Q 3622 2519 3608 2391 
Q 3594 2263 3566 2113 
z
" transform="scale(0.015625)"/>
      </defs>
      <use xlink:href="#DejaVuSans-Oblique-76" transform="translate(0 0.701562)"/>
      <use xlink:href="#DejaVuSans-32" transform="translate(63.645833 39.046875)scale(0.7)"/>
      <use xlink:href="#DejaVuSans-Oblique-6d" transform="translate(59.179688 -26.642188)scale(0.7)"/>
      <use xlink:href="#DejaVuSans-Oblique-69" transform="translate(127.368164 -26.642188)scale(0.7)"/>
      <use xlink:href="#DejaVuSans-Oblique-6e" transform="translate(146.816406 -26.642188)scale(0.7)"/>
     </g>
    </g>
    <g id="line2d_27">
     <path d="M 736.52475 598.6 
L 760.52475 598.6 
L 784.52475 598.6 
" style="fill: none; stroke-dasharray: 14.8,6.4; stroke-dashoffset: 0; stroke: #ff0000; stroke-width: 4"/>
    </g>
    <g id="text_23">
     <!-- $v^2_{max}$ -->
     <g transform="translate(803.72475 607)scale(0.24 -0.24)">
      <defs>
       <path id="DejaVuSans-Oblique-61" d="M 3438 1997 
L 3047 0 
L 2472 0 
L 2578 531 
Q 2325 219 2001 64 
Q 1678 -91 1281 -91 
Q 834 -91 548 182 
Q 263 456 263 884 
Q 263 1497 752 1853 
Q 1241 2209 2100 2209 
L 2900 2209 
L 2931 2363 
Q 2938 2388 2941 2417 
Q 2944 2447 2944 2509 
Q 2944 2788 2717 2942 
Q 2491 3097 2081 3097 
Q 1800 3097 1504 3025 
Q 1209 2953 897 2809 
L 997 3341 
Q 1322 3463 1633 3523 
Q 1944 3584 2234 3584 
Q 2853 3584 3176 3315 
Q 3500 3047 3500 2534 
Q 3500 2431 3484 2292 
Q 3469 2153 3438 1997 
z
M 2816 1759 
L 2241 1759 
Q 1534 1759 1195 1570 
Q 856 1381 856 984 
Q 856 709 1029 553 
Q 1203 397 1509 397 
Q 1978 397 2328 733 
Q 2678 1069 2791 1631 
L 2816 1759 
z
" transform="scale(0.015625)"/>
       <path id="DejaVuSans-Oblique-78" d="M 3841 3500 
L 2234 1784 
L 3219 0 
L 2559 0 
L 1819 1388 
L 531 0 
L -166 0 
L 1556 1844 
L 641 3500 
L 1300 3500 
L 1972 2234 
L 3144 3500 
L 3841 3500 
z
" transform="scale(0.015625)"/>
      </defs>
      <use xlink:href="#DejaVuSans-Oblique-76" transform="translate(0 0.765625)"/>
      <use xlink:href="#DejaVuSans-32" transform="translate(63.645833 39.046875)scale(0.7)"/>
      <use xlink:href="#DejaVuSans-Oblique-6d" transform="translate(59.179688 -26.578125)scale(0.7)"/>
      <use xlink:href="#DejaVuSans-Oblique-61" transform="translate(127.368164 -26.578125)scale(0.7)"/>
      <use xlink:href="#DejaVuSans-Oblique-78" transform="translate(170.263672 -26.578125)scale(0.7)"/>
     </g>
    </g>
   </g>
  </g>
 </g>
 <defs>
  <clipPath id="p29572f77c1">
   <rect x="152.343875" y="25.92" width="781.712125" height="609.64"/>
  </clipPath>
 </defs>
</svg>
