<?xml version="1.0" encoding="utf-8" standalone="no"?>
<!DOCTYPE svg PUBLIC "-//W3C//DTD SVG 1.1//EN"
  "http://www.w3.org/Graphics/SVG/1.1/DTD/svg11.dtd">
<!-- Created with matplotlib (https://matplotlib.org/) -->
<svg height="720pt" version="1.1" viewBox="0 0 959.976 720" width="959.976pt" xmlns="http://www.w3.org/2000/svg" xmlns:xlink="http://www.w3.org/1999/xlink">
 <defs>
  <style type="text/css">
*{stroke-linecap:butt;stroke-linejoin:round;}
  </style>
 </defs>
 <g id="figure_1">
  <g id="patch_1">
   <path d="M 0 720 
L 959.976 720 
L 959.976 0 
L 0 0 
z
" style="fill:#ffffff;"/>
  </g>
  <g id="axes_1">
   <g id="patch_2">
    <path d="M 167.167 588.04 
L 916.776 588.04 
L 916.776 43.2 
L 167.167 43.2 
z
" style="fill:#ffffff;"/>
   </g>
   <g id="matplotlib.axis_1">
    <g id="xtick_1">
     <g id="line2d_1">
      <defs>
       <path d="M 0 0 
L 0 3.5 
" id="m5f0b61ddd1" style="stroke:#000000;stroke-width:0.8;"/>
      </defs>
      <g>
       <use style="stroke:#000000;stroke-width:0.8;" x="229.634417" xlink:href="#m5f0b61ddd1" y="588.04"/>
      </g>
     </g>
     <g id="text_1">
      <!-- 0 -->
      <defs>
       <path d="M 31.78125 66.40625 
Q 24.171875 66.40625 20.328125 58.90625 
Q 16.5 51.421875 16.5 36.375 
Q 16.5 21.390625 20.328125 13.890625 
Q 24.171875 6.390625 31.78125 6.390625 
Q 39.453125 6.390625 43.28125 13.890625 
Q 47.125 21.390625 47.125 36.375 
Q 47.125 51.421875 43.28125 58.90625 
Q 39.453125 66.40625 31.78125 66.40625 
z
M 31.78125 74.21875 
Q 44.046875 74.21875 50.515625 64.515625 
Q 56.984375 54.828125 56.984375 36.375 
Q 56.984375 17.96875 50.515625 8.265625 
Q 44.046875 -1.421875 31.78125 -1.421875 
Q 19.53125 -1.421875 13.0625 8.265625 
Q 6.59375 17.96875 6.59375 36.375 
Q 6.59375 54.828125 13.0625 64.515625 
Q 19.53125 74.21875 31.78125 74.21875 
z
" id="DejaVuSans-48"/>
      </defs>
      <g transform="translate(216.909417 625.43375)scale(0.4 -0.4)">
       <use xlink:href="#DejaVuSans-48"/>
      </g>
     </g>
    </g>
    <g id="xtick_2">
     <g id="line2d_2">
      <g>
       <use style="stroke:#000000;stroke-width:0.8;" x="354.56925" xlink:href="#m5f0b61ddd1" y="588.04"/>
      </g>
     </g>
     <g id="text_2">
      <!-- 2 -->
      <defs>
       <path d="M 19.1875 8.296875 
L 53.609375 8.296875 
L 53.609375 0 
L 7.328125 0 
L 7.328125 8.296875 
Q 12.9375 14.109375 22.625 23.890625 
Q 32.328125 33.6875 34.8125 36.53125 
Q 39.546875 41.84375 41.421875 45.53125 
Q 43.3125 49.21875 43.3125 52.78125 
Q 43.3125 58.59375 39.234375 62.25 
Q 35.15625 65.921875 28.609375 65.921875 
Q 23.96875 65.921875 18.8125 64.3125 
Q 13.671875 62.703125 7.8125 59.421875 
L 7.8125 69.390625 
Q 13.765625 71.78125 18.9375 73 
Q 24.125 74.21875 28.421875 74.21875 
Q 39.75 74.21875 46.484375 68.546875 
Q 53.21875 62.890625 53.21875 53.421875 
Q 53.21875 48.921875 51.53125 44.890625 
Q 49.859375 40.875 45.40625 35.40625 
Q 44.1875 33.984375 37.640625 27.21875 
Q 31.109375 20.453125 19.1875 8.296875 
z
" id="DejaVuSans-50"/>
      </defs>
      <g transform="translate(341.84425 625.43375)scale(0.4 -0.4)">
       <use xlink:href="#DejaVuSans-50"/>
      </g>
     </g>
    </g>
    <g id="xtick_3">
     <g id="line2d_3">
      <g>
       <use style="stroke:#000000;stroke-width:0.8;" x="479.504083" xlink:href="#m5f0b61ddd1" y="588.04"/>
      </g>
     </g>
     <g id="text_3">
      <!-- 4 -->
      <defs>
       <path d="M 37.796875 64.3125 
L 12.890625 25.390625 
L 37.796875 25.390625 
z
M 35.203125 72.90625 
L 47.609375 72.90625 
L 47.609375 25.390625 
L 58.015625 25.390625 
L 58.015625 17.1875 
L 47.609375 17.1875 
L 47.609375 0 
L 37.796875 0 
L 37.796875 17.1875 
L 4.890625 17.1875 
L 4.890625 26.703125 
z
" id="DejaVuSans-52"/>
      </defs>
      <g transform="translate(466.779083 625.43375)scale(0.4 -0.4)">
       <use xlink:href="#DejaVuSans-52"/>
      </g>
     </g>
    </g>
    <g id="xtick_4">
     <g id="line2d_4">
      <g>
       <use style="stroke:#000000;stroke-width:0.8;" x="604.438917" xlink:href="#m5f0b61ddd1" y="588.04"/>
      </g>
     </g>
     <g id="text_4">
      <!-- 6 -->
      <defs>
       <path d="M 33.015625 40.375 
Q 26.375 40.375 22.484375 35.828125 
Q 18.609375 31.296875 18.609375 23.390625 
Q 18.609375 15.53125 22.484375 10.953125 
Q 26.375 6.390625 33.015625 6.390625 
Q 39.65625 6.390625 43.53125 10.953125 
Q 47.40625 15.53125 47.40625 23.390625 
Q 47.40625 31.296875 43.53125 35.828125 
Q 39.65625 40.375 33.015625 40.375 
z
M 52.59375 71.296875 
L 52.59375 62.3125 
Q 48.875 64.0625 45.09375 64.984375 
Q 41.3125 65.921875 37.59375 65.921875 
Q 27.828125 65.921875 22.671875 59.328125 
Q 17.53125 52.734375 16.796875 39.40625 
Q 19.671875 43.65625 24.015625 45.921875 
Q 28.375 48.1875 33.59375 48.1875 
Q 44.578125 48.1875 50.953125 41.515625 
Q 57.328125 34.859375 57.328125 23.390625 
Q 57.328125 12.15625 50.6875 5.359375 
Q 44.046875 -1.421875 33.015625 -1.421875 
Q 20.359375 -1.421875 13.671875 8.265625 
Q 6.984375 17.96875 6.984375 36.375 
Q 6.984375 53.65625 15.1875 63.9375 
Q 23.390625 74.21875 37.203125 74.21875 
Q 40.921875 74.21875 44.703125 73.484375 
Q 48.484375 72.75 52.59375 71.296875 
z
" id="DejaVuSans-54"/>
      </defs>
      <g transform="translate(591.713917 625.43375)scale(0.4 -0.4)">
       <use xlink:href="#DejaVuSans-54"/>
      </g>
     </g>
    </g>
    <g id="xtick_5">
     <g id="line2d_5">
      <g>
       <use style="stroke:#000000;stroke-width:0.8;" x="729.37375" xlink:href="#m5f0b61ddd1" y="588.04"/>
      </g>
     </g>
     <g id="text_5">
      <!-- 8 -->
      <defs>
       <path d="M 31.78125 34.625 
Q 24.75 34.625 20.71875 30.859375 
Q 16.703125 27.09375 16.703125 20.515625 
Q 16.703125 13.921875 20.71875 10.15625 
Q 24.75 6.390625 31.78125 6.390625 
Q 38.8125 6.390625 42.859375 10.171875 
Q 46.921875 13.96875 46.921875 20.515625 
Q 46.921875 27.09375 42.890625 30.859375 
Q 38.875 34.625 31.78125 34.625 
z
M 21.921875 38.8125 
Q 15.578125 40.375 12.03125 44.71875 
Q 8.5 49.078125 8.5 55.328125 
Q 8.5 64.0625 14.71875 69.140625 
Q 20.953125 74.21875 31.78125 74.21875 
Q 42.671875 74.21875 48.875 69.140625 
Q 55.078125 64.0625 55.078125 55.328125 
Q 55.078125 49.078125 51.53125 44.71875 
Q 48 40.375 41.703125 38.8125 
Q 48.828125 37.15625 52.796875 32.3125 
Q 56.78125 27.484375 56.78125 20.515625 
Q 56.78125 9.90625 50.3125 4.234375 
Q 43.84375 -1.421875 31.78125 -1.421875 
Q 19.734375 -1.421875 13.25 4.234375 
Q 6.78125 9.90625 6.78125 20.515625 
Q 6.78125 27.484375 10.78125 32.3125 
Q 14.796875 37.15625 21.921875 38.8125 
z
M 18.3125 54.390625 
Q 18.3125 48.734375 21.84375 45.5625 
Q 25.390625 42.390625 31.78125 42.390625 
Q 38.140625 42.390625 41.71875 45.5625 
Q 45.3125 48.734375 45.3125 54.390625 
Q 45.3125 60.0625 41.71875 63.234375 
Q 38.140625 66.40625 31.78125 66.40625 
Q 25.390625 66.40625 21.84375 63.234375 
Q 18.3125 60.0625 18.3125 54.390625 
z
" id="DejaVuSans-56"/>
      </defs>
      <g transform="translate(716.64875 625.43375)scale(0.4 -0.4)">
       <use xlink:href="#DejaVuSans-56"/>
      </g>
     </g>
    </g>
    <g id="xtick_6">
     <g id="line2d_6">
      <g>
       <use style="stroke:#000000;stroke-width:0.8;" x="854.308583" xlink:href="#m5f0b61ddd1" y="588.04"/>
      </g>
     </g>
     <g id="text_6">
      <!-- 10 -->
      <defs>
       <path d="M 12.40625 8.296875 
L 28.515625 8.296875 
L 28.515625 63.921875 
L 10.984375 60.40625 
L 10.984375 69.390625 
L 28.421875 72.90625 
L 38.28125 72.90625 
L 38.28125 8.296875 
L 54.390625 8.296875 
L 54.390625 0 
L 12.40625 0 
z
" id="DejaVuSans-49"/>
      </defs>
      <g transform="translate(828.858583 625.43375)scale(0.4 -0.4)">
       <use xlink:href="#DejaVuSans-49"/>
       <use x="63.623047" xlink:href="#DejaVuSans-48"/>
      </g>
     </g>
    </g>
    <g id="text_7">
     <!-- Time (s) -->
     <defs>
      <path d="M -0.296875 72.90625 
L 61.375 72.90625 
L 61.375 64.59375 
L 35.5 64.59375 
L 35.5 0 
L 25.59375 0 
L 25.59375 64.59375 
L -0.296875 64.59375 
z
" id="DejaVuSans-84"/>
      <path d="M 9.421875 54.6875 
L 18.40625 54.6875 
L 18.40625 0 
L 9.421875 0 
z
M 9.421875 75.984375 
L 18.40625 75.984375 
L 18.40625 64.59375 
L 9.421875 64.59375 
z
" id="DejaVuSans-105"/>
      <path d="M 52 44.1875 
Q 55.375 50.25 60.0625 53.125 
Q 64.75 56 71.09375 56 
Q 79.640625 56 84.28125 50.015625 
Q 88.921875 44.046875 88.921875 33.015625 
L 88.921875 0 
L 79.890625 0 
L 79.890625 32.71875 
Q 79.890625 40.578125 77.09375 44.375 
Q 74.3125 48.1875 68.609375 48.1875 
Q 61.625 48.1875 57.5625 43.546875 
Q 53.515625 38.921875 53.515625 30.90625 
L 53.515625 0 
L 44.484375 0 
L 44.484375 32.71875 
Q 44.484375 40.625 41.703125 44.40625 
Q 38.921875 48.1875 33.109375 48.1875 
Q 26.21875 48.1875 22.15625 43.53125 
Q 18.109375 38.875 18.109375 30.90625 
L 18.109375 0 
L 9.078125 0 
L 9.078125 54.6875 
L 18.109375 54.6875 
L 18.109375 46.1875 
Q 21.1875 51.21875 25.484375 53.609375 
Q 29.78125 56 35.6875 56 
Q 41.65625 56 45.828125 52.96875 
Q 50 49.953125 52 44.1875 
z
" id="DejaVuSans-109"/>
      <path d="M 56.203125 29.59375 
L 56.203125 25.203125 
L 14.890625 25.203125 
Q 15.484375 15.921875 20.484375 11.0625 
Q 25.484375 6.203125 34.421875 6.203125 
Q 39.59375 6.203125 44.453125 7.46875 
Q 49.3125 8.734375 54.109375 11.28125 
L 54.109375 2.78125 
Q 49.265625 0.734375 44.1875 -0.34375 
Q 39.109375 -1.421875 33.890625 -1.421875 
Q 20.796875 -1.421875 13.15625 6.1875 
Q 5.515625 13.8125 5.515625 26.8125 
Q 5.515625 40.234375 12.765625 48.109375 
Q 20.015625 56 32.328125 56 
Q 43.359375 56 49.78125 48.890625 
Q 56.203125 41.796875 56.203125 29.59375 
z
M 47.21875 32.234375 
Q 47.125 39.59375 43.09375 43.984375 
Q 39.0625 48.390625 32.421875 48.390625 
Q 24.90625 48.390625 20.390625 44.140625 
Q 15.875 39.890625 15.1875 32.171875 
z
" id="DejaVuSans-101"/>
      <path id="DejaVuSans-32"/>
      <path d="M 31 75.875 
Q 24.46875 64.65625 21.28125 53.65625 
Q 18.109375 42.671875 18.109375 31.390625 
Q 18.109375 20.125 21.3125 9.0625 
Q 24.515625 -2 31 -13.1875 
L 23.1875 -13.1875 
Q 15.875 -1.703125 12.234375 9.375 
Q 8.59375 20.453125 8.59375 31.390625 
Q 8.59375 42.28125 12.203125 53.3125 
Q 15.828125 64.359375 23.1875 75.875 
z
" id="DejaVuSans-40"/>
      <path d="M 44.28125 53.078125 
L 44.28125 44.578125 
Q 40.484375 46.53125 36.375 47.5 
Q 32.28125 48.484375 27.875 48.484375 
Q 21.1875 48.484375 17.84375 46.4375 
Q 14.5 44.390625 14.5 40.28125 
Q 14.5 37.15625 16.890625 35.375 
Q 19.28125 33.59375 26.515625 31.984375 
L 29.59375 31.296875 
Q 39.15625 29.25 43.1875 25.515625 
Q 47.21875 21.78125 47.21875 15.09375 
Q 47.21875 7.46875 41.1875 3.015625 
Q 35.15625 -1.421875 24.609375 -1.421875 
Q 20.21875 -1.421875 15.453125 -0.5625 
Q 10.6875 0.296875 5.421875 2 
L 5.421875 11.28125 
Q 10.40625 8.6875 15.234375 7.390625 
Q 20.0625 6.109375 24.8125 6.109375 
Q 31.15625 6.109375 34.5625 8.28125 
Q 37.984375 10.453125 37.984375 14.40625 
Q 37.984375 18.0625 35.515625 20.015625 
Q 33.0625 21.96875 24.703125 23.78125 
L 21.578125 24.515625 
Q 13.234375 26.265625 9.515625 29.90625 
Q 5.8125 33.546875 5.8125 39.890625 
Q 5.8125 47.609375 11.28125 51.796875 
Q 16.75 56 26.8125 56 
Q 31.78125 56 36.171875 55.265625 
Q 40.578125 54.546875 44.28125 53.078125 
z
" id="DejaVuSans-115"/>
      <path d="M 8.015625 75.875 
L 15.828125 75.875 
Q 23.140625 64.359375 26.78125 53.3125 
Q 30.421875 42.28125 30.421875 31.390625 
Q 30.421875 20.453125 26.78125 9.375 
Q 23.140625 -1.703125 15.828125 -13.1875 
L 8.015625 -13.1875 
Q 14.5 -2 17.703125 9.0625 
Q 20.90625 20.125 20.90625 31.390625 
Q 20.90625 42.671875 17.703125 53.65625 
Q 14.5 64.65625 8.015625 75.875 
z
" id="DejaVuSans-41"/>
     </defs>
     <g transform="translate(460.04025 668.14625)scale(0.4 -0.4)">
      <use xlink:href="#DejaVuSans-84"/>
      <use x="61.037109" xlink:href="#DejaVuSans-105"/>
      <use x="88.820312" xlink:href="#DejaVuSans-109"/>
      <use x="186.232422" xlink:href="#DejaVuSans-101"/>
      <use x="247.755859" xlink:href="#DejaVuSans-32"/>
      <use x="279.542969" xlink:href="#DejaVuSans-40"/>
      <use x="318.556641" xlink:href="#DejaVuSans-115"/>
      <use x="370.65625" xlink:href="#DejaVuSans-41"/>
     </g>
    </g>
   </g>
   <g id="matplotlib.axis_2">
    <g id="ytick_1">
     <g id="line2d_7">
      <defs>
       <path d="M 0 0 
L -3.5 0 
" id="mf20dc51ee9" style="stroke:#000000;stroke-width:0.8;"/>
      </defs>
      <g>
       <use style="stroke:#000000;stroke-width:0.8;" x="167.167" xlink:href="#mf20dc51ee9" y="510.205714"/>
      </g>
     </g>
     <g id="text_8">
      <!-- −6 -->
      <defs>
       <path d="M 10.59375 35.5 
L 73.1875 35.5 
L 73.1875 27.203125 
L 10.59375 27.203125 
z
" id="DejaVuSans-8722"/>
      </defs>
      <g transform="translate(101.19825 525.402589)scale(0.4 -0.4)">
       <use xlink:href="#DejaVuSans-8722"/>
       <use x="83.789062" xlink:href="#DejaVuSans-54"/>
      </g>
     </g>
    </g>
    <g id="ytick_2">
     <g id="line2d_8">
      <g>
       <use style="stroke:#000000;stroke-width:0.8;" x="167.167" xlink:href="#mf20dc51ee9" y="406.426667"/>
      </g>
     </g>
     <g id="text_9">
      <!-- −4 -->
      <g transform="translate(101.19825 421.623542)scale(0.4 -0.4)">
       <use xlink:href="#DejaVuSans-8722"/>
       <use x="83.789062" xlink:href="#DejaVuSans-52"/>
      </g>
     </g>
    </g>
    <g id="ytick_3">
     <g id="line2d_9">
      <g>
       <use style="stroke:#000000;stroke-width:0.8;" x="167.167" xlink:href="#mf20dc51ee9" y="302.647619"/>
      </g>
     </g>
     <g id="text_10">
      <!-- −2 -->
      <g transform="translate(101.19825 317.844494)scale(0.4 -0.4)">
       <use xlink:href="#DejaVuSans-8722"/>
       <use x="83.789062" xlink:href="#DejaVuSans-50"/>
      </g>
     </g>
    </g>
    <g id="ytick_4">
     <g id="line2d_10">
      <g>
       <use style="stroke:#000000;stroke-width:0.8;" x="167.167" xlink:href="#mf20dc51ee9" y="198.868571"/>
      </g>
     </g>
     <g id="text_11">
      <!-- 0 -->
      <g transform="translate(134.717 214.065446)scale(0.4 -0.4)">
       <use xlink:href="#DejaVuSans-48"/>
      </g>
     </g>
    </g>
    <g id="ytick_5">
     <g id="line2d_11">
      <g>
       <use style="stroke:#000000;stroke-width:0.8;" x="167.167" xlink:href="#mf20dc51ee9" y="95.089524"/>
      </g>
     </g>
     <g id="text_12">
      <!-- 2 -->
      <g transform="translate(134.717 110.286399)scale(0.4 -0.4)">
       <use xlink:href="#DejaVuSans-50"/>
      </g>
     </g>
    </g>
    <g id="text_13">
     <!-- Angular Rate $\left( \frac{rad}{s} \right)$ -->
     <defs>
      <path d="M 34.1875 63.1875 
L 20.796875 26.90625 
L 47.609375 26.90625 
z
M 28.609375 72.90625 
L 39.796875 72.90625 
L 67.578125 0 
L 57.328125 0 
L 50.6875 18.703125 
L 17.828125 18.703125 
L 11.1875 0 
L 0.78125 0 
z
" id="DejaVuSans-65"/>
      <path d="M 54.890625 33.015625 
L 54.890625 0 
L 45.90625 0 
L 45.90625 32.71875 
Q 45.90625 40.484375 42.875 44.328125 
Q 39.84375 48.1875 33.796875 48.1875 
Q 26.515625 48.1875 22.3125 43.546875 
Q 18.109375 38.921875 18.109375 30.90625 
L 18.109375 0 
L 9.078125 0 
L 9.078125 54.6875 
L 18.109375 54.6875 
L 18.109375 46.1875 
Q 21.34375 51.125 25.703125 53.5625 
Q 30.078125 56 35.796875 56 
Q 45.21875 56 50.046875 50.171875 
Q 54.890625 44.34375 54.890625 33.015625 
z
" id="DejaVuSans-110"/>
      <path d="M 45.40625 27.984375 
Q 45.40625 37.75 41.375 43.109375 
Q 37.359375 48.484375 30.078125 48.484375 
Q 22.859375 48.484375 18.828125 43.109375 
Q 14.796875 37.75 14.796875 27.984375 
Q 14.796875 18.265625 18.828125 12.890625 
Q 22.859375 7.515625 30.078125 7.515625 
Q 37.359375 7.515625 41.375 12.890625 
Q 45.40625 18.265625 45.40625 27.984375 
z
M 54.390625 6.78125 
Q 54.390625 -7.171875 48.1875 -13.984375 
Q 42 -20.796875 29.203125 -20.796875 
Q 24.46875 -20.796875 20.265625 -20.09375 
Q 16.0625 -19.390625 12.109375 -17.921875 
L 12.109375 -9.1875 
Q 16.0625 -11.328125 19.921875 -12.34375 
Q 23.78125 -13.375 27.78125 -13.375 
Q 36.625 -13.375 41.015625 -8.765625 
Q 45.40625 -4.15625 45.40625 5.171875 
L 45.40625 9.625 
Q 42.625 4.78125 38.28125 2.390625 
Q 33.9375 0 27.875 0 
Q 17.828125 0 11.671875 7.65625 
Q 5.515625 15.328125 5.515625 27.984375 
Q 5.515625 40.671875 11.671875 48.328125 
Q 17.828125 56 27.875 56 
Q 33.9375 56 38.28125 53.609375 
Q 42.625 51.21875 45.40625 46.390625 
L 45.40625 54.6875 
L 54.390625 54.6875 
z
" id="DejaVuSans-103"/>
      <path d="M 8.5 21.578125 
L 8.5 54.6875 
L 17.484375 54.6875 
L 17.484375 21.921875 
Q 17.484375 14.15625 20.5 10.265625 
Q 23.53125 6.390625 29.59375 6.390625 
Q 36.859375 6.390625 41.078125 11.03125 
Q 45.3125 15.671875 45.3125 23.6875 
L 45.3125 54.6875 
L 54.296875 54.6875 
L 54.296875 0 
L 45.3125 0 
L 45.3125 8.40625 
Q 42.046875 3.421875 37.71875 1 
Q 33.40625 -1.421875 27.6875 -1.421875 
Q 18.265625 -1.421875 13.375 4.4375 
Q 8.5 10.296875 8.5 21.578125 
z
M 31.109375 56 
z
" id="DejaVuSans-117"/>
      <path d="M 9.421875 75.984375 
L 18.40625 75.984375 
L 18.40625 0 
L 9.421875 0 
z
" id="DejaVuSans-108"/>
      <path d="M 34.28125 27.484375 
Q 23.390625 27.484375 19.1875 25 
Q 14.984375 22.515625 14.984375 16.5 
Q 14.984375 11.71875 18.140625 8.90625 
Q 21.296875 6.109375 26.703125 6.109375 
Q 34.1875 6.109375 38.703125 11.40625 
Q 43.21875 16.703125 43.21875 25.484375 
L 43.21875 27.484375 
z
M 52.203125 31.203125 
L 52.203125 0 
L 43.21875 0 
L 43.21875 8.296875 
Q 40.140625 3.328125 35.546875 0.953125 
Q 30.953125 -1.421875 24.3125 -1.421875 
Q 15.921875 -1.421875 10.953125 3.296875 
Q 6 8.015625 6 15.921875 
Q 6 25.140625 12.171875 29.828125 
Q 18.359375 34.515625 30.609375 34.515625 
L 43.21875 34.515625 
L 43.21875 35.40625 
Q 43.21875 41.609375 39.140625 45 
Q 35.0625 48.390625 27.6875 48.390625 
Q 23 48.390625 18.546875 47.265625 
Q 14.109375 46.140625 10.015625 43.890625 
L 10.015625 52.203125 
Q 14.9375 54.109375 19.578125 55.046875 
Q 24.21875 56 28.609375 56 
Q 40.484375 56 46.34375 49.84375 
Q 52.203125 43.703125 52.203125 31.203125 
z
" id="DejaVuSans-97"/>
      <path d="M 41.109375 46.296875 
Q 39.59375 47.171875 37.8125 47.578125 
Q 36.03125 48 33.890625 48 
Q 26.265625 48 22.1875 43.046875 
Q 18.109375 38.09375 18.109375 28.8125 
L 18.109375 0 
L 9.078125 0 
L 9.078125 54.6875 
L 18.109375 54.6875 
L 18.109375 46.1875 
Q 20.953125 51.171875 25.484375 53.578125 
Q 30.03125 56 36.53125 56 
Q 37.453125 56 38.578125 55.875 
Q 39.703125 55.765625 41.0625 55.515625 
z
" id="DejaVuSans-114"/>
      <path d="M 44.390625 34.1875 
Q 47.5625 33.109375 50.5625 29.59375 
Q 53.5625 26.078125 56.59375 19.921875 
L 66.609375 0 
L 56 0 
L 46.6875 18.703125 
Q 43.0625 26.03125 39.671875 28.421875 
Q 36.28125 30.8125 30.421875 30.8125 
L 19.671875 30.8125 
L 19.671875 0 
L 9.8125 0 
L 9.8125 72.90625 
L 32.078125 72.90625 
Q 44.578125 72.90625 50.734375 67.671875 
Q 56.890625 62.453125 56.890625 51.90625 
Q 56.890625 45.015625 53.6875 40.46875 
Q 50.484375 35.9375 44.390625 34.1875 
z
M 19.671875 64.796875 
L 19.671875 38.921875 
L 32.078125 38.921875 
Q 39.203125 38.921875 42.84375 42.21875 
Q 46.484375 45.515625 46.484375 51.90625 
Q 46.484375 58.296875 42.84375 61.546875 
Q 39.203125 64.796875 32.078125 64.796875 
z
" id="DejaVuSans-82"/>
      <path d="M 18.3125 70.21875 
L 18.3125 54.6875 
L 36.8125 54.6875 
L 36.8125 47.703125 
L 18.3125 47.703125 
L 18.3125 18.015625 
Q 18.3125 11.328125 20.140625 9.421875 
Q 21.96875 7.515625 27.59375 7.515625 
L 36.8125 7.515625 
L 36.8125 0 
L 27.59375 0 
Q 17.1875 0 13.234375 3.875 
Q 9.28125 7.765625 9.28125 18.015625 
L 9.28125 47.703125 
L 2.6875 47.703125 
L 2.6875 54.6875 
L 9.28125 54.6875 
L 9.28125 70.21875 
z
" id="DejaVuSans-116"/>
      <path d="M 38.203125 -13.40625 
L 38.203125 -16.40625 
Q 27 -5.796875 20.453125 9.84375 
Q 13.90625 25.5 13.90625 45.09375 
Q 13.90625 64.40625 20.453125 80.25 
Q 27 96.09375 38.203125 106.59375 
L 38.203125 103.59375 
Q 22 83.796875 22 45.09375 
Q 22 6.40625 38.203125 -13.40625 
z
" id="STIXSizeOneSym-Regular-40"/>
      <path d="M 44.578125 46.390625 
Q 43.21875 47.125 41.453125 47.515625 
Q 39.703125 47.90625 37.703125 47.90625 
Q 30.515625 47.90625 25.140625 42.453125 
Q 19.78125 37.015625 18.015625 27.875 
L 12.5 0 
L 3.515625 0 
L 14.203125 54.6875 
L 23.1875 54.6875 
L 21.484375 46.1875 
Q 25.046875 50.921875 30 53.453125 
Q 34.96875 56 40.578125 56 
Q 42.046875 56 43.453125 55.828125 
Q 44.875 55.671875 46.296875 55.28125 
z
" id="DejaVuSans-Oblique-114"/>
      <path d="M 53.71875 31.203125 
L 47.609375 0 
L 38.625 0 
L 40.28125 8.296875 
Q 36.328125 3.421875 31.265625 1 
Q 26.21875 -1.421875 20.015625 -1.421875 
Q 13.03125 -1.421875 8.5625 2.84375 
Q 4.109375 7.125 4.109375 13.8125 
Q 4.109375 23.390625 11.75 28.953125 
Q 19.390625 34.515625 32.8125 34.515625 
L 45.3125 34.515625 
L 45.796875 36.921875 
Q 45.90625 37.3125 45.953125 37.765625 
Q 46 38.234375 46 39.203125 
Q 46 43.5625 42.453125 45.96875 
Q 38.921875 48.390625 32.515625 48.390625 
Q 28.125 48.390625 23.5 47.265625 
Q 18.890625 46.140625 14.015625 43.890625 
L 15.578125 52.203125 
Q 20.65625 54.109375 25.515625 55.046875 
Q 30.375 56 34.90625 56 
Q 44.578125 56 49.625 51.796875 
Q 54.6875 47.609375 54.6875 39.59375 
Q 54.6875 37.984375 54.4375 35.8125 
Q 54.203125 33.640625 53.71875 31.203125 
z
M 44 27.484375 
L 35.015625 27.484375 
Q 23.96875 27.484375 18.671875 24.53125 
Q 13.375 21.578125 13.375 15.375 
Q 13.375 11.078125 16.078125 8.640625 
Q 18.796875 6.203125 23.578125 6.203125 
Q 30.90625 6.203125 36.375 11.453125 
Q 41.84375 16.703125 43.609375 25.484375 
z
" id="DejaVuSans-Oblique-97"/>
      <path d="M 41.796875 8.203125 
Q 38.1875 3.46875 33.25 1.015625 
Q 28.328125 -1.421875 22.3125 -1.421875 
Q 14.109375 -1.421875 9.34375 4.171875 
Q 4.59375 9.765625 4.59375 19.484375 
Q 4.59375 27.59375 7.46875 34.9375 
Q 10.359375 42.28125 15.828125 48.09375 
Q 19.4375 51.953125 23.96875 53.96875 
Q 28.515625 56 33.5 56 
Q 38.765625 56 42.796875 53.453125 
Q 46.828125 50.921875 49.03125 46.1875 
L 54.890625 75.984375 
L 63.921875 75.984375 
L 49.125 0 
L 40.09375 0 
z
M 13.921875 21.09375 
Q 13.921875 14.015625 17.109375 10.0625 
Q 20.3125 6.109375 25.984375 6.109375 
Q 30.171875 6.109375 33.765625 8.125 
Q 37.359375 10.15625 40.09375 14.109375 
Q 42.96875 18.21875 44.625 23.578125 
Q 46.296875 28.953125 46.296875 34.1875 
Q 46.296875 40.96875 43.09375 44.765625 
Q 39.890625 48.578125 34.28125 48.578125 
Q 30.03125 48.578125 26.359375 46.578125 
Q 22.703125 44.578125 20.125 40.828125 
Q 17.28125 36.765625 15.59375 31.390625 
Q 13.921875 26.03125 13.921875 21.09375 
z
" id="DejaVuSans-Oblique-100"/>
      <path d="M 50 53.078125 
L 48.296875 44.578125 
Q 44.734375 46.53125 40.765625 47.5 
Q 36.8125 48.484375 32.625 48.484375 
Q 25.53125 48.484375 21.453125 46.0625 
Q 17.390625 43.65625 17.390625 39.5 
Q 17.390625 34.671875 26.859375 32.078125 
Q 27.59375 31.890625 27.9375 31.78125 
L 30.8125 30.90625 
Q 39.796875 28.421875 42.796875 25.6875 
Q 45.796875 22.953125 45.796875 18.21875 
Q 45.796875 9.515625 38.890625 4.046875 
Q 31.984375 -1.421875 20.796875 -1.421875 
Q 16.453125 -1.421875 11.671875 -0.578125 
Q 6.890625 0.25 1.125 2 
L 2.875 11.28125 
Q 7.8125 8.734375 12.59375 7.421875 
Q 17.390625 6.109375 21.78125 6.109375 
Q 28.375 6.109375 32.5 8.9375 
Q 36.625 11.765625 36.625 16.109375 
Q 36.625 20.796875 25.78125 23.6875 
L 24.859375 23.921875 
L 21.78125 24.703125 
Q 14.9375 26.515625 11.765625 29.46875 
Q 8.59375 32.421875 8.59375 37.015625 
Q 8.59375 45.75 15.15625 50.875 
Q 21.734375 56 33.015625 56 
Q 37.453125 56 41.671875 55.265625 
Q 45.90625 54.546875 50 53.078125 
z
" id="DejaVuSans-Oblique-115"/>
      <path d="M 8.59375 103.59375 
L 8.59375 106.59375 
Q 19.796875 96 26.34375 80.34375 
Q 32.90625 64.703125 32.90625 45.09375 
Q 32.90625 25.796875 26.34375 9.9375 
Q 19.796875 -5.90625 8.59375 -16.40625 
L 8.59375 -13.40625 
Q 24.796875 6.40625 24.796875 45.09375 
Q 24.796875 83.796875 8.59375 103.59375 
z
" id="STIXSizeOneSym-Regular-41"/>
     </defs>
     <g transform="translate(85.99825 497.42)rotate(-90)scale(0.4 -0.4)">
      <use transform="translate(0 0.01875)" xlink:href="#DejaVuSans-65"/>
      <use transform="translate(68.408203 0.01875)" xlink:href="#DejaVuSans-110"/>
      <use transform="translate(131.787109 0.01875)" xlink:href="#DejaVuSans-103"/>
      <use transform="translate(195.263672 0.01875)" xlink:href="#DejaVuSans-117"/>
      <use transform="translate(258.642578 0.01875)" xlink:href="#DejaVuSans-108"/>
      <use transform="translate(286.425781 0.01875)" xlink:href="#DejaVuSans-97"/>
      <use transform="translate(347.705078 0.01875)" xlink:href="#DejaVuSans-114"/>
      <use transform="translate(388.818359 0.01875)" xlink:href="#DejaVuSans-32"/>
      <use transform="translate(420.605469 0.01875)" xlink:href="#DejaVuSans-82"/>
      <use transform="translate(490.087891 0.01875)" xlink:href="#DejaVuSans-97"/>
      <use transform="translate(551.367188 0.01875)" xlink:href="#DejaVuSans-116"/>
      <use transform="translate(590.576172 0.01875)" xlink:href="#DejaVuSans-101"/>
      <use transform="translate(652.099609 0.01875)" xlink:href="#DejaVuSans-32"/>
      <use transform="translate(683.886719 -10.879687)scale(1.02138)" xlink:href="#STIXSizeOneSym-Regular-40"/>
      <use transform="translate(731.681213 44.810938)scale(0.7)" xlink:href="#DejaVuSans-Oblique-114"/>
      <use transform="translate(760.46051 44.810938)scale(0.7)" xlink:href="#DejaVuSans-Oblique-97"/>
      <use transform="translate(803.356018 44.810938)scale(0.7)" xlink:href="#DejaVuSans-Oblique-100"/>
      <use transform="translate(771.681213 -26.634375)scale(0.7)" xlink:href="#DejaVuSans-Oblique-115"/>
      <use transform="translate(860.289612 -10.879687)scale(1.02138)" xlink:href="#STIXSizeOneSym-Regular-41"/>
      <path d="M 731.681213 18.815625 
L 731.681213 25.065625 
L 847.789612 25.065625 
L 847.789612 18.815625 
L 731.681213 18.815625 
z
"/>
     </g>
    </g>
   </g>
   <g id="line2d_12">
    <path clip-path="url(#p016897560d)" d="M 229.634417 250.758095 
L 236.484376 250.666863 
L 240.480186 250.392137 
L 243.905166 249.922647 
L 246.759315 249.319243 
L 249.613465 248.491776 
L 252.467615 247.418958 
L 255.321765 246.088363 
L 258.175914 244.497026 
L 261.030064 242.651352 
L 263.884214 240.566336 
L 267.309194 237.780114 
L 271.305003 234.199943 
L 275.871643 229.781904 
L 282.721602 222.783313 
L 294.709031 210.497491 
L 300.417331 204.97272 
L 305.554801 200.287454 
L 310.69227 195.915407 
L 315.25891 192.314468 
L 319.825549 188.997602 
L 324.392189 185.977418 
L 328.387999 183.587075 
L 332.383808 181.439462 
L 336.379618 179.540511 
L 340.375428 177.894737 
L 344.371237 176.504667 
L 348.367047 175.370271 
L 352.362857 174.488484 
L 356.358666 173.852897 
L 360.354476 173.453671 
L 364.350286 173.277689 
L 368.346095 173.308929 
L 372.912735 173.574741 
L 377.479375 174.057205 
L 382.616844 174.819902 
L 388.325144 175.88834 
L 395.175103 177.399265 
L 404.308383 179.660381 
L 426.570751 185.514709 
L 441.41233 189.260308 
L 455.683078 192.629345 
L 471.666317 196.161629 
L 493.357855 200.703021 
L 537.311762 209.867346 
L 574.415709 217.699177 
L 584.690648 219.603234 
L 593.253097 220.963941 
L 600.673887 221.913353 
L 607.523846 222.553134 
L 613.802976 222.906107 
L 619.511275 223.010463 
L 625.219575 222.892168 
L 630.927874 222.539718 
L 636.636174 221.946235 
L 642.344473 221.10932 
L 648.052773 220.030447 
L 653.761072 218.713968 
L 659.469372 217.165862 
L 665.177672 215.392381 
L 670.885971 213.398747 
L 676.594271 211.188061 
L 682.8734 208.505758 
L 688.5817 205.836077 
L 694.289999 202.939741 
L 699.998299 199.808443 
L 705.706598 196.433714 
L 711.414898 192.809836 
L 717.123197 188.938086 
L 723.402327 184.410069 
L 730.823116 178.76053 
L 749.660505 164.235314 
L 754.227144 161.087065 
L 758.222954 158.591002 
L 761.647934 156.682863 
L 765.072914 155.01188 
L 768.497893 153.58924 
L 771.922873 152.413205 
L 775.347853 151.4679 
L 779.343662 150.615649 
L 783.910302 149.883339 
L 795.897731 148.108452 
L 799.322711 147.30591 
L 800.464371 146.979048 
L 800.464371 146.979048 
" style="fill:none;stroke:#1f77b4;stroke-linecap:square;stroke-width:4;"/>
   </g>
   <g id="line2d_13">
    <path clip-path="url(#p016897560d)" d="M 229.634417 250.758095 
L 239.176167 250.652266 
L 242.992867 250.376709 
L 245.855392 249.966421 
L 248.717917 249.314906 
L 251.103354 248.548709 
L 253.488792 247.553125 
L 255.874229 246.311975 
L 258.259667 244.818597 
L 260.645105 243.076237 
L 263.50763 240.675178 
L 266.370155 237.971364 
L 269.709767 234.500737 
L 274.003555 229.677955 
L 281.636955 220.659843 
L 288.793267 212.34017 
L 294.04123 206.5938 
L 298.812105 201.716541 
L 303.105893 197.633806 
L 307.39968 193.848286 
L 311.693468 190.359608 
L 315.987255 187.165517 
L 320.281043 184.264704 
L 324.57483 181.658213 
L 328.39153 179.591328 
L 332.20823 177.763817 
L 336.02493 176.180247 
L 339.84163 174.844939 
L 343.65833 173.76103 
L 347.475031 172.929566 
L 351.291731 172.34874 
L 355.108431 172.013343 
L 358.925131 171.914511 
L 362.741831 172.039766 
L 366.558531 172.373358 
L 370.852318 172.974627 
L 375.623193 173.889007 
L 380.871156 175.145472 
L 386.596206 176.75184 
L 393.752519 179.005636 
L 403.771356 182.422964 
L 438.598744 194.488369 
L 487.26167 210.899645 
L 505.868082 217.632335 
L 517.79527 221.853411 
L 524.951583 224.164737 
L 530.676633 225.792156 
L 535.447508 226.939154 
L 539.741295 227.768724 
L 544.035083 228.37274 
L 547.851783 228.696396 
L 551.668483 228.800925 
L 555.485183 228.672662 
L 559.301883 228.302586 
L 563.118583 227.686746 
L 566.935283 226.826304 
L 570.751983 225.727224 
L 574.568683 224.399615 
L 578.862471 222.649612 
L 583.156258 220.649566 
L 587.927133 218.162979 
L 592.698008 215.429279 
L 597.945971 212.171873 
L 603.671021 208.356749 
L 609.873159 203.952782 
L 616.552384 198.928329 
L 623.708696 193.251931 
L 631.342096 186.905335 
L 641.360934 178.259981 
L 652.811034 168.426855 
L 658.058997 164.202392 
L 662.352784 161.007719 
L 666.169484 158.432623 
L 669.509097 156.424506 
L 672.848709 154.673478 
L 676.188322 153.197285 
L 679.050847 152.155504 
L 682.390459 151.194175 
L 685.730072 150.484064 
L 689.546772 149.926157 
L 694.794735 149.423404 
L 700.042697 148.861551 
L 702.905222 148.313578 
L 704.813572 147.758596 
L 706.721922 146.979048 
L 706.721922 146.979048 
" style="fill:none;stroke:#ff7f0e;stroke-linecap:square;stroke-width:4;"/>
   </g>
   <g id="line2d_14">
    <path clip-path="url(#p016897560d)" d="M 229.634417 250.758095 
L 238.529903 250.661793 
L 242.088098 250.403776 
L 244.756744 250.016316 
L 247.42539 249.398498 
L 249.649262 248.670207 
L 251.873134 247.722409 
L 254.097005 246.539286 
L 256.320877 245.113887 
L 258.544749 243.448445 
L 261.213395 241.149045 
L 263.882041 238.553258 
L 266.995461 235.210356 
L 270.99843 230.542615 
L 277.225271 222.848652 
L 285.675984 212.44487 
L 290.568501 206.764459 
L 295.016245 201.918186 
L 299.463988 197.407112 
L 303.466957 193.645214 
L 307.469926 190.17002 
L 311.472895 186.98397 
L 315.475864 184.090148 
L 319.478833 181.4933 
L 323.037028 179.439479 
L 326.595223 177.630586 
L 330.153418 176.07178 
L 333.711612 174.767349 
L 337.269807 173.719861 
L 340.828002 172.929378 
L 344.386196 172.392841 
L 347.944391 172.103672 
L 351.502586 172.05167 
L 355.060781 172.223174 
L 358.618975 172.60149 
L 362.621944 173.250448 
L 367.069688 174.214019 
L 371.962206 175.519957 
L 377.299498 177.175502 
L 383.971113 179.485855 
L 393.311374 182.978728 
L 428.893321 196.492197 
L 467.143914 210.680347 
L 500.946764 223.581338 
L 506.728831 225.437329 
L 511.621348 226.785951 
L 516.069092 227.783464 
L 520.072061 228.457309 
L 523.630256 228.852482 
L 527.18845 229.035857 
L 530.746645 228.991521 
L 534.30484 228.707586 
L 537.863035 228.176793 
L 541.421229 227.396806 
L 544.979424 226.37017 
L 548.537619 225.103942 
L 552.095813 223.609029 
L 556.098783 221.671285 
L 560.101752 219.484481 
L 564.549495 216.79201 
L 569.442013 213.548817 
L 574.779305 209.720448 
L 580.561371 205.281988 
L 586.788212 200.215714 
L 593.904601 194.12164 
L 601.91054 186.96048 
L 625.038805 166.02764 
L 629.486549 162.413541 
L 633.489518 159.433909 
L 637.047712 157.054844 
L 640.161133 155.212895 
L 643.274553 153.615609 
L 646.387974 152.274978 
L 649.501394 151.193171 
L 652.614814 150.360631 
L 655.728235 149.754293 
L 659.28643 149.28804 
L 665.068496 148.810398 
L 669.071465 148.392874 
L 671.740111 147.878507 
L 673.519208 147.335933 
L 674.408757 146.979048 
L 674.408757 146.979048 
" style="fill:none;stroke:#2ca02c;stroke-linecap:square;stroke-width:4;"/>
   </g>
   <g id="line2d_15">
    <path clip-path="url(#p016897560d)" d="M 229.634417 250.758095 
L 238.095059 250.655912 
L 241.318161 250.401339 
L 244.138376 249.949249 
L 246.555702 249.328867 
L 248.973029 248.448206 
L 250.987467 247.492023 
L 253.001906 246.321176 
L 255.419233 244.627141 
L 257.836559 242.623864 
L 260.253886 240.330447 
L 263.0741 237.328555 
L 266.297202 233.542719 
L 270.326079 228.427256 
L 277.175171 219.271113 
L 284.427151 209.676738 
L 289.261804 203.631751 
L 293.693569 198.442983 
L 297.722447 194.060733 
L 301.751324 190.023583 
L 305.377314 186.702 
L 309.003304 183.689722 
L 312.226406 181.282117 
L 315.449508 179.137448 
L 318.67261 177.263316 
L 321.895712 175.665836 
L 324.715926 174.49814 
L 327.53614 173.546168 
L 330.356354 172.808808 
L 333.176569 172.282768 
L 335.996783 171.962479 
L 339.219885 171.838249 
L 342.442987 171.957461 
L 345.666089 172.30202 
L 349.292079 172.933426 
L 352.918068 173.79253 
L 356.946946 174.974496 
L 361.378711 176.500246 
L 366.616252 178.535316 
L 373.465344 181.45127 
L 383.940425 186.187718 
L 412.142568 199.016548 
L 448.402465 215.110747 
L 458.071771 219.183197 
L 464.920863 221.828795 
L 470.561291 223.762733 
L 475.395944 225.18017 
L 479.82771 226.237216 
L 483.856587 226.962693 
L 487.482577 227.40062 
L 491.108567 227.617365 
L 494.734557 227.599838 
L 498.360546 227.339308 
L 501.986536 226.831767 
L 505.612526 226.077954 
L 509.238516 225.083015 
L 512.864505 223.855865 
L 516.490495 222.408296 
L 520.519373 220.557986 
L 524.54825 218.472152 
L 528.980015 215.9286 
L 533.814668 212.881964 
L 538.649321 209.574383 
L 543.886862 205.715142 
L 549.124403 201.579357 
L 554.361944 197.170982 
L 560.002372 192.121478 
L 565.642801 186.770914 
L 572.089005 180.337821 
L 590.218953 161.994894 
L 593.844943 158.753524 
L 597.068045 156.142825 
L 599.888259 154.109176 
L 602.708474 152.337277 
L 605.528688 150.843324 
L 608.348902 149.631354 
L 611.169116 148.692267 
L 613.989331 148.00414 
L 616.809545 147.534022 
L 620.032647 147.210897 
L 624.061524 147.030106 
L 631.313504 146.979073 
L 632.522167 146.979048 
L 632.522167 146.979048 
" style="fill:none;stroke:#d62728;stroke-linecap:square;stroke-width:4;"/>
   </g>
   <g id="line2d_16">
    <path clip-path="url(#p016897560d)" d="M 167.167 146.979048 
L 916.776 146.979048 
" style="fill:none;stroke:#9467bd;stroke-dasharray:14.8,6.4;stroke-dashoffset:0;stroke-width:4;"/>
   </g>
   <g id="line2d_17">
    <path clip-path="url(#p016897560d)" d="M 167.167 250.758095 
L 916.776 250.758095 
" style="fill:none;stroke:#8c564b;stroke-dasharray:14.8,6.4;stroke-dashoffset:0;stroke-width:4;"/>
   </g>
   <g id="patch_3">
    <path d="M 167.167 588.04 
L 167.167 43.2 
" style="fill:none;stroke:#000000;stroke-linecap:square;stroke-linejoin:miter;stroke-width:0.8;"/>
   </g>
   <g id="patch_4">
    <path d="M 916.776 588.04 
L 916.776 43.2 
" style="fill:none;stroke:#000000;stroke-linecap:square;stroke-linejoin:miter;stroke-width:0.8;"/>
   </g>
   <g id="patch_5">
    <path d="M 167.167 588.04 
L 916.776 588.04 
" style="fill:none;stroke:#000000;stroke-linecap:square;stroke-linejoin:miter;stroke-width:0.8;"/>
   </g>
   <g id="patch_6">
    <path d="M 167.167 43.2 
L 916.776 43.2 
" style="fill:none;stroke:#000000;stroke-linecap:square;stroke-linejoin:miter;stroke-width:0.8;"/>
   </g>
   <g id="legend_1">
    <g id="patch_7">
     <path d="M 189.567 572.04 
L 552.542 572.04 
Q 558.942 572.04 558.942 565.64 
L 558.942 287.02 
Q 558.942 280.62 552.542 280.62 
L 189.567 280.62 
Q 183.167 280.62 183.167 287.02 
L 183.167 565.64 
Q 183.167 572.04 189.567 572.04 
z
" style="fill:#ffffff;opacity:0.8;stroke:#cccccc;stroke-linejoin:miter;"/>
    </g>
    <g id="line2d_18">
     <path d="M 195.967 306.535 
L 259.967 306.535 
" style="fill:none;stroke:#1f77b4;stroke-linecap:square;stroke-width:4;"/>
    </g>
    <g id="line2d_19"/>
    <g id="text_14">
     <!-- No Elevation -->
     <defs>
      <path d="M 9.8125 72.90625 
L 23.09375 72.90625 
L 55.421875 11.921875 
L 55.421875 72.90625 
L 64.984375 72.90625 
L 64.984375 0 
L 51.703125 0 
L 19.390625 60.984375 
L 19.390625 0 
L 9.8125 0 
z
" id="DejaVuSans-78"/>
      <path d="M 30.609375 48.390625 
Q 23.390625 48.390625 19.1875 42.75 
Q 14.984375 37.109375 14.984375 27.296875 
Q 14.984375 17.484375 19.15625 11.84375 
Q 23.34375 6.203125 30.609375 6.203125 
Q 37.796875 6.203125 41.984375 11.859375 
Q 46.1875 17.53125 46.1875 27.296875 
Q 46.1875 37.015625 41.984375 42.703125 
Q 37.796875 48.390625 30.609375 48.390625 
z
M 30.609375 56 
Q 42.328125 56 49.015625 48.375 
Q 55.71875 40.765625 55.71875 27.296875 
Q 55.71875 13.875 49.015625 6.21875 
Q 42.328125 -1.421875 30.609375 -1.421875 
Q 18.84375 -1.421875 12.171875 6.21875 
Q 5.515625 13.875 5.515625 27.296875 
Q 5.515625 40.765625 12.171875 48.375 
Q 18.84375 56 30.609375 56 
z
" id="DejaVuSans-111"/>
      <path d="M 9.8125 72.90625 
L 55.90625 72.90625 
L 55.90625 64.59375 
L 19.671875 64.59375 
L 19.671875 43.015625 
L 54.390625 43.015625 
L 54.390625 34.71875 
L 19.671875 34.71875 
L 19.671875 8.296875 
L 56.78125 8.296875 
L 56.78125 0 
L 9.8125 0 
z
" id="DejaVuSans-69"/>
      <path d="M 2.984375 54.6875 
L 12.5 54.6875 
L 29.59375 8.796875 
L 46.6875 54.6875 
L 56.203125 54.6875 
L 35.6875 0 
L 23.484375 0 
z
" id="DejaVuSans-118"/>
     </defs>
     <g transform="translate(285.567 317.735)scale(0.32 -0.32)">
      <use xlink:href="#DejaVuSans-78"/>
      <use x="74.804688" xlink:href="#DejaVuSans-111"/>
      <use x="135.986328" xlink:href="#DejaVuSans-32"/>
      <use x="167.773438" xlink:href="#DejaVuSans-69"/>
      <use x="230.957031" xlink:href="#DejaVuSans-108"/>
      <use x="258.740234" xlink:href="#DejaVuSans-101"/>
      <use x="320.263672" xlink:href="#DejaVuSans-118"/>
      <use x="379.443359" xlink:href="#DejaVuSans-97"/>
      <use x="440.722656" xlink:href="#DejaVuSans-116"/>
      <use x="479.931641" xlink:href="#DejaVuSans-105"/>
      <use x="507.714844" xlink:href="#DejaVuSans-111"/>
      <use x="568.896484" xlink:href="#DejaVuSans-110"/>
     </g>
    </g>
    <g id="line2d_20">
     <path d="M 195.967 353.505 
L 259.967 353.505 
" style="fill:none;stroke:#ff7f0e;stroke-linecap:square;stroke-width:4;"/>
    </g>
    <g id="line2d_21"/>
    <g id="text_15">
     <!-- Elevated by 30 -->
     <defs>
      <path d="M 45.40625 46.390625 
L 45.40625 75.984375 
L 54.390625 75.984375 
L 54.390625 0 
L 45.40625 0 
L 45.40625 8.203125 
Q 42.578125 3.328125 38.25 0.953125 
Q 33.9375 -1.421875 27.875 -1.421875 
Q 17.96875 -1.421875 11.734375 6.484375 
Q 5.515625 14.40625 5.515625 27.296875 
Q 5.515625 40.1875 11.734375 48.09375 
Q 17.96875 56 27.875 56 
Q 33.9375 56 38.25 53.625 
Q 42.578125 51.265625 45.40625 46.390625 
z
M 14.796875 27.296875 
Q 14.796875 17.390625 18.875 11.75 
Q 22.953125 6.109375 30.078125 6.109375 
Q 37.203125 6.109375 41.296875 11.75 
Q 45.40625 17.390625 45.40625 27.296875 
Q 45.40625 37.203125 41.296875 42.84375 
Q 37.203125 48.484375 30.078125 48.484375 
Q 22.953125 48.484375 18.875 42.84375 
Q 14.796875 37.203125 14.796875 27.296875 
z
" id="DejaVuSans-100"/>
      <path d="M 48.6875 27.296875 
Q 48.6875 37.203125 44.609375 42.84375 
Q 40.53125 48.484375 33.40625 48.484375 
Q 26.265625 48.484375 22.1875 42.84375 
Q 18.109375 37.203125 18.109375 27.296875 
Q 18.109375 17.390625 22.1875 11.75 
Q 26.265625 6.109375 33.40625 6.109375 
Q 40.53125 6.109375 44.609375 11.75 
Q 48.6875 17.390625 48.6875 27.296875 
z
M 18.109375 46.390625 
Q 20.953125 51.265625 25.265625 53.625 
Q 29.59375 56 35.59375 56 
Q 45.5625 56 51.78125 48.09375 
Q 58.015625 40.1875 58.015625 27.296875 
Q 58.015625 14.40625 51.78125 6.484375 
Q 45.5625 -1.421875 35.59375 -1.421875 
Q 29.59375 -1.421875 25.265625 0.953125 
Q 20.953125 3.328125 18.109375 8.203125 
L 18.109375 0 
L 9.078125 0 
L 9.078125 75.984375 
L 18.109375 75.984375 
z
" id="DejaVuSans-98"/>
      <path d="M 32.171875 -5.078125 
Q 28.375 -14.84375 24.75 -17.8125 
Q 21.140625 -20.796875 15.09375 -20.796875 
L 7.90625 -20.796875 
L 7.90625 -13.28125 
L 13.1875 -13.28125 
Q 16.890625 -13.28125 18.9375 -11.515625 
Q 21 -9.765625 23.484375 -3.21875 
L 25.09375 0.875 
L 2.984375 54.6875 
L 12.5 54.6875 
L 29.59375 11.921875 
L 46.6875 54.6875 
L 56.203125 54.6875 
z
" id="DejaVuSans-121"/>
      <path d="M 40.578125 39.3125 
Q 47.65625 37.796875 51.625 33 
Q 55.609375 28.21875 55.609375 21.1875 
Q 55.609375 10.40625 48.1875 4.484375 
Q 40.765625 -1.421875 27.09375 -1.421875 
Q 22.515625 -1.421875 17.65625 -0.515625 
Q 12.796875 0.390625 7.625 2.203125 
L 7.625 11.71875 
Q 11.71875 9.328125 16.59375 8.109375 
Q 21.484375 6.890625 26.8125 6.890625 
Q 36.078125 6.890625 40.9375 10.546875 
Q 45.796875 14.203125 45.796875 21.1875 
Q 45.796875 27.640625 41.28125 31.265625 
Q 36.765625 34.90625 28.71875 34.90625 
L 20.21875 34.90625 
L 20.21875 43.015625 
L 29.109375 43.015625 
Q 36.375 43.015625 40.234375 45.921875 
Q 44.09375 48.828125 44.09375 54.296875 
Q 44.09375 59.90625 40.109375 62.90625 
Q 36.140625 65.921875 28.71875 65.921875 
Q 24.65625 65.921875 20.015625 65.03125 
Q 15.375 64.15625 9.8125 62.3125 
L 9.8125 71.09375 
Q 15.4375 72.65625 20.34375 73.4375 
Q 25.25 74.21875 29.59375 74.21875 
Q 40.828125 74.21875 47.359375 69.109375 
Q 53.90625 64.015625 53.90625 55.328125 
Q 53.90625 49.265625 50.4375 45.09375 
Q 46.96875 40.921875 40.578125 39.3125 
z
" id="DejaVuSans-51"/>
     </defs>
     <g transform="translate(285.567 364.705)scale(0.32 -0.32)">
      <use xlink:href="#DejaVuSans-69"/>
      <use x="63.183594" xlink:href="#DejaVuSans-108"/>
      <use x="90.966797" xlink:href="#DejaVuSans-101"/>
      <use x="152.490234" xlink:href="#DejaVuSans-118"/>
      <use x="211.669922" xlink:href="#DejaVuSans-97"/>
      <use x="272.949219" xlink:href="#DejaVuSans-116"/>
      <use x="312.158203" xlink:href="#DejaVuSans-101"/>
      <use x="373.681641" xlink:href="#DejaVuSans-100"/>
      <use x="437.158203" xlink:href="#DejaVuSans-32"/>
      <use x="468.945312" xlink:href="#DejaVuSans-98"/>
      <use x="532.421875" xlink:href="#DejaVuSans-121"/>
      <use x="591.601562" xlink:href="#DejaVuSans-32"/>
      <use x="623.388672" xlink:href="#DejaVuSans-51"/>
      <use x="687.011719" xlink:href="#DejaVuSans-48"/>
     </g>
    </g>
    <g id="line2d_22">
     <path d="M 195.967 400.475 
L 259.967 400.475 
" style="fill:none;stroke:#2ca02c;stroke-linecap:square;stroke-width:4;"/>
    </g>
    <g id="line2d_23"/>
    <g id="text_16">
     <!-- Elevated by 100 -->
     <g transform="translate(285.567 411.675)scale(0.32 -0.32)">
      <use xlink:href="#DejaVuSans-69"/>
      <use x="63.183594" xlink:href="#DejaVuSans-108"/>
      <use x="90.966797" xlink:href="#DejaVuSans-101"/>
      <use x="152.490234" xlink:href="#DejaVuSans-118"/>
      <use x="211.669922" xlink:href="#DejaVuSans-97"/>
      <use x="272.949219" xlink:href="#DejaVuSans-116"/>
      <use x="312.158203" xlink:href="#DejaVuSans-101"/>
      <use x="373.681641" xlink:href="#DejaVuSans-100"/>
      <use x="437.158203" xlink:href="#DejaVuSans-32"/>
      <use x="468.945312" xlink:href="#DejaVuSans-98"/>
      <use x="532.421875" xlink:href="#DejaVuSans-121"/>
      <use x="591.601562" xlink:href="#DejaVuSans-32"/>
      <use x="623.388672" xlink:href="#DejaVuSans-49"/>
      <use x="687.011719" xlink:href="#DejaVuSans-48"/>
      <use x="750.634766" xlink:href="#DejaVuSans-48"/>
     </g>
    </g>
    <g id="line2d_24">
     <path d="M 195.967 447.445 
L 259.967 447.445 
" style="fill:none;stroke:#d62728;stroke-linecap:square;stroke-width:4;"/>
    </g>
    <g id="line2d_25"/>
    <g id="text_17">
     <!-- Exact Extrema -->
     <defs>
      <path d="M 54.890625 54.6875 
L 35.109375 28.078125 
L 55.90625 0 
L 45.3125 0 
L 29.390625 21.484375 
L 13.484375 0 
L 2.875 0 
L 24.125 28.609375 
L 4.6875 54.6875 
L 15.28125 54.6875 
L 29.78125 35.203125 
L 44.28125 54.6875 
z
" id="DejaVuSans-120"/>
      <path d="M 48.78125 52.59375 
L 48.78125 44.1875 
Q 44.96875 46.296875 41.140625 47.34375 
Q 37.3125 48.390625 33.40625 48.390625 
Q 24.65625 48.390625 19.8125 42.84375 
Q 14.984375 37.3125 14.984375 27.296875 
Q 14.984375 17.28125 19.8125 11.734375 
Q 24.65625 6.203125 33.40625 6.203125 
Q 37.3125 6.203125 41.140625 7.25 
Q 44.96875 8.296875 48.78125 10.40625 
L 48.78125 2.09375 
Q 45.015625 0.34375 40.984375 -0.53125 
Q 36.96875 -1.421875 32.421875 -1.421875 
Q 20.0625 -1.421875 12.78125 6.34375 
Q 5.515625 14.109375 5.515625 27.296875 
Q 5.515625 40.671875 12.859375 48.328125 
Q 20.21875 56 33.015625 56 
Q 37.15625 56 41.109375 55.140625 
Q 45.0625 54.296875 48.78125 52.59375 
z
" id="DejaVuSans-99"/>
     </defs>
     <g transform="translate(285.567 458.645)scale(0.32 -0.32)">
      <use xlink:href="#DejaVuSans-69"/>
      <use x="63.183594" xlink:href="#DejaVuSans-120"/>
      <use x="122.363281" xlink:href="#DejaVuSans-97"/>
      <use x="183.642578" xlink:href="#DejaVuSans-99"/>
      <use x="238.623047" xlink:href="#DejaVuSans-116"/>
      <use x="277.832031" xlink:href="#DejaVuSans-32"/>
      <use x="309.619141" xlink:href="#DejaVuSans-69"/>
      <use x="372.802734" xlink:href="#DejaVuSans-120"/>
      <use x="431.982422" xlink:href="#DejaVuSans-116"/>
      <use x="471.191406" xlink:href="#DejaVuSans-114"/>
      <use x="512.273438" xlink:href="#DejaVuSans-101"/>
      <use x="573.796875" xlink:href="#DejaVuSans-109"/>
      <use x="671.208984" xlink:href="#DejaVuSans-97"/>
     </g>
    </g>
    <g id="line2d_26">
     <path d="M 195.967 494.415 
L 259.967 494.415 
" style="fill:none;stroke:#9467bd;stroke-dasharray:14.8,6.4;stroke-dashoffset:0;stroke-width:4;"/>
    </g>
    <g id="line2d_27"/>
    <g id="text_18">
     <!-- $\omega_{max}$ -->
     <defs>
      <path d="M 21.390625 -1.421875 
Q 1.125 -1.421875 6.78125 27.59375 
Q 8.984375 39.0625 19.625 54.6875 
L 29.296875 54.6875 
Q 19.234375 39.0625 17 27.34375 
Q 12.796875 6.203125 23.734375 6.203125 
Q 33.84375 6.203125 38.71875 32.46875 
L 47.015625 32.46875 
Q 41.703125 6.0625 51.8125 6.203125 
Q 62.703125 6.296875 66.796875 27.34375 
Q 69.046875 39.0625 65.140625 54.6875 
L 74.8125 54.6875 
Q 79.296875 39.0625 77.09375 27.59375 
Q 71.53125 -1.46875 51.21875 -1.421875 
Q 37.9375 -1.375 39.109375 13.1875 
Q 34.28125 -1.421875 21.390625 -1.421875 
z
" id="DejaVuSans-Oblique-969"/>
      <path d="M 89.796875 33.015625 
L 83.40625 0 
L 74.421875 0 
L 80.71875 32.71875 
Q 81.109375 34.8125 81.296875 36.328125 
Q 81.5 37.84375 81.5 38.921875 
Q 81.5 43.3125 79.046875 45.75 
Q 76.609375 48.1875 72.21875 48.1875 
Q 65.671875 48.1875 60.546875 43.28125 
Q 55.421875 38.375 53.90625 30.515625 
L 47.90625 0 
L 38.921875 0 
L 45.3125 32.71875 
Q 45.703125 34.515625 45.890625 36.046875 
Q 46.09375 37.59375 46.09375 38.8125 
Q 46.09375 43.265625 43.65625 45.71875 
Q 41.21875 48.1875 36.921875 48.1875 
Q 30.28125 48.1875 25.140625 43.28125 
Q 20.015625 38.375 18.5 30.515625 
L 12.5 0 
L 3.515625 0 
L 14.203125 54.6875 
L 23.1875 54.6875 
L 21.484375 46.1875 
Q 25.140625 50.984375 30.046875 53.484375 
Q 34.96875 56 40.578125 56 
Q 46.53125 56 50.359375 52.875 
Q 54.203125 49.75 54.984375 44.1875 
Q 59.078125 49.953125 64.46875 52.96875 
Q 69.875 56 75.875 56 
Q 82.90625 56 86.734375 51.953125 
Q 90.578125 47.90625 90.578125 40.484375 
Q 90.578125 38.875 90.375 36.9375 
Q 90.1875 35.015625 89.796875 33.015625 
z
" id="DejaVuSans-Oblique-109"/>
      <path d="M 60.015625 54.6875 
L 34.90625 27.875 
L 50.296875 0 
L 39.984375 0 
L 28.421875 21.6875 
L 8.296875 0 
L -2.59375 0 
L 24.3125 28.8125 
L 10.015625 54.6875 
L 20.3125 54.6875 
L 30.8125 34.90625 
L 49.125 54.6875 
z
" id="DejaVuSans-Oblique-120"/>
     </defs>
     <g transform="translate(285.567 505.615)scale(0.32 -0.32)">
      <use transform="translate(0 0.3125)" xlink:href="#DejaVuSans-Oblique-969"/>
      <use transform="translate(83.740234 -16.09375)scale(0.7)" xlink:href="#DejaVuSans-Oblique-109"/>
      <use transform="translate(151.928711 -16.09375)scale(0.7)" xlink:href="#DejaVuSans-Oblique-97"/>
      <use transform="translate(194.824219 -16.09375)scale(0.7)" xlink:href="#DejaVuSans-Oblique-120"/>
     </g>
    </g>
    <g id="line2d_28">
     <path d="M 195.967 541.385 
L 259.967 541.385 
" style="fill:none;stroke:#8c564b;stroke-dasharray:14.8,6.4;stroke-dashoffset:0;stroke-width:4;"/>
    </g>
    <g id="line2d_29"/>
    <g id="text_19">
     <!-- $\omega_{min}$ -->
     <defs>
      <path d="M 18.3125 75.984375 
L 27.296875 75.984375 
L 25.09375 64.59375 
L 16.109375 64.59375 
z
M 14.203125 54.6875 
L 23.1875 54.6875 
L 12.5 0 
L 3.515625 0 
z
" id="DejaVuSans-Oblique-105"/>
      <path d="M 55.71875 33.015625 
L 49.3125 0 
L 40.28125 0 
L 46.6875 32.671875 
Q 47.125 34.96875 47.359375 36.71875 
Q 47.609375 38.484375 47.609375 39.5 
Q 47.609375 43.609375 45.015625 45.890625 
Q 42.4375 48.1875 37.796875 48.1875 
Q 30.5625 48.1875 25.34375 43.375 
Q 20.125 38.578125 18.5 30.328125 
L 12.5 0 
L 3.515625 0 
L 14.109375 54.6875 
L 23.09375 54.6875 
L 21.296875 46.09375 
Q 25.046875 50.828125 30.3125 53.40625 
Q 35.59375 56 41.40625 56 
Q 48.640625 56 52.609375 52.09375 
Q 56.59375 48.1875 56.59375 41.109375 
Q 56.59375 39.359375 56.375 37.359375 
Q 56.15625 35.359375 55.71875 33.015625 
z
" id="DejaVuSans-Oblique-110"/>
     </defs>
     <g transform="translate(285.567 552.585)scale(0.32 -0.32)">
      <use transform="translate(0 0.3125)" xlink:href="#DejaVuSans-Oblique-969"/>
      <use transform="translate(83.740234 -16.09375)scale(0.7)" xlink:href="#DejaVuSans-Oblique-109"/>
      <use transform="translate(151.928711 -16.09375)scale(0.7)" xlink:href="#DejaVuSans-Oblique-105"/>
      <use transform="translate(171.376953 -16.09375)scale(0.7)" xlink:href="#DejaVuSans-Oblique-110"/>
     </g>
    </g>
   </g>
  </g>
 </g>
 <defs>
  <clipPath id="p016897560d">
   <rect height="544.84" width="749.609" x="167.167" y="43.2"/>
  </clipPath>
 </defs>
</svg>
