<?xml version="1.0" encoding="utf-8" standalone="no"?>
<!DOCTYPE svg PUBLIC "-//W3C//DTD SVG 1.1//EN"
  "http://www.w3.org/Graphics/SVG/1.1/DTD/svg11.dtd">
<svg height="720pt" version="1.1" viewBox="0 0 959.76 720" width="959.76pt" xmlns="http://www.w3.org/2000/svg" xmlns:xlink="http://www.w3.org/1999/xlink">
 <metadata>
  <rdf:RDF xmlns:cc="http://creativecommons.org/ns#" xmlns:dc="http://purl.org/dc/elements/1.1/" xmlns:rdf="http://www.w3.org/1999/02/22-rdf-syntax-ns#">
   <cc:Work>
    <dc:type rdf:resource="http://purl.org/dc/dcmitype/StillImage"/>
    <dc:date>2021-10-18T16:13:51.470061</dc:date>
    <dc:format>image/svg+xml</dc:format>
    <dc:creator>
     <cc:Agent>
      <dc:title>Matplotlib v3.4.2, https://matplotlib.org/</dc:title>
     </cc:Agent>
    </dc:creator>
   </cc:Work>
  </rdf:RDF>
 </metadata>
 <defs>
  <style type="text/css">*{stroke-linecap:butt;stroke-linejoin:round;}</style>
 </defs>
 <g id="figure_1">
  <g id="patch_1">
   <path d="M 0 720 
L 959.76 720 
L 959.76 0 
L 0 0 
z
" style="fill:#ffffff;"/>
  </g>
  <g id="axes_1">
   <g id="patch_2">
    <path d="M 123.9195 619.72 
L 925.2 619.72 
L 925.2 34.56 
L 123.9195 34.56 
z
" style="fill:#ffffff;"/>
   </g>
   <g id="matplotlib.axis_1">
    <g id="xtick_1">
     <g id="line2d_1">
      <defs>
       <path d="M 0 0 
L 0 3.5 
" id="m856e514a06" style="stroke:#000000;stroke-width:0.8;"/>
      </defs>
      <g>
       <use style="stroke:#000000;stroke-width:0.8;" x="190.692875" xlink:href="#m856e514a06" y="619.72"/>
      </g>
     </g>
     <g id="text_1">
      <!-- 0 -->
      <g transform="translate(183.057875 644.95625)scale(0.24 -0.24)">
       <defs>
        <path d="M 2034 4250 
Q 1547 4250 1301 3770 
Q 1056 3291 1056 2328 
Q 1056 1369 1301 889 
Q 1547 409 2034 409 
Q 2525 409 2770 889 
Q 3016 1369 3016 2328 
Q 3016 3291 2770 3770 
Q 2525 4250 2034 4250 
z
M 2034 4750 
Q 2819 4750 3233 4129 
Q 3647 3509 3647 2328 
Q 3647 1150 3233 529 
Q 2819 -91 2034 -91 
Q 1250 -91 836 529 
Q 422 1150 422 2328 
Q 422 3509 836 4129 
Q 1250 4750 2034 4750 
z
" id="DejaVuSans-30" transform="scale(0.015625)"/>
       </defs>
       <use xlink:href="#DejaVuSans-30"/>
      </g>
     </g>
    </g>
    <g id="xtick_2">
     <g id="line2d_2">
      <g>
       <use style="stroke:#000000;stroke-width:0.8;" x="324.239625" xlink:href="#m856e514a06" y="619.72"/>
      </g>
     </g>
     <g id="text_2">
      <!-- 2 -->
      <g transform="translate(316.604625 644.95625)scale(0.24 -0.24)">
       <defs>
        <path d="M 1228 531 
L 3431 531 
L 3431 0 
L 469 0 
L 469 531 
Q 828 903 1448 1529 
Q 2069 2156 2228 2338 
Q 2531 2678 2651 2914 
Q 2772 3150 2772 3378 
Q 2772 3750 2511 3984 
Q 2250 4219 1831 4219 
Q 1534 4219 1204 4116 
Q 875 4013 500 3803 
L 500 4441 
Q 881 4594 1212 4672 
Q 1544 4750 1819 4750 
Q 2544 4750 2975 4387 
Q 3406 4025 3406 3419 
Q 3406 3131 3298 2873 
Q 3191 2616 2906 2266 
Q 2828 2175 2409 1742 
Q 1991 1309 1228 531 
z
" id="DejaVuSans-32" transform="scale(0.015625)"/>
       </defs>
       <use xlink:href="#DejaVuSans-32"/>
      </g>
     </g>
    </g>
    <g id="xtick_3">
     <g id="line2d_3">
      <g>
       <use style="stroke:#000000;stroke-width:0.8;" x="457.786375" xlink:href="#m856e514a06" y="619.72"/>
      </g>
     </g>
     <g id="text_3">
      <!-- 4 -->
      <g transform="translate(450.151375 644.95625)scale(0.24 -0.24)">
       <defs>
        <path d="M 2419 4116 
L 825 1625 
L 2419 1625 
L 2419 4116 
z
M 2253 4666 
L 3047 4666 
L 3047 1625 
L 3713 1625 
L 3713 1100 
L 3047 1100 
L 3047 0 
L 2419 0 
L 2419 1100 
L 313 1100 
L 313 1709 
L 2253 4666 
z
" id="DejaVuSans-34" transform="scale(0.015625)"/>
       </defs>
       <use xlink:href="#DejaVuSans-34"/>
      </g>
     </g>
    </g>
    <g id="xtick_4">
     <g id="line2d_4">
      <g>
       <use style="stroke:#000000;stroke-width:0.8;" x="591.333125" xlink:href="#m856e514a06" y="619.72"/>
      </g>
     </g>
     <g id="text_4">
      <!-- 6 -->
      <g transform="translate(583.698125 644.95625)scale(0.24 -0.24)">
       <defs>
        <path d="M 2113 2584 
Q 1688 2584 1439 2293 
Q 1191 2003 1191 1497 
Q 1191 994 1439 701 
Q 1688 409 2113 409 
Q 2538 409 2786 701 
Q 3034 994 3034 1497 
Q 3034 2003 2786 2293 
Q 2538 2584 2113 2584 
z
M 3366 4563 
L 3366 3988 
Q 3128 4100 2886 4159 
Q 2644 4219 2406 4219 
Q 1781 4219 1451 3797 
Q 1122 3375 1075 2522 
Q 1259 2794 1537 2939 
Q 1816 3084 2150 3084 
Q 2853 3084 3261 2657 
Q 3669 2231 3669 1497 
Q 3669 778 3244 343 
Q 2819 -91 2113 -91 
Q 1303 -91 875 529 
Q 447 1150 447 2328 
Q 447 3434 972 4092 
Q 1497 4750 2381 4750 
Q 2619 4750 2861 4703 
Q 3103 4656 3366 4563 
z
" id="DejaVuSans-36" transform="scale(0.015625)"/>
       </defs>
       <use xlink:href="#DejaVuSans-36"/>
      </g>
     </g>
    </g>
    <g id="xtick_5">
     <g id="line2d_5">
      <g>
       <use style="stroke:#000000;stroke-width:0.8;" x="724.879875" xlink:href="#m856e514a06" y="619.72"/>
      </g>
     </g>
     <g id="text_5">
      <!-- 8 -->
      <g transform="translate(717.244875 644.95625)scale(0.24 -0.24)">
       <defs>
        <path d="M 2034 2216 
Q 1584 2216 1326 1975 
Q 1069 1734 1069 1313 
Q 1069 891 1326 650 
Q 1584 409 2034 409 
Q 2484 409 2743 651 
Q 3003 894 3003 1313 
Q 3003 1734 2745 1975 
Q 2488 2216 2034 2216 
z
M 1403 2484 
Q 997 2584 770 2862 
Q 544 3141 544 3541 
Q 544 4100 942 4425 
Q 1341 4750 2034 4750 
Q 2731 4750 3128 4425 
Q 3525 4100 3525 3541 
Q 3525 3141 3298 2862 
Q 3072 2584 2669 2484 
Q 3125 2378 3379 2068 
Q 3634 1759 3634 1313 
Q 3634 634 3220 271 
Q 2806 -91 2034 -91 
Q 1263 -91 848 271 
Q 434 634 434 1313 
Q 434 1759 690 2068 
Q 947 2378 1403 2484 
z
M 1172 3481 
Q 1172 3119 1398 2916 
Q 1625 2713 2034 2713 
Q 2441 2713 2670 2916 
Q 2900 3119 2900 3481 
Q 2900 3844 2670 4047 
Q 2441 4250 2034 4250 
Q 1625 4250 1398 4047 
Q 1172 3844 1172 3481 
z
" id="DejaVuSans-38" transform="scale(0.015625)"/>
       </defs>
       <use xlink:href="#DejaVuSans-38"/>
      </g>
     </g>
    </g>
    <g id="xtick_6">
     <g id="line2d_6">
      <g>
       <use style="stroke:#000000;stroke-width:0.8;" x="858.426625" xlink:href="#m856e514a06" y="619.72"/>
      </g>
     </g>
     <g id="text_6">
      <!-- 10 -->
      <g transform="translate(843.156625 644.95625)scale(0.24 -0.24)">
       <defs>
        <path d="M 794 531 
L 1825 531 
L 1825 4091 
L 703 3866 
L 703 4441 
L 1819 4666 
L 2450 4666 
L 2450 531 
L 3481 531 
L 3481 0 
L 794 0 
L 794 531 
z
" id="DejaVuSans-31" transform="scale(0.015625)"/>
       </defs>
       <use xlink:href="#DejaVuSans-31"/>
       <use x="63.623047" xlink:href="#DejaVuSans-30"/>
      </g>
     </g>
    </g>
    <g id="text_7">
     <!-- Time (s) -->
     <g transform="translate(459.50725 678.2625)scale(0.32 -0.32)">
      <defs>
       <path d="M -19 4666 
L 3928 4666 
L 3928 4134 
L 2272 4134 
L 2272 0 
L 1638 0 
L 1638 4134 
L -19 4134 
L -19 4666 
z
" id="DejaVuSans-54" transform="scale(0.015625)"/>
       <path d="M 603 3500 
L 1178 3500 
L 1178 0 
L 603 0 
L 603 3500 
z
M 603 4863 
L 1178 4863 
L 1178 4134 
L 603 4134 
L 603 4863 
z
" id="DejaVuSans-69" transform="scale(0.015625)"/>
       <path d="M 3328 2828 
Q 3544 3216 3844 3400 
Q 4144 3584 4550 3584 
Q 5097 3584 5394 3201 
Q 5691 2819 5691 2113 
L 5691 0 
L 5113 0 
L 5113 2094 
Q 5113 2597 4934 2840 
Q 4756 3084 4391 3084 
Q 3944 3084 3684 2787 
Q 3425 2491 3425 1978 
L 3425 0 
L 2847 0 
L 2847 2094 
Q 2847 2600 2669 2842 
Q 2491 3084 2119 3084 
Q 1678 3084 1418 2786 
Q 1159 2488 1159 1978 
L 1159 0 
L 581 0 
L 581 3500 
L 1159 3500 
L 1159 2956 
Q 1356 3278 1631 3431 
Q 1906 3584 2284 3584 
Q 2666 3584 2933 3390 
Q 3200 3197 3328 2828 
z
" id="DejaVuSans-6d" transform="scale(0.015625)"/>
       <path d="M 3597 1894 
L 3597 1613 
L 953 1613 
Q 991 1019 1311 708 
Q 1631 397 2203 397 
Q 2534 397 2845 478 
Q 3156 559 3463 722 
L 3463 178 
Q 3153 47 2828 -22 
Q 2503 -91 2169 -91 
Q 1331 -91 842 396 
Q 353 884 353 1716 
Q 353 2575 817 3079 
Q 1281 3584 2069 3584 
Q 2775 3584 3186 3129 
Q 3597 2675 3597 1894 
z
M 3022 2063 
Q 3016 2534 2758 2815 
Q 2500 3097 2075 3097 
Q 1594 3097 1305 2825 
Q 1016 2553 972 2059 
L 3022 2063 
z
" id="DejaVuSans-65" transform="scale(0.015625)"/>
       <path id="DejaVuSans-20" transform="scale(0.015625)"/>
       <path d="M 1984 4856 
Q 1566 4138 1362 3434 
Q 1159 2731 1159 2009 
Q 1159 1288 1364 580 
Q 1569 -128 1984 -844 
L 1484 -844 
Q 1016 -109 783 600 
Q 550 1309 550 2009 
Q 550 2706 781 3412 
Q 1013 4119 1484 4856 
L 1984 4856 
z
" id="DejaVuSans-28" transform="scale(0.015625)"/>
       <path d="M 2834 3397 
L 2834 2853 
Q 2591 2978 2328 3040 
Q 2066 3103 1784 3103 
Q 1356 3103 1142 2972 
Q 928 2841 928 2578 
Q 928 2378 1081 2264 
Q 1234 2150 1697 2047 
L 1894 2003 
Q 2506 1872 2764 1633 
Q 3022 1394 3022 966 
Q 3022 478 2636 193 
Q 2250 -91 1575 -91 
Q 1294 -91 989 -36 
Q 684 19 347 128 
L 347 722 
Q 666 556 975 473 
Q 1284 391 1588 391 
Q 1994 391 2212 530 
Q 2431 669 2431 922 
Q 2431 1156 2273 1281 
Q 2116 1406 1581 1522 
L 1381 1569 
Q 847 1681 609 1914 
Q 372 2147 372 2553 
Q 372 3047 722 3315 
Q 1072 3584 1716 3584 
Q 2034 3584 2315 3537 
Q 2597 3491 2834 3397 
z
" id="DejaVuSans-73" transform="scale(0.015625)"/>
       <path d="M 513 4856 
L 1013 4856 
Q 1481 4119 1714 3412 
Q 1947 2706 1947 2009 
Q 1947 1309 1714 600 
Q 1481 -109 1013 -844 
L 513 -844 
Q 928 -128 1133 580 
Q 1338 1288 1338 2009 
Q 1338 2731 1133 3434 
Q 928 4138 513 4856 
z
" id="DejaVuSans-29" transform="scale(0.015625)"/>
      </defs>
      <use xlink:href="#DejaVuSans-54"/>
      <use x="57.958984" xlink:href="#DejaVuSans-69"/>
      <use x="85.742188" xlink:href="#DejaVuSans-6d"/>
      <use x="183.154297" xlink:href="#DejaVuSans-65"/>
      <use x="244.677734" xlink:href="#DejaVuSans-20"/>
      <use x="276.464844" xlink:href="#DejaVuSans-28"/>
      <use x="315.478516" xlink:href="#DejaVuSans-73"/>
      <use x="367.578125" xlink:href="#DejaVuSans-29"/>
     </g>
    </g>
   </g>
   <g id="matplotlib.axis_2">
    <g id="ytick_1">
     <g id="line2d_7">
      <defs>
       <path d="M 0 0 
L -3.5 0 
" id="md764197f5c" style="stroke:#000000;stroke-width:0.8;"/>
      </defs>
      <g>
       <use style="stroke:#000000;stroke-width:0.8;" x="123.9195" xlink:href="#md764197f5c" y="536.125714"/>
      </g>
     </g>
     <g id="text_8">
      <!-- −6 -->
      <g transform="translate(81.53825 545.243839)scale(0.24 -0.24)">
       <defs>
        <path d="M 678 2272 
L 4684 2272 
L 4684 1741 
L 678 1741 
L 678 2272 
z
" id="DejaVuSans-2212" transform="scale(0.015625)"/>
       </defs>
       <use xlink:href="#DejaVuSans-2212"/>
       <use x="83.789062" xlink:href="#DejaVuSans-36"/>
      </g>
     </g>
    </g>
    <g id="ytick_2">
     <g id="line2d_8">
      <g>
       <use style="stroke:#000000;stroke-width:0.8;" x="123.9195" xlink:href="#md764197f5c" y="424.666667"/>
      </g>
     </g>
     <g id="text_9">
      <!-- −4 -->
      <g transform="translate(81.53825 433.784792)scale(0.24 -0.24)">
       <use xlink:href="#DejaVuSans-2212"/>
       <use x="83.789062" xlink:href="#DejaVuSans-34"/>
      </g>
     </g>
    </g>
    <g id="ytick_3">
     <g id="line2d_9">
      <g>
       <use style="stroke:#000000;stroke-width:0.8;" x="123.9195" xlink:href="#md764197f5c" y="313.207619"/>
      </g>
     </g>
     <g id="text_10">
      <!-- −2 -->
      <g transform="translate(81.53825 322.325744)scale(0.24 -0.24)">
       <use xlink:href="#DejaVuSans-2212"/>
       <use x="83.789062" xlink:href="#DejaVuSans-32"/>
      </g>
     </g>
    </g>
    <g id="ytick_4">
     <g id="line2d_10">
      <g>
       <use style="stroke:#000000;stroke-width:0.8;" x="123.9195" xlink:href="#md764197f5c" y="201.748571"/>
      </g>
     </g>
     <g id="text_11">
      <!-- 0 -->
      <g transform="translate(101.6495 210.866696)scale(0.24 -0.24)">
       <use xlink:href="#DejaVuSans-30"/>
      </g>
     </g>
    </g>
    <g id="ytick_5">
     <g id="line2d_11">
      <g>
       <use style="stroke:#000000;stroke-width:0.8;" x="123.9195" xlink:href="#md764197f5c" y="90.289524"/>
      </g>
     </g>
     <g id="text_12">
      <!-- 2 -->
      <g transform="translate(101.6495 99.407649)scale(0.24 -0.24)">
       <use xlink:href="#DejaVuSans-32"/>
      </g>
     </g>
    </g>
    <g id="text_13">
     <!-- Angular Rate $\left( \frac{rad}{s} \right)$ -->
     <g transform="translate(68.57825 472.58)rotate(-90)scale(0.32 -0.32)">
      <defs>
       <path d="M 2188 4044 
L 1331 1722 
L 3047 1722 
L 2188 4044 
z
M 1831 4666 
L 2547 4666 
L 4325 0 
L 3669 0 
L 3244 1197 
L 1141 1197 
L 716 0 
L 50 0 
L 1831 4666 
z
" id="DejaVuSans-41" transform="scale(0.015625)"/>
       <path d="M 3513 2113 
L 3513 0 
L 2938 0 
L 2938 2094 
Q 2938 2591 2744 2837 
Q 2550 3084 2163 3084 
Q 1697 3084 1428 2787 
Q 1159 2491 1159 1978 
L 1159 0 
L 581 0 
L 581 3500 
L 1159 3500 
L 1159 2956 
Q 1366 3272 1645 3428 
Q 1925 3584 2291 3584 
Q 2894 3584 3203 3211 
Q 3513 2838 3513 2113 
z
" id="DejaVuSans-6e" transform="scale(0.015625)"/>
       <path d="M 2906 1791 
Q 2906 2416 2648 2759 
Q 2391 3103 1925 3103 
Q 1463 3103 1205 2759 
Q 947 2416 947 1791 
Q 947 1169 1205 825 
Q 1463 481 1925 481 
Q 2391 481 2648 825 
Q 2906 1169 2906 1791 
z
M 3481 434 
Q 3481 -459 3084 -895 
Q 2688 -1331 1869 -1331 
Q 1566 -1331 1297 -1286 
Q 1028 -1241 775 -1147 
L 775 -588 
Q 1028 -725 1275 -790 
Q 1522 -856 1778 -856 
Q 2344 -856 2625 -561 
Q 2906 -266 2906 331 
L 2906 616 
Q 2728 306 2450 153 
Q 2172 0 1784 0 
Q 1141 0 747 490 
Q 353 981 353 1791 
Q 353 2603 747 3093 
Q 1141 3584 1784 3584 
Q 2172 3584 2450 3431 
Q 2728 3278 2906 2969 
L 2906 3500 
L 3481 3500 
L 3481 434 
z
" id="DejaVuSans-67" transform="scale(0.015625)"/>
       <path d="M 544 1381 
L 544 3500 
L 1119 3500 
L 1119 1403 
Q 1119 906 1312 657 
Q 1506 409 1894 409 
Q 2359 409 2629 706 
Q 2900 1003 2900 1516 
L 2900 3500 
L 3475 3500 
L 3475 0 
L 2900 0 
L 2900 538 
Q 2691 219 2414 64 
Q 2138 -91 1772 -91 
Q 1169 -91 856 284 
Q 544 659 544 1381 
z
M 1991 3584 
L 1991 3584 
z
" id="DejaVuSans-75" transform="scale(0.015625)"/>
       <path d="M 603 4863 
L 1178 4863 
L 1178 0 
L 603 0 
L 603 4863 
z
" id="DejaVuSans-6c" transform="scale(0.015625)"/>
       <path d="M 2194 1759 
Q 1497 1759 1228 1600 
Q 959 1441 959 1056 
Q 959 750 1161 570 
Q 1363 391 1709 391 
Q 2188 391 2477 730 
Q 2766 1069 2766 1631 
L 2766 1759 
L 2194 1759 
z
M 3341 1997 
L 3341 0 
L 2766 0 
L 2766 531 
Q 2569 213 2275 61 
Q 1981 -91 1556 -91 
Q 1019 -91 701 211 
Q 384 513 384 1019 
Q 384 1609 779 1909 
Q 1175 2209 1959 2209 
L 2766 2209 
L 2766 2266 
Q 2766 2663 2505 2880 
Q 2244 3097 1772 3097 
Q 1472 3097 1187 3025 
Q 903 2953 641 2809 
L 641 3341 
Q 956 3463 1253 3523 
Q 1550 3584 1831 3584 
Q 2591 3584 2966 3190 
Q 3341 2797 3341 1997 
z
" id="DejaVuSans-61" transform="scale(0.015625)"/>
       <path d="M 2631 2963 
Q 2534 3019 2420 3045 
Q 2306 3072 2169 3072 
Q 1681 3072 1420 2755 
Q 1159 2438 1159 1844 
L 1159 0 
L 581 0 
L 581 3500 
L 1159 3500 
L 1159 2956 
Q 1341 3275 1631 3429 
Q 1922 3584 2338 3584 
Q 2397 3584 2469 3576 
Q 2541 3569 2628 3553 
L 2631 2963 
z
" id="DejaVuSans-72" transform="scale(0.015625)"/>
       <path d="M 2841 2188 
Q 3044 2119 3236 1894 
Q 3428 1669 3622 1275 
L 4263 0 
L 3584 0 
L 2988 1197 
Q 2756 1666 2539 1819 
Q 2322 1972 1947 1972 
L 1259 1972 
L 1259 0 
L 628 0 
L 628 4666 
L 2053 4666 
Q 2853 4666 3247 4331 
Q 3641 3997 3641 3322 
Q 3641 2881 3436 2590 
Q 3231 2300 2841 2188 
z
M 1259 4147 
L 1259 2491 
L 2053 2491 
Q 2509 2491 2742 2702 
Q 2975 2913 2975 3322 
Q 2975 3731 2742 3939 
Q 2509 4147 2053 4147 
L 1259 4147 
z
" id="DejaVuSans-52" transform="scale(0.015625)"/>
       <path d="M 1172 4494 
L 1172 3500 
L 2356 3500 
L 2356 3053 
L 1172 3053 
L 1172 1153 
Q 1172 725 1289 603 
Q 1406 481 1766 481 
L 2356 481 
L 2356 0 
L 1766 0 
Q 1100 0 847 248 
Q 594 497 594 1153 
L 594 3053 
L 172 3053 
L 172 3500 
L 594 3500 
L 594 4494 
L 1172 4494 
z
" id="DejaVuSans-74" transform="scale(0.015625)"/>
       <path d="M 2445 -858 
L 2445 -1050 
Q 1728 -371 1309 630 
Q 890 1632 890 2886 
Q 890 4122 1309 5136 
Q 1728 6150 2445 6822 
L 2445 6630 
Q 1408 5363 1408 2886 
Q 1408 410 2445 -858 
z
" id="STIXSizeOneSym-Regular-28" transform="scale(0.015625)"/>
       <path d="M 2853 2969 
Q 2766 3016 2653 3041 
Q 2541 3066 2413 3066 
Q 1953 3066 1609 2717 
Q 1266 2369 1153 1784 
L 800 0 
L 225 0 
L 909 3500 
L 1484 3500 
L 1375 2956 
Q 1603 3259 1920 3421 
Q 2238 3584 2597 3584 
Q 2691 3584 2781 3573 
Q 2872 3563 2963 3538 
L 2853 2969 
z
" id="DejaVuSans-Oblique-72" transform="scale(0.015625)"/>
       <path d="M 3438 1997 
L 3047 0 
L 2472 0 
L 2578 531 
Q 2325 219 2001 64 
Q 1678 -91 1281 -91 
Q 834 -91 548 182 
Q 263 456 263 884 
Q 263 1497 752 1853 
Q 1241 2209 2100 2209 
L 2900 2209 
L 2931 2363 
Q 2938 2388 2941 2417 
Q 2944 2447 2944 2509 
Q 2944 2788 2717 2942 
Q 2491 3097 2081 3097 
Q 1800 3097 1504 3025 
Q 1209 2953 897 2809 
L 997 3341 
Q 1322 3463 1633 3523 
Q 1944 3584 2234 3584 
Q 2853 3584 3176 3315 
Q 3500 3047 3500 2534 
Q 3500 2431 3484 2292 
Q 3469 2153 3438 1997 
z
M 2816 1759 
L 2241 1759 
Q 1534 1759 1195 1570 
Q 856 1381 856 984 
Q 856 709 1029 553 
Q 1203 397 1509 397 
Q 1978 397 2328 733 
Q 2678 1069 2791 1631 
L 2816 1759 
z
" id="DejaVuSans-Oblique-61" transform="scale(0.015625)"/>
       <path d="M 2675 525 
Q 2444 222 2128 65 
Q 1813 -91 1428 -91 
Q 903 -91 598 267 
Q 294 625 294 1247 
Q 294 1766 478 2236 
Q 663 2706 1013 3078 
Q 1244 3325 1534 3454 
Q 1825 3584 2144 3584 
Q 2481 3584 2739 3421 
Q 2997 3259 3138 2956 
L 3513 4863 
L 4091 4863 
L 3144 0 
L 2566 0 
L 2675 525 
z
M 891 1350 
Q 891 897 1095 644 
Q 1300 391 1663 391 
Q 1931 391 2161 520 
Q 2391 650 2566 903 
Q 2750 1166 2856 1509 
Q 2963 1853 2963 2188 
Q 2963 2622 2758 2865 
Q 2553 3109 2194 3109 
Q 1922 3109 1687 2981 
Q 1453 2853 1288 2613 
Q 1106 2353 998 2009 
Q 891 1666 891 1350 
z
" id="DejaVuSans-Oblique-64" transform="scale(0.015625)"/>
       <path d="M 3200 3397 
L 3091 2853 
Q 2863 2978 2609 3040 
Q 2356 3103 2088 3103 
Q 1634 3103 1373 2948 
Q 1113 2794 1113 2528 
Q 1113 2219 1719 2053 
Q 1766 2041 1788 2034 
L 1972 1978 
Q 2547 1819 2739 1644 
Q 2931 1469 2931 1166 
Q 2931 609 2489 259 
Q 2047 -91 1331 -91 
Q 1053 -91 747 -37 
Q 441 16 72 128 
L 184 722 
Q 500 559 806 475 
Q 1113 391 1394 391 
Q 1816 391 2080 572 
Q 2344 753 2344 1031 
Q 2344 1331 1650 1516 
L 1591 1531 
L 1394 1581 
Q 956 1697 753 1886 
Q 550 2075 550 2369 
Q 550 2928 970 3256 
Q 1391 3584 2113 3584 
Q 2397 3584 2667 3537 
Q 2938 3491 3200 3397 
z
" id="DejaVuSans-Oblique-73" transform="scale(0.015625)"/>
       <path d="M 550 6630 
L 550 6822 
Q 1267 6144 1686 5142 
Q 2106 4141 2106 2886 
Q 2106 1651 1686 636 
Q 1267 -378 550 -1050 
L 550 -858 
Q 1587 410 1587 2886 
Q 1587 5363 550 6630 
z
" id="STIXSizeOneSym-Regular-29" transform="scale(0.015625)"/>
      </defs>
      <use transform="translate(0 0.01875)" xlink:href="#DejaVuSans-41"/>
      <use transform="translate(68.408203 0.01875)" xlink:href="#DejaVuSans-6e"/>
      <use transform="translate(131.787109 0.01875)" xlink:href="#DejaVuSans-67"/>
      <use transform="translate(195.263672 0.01875)" xlink:href="#DejaVuSans-75"/>
      <use transform="translate(258.642578 0.01875)" xlink:href="#DejaVuSans-6c"/>
      <use transform="translate(286.425781 0.01875)" xlink:href="#DejaVuSans-61"/>
      <use transform="translate(347.705078 0.01875)" xlink:href="#DejaVuSans-72"/>
      <use transform="translate(388.818359 0.01875)" xlink:href="#DejaVuSans-20"/>
      <use transform="translate(420.605469 0.01875)" xlink:href="#DejaVuSans-52"/>
      <use transform="translate(490.087891 0.01875)" xlink:href="#DejaVuSans-61"/>
      <use transform="translate(551.367188 0.01875)" xlink:href="#DejaVuSans-74"/>
      <use transform="translate(590.576172 0.01875)" xlink:href="#DejaVuSans-65"/>
      <use transform="translate(652.099609 0.01875)" xlink:href="#DejaVuSans-20"/>
      <use transform="translate(683.886719 -10.879687)scale(1.02138)" xlink:href="#STIXSizeOneSym-Regular-28"/>
      <use transform="translate(731.681213 44.810938)scale(0.7)" xlink:href="#DejaVuSans-Oblique-72"/>
      <use transform="translate(760.46051 44.810938)scale(0.7)" xlink:href="#DejaVuSans-Oblique-61"/>
      <use transform="translate(803.356018 44.810938)scale(0.7)" xlink:href="#DejaVuSans-Oblique-64"/>
      <use transform="translate(771.681213 -26.634375)scale(0.7)" xlink:href="#DejaVuSans-Oblique-73"/>
      <use transform="translate(860.289612 -10.879687)scale(1.02138)" xlink:href="#STIXSizeOneSym-Regular-29"/>
      <path d="M 731.681213 18.815625 
L 731.681213 25.065625 
L 847.789612 25.065625 
L 847.789612 18.815625 
L 731.681213 18.815625 
z
"/>
     </g>
    </g>
   </g>
   <g id="line2d_12">
    <path clip-path="url(#p0eb9211920)" d="M 190.692875 257.478095 
L 192.188725 271.18911 
L 193.684576 286.923886 
L 195.180426 304.756375 
L 197.174894 331.574976 
L 202.161062 402.723133 
L 203.158296 413.961359 
L 204.155529 422.720561 
L 204.654146 425.980279 
L 205.152763 428.409793 
L 205.65138 429.962185 
L 206.149997 430.605745 
L 206.648613 430.325418 
L 207.14723 429.123504 
L 207.645847 427.019552 
L 208.144464 424.04946 
L 209.141698 415.725896 
L 210.138931 404.692212 
L 211.634782 384.496336 
L 214.626483 338.835676 
L 217.119567 302.691369 
L 219.114034 277.518809 
L 220.609885 261.104903 
L 222.105735 246.726573 
L 223.601586 234.214374 
L 225.097436 223.365212 
L 226.593287 213.97286 
L 228.089137 205.843811 
L 229.584987 198.804263 
L 231.080838 192.702083 
L 232.576688 187.40614 
L 234.072539 182.804423 
L 235.568389 178.801707 
L 237.06424 175.317206 
L 238.56009 172.282384 
L 240.055941 169.639027 
L 241.551791 167.337582 
L 243.546259 164.728635 
L 245.540726 162.569109 
L 247.535193 160.790344 
L 249.529661 159.335806 
L 251.524128 158.158644 
L 253.518595 157.219795 
L 256.011679 156.331948 
L 258.504763 155.712673 
L 260.997848 155.318833 
L 263.989549 155.094446 
L 266.981249 155.09449 
L 270.471567 155.325747 
L 274.460502 155.834924 
L 278.948053 156.652595 
L 283.934222 157.794489 
L 289.917623 159.406823 
L 296.898259 161.528549 
L 305.374745 164.342994 
L 316.842932 168.406477 
L 335.790372 175.403397 
L 366.704615 186.794942 
L 398.117475 198.064755 
L 421.552466 206.576879 
L 439.004055 213.154792 
L 473.907233 226.425409 
L 481.386485 228.955087 
L 487.868504 230.910157 
L 493.353289 232.335463 
L 498.339457 233.408497 
L 502.827008 234.164875 
L 507.31456 234.700531 
L 511.802111 234.99728 
L 515.791046 235.049161 
L 519.779981 234.894776 
L 523.768915 234.530982 
L 527.75785 233.957944 
L 531.746784 233.178925 
L 536.234336 232.063847 
L 540.721887 230.707433 
L 545.209439 229.123757 
L 550.195607 227.116073 
L 555.181775 224.86732 
L 560.66656 222.137848 
L 566.151345 219.1606 
L 572.134747 215.647908 
L 578.118149 211.869981 
L 584.101551 207.830491 
L 590.084953 203.527436 
L 596.068355 198.956921 
L 602.051757 194.11874 
L 608.533776 188.58869 
L 616.013028 181.892223 
L 635.459084 164.245905 
L 639.946636 160.582703 
L 643.93557 157.623358 
L 647.425888 155.31858 
L 650.417589 153.584876 
L 653.40929 152.092874 
L 656.400991 150.852018 
L 659.392692 149.862574 
L 662.384393 149.114559 
L 665.376094 148.58723 
L 668.866412 148.207924 
L 673.353963 147.983378 
L 681.830449 147.649392 
L 684.82215 147.265248 
L 687.315234 146.699412 
L 689.309702 146.019048 
L 689.309702 146.019048 
" style="fill:none;stroke:#1f77b4;stroke-linecap:square;stroke-width:4;"/>
   </g>
   <g id="line2d_13">
    <path clip-path="url(#p0eb9211920)" d="M 190.692875 257.478095 
L 191.771215 281.702117 
L 192.849556 310.903438 
L 194.287343 357.556909 
L 198.241258 495.780726 
L 198.960151 510.489845 
L 199.319598 515.231157 
L 199.679045 518.05004 
L 200.038492 518.869544 
L 200.397939 517.66573 
L 200.757385 514.469205 
L 201.116832 509.363148 
L 201.835726 493.983698 
L 202.554619 472.984063 
L 203.992407 421.167333 
L 206.149087 341.23979 
L 207.586875 296.351487 
L 208.665215 268.548022 
L 209.743555 245.560461 
L 210.821896 226.859375 
L 211.900236 211.823387 
L 212.978577 199.844667 
L 214.056917 190.376251 
L 215.135257 182.9476 
L 216.213598 177.164384 
L 217.291938 172.701346 
L 218.370279 169.292832 
L 219.448619 166.72322 
L 220.526959 164.818189 
L 221.6053 163.437187 
L 222.68364 162.467087 
L 223.761981 161.816969 
L 224.840321 161.413841 
L 226.278108 161.161123 
L 227.715895 161.137287 
L 229.872576 161.362268 
L 233.826491 162.090518 
L 238.139853 162.81304 
L 241.374874 163.133022 
L 244.609895 163.230448 
L 248.204363 163.098664 
L 252.158278 162.725916 
L 258.987767 161.806044 
L 264.738916 161.123051 
L 268.333384 160.903253 
L 271.568405 160.917496 
L 274.443979 161.137516 
L 277.319554 161.578844 
L 280.195128 162.258546 
L 283.070702 163.185261 
L 285.946277 164.359109 
L 288.821851 165.772117 
L 292.056872 167.62852 
L 295.291894 169.737953 
L 299.245808 172.605569 
L 303.918617 176.308777 
L 310.029212 181.470807 
L 327.642106 196.529275 
L 334.471595 201.974628 
L 340.941637 206.843908 
L 347.41168 211.441887 
L 354.600616 216.271054 
L 362.508445 221.304971 
L 371.135168 226.533535 
L 379.761892 231.516846 
L 387.310274 235.630463 
L 393.061423 238.532433 
L 398.093678 240.825856 
L 402.40704 242.539378 
L 406.001508 243.737537 
L 409.236529 244.597727 
L 412.112103 245.159383 
L 414.987678 245.50359 
L 417.863252 245.605164 
L 420.37938 245.476029 
L 422.895507 245.127783 
L 425.411635 244.547239 
L 427.927763 243.723351 
L 430.44389 242.647598 
L 432.960018 241.314287 
L 435.476145 239.720749 
L 437.992273 237.867425 
L 440.508401 235.757842 
L 443.383975 233.041569 
L 446.259549 230.013284 
L 449.494571 226.256542 
L 452.729592 222.160108 
L 456.32406 217.255377 
L 460.637421 210.958344 
L 465.669677 203.188099 
L 476.093634 186.519985 
L 481.485336 178.161305 
L 485.439251 172.398275 
L 489.033719 167.547463 
L 492.26874 163.569228 
L 495.144314 160.382165 
L 498.019889 157.548523 
L 500.536016 155.36895 
L 503.052144 153.4702 
L 505.568271 151.846031 
L 508.084399 150.483681 
L 510.600527 149.364826 
L 513.116654 148.466765 
L 515.992229 147.677665 
L 519.22725 147.043479 
L 522.821718 146.585798 
L 527.135079 146.280263 
L 532.886228 146.11861 
L 543.669632 146.089435 
L 550.139674 146.019048 
L 550.139674 146.019048 
" style="fill:none;stroke:#ff7f0e;stroke-linecap:square;stroke-width:4;"/>
   </g>
   <g id="line2d_14">
    <path clip-path="url(#p0eb9211920)" d="M 190.692875 257.478095 
L 191.30865 292.302939 
L 191.924424 341.820678 
L 192.540199 413.60089 
L 193.155974 519.878943 
L 193.771749 680.249303 
L 193.886656 721 
M 198.768443 721 
L 199.313721 518.236721 
L 199.929496 359.29318 
L 200.545271 247.695482 
L 201.161046 166.903466 
L 201.77682 106.756884 
L 202.700483 42.29186 
L 203.61686 -1 
M 212.840319 -1 
L 215.323865 33.729607 
L 217.171189 56.257297 
L 218.710626 72.41254 
L 220.250063 86.265246 
L 221.7895 98.033404 
L 223.328936 107.97917 
L 224.868373 116.362975 
L 226.40781 123.422644 
L 227.947247 129.366062 
L 229.486684 134.370662 
L 231.026121 138.585969 
L 232.565558 142.13726 
L 234.104994 145.129363 
L 235.644431 147.650158 
L 237.183868 149.773624 
L 238.723305 151.562404 
L 240.570629 153.341829 
L 242.417953 154.794177 
L 244.265278 155.985594 
L 246.420489 157.120805 
L 248.883588 158.175332 
L 252.270349 159.371132 
L 260.583308 162.185623 
L 263.662182 163.49899 
L 266.433168 164.900523 
L 269.204155 166.540149 
L 271.975141 168.431881 
L 274.746128 170.57616 
L 277.825001 173.240554 
L 281.211762 176.478936 
L 285.214298 180.648229 
L 290.140496 186.140025 
L 299.685005 197.225108 
L 307.074302 205.62329 
L 312.616274 211.594566 
L 317.85036 216.905508 
L 322.776558 221.587896 
L 327.702755 225.953476 
L 332.321066 229.751686 
L 336.939377 233.254112 
L 341.2498 236.239283 
L 345.252336 238.743866 
L 348.946984 240.802891 
L 352.333745 242.453096 
L 355.720506 243.850971 
L 358.79938 244.879825 
L 361.570366 245.590288 
L 364.341353 246.080054 
L 367.112339 246.333638 
L 369.575438 246.349066 
L 372.038537 246.157373 
L 374.501636 245.750785 
L 376.964735 245.123075 
L 379.427834 244.269743 
L 381.890933 243.188113 
L 384.354032 241.877361 
L 387.125018 240.130164 
L 389.896005 238.098139 
L 392.666991 235.787504 
L 395.745865 232.903343 
L 398.824738 229.698713 
L 402.2115 225.821593 
L 405.598261 221.597137 
L 409.292909 216.620858 
L 413.295445 210.836502 
L 417.605868 204.20923 
L 422.839953 195.728931 
L 438.234322 170.425837 
L 441.621083 165.462964 
L 444.392069 161.758305 
L 446.855168 158.78765 
L 449.318267 156.15588 
L 451.473479 154.148921 
L 453.628691 152.425122 
L 455.783902 150.981757 
L 457.939114 149.807578 
L 460.094325 148.882732 
L 462.249537 148.180343 
L 464.712636 147.608702 
L 467.483622 147.197527 
L 470.870383 146.922259 
L 476.412356 146.728614 
L 497.964472 146.114386 
L 498.580247 146.019048 
L 498.580247 146.019048 
" style="fill:none;stroke:#2ca02c;stroke-linecap:square;stroke-width:4;"/>
   </g>
   <g id="line2d_15">
    <path clip-path="url(#p0eb9211920)" d="M 190.692875 257.478095 
L 191.217459 299.887615 
L 191.742042 365.603688 
L 192.266626 472.086795 
L 192.79121 655.038518 
L 192.913222 721 
M 196.839244 721 
L 197.250171 487.626157 
L 197.774754 304.819045 
L 198.299338 186.006018 
L 199.086214 68.060709 
L 199.741846 -1 
M 213.772476 -1 
L 214.823723 21.747357 
L 216.135183 45.62572 
L 217.446642 65.215553 
L 218.758101 81.261829 
L 220.06956 94.422382 
L 221.381019 105.246681 
L 222.692478 114.181183 
L 224.003938 121.583954 
L 225.315397 127.740829 
L 226.626856 132.880075 
L 227.938315 137.184644 
L 229.249774 140.802016 
L 230.561233 143.851936 
L 232.134984 146.899581 
L 233.708735 149.40803 
L 235.282486 151.488204 
L 236.856237 153.230721 
L 238.69228 154.936309 
L 240.790615 156.573064 
L 243.413533 158.323265 
L 253.380623 164.669184 
L 256.265833 166.952402 
L 258.888751 169.311425 
L 261.511669 171.952378 
L 264.39688 175.172397 
L 267.544382 179.022295 
L 271.216467 183.87149 
L 276.200012 190.849521 
L 288.265436 207.884652 
L 292.986689 214.078275 
L 297.183359 219.221536 
L 301.117736 223.700795 
L 305.052113 227.832035 
L 308.724199 231.364014 
L 312.133993 234.354932 
L 315.543787 237.056302 
L 318.691289 239.278973 
L 321.838791 241.224032 
L 324.724001 242.744798 
L 327.346919 243.892811 
L 329.969837 244.800683 
L 332.330464 245.398184 
L 334.69109 245.774376 
L 337.051717 245.916727 
L 339.412343 245.813478 
L 341.510678 245.507003 
L 343.609013 244.991933 
L 345.707347 244.263355 
L 347.805682 243.317861 
L 350.166308 241.992757 
L 352.526935 240.391004 
L 354.887561 238.515455 
L 357.248188 236.371662 
L 359.871106 233.68496 
L 362.494025 230.691472 
L 365.379235 227.065123 
L 368.526737 222.741282 
L 371.93653 217.668297 
L 375.870908 211.383225 
L 380.329869 203.817069 
L 386.624873 192.639942 
L 395.280503 177.296876 
L 399.214881 170.776419 
L 402.362383 165.94993 
L 405.247593 161.91905 
L 407.870511 158.636772 
L 410.231138 156.025493 
L 412.591764 153.756513 
L 414.690099 152.031808 
L 416.788434 150.578272 
L 418.886768 149.384821 
L 420.985103 148.433796 
L 423.345729 147.624656 
L 425.706356 147.054678 
L 428.329274 146.65302 
L 431.214484 146.431943 
L 434.624278 146.394184 
L 438.820947 146.589383 
L 448.263453 147.1778 
L 450.099496 146.985386 
L 451.673247 146.586077 
L 452.984706 146.019048 
L 452.984706 146.019048 
" style="fill:none;stroke:#d62728;stroke-linecap:square;stroke-width:4;"/>
   </g>
   <g id="line2d_16">
    <path clip-path="url(#p0eb9211920)" d="M 123.9195 146.019048 
L 925.2 146.019048 
" style="fill:none;stroke:#9467bd;stroke-dasharray:14.8,6.4;stroke-dashoffset:0;stroke-width:4;"/>
   </g>
   <g id="line2d_17">
    <path clip-path="url(#p0eb9211920)" d="M 123.9195 257.478095 
L 925.2 257.478095 
" style="fill:none;stroke:#8c564b;stroke-dasharray:14.8,6.4;stroke-dashoffset:0;stroke-width:4;"/>
   </g>
   <g id="patch_3">
    <path d="M 123.9195 619.72 
L 123.9195 34.56 
" style="fill:none;stroke:#000000;stroke-linecap:square;stroke-linejoin:miter;stroke-width:0.8;"/>
   </g>
   <g id="patch_4">
    <path d="M 925.2 619.72 
L 925.2 34.56 
" style="fill:none;stroke:#000000;stroke-linecap:square;stroke-linejoin:miter;stroke-width:0.8;"/>
   </g>
   <g id="patch_5">
    <path d="M 123.9195 619.72 
L 925.2 619.72 
" style="fill:none;stroke:#000000;stroke-linecap:square;stroke-linejoin:miter;stroke-width:0.8;"/>
   </g>
   <g id="patch_6">
    <path d="M 123.9195 34.56 
L 925.2 34.56 
" style="fill:none;stroke:#000000;stroke-linecap:square;stroke-linejoin:miter;stroke-width:0.8;"/>
   </g>
   <g id="legend_1">
    <g id="patch_7">
     <path d="M 539.825 603.72 
L 902.8 603.72 
Q 909.2 603.72 909.2 597.32 
L 909.2 318.7 
Q 909.2 312.3 902.8 312.3 
L 539.825 312.3 
Q 533.425 312.3 533.425 318.7 
L 533.425 597.32 
Q 533.425 603.72 539.825 603.72 
z
" style="fill:#ffffff;opacity:0.8;stroke:#cccccc;stroke-linejoin:miter;"/>
    </g>
    <g id="line2d_18">
     <path d="M 546.225 338.215 
L 610.225 338.215 
" style="fill:none;stroke:#1f77b4;stroke-linecap:square;stroke-width:4;"/>
    </g>
    <g id="line2d_19"/>
    <g id="text_14">
     <!-- No Elevation -->
     <g transform="translate(635.825 349.415)scale(0.32 -0.32)">
      <defs>
       <path d="M 628 4666 
L 1478 4666 
L 3547 763 
L 3547 4666 
L 4159 4666 
L 4159 0 
L 3309 0 
L 1241 3903 
L 1241 0 
L 628 0 
L 628 4666 
z
" id="DejaVuSans-4e" transform="scale(0.015625)"/>
       <path d="M 1959 3097 
Q 1497 3097 1228 2736 
Q 959 2375 959 1747 
Q 959 1119 1226 758 
Q 1494 397 1959 397 
Q 2419 397 2687 759 
Q 2956 1122 2956 1747 
Q 2956 2369 2687 2733 
Q 2419 3097 1959 3097 
z
M 1959 3584 
Q 2709 3584 3137 3096 
Q 3566 2609 3566 1747 
Q 3566 888 3137 398 
Q 2709 -91 1959 -91 
Q 1206 -91 779 398 
Q 353 888 353 1747 
Q 353 2609 779 3096 
Q 1206 3584 1959 3584 
z
" id="DejaVuSans-6f" transform="scale(0.015625)"/>
       <path d="M 628 4666 
L 3578 4666 
L 3578 4134 
L 1259 4134 
L 1259 2753 
L 3481 2753 
L 3481 2222 
L 1259 2222 
L 1259 531 
L 3634 531 
L 3634 0 
L 628 0 
L 628 4666 
z
" id="DejaVuSans-45" transform="scale(0.015625)"/>
       <path d="M 191 3500 
L 800 3500 
L 1894 563 
L 2988 3500 
L 3597 3500 
L 2284 0 
L 1503 0 
L 191 3500 
z
" id="DejaVuSans-76" transform="scale(0.015625)"/>
      </defs>
      <use xlink:href="#DejaVuSans-4e"/>
      <use x="74.804688" xlink:href="#DejaVuSans-6f"/>
      <use x="135.986328" xlink:href="#DejaVuSans-20"/>
      <use x="167.773438" xlink:href="#DejaVuSans-45"/>
      <use x="230.957031" xlink:href="#DejaVuSans-6c"/>
      <use x="258.740234" xlink:href="#DejaVuSans-65"/>
      <use x="320.263672" xlink:href="#DejaVuSans-76"/>
      <use x="379.443359" xlink:href="#DejaVuSans-61"/>
      <use x="440.722656" xlink:href="#DejaVuSans-74"/>
      <use x="479.931641" xlink:href="#DejaVuSans-69"/>
      <use x="507.714844" xlink:href="#DejaVuSans-6f"/>
      <use x="568.896484" xlink:href="#DejaVuSans-6e"/>
     </g>
    </g>
    <g id="line2d_20">
     <path d="M 546.225 385.185 
L 610.225 385.185 
" style="fill:none;stroke:#ff7f0e;stroke-linecap:square;stroke-width:4;"/>
    </g>
    <g id="line2d_21"/>
    <g id="text_15">
     <!-- Elevated by 30 -->
     <g transform="translate(635.825 396.385)scale(0.32 -0.32)">
      <defs>
       <path d="M 2906 2969 
L 2906 4863 
L 3481 4863 
L 3481 0 
L 2906 0 
L 2906 525 
Q 2725 213 2448 61 
Q 2172 -91 1784 -91 
Q 1150 -91 751 415 
Q 353 922 353 1747 
Q 353 2572 751 3078 
Q 1150 3584 1784 3584 
Q 2172 3584 2448 3432 
Q 2725 3281 2906 2969 
z
M 947 1747 
Q 947 1113 1208 752 
Q 1469 391 1925 391 
Q 2381 391 2643 752 
Q 2906 1113 2906 1747 
Q 2906 2381 2643 2742 
Q 2381 3103 1925 3103 
Q 1469 3103 1208 2742 
Q 947 2381 947 1747 
z
" id="DejaVuSans-64" transform="scale(0.015625)"/>
       <path d="M 3116 1747 
Q 3116 2381 2855 2742 
Q 2594 3103 2138 3103 
Q 1681 3103 1420 2742 
Q 1159 2381 1159 1747 
Q 1159 1113 1420 752 
Q 1681 391 2138 391 
Q 2594 391 2855 752 
Q 3116 1113 3116 1747 
z
M 1159 2969 
Q 1341 3281 1617 3432 
Q 1894 3584 2278 3584 
Q 2916 3584 3314 3078 
Q 3713 2572 3713 1747 
Q 3713 922 3314 415 
Q 2916 -91 2278 -91 
Q 1894 -91 1617 61 
Q 1341 213 1159 525 
L 1159 0 
L 581 0 
L 581 4863 
L 1159 4863 
L 1159 2969 
z
" id="DejaVuSans-62" transform="scale(0.015625)"/>
       <path d="M 2059 -325 
Q 1816 -950 1584 -1140 
Q 1353 -1331 966 -1331 
L 506 -1331 
L 506 -850 
L 844 -850 
Q 1081 -850 1212 -737 
Q 1344 -625 1503 -206 
L 1606 56 
L 191 3500 
L 800 3500 
L 1894 763 
L 2988 3500 
L 3597 3500 
L 2059 -325 
z
" id="DejaVuSans-79" transform="scale(0.015625)"/>
       <path d="M 2597 2516 
Q 3050 2419 3304 2112 
Q 3559 1806 3559 1356 
Q 3559 666 3084 287 
Q 2609 -91 1734 -91 
Q 1441 -91 1130 -33 
Q 819 25 488 141 
L 488 750 
Q 750 597 1062 519 
Q 1375 441 1716 441 
Q 2309 441 2620 675 
Q 2931 909 2931 1356 
Q 2931 1769 2642 2001 
Q 2353 2234 1838 2234 
L 1294 2234 
L 1294 2753 
L 1863 2753 
Q 2328 2753 2575 2939 
Q 2822 3125 2822 3475 
Q 2822 3834 2567 4026 
Q 2313 4219 1838 4219 
Q 1578 4219 1281 4162 
Q 984 4106 628 3988 
L 628 4550 
Q 988 4650 1302 4700 
Q 1616 4750 1894 4750 
Q 2613 4750 3031 4423 
Q 3450 4097 3450 3541 
Q 3450 3153 3228 2886 
Q 3006 2619 2597 2516 
z
" id="DejaVuSans-33" transform="scale(0.015625)"/>
      </defs>
      <use xlink:href="#DejaVuSans-45"/>
      <use x="63.183594" xlink:href="#DejaVuSans-6c"/>
      <use x="90.966797" xlink:href="#DejaVuSans-65"/>
      <use x="152.490234" xlink:href="#DejaVuSans-76"/>
      <use x="211.669922" xlink:href="#DejaVuSans-61"/>
      <use x="272.949219" xlink:href="#DejaVuSans-74"/>
      <use x="312.158203" xlink:href="#DejaVuSans-65"/>
      <use x="373.681641" xlink:href="#DejaVuSans-64"/>
      <use x="437.158203" xlink:href="#DejaVuSans-20"/>
      <use x="468.945312" xlink:href="#DejaVuSans-62"/>
      <use x="532.421875" xlink:href="#DejaVuSans-79"/>
      <use x="591.601562" xlink:href="#DejaVuSans-20"/>
      <use x="623.388672" xlink:href="#DejaVuSans-33"/>
      <use x="687.011719" xlink:href="#DejaVuSans-30"/>
     </g>
    </g>
    <g id="line2d_22">
     <path d="M 546.225 432.155 
L 610.225 432.155 
" style="fill:none;stroke:#2ca02c;stroke-linecap:square;stroke-width:4;"/>
    </g>
    <g id="line2d_23"/>
    <g id="text_16">
     <!-- Elevated by 100 -->
     <g transform="translate(635.825 443.355)scale(0.32 -0.32)">
      <use xlink:href="#DejaVuSans-45"/>
      <use x="63.183594" xlink:href="#DejaVuSans-6c"/>
      <use x="90.966797" xlink:href="#DejaVuSans-65"/>
      <use x="152.490234" xlink:href="#DejaVuSans-76"/>
      <use x="211.669922" xlink:href="#DejaVuSans-61"/>
      <use x="272.949219" xlink:href="#DejaVuSans-74"/>
      <use x="312.158203" xlink:href="#DejaVuSans-65"/>
      <use x="373.681641" xlink:href="#DejaVuSans-64"/>
      <use x="437.158203" xlink:href="#DejaVuSans-20"/>
      <use x="468.945312" xlink:href="#DejaVuSans-62"/>
      <use x="532.421875" xlink:href="#DejaVuSans-79"/>
      <use x="591.601562" xlink:href="#DejaVuSans-20"/>
      <use x="623.388672" xlink:href="#DejaVuSans-31"/>
      <use x="687.011719" xlink:href="#DejaVuSans-30"/>
      <use x="750.634766" xlink:href="#DejaVuSans-30"/>
     </g>
    </g>
    <g id="line2d_24">
     <path d="M 546.225 479.125 
L 610.225 479.125 
" style="fill:none;stroke:#d62728;stroke-linecap:square;stroke-width:4;"/>
    </g>
    <g id="line2d_25"/>
    <g id="text_17">
     <!-- Exact Extrema -->
     <g transform="translate(635.825 490.325)scale(0.32 -0.32)">
      <defs>
       <path d="M 3513 3500 
L 2247 1797 
L 3578 0 
L 2900 0 
L 1881 1375 
L 863 0 
L 184 0 
L 1544 1831 
L 300 3500 
L 978 3500 
L 1906 2253 
L 2834 3500 
L 3513 3500 
z
" id="DejaVuSans-78" transform="scale(0.015625)"/>
       <path d="M 3122 3366 
L 3122 2828 
Q 2878 2963 2633 3030 
Q 2388 3097 2138 3097 
Q 1578 3097 1268 2742 
Q 959 2388 959 1747 
Q 959 1106 1268 751 
Q 1578 397 2138 397 
Q 2388 397 2633 464 
Q 2878 531 3122 666 
L 3122 134 
Q 2881 22 2623 -34 
Q 2366 -91 2075 -91 
Q 1284 -91 818 406 
Q 353 903 353 1747 
Q 353 2603 823 3093 
Q 1294 3584 2113 3584 
Q 2378 3584 2631 3529 
Q 2884 3475 3122 3366 
z
" id="DejaVuSans-63" transform="scale(0.015625)"/>
      </defs>
      <use xlink:href="#DejaVuSans-45"/>
      <use x="63.183594" xlink:href="#DejaVuSans-78"/>
      <use x="122.363281" xlink:href="#DejaVuSans-61"/>
      <use x="183.642578" xlink:href="#DejaVuSans-63"/>
      <use x="238.623047" xlink:href="#DejaVuSans-74"/>
      <use x="277.832031" xlink:href="#DejaVuSans-20"/>
      <use x="309.619141" xlink:href="#DejaVuSans-45"/>
      <use x="372.802734" xlink:href="#DejaVuSans-78"/>
      <use x="431.982422" xlink:href="#DejaVuSans-74"/>
      <use x="471.191406" xlink:href="#DejaVuSans-72"/>
      <use x="510.054688" xlink:href="#DejaVuSans-65"/>
      <use x="571.578125" xlink:href="#DejaVuSans-6d"/>
      <use x="668.990234" xlink:href="#DejaVuSans-61"/>
     </g>
    </g>
    <g id="line2d_26">
     <path d="M 546.225 526.095 
L 610.225 526.095 
" style="fill:none;stroke:#9467bd;stroke-dasharray:14.8,6.4;stroke-dashoffset:0;stroke-width:4;"/>
    </g>
    <g id="line2d_27"/>
    <g id="text_18">
     <!-- $\omega_{max}$ -->
     <g transform="translate(635.825 537.295)scale(0.32 -0.32)">
      <defs>
       <path d="M 1369 -91 
Q 72 -91 434 1766 
Q 575 2500 1256 3500 
L 1875 3500 
Q 1231 2500 1088 1750 
Q 819 397 1519 397 
Q 2166 397 2478 2078 
L 3009 2078 
Q 2669 388 3316 397 
Q 4013 403 4275 1750 
Q 4419 2500 4169 3500 
L 4788 3500 
Q 5075 2500 4934 1766 
Q 4578 -94 3278 -91 
Q 2428 -88 2503 844 
Q 2194 -91 1369 -91 
z
" id="DejaVuSans-Oblique-3c9" transform="scale(0.015625)"/>
       <path d="M 5747 2113 
L 5338 0 
L 4763 0 
L 5166 2094 
Q 5191 2228 5203 2325 
Q 5216 2422 5216 2491 
Q 5216 2772 5059 2928 
Q 4903 3084 4622 3084 
Q 4203 3084 3875 2770 
Q 3547 2456 3450 1953 
L 3066 0 
L 2491 0 
L 2900 2094 
Q 2925 2209 2937 2307 
Q 2950 2406 2950 2484 
Q 2950 2769 2794 2926 
Q 2638 3084 2363 3084 
Q 1938 3084 1609 2770 
Q 1281 2456 1184 1953 
L 800 0 
L 225 0 
L 909 3500 
L 1484 3500 
L 1375 2956 
Q 1609 3263 1923 3423 
Q 2238 3584 2597 3584 
Q 2978 3584 3223 3384 
Q 3469 3184 3519 2828 
Q 3781 3197 4126 3390 
Q 4472 3584 4856 3584 
Q 5306 3584 5551 3325 
Q 5797 3066 5797 2591 
Q 5797 2488 5784 2364 
Q 5772 2241 5747 2113 
z
" id="DejaVuSans-Oblique-6d" transform="scale(0.015625)"/>
       <path d="M 3841 3500 
L 2234 1784 
L 3219 0 
L 2559 0 
L 1819 1388 
L 531 0 
L -166 0 
L 1556 1844 
L 641 3500 
L 1300 3500 
L 1972 2234 
L 3144 3500 
L 3841 3500 
z
" id="DejaVuSans-Oblique-78" transform="scale(0.015625)"/>
      </defs>
      <use transform="translate(0 0.3125)" xlink:href="#DejaVuSans-Oblique-3c9"/>
      <use transform="translate(83.740234 -16.09375)scale(0.7)" xlink:href="#DejaVuSans-Oblique-6d"/>
      <use transform="translate(151.928711 -16.09375)scale(0.7)" xlink:href="#DejaVuSans-Oblique-61"/>
      <use transform="translate(194.824219 -16.09375)scale(0.7)" xlink:href="#DejaVuSans-Oblique-78"/>
     </g>
    </g>
    <g id="line2d_28">
     <path d="M 546.225 573.065 
L 610.225 573.065 
" style="fill:none;stroke:#8c564b;stroke-dasharray:14.8,6.4;stroke-dashoffset:0;stroke-width:4;"/>
    </g>
    <g id="line2d_29"/>
    <g id="text_19">
     <!-- $\omega_{min}$ -->
     <g transform="translate(635.825 584.265)scale(0.32 -0.32)">
      <defs>
       <path d="M 1172 4863 
L 1747 4863 
L 1606 4134 
L 1031 4134 
L 1172 4863 
z
M 909 3500 
L 1484 3500 
L 800 0 
L 225 0 
L 909 3500 
z
" id="DejaVuSans-Oblique-69" transform="scale(0.015625)"/>
       <path d="M 3566 2113 
L 3156 0 
L 2578 0 
L 2988 2091 
Q 3016 2238 3031 2350 
Q 3047 2463 3047 2528 
Q 3047 2791 2881 2937 
Q 2716 3084 2419 3084 
Q 1956 3084 1622 2776 
Q 1288 2469 1184 1941 
L 800 0 
L 225 0 
L 903 3500 
L 1478 3500 
L 1363 2950 
Q 1603 3253 1940 3418 
Q 2278 3584 2650 3584 
Q 3113 3584 3367 3334 
Q 3622 3084 3622 2631 
Q 3622 2519 3608 2391 
Q 3594 2263 3566 2113 
z
" id="DejaVuSans-Oblique-6e" transform="scale(0.015625)"/>
      </defs>
      <use transform="translate(0 0.3125)" xlink:href="#DejaVuSans-Oblique-3c9"/>
      <use transform="translate(83.740234 -16.09375)scale(0.7)" xlink:href="#DejaVuSans-Oblique-6d"/>
      <use transform="translate(151.928711 -16.09375)scale(0.7)" xlink:href="#DejaVuSans-Oblique-69"/>
      <use transform="translate(171.376953 -16.09375)scale(0.7)" xlink:href="#DejaVuSans-Oblique-6e"/>
     </g>
    </g>
   </g>
  </g>
 </g>
 <defs>
  <clipPath id="p0eb9211920">
   <rect height="585.16" width="801.2805" x="123.9195" y="34.56"/>
  </clipPath>
 </defs>
</svg>
