<?xml version="1.0" encoding="utf-8" standalone="no"?>
<!DOCTYPE svg PUBLIC "-//W3C//DTD SVG 1.1//EN"
  "http://www.w3.org/Graphics/SVG/1.1/DTD/svg11.dtd">
<svg height="720pt" version="1.1" viewBox="0 0 959.76 720" width="959.76pt" xmlns="http://www.w3.org/2000/svg" xmlns:xlink="http://www.w3.org/1999/xlink">
 <metadata>
  <rdf:RDF xmlns:cc="http://creativecommons.org/ns#" xmlns:dc="http://purl.org/dc/elements/1.1/" xmlns:rdf="http://www.w3.org/1999/02/22-rdf-syntax-ns#">
   <cc:Work>
    <dc:type rdf:resource="http://purl.org/dc/dcmitype/StillImage"/>
    <dc:date>2021-10-18T16:13:50.916870</dc:date>
    <dc:format>image/svg+xml</dc:format>
    <dc:creator>
     <cc:Agent>
      <dc:title>Matplotlib v3.4.2, https://matplotlib.org/</dc:title>
     </cc:Agent>
    </dc:creator>
   </cc:Work>
  </rdf:RDF>
 </metadata>
 <defs>
  <style type="text/css">*{stroke-linecap:butt;stroke-linejoin:round;}</style>
 </defs>
 <g id="figure_1">
  <g id="patch_1">
   <path d="M 0 720 
L 959.76 720 
L 959.76 0 
L 0 0 
z
" style="fill:#ffffff;"/>
  </g>
  <g id="axes_1">
   <g id="patch_2">
    <path d="M 107.12 615.434469 
L 925.2 615.434469 
L 925.2 53.004469 
L 107.12 53.004469 
z
" style="fill:#ffffff;"/>
   </g>
   <g id="patch_3">
    <path clip-path="url(#pea7dc8f1ad)" d="M 286.075 538.739469 
C 299.634835 538.739469 312.641119 533.352089 322.22937 523.763838 
C 331.817621 514.175588 337.205 501.169303 337.205 487.609469 
C 337.205 474.049634 331.817621 461.04335 322.22937 451.455099 
C 312.641119 441.866848 299.634835 436.479469 286.075 436.479469 
C 272.515165 436.479469 259.508881 441.866848 249.92063 451.455099 
C 240.332379 461.04335 234.945 474.049634 234.945 487.609469 
C 234.945 501.169303 240.332379 514.175588 249.92063 523.763838 
C 259.508881 533.352089 272.515165 538.739469 286.075 538.739469 
z
" style="fill:#ff0000;stroke:#000000;stroke-linejoin:miter;"/>
   </g>
   <g id="patch_4">
    <path clip-path="url(#pea7dc8f1ad)" d="M 439.465 283.089469 
C 453.024835 283.089469 466.031119 277.702089 475.61937 268.113838 
C 485.207621 258.525588 490.595 245.519303 490.595 231.959469 
C 490.595 218.399634 485.207621 205.39335 475.61937 195.805099 
C 466.031119 186.216848 453.024835 180.829469 439.465 180.829469 
C 425.905165 180.829469 412.898881 186.216848 403.31063 195.805099 
C 393.722379 205.39335 388.335 218.399634 388.335 231.959469 
C 388.335 245.519303 393.722379 258.525588 403.31063 268.113838 
C 412.898881 277.702089 425.905165 283.089469 439.465 283.089469 
z
" style="fill:#008000;stroke:#000000;stroke-linejoin:miter;"/>
   </g>
   <g id="matplotlib.axis_1">
    <g id="xtick_1">
     <g id="line2d_1">
      <defs>
       <path d="M 0 0 
L 0 3.5 
" id="m517c456113" style="stroke:#000000;stroke-width:0.8;"/>
      </defs>
      <g>
       <use style="stroke:#000000;stroke-width:0.8;" x="132.685" xlink:href="#m517c456113" y="615.434469"/>
      </g>
     </g>
     <g id="text_1">
      <!-- 0 -->
      <g transform="translate(125.05 640.670719)scale(0.24 -0.24)">
       <defs>
        <path d="M 2034 4250 
Q 1547 4250 1301 3770 
Q 1056 3291 1056 2328 
Q 1056 1369 1301 889 
Q 1547 409 2034 409 
Q 2525 409 2770 889 
Q 3016 1369 3016 2328 
Q 3016 3291 2770 3770 
Q 2525 4250 2034 4250 
z
M 2034 4750 
Q 2819 4750 3233 4129 
Q 3647 3509 3647 2328 
Q 3647 1150 3233 529 
Q 2819 -91 2034 -91 
Q 1250 -91 836 529 
Q 422 1150 422 2328 
Q 422 3509 836 4129 
Q 1250 4750 2034 4750 
z
" id="DejaVuSans-30" transform="scale(0.015625)"/>
       </defs>
       <use xlink:href="#DejaVuSans-30"/>
      </g>
     </g>
    </g>
    <g id="xtick_2">
     <g id="line2d_2">
      <g>
       <use style="stroke:#000000;stroke-width:0.8;" x="234.945" xlink:href="#m517c456113" y="615.434469"/>
      </g>
     </g>
     <g id="text_2">
      <!-- 2 -->
      <g transform="translate(227.31 640.670719)scale(0.24 -0.24)">
       <defs>
        <path d="M 1228 531 
L 3431 531 
L 3431 0 
L 469 0 
L 469 531 
Q 828 903 1448 1529 
Q 2069 2156 2228 2338 
Q 2531 2678 2651 2914 
Q 2772 3150 2772 3378 
Q 2772 3750 2511 3984 
Q 2250 4219 1831 4219 
Q 1534 4219 1204 4116 
Q 875 4013 500 3803 
L 500 4441 
Q 881 4594 1212 4672 
Q 1544 4750 1819 4750 
Q 2544 4750 2975 4387 
Q 3406 4025 3406 3419 
Q 3406 3131 3298 2873 
Q 3191 2616 2906 2266 
Q 2828 2175 2409 1742 
Q 1991 1309 1228 531 
z
" id="DejaVuSans-32" transform="scale(0.015625)"/>
       </defs>
       <use xlink:href="#DejaVuSans-32"/>
      </g>
     </g>
    </g>
    <g id="xtick_3">
     <g id="line2d_3">
      <g>
       <use style="stroke:#000000;stroke-width:0.8;" x="337.205" xlink:href="#m517c456113" y="615.434469"/>
      </g>
     </g>
     <g id="text_3">
      <!-- 4 -->
      <g transform="translate(329.57 640.670719)scale(0.24 -0.24)">
       <defs>
        <path d="M 2419 4116 
L 825 1625 
L 2419 1625 
L 2419 4116 
z
M 2253 4666 
L 3047 4666 
L 3047 1625 
L 3713 1625 
L 3713 1100 
L 3047 1100 
L 3047 0 
L 2419 0 
L 2419 1100 
L 313 1100 
L 313 1709 
L 2253 4666 
z
" id="DejaVuSans-34" transform="scale(0.015625)"/>
       </defs>
       <use xlink:href="#DejaVuSans-34"/>
      </g>
     </g>
    </g>
    <g id="xtick_4">
     <g id="line2d_4">
      <g>
       <use style="stroke:#000000;stroke-width:0.8;" x="439.465" xlink:href="#m517c456113" y="615.434469"/>
      </g>
     </g>
     <g id="text_4">
      <!-- 6 -->
      <g transform="translate(431.83 640.670719)scale(0.24 -0.24)">
       <defs>
        <path d="M 2113 2584 
Q 1688 2584 1439 2293 
Q 1191 2003 1191 1497 
Q 1191 994 1439 701 
Q 1688 409 2113 409 
Q 2538 409 2786 701 
Q 3034 994 3034 1497 
Q 3034 2003 2786 2293 
Q 2538 2584 2113 2584 
z
M 3366 4563 
L 3366 3988 
Q 3128 4100 2886 4159 
Q 2644 4219 2406 4219 
Q 1781 4219 1451 3797 
Q 1122 3375 1075 2522 
Q 1259 2794 1537 2939 
Q 1816 3084 2150 3084 
Q 2853 3084 3261 2657 
Q 3669 2231 3669 1497 
Q 3669 778 3244 343 
Q 2819 -91 2113 -91 
Q 1303 -91 875 529 
Q 447 1150 447 2328 
Q 447 3434 972 4092 
Q 1497 4750 2381 4750 
Q 2619 4750 2861 4703 
Q 3103 4656 3366 4563 
z
" id="DejaVuSans-36" transform="scale(0.015625)"/>
       </defs>
       <use xlink:href="#DejaVuSans-36"/>
      </g>
     </g>
    </g>
    <g id="xtick_5">
     <g id="line2d_5">
      <g>
       <use style="stroke:#000000;stroke-width:0.8;" x="541.725" xlink:href="#m517c456113" y="615.434469"/>
      </g>
     </g>
     <g id="text_5">
      <!-- 8 -->
      <g transform="translate(534.09 640.670719)scale(0.24 -0.24)">
       <defs>
        <path d="M 2034 2216 
Q 1584 2216 1326 1975 
Q 1069 1734 1069 1313 
Q 1069 891 1326 650 
Q 1584 409 2034 409 
Q 2484 409 2743 651 
Q 3003 894 3003 1313 
Q 3003 1734 2745 1975 
Q 2488 2216 2034 2216 
z
M 1403 2484 
Q 997 2584 770 2862 
Q 544 3141 544 3541 
Q 544 4100 942 4425 
Q 1341 4750 2034 4750 
Q 2731 4750 3128 4425 
Q 3525 4100 3525 3541 
Q 3525 3141 3298 2862 
Q 3072 2584 2669 2484 
Q 3125 2378 3379 2068 
Q 3634 1759 3634 1313 
Q 3634 634 3220 271 
Q 2806 -91 2034 -91 
Q 1263 -91 848 271 
Q 434 634 434 1313 
Q 434 1759 690 2068 
Q 947 2378 1403 2484 
z
M 1172 3481 
Q 1172 3119 1398 2916 
Q 1625 2713 2034 2713 
Q 2441 2713 2670 2916 
Q 2900 3119 2900 3481 
Q 2900 3844 2670 4047 
Q 2441 4250 2034 4250 
Q 1625 4250 1398 4047 
Q 1172 3844 1172 3481 
z
" id="DejaVuSans-38" transform="scale(0.015625)"/>
       </defs>
       <use xlink:href="#DejaVuSans-38"/>
      </g>
     </g>
    </g>
    <g id="xtick_6">
     <g id="line2d_6">
      <g>
       <use style="stroke:#000000;stroke-width:0.8;" x="643.985" xlink:href="#m517c456113" y="615.434469"/>
      </g>
     </g>
     <g id="text_6">
      <!-- 10 -->
      <g transform="translate(628.715 640.670719)scale(0.24 -0.24)">
       <defs>
        <path d="M 794 531 
L 1825 531 
L 1825 4091 
L 703 3866 
L 703 4441 
L 1819 4666 
L 2450 4666 
L 2450 531 
L 3481 531 
L 3481 0 
L 794 0 
L 794 531 
z
" id="DejaVuSans-31" transform="scale(0.015625)"/>
       </defs>
       <use xlink:href="#DejaVuSans-31"/>
       <use x="63.623047" xlink:href="#DejaVuSans-30"/>
      </g>
     </g>
    </g>
    <g id="xtick_7">
     <g id="line2d_7">
      <g>
       <use style="stroke:#000000;stroke-width:0.8;" x="746.245" xlink:href="#m517c456113" y="615.434469"/>
      </g>
     </g>
     <g id="text_7">
      <!-- 12 -->
      <g transform="translate(730.975 640.670719)scale(0.24 -0.24)">
       <use xlink:href="#DejaVuSans-31"/>
       <use x="63.623047" xlink:href="#DejaVuSans-32"/>
      </g>
     </g>
    </g>
    <g id="xtick_8">
     <g id="line2d_8">
      <g>
       <use style="stroke:#000000;stroke-width:0.8;" x="848.505" xlink:href="#m517c456113" y="615.434469"/>
      </g>
     </g>
     <g id="text_8">
      <!-- 14 -->
      <g transform="translate(833.235 640.670719)scale(0.24 -0.24)">
       <use xlink:href="#DejaVuSans-31"/>
       <use x="63.623047" xlink:href="#DejaVuSans-34"/>
      </g>
     </g>
    </g>
    <g id="text_9">
     <!-- X Position (m) -->
     <g transform="translate(404.675 673.976969)scale(0.32 -0.32)">
      <defs>
       <path d="M 403 4666 
L 1081 4666 
L 2241 2931 
L 3406 4666 
L 4084 4666 
L 2584 2425 
L 4184 0 
L 3506 0 
L 2194 1984 
L 872 0 
L 191 0 
L 1856 2491 
L 403 4666 
z
" id="DejaVuSans-58" transform="scale(0.015625)"/>
       <path id="DejaVuSans-20" transform="scale(0.015625)"/>
       <path d="M 1259 4147 
L 1259 2394 
L 2053 2394 
Q 2494 2394 2734 2622 
Q 2975 2850 2975 3272 
Q 2975 3691 2734 3919 
Q 2494 4147 2053 4147 
L 1259 4147 
z
M 628 4666 
L 2053 4666 
Q 2838 4666 3239 4311 
Q 3641 3956 3641 3272 
Q 3641 2581 3239 2228 
Q 2838 1875 2053 1875 
L 1259 1875 
L 1259 0 
L 628 0 
L 628 4666 
z
" id="DejaVuSans-50" transform="scale(0.015625)"/>
       <path d="M 1959 3097 
Q 1497 3097 1228 2736 
Q 959 2375 959 1747 
Q 959 1119 1226 758 
Q 1494 397 1959 397 
Q 2419 397 2687 759 
Q 2956 1122 2956 1747 
Q 2956 2369 2687 2733 
Q 2419 3097 1959 3097 
z
M 1959 3584 
Q 2709 3584 3137 3096 
Q 3566 2609 3566 1747 
Q 3566 888 3137 398 
Q 2709 -91 1959 -91 
Q 1206 -91 779 398 
Q 353 888 353 1747 
Q 353 2609 779 3096 
Q 1206 3584 1959 3584 
z
" id="DejaVuSans-6f" transform="scale(0.015625)"/>
       <path d="M 2834 3397 
L 2834 2853 
Q 2591 2978 2328 3040 
Q 2066 3103 1784 3103 
Q 1356 3103 1142 2972 
Q 928 2841 928 2578 
Q 928 2378 1081 2264 
Q 1234 2150 1697 2047 
L 1894 2003 
Q 2506 1872 2764 1633 
Q 3022 1394 3022 966 
Q 3022 478 2636 193 
Q 2250 -91 1575 -91 
Q 1294 -91 989 -36 
Q 684 19 347 128 
L 347 722 
Q 666 556 975 473 
Q 1284 391 1588 391 
Q 1994 391 2212 530 
Q 2431 669 2431 922 
Q 2431 1156 2273 1281 
Q 2116 1406 1581 1522 
L 1381 1569 
Q 847 1681 609 1914 
Q 372 2147 372 2553 
Q 372 3047 722 3315 
Q 1072 3584 1716 3584 
Q 2034 3584 2315 3537 
Q 2597 3491 2834 3397 
z
" id="DejaVuSans-73" transform="scale(0.015625)"/>
       <path d="M 603 3500 
L 1178 3500 
L 1178 0 
L 603 0 
L 603 3500 
z
M 603 4863 
L 1178 4863 
L 1178 4134 
L 603 4134 
L 603 4863 
z
" id="DejaVuSans-69" transform="scale(0.015625)"/>
       <path d="M 1172 4494 
L 1172 3500 
L 2356 3500 
L 2356 3053 
L 1172 3053 
L 1172 1153 
Q 1172 725 1289 603 
Q 1406 481 1766 481 
L 2356 481 
L 2356 0 
L 1766 0 
Q 1100 0 847 248 
Q 594 497 594 1153 
L 594 3053 
L 172 3053 
L 172 3500 
L 594 3500 
L 594 4494 
L 1172 4494 
z
" id="DejaVuSans-74" transform="scale(0.015625)"/>
       <path d="M 3513 2113 
L 3513 0 
L 2938 0 
L 2938 2094 
Q 2938 2591 2744 2837 
Q 2550 3084 2163 3084 
Q 1697 3084 1428 2787 
Q 1159 2491 1159 1978 
L 1159 0 
L 581 0 
L 581 3500 
L 1159 3500 
L 1159 2956 
Q 1366 3272 1645 3428 
Q 1925 3584 2291 3584 
Q 2894 3584 3203 3211 
Q 3513 2838 3513 2113 
z
" id="DejaVuSans-6e" transform="scale(0.015625)"/>
       <path d="M 1984 4856 
Q 1566 4138 1362 3434 
Q 1159 2731 1159 2009 
Q 1159 1288 1364 580 
Q 1569 -128 1984 -844 
L 1484 -844 
Q 1016 -109 783 600 
Q 550 1309 550 2009 
Q 550 2706 781 3412 
Q 1013 4119 1484 4856 
L 1984 4856 
z
" id="DejaVuSans-28" transform="scale(0.015625)"/>
       <path d="M 3328 2828 
Q 3544 3216 3844 3400 
Q 4144 3584 4550 3584 
Q 5097 3584 5394 3201 
Q 5691 2819 5691 2113 
L 5691 0 
L 5113 0 
L 5113 2094 
Q 5113 2597 4934 2840 
Q 4756 3084 4391 3084 
Q 3944 3084 3684 2787 
Q 3425 2491 3425 1978 
L 3425 0 
L 2847 0 
L 2847 2094 
Q 2847 2600 2669 2842 
Q 2491 3084 2119 3084 
Q 1678 3084 1418 2786 
Q 1159 2488 1159 1978 
L 1159 0 
L 581 0 
L 581 3500 
L 1159 3500 
L 1159 2956 
Q 1356 3278 1631 3431 
Q 1906 3584 2284 3584 
Q 2666 3584 2933 3390 
Q 3200 3197 3328 2828 
z
" id="DejaVuSans-6d" transform="scale(0.015625)"/>
       <path d="M 513 4856 
L 1013 4856 
Q 1481 4119 1714 3412 
Q 1947 2706 1947 2009 
Q 1947 1309 1714 600 
Q 1481 -109 1013 -844 
L 513 -844 
Q 928 -128 1133 580 
Q 1338 1288 1338 2009 
Q 1338 2731 1133 3434 
Q 928 4138 513 4856 
z
" id="DejaVuSans-29" transform="scale(0.015625)"/>
      </defs>
      <use xlink:href="#DejaVuSans-58"/>
      <use x="68.505859" xlink:href="#DejaVuSans-20"/>
      <use x="100.292969" xlink:href="#DejaVuSans-50"/>
      <use x="156.970703" xlink:href="#DejaVuSans-6f"/>
      <use x="218.152344" xlink:href="#DejaVuSans-73"/>
      <use x="270.251953" xlink:href="#DejaVuSans-69"/>
      <use x="298.035156" xlink:href="#DejaVuSans-74"/>
      <use x="337.244141" xlink:href="#DejaVuSans-69"/>
      <use x="365.027344" xlink:href="#DejaVuSans-6f"/>
      <use x="426.208984" xlink:href="#DejaVuSans-6e"/>
      <use x="489.587891" xlink:href="#DejaVuSans-20"/>
      <use x="521.375" xlink:href="#DejaVuSans-28"/>
      <use x="560.388672" xlink:href="#DejaVuSans-6d"/>
      <use x="657.800781" xlink:href="#DejaVuSans-29"/>
     </g>
    </g>
   </g>
   <g id="matplotlib.axis_2">
    <g id="ytick_1">
     <g id="line2d_9">
      <defs>
       <path d="M 0 0 
L -3.5 0 
" id="m35f71e80d5" style="stroke:#000000;stroke-width:0.8;"/>
      </defs>
      <g>
       <use style="stroke:#000000;stroke-width:0.8;" x="107.12" xlink:href="#m35f71e80d5" y="589.869469"/>
      </g>
     </g>
     <g id="text_10">
      <!-- 0 -->
      <g transform="translate(84.85 598.987594)scale(0.24 -0.24)">
       <use xlink:href="#DejaVuSans-30"/>
      </g>
     </g>
    </g>
    <g id="ytick_2">
     <g id="line2d_10">
      <g>
       <use style="stroke:#000000;stroke-width:0.8;" x="107.12" xlink:href="#m35f71e80d5" y="487.609469"/>
      </g>
     </g>
     <g id="text_11">
      <!-- 2 -->
      <g transform="translate(84.85 496.727594)scale(0.24 -0.24)">
       <use xlink:href="#DejaVuSans-32"/>
      </g>
     </g>
    </g>
    <g id="ytick_3">
     <g id="line2d_11">
      <g>
       <use style="stroke:#000000;stroke-width:0.8;" x="107.12" xlink:href="#m35f71e80d5" y="385.349469"/>
      </g>
     </g>
     <g id="text_12">
      <!-- 4 -->
      <g transform="translate(84.85 394.467594)scale(0.24 -0.24)">
       <use xlink:href="#DejaVuSans-34"/>
      </g>
     </g>
    </g>
    <g id="ytick_4">
     <g id="line2d_12">
      <g>
       <use style="stroke:#000000;stroke-width:0.8;" x="107.12" xlink:href="#m35f71e80d5" y="283.089469"/>
      </g>
     </g>
     <g id="text_13">
      <!-- 6 -->
      <g transform="translate(84.85 292.207594)scale(0.24 -0.24)">
       <use xlink:href="#DejaVuSans-36"/>
      </g>
     </g>
    </g>
    <g id="ytick_5">
     <g id="line2d_13">
      <g>
       <use style="stroke:#000000;stroke-width:0.8;" x="107.12" xlink:href="#m35f71e80d5" y="180.829469"/>
      </g>
     </g>
     <g id="text_14">
      <!-- 8 -->
      <g transform="translate(84.85 189.947594)scale(0.24 -0.24)">
       <use xlink:href="#DejaVuSans-38"/>
      </g>
     </g>
    </g>
    <g id="ytick_6">
     <g id="line2d_14">
      <g>
       <use style="stroke:#000000;stroke-width:0.8;" x="107.12" xlink:href="#m35f71e80d5" y="78.569469"/>
      </g>
     </g>
     <g id="text_15">
      <!-- 10 -->
      <g transform="translate(69.58 87.687594)scale(0.24 -0.24)">
       <use xlink:href="#DejaVuSans-31"/>
       <use x="63.623047" xlink:href="#DejaVuSans-30"/>
      </g>
     </g>
    </g>
    <g id="text_16">
     <!-- Y Position (m) -->
     <g transform="translate(58.925 444.516969)rotate(-90)scale(0.32 -0.32)">
      <defs>
       <path d="M -13 4666 
L 666 4666 
L 1959 2747 
L 3244 4666 
L 3922 4666 
L 2272 2222 
L 2272 0 
L 1638 0 
L 1638 2222 
L -13 4666 
z
" id="DejaVuSans-59" transform="scale(0.015625)"/>
      </defs>
      <use xlink:href="#DejaVuSans-59"/>
      <use x="61.083984" xlink:href="#DejaVuSans-20"/>
      <use x="92.871094" xlink:href="#DejaVuSans-50"/>
      <use x="149.548828" xlink:href="#DejaVuSans-6f"/>
      <use x="210.730469" xlink:href="#DejaVuSans-73"/>
      <use x="262.830078" xlink:href="#DejaVuSans-69"/>
      <use x="290.613281" xlink:href="#DejaVuSans-74"/>
      <use x="329.822266" xlink:href="#DejaVuSans-69"/>
      <use x="357.605469" xlink:href="#DejaVuSans-6f"/>
      <use x="418.787109" xlink:href="#DejaVuSans-6e"/>
      <use x="482.166016" xlink:href="#DejaVuSans-20"/>
      <use x="513.953125" xlink:href="#DejaVuSans-28"/>
      <use x="552.966797" xlink:href="#DejaVuSans-6d"/>
      <use x="650.378906" xlink:href="#DejaVuSans-29"/>
     </g>
    </g>
   </g>
   <g id="line2d_15">
    <path clip-path="url(#pea7dc8f1ad)" d="M 286.075 589.869469 
L 286.197041 586.836208 
L 286.474632 584.968711 
L 286.925744 583.454388 
L 287.456917 582.38858 
L 288.124911 581.497493 
L 289.079012 580.632628 
L 290.220893 579.907942 
L 291.959972 579.108645 
L 294.732939 578.136213 
L 303.309989 575.283228 
L 307.125232 573.73347 
L 310.792296 572.005489 
L 314.218326 570.156984 
L 317.731191 568.007771 
L 321.300052 565.541409 
L 324.494952 563.07339 
L 327.689676 560.340382 
L 330.864474 557.339647 
L 334.000551 554.070669 
L 337.080192 550.534922 
L 340.08687 546.735654 
L 343.00534 542.677684 
L 345.821704 538.36721 
L 348.523471 533.81164 
L 351.099593 529.019421 
L 353.540493 523.999888 
L 355.838069 518.763131 
L 357.9857 513.319856 
L 359.978231 507.681274 
L 361.811946 501.858989 
L 363.484541 495.864898 
L 365.172505 488.931261 
L 366.656058 481.812919 
L 367.937867 474.527355 
L 369.022495 467.092006 
L 369.916285 459.524161 
L 370.695325 450.980783 
L 371.261777 442.317824 
L 371.657498 432.677133 
L 371.837081 422.947648 
L 371.815822 412.264996 
L 371.57645 400.650093 
L 371.08046 387.246741 
L 370.226415 370.355751 
L 367.645221 322.102277 
L 367.274975 309.775461 
L 367.160421 298.562148 
L 367.273829 289.194563 
L 367.608242 280.067086 
L 368.126945 271.92202 
L 368.862784 263.998057 
L 369.729717 256.992748 
L 370.792216 250.181432 
L 372.055325 243.56833 
L 373.522402 237.156909 
L 375.018594 231.56131 
L 376.681475 226.13268 
L 378.510075 220.871897 
L 380.502392 215.779285 
L 382.655422 210.854595 
L 384.965194 206.096988 
L 387.426811 201.505014 
L 390.034487 197.076591 
L 392.781596 192.808989 
L 395.988418 188.251668 
L 399.346934 183.883025 
L 402.844822 179.696338 
L 406.468785 175.683798 
L 410.5838 171.460487 
L 414.814168 167.423713 
L 419.535899 163.215063 
L 424.744526 158.861011 
L 430.826912 154.063782 
L 438.957329 147.960333 
L 456.240466 135.090882 
L 461.723484 130.67537 
L 466.225362 126.762427 
L 469.821822 123.36255 
L 473.198002 119.862123 
L 476.056787 116.58021 
L 478.698059 113.194773 
L 480.876295 110.055246 
L 482.85503 106.827036 
L 484.624468 103.512374 
L 486.175826 100.117013 
L 487.501519 96.650731 
L 488.59538 93.127876 
L 489.452905 89.567958 
L 490.071533 85.996281 
L 490.450974 82.444618 
L 490.593573 78.951945 
L 490.595 78.569469 
L 490.595 78.569469 
" style="fill:none;stroke:#1f77b4;stroke-linecap:square;stroke-width:4;"/>
   </g>
   <g id="line2d_16">
    <path clip-path="url(#pea7dc8f1ad)" d="M 286.075 589.869469 
L 286.181771 587.385426 
L 286.425979 586.108283 
L 286.841638 585.117579 
L 287.448409 584.296595 
L 288.375474 583.455954 
L 290.188136 582.184146 
L 295.697116 578.429716 
L 299.101371 575.801088 
L 302.599333 572.819193 
L 306.049384 569.601284 
L 309.677515 565.91991 
L 313.428614 561.784575 
L 316.898904 557.644488 
L 320.384507 553.157092 
L 323.846403 548.33878 
L 327.247835 543.206623 
L 330.554854 537.77769 
L 333.424996 532.651621 
L 336.173836 527.310122 
L 338.783981 521.764051 
L 341.240655 516.023545 
L 343.531778 510.09801 
L 345.647983 503.996148 
L 347.58262 497.726026 
L 349.33171 491.295155 
L 350.893875 484.710605 
L 352.270246 477.979112 
L 353.464338 471.107211 
L 354.584396 463.314939 
L 355.497479 455.366216 
L 356.279333 446.452905 
L 356.849357 437.374297 
L 357.259154 427.298075 
L 357.504738 415.340675 
L 357.555158 401.451023 
L 357.377426 380.290663 
L 357.184917 353.596526 
L 357.308398 338.520621 
L 357.628075 326.2186 
L 358.147497 314.938811 
L 358.847332 304.688719 
L 359.694398 295.459665 
L 360.752535 286.416769 
L 361.906814 278.378309 
L 363.2504 270.531711 
L 364.787033 262.893408 
L 366.51835 255.478492 
L 368.242707 249.007313 
L 370.122827 242.736812 
L 372.155863 236.674511 
L 374.337828 230.826641 
L 376.663681 225.198082 
L 379.127417 219.792292 
L 381.722161 214.611266 
L 384.44027 209.655498 
L 387.273435 204.923961 
L 390.212789 200.414097 
L 393.591925 195.658106 
L 397.077342 191.162933 
L 400.655374 186.918569 
L 404.312146 182.912859 
L 408.408901 178.765233 
L 412.565614 174.867649 
L 417.147255 170.872617 
L 422.140191 166.808464 
L 427.90355 162.400094 
L 435.901429 156.594184 
L 450.207131 146.261951 
L 455.753009 141.94165 
L 460.076974 138.310559 
L 463.902237 134.828741 
L 467.549088 131.198606 
L 470.718933 127.726501 
L 473.707384 124.108513 
L 476.253387 120.691453 
L 478.624138 117.15605 
L 480.807348 113.510786 
L 482.790938 109.76957 
L 484.56344 105.952257 
L 486.114548 102.085202 
L 487.435835 98.201857 
L 488.521664 94.343418 
L 489.370334 90.559531 
L 490.034477 86.553934 
L 490.430962 82.802551 
L 490.591976 79.128504 
L 490.595 78.569469 
L 490.595 78.569469 
" style="fill:none;stroke:#ff7f0e;stroke-linecap:square;stroke-width:4;"/>
   </g>
   <g id="line2d_17">
    <path clip-path="url(#pea7dc8f1ad)" d="M 286.075 589.869469 
L 286.187399 588.07032 
L 286.39956 587.731707 
L 286.693686 587.697443 
L 287.542827 587.950311 
L 288.829791 588.252475 
L 290.050876 588.315403 
L 291.314741 588.17804 
L 292.755363 587.811496 
L 294.364303 587.180422 
L 296.130676 586.259387 
L 298.041607 585.031433 
L 300.383941 583.239967 
L 302.872731 581.029926 
L 305.483164 578.404446 
L 308.189655 575.373162 
L 310.966373 571.950696 
L 314.142253 567.655728 
L 317.339118 562.918751 
L 320.523085 557.772063 
L 323.662396 552.249053 
L 326.727836 546.383113 
L 329.693063 540.206797 
L 332.534852 533.75119 
L 335.233268 527.045456 
L 337.771771 520.116544 
L 340.137261 512.989029 
L 342.320067 505.685053 
L 344.313889 498.224363 
L 346.1157 490.624422 
L 347.725604 482.900569 
L 349.146675 475.066229 
L 350.511364 466.24605 
L 351.661892 457.317979 
L 352.698329 447.387143 
L 353.518529 437.355232 
L 354.199942 426.311751 
L 354.766784 413.317882 
L 355.221745 397.417151 
L 356.542822 343.811781 
L 357.195639 330.771913 
L 357.956798 319.702241 
L 358.937794 308.763555 
L 360.053355 298.878078 
L 361.262035 290.029916 
L 362.666554 281.332568 
L 364.274458 272.803899 
L 366.090645 264.461222 
L 367.905218 257.125514 
L 369.890212 249.965206 
L 372.043806 242.990843 
L 374.362571 236.212047 
L 376.841537 229.637402 
L 379.474279 223.274359 
L 382.253011 217.129145 
L 385.168692 211.206696 
L 388.211144 205.510605 
L 391.369174 200.043077 
L 394.630708 194.80492 
L 398.360414 189.252989 
L 402.183612 183.98064 
L 406.081171 178.983 
L 410.033531 174.253239 
L 414.420848 169.349509 
L 418.82437 164.745517 
L 423.616444 160.045916 
L 428.757573 155.3085 
L 434.575257 150.258036 
L 441.321358 144.7138 
L 450.792942 137.256883 
L 461.337811 128.907689 
L 466.476439 124.560637 
L 470.599065 120.783121 
L 473.866613 117.501344 
L 476.79606 114.242993 
L 479.236542 111.206965 
L 481.406523 108.164346 
L 483.319765 105.106544 
L 484.989887 102.02673 
L 486.429281 98.919096 
L 487.648176 95.778394 
L 488.653936 92.59995 
L 489.450698 89.380461 
L 490.039469 86.11988 
L 490.418816 82.82479 
L 490.586299 79.513722 
L 490.595 78.569469 
L 490.595 78.569469 
" style="fill:none;stroke:#2ca02c;stroke-linecap:square;stroke-width:4;"/>
   </g>
   <g id="line2d_18">
    <path clip-path="url(#pea7dc8f1ad)" d="M 286.075 589.869469 
L 286.178774 588.432795 
L 286.328017 588.358035 
L 286.660785 588.592701 
L 287.767187 589.439901 
L 288.636712 589.831437 
L 289.560604 590.023912 
L 290.634376 590.018165 
L 291.85291 589.771942 
L 293.208737 589.253961 
L 294.692453 588.442345 
L 296.293101 587.323211 
L 298.249942 585.658733 
L 300.324025 583.581593 
L 302.494813 581.097559 
L 305.026355 577.831395 
L 307.623682 574.088453 
L 310.257373 569.89694 
L 312.899148 565.28814 
L 315.52234 560.294903 
L 318.385277 554.33634 
L 321.164394 547.988736 
L 323.833111 541.294576 
L 326.369014 534.293388 
L 328.754013 527.021207 
L 330.974399 519.510303 
L 333.020821 511.789106 
L 334.888181 503.882316 
L 336.575474 495.811123 
L 338.227044 486.764337 
L 339.673099 477.560465 
L 341.032335 467.360306 
L 342.186666 457.011234 
L 343.312685 444.769765 
L 344.373196 430.585575 
L 345.540177 411.70674 
L 347.706579 376.120606 
L 348.846476 361.444739 
L 350.064208 348.630452 
L 351.311211 337.699962 
L 352.77459 326.848097 
L 354.325856 316.994544 
L 356.092861 307.254575 
L 357.895979 298.518073 
L 359.892792 289.911739 
L 362.087027 281.452355 
L 364.480077 273.156064 
L 367.071022 265.038136 
L 369.856682 257.112757 
L 372.525858 250.155236 
L 375.343051 243.372547 
L 378.301578 236.772037 
L 381.744931 229.659331 
L 385.340474 222.785999 
L 389.074133 216.15697 
L 392.930435 209.775254 
L 396.892701 203.641932 
L 400.943245 197.75619 
L 405.478726 191.564614 
L 410.073237 185.663411 
L 415.122293 179.547098 
L 420.59731 173.284028 
L 426.451912 166.938144 
L 433.02547 160.155555 
L 440.960413 152.312501 
L 464.686247 129.137283 
L 469.496128 123.9746 
L 473.28632 119.594626 
L 476.622355 115.395783 
L 479.348623 111.615694 
L 481.704317 107.982314 
L 483.712438 104.492347 
L 485.501934 100.922929 
L 486.962792 97.502501 
L 488.131677 94.214745 
L 489.092487 90.838117 
L 489.798668 87.539202 
L 490.276507 84.264028 
L 490.539406 80.954322 
L 490.595 78.569469 
L 490.595 78.569469 
" style="fill:none;stroke:#d62728;stroke-linecap:square;stroke-width:4;"/>
   </g>
   <g id="patch_5">
    <path d="M 107.12 615.434469 
L 107.12 53.004469 
" style="fill:none;stroke:#000000;stroke-linecap:square;stroke-linejoin:miter;stroke-width:0.8;"/>
   </g>
   <g id="patch_6">
    <path d="M 925.2 615.434469 
L 925.2 53.004469 
" style="fill:none;stroke:#000000;stroke-linecap:square;stroke-linejoin:miter;stroke-width:0.8;"/>
   </g>
   <g id="patch_7">
    <path d="M 107.12 615.434469 
L 925.2 615.434469 
" style="fill:none;stroke:#000000;stroke-linecap:square;stroke-linejoin:miter;stroke-width:0.8;"/>
   </g>
   <g id="patch_8">
    <path d="M 107.12 53.004469 
L 925.2 53.004469 
" style="fill:none;stroke:#000000;stroke-linecap:square;stroke-linejoin:miter;stroke-width:0.8;"/>
   </g>
   <g id="legend_1">
    <g id="patch_9">
     <path d="M 636.16875 213.114469 
L 908.4 213.114469 
Q 913.2 213.114469 913.2 208.314469 
L 913.2 69.804469 
Q 913.2 65.004469 908.4 65.004469 
L 636.16875 65.004469 
Q 631.36875 65.004469 631.36875 69.804469 
L 631.36875 208.314469 
Q 631.36875 213.114469 636.16875 213.114469 
z
" style="fill:#ffffff;opacity:0.8;stroke:#cccccc;stroke-linejoin:miter;"/>
    </g>
    <g id="line2d_19">
     <path d="M 640.96875 84.440719 
L 688.96875 84.440719 
" style="fill:none;stroke:#1f77b4;stroke-linecap:square;stroke-width:4;"/>
    </g>
    <g id="line2d_20"/>
    <g id="text_17">
     <!-- No Elevation -->
     <g transform="translate(708.16875 92.840719)scale(0.24 -0.24)">
      <defs>
       <path d="M 628 4666 
L 1478 4666 
L 3547 763 
L 3547 4666 
L 4159 4666 
L 4159 0 
L 3309 0 
L 1241 3903 
L 1241 0 
L 628 0 
L 628 4666 
z
" id="DejaVuSans-4e" transform="scale(0.015625)"/>
       <path d="M 628 4666 
L 3578 4666 
L 3578 4134 
L 1259 4134 
L 1259 2753 
L 3481 2753 
L 3481 2222 
L 1259 2222 
L 1259 531 
L 3634 531 
L 3634 0 
L 628 0 
L 628 4666 
z
" id="DejaVuSans-45" transform="scale(0.015625)"/>
       <path d="M 603 4863 
L 1178 4863 
L 1178 0 
L 603 0 
L 603 4863 
z
" id="DejaVuSans-6c" transform="scale(0.015625)"/>
       <path d="M 3597 1894 
L 3597 1613 
L 953 1613 
Q 991 1019 1311 708 
Q 1631 397 2203 397 
Q 2534 397 2845 478 
Q 3156 559 3463 722 
L 3463 178 
Q 3153 47 2828 -22 
Q 2503 -91 2169 -91 
Q 1331 -91 842 396 
Q 353 884 353 1716 
Q 353 2575 817 3079 
Q 1281 3584 2069 3584 
Q 2775 3584 3186 3129 
Q 3597 2675 3597 1894 
z
M 3022 2063 
Q 3016 2534 2758 2815 
Q 2500 3097 2075 3097 
Q 1594 3097 1305 2825 
Q 1016 2553 972 2059 
L 3022 2063 
z
" id="DejaVuSans-65" transform="scale(0.015625)"/>
       <path d="M 191 3500 
L 800 3500 
L 1894 563 
L 2988 3500 
L 3597 3500 
L 2284 0 
L 1503 0 
L 191 3500 
z
" id="DejaVuSans-76" transform="scale(0.015625)"/>
       <path d="M 2194 1759 
Q 1497 1759 1228 1600 
Q 959 1441 959 1056 
Q 959 750 1161 570 
Q 1363 391 1709 391 
Q 2188 391 2477 730 
Q 2766 1069 2766 1631 
L 2766 1759 
L 2194 1759 
z
M 3341 1997 
L 3341 0 
L 2766 0 
L 2766 531 
Q 2569 213 2275 61 
Q 1981 -91 1556 -91 
Q 1019 -91 701 211 
Q 384 513 384 1019 
Q 384 1609 779 1909 
Q 1175 2209 1959 2209 
L 2766 2209 
L 2766 2266 
Q 2766 2663 2505 2880 
Q 2244 3097 1772 3097 
Q 1472 3097 1187 3025 
Q 903 2953 641 2809 
L 641 3341 
Q 956 3463 1253 3523 
Q 1550 3584 1831 3584 
Q 2591 3584 2966 3190 
Q 3341 2797 3341 1997 
z
" id="DejaVuSans-61" transform="scale(0.015625)"/>
      </defs>
      <use xlink:href="#DejaVuSans-4e"/>
      <use x="74.804688" xlink:href="#DejaVuSans-6f"/>
      <use x="135.986328" xlink:href="#DejaVuSans-20"/>
      <use x="167.773438" xlink:href="#DejaVuSans-45"/>
      <use x="230.957031" xlink:href="#DejaVuSans-6c"/>
      <use x="258.740234" xlink:href="#DejaVuSans-65"/>
      <use x="320.263672" xlink:href="#DejaVuSans-76"/>
      <use x="379.443359" xlink:href="#DejaVuSans-61"/>
      <use x="440.722656" xlink:href="#DejaVuSans-74"/>
      <use x="479.931641" xlink:href="#DejaVuSans-69"/>
      <use x="507.714844" xlink:href="#DejaVuSans-6f"/>
      <use x="568.896484" xlink:href="#DejaVuSans-6e"/>
     </g>
    </g>
    <g id="line2d_21">
     <path d="M 640.96875 119.668219 
L 688.96875 119.668219 
" style="fill:none;stroke:#ff7f0e;stroke-linecap:square;stroke-width:4;"/>
    </g>
    <g id="line2d_22"/>
    <g id="text_18">
     <!-- Elevated by 30 -->
     <g transform="translate(708.16875 128.068219)scale(0.24 -0.24)">
      <defs>
       <path d="M 2906 2969 
L 2906 4863 
L 3481 4863 
L 3481 0 
L 2906 0 
L 2906 525 
Q 2725 213 2448 61 
Q 2172 -91 1784 -91 
Q 1150 -91 751 415 
Q 353 922 353 1747 
Q 353 2572 751 3078 
Q 1150 3584 1784 3584 
Q 2172 3584 2448 3432 
Q 2725 3281 2906 2969 
z
M 947 1747 
Q 947 1113 1208 752 
Q 1469 391 1925 391 
Q 2381 391 2643 752 
Q 2906 1113 2906 1747 
Q 2906 2381 2643 2742 
Q 2381 3103 1925 3103 
Q 1469 3103 1208 2742 
Q 947 2381 947 1747 
z
" id="DejaVuSans-64" transform="scale(0.015625)"/>
       <path d="M 3116 1747 
Q 3116 2381 2855 2742 
Q 2594 3103 2138 3103 
Q 1681 3103 1420 2742 
Q 1159 2381 1159 1747 
Q 1159 1113 1420 752 
Q 1681 391 2138 391 
Q 2594 391 2855 752 
Q 3116 1113 3116 1747 
z
M 1159 2969 
Q 1341 3281 1617 3432 
Q 1894 3584 2278 3584 
Q 2916 3584 3314 3078 
Q 3713 2572 3713 1747 
Q 3713 922 3314 415 
Q 2916 -91 2278 -91 
Q 1894 -91 1617 61 
Q 1341 213 1159 525 
L 1159 0 
L 581 0 
L 581 4863 
L 1159 4863 
L 1159 2969 
z
" id="DejaVuSans-62" transform="scale(0.015625)"/>
       <path d="M 2059 -325 
Q 1816 -950 1584 -1140 
Q 1353 -1331 966 -1331 
L 506 -1331 
L 506 -850 
L 844 -850 
Q 1081 -850 1212 -737 
Q 1344 -625 1503 -206 
L 1606 56 
L 191 3500 
L 800 3500 
L 1894 763 
L 2988 3500 
L 3597 3500 
L 2059 -325 
z
" id="DejaVuSans-79" transform="scale(0.015625)"/>
       <path d="M 2597 2516 
Q 3050 2419 3304 2112 
Q 3559 1806 3559 1356 
Q 3559 666 3084 287 
Q 2609 -91 1734 -91 
Q 1441 -91 1130 -33 
Q 819 25 488 141 
L 488 750 
Q 750 597 1062 519 
Q 1375 441 1716 441 
Q 2309 441 2620 675 
Q 2931 909 2931 1356 
Q 2931 1769 2642 2001 
Q 2353 2234 1838 2234 
L 1294 2234 
L 1294 2753 
L 1863 2753 
Q 2328 2753 2575 2939 
Q 2822 3125 2822 3475 
Q 2822 3834 2567 4026 
Q 2313 4219 1838 4219 
Q 1578 4219 1281 4162 
Q 984 4106 628 3988 
L 628 4550 
Q 988 4650 1302 4700 
Q 1616 4750 1894 4750 
Q 2613 4750 3031 4423 
Q 3450 4097 3450 3541 
Q 3450 3153 3228 2886 
Q 3006 2619 2597 2516 
z
" id="DejaVuSans-33" transform="scale(0.015625)"/>
      </defs>
      <use xlink:href="#DejaVuSans-45"/>
      <use x="63.183594" xlink:href="#DejaVuSans-6c"/>
      <use x="90.966797" xlink:href="#DejaVuSans-65"/>
      <use x="152.490234" xlink:href="#DejaVuSans-76"/>
      <use x="211.669922" xlink:href="#DejaVuSans-61"/>
      <use x="272.949219" xlink:href="#DejaVuSans-74"/>
      <use x="312.158203" xlink:href="#DejaVuSans-65"/>
      <use x="373.681641" xlink:href="#DejaVuSans-64"/>
      <use x="437.158203" xlink:href="#DejaVuSans-20"/>
      <use x="468.945312" xlink:href="#DejaVuSans-62"/>
      <use x="532.421875" xlink:href="#DejaVuSans-79"/>
      <use x="591.601562" xlink:href="#DejaVuSans-20"/>
      <use x="623.388672" xlink:href="#DejaVuSans-33"/>
      <use x="687.011719" xlink:href="#DejaVuSans-30"/>
     </g>
    </g>
    <g id="line2d_23">
     <path d="M 640.96875 154.895719 
L 688.96875 154.895719 
" style="fill:none;stroke:#2ca02c;stroke-linecap:square;stroke-width:4;"/>
    </g>
    <g id="line2d_24"/>
    <g id="text_19">
     <!-- Elevated by 100 -->
     <g transform="translate(708.16875 163.295719)scale(0.24 -0.24)">
      <use xlink:href="#DejaVuSans-45"/>
      <use x="63.183594" xlink:href="#DejaVuSans-6c"/>
      <use x="90.966797" xlink:href="#DejaVuSans-65"/>
      <use x="152.490234" xlink:href="#DejaVuSans-76"/>
      <use x="211.669922" xlink:href="#DejaVuSans-61"/>
      <use x="272.949219" xlink:href="#DejaVuSans-74"/>
      <use x="312.158203" xlink:href="#DejaVuSans-65"/>
      <use x="373.681641" xlink:href="#DejaVuSans-64"/>
      <use x="437.158203" xlink:href="#DejaVuSans-20"/>
      <use x="468.945312" xlink:href="#DejaVuSans-62"/>
      <use x="532.421875" xlink:href="#DejaVuSans-79"/>
      <use x="591.601562" xlink:href="#DejaVuSans-20"/>
      <use x="623.388672" xlink:href="#DejaVuSans-31"/>
      <use x="687.011719" xlink:href="#DejaVuSans-30"/>
      <use x="750.634766" xlink:href="#DejaVuSans-30"/>
     </g>
    </g>
    <g id="line2d_25">
     <path d="M 640.96875 190.123219 
L 688.96875 190.123219 
" style="fill:none;stroke:#d62728;stroke-linecap:square;stroke-width:4;"/>
    </g>
    <g id="line2d_26"/>
    <g id="text_20">
     <!-- Exact Extrema -->
     <g transform="translate(708.16875 198.523219)scale(0.24 -0.24)">
      <defs>
       <path d="M 3513 3500 
L 2247 1797 
L 3578 0 
L 2900 0 
L 1881 1375 
L 863 0 
L 184 0 
L 1544 1831 
L 300 3500 
L 978 3500 
L 1906 2253 
L 2834 3500 
L 3513 3500 
z
" id="DejaVuSans-78" transform="scale(0.015625)"/>
       <path d="M 3122 3366 
L 3122 2828 
Q 2878 2963 2633 3030 
Q 2388 3097 2138 3097 
Q 1578 3097 1268 2742 
Q 959 2388 959 1747 
Q 959 1106 1268 751 
Q 1578 397 2138 397 
Q 2388 397 2633 464 
Q 2878 531 3122 666 
L 3122 134 
Q 2881 22 2623 -34 
Q 2366 -91 2075 -91 
Q 1284 -91 818 406 
Q 353 903 353 1747 
Q 353 2603 823 3093 
Q 1294 3584 2113 3584 
Q 2378 3584 2631 3529 
Q 2884 3475 3122 3366 
z
" id="DejaVuSans-63" transform="scale(0.015625)"/>
       <path d="M 2631 2963 
Q 2534 3019 2420 3045 
Q 2306 3072 2169 3072 
Q 1681 3072 1420 2755 
Q 1159 2438 1159 1844 
L 1159 0 
L 581 0 
L 581 3500 
L 1159 3500 
L 1159 2956 
Q 1341 3275 1631 3429 
Q 1922 3584 2338 3584 
Q 2397 3584 2469 3576 
Q 2541 3569 2628 3553 
L 2631 2963 
z
" id="DejaVuSans-72" transform="scale(0.015625)"/>
      </defs>
      <use xlink:href="#DejaVuSans-45"/>
      <use x="63.183594" xlink:href="#DejaVuSans-78"/>
      <use x="122.363281" xlink:href="#DejaVuSans-61"/>
      <use x="183.642578" xlink:href="#DejaVuSans-63"/>
      <use x="238.623047" xlink:href="#DejaVuSans-74"/>
      <use x="277.832031" xlink:href="#DejaVuSans-20"/>
      <use x="309.619141" xlink:href="#DejaVuSans-45"/>
      <use x="372.802734" xlink:href="#DejaVuSans-78"/>
      <use x="431.982422" xlink:href="#DejaVuSans-74"/>
      <use x="471.191406" xlink:href="#DejaVuSans-72"/>
      <use x="510.054688" xlink:href="#DejaVuSans-65"/>
      <use x="571.578125" xlink:href="#DejaVuSans-6d"/>
      <use x="668.990234" xlink:href="#DejaVuSans-61"/>
     </g>
    </g>
   </g>
  </g>
 </g>
 <defs>
  <clipPath id="pea7dc8f1ad">
   <rect height="562.43" width="818.08" x="107.12" y="53.004469"/>
  </clipPath>
 </defs>
</svg>
