<?xml version="1.0" encoding="utf-8" standalone="no"?>
<!DOCTYPE svg PUBLIC "-//W3C//DTD SVG 1.1//EN"
  "http://www.w3.org/Graphics/SVG/1.1/DTD/svg11.dtd">
<!-- Created with matplotlib (https://matplotlib.org/) -->
<svg height="720pt" version="1.1" viewBox="0 0 959.976 720" width="959.976pt" xmlns="http://www.w3.org/2000/svg" xmlns:xlink="http://www.w3.org/1999/xlink">
 <defs>
  <style type="text/css">
*{stroke-linecap:butt;stroke-linejoin:round;}
  </style>
 </defs>
 <g id="figure_1">
  <g id="patch_1">
   <path d="M 0 720 
L 959.976 720 
L 959.976 0 
L 0 0 
z
" style="fill:#ffffff;"/>
  </g>
  <g id="axes_1">
   <g id="patch_2">
    <path d="M 144.02 583.75922 
L 915.385232 583.75922 
L 915.385232 53.445623 
L 144.02 53.445623 
z
" style="fill:#ffffff;"/>
   </g>
   <g id="patch_3">
    <path clip-path="url(#pbe4dd5f69c)" d="M 312.756144 511.44373 
C 325.541673 511.44373 337.80526 506.363986 346.845994 497.323252 
C 355.886727 488.282518 360.966471 476.018931 360.966471 463.233403 
C 360.966471 450.447875 355.886727 438.184287 346.845994 429.143554 
C 337.80526 420.10282 325.541673 415.023076 312.756144 415.023076 
C 299.970616 415.023076 287.707029 420.10282 278.666295 429.143554 
C 269.625562 438.184287 264.545817 450.447875 264.545817 463.233403 
C 264.545817 476.018931 269.625562 488.282518 278.666295 497.323252 
C 287.707029 506.363986 299.970616 511.44373 312.756144 511.44373 
z
" style="fill:#ff0000;stroke:#000000;stroke-linejoin:miter;"/>
   </g>
   <g id="patch_4">
    <path clip-path="url(#pbe4dd5f69c)" d="M 457.387125 270.392095 
C 470.172654 270.392095 482.436241 265.312351 491.476975 256.271617 
C 500.517708 247.230883 505.597452 234.967296 505.597452 222.181768 
C 505.597452 209.39624 500.517708 197.132652 491.476975 188.091919 
C 482.436241 179.051185 470.172654 173.971441 457.387125 173.971441 
C 444.601597 173.971441 432.33801 179.051185 423.297276 188.091919 
C 414.256543 197.132652 409.176798 209.39624 409.176798 222.181768 
C 409.176798 234.967296 414.256543 247.230883 423.297276 256.271617 
C 432.33801 265.312351 444.601597 270.392095 457.387125 270.392095 
z
" style="fill:#008000;stroke:#000000;stroke-linejoin:miter;"/>
   </g>
   <g id="matplotlib.axis_1">
    <g id="xtick_1">
     <g id="line2d_1">
      <defs>
       <path d="M 0 0 
L 0 3.5 
" id="m34314f27cd" style="stroke:#000000;stroke-width:0.8;"/>
      </defs>
      <g>
       <use style="stroke:#000000;stroke-width:0.8;" x="168.125163" xlink:href="#m34314f27cd" y="583.75922"/>
      </g>
     </g>
     <g id="text_1">
      <!-- 0 -->
      <defs>
       <path d="M 31.78125 66.40625 
Q 24.171875 66.40625 20.328125 58.90625 
Q 16.5 51.421875 16.5 36.375 
Q 16.5 21.390625 20.328125 13.890625 
Q 24.171875 6.390625 31.78125 6.390625 
Q 39.453125 6.390625 43.28125 13.890625 
Q 47.125 21.390625 47.125 36.375 
Q 47.125 51.421875 43.28125 58.90625 
Q 39.453125 66.40625 31.78125 66.40625 
z
M 31.78125 74.21875 
Q 44.046875 74.21875 50.515625 64.515625 
Q 56.984375 54.828125 56.984375 36.375 
Q 56.984375 17.96875 50.515625 8.265625 
Q 44.046875 -1.421875 31.78125 -1.421875 
Q 19.53125 -1.421875 13.0625 8.265625 
Q 6.59375 17.96875 6.59375 36.375 
Q 6.59375 54.828125 13.0625 64.515625 
Q 19.53125 74.21875 31.78125 74.21875 
z
" id="DejaVuSans-48"/>
      </defs>
      <g transform="translate(155.400163 621.15297)scale(0.4 -0.4)">
       <use xlink:href="#DejaVuSans-48"/>
      </g>
     </g>
    </g>
    <g id="xtick_2">
     <g id="line2d_2">
      <g>
       <use style="stroke:#000000;stroke-width:0.8;" x="409.176798" xlink:href="#m34314f27cd" y="583.75922"/>
      </g>
     </g>
     <g id="text_2">
      <!-- 5 -->
      <defs>
       <path d="M 10.796875 72.90625 
L 49.515625 72.90625 
L 49.515625 64.59375 
L 19.828125 64.59375 
L 19.828125 46.734375 
Q 21.96875 47.46875 24.109375 47.828125 
Q 26.265625 48.1875 28.421875 48.1875 
Q 40.625 48.1875 47.75 41.5 
Q 54.890625 34.8125 54.890625 23.390625 
Q 54.890625 11.625 47.5625 5.09375 
Q 40.234375 -1.421875 26.90625 -1.421875 
Q 22.3125 -1.421875 17.546875 -0.640625 
Q 12.796875 0.140625 7.71875 1.703125 
L 7.71875 11.625 
Q 12.109375 9.234375 16.796875 8.0625 
Q 21.484375 6.890625 26.703125 6.890625 
Q 35.15625 6.890625 40.078125 11.328125 
Q 45.015625 15.765625 45.015625 23.390625 
Q 45.015625 31 40.078125 35.4375 
Q 35.15625 39.890625 26.703125 39.890625 
Q 22.75 39.890625 18.8125 39.015625 
Q 14.890625 38.140625 10.796875 36.28125 
z
" id="DejaVuSans-53"/>
      </defs>
      <g transform="translate(396.451798 621.15297)scale(0.4 -0.4)">
       <use xlink:href="#DejaVuSans-53"/>
      </g>
     </g>
    </g>
    <g id="xtick_3">
     <g id="line2d_3">
      <g>
       <use style="stroke:#000000;stroke-width:0.8;" x="650.228433" xlink:href="#m34314f27cd" y="583.75922"/>
      </g>
     </g>
     <g id="text_3">
      <!-- 10 -->
      <defs>
       <path d="M 12.40625 8.296875 
L 28.515625 8.296875 
L 28.515625 63.921875 
L 10.984375 60.40625 
L 10.984375 69.390625 
L 28.421875 72.90625 
L 38.28125 72.90625 
L 38.28125 8.296875 
L 54.390625 8.296875 
L 54.390625 0 
L 12.40625 0 
z
" id="DejaVuSans-49"/>
      </defs>
      <g transform="translate(624.778433 621.15297)scale(0.4 -0.4)">
       <use xlink:href="#DejaVuSans-49"/>
       <use x="63.623047" xlink:href="#DejaVuSans-48"/>
      </g>
     </g>
    </g>
    <g id="xtick_4">
     <g id="line2d_4">
      <g>
       <use style="stroke:#000000;stroke-width:0.8;" x="891.280068" xlink:href="#m34314f27cd" y="583.75922"/>
      </g>
     </g>
     <g id="text_4">
      <!-- 15 -->
      <g transform="translate(865.830068 621.15297)scale(0.4 -0.4)">
       <use xlink:href="#DejaVuSans-49"/>
       <use x="63.623047" xlink:href="#DejaVuSans-53"/>
      </g>
     </g>
    </g>
    <g id="text_5">
     <!-- X Position (m) -->
     <defs>
      <path d="M 6.296875 72.90625 
L 16.890625 72.90625 
L 35.015625 45.796875 
L 53.21875 72.90625 
L 63.8125 72.90625 
L 40.375 37.890625 
L 65.375 0 
L 54.78125 0 
L 34.28125 31 
L 13.625 0 
L 2.984375 0 
L 29 38.921875 
z
" id="DejaVuSans-88"/>
      <path id="DejaVuSans-32"/>
      <path d="M 19.671875 64.796875 
L 19.671875 37.40625 
L 32.078125 37.40625 
Q 38.96875 37.40625 42.71875 40.96875 
Q 46.484375 44.53125 46.484375 51.125 
Q 46.484375 57.671875 42.71875 61.234375 
Q 38.96875 64.796875 32.078125 64.796875 
z
M 9.8125 72.90625 
L 32.078125 72.90625 
Q 44.34375 72.90625 50.609375 67.359375 
Q 56.890625 61.8125 56.890625 51.125 
Q 56.890625 40.328125 50.609375 34.8125 
Q 44.34375 29.296875 32.078125 29.296875 
L 19.671875 29.296875 
L 19.671875 0 
L 9.8125 0 
z
" id="DejaVuSans-80"/>
      <path d="M 30.609375 48.390625 
Q 23.390625 48.390625 19.1875 42.75 
Q 14.984375 37.109375 14.984375 27.296875 
Q 14.984375 17.484375 19.15625 11.84375 
Q 23.34375 6.203125 30.609375 6.203125 
Q 37.796875 6.203125 41.984375 11.859375 
Q 46.1875 17.53125 46.1875 27.296875 
Q 46.1875 37.015625 41.984375 42.703125 
Q 37.796875 48.390625 30.609375 48.390625 
z
M 30.609375 56 
Q 42.328125 56 49.015625 48.375 
Q 55.71875 40.765625 55.71875 27.296875 
Q 55.71875 13.875 49.015625 6.21875 
Q 42.328125 -1.421875 30.609375 -1.421875 
Q 18.84375 -1.421875 12.171875 6.21875 
Q 5.515625 13.875 5.515625 27.296875 
Q 5.515625 40.765625 12.171875 48.375 
Q 18.84375 56 30.609375 56 
z
" id="DejaVuSans-111"/>
      <path d="M 44.28125 53.078125 
L 44.28125 44.578125 
Q 40.484375 46.53125 36.375 47.5 
Q 32.28125 48.484375 27.875 48.484375 
Q 21.1875 48.484375 17.84375 46.4375 
Q 14.5 44.390625 14.5 40.28125 
Q 14.5 37.15625 16.890625 35.375 
Q 19.28125 33.59375 26.515625 31.984375 
L 29.59375 31.296875 
Q 39.15625 29.25 43.1875 25.515625 
Q 47.21875 21.78125 47.21875 15.09375 
Q 47.21875 7.46875 41.1875 3.015625 
Q 35.15625 -1.421875 24.609375 -1.421875 
Q 20.21875 -1.421875 15.453125 -0.5625 
Q 10.6875 0.296875 5.421875 2 
L 5.421875 11.28125 
Q 10.40625 8.6875 15.234375 7.390625 
Q 20.0625 6.109375 24.8125 6.109375 
Q 31.15625 6.109375 34.5625 8.28125 
Q 37.984375 10.453125 37.984375 14.40625 
Q 37.984375 18.0625 35.515625 20.015625 
Q 33.0625 21.96875 24.703125 23.78125 
L 21.578125 24.515625 
Q 13.234375 26.265625 9.515625 29.90625 
Q 5.8125 33.546875 5.8125 39.890625 
Q 5.8125 47.609375 11.28125 51.796875 
Q 16.75 56 26.8125 56 
Q 31.78125 56 36.171875 55.265625 
Q 40.578125 54.546875 44.28125 53.078125 
z
" id="DejaVuSans-115"/>
      <path d="M 9.421875 54.6875 
L 18.40625 54.6875 
L 18.40625 0 
L 9.421875 0 
z
M 9.421875 75.984375 
L 18.40625 75.984375 
L 18.40625 64.59375 
L 9.421875 64.59375 
z
" id="DejaVuSans-105"/>
      <path d="M 18.3125 70.21875 
L 18.3125 54.6875 
L 36.8125 54.6875 
L 36.8125 47.703125 
L 18.3125 47.703125 
L 18.3125 18.015625 
Q 18.3125 11.328125 20.140625 9.421875 
Q 21.96875 7.515625 27.59375 7.515625 
L 36.8125 7.515625 
L 36.8125 0 
L 27.59375 0 
Q 17.1875 0 13.234375 3.875 
Q 9.28125 7.765625 9.28125 18.015625 
L 9.28125 47.703125 
L 2.6875 47.703125 
L 2.6875 54.6875 
L 9.28125 54.6875 
L 9.28125 70.21875 
z
" id="DejaVuSans-116"/>
      <path d="M 54.890625 33.015625 
L 54.890625 0 
L 45.90625 0 
L 45.90625 32.71875 
Q 45.90625 40.484375 42.875 44.328125 
Q 39.84375 48.1875 33.796875 48.1875 
Q 26.515625 48.1875 22.3125 43.546875 
Q 18.109375 38.921875 18.109375 30.90625 
L 18.109375 0 
L 9.078125 0 
L 9.078125 54.6875 
L 18.109375 54.6875 
L 18.109375 46.1875 
Q 21.34375 51.125 25.703125 53.5625 
Q 30.078125 56 35.796875 56 
Q 45.21875 56 50.046875 50.171875 
Q 54.890625 44.34375 54.890625 33.015625 
z
" id="DejaVuSans-110"/>
      <path d="M 31 75.875 
Q 24.46875 64.65625 21.28125 53.65625 
Q 18.109375 42.671875 18.109375 31.390625 
Q 18.109375 20.125 21.3125 9.0625 
Q 24.515625 -2 31 -13.1875 
L 23.1875 -13.1875 
Q 15.875 -1.703125 12.234375 9.375 
Q 8.59375 20.453125 8.59375 31.390625 
Q 8.59375 42.28125 12.203125 53.3125 
Q 15.828125 64.359375 23.1875 75.875 
z
" id="DejaVuSans-40"/>
      <path d="M 52 44.1875 
Q 55.375 50.25 60.0625 53.125 
Q 64.75 56 71.09375 56 
Q 79.640625 56 84.28125 50.015625 
Q 88.921875 44.046875 88.921875 33.015625 
L 88.921875 0 
L 79.890625 0 
L 79.890625 32.71875 
Q 79.890625 40.578125 77.09375 44.375 
Q 74.3125 48.1875 68.609375 48.1875 
Q 61.625 48.1875 57.5625 43.546875 
Q 53.515625 38.921875 53.515625 30.90625 
L 53.515625 0 
L 44.484375 0 
L 44.484375 32.71875 
Q 44.484375 40.625 41.703125 44.40625 
Q 38.921875 48.1875 33.109375 48.1875 
Q 26.21875 48.1875 22.15625 43.53125 
Q 18.109375 38.875 18.109375 30.90625 
L 18.109375 0 
L 9.078125 0 
L 9.078125 54.6875 
L 18.109375 54.6875 
L 18.109375 46.1875 
Q 21.1875 51.21875 25.484375 53.609375 
Q 29.78125 56 35.6875 56 
Q 41.65625 56 45.828125 52.96875 
Q 50 49.953125 52 44.1875 
z
" id="DejaVuSans-109"/>
      <path d="M 8.015625 75.875 
L 15.828125 75.875 
Q 23.140625 64.359375 26.78125 53.3125 
Q 30.421875 42.28125 30.421875 31.390625 
Q 30.421875 20.453125 26.78125 9.375 
Q 23.140625 -1.703125 15.828125 -13.1875 
L 8.015625 -13.1875 
Q 14.5 -2 17.703125 9.0625 
Q 20.90625 20.125 20.90625 31.390625 
Q 20.90625 42.671875 17.703125 53.65625 
Q 14.5 64.65625 8.015625 75.875 
z
" id="DejaVuSans-41"/>
     </defs>
     <g transform="translate(389.630741 663.86547)scale(0.4 -0.4)">
      <use xlink:href="#DejaVuSans-88"/>
      <use x="68.505859" xlink:href="#DejaVuSans-32"/>
      <use x="100.292969" xlink:href="#DejaVuSans-80"/>
      <use x="160.548828" xlink:href="#DejaVuSans-111"/>
      <use x="221.730469" xlink:href="#DejaVuSans-115"/>
      <use x="273.830078" xlink:href="#DejaVuSans-105"/>
      <use x="301.613281" xlink:href="#DejaVuSans-116"/>
      <use x="340.822266" xlink:href="#DejaVuSans-105"/>
      <use x="368.605469" xlink:href="#DejaVuSans-111"/>
      <use x="429.787109" xlink:href="#DejaVuSans-110"/>
      <use x="493.166016" xlink:href="#DejaVuSans-32"/>
      <use x="524.953125" xlink:href="#DejaVuSans-40"/>
      <use x="563.966797" xlink:href="#DejaVuSans-109"/>
      <use x="661.378906" xlink:href="#DejaVuSans-41"/>
     </g>
    </g>
   </g>
   <g id="matplotlib.axis_2">
    <g id="ytick_1">
     <g id="line2d_5">
      <defs>
       <path d="M 0 0 
L -3.5 0 
" id="m867f87569d" style="stroke:#000000;stroke-width:0.8;"/>
      </defs>
      <g>
       <use style="stroke:#000000;stroke-width:0.8;" x="144.02" xlink:href="#m867f87569d" y="559.654057"/>
      </g>
     </g>
     <g id="text_6">
      <!-- 0 -->
      <g transform="translate(111.57 574.850932)scale(0.4 -0.4)">
       <use xlink:href="#DejaVuSans-48"/>
      </g>
     </g>
    </g>
    <g id="ytick_2">
     <g id="line2d_6">
      <g>
       <use style="stroke:#000000;stroke-width:0.8;" x="144.02" xlink:href="#m867f87569d" y="463.233403"/>
      </g>
     </g>
     <g id="text_7">
      <!-- 2 -->
      <defs>
       <path d="M 19.1875 8.296875 
L 53.609375 8.296875 
L 53.609375 0 
L 7.328125 0 
L 7.328125 8.296875 
Q 12.9375 14.109375 22.625 23.890625 
Q 32.328125 33.6875 34.8125 36.53125 
Q 39.546875 41.84375 41.421875 45.53125 
Q 43.3125 49.21875 43.3125 52.78125 
Q 43.3125 58.59375 39.234375 62.25 
Q 35.15625 65.921875 28.609375 65.921875 
Q 23.96875 65.921875 18.8125 64.3125 
Q 13.671875 62.703125 7.8125 59.421875 
L 7.8125 69.390625 
Q 13.765625 71.78125 18.9375 73 
Q 24.125 74.21875 28.421875 74.21875 
Q 39.75 74.21875 46.484375 68.546875 
Q 53.21875 62.890625 53.21875 53.421875 
Q 53.21875 48.921875 51.53125 44.890625 
Q 49.859375 40.875 45.40625 35.40625 
Q 44.1875 33.984375 37.640625 27.21875 
Q 31.109375 20.453125 19.1875 8.296875 
z
" id="DejaVuSans-50"/>
      </defs>
      <g transform="translate(111.57 478.430278)scale(0.4 -0.4)">
       <use xlink:href="#DejaVuSans-50"/>
      </g>
     </g>
    </g>
    <g id="ytick_3">
     <g id="line2d_7">
      <g>
       <use style="stroke:#000000;stroke-width:0.8;" x="144.02" xlink:href="#m867f87569d" y="366.812749"/>
      </g>
     </g>
     <g id="text_8">
      <!-- 4 -->
      <defs>
       <path d="M 37.796875 64.3125 
L 12.890625 25.390625 
L 37.796875 25.390625 
z
M 35.203125 72.90625 
L 47.609375 72.90625 
L 47.609375 25.390625 
L 58.015625 25.390625 
L 58.015625 17.1875 
L 47.609375 17.1875 
L 47.609375 0 
L 37.796875 0 
L 37.796875 17.1875 
L 4.890625 17.1875 
L 4.890625 26.703125 
z
" id="DejaVuSans-52"/>
      </defs>
      <g transform="translate(111.57 382.009624)scale(0.4 -0.4)">
       <use xlink:href="#DejaVuSans-52"/>
      </g>
     </g>
    </g>
    <g id="ytick_4">
     <g id="line2d_8">
      <g>
       <use style="stroke:#000000;stroke-width:0.8;" x="144.02" xlink:href="#m867f87569d" y="270.392095"/>
      </g>
     </g>
     <g id="text_9">
      <!-- 6 -->
      <defs>
       <path d="M 33.015625 40.375 
Q 26.375 40.375 22.484375 35.828125 
Q 18.609375 31.296875 18.609375 23.390625 
Q 18.609375 15.53125 22.484375 10.953125 
Q 26.375 6.390625 33.015625 6.390625 
Q 39.65625 6.390625 43.53125 10.953125 
Q 47.40625 15.53125 47.40625 23.390625 
Q 47.40625 31.296875 43.53125 35.828125 
Q 39.65625 40.375 33.015625 40.375 
z
M 52.59375 71.296875 
L 52.59375 62.3125 
Q 48.875 64.0625 45.09375 64.984375 
Q 41.3125 65.921875 37.59375 65.921875 
Q 27.828125 65.921875 22.671875 59.328125 
Q 17.53125 52.734375 16.796875 39.40625 
Q 19.671875 43.65625 24.015625 45.921875 
Q 28.375 48.1875 33.59375 48.1875 
Q 44.578125 48.1875 50.953125 41.515625 
Q 57.328125 34.859375 57.328125 23.390625 
Q 57.328125 12.15625 50.6875 5.359375 
Q 44.046875 -1.421875 33.015625 -1.421875 
Q 20.359375 -1.421875 13.671875 8.265625 
Q 6.984375 17.96875 6.984375 36.375 
Q 6.984375 53.65625 15.1875 63.9375 
Q 23.390625 74.21875 37.203125 74.21875 
Q 40.921875 74.21875 44.703125 73.484375 
Q 48.484375 72.75 52.59375 71.296875 
z
" id="DejaVuSans-54"/>
      </defs>
      <g transform="translate(111.57 285.58897)scale(0.4 -0.4)">
       <use xlink:href="#DejaVuSans-54"/>
      </g>
     </g>
    </g>
    <g id="ytick_5">
     <g id="line2d_9">
      <g>
       <use style="stroke:#000000;stroke-width:0.8;" x="144.02" xlink:href="#m867f87569d" y="173.971441"/>
      </g>
     </g>
     <g id="text_10">
      <!-- 8 -->
      <defs>
       <path d="M 31.78125 34.625 
Q 24.75 34.625 20.71875 30.859375 
Q 16.703125 27.09375 16.703125 20.515625 
Q 16.703125 13.921875 20.71875 10.15625 
Q 24.75 6.390625 31.78125 6.390625 
Q 38.8125 6.390625 42.859375 10.171875 
Q 46.921875 13.96875 46.921875 20.515625 
Q 46.921875 27.09375 42.890625 30.859375 
Q 38.875 34.625 31.78125 34.625 
z
M 21.921875 38.8125 
Q 15.578125 40.375 12.03125 44.71875 
Q 8.5 49.078125 8.5 55.328125 
Q 8.5 64.0625 14.71875 69.140625 
Q 20.953125 74.21875 31.78125 74.21875 
Q 42.671875 74.21875 48.875 69.140625 
Q 55.078125 64.0625 55.078125 55.328125 
Q 55.078125 49.078125 51.53125 44.71875 
Q 48 40.375 41.703125 38.8125 
Q 48.828125 37.15625 52.796875 32.3125 
Q 56.78125 27.484375 56.78125 20.515625 
Q 56.78125 9.90625 50.3125 4.234375 
Q 43.84375 -1.421875 31.78125 -1.421875 
Q 19.734375 -1.421875 13.25 4.234375 
Q 6.78125 9.90625 6.78125 20.515625 
Q 6.78125 27.484375 10.78125 32.3125 
Q 14.796875 37.15625 21.921875 38.8125 
z
M 18.3125 54.390625 
Q 18.3125 48.734375 21.84375 45.5625 
Q 25.390625 42.390625 31.78125 42.390625 
Q 38.140625 42.390625 41.71875 45.5625 
Q 45.3125 48.734375 45.3125 54.390625 
Q 45.3125 60.0625 41.71875 63.234375 
Q 38.140625 66.40625 31.78125 66.40625 
Q 25.390625 66.40625 21.84375 63.234375 
Q 18.3125 60.0625 18.3125 54.390625 
z
" id="DejaVuSans-56"/>
      </defs>
      <g transform="translate(111.57 189.168316)scale(0.4 -0.4)">
       <use xlink:href="#DejaVuSans-56"/>
      </g>
     </g>
    </g>
    <g id="ytick_6">
     <g id="line2d_10">
      <g>
       <use style="stroke:#000000;stroke-width:0.8;" x="144.02" xlink:href="#m867f87569d" y="77.550787"/>
      </g>
     </g>
     <g id="text_11">
      <!-- 10 -->
      <g transform="translate(86.12 92.747662)scale(0.4 -0.4)">
       <use xlink:href="#DejaVuSans-49"/>
       <use x="63.623047" xlink:href="#DejaVuSans-48"/>
      </g>
     </g>
    </g>
    <g id="text_12">
     <!-- Y Position (m) -->
     <defs>
      <path d="M -0.203125 72.90625 
L 10.40625 72.90625 
L 30.609375 42.921875 
L 50.6875 72.90625 
L 61.28125 72.90625 
L 35.5 34.71875 
L 35.5 0 
L 25.59375 0 
L 25.59375 34.71875 
z
" id="DejaVuSans-89"/>
     </defs>
     <g transform="translate(73.80125 457.189922)rotate(-90)scale(0.4 -0.4)">
      <use xlink:href="#DejaVuSans-89"/>
      <use x="61.083984" xlink:href="#DejaVuSans-32"/>
      <use x="92.871094" xlink:href="#DejaVuSans-80"/>
      <use x="153.126953" xlink:href="#DejaVuSans-111"/>
      <use x="214.308594" xlink:href="#DejaVuSans-115"/>
      <use x="266.408203" xlink:href="#DejaVuSans-105"/>
      <use x="294.191406" xlink:href="#DejaVuSans-116"/>
      <use x="333.400391" xlink:href="#DejaVuSans-105"/>
      <use x="361.183594" xlink:href="#DejaVuSans-111"/>
      <use x="422.365234" xlink:href="#DejaVuSans-110"/>
      <use x="485.744141" xlink:href="#DejaVuSans-32"/>
      <use x="517.53125" xlink:href="#DejaVuSans-40"/>
      <use x="556.544922" xlink:href="#DejaVuSans-109"/>
      <use x="653.957031" xlink:href="#DejaVuSans-41"/>
     </g>
    </g>
   </g>
   <g id="line2d_11">
    <path clip-path="url(#pbe4dd5f69c)" d="M 312.756144 559.654057 
L 312.88113 556.210499 
L 313.241518 552.927895 
L 313.817004 549.803243 
L 314.589114 546.831211 
L 315.540915 544.004462 
L 316.807052 540.986719 
L 318.260202 538.126373 
L 319.881115 535.406595 
L 321.856876 532.527261 
L 324.21551 529.502736 
L 326.97594 526.331939 
L 330.646426 522.485267 
L 336.599896 516.636596 
L 343.272088 510.014376 
L 347.259737 505.75667 
L 350.65082 501.825948 
L 353.695693 497.962478 
L 356.392453 494.198444 
L 358.980434 490.202778 
L 361.443441 485.960172 
L 363.562012 481.87845 
L 365.556148 477.57502 
L 367.41801 473.044481 
L 369.141282 468.283298 
L 370.721229 463.289747 
L 372.154729 458.063856 
L 373.560716 452.049115 
L 374.788081 445.75987 
L 375.839561 439.202868 
L 376.792089 431.754835 
L 377.551149 424.012815 
L 378.170117 415.313232 
L 378.622953 405.608316 
L 378.895651 394.861118 
L 378.99183 382.301348 
L 378.88234 364.791965 
L 378.56153 325.559573 
L 378.708117 312.14278 
L 379.050839 300.382518 
L 379.597573 289.523705 
L 380.269796 280.34052 
L 381.152589 271.300219 
L 382.163045 263.160493 
L 383.379079 255.180696 
L 384.671962 248.0798 
L 386.150045 241.137698 
L 387.818267 234.365677 
L 389.679989 227.774025 
L 391.736948 221.371961 
L 393.755249 215.778898 
L 395.930708 210.351001 
L 398.261161 205.092477 
L 400.743364 200.006659 
L 403.373016 195.095964 
L 406.144779 190.361866 
L 409.052308 185.804858 
L 412.088293 181.424428 
L 415.60222 176.762469 
L 419.251986 172.312934 
L 423.023796 168.07055 
L 426.902722 164.028396 
L 431.274194 159.803009 
L 435.733476 155.795774 
L 440.670534 151.654077 
L 446.068235 147.410603 
L 452.306622 142.784284 
L 460.938687 136.682418 
L 474.236117 127.288211 
L 479.670948 123.146961 
L 483.767052 119.761745 
L 487.296358 116.567439 
L 490.297364 113.564154 
L 493.082944 110.446795 
L 495.391672 107.529865 
L 497.499693 104.496851 
L 499.194942 101.696874 
L 500.712935 98.794972 
L 502.04463 95.789202 
L 503.180699 92.679828 
L 504.111418 89.469624 
L 504.82654 86.164206 
L 505.315156 82.772381 
L 505.565534 79.306528 
L 505.597452 77.550787 
L 505.597452 77.550787 
" style="fill:none;stroke:#1f77b4;stroke-linecap:square;stroke-width:4;"/>
   </g>
   <g id="line2d_12">
    <path clip-path="url(#pbe4dd5f69c)" d="M 312.756144 559.654057 
L 312.864585 556.461698 
L 313.171153 553.488347 
L 313.717345 550.402188 
L 314.459574 547.507569 
L 315.383777 544.7703 
L 316.599874 541.904742 
L 318.01756 539.156122 
L 319.631461 536.490946 
L 321.610138 533.642039 
L 324.001921 530.581595 
L 327.065481 527.024746 
L 331.607955 522.126616 
L 342.962177 510.020349 
L 347.34124 504.940348 
L 350.910053 500.475237 
L 354.172319 496.057733 
L 357.369331 491.33575 
L 360.215169 486.725402 
L 362.956113 481.834586 
L 365.339071 477.138213 
L 367.603743 472.199215 
L 369.737808 467.015224 
L 371.73094 461.585709 
L 373.574932 455.911997 
L 375.263796 449.997257 
L 376.793815 443.846488 
L 378.163571 437.466469 
L 379.486306 430.193872 
L 380.620519 422.66785 
L 381.573672 414.90432 
L 382.419356 406.185382 
L 383.126706 396.475404 
L 383.675768 385.751611 
L 384.082344 373.2185 
L 384.356032 357.250528 
L 385.013239 308.081986 
L 385.5038 295.466746 
L 386.149965 284.644095 
L 386.96838 274.81701 
L 387.936003 265.965982 
L 389.01914 258.059215 
L 390.303048 250.367034 
L 391.653253 243.57242 
L 393.184093 236.976168 
L 394.899975 230.585918 
L 396.803612 224.407713 
L 398.678289 219.032308 
L 400.705458 213.834325 
L 402.883597 208.814733 
L 405.210114 203.973396 
L 407.681374 199.309076 
L 410.292731 194.819438 
L 413.03857 190.501062 
L 416.239238 185.898235 
L 419.587572 181.493611 
L 423.072046 177.277981 
L 426.679942 173.240658 
L 430.774651 168.99107 
L 435.369495 164.563362 
L 440.466618 159.982736 
L 446.052769 155.261102 
L 453.304494 149.436863 
L 472.952622 133.844933 
L 478.0718 129.404977 
L 482.242743 125.50546 
L 485.856884 121.832731 
L 488.944408 118.399192 
L 491.821952 114.866942 
L 494.215701 111.599718 
L 496.409345 108.248604 
L 498.389935 104.816761 
L 500.145699 101.311303 
L 501.666374 97.743909 
L 502.943602 94.131509 
L 503.971394 90.497043 
L 504.746683 86.870295 
L 505.269965 83.288834 
L 505.546046 79.799033 
L 505.597452 77.550787 
L 505.597452 77.550787 
" style="fill:none;stroke:#ff7f0e;stroke-linecap:square;stroke-width:4;"/>
   </g>
   <g id="line2d_13">
    <path clip-path="url(#pbe4dd5f69c)" d="M 312.756144 559.654057 
L 312.872093 556.356251 
L 313.199106 553.294861 
L 313.713894 550.425839 
L 314.479447 547.44743 
L 315.44268 544.61358 
L 316.597533 541.887208 
L 318.072358 538.997175 
L 319.768903 536.157893 
L 321.852835 533.098617 
L 324.564906 529.537003 
L 328.225834 525.136072 
L 335.653654 516.671543 
L 341.5022 509.829287 
L 345.695574 504.583043 
L 349.379205 499.614576 
L 352.764154 494.654897 
L 355.822494 489.760707 
L 358.543768 484.99469 
L 361.164457 479.951661 
L 363.665402 474.62479 
L 365.820964 469.532138 
L 367.853104 464.199789 
L 369.753204 458.628049 
L 371.51474 452.819013 
L 373.287247 446.159684 
L 374.884115 439.225607 
L 376.3058 432.026953 
L 377.555898 424.576335 
L 378.731804 416.178624 
L 379.723919 407.521185 
L 380.610203 397.878407 
L 381.421483 386.45627 
L 382.122136 373.199669 
L 382.801557 355.698491 
L 384.248852 316.334528 
L 385.009779 302.882919 
L 385.895964 291.225361 
L 386.865714 281.330149 
L 387.952474 272.3996 
L 389.242797 263.690208 
L 390.618288 255.920039 
L 392.188681 248.369626 
L 393.792209 241.707212 
L 395.567805 235.245158 
L 397.518245 228.989889 
L 399.644717 222.946168 
L 401.946826 217.117056 
L 404.422622 211.5039 
L 407.06863 206.106325 
L 409.8799 200.922238 
L 412.850051 195.947851 
L 415.971343 191.177707 
L 419.234731 186.60473 
L 422.629944 182.220276 
L 426.503259 177.602975 
L 430.505505 173.186021 
L 434.997216 168.57555 
L 439.982351 163.797613 
L 445.450617 158.86556 
L 452.560118 152.776581 
L 474.124489 134.562705 
L 479.101844 129.931262 
L 483.149263 125.871278 
L 486.649718 122.058608 
L 489.634404 118.50727 
L 492.41048 114.869603 
L 494.958969 111.144647 
L 497.043292 107.720464 
L 498.917007 104.234837 
L 500.569683 100.698196 
L 501.992692 97.125598 
L 503.179669 93.537358 
L 504.127055 89.959747 
L 504.83474 86.425752 
L 505.306801 82.975931 
L 505.552365 79.659336 
L 505.597452 77.550787 
L 505.597452 77.550787 
" style="fill:none;stroke:#2ca02c;stroke-linecap:square;stroke-width:4;"/>
   </g>
   <g id="line2d_14">
    <path clip-path="url(#pbe4dd5f69c)" d="M 312.756144 559.654057 
L 312.87227 556.346849 
L 313.204173 553.231031 
L 313.735133 550.261887 
L 314.456426 547.402731 
L 315.456244 544.373157 
L 316.677454 541.403989 
L 318.120374 538.465266 
L 319.933033 535.284203 
L 322.170748 531.82436 
L 325.076481 527.776071 
L 328.970637 522.757445 
L 342.740835 505.318126 
L 346.626294 499.890064 
L 349.990568 494.831762 
L 353.057955 489.847128 
L 356.05872 484.541381 
L 358.727691 479.382925 
L 361.29896 473.933 
L 363.755885 468.184946 
L 366.084378 462.1347 
L 368.273152 455.780908 
L 370.313897 449.125001 
L 372.201405 442.171227 
L 373.933634 434.926653 
L 375.511709 427.401121 
L 377.062506 418.885825 
L 378.444559 410.070921 
L 379.767263 400.210343 
L 381.013807 389.267265 
L 382.255048 376.408752 
L 383.682608 359.087422 
L 387.237928 314.354012 
L 388.581583 300.920368 
L 389.955026 289.315761 
L 391.431749 278.715035 
L 392.991649 269.115418 
L 394.603898 260.498364 
L 396.402712 252.077437 
L 398.397209 243.871402 
L 400.385583 236.611842 
L 402.543644 229.55442 
L 404.872068 222.708313 
L 407.369493 216.081029 
L 410.032524 209.678377 
L 412.855765 203.504462 
L 415.831874 197.561694 
L 418.951642 191.850819 
L 422.204093 186.370955 
L 425.576613 181.119653 
L 429.055095 176.092972 
L 432.985349 170.816638 
L 437.002976 165.79666 
L 441.457854 160.600113 
L 446.332759 155.281923 
L 451.592789 149.891368 
L 457.551394 144.1194 
L 464.808086 137.415016 
L 482.621699 121.123001 
L 486.982318 116.766177 
L 490.671872 112.764534 
L 493.543777 109.335175 
L 496.106706 105.92088 
L 498.196509 102.766527 
L 500.022343 99.595275 
L 501.466383 96.661807 
L 502.693443 93.69205 
L 503.705899 90.674836 
L 504.505028 87.598 
L 505.089994 84.447836 
L 505.456691 81.208474 
L 505.596452 77.861179 
L 505.597452 77.550787 
L 505.597452 77.550787 
" style="fill:none;stroke:#d62728;stroke-linecap:square;stroke-width:4;"/>
   </g>
   <g id="patch_5">
    <path d="M 144.02 583.75922 
L 144.02 53.445623 
" style="fill:none;stroke:#000000;stroke-linecap:square;stroke-linejoin:miter;stroke-width:0.8;"/>
   </g>
   <g id="patch_6">
    <path d="M 915.385232 583.75922 
L 915.385232 53.445623 
" style="fill:none;stroke:#000000;stroke-linecap:square;stroke-linejoin:miter;stroke-width:0.8;"/>
   </g>
   <g id="patch_7">
    <path d="M 144.02 583.75922 
L 915.385232 583.75922 
" style="fill:none;stroke:#000000;stroke-linecap:square;stroke-linejoin:miter;stroke-width:0.8;"/>
   </g>
   <g id="patch_8">
    <path d="M 144.02 53.445623 
L 915.385232 53.445623 
" style="fill:none;stroke:#000000;stroke-linecap:square;stroke-linejoin:miter;stroke-width:0.8;"/>
   </g>
   <g id="legend_1">
    <g id="patch_9">
     <path d="M 433.666482 563.75922 
L 887.385232 563.75922 
Q 895.385232 563.75922 895.385232 555.75922 
L 895.385232 324.90922 
Q 895.385232 316.90922 887.385232 316.90922 
L 433.666482 316.90922 
Q 425.666482 316.90922 425.666482 324.90922 
L 425.666482 555.75922 
Q 425.666482 563.75922 433.666482 563.75922 
z
" style="fill:#ffffff;opacity:0.8;stroke:#cccccc;stroke-linejoin:miter;"/>
    </g>
    <g id="line2d_15">
     <path d="M 441.666482 349.30297 
L 521.666482 349.30297 
" style="fill:none;stroke:#1f77b4;stroke-linecap:square;stroke-width:4;"/>
    </g>
    <g id="line2d_16"/>
    <g id="text_13">
     <!-- No Elevation -->
     <defs>
      <path d="M 9.8125 72.90625 
L 23.09375 72.90625 
L 55.421875 11.921875 
L 55.421875 72.90625 
L 64.984375 72.90625 
L 64.984375 0 
L 51.703125 0 
L 19.390625 60.984375 
L 19.390625 0 
L 9.8125 0 
z
" id="DejaVuSans-78"/>
      <path d="M 9.8125 72.90625 
L 55.90625 72.90625 
L 55.90625 64.59375 
L 19.671875 64.59375 
L 19.671875 43.015625 
L 54.390625 43.015625 
L 54.390625 34.71875 
L 19.671875 34.71875 
L 19.671875 8.296875 
L 56.78125 8.296875 
L 56.78125 0 
L 9.8125 0 
z
" id="DejaVuSans-69"/>
      <path d="M 9.421875 75.984375 
L 18.40625 75.984375 
L 18.40625 0 
L 9.421875 0 
z
" id="DejaVuSans-108"/>
      <path d="M 56.203125 29.59375 
L 56.203125 25.203125 
L 14.890625 25.203125 
Q 15.484375 15.921875 20.484375 11.0625 
Q 25.484375 6.203125 34.421875 6.203125 
Q 39.59375 6.203125 44.453125 7.46875 
Q 49.3125 8.734375 54.109375 11.28125 
L 54.109375 2.78125 
Q 49.265625 0.734375 44.1875 -0.34375 
Q 39.109375 -1.421875 33.890625 -1.421875 
Q 20.796875 -1.421875 13.15625 6.1875 
Q 5.515625 13.8125 5.515625 26.8125 
Q 5.515625 40.234375 12.765625 48.109375 
Q 20.015625 56 32.328125 56 
Q 43.359375 56 49.78125 48.890625 
Q 56.203125 41.796875 56.203125 29.59375 
z
M 47.21875 32.234375 
Q 47.125 39.59375 43.09375 43.984375 
Q 39.0625 48.390625 32.421875 48.390625 
Q 24.90625 48.390625 20.390625 44.140625 
Q 15.875 39.890625 15.1875 32.171875 
z
" id="DejaVuSans-101"/>
      <path d="M 2.984375 54.6875 
L 12.5 54.6875 
L 29.59375 8.796875 
L 46.6875 54.6875 
L 56.203125 54.6875 
L 35.6875 0 
L 23.484375 0 
z
" id="DejaVuSans-118"/>
      <path d="M 34.28125 27.484375 
Q 23.390625 27.484375 19.1875 25 
Q 14.984375 22.515625 14.984375 16.5 
Q 14.984375 11.71875 18.140625 8.90625 
Q 21.296875 6.109375 26.703125 6.109375 
Q 34.1875 6.109375 38.703125 11.40625 
Q 43.21875 16.703125 43.21875 25.484375 
L 43.21875 27.484375 
z
M 52.203125 31.203125 
L 52.203125 0 
L 43.21875 0 
L 43.21875 8.296875 
Q 40.140625 3.328125 35.546875 0.953125 
Q 30.953125 -1.421875 24.3125 -1.421875 
Q 15.921875 -1.421875 10.953125 3.296875 
Q 6 8.015625 6 15.921875 
Q 6 25.140625 12.171875 29.828125 
Q 18.359375 34.515625 30.609375 34.515625 
L 43.21875 34.515625 
L 43.21875 35.40625 
Q 43.21875 41.609375 39.140625 45 
Q 35.0625 48.390625 27.6875 48.390625 
Q 23 48.390625 18.546875 47.265625 
Q 14.109375 46.140625 10.015625 43.890625 
L 10.015625 52.203125 
Q 14.9375 54.109375 19.578125 55.046875 
Q 24.21875 56 28.609375 56 
Q 40.484375 56 46.34375 49.84375 
Q 52.203125 43.703125 52.203125 31.203125 
z
" id="DejaVuSans-97"/>
     </defs>
     <g transform="translate(553.666482 363.30297)scale(0.4 -0.4)">
      <use xlink:href="#DejaVuSans-78"/>
      <use x="74.804688" xlink:href="#DejaVuSans-111"/>
      <use x="135.986328" xlink:href="#DejaVuSans-32"/>
      <use x="167.773438" xlink:href="#DejaVuSans-69"/>
      <use x="230.957031" xlink:href="#DejaVuSans-108"/>
      <use x="258.740234" xlink:href="#DejaVuSans-101"/>
      <use x="320.263672" xlink:href="#DejaVuSans-118"/>
      <use x="379.443359" xlink:href="#DejaVuSans-97"/>
      <use x="440.722656" xlink:href="#DejaVuSans-116"/>
      <use x="479.931641" xlink:href="#DejaVuSans-105"/>
      <use x="507.714844" xlink:href="#DejaVuSans-111"/>
      <use x="568.896484" xlink:href="#DejaVuSans-110"/>
     </g>
    </g>
    <g id="line2d_17">
     <path d="M 441.666482 408.01547 
L 521.666482 408.01547 
" style="fill:none;stroke:#ff7f0e;stroke-linecap:square;stroke-width:4;"/>
    </g>
    <g id="line2d_18"/>
    <g id="text_14">
     <!-- Elevated by 30 -->
     <defs>
      <path d="M 45.40625 46.390625 
L 45.40625 75.984375 
L 54.390625 75.984375 
L 54.390625 0 
L 45.40625 0 
L 45.40625 8.203125 
Q 42.578125 3.328125 38.25 0.953125 
Q 33.9375 -1.421875 27.875 -1.421875 
Q 17.96875 -1.421875 11.734375 6.484375 
Q 5.515625 14.40625 5.515625 27.296875 
Q 5.515625 40.1875 11.734375 48.09375 
Q 17.96875 56 27.875 56 
Q 33.9375 56 38.25 53.625 
Q 42.578125 51.265625 45.40625 46.390625 
z
M 14.796875 27.296875 
Q 14.796875 17.390625 18.875 11.75 
Q 22.953125 6.109375 30.078125 6.109375 
Q 37.203125 6.109375 41.296875 11.75 
Q 45.40625 17.390625 45.40625 27.296875 
Q 45.40625 37.203125 41.296875 42.84375 
Q 37.203125 48.484375 30.078125 48.484375 
Q 22.953125 48.484375 18.875 42.84375 
Q 14.796875 37.203125 14.796875 27.296875 
z
" id="DejaVuSans-100"/>
      <path d="M 48.6875 27.296875 
Q 48.6875 37.203125 44.609375 42.84375 
Q 40.53125 48.484375 33.40625 48.484375 
Q 26.265625 48.484375 22.1875 42.84375 
Q 18.109375 37.203125 18.109375 27.296875 
Q 18.109375 17.390625 22.1875 11.75 
Q 26.265625 6.109375 33.40625 6.109375 
Q 40.53125 6.109375 44.609375 11.75 
Q 48.6875 17.390625 48.6875 27.296875 
z
M 18.109375 46.390625 
Q 20.953125 51.265625 25.265625 53.625 
Q 29.59375 56 35.59375 56 
Q 45.5625 56 51.78125 48.09375 
Q 58.015625 40.1875 58.015625 27.296875 
Q 58.015625 14.40625 51.78125 6.484375 
Q 45.5625 -1.421875 35.59375 -1.421875 
Q 29.59375 -1.421875 25.265625 0.953125 
Q 20.953125 3.328125 18.109375 8.203125 
L 18.109375 0 
L 9.078125 0 
L 9.078125 75.984375 
L 18.109375 75.984375 
z
" id="DejaVuSans-98"/>
      <path d="M 32.171875 -5.078125 
Q 28.375 -14.84375 24.75 -17.8125 
Q 21.140625 -20.796875 15.09375 -20.796875 
L 7.90625 -20.796875 
L 7.90625 -13.28125 
L 13.1875 -13.28125 
Q 16.890625 -13.28125 18.9375 -11.515625 
Q 21 -9.765625 23.484375 -3.21875 
L 25.09375 0.875 
L 2.984375 54.6875 
L 12.5 54.6875 
L 29.59375 11.921875 
L 46.6875 54.6875 
L 56.203125 54.6875 
z
" id="DejaVuSans-121"/>
      <path d="M 40.578125 39.3125 
Q 47.65625 37.796875 51.625 33 
Q 55.609375 28.21875 55.609375 21.1875 
Q 55.609375 10.40625 48.1875 4.484375 
Q 40.765625 -1.421875 27.09375 -1.421875 
Q 22.515625 -1.421875 17.65625 -0.515625 
Q 12.796875 0.390625 7.625 2.203125 
L 7.625 11.71875 
Q 11.71875 9.328125 16.59375 8.109375 
Q 21.484375 6.890625 26.8125 6.890625 
Q 36.078125 6.890625 40.9375 10.546875 
Q 45.796875 14.203125 45.796875 21.1875 
Q 45.796875 27.640625 41.28125 31.265625 
Q 36.765625 34.90625 28.71875 34.90625 
L 20.21875 34.90625 
L 20.21875 43.015625 
L 29.109375 43.015625 
Q 36.375 43.015625 40.234375 45.921875 
Q 44.09375 48.828125 44.09375 54.296875 
Q 44.09375 59.90625 40.109375 62.90625 
Q 36.140625 65.921875 28.71875 65.921875 
Q 24.65625 65.921875 20.015625 65.03125 
Q 15.375 64.15625 9.8125 62.3125 
L 9.8125 71.09375 
Q 15.4375 72.65625 20.34375 73.4375 
Q 25.25 74.21875 29.59375 74.21875 
Q 40.828125 74.21875 47.359375 69.109375 
Q 53.90625 64.015625 53.90625 55.328125 
Q 53.90625 49.265625 50.4375 45.09375 
Q 46.96875 40.921875 40.578125 39.3125 
z
" id="DejaVuSans-51"/>
     </defs>
     <g transform="translate(553.666482 422.01547)scale(0.4 -0.4)">
      <use xlink:href="#DejaVuSans-69"/>
      <use x="63.183594" xlink:href="#DejaVuSans-108"/>
      <use x="90.966797" xlink:href="#DejaVuSans-101"/>
      <use x="152.490234" xlink:href="#DejaVuSans-118"/>
      <use x="211.669922" xlink:href="#DejaVuSans-97"/>
      <use x="272.949219" xlink:href="#DejaVuSans-116"/>
      <use x="312.158203" xlink:href="#DejaVuSans-101"/>
      <use x="373.681641" xlink:href="#DejaVuSans-100"/>
      <use x="437.158203" xlink:href="#DejaVuSans-32"/>
      <use x="468.945312" xlink:href="#DejaVuSans-98"/>
      <use x="532.421875" xlink:href="#DejaVuSans-121"/>
      <use x="591.601562" xlink:href="#DejaVuSans-32"/>
      <use x="623.388672" xlink:href="#DejaVuSans-51"/>
      <use x="687.011719" xlink:href="#DejaVuSans-48"/>
     </g>
    </g>
    <g id="line2d_19">
     <path d="M 441.666482 466.72797 
L 521.666482 466.72797 
" style="fill:none;stroke:#2ca02c;stroke-linecap:square;stroke-width:4;"/>
    </g>
    <g id="line2d_20"/>
    <g id="text_15">
     <!-- Elevated by 100 -->
     <g transform="translate(553.666482 480.72797)scale(0.4 -0.4)">
      <use xlink:href="#DejaVuSans-69"/>
      <use x="63.183594" xlink:href="#DejaVuSans-108"/>
      <use x="90.966797" xlink:href="#DejaVuSans-101"/>
      <use x="152.490234" xlink:href="#DejaVuSans-118"/>
      <use x="211.669922" xlink:href="#DejaVuSans-97"/>
      <use x="272.949219" xlink:href="#DejaVuSans-116"/>
      <use x="312.158203" xlink:href="#DejaVuSans-101"/>
      <use x="373.681641" xlink:href="#DejaVuSans-100"/>
      <use x="437.158203" xlink:href="#DejaVuSans-32"/>
      <use x="468.945312" xlink:href="#DejaVuSans-98"/>
      <use x="532.421875" xlink:href="#DejaVuSans-121"/>
      <use x="591.601562" xlink:href="#DejaVuSans-32"/>
      <use x="623.388672" xlink:href="#DejaVuSans-49"/>
      <use x="687.011719" xlink:href="#DejaVuSans-48"/>
      <use x="750.634766" xlink:href="#DejaVuSans-48"/>
     </g>
    </g>
    <g id="line2d_21">
     <path d="M 441.666482 525.44047 
L 521.666482 525.44047 
" style="fill:none;stroke:#d62728;stroke-linecap:square;stroke-width:4;"/>
    </g>
    <g id="line2d_22"/>
    <g id="text_16">
     <!-- Exact Extrema -->
     <defs>
      <path d="M 54.890625 54.6875 
L 35.109375 28.078125 
L 55.90625 0 
L 45.3125 0 
L 29.390625 21.484375 
L 13.484375 0 
L 2.875 0 
L 24.125 28.609375 
L 4.6875 54.6875 
L 15.28125 54.6875 
L 29.78125 35.203125 
L 44.28125 54.6875 
z
" id="DejaVuSans-120"/>
      <path d="M 48.78125 52.59375 
L 48.78125 44.1875 
Q 44.96875 46.296875 41.140625 47.34375 
Q 37.3125 48.390625 33.40625 48.390625 
Q 24.65625 48.390625 19.8125 42.84375 
Q 14.984375 37.3125 14.984375 27.296875 
Q 14.984375 17.28125 19.8125 11.734375 
Q 24.65625 6.203125 33.40625 6.203125 
Q 37.3125 6.203125 41.140625 7.25 
Q 44.96875 8.296875 48.78125 10.40625 
L 48.78125 2.09375 
Q 45.015625 0.34375 40.984375 -0.53125 
Q 36.96875 -1.421875 32.421875 -1.421875 
Q 20.0625 -1.421875 12.78125 6.34375 
Q 5.515625 14.109375 5.515625 27.296875 
Q 5.515625 40.671875 12.859375 48.328125 
Q 20.21875 56 33.015625 56 
Q 37.15625 56 41.109375 55.140625 
Q 45.0625 54.296875 48.78125 52.59375 
z
" id="DejaVuSans-99"/>
      <path d="M 41.109375 46.296875 
Q 39.59375 47.171875 37.8125 47.578125 
Q 36.03125 48 33.890625 48 
Q 26.265625 48 22.1875 43.046875 
Q 18.109375 38.09375 18.109375 28.8125 
L 18.109375 0 
L 9.078125 0 
L 9.078125 54.6875 
L 18.109375 54.6875 
L 18.109375 46.1875 
Q 20.953125 51.171875 25.484375 53.578125 
Q 30.03125 56 36.53125 56 
Q 37.453125 56 38.578125 55.875 
Q 39.703125 55.765625 41.0625 55.515625 
z
" id="DejaVuSans-114"/>
     </defs>
     <g transform="translate(553.666482 539.44047)scale(0.4 -0.4)">
      <use xlink:href="#DejaVuSans-69"/>
      <use x="63.183594" xlink:href="#DejaVuSans-120"/>
      <use x="122.363281" xlink:href="#DejaVuSans-97"/>
      <use x="183.642578" xlink:href="#DejaVuSans-99"/>
      <use x="238.623047" xlink:href="#DejaVuSans-116"/>
      <use x="277.832031" xlink:href="#DejaVuSans-32"/>
      <use x="309.619141" xlink:href="#DejaVuSans-69"/>
      <use x="372.802734" xlink:href="#DejaVuSans-120"/>
      <use x="431.982422" xlink:href="#DejaVuSans-116"/>
      <use x="471.191406" xlink:href="#DejaVuSans-114"/>
      <use x="512.273438" xlink:href="#DejaVuSans-101"/>
      <use x="573.796875" xlink:href="#DejaVuSans-109"/>
      <use x="671.208984" xlink:href="#DejaVuSans-97"/>
     </g>
    </g>
   </g>
  </g>
 </g>
 <defs>
  <clipPath id="pbe4dd5f69c">
   <rect height="530.313597" width="771.365232" x="144.02" y="53.445623"/>
  </clipPath>
 </defs>
</svg>
