<?xml version="1.0" encoding="utf-8" standalone="no"?>
<!DOCTYPE svg PUBLIC "-//W3C//DTD SVG 1.1//EN"
  "http://www.w3.org/Graphics/SVG/1.1/DTD/svg11.dtd">
<svg height="720pt" version="1.1" viewBox="0 0 959.76 720" width="959.76pt" xmlns="http://www.w3.org/2000/svg" xmlns:xlink="http://www.w3.org/1999/xlink">
 <metadata>
  <rdf:RDF xmlns:cc="http://creativecommons.org/ns#" xmlns:dc="http://purl.org/dc/elements/1.1/" xmlns:rdf="http://www.w3.org/1999/02/22-rdf-syntax-ns#">
   <cc:Work>
    <dc:type rdf:resource="http://purl.org/dc/dcmitype/StillImage"/>
    <dc:date>2021-10-18T16:13:51.188908</dc:date>
    <dc:format>image/svg+xml</dc:format>
    <dc:creator>
     <cc:Agent>
      <dc:title>Matplotlib v3.4.2, https://matplotlib.org/</dc:title>
     </cc:Agent>
    </dc:creator>
   </cc:Work>
  </rdf:RDF>
 </metadata>
 <defs>
  <style type="text/css">*{stroke-linecap:butt;stroke-linejoin:round;}</style>
 </defs>
 <g id="figure_1">
  <g id="patch_1">
   <path d="M 0 720 
L 959.76 720 
L 959.76 0 
L 0 0 
z
" style="fill:#ffffff;"/>
  </g>
  <g id="axes_1">
   <g id="patch_2">
    <path d="M 116.36225 619.72 
L 925.2 619.72 
L 925.2 34.56 
L 116.36225 34.56 
z
" style="fill:#ffffff;"/>
   </g>
   <g id="matplotlib.axis_1">
    <g id="xtick_1">
     <g id="line2d_1">
      <defs>
       <path d="M 0 0 
L 0 3.5 
" id="m5fa4900bbd" style="stroke:#000000;stroke-width:0.8;"/>
      </defs>
      <g>
       <use style="stroke:#000000;stroke-width:0.8;" x="183.765396" xlink:href="#m5fa4900bbd" y="619.72"/>
      </g>
     </g>
     <g id="text_1">
      <!-- 0 -->
      <g transform="translate(176.130396 644.95625)scale(0.24 -0.24)">
       <defs>
        <path d="M 2034 4250 
Q 1547 4250 1301 3770 
Q 1056 3291 1056 2328 
Q 1056 1369 1301 889 
Q 1547 409 2034 409 
Q 2525 409 2770 889 
Q 3016 1369 3016 2328 
Q 3016 3291 2770 3770 
Q 2525 4250 2034 4250 
z
M 2034 4750 
Q 2819 4750 3233 4129 
Q 3647 3509 3647 2328 
Q 3647 1150 3233 529 
Q 2819 -91 2034 -91 
Q 1250 -91 836 529 
Q 422 1150 422 2328 
Q 422 3509 836 4129 
Q 1250 4750 2034 4750 
z
" id="DejaVuSans-30" transform="scale(0.015625)"/>
       </defs>
       <use xlink:href="#DejaVuSans-30"/>
      </g>
     </g>
    </g>
    <g id="xtick_2">
     <g id="line2d_2">
      <g>
       <use style="stroke:#000000;stroke-width:0.8;" x="318.571687" xlink:href="#m5fa4900bbd" y="619.72"/>
      </g>
     </g>
     <g id="text_2">
      <!-- 2 -->
      <g transform="translate(310.936688 644.95625)scale(0.24 -0.24)">
       <defs>
        <path d="M 1228 531 
L 3431 531 
L 3431 0 
L 469 0 
L 469 531 
Q 828 903 1448 1529 
Q 2069 2156 2228 2338 
Q 2531 2678 2651 2914 
Q 2772 3150 2772 3378 
Q 2772 3750 2511 3984 
Q 2250 4219 1831 4219 
Q 1534 4219 1204 4116 
Q 875 4013 500 3803 
L 500 4441 
Q 881 4594 1212 4672 
Q 1544 4750 1819 4750 
Q 2544 4750 2975 4387 
Q 3406 4025 3406 3419 
Q 3406 3131 3298 2873 
Q 3191 2616 2906 2266 
Q 2828 2175 2409 1742 
Q 1991 1309 1228 531 
z
" id="DejaVuSans-32" transform="scale(0.015625)"/>
       </defs>
       <use xlink:href="#DejaVuSans-32"/>
      </g>
     </g>
    </g>
    <g id="xtick_3">
     <g id="line2d_3">
      <g>
       <use style="stroke:#000000;stroke-width:0.8;" x="453.377979" xlink:href="#m5fa4900bbd" y="619.72"/>
      </g>
     </g>
     <g id="text_3">
      <!-- 4 -->
      <g transform="translate(445.742979 644.95625)scale(0.24 -0.24)">
       <defs>
        <path d="M 2419 4116 
L 825 1625 
L 2419 1625 
L 2419 4116 
z
M 2253 4666 
L 3047 4666 
L 3047 1625 
L 3713 1625 
L 3713 1100 
L 3047 1100 
L 3047 0 
L 2419 0 
L 2419 1100 
L 313 1100 
L 313 1709 
L 2253 4666 
z
" id="DejaVuSans-34" transform="scale(0.015625)"/>
       </defs>
       <use xlink:href="#DejaVuSans-34"/>
      </g>
     </g>
    </g>
    <g id="xtick_4">
     <g id="line2d_4">
      <g>
       <use style="stroke:#000000;stroke-width:0.8;" x="588.184271" xlink:href="#m5fa4900bbd" y="619.72"/>
      </g>
     </g>
     <g id="text_4">
      <!-- 6 -->
      <g transform="translate(580.549271 644.95625)scale(0.24 -0.24)">
       <defs>
        <path d="M 2113 2584 
Q 1688 2584 1439 2293 
Q 1191 2003 1191 1497 
Q 1191 994 1439 701 
Q 1688 409 2113 409 
Q 2538 409 2786 701 
Q 3034 994 3034 1497 
Q 3034 2003 2786 2293 
Q 2538 2584 2113 2584 
z
M 3366 4563 
L 3366 3988 
Q 3128 4100 2886 4159 
Q 2644 4219 2406 4219 
Q 1781 4219 1451 3797 
Q 1122 3375 1075 2522 
Q 1259 2794 1537 2939 
Q 1816 3084 2150 3084 
Q 2853 3084 3261 2657 
Q 3669 2231 3669 1497 
Q 3669 778 3244 343 
Q 2819 -91 2113 -91 
Q 1303 -91 875 529 
Q 447 1150 447 2328 
Q 447 3434 972 4092 
Q 1497 4750 2381 4750 
Q 2619 4750 2861 4703 
Q 3103 4656 3366 4563 
z
" id="DejaVuSans-36" transform="scale(0.015625)"/>
       </defs>
       <use xlink:href="#DejaVuSans-36"/>
      </g>
     </g>
    </g>
    <g id="xtick_5">
     <g id="line2d_5">
      <g>
       <use style="stroke:#000000;stroke-width:0.8;" x="722.990562" xlink:href="#m5fa4900bbd" y="619.72"/>
      </g>
     </g>
     <g id="text_5">
      <!-- 8 -->
      <g transform="translate(715.355562 644.95625)scale(0.24 -0.24)">
       <defs>
        <path d="M 2034 2216 
Q 1584 2216 1326 1975 
Q 1069 1734 1069 1313 
Q 1069 891 1326 650 
Q 1584 409 2034 409 
Q 2484 409 2743 651 
Q 3003 894 3003 1313 
Q 3003 1734 2745 1975 
Q 2488 2216 2034 2216 
z
M 1403 2484 
Q 997 2584 770 2862 
Q 544 3141 544 3541 
Q 544 4100 942 4425 
Q 1341 4750 2034 4750 
Q 2731 4750 3128 4425 
Q 3525 4100 3525 3541 
Q 3525 3141 3298 2862 
Q 3072 2584 2669 2484 
Q 3125 2378 3379 2068 
Q 3634 1759 3634 1313 
Q 3634 634 3220 271 
Q 2806 -91 2034 -91 
Q 1263 -91 848 271 
Q 434 634 434 1313 
Q 434 1759 690 2068 
Q 947 2378 1403 2484 
z
M 1172 3481 
Q 1172 3119 1398 2916 
Q 1625 2713 2034 2713 
Q 2441 2713 2670 2916 
Q 2900 3119 2900 3481 
Q 2900 3844 2670 4047 
Q 2441 4250 2034 4250 
Q 1625 4250 1398 4047 
Q 1172 3844 1172 3481 
z
" id="DejaVuSans-38" transform="scale(0.015625)"/>
       </defs>
       <use xlink:href="#DejaVuSans-38"/>
      </g>
     </g>
    </g>
    <g id="xtick_6">
     <g id="line2d_6">
      <g>
       <use style="stroke:#000000;stroke-width:0.8;" x="857.796854" xlink:href="#m5fa4900bbd" y="619.72"/>
      </g>
     </g>
     <g id="text_6">
      <!-- 10 -->
      <g transform="translate(842.526854 644.95625)scale(0.24 -0.24)">
       <defs>
        <path d="M 794 531 
L 1825 531 
L 1825 4091 
L 703 3866 
L 703 4441 
L 1819 4666 
L 2450 4666 
L 2450 531 
L 3481 531 
L 3481 0 
L 794 0 
L 794 531 
z
" id="DejaVuSans-31" transform="scale(0.015625)"/>
       </defs>
       <use xlink:href="#DejaVuSans-31"/>
       <use x="63.623047" xlink:href="#DejaVuSans-30"/>
      </g>
     </g>
    </g>
    <g id="text_7">
     <!-- Time (s) -->
     <g transform="translate(455.728625 678.2625)scale(0.32 -0.32)">
      <defs>
       <path d="M -19 4666 
L 3928 4666 
L 3928 4134 
L 2272 4134 
L 2272 0 
L 1638 0 
L 1638 4134 
L -19 4134 
L -19 4666 
z
" id="DejaVuSans-54" transform="scale(0.015625)"/>
       <path d="M 603 3500 
L 1178 3500 
L 1178 0 
L 603 0 
L 603 3500 
z
M 603 4863 
L 1178 4863 
L 1178 4134 
L 603 4134 
L 603 4863 
z
" id="DejaVuSans-69" transform="scale(0.015625)"/>
       <path d="M 3328 2828 
Q 3544 3216 3844 3400 
Q 4144 3584 4550 3584 
Q 5097 3584 5394 3201 
Q 5691 2819 5691 2113 
L 5691 0 
L 5113 0 
L 5113 2094 
Q 5113 2597 4934 2840 
Q 4756 3084 4391 3084 
Q 3944 3084 3684 2787 
Q 3425 2491 3425 1978 
L 3425 0 
L 2847 0 
L 2847 2094 
Q 2847 2600 2669 2842 
Q 2491 3084 2119 3084 
Q 1678 3084 1418 2786 
Q 1159 2488 1159 1978 
L 1159 0 
L 581 0 
L 581 3500 
L 1159 3500 
L 1159 2956 
Q 1356 3278 1631 3431 
Q 1906 3584 2284 3584 
Q 2666 3584 2933 3390 
Q 3200 3197 3328 2828 
z
" id="DejaVuSans-6d" transform="scale(0.015625)"/>
       <path d="M 3597 1894 
L 3597 1613 
L 953 1613 
Q 991 1019 1311 708 
Q 1631 397 2203 397 
Q 2534 397 2845 478 
Q 3156 559 3463 722 
L 3463 178 
Q 3153 47 2828 -22 
Q 2503 -91 2169 -91 
Q 1331 -91 842 396 
Q 353 884 353 1716 
Q 353 2575 817 3079 
Q 1281 3584 2069 3584 
Q 2775 3584 3186 3129 
Q 3597 2675 3597 1894 
z
M 3022 2063 
Q 3016 2534 2758 2815 
Q 2500 3097 2075 3097 
Q 1594 3097 1305 2825 
Q 1016 2553 972 2059 
L 3022 2063 
z
" id="DejaVuSans-65" transform="scale(0.015625)"/>
       <path id="DejaVuSans-20" transform="scale(0.015625)"/>
       <path d="M 1984 4856 
Q 1566 4138 1362 3434 
Q 1159 2731 1159 2009 
Q 1159 1288 1364 580 
Q 1569 -128 1984 -844 
L 1484 -844 
Q 1016 -109 783 600 
Q 550 1309 550 2009 
Q 550 2706 781 3412 
Q 1013 4119 1484 4856 
L 1984 4856 
z
" id="DejaVuSans-28" transform="scale(0.015625)"/>
       <path d="M 2834 3397 
L 2834 2853 
Q 2591 2978 2328 3040 
Q 2066 3103 1784 3103 
Q 1356 3103 1142 2972 
Q 928 2841 928 2578 
Q 928 2378 1081 2264 
Q 1234 2150 1697 2047 
L 1894 2003 
Q 2506 1872 2764 1633 
Q 3022 1394 3022 966 
Q 3022 478 2636 193 
Q 2250 -91 1575 -91 
Q 1294 -91 989 -36 
Q 684 19 347 128 
L 347 722 
Q 666 556 975 473 
Q 1284 391 1588 391 
Q 1994 391 2212 530 
Q 2431 669 2431 922 
Q 2431 1156 2273 1281 
Q 2116 1406 1581 1522 
L 1381 1569 
Q 847 1681 609 1914 
Q 372 2147 372 2553 
Q 372 3047 722 3315 
Q 1072 3584 1716 3584 
Q 2034 3584 2315 3537 
Q 2597 3491 2834 3397 
z
" id="DejaVuSans-73" transform="scale(0.015625)"/>
       <path d="M 513 4856 
L 1013 4856 
Q 1481 4119 1714 3412 
Q 1947 2706 1947 2009 
Q 1947 1309 1714 600 
Q 1481 -109 1013 -844 
L 513 -844 
Q 928 -128 1133 580 
Q 1338 1288 1338 2009 
Q 1338 2731 1133 3434 
Q 928 4138 513 4856 
z
" id="DejaVuSans-29" transform="scale(0.015625)"/>
      </defs>
      <use xlink:href="#DejaVuSans-54"/>
      <use x="57.958984" xlink:href="#DejaVuSans-69"/>
      <use x="85.742188" xlink:href="#DejaVuSans-6d"/>
      <use x="183.154297" xlink:href="#DejaVuSans-65"/>
      <use x="244.677734" xlink:href="#DejaVuSans-20"/>
      <use x="276.464844" xlink:href="#DejaVuSans-28"/>
      <use x="315.478516" xlink:href="#DejaVuSans-73"/>
      <use x="367.578125" xlink:href="#DejaVuSans-29"/>
     </g>
    </g>
   </g>
   <g id="matplotlib.axis_2">
    <g id="ytick_1">
     <g id="line2d_7">
      <defs>
       <path d="M 0 0 
L -3.5 0 
" id="m6c7d3c6aa4" style="stroke:#000000;stroke-width:0.8;"/>
      </defs>
      <g>
       <use style="stroke:#000000;stroke-width:0.8;" x="116.36225" xlink:href="#m6c7d3c6aa4" y="593.516706"/>
      </g>
     </g>
     <g id="text_8">
      <!-- 0 -->
      <g transform="translate(94.09225 602.634831)scale(0.24 -0.24)">
       <use xlink:href="#DejaVuSans-30"/>
      </g>
     </g>
    </g>
    <g id="ytick_2">
     <g id="line2d_8">
      <g>
       <use style="stroke:#000000;stroke-width:0.8;" x="116.36225" xlink:href="#m6c7d3c6aa4" y="487.045001"/>
      </g>
     </g>
     <g id="text_9">
      <!-- 5 -->
      <g transform="translate(94.09225 496.163126)scale(0.24 -0.24)">
       <defs>
        <path d="M 691 4666 
L 3169 4666 
L 3169 4134 
L 1269 4134 
L 1269 2991 
Q 1406 3038 1543 3061 
Q 1681 3084 1819 3084 
Q 2600 3084 3056 2656 
Q 3513 2228 3513 1497 
Q 3513 744 3044 326 
Q 2575 -91 1722 -91 
Q 1428 -91 1123 -41 
Q 819 9 494 109 
L 494 744 
Q 775 591 1075 516 
Q 1375 441 1709 441 
Q 2250 441 2565 725 
Q 2881 1009 2881 1497 
Q 2881 1984 2565 2268 
Q 2250 2553 1709 2553 
Q 1456 2553 1204 2497 
Q 953 2441 691 2322 
L 691 4666 
z
" id="DejaVuSans-35" transform="scale(0.015625)"/>
       </defs>
       <use xlink:href="#DejaVuSans-35"/>
      </g>
     </g>
    </g>
    <g id="ytick_3">
     <g id="line2d_9">
      <g>
       <use style="stroke:#000000;stroke-width:0.8;" x="116.36225" xlink:href="#m6c7d3c6aa4" y="380.573296"/>
      </g>
     </g>
     <g id="text_10">
      <!-- 10 -->
      <g transform="translate(78.82225 389.691421)scale(0.24 -0.24)">
       <use xlink:href="#DejaVuSans-31"/>
       <use x="63.623047" xlink:href="#DejaVuSans-30"/>
      </g>
     </g>
    </g>
    <g id="ytick_4">
     <g id="line2d_10">
      <g>
       <use style="stroke:#000000;stroke-width:0.8;" x="116.36225" xlink:href="#m6c7d3c6aa4" y="274.101591"/>
      </g>
     </g>
     <g id="text_11">
      <!-- 15 -->
      <g transform="translate(78.82225 283.219716)scale(0.24 -0.24)">
       <use xlink:href="#DejaVuSans-31"/>
       <use x="63.623047" xlink:href="#DejaVuSans-35"/>
      </g>
     </g>
    </g>
    <g id="ytick_5">
     <g id="line2d_11">
      <g>
       <use style="stroke:#000000;stroke-width:0.8;" x="116.36225" xlink:href="#m6c7d3c6aa4" y="167.629887"/>
      </g>
     </g>
     <g id="text_12">
      <!-- 20 -->
      <g transform="translate(78.82225 176.748012)scale(0.24 -0.24)">
       <use xlink:href="#DejaVuSans-32"/>
       <use x="63.623047" xlink:href="#DejaVuSans-30"/>
      </g>
     </g>
    </g>
    <g id="ytick_6">
     <g id="line2d_12">
      <g>
       <use style="stroke:#000000;stroke-width:0.8;" x="116.36225" xlink:href="#m6c7d3c6aa4" y="61.158182"/>
      </g>
     </g>
     <g id="text_13">
      <!-- 25 -->
      <g transform="translate(78.82225 70.276307)scale(0.24 -0.24)">
       <use xlink:href="#DejaVuSans-32"/>
       <use x="63.623047" xlink:href="#DejaVuSans-35"/>
      </g>
     </g>
    </g>
    <g id="text_14">
     <!-- Squared Speed $\left( \frac{m}{s} \right)^2$ -->
     <g transform="translate(65.86225 488.42)rotate(-90)scale(0.32 -0.32)">
      <defs>
       <path d="M 3425 4513 
L 3425 3897 
Q 3066 4069 2747 4153 
Q 2428 4238 2131 4238 
Q 1616 4238 1336 4038 
Q 1056 3838 1056 3469 
Q 1056 3159 1242 3001 
Q 1428 2844 1947 2747 
L 2328 2669 
Q 3034 2534 3370 2195 
Q 3706 1856 3706 1288 
Q 3706 609 3251 259 
Q 2797 -91 1919 -91 
Q 1588 -91 1214 -16 
Q 841 59 441 206 
L 441 856 
Q 825 641 1194 531 
Q 1563 422 1919 422 
Q 2459 422 2753 634 
Q 3047 847 3047 1241 
Q 3047 1584 2836 1778 
Q 2625 1972 2144 2069 
L 1759 2144 
Q 1053 2284 737 2584 
Q 422 2884 422 3419 
Q 422 4038 858 4394 
Q 1294 4750 2059 4750 
Q 2388 4750 2728 4690 
Q 3069 4631 3425 4513 
z
" id="DejaVuSans-53" transform="scale(0.015625)"/>
       <path d="M 947 1747 
Q 947 1113 1208 752 
Q 1469 391 1925 391 
Q 2381 391 2643 752 
Q 2906 1113 2906 1747 
Q 2906 2381 2643 2742 
Q 2381 3103 1925 3103 
Q 1469 3103 1208 2742 
Q 947 2381 947 1747 
z
M 2906 525 
Q 2725 213 2448 61 
Q 2172 -91 1784 -91 
Q 1150 -91 751 415 
Q 353 922 353 1747 
Q 353 2572 751 3078 
Q 1150 3584 1784 3584 
Q 2172 3584 2448 3432 
Q 2725 3281 2906 2969 
L 2906 3500 
L 3481 3500 
L 3481 -1331 
L 2906 -1331 
L 2906 525 
z
" id="DejaVuSans-71" transform="scale(0.015625)"/>
       <path d="M 544 1381 
L 544 3500 
L 1119 3500 
L 1119 1403 
Q 1119 906 1312 657 
Q 1506 409 1894 409 
Q 2359 409 2629 706 
Q 2900 1003 2900 1516 
L 2900 3500 
L 3475 3500 
L 3475 0 
L 2900 0 
L 2900 538 
Q 2691 219 2414 64 
Q 2138 -91 1772 -91 
Q 1169 -91 856 284 
Q 544 659 544 1381 
z
M 1991 3584 
L 1991 3584 
z
" id="DejaVuSans-75" transform="scale(0.015625)"/>
       <path d="M 2194 1759 
Q 1497 1759 1228 1600 
Q 959 1441 959 1056 
Q 959 750 1161 570 
Q 1363 391 1709 391 
Q 2188 391 2477 730 
Q 2766 1069 2766 1631 
L 2766 1759 
L 2194 1759 
z
M 3341 1997 
L 3341 0 
L 2766 0 
L 2766 531 
Q 2569 213 2275 61 
Q 1981 -91 1556 -91 
Q 1019 -91 701 211 
Q 384 513 384 1019 
Q 384 1609 779 1909 
Q 1175 2209 1959 2209 
L 2766 2209 
L 2766 2266 
Q 2766 2663 2505 2880 
Q 2244 3097 1772 3097 
Q 1472 3097 1187 3025 
Q 903 2953 641 2809 
L 641 3341 
Q 956 3463 1253 3523 
Q 1550 3584 1831 3584 
Q 2591 3584 2966 3190 
Q 3341 2797 3341 1997 
z
" id="DejaVuSans-61" transform="scale(0.015625)"/>
       <path d="M 2631 2963 
Q 2534 3019 2420 3045 
Q 2306 3072 2169 3072 
Q 1681 3072 1420 2755 
Q 1159 2438 1159 1844 
L 1159 0 
L 581 0 
L 581 3500 
L 1159 3500 
L 1159 2956 
Q 1341 3275 1631 3429 
Q 1922 3584 2338 3584 
Q 2397 3584 2469 3576 
Q 2541 3569 2628 3553 
L 2631 2963 
z
" id="DejaVuSans-72" transform="scale(0.015625)"/>
       <path d="M 2906 2969 
L 2906 4863 
L 3481 4863 
L 3481 0 
L 2906 0 
L 2906 525 
Q 2725 213 2448 61 
Q 2172 -91 1784 -91 
Q 1150 -91 751 415 
Q 353 922 353 1747 
Q 353 2572 751 3078 
Q 1150 3584 1784 3584 
Q 2172 3584 2448 3432 
Q 2725 3281 2906 2969 
z
M 947 1747 
Q 947 1113 1208 752 
Q 1469 391 1925 391 
Q 2381 391 2643 752 
Q 2906 1113 2906 1747 
Q 2906 2381 2643 2742 
Q 2381 3103 1925 3103 
Q 1469 3103 1208 2742 
Q 947 2381 947 1747 
z
" id="DejaVuSans-64" transform="scale(0.015625)"/>
       <path d="M 1159 525 
L 1159 -1331 
L 581 -1331 
L 581 3500 
L 1159 3500 
L 1159 2969 
Q 1341 3281 1617 3432 
Q 1894 3584 2278 3584 
Q 2916 3584 3314 3078 
Q 3713 2572 3713 1747 
Q 3713 922 3314 415 
Q 2916 -91 2278 -91 
Q 1894 -91 1617 61 
Q 1341 213 1159 525 
z
M 3116 1747 
Q 3116 2381 2855 2742 
Q 2594 3103 2138 3103 
Q 1681 3103 1420 2742 
Q 1159 2381 1159 1747 
Q 1159 1113 1420 752 
Q 1681 391 2138 391 
Q 2594 391 2855 752 
Q 3116 1113 3116 1747 
z
" id="DejaVuSans-70" transform="scale(0.015625)"/>
       <path d="M 2445 -858 
L 2445 -1050 
Q 1728 -371 1309 630 
Q 890 1632 890 2886 
Q 890 4122 1309 5136 
Q 1728 6150 2445 6822 
L 2445 6630 
Q 1408 5363 1408 2886 
Q 1408 410 2445 -858 
z
" id="STIXSizeOneSym-Regular-28" transform="scale(0.015625)"/>
       <path d="M 5747 2113 
L 5338 0 
L 4763 0 
L 5166 2094 
Q 5191 2228 5203 2325 
Q 5216 2422 5216 2491 
Q 5216 2772 5059 2928 
Q 4903 3084 4622 3084 
Q 4203 3084 3875 2770 
Q 3547 2456 3450 1953 
L 3066 0 
L 2491 0 
L 2900 2094 
Q 2925 2209 2937 2307 
Q 2950 2406 2950 2484 
Q 2950 2769 2794 2926 
Q 2638 3084 2363 3084 
Q 1938 3084 1609 2770 
Q 1281 2456 1184 1953 
L 800 0 
L 225 0 
L 909 3500 
L 1484 3500 
L 1375 2956 
Q 1609 3263 1923 3423 
Q 2238 3584 2597 3584 
Q 2978 3584 3223 3384 
Q 3469 3184 3519 2828 
Q 3781 3197 4126 3390 
Q 4472 3584 4856 3584 
Q 5306 3584 5551 3325 
Q 5797 3066 5797 2591 
Q 5797 2488 5784 2364 
Q 5772 2241 5747 2113 
z
" id="DejaVuSans-Oblique-6d" transform="scale(0.015625)"/>
       <path d="M 3200 3397 
L 3091 2853 
Q 2863 2978 2609 3040 
Q 2356 3103 2088 3103 
Q 1634 3103 1373 2948 
Q 1113 2794 1113 2528 
Q 1113 2219 1719 2053 
Q 1766 2041 1788 2034 
L 1972 1978 
Q 2547 1819 2739 1644 
Q 2931 1469 2931 1166 
Q 2931 609 2489 259 
Q 2047 -91 1331 -91 
Q 1053 -91 747 -37 
Q 441 16 72 128 
L 184 722 
Q 500 559 806 475 
Q 1113 391 1394 391 
Q 1816 391 2080 572 
Q 2344 753 2344 1031 
Q 2344 1331 1650 1516 
L 1591 1531 
L 1394 1581 
Q 956 1697 753 1886 
Q 550 2075 550 2369 
Q 550 2928 970 3256 
Q 1391 3584 2113 3584 
Q 2397 3584 2667 3537 
Q 2938 3491 3200 3397 
z
" id="DejaVuSans-Oblique-73" transform="scale(0.015625)"/>
       <path d="M 550 6630 
L 550 6822 
Q 1267 6144 1686 5142 
Q 2106 4141 2106 2886 
Q 2106 1651 1686 636 
Q 1267 -378 550 -1050 
L 550 -858 
Q 1587 410 1587 2886 
Q 1587 5363 550 6630 
z
" id="STIXSizeOneSym-Regular-29" transform="scale(0.015625)"/>
      </defs>
      <use transform="translate(0 0.765625)" xlink:href="#DejaVuSans-53"/>
      <use transform="translate(63.476562 0.765625)" xlink:href="#DejaVuSans-71"/>
      <use transform="translate(126.953125 0.765625)" xlink:href="#DejaVuSans-75"/>
      <use transform="translate(190.332031 0.765625)" xlink:href="#DejaVuSans-61"/>
      <use transform="translate(251.611328 0.765625)" xlink:href="#DejaVuSans-72"/>
      <use transform="translate(292.724609 0.765625)" xlink:href="#DejaVuSans-65"/>
      <use transform="translate(354.248047 0.765625)" xlink:href="#DejaVuSans-64"/>
      <use transform="translate(417.724609 0.765625)" xlink:href="#DejaVuSans-20"/>
      <use transform="translate(449.511719 0.765625)" xlink:href="#DejaVuSans-53"/>
      <use transform="translate(512.988281 0.765625)" xlink:href="#DejaVuSans-70"/>
      <use transform="translate(576.464844 0.765625)" xlink:href="#DejaVuSans-65"/>
      <use transform="translate(637.988281 0.765625)" xlink:href="#DejaVuSans-65"/>
      <use transform="translate(699.511719 0.765625)" xlink:href="#DejaVuSans-64"/>
      <use transform="translate(762.988281 0.765625)" xlink:href="#DejaVuSans-20"/>
      <use transform="translate(794.775391 -12.132812)scale(0.899555)" xlink:href="#STIXSizeOneSym-Regular-28"/>
      <use transform="translate(836.873444 44.5625)scale(0.7)" xlink:href="#DejaVuSans-Oblique-6d"/>
      <use transform="translate(852.873444 -25.8875)scale(0.7)" xlink:href="#DejaVuSans-Oblique-73"/>
      <use transform="translate(917.56192 -12.132812)scale(0.899555)" xlink:href="#STIXSizeOneSym-Regular-29"/>
      <use transform="translate(960.617004 39.046875)scale(0.7)" xlink:href="#DejaVuSans-32"/>
      <path d="M 836.873444 19.5625 
L 836.873444 25.8125 
L 905.06192 25.8125 
L 905.06192 19.5625 
L 836.873444 19.5625 
z
"/>
     </g>
    </g>
   </g>
   <g id="line2d_13">
    <path clip-path="url(#pf96307ebb4)" d="M 183.765396 572.222365 
L 185.275354 575.514965 
L 186.785313 578.312042 
L 188.295271 580.667794 
L 189.80523 582.631019 
L 191.315189 584.245591 
L 192.825147 585.550892 
L 194.335106 586.582219 
L 195.845064 587.371149 
L 197.355023 587.94589 
L 198.864981 588.331589 
L 200.878259 588.59011 
L 202.891537 588.598302 
L 204.904815 588.395514 
L 207.421413 587.895639 
L 209.938011 587.171755 
L 212.957928 586.067801 
L 216.481164 584.527786 
L 220.50772 582.517546 
L 225.540916 579.729852 
L 231.07743 576.404234 
L 237.620584 572.206284 
L 244.667057 567.414649 
L 252.21685 561.998342 
L 259.766643 556.305754 
L 267.819755 549.947491 
L 276.376186 542.901171 
L 286.442577 534.302431 
L 302.548801 520.184585 
L 314.62847 509.728636 
L 322.178262 503.471691 
L 328.721416 498.338697 
L 334.257931 494.272718 
L 339.291126 490.843929 
L 343.821001 488.008872 
L 348.350877 485.439293 
L 352.377433 483.398337 
L 356.403989 481.602903 
L 360.430545 480.067215 
L 363.953782 478.946194 
L 367.477019 478.040151 
L 371.000255 477.354395 
L 374.523492 476.892717 
L 378.046728 476.657321 
L 381.569965 476.648781 
L 385.093202 476.866016 
L 388.616438 477.306287 
L 392.139675 477.96522 
L 395.662911 478.836843 
L 399.689468 480.083719 
L 403.716024 481.585011 
L 407.74258 483.324895 
L 412.272455 485.545114 
L 416.802331 488.016426 
L 421.835526 491.019563 
L 427.372041 494.584131 
L 433.915194 499.067144 
L 442.974946 505.573154 
L 461.094448 518.644676 
L 468.644241 523.763465 
L 475.187395 527.919314 
L 481.227229 531.477999 
L 486.763744 534.480829 
L 492.300258 537.221146 
L 497.836773 539.692522 
L 502.869968 541.706324 
L 508.406483 543.671897 
L 513.942997 545.38867 
L 519.479512 546.875025 
L 525.519346 548.26084 
L 532.0625 549.524194 
L 539.612293 550.737499 
L 548.672044 551.956343 
L 581.387812 556.1358 
L 590.950883 557.703696 
L 601.520593 559.672948 
L 632.726403 565.681736 
L 640.276195 566.781114 
L 647.322669 567.584045 
L 654.872461 568.221475 
L 675.005242 569.771961 
L 679.535118 570.442646 
L 683.561674 571.271211 
L 687.08491 572.222365 
L 687.08491 572.222365 
" style="fill:none;stroke:#1f77b4;stroke-linecap:square;stroke-width:4;"/>
   </g>
   <g id="line2d_14">
    <path clip-path="url(#pf96307ebb4)" d="M 183.765396 572.222365 
L 184.853907 576.491375 
L 185.942417 579.879388 
L 187.030928 582.539001 
L 188.119439 584.597032 
L 189.207949 586.158104 
L 190.29646 587.307826 
L 191.384971 588.115606 
L 192.473482 588.637139 
L 193.561992 588.916591 
L 194.650503 588.988513 
L 195.739014 588.879516 
L 197.190361 588.48676 
L 198.641709 587.841272 
L 200.093057 586.964639 
L 201.907241 585.5631 
L 203.721426 583.834057 
L 205.53561 581.783979 
L 207.349795 579.416952 
L 209.526816 576.165383 
L 211.703838 572.479377 
L 213.880859 568.382403 
L 216.420718 563.127814 
L 219.323413 556.58073 
L 222.951782 547.764692 
L 228.031499 534.720817 
L 236.376748 513.236986 
L 240.367954 503.563139 
L 243.996323 495.313878 
L 247.624692 487.644535 
L 250.890224 481.243238 
L 254.155756 475.289401 
L 257.784125 469.137349 
L 261.775331 462.826254 
L 266.492211 455.796395 
L 277.014482 440.684207 
L 283.908383 430.505697 
L 290.439447 420.438946 
L 307.129945 394.437245 
L 311.121151 388.817054 
L 314.386683 384.598942 
L 317.289379 381.205564 
L 319.829237 378.55463 
L 322.369095 376.235297 
L 324.546117 374.534066 
L 326.723138 373.115498 
L 328.90016 371.99448 
L 330.714344 371.296804 
L 332.528529 370.820687 
L 334.342713 370.571033 
L 336.156898 370.551532 
L 337.971083 370.764642 
L 339.785267 371.211573 
L 341.599452 371.892293 
L 343.413636 372.805537 
L 345.227821 373.94883 
L 347.404842 375.619214 
L 349.581864 377.607058 
L 351.758885 379.901638 
L 354.298743 382.949099 
L 356.838602 386.372829 
L 359.741297 390.711773 
L 362.643992 395.462413 
L 365.909525 401.238608 
L 369.537894 408.106561 
L 373.891937 416.830199 
L 380.060164 429.74868 
L 392.396619 455.72905 
L 397.476336 465.851347 
L 401.830379 474.050213 
L 405.821585 481.106389 
L 409.449954 487.103009 
L 413.078323 492.682044 
L 416.706692 497.836381 
L 419.972224 502.114641 
L 423.237756 506.06004 
L 426.503289 509.686246 
L 429.768821 513.01094 
L 433.39719 516.3766 
L 437.025559 519.426516 
L 440.653928 522.192709 
L 444.645134 524.945214 
L 448.63634 527.430955 
L 452.990383 529.877456 
L 457.344426 532.080109 
L 462.061306 534.217741 
L 466.778186 536.111174 
L 471.495065 537.762241 
L 475.849108 539.064922 
L 480.203151 540.146435 
L 484.557194 541.000929 
L 488.911237 541.63082 
L 493.628117 542.079542 
L 499.07067 542.359123 
L 511.769962 542.893308 
L 515.035495 543.294879 
L 517.93819 543.860322 
L 520.478048 544.565954 
L 523.017907 545.513427 
L 525.194928 546.551366 
L 527.371949 547.826827 
L 529.548971 549.366336 
L 531.725992 551.194396 
L 533.903014 553.332191 
L 536.080035 555.795919 
L 538.257057 558.594676 
L 540.434078 561.727733 
L 542.973937 565.785821 
L 545.876632 570.885753 
L 546.602306 572.222365 
L 546.602306 572.222365 
" style="fill:none;stroke:#ff7f0e;stroke-linecap:square;stroke-width:4;"/>
   </g>
   <g id="line2d_15">
    <path clip-path="url(#pf96307ebb4)" d="M 183.765396 572.222365 
L 184.697769 579.938369 
L 185.630143 585.278978 
L 186.251725 587.804535 
L 186.873308 589.668753 
L 187.49489 590.992132 
L 188.116473 591.877662 
L 188.738055 592.412706 
L 189.359637 592.670722 
L 189.98122 592.712834 
L 190.913593 592.478421 
L 191.845967 591.999402 
L 193.399923 590.888927 
L 195.575461 589.007466 
L 197.751 586.826299 
L 199.304956 584.9746 
L 200.858912 582.740665 
L 202.102077 580.590443 
L 203.345242 578.049868 
L 204.588406 575.065464 
L 205.831571 571.594779 
L 207.385527 566.527951 
L 208.939483 560.624551 
L 210.493439 553.884336 
L 212.358186 544.732244 
L 214.533725 532.710649 
L 217.020054 517.467728 
L 220.127966 496.747797 
L 225.411417 459.561568 
L 230.073285 427.355819 
L 233.181197 407.291891 
L 235.978318 390.594568 
L 238.464647 376.976108 
L 240.950977 364.560735 
L 243.437306 353.342198 
L 245.612845 344.469527 
L 247.788383 336.42131 
L 249.963922 329.129493 
L 252.450251 321.623551 
L 254.936581 314.88465 
L 257.422911 308.792984 
L 260.220031 302.573566 
L 263.017152 296.888757 
L 266.125064 291.057658 
L 269.543767 285.097821 
L 273.273262 279.03176 
L 277.002756 273.381117 
L 280.421459 268.594223 
L 283.529371 264.628538 
L 286.326492 261.437217 
L 288.812822 258.954262 
L 290.98836 257.093841 
L 292.853107 255.756724 
L 294.717855 254.678228 
L 296.582602 253.877198 
L 298.136558 253.434315 
L 299.690514 253.205581 
L 301.24447 253.199337 
L 302.798426 253.422894 
L 304.352382 253.882453 
L 305.906338 254.583026 
L 307.460294 255.528392 
L 309.01425 256.721056 
L 310.568206 258.162228 
L 312.432953 260.219443 
L 314.2977 262.631692 
L 316.162448 265.393726 
L 318.337986 269.047657 
L 320.513524 273.150465 
L 322.999854 278.362347 
L 325.486184 284.096601 
L 328.283304 291.119164 
L 331.391216 299.552751 
L 334.80992 309.481194 
L 338.850205 321.90967 
L 344.133656 338.930899 
L 362.470337 398.683932 
L 367.753787 414.797948 
L 372.726446 429.247146 
L 377.388314 442.14318 
L 382.360973 455.227071 
L 387.333633 467.660518 
L 392.306292 479.488456 
L 397.278951 490.739741 
L 401.940819 500.766019 
L 406.602687 510.263942 
L 410.953764 518.612965 
L 414.99405 525.877439 
L 418.723544 532.129281 
L 422.142247 537.450387 
L 425.56095 542.359151 
L 428.668862 546.451946 
L 431.776774 550.186906 
L 434.884686 553.564022 
L 437.992598 556.588806 
L 440.789719 559.01866 
L 443.58684 561.182856 
L 446.694752 563.292525 
L 449.802664 565.112289 
L 452.910576 566.665035 
L 456.018488 567.974085 
L 459.437191 569.159588 
L 462.855895 570.105669 
L 466.585389 570.894102 
L 470.314883 571.456052 
L 474.355169 571.839631 
L 478.706246 572.030594 
L 484.300487 572.036311 
L 492.070267 572.044142 
L 494.556597 572.222365 
L 494.556597 572.222365 
" style="fill:none;stroke:#2ca02c;stroke-linecap:square;stroke-width:4;"/>
   </g>
   <g id="line2d_16">
    <path clip-path="url(#pf96307ebb4)" d="M 183.765396 572.222365 
L 184.559693 580.99864 
L 185.35399 586.782355 
L 185.883521 589.357085 
L 186.413052 591.129369 
L 186.942583 592.259639 
L 187.472115 592.884566 
L 188.001646 593.119622 
L 188.531177 593.061425 
L 189.060708 592.789883 
L 189.855005 592.121493 
L 191.443599 590.389281 
L 193.561724 588.154489 
L 198.06274 583.744248 
L 199.121802 582.232318 
L 200.180865 580.319376 
L 201.239927 577.912187 
L 202.29899 574.932444 
L 203.358052 571.318926 
L 204.68188 565.846671 
L 206.005709 559.272852 
L 207.329537 551.593655 
L 208.91813 540.968549 
L 210.77149 526.781474 
L 212.889615 508.542814 
L 215.537271 483.446128 
L 219.508756 443.214337 
L 224.804068 389.883003 
L 227.71649 362.665057 
L 230.364146 339.89216 
L 232.747037 321.187176 
L 235.129928 304.218511 
L 237.512818 288.933933 
L 239.895709 275.216044 
L 242.2786 262.90426 
L 244.66149 251.814755 
L 247.044381 241.757527 
L 249.692037 231.572211 
L 252.604459 221.314927 
L 255.781647 210.982655 
L 259.2236 200.550759 
L 262.930319 190.032734 
L 266.372272 180.90049 
L 269.549459 173.077986 
L 272.197116 167.089765 
L 274.580006 162.189194 
L 276.698131 158.281216 
L 278.816256 154.848568 
L 280.669616 152.274985 
L 282.258209 150.414552 
L 283.846803 148.893417 
L 285.170631 147.897806 
L 286.494459 147.159393 
L 287.818288 146.686433 
L 289.142116 146.486095 
L 290.201178 146.526186 
L 291.260241 146.747134 
L 292.584069 147.280645 
L 293.907897 148.102575 
L 295.231725 149.214368 
L 296.555553 150.616152 
L 297.879381 152.306753 
L 299.467975 154.713156 
L 301.056569 157.525209 
L 302.909928 161.306318 
L 304.763288 165.608512 
L 306.881413 171.134316 
L 308.999538 177.271954 
L 311.382428 184.852757 
L 314.030085 194.033846 
L 316.942507 204.937456 
L 320.38446 218.725214 
L 324.62071 236.71655 
L 330.180788 261.425755 
L 354.803991 372.150859 
L 362.217429 403.952084 
L 368.571804 430.285893 
L 373.867117 451.31337 
L 378.368132 468.301208 
L 382.339617 482.446745 
L 386.046336 494.814821 
L 389.488289 505.497093 
L 392.665476 514.623862 
L 395.577898 522.348069 
L 398.49032 529.450003 
L 401.402742 535.933032 
L 404.050398 541.300423 
L 406.698055 546.182274 
L 409.345711 550.597514 
L 411.993367 554.567096 
L 414.641023 558.112454 
L 417.023914 560.957607 
L 419.406805 563.489538 
L 421.789695 565.720274 
L 424.172586 567.65992 
L 426.555477 569.316595 
L 428.938367 570.696519 
L 431.321258 571.80427 
L 433.704149 572.643215 
L 435.822274 573.165593 
L 437.940399 573.480238 
L 440.058524 573.590946 
L 442.441414 573.480221 
L 444.824305 573.137392 
L 447.471961 572.522605 
L 448.531024 572.222365 
L 448.531024 572.222365 
" style="fill:none;stroke:#d62728;stroke-linecap:square;stroke-width:4;"/>
   </g>
   <g id="line2d_17">
    <path clip-path="url(#pf96307ebb4)" d="M 116.36225 61.158182 
L 925.2 61.158182 
" style="fill:none;stroke:#9467bd;stroke-dasharray:14.8,6.4;stroke-dashoffset:0;stroke-width:4;"/>
   </g>
   <g id="patch_3">
    <path d="M 116.36225 619.72 
L 116.36225 34.56 
" style="fill:none;stroke:#000000;stroke-linecap:square;stroke-linejoin:miter;stroke-width:0.8;"/>
   </g>
   <g id="patch_4">
    <path d="M 925.2 619.72 
L 925.2 34.56 
" style="fill:none;stroke:#000000;stroke-linecap:square;stroke-linejoin:miter;stroke-width:0.8;"/>
   </g>
   <g id="patch_5">
    <path d="M 116.36225 619.72 
L 925.2 619.72 
" style="fill:none;stroke:#000000;stroke-linecap:square;stroke-linejoin:miter;stroke-width:0.8;"/>
   </g>
   <g id="patch_6">
    <path d="M 116.36225 34.56 
L 925.2 34.56 
" style="fill:none;stroke:#000000;stroke-linecap:square;stroke-linejoin:miter;stroke-width:0.8;"/>
   </g>
   <g id="legend_1">
    <g id="patch_7">
     <path d="M 539.825 453.08 
L 902.8 453.08 
Q 909.2 453.08 909.2 446.68 
L 909.2 207.6 
Q 909.2 201.2 902.8 201.2 
L 539.825 201.2 
Q 533.425 201.2 533.425 207.6 
L 533.425 446.68 
Q 533.425 453.08 539.825 453.08 
z
" style="fill:#ffffff;opacity:0.8;stroke:#cccccc;stroke-linejoin:miter;"/>
    </g>
    <g id="line2d_18">
     <path d="M 546.225 227.115 
L 610.225 227.115 
" style="fill:none;stroke:#1f77b4;stroke-linecap:square;stroke-width:4;"/>
    </g>
    <g id="line2d_19"/>
    <g id="text_15">
     <!-- No Elevation -->
     <g transform="translate(635.825 238.315)scale(0.32 -0.32)">
      <defs>
       <path d="M 628 4666 
L 1478 4666 
L 3547 763 
L 3547 4666 
L 4159 4666 
L 4159 0 
L 3309 0 
L 1241 3903 
L 1241 0 
L 628 0 
L 628 4666 
z
" id="DejaVuSans-4e" transform="scale(0.015625)"/>
       <path d="M 1959 3097 
Q 1497 3097 1228 2736 
Q 959 2375 959 1747 
Q 959 1119 1226 758 
Q 1494 397 1959 397 
Q 2419 397 2687 759 
Q 2956 1122 2956 1747 
Q 2956 2369 2687 2733 
Q 2419 3097 1959 3097 
z
M 1959 3584 
Q 2709 3584 3137 3096 
Q 3566 2609 3566 1747 
Q 3566 888 3137 398 
Q 2709 -91 1959 -91 
Q 1206 -91 779 398 
Q 353 888 353 1747 
Q 353 2609 779 3096 
Q 1206 3584 1959 3584 
z
" id="DejaVuSans-6f" transform="scale(0.015625)"/>
       <path d="M 628 4666 
L 3578 4666 
L 3578 4134 
L 1259 4134 
L 1259 2753 
L 3481 2753 
L 3481 2222 
L 1259 2222 
L 1259 531 
L 3634 531 
L 3634 0 
L 628 0 
L 628 4666 
z
" id="DejaVuSans-45" transform="scale(0.015625)"/>
       <path d="M 603 4863 
L 1178 4863 
L 1178 0 
L 603 0 
L 603 4863 
z
" id="DejaVuSans-6c" transform="scale(0.015625)"/>
       <path d="M 191 3500 
L 800 3500 
L 1894 563 
L 2988 3500 
L 3597 3500 
L 2284 0 
L 1503 0 
L 191 3500 
z
" id="DejaVuSans-76" transform="scale(0.015625)"/>
       <path d="M 1172 4494 
L 1172 3500 
L 2356 3500 
L 2356 3053 
L 1172 3053 
L 1172 1153 
Q 1172 725 1289 603 
Q 1406 481 1766 481 
L 2356 481 
L 2356 0 
L 1766 0 
Q 1100 0 847 248 
Q 594 497 594 1153 
L 594 3053 
L 172 3053 
L 172 3500 
L 594 3500 
L 594 4494 
L 1172 4494 
z
" id="DejaVuSans-74" transform="scale(0.015625)"/>
       <path d="M 3513 2113 
L 3513 0 
L 2938 0 
L 2938 2094 
Q 2938 2591 2744 2837 
Q 2550 3084 2163 3084 
Q 1697 3084 1428 2787 
Q 1159 2491 1159 1978 
L 1159 0 
L 581 0 
L 581 3500 
L 1159 3500 
L 1159 2956 
Q 1366 3272 1645 3428 
Q 1925 3584 2291 3584 
Q 2894 3584 3203 3211 
Q 3513 2838 3513 2113 
z
" id="DejaVuSans-6e" transform="scale(0.015625)"/>
      </defs>
      <use xlink:href="#DejaVuSans-4e"/>
      <use x="74.804688" xlink:href="#DejaVuSans-6f"/>
      <use x="135.986328" xlink:href="#DejaVuSans-20"/>
      <use x="167.773438" xlink:href="#DejaVuSans-45"/>
      <use x="230.957031" xlink:href="#DejaVuSans-6c"/>
      <use x="258.740234" xlink:href="#DejaVuSans-65"/>
      <use x="320.263672" xlink:href="#DejaVuSans-76"/>
      <use x="379.443359" xlink:href="#DejaVuSans-61"/>
      <use x="440.722656" xlink:href="#DejaVuSans-74"/>
      <use x="479.931641" xlink:href="#DejaVuSans-69"/>
      <use x="507.714844" xlink:href="#DejaVuSans-6f"/>
      <use x="568.896484" xlink:href="#DejaVuSans-6e"/>
     </g>
    </g>
    <g id="line2d_20">
     <path d="M 546.225 274.085 
L 610.225 274.085 
" style="fill:none;stroke:#ff7f0e;stroke-linecap:square;stroke-width:4;"/>
    </g>
    <g id="line2d_21"/>
    <g id="text_16">
     <!-- Elevated by 30 -->
     <g transform="translate(635.825 285.285)scale(0.32 -0.32)">
      <defs>
       <path d="M 3116 1747 
Q 3116 2381 2855 2742 
Q 2594 3103 2138 3103 
Q 1681 3103 1420 2742 
Q 1159 2381 1159 1747 
Q 1159 1113 1420 752 
Q 1681 391 2138 391 
Q 2594 391 2855 752 
Q 3116 1113 3116 1747 
z
M 1159 2969 
Q 1341 3281 1617 3432 
Q 1894 3584 2278 3584 
Q 2916 3584 3314 3078 
Q 3713 2572 3713 1747 
Q 3713 922 3314 415 
Q 2916 -91 2278 -91 
Q 1894 -91 1617 61 
Q 1341 213 1159 525 
L 1159 0 
L 581 0 
L 581 4863 
L 1159 4863 
L 1159 2969 
z
" id="DejaVuSans-62" transform="scale(0.015625)"/>
       <path d="M 2059 -325 
Q 1816 -950 1584 -1140 
Q 1353 -1331 966 -1331 
L 506 -1331 
L 506 -850 
L 844 -850 
Q 1081 -850 1212 -737 
Q 1344 -625 1503 -206 
L 1606 56 
L 191 3500 
L 800 3500 
L 1894 763 
L 2988 3500 
L 3597 3500 
L 2059 -325 
z
" id="DejaVuSans-79" transform="scale(0.015625)"/>
       <path d="M 2597 2516 
Q 3050 2419 3304 2112 
Q 3559 1806 3559 1356 
Q 3559 666 3084 287 
Q 2609 -91 1734 -91 
Q 1441 -91 1130 -33 
Q 819 25 488 141 
L 488 750 
Q 750 597 1062 519 
Q 1375 441 1716 441 
Q 2309 441 2620 675 
Q 2931 909 2931 1356 
Q 2931 1769 2642 2001 
Q 2353 2234 1838 2234 
L 1294 2234 
L 1294 2753 
L 1863 2753 
Q 2328 2753 2575 2939 
Q 2822 3125 2822 3475 
Q 2822 3834 2567 4026 
Q 2313 4219 1838 4219 
Q 1578 4219 1281 4162 
Q 984 4106 628 3988 
L 628 4550 
Q 988 4650 1302 4700 
Q 1616 4750 1894 4750 
Q 2613 4750 3031 4423 
Q 3450 4097 3450 3541 
Q 3450 3153 3228 2886 
Q 3006 2619 2597 2516 
z
" id="DejaVuSans-33" transform="scale(0.015625)"/>
      </defs>
      <use xlink:href="#DejaVuSans-45"/>
      <use x="63.183594" xlink:href="#DejaVuSans-6c"/>
      <use x="90.966797" xlink:href="#DejaVuSans-65"/>
      <use x="152.490234" xlink:href="#DejaVuSans-76"/>
      <use x="211.669922" xlink:href="#DejaVuSans-61"/>
      <use x="272.949219" xlink:href="#DejaVuSans-74"/>
      <use x="312.158203" xlink:href="#DejaVuSans-65"/>
      <use x="373.681641" xlink:href="#DejaVuSans-64"/>
      <use x="437.158203" xlink:href="#DejaVuSans-20"/>
      <use x="468.945312" xlink:href="#DejaVuSans-62"/>
      <use x="532.421875" xlink:href="#DejaVuSans-79"/>
      <use x="591.601562" xlink:href="#DejaVuSans-20"/>
      <use x="623.388672" xlink:href="#DejaVuSans-33"/>
      <use x="687.011719" xlink:href="#DejaVuSans-30"/>
     </g>
    </g>
    <g id="line2d_22">
     <path d="M 546.225 321.055 
L 610.225 321.055 
" style="fill:none;stroke:#2ca02c;stroke-linecap:square;stroke-width:4;"/>
    </g>
    <g id="line2d_23"/>
    <g id="text_17">
     <!-- Elevated by 100 -->
     <g transform="translate(635.825 332.255)scale(0.32 -0.32)">
      <use xlink:href="#DejaVuSans-45"/>
      <use x="63.183594" xlink:href="#DejaVuSans-6c"/>
      <use x="90.966797" xlink:href="#DejaVuSans-65"/>
      <use x="152.490234" xlink:href="#DejaVuSans-76"/>
      <use x="211.669922" xlink:href="#DejaVuSans-61"/>
      <use x="272.949219" xlink:href="#DejaVuSans-74"/>
      <use x="312.158203" xlink:href="#DejaVuSans-65"/>
      <use x="373.681641" xlink:href="#DejaVuSans-64"/>
      <use x="437.158203" xlink:href="#DejaVuSans-20"/>
      <use x="468.945312" xlink:href="#DejaVuSans-62"/>
      <use x="532.421875" xlink:href="#DejaVuSans-79"/>
      <use x="591.601562" xlink:href="#DejaVuSans-20"/>
      <use x="623.388672" xlink:href="#DejaVuSans-31"/>
      <use x="687.011719" xlink:href="#DejaVuSans-30"/>
      <use x="750.634766" xlink:href="#DejaVuSans-30"/>
     </g>
    </g>
    <g id="line2d_24">
     <path d="M 546.225 368.025 
L 610.225 368.025 
" style="fill:none;stroke:#d62728;stroke-linecap:square;stroke-width:4;"/>
    </g>
    <g id="line2d_25"/>
    <g id="text_18">
     <!-- Exact Extrema -->
     <g transform="translate(635.825 379.225)scale(0.32 -0.32)">
      <defs>
       <path d="M 3513 3500 
L 2247 1797 
L 3578 0 
L 2900 0 
L 1881 1375 
L 863 0 
L 184 0 
L 1544 1831 
L 300 3500 
L 978 3500 
L 1906 2253 
L 2834 3500 
L 3513 3500 
z
" id="DejaVuSans-78" transform="scale(0.015625)"/>
       <path d="M 3122 3366 
L 3122 2828 
Q 2878 2963 2633 3030 
Q 2388 3097 2138 3097 
Q 1578 3097 1268 2742 
Q 959 2388 959 1747 
Q 959 1106 1268 751 
Q 1578 397 2138 397 
Q 2388 397 2633 464 
Q 2878 531 3122 666 
L 3122 134 
Q 2881 22 2623 -34 
Q 2366 -91 2075 -91 
Q 1284 -91 818 406 
Q 353 903 353 1747 
Q 353 2603 823 3093 
Q 1294 3584 2113 3584 
Q 2378 3584 2631 3529 
Q 2884 3475 3122 3366 
z
" id="DejaVuSans-63" transform="scale(0.015625)"/>
      </defs>
      <use xlink:href="#DejaVuSans-45"/>
      <use x="63.183594" xlink:href="#DejaVuSans-78"/>
      <use x="122.363281" xlink:href="#DejaVuSans-61"/>
      <use x="183.642578" xlink:href="#DejaVuSans-63"/>
      <use x="238.623047" xlink:href="#DejaVuSans-74"/>
      <use x="277.832031" xlink:href="#DejaVuSans-20"/>
      <use x="309.619141" xlink:href="#DejaVuSans-45"/>
      <use x="372.802734" xlink:href="#DejaVuSans-78"/>
      <use x="431.982422" xlink:href="#DejaVuSans-74"/>
      <use x="471.191406" xlink:href="#DejaVuSans-72"/>
      <use x="510.054688" xlink:href="#DejaVuSans-65"/>
      <use x="571.578125" xlink:href="#DejaVuSans-6d"/>
      <use x="668.990234" xlink:href="#DejaVuSans-61"/>
     </g>
    </g>
    <g id="line2d_26">
     <path d="M 546.225 419.8 
L 610.225 419.8 
" style="fill:none;stroke:#9467bd;stroke-dasharray:14.8,6.4;stroke-dashoffset:0;stroke-width:4;"/>
    </g>
    <g id="line2d_27"/>
    <g id="text_19">
     <!-- $v^2_{max}$ -->
     <g transform="translate(635.825 431)scale(0.32 -0.32)">
      <defs>
       <path d="M 459 3500 
L 1069 3500 
L 1581 525 
L 3256 3500 
L 3866 3500 
L 1875 0 
L 1100 0 
L 459 3500 
z
" id="DejaVuSans-Oblique-76" transform="scale(0.015625)"/>
       <path d="M 3438 1997 
L 3047 0 
L 2472 0 
L 2578 531 
Q 2325 219 2001 64 
Q 1678 -91 1281 -91 
Q 834 -91 548 182 
Q 263 456 263 884 
Q 263 1497 752 1853 
Q 1241 2209 2100 2209 
L 2900 2209 
L 2931 2363 
Q 2938 2388 2941 2417 
Q 2944 2447 2944 2509 
Q 2944 2788 2717 2942 
Q 2491 3097 2081 3097 
Q 1800 3097 1504 3025 
Q 1209 2953 897 2809 
L 997 3341 
Q 1322 3463 1633 3523 
Q 1944 3584 2234 3584 
Q 2853 3584 3176 3315 
Q 3500 3047 3500 2534 
Q 3500 2431 3484 2292 
Q 3469 2153 3438 1997 
z
M 2816 1759 
L 2241 1759 
Q 1534 1759 1195 1570 
Q 856 1381 856 984 
Q 856 709 1029 553 
Q 1203 397 1509 397 
Q 1978 397 2328 733 
Q 2678 1069 2791 1631 
L 2816 1759 
z
" id="DejaVuSans-Oblique-61" transform="scale(0.015625)"/>
       <path d="M 3841 3500 
L 2234 1784 
L 3219 0 
L 2559 0 
L 1819 1388 
L 531 0 
L -166 0 
L 1556 1844 
L 641 3500 
L 1300 3500 
L 1972 2234 
L 3144 3500 
L 3841 3500 
z
" id="DejaVuSans-Oblique-78" transform="scale(0.015625)"/>
      </defs>
      <use transform="translate(0 0.765625)" xlink:href="#DejaVuSans-Oblique-76"/>
      <use transform="translate(63.645833 39.046875)scale(0.7)" xlink:href="#DejaVuSans-32"/>
      <use transform="translate(59.179688 -26.578125)scale(0.7)" xlink:href="#DejaVuSans-Oblique-6d"/>
      <use transform="translate(127.368164 -26.578125)scale(0.7)" xlink:href="#DejaVuSans-Oblique-61"/>
      <use transform="translate(170.263672 -26.578125)scale(0.7)" xlink:href="#DejaVuSans-Oblique-78"/>
     </g>
    </g>
   </g>
  </g>
 </g>
 <defs>
  <clipPath id="pf96307ebb4">
   <rect height="585.16" width="808.83775" x="116.36225" y="34.56"/>
  </clipPath>
 </defs>
</svg>
