<?xml version="1.0" encoding="utf-8" standalone="no"?>
<!DOCTYPE svg PUBLIC "-//W3C//DTD SVG 1.1//EN"
  "http://www.w3.org/Graphics/SVG/1.1/DTD/svg11.dtd">
<!-- Created with matplotlib (https://matplotlib.org/) -->
<svg height="720pt" version="1.1" viewBox="0 0 959.976 720" width="959.976pt" xmlns="http://www.w3.org/2000/svg" xmlns:xlink="http://www.w3.org/1999/xlink">
 <defs>
  <style type="text/css">
*{stroke-linecap:butt;stroke-linejoin:round;}
  </style>
 </defs>
 <g id="figure_1">
  <g id="patch_1">
   <path d="M 0 720 
L 959.976 720 
L 959.976 0 
L 0 0 
z
" style="fill:#ffffff;"/>
  </g>
  <g id="axes_1">
   <g id="patch_2">
    <path d="M 179.66 588.04 
L 916.776 588.04 
L 916.776 43.2 
L 179.66 43.2 
z
" style="fill:#ffffff;"/>
   </g>
   <g id="matplotlib.axis_1">
    <g id="xtick_1">
     <g id="line2d_1">
      <defs>
       <path d="M 0 0 
L 0 3.5 
" id="m2acfc621bc" style="stroke:#000000;stroke-width:0.8;"/>
      </defs>
      <g>
       <use style="stroke:#000000;stroke-width:0.8;" x="241.086333" xlink:href="#m2acfc621bc" y="588.04"/>
      </g>
     </g>
     <g id="text_1">
      <!-- 0 -->
      <defs>
       <path d="M 31.78125 66.40625 
Q 24.171875 66.40625 20.328125 58.90625 
Q 16.5 51.421875 16.5 36.375 
Q 16.5 21.390625 20.328125 13.890625 
Q 24.171875 6.390625 31.78125 6.390625 
Q 39.453125 6.390625 43.28125 13.890625 
Q 47.125 21.390625 47.125 36.375 
Q 47.125 51.421875 43.28125 58.90625 
Q 39.453125 66.40625 31.78125 66.40625 
z
M 31.78125 74.21875 
Q 44.046875 74.21875 50.515625 64.515625 
Q 56.984375 54.828125 56.984375 36.375 
Q 56.984375 17.96875 50.515625 8.265625 
Q 44.046875 -1.421875 31.78125 -1.421875 
Q 19.53125 -1.421875 13.0625 8.265625 
Q 6.59375 17.96875 6.59375 36.375 
Q 6.59375 54.828125 13.0625 64.515625 
Q 19.53125 74.21875 31.78125 74.21875 
z
" id="DejaVuSans-48"/>
      </defs>
      <g transform="translate(228.361333 625.43375)scale(0.4 -0.4)">
       <use xlink:href="#DejaVuSans-48"/>
      </g>
     </g>
    </g>
    <g id="xtick_2">
     <g id="line2d_2">
      <g>
       <use style="stroke:#000000;stroke-width:0.8;" x="363.939" xlink:href="#m2acfc621bc" y="588.04"/>
      </g>
     </g>
     <g id="text_2">
      <!-- 2 -->
      <defs>
       <path d="M 19.1875 8.296875 
L 53.609375 8.296875 
L 53.609375 0 
L 7.328125 0 
L 7.328125 8.296875 
Q 12.9375 14.109375 22.625 23.890625 
Q 32.328125 33.6875 34.8125 36.53125 
Q 39.546875 41.84375 41.421875 45.53125 
Q 43.3125 49.21875 43.3125 52.78125 
Q 43.3125 58.59375 39.234375 62.25 
Q 35.15625 65.921875 28.609375 65.921875 
Q 23.96875 65.921875 18.8125 64.3125 
Q 13.671875 62.703125 7.8125 59.421875 
L 7.8125 69.390625 
Q 13.765625 71.78125 18.9375 73 
Q 24.125 74.21875 28.421875 74.21875 
Q 39.75 74.21875 46.484375 68.546875 
Q 53.21875 62.890625 53.21875 53.421875 
Q 53.21875 48.921875 51.53125 44.890625 
Q 49.859375 40.875 45.40625 35.40625 
Q 44.1875 33.984375 37.640625 27.21875 
Q 31.109375 20.453125 19.1875 8.296875 
z
" id="DejaVuSans-50"/>
      </defs>
      <g transform="translate(351.214 625.43375)scale(0.4 -0.4)">
       <use xlink:href="#DejaVuSans-50"/>
      </g>
     </g>
    </g>
    <g id="xtick_3">
     <g id="line2d_3">
      <g>
       <use style="stroke:#000000;stroke-width:0.8;" x="486.791667" xlink:href="#m2acfc621bc" y="588.04"/>
      </g>
     </g>
     <g id="text_3">
      <!-- 4 -->
      <defs>
       <path d="M 37.796875 64.3125 
L 12.890625 25.390625 
L 37.796875 25.390625 
z
M 35.203125 72.90625 
L 47.609375 72.90625 
L 47.609375 25.390625 
L 58.015625 25.390625 
L 58.015625 17.1875 
L 47.609375 17.1875 
L 47.609375 0 
L 37.796875 0 
L 37.796875 17.1875 
L 4.890625 17.1875 
L 4.890625 26.703125 
z
" id="DejaVuSans-52"/>
      </defs>
      <g transform="translate(474.066667 625.43375)scale(0.4 -0.4)">
       <use xlink:href="#DejaVuSans-52"/>
      </g>
     </g>
    </g>
    <g id="xtick_4">
     <g id="line2d_4">
      <g>
       <use style="stroke:#000000;stroke-width:0.8;" x="609.644333" xlink:href="#m2acfc621bc" y="588.04"/>
      </g>
     </g>
     <g id="text_4">
      <!-- 6 -->
      <defs>
       <path d="M 33.015625 40.375 
Q 26.375 40.375 22.484375 35.828125 
Q 18.609375 31.296875 18.609375 23.390625 
Q 18.609375 15.53125 22.484375 10.953125 
Q 26.375 6.390625 33.015625 6.390625 
Q 39.65625 6.390625 43.53125 10.953125 
Q 47.40625 15.53125 47.40625 23.390625 
Q 47.40625 31.296875 43.53125 35.828125 
Q 39.65625 40.375 33.015625 40.375 
z
M 52.59375 71.296875 
L 52.59375 62.3125 
Q 48.875 64.0625 45.09375 64.984375 
Q 41.3125 65.921875 37.59375 65.921875 
Q 27.828125 65.921875 22.671875 59.328125 
Q 17.53125 52.734375 16.796875 39.40625 
Q 19.671875 43.65625 24.015625 45.921875 
Q 28.375 48.1875 33.59375 48.1875 
Q 44.578125 48.1875 50.953125 41.515625 
Q 57.328125 34.859375 57.328125 23.390625 
Q 57.328125 12.15625 50.6875 5.359375 
Q 44.046875 -1.421875 33.015625 -1.421875 
Q 20.359375 -1.421875 13.671875 8.265625 
Q 6.984375 17.96875 6.984375 36.375 
Q 6.984375 53.65625 15.1875 63.9375 
Q 23.390625 74.21875 37.203125 74.21875 
Q 40.921875 74.21875 44.703125 73.484375 
Q 48.484375 72.75 52.59375 71.296875 
z
" id="DejaVuSans-54"/>
      </defs>
      <g transform="translate(596.919333 625.43375)scale(0.4 -0.4)">
       <use xlink:href="#DejaVuSans-54"/>
      </g>
     </g>
    </g>
    <g id="xtick_5">
     <g id="line2d_5">
      <g>
       <use style="stroke:#000000;stroke-width:0.8;" x="732.497" xlink:href="#m2acfc621bc" y="588.04"/>
      </g>
     </g>
     <g id="text_5">
      <!-- 8 -->
      <defs>
       <path d="M 31.78125 34.625 
Q 24.75 34.625 20.71875 30.859375 
Q 16.703125 27.09375 16.703125 20.515625 
Q 16.703125 13.921875 20.71875 10.15625 
Q 24.75 6.390625 31.78125 6.390625 
Q 38.8125 6.390625 42.859375 10.171875 
Q 46.921875 13.96875 46.921875 20.515625 
Q 46.921875 27.09375 42.890625 30.859375 
Q 38.875 34.625 31.78125 34.625 
z
M 21.921875 38.8125 
Q 15.578125 40.375 12.03125 44.71875 
Q 8.5 49.078125 8.5 55.328125 
Q 8.5 64.0625 14.71875 69.140625 
Q 20.953125 74.21875 31.78125 74.21875 
Q 42.671875 74.21875 48.875 69.140625 
Q 55.078125 64.0625 55.078125 55.328125 
Q 55.078125 49.078125 51.53125 44.71875 
Q 48 40.375 41.703125 38.8125 
Q 48.828125 37.15625 52.796875 32.3125 
Q 56.78125 27.484375 56.78125 20.515625 
Q 56.78125 9.90625 50.3125 4.234375 
Q 43.84375 -1.421875 31.78125 -1.421875 
Q 19.734375 -1.421875 13.25 4.234375 
Q 6.78125 9.90625 6.78125 20.515625 
Q 6.78125 27.484375 10.78125 32.3125 
Q 14.796875 37.15625 21.921875 38.8125 
z
M 18.3125 54.390625 
Q 18.3125 48.734375 21.84375 45.5625 
Q 25.390625 42.390625 31.78125 42.390625 
Q 38.140625 42.390625 41.71875 45.5625 
Q 45.3125 48.734375 45.3125 54.390625 
Q 45.3125 60.0625 41.71875 63.234375 
Q 38.140625 66.40625 31.78125 66.40625 
Q 25.390625 66.40625 21.84375 63.234375 
Q 18.3125 60.0625 18.3125 54.390625 
z
" id="DejaVuSans-56"/>
      </defs>
      <g transform="translate(719.772 625.43375)scale(0.4 -0.4)">
       <use xlink:href="#DejaVuSans-56"/>
      </g>
     </g>
    </g>
    <g id="xtick_6">
     <g id="line2d_6">
      <g>
       <use style="stroke:#000000;stroke-width:0.8;" x="855.349667" xlink:href="#m2acfc621bc" y="588.04"/>
      </g>
     </g>
     <g id="text_6">
      <!-- 10 -->
      <defs>
       <path d="M 12.40625 8.296875 
L 28.515625 8.296875 
L 28.515625 63.921875 
L 10.984375 60.40625 
L 10.984375 69.390625 
L 28.421875 72.90625 
L 38.28125 72.90625 
L 38.28125 8.296875 
L 54.390625 8.296875 
L 54.390625 0 
L 12.40625 0 
z
" id="DejaVuSans-49"/>
      </defs>
      <g transform="translate(829.899667 625.43375)scale(0.4 -0.4)">
       <use xlink:href="#DejaVuSans-49"/>
       <use x="63.623047" xlink:href="#DejaVuSans-48"/>
      </g>
     </g>
    </g>
    <g id="text_7">
     <!-- Time (s) -->
     <defs>
      <path d="M -0.296875 72.90625 
L 61.375 72.90625 
L 61.375 64.59375 
L 35.5 64.59375 
L 35.5 0 
L 25.59375 0 
L 25.59375 64.59375 
L -0.296875 64.59375 
z
" id="DejaVuSans-84"/>
      <path d="M 9.421875 54.6875 
L 18.40625 54.6875 
L 18.40625 0 
L 9.421875 0 
z
M 9.421875 75.984375 
L 18.40625 75.984375 
L 18.40625 64.59375 
L 9.421875 64.59375 
z
" id="DejaVuSans-105"/>
      <path d="M 52 44.1875 
Q 55.375 50.25 60.0625 53.125 
Q 64.75 56 71.09375 56 
Q 79.640625 56 84.28125 50.015625 
Q 88.921875 44.046875 88.921875 33.015625 
L 88.921875 0 
L 79.890625 0 
L 79.890625 32.71875 
Q 79.890625 40.578125 77.09375 44.375 
Q 74.3125 48.1875 68.609375 48.1875 
Q 61.625 48.1875 57.5625 43.546875 
Q 53.515625 38.921875 53.515625 30.90625 
L 53.515625 0 
L 44.484375 0 
L 44.484375 32.71875 
Q 44.484375 40.625 41.703125 44.40625 
Q 38.921875 48.1875 33.109375 48.1875 
Q 26.21875 48.1875 22.15625 43.53125 
Q 18.109375 38.875 18.109375 30.90625 
L 18.109375 0 
L 9.078125 0 
L 9.078125 54.6875 
L 18.109375 54.6875 
L 18.109375 46.1875 
Q 21.1875 51.21875 25.484375 53.609375 
Q 29.78125 56 35.6875 56 
Q 41.65625 56 45.828125 52.96875 
Q 50 49.953125 52 44.1875 
z
" id="DejaVuSans-109"/>
      <path d="M 56.203125 29.59375 
L 56.203125 25.203125 
L 14.890625 25.203125 
Q 15.484375 15.921875 20.484375 11.0625 
Q 25.484375 6.203125 34.421875 6.203125 
Q 39.59375 6.203125 44.453125 7.46875 
Q 49.3125 8.734375 54.109375 11.28125 
L 54.109375 2.78125 
Q 49.265625 0.734375 44.1875 -0.34375 
Q 39.109375 -1.421875 33.890625 -1.421875 
Q 20.796875 -1.421875 13.15625 6.1875 
Q 5.515625 13.8125 5.515625 26.8125 
Q 5.515625 40.234375 12.765625 48.109375 
Q 20.015625 56 32.328125 56 
Q 43.359375 56 49.78125 48.890625 
Q 56.203125 41.796875 56.203125 29.59375 
z
M 47.21875 32.234375 
Q 47.125 39.59375 43.09375 43.984375 
Q 39.0625 48.390625 32.421875 48.390625 
Q 24.90625 48.390625 20.390625 44.140625 
Q 15.875 39.890625 15.1875 32.171875 
z
" id="DejaVuSans-101"/>
      <path id="DejaVuSans-32"/>
      <path d="M 31 75.875 
Q 24.46875 64.65625 21.28125 53.65625 
Q 18.109375 42.671875 18.109375 31.390625 
Q 18.109375 20.125 21.3125 9.0625 
Q 24.515625 -2 31 -13.1875 
L 23.1875 -13.1875 
Q 15.875 -1.703125 12.234375 9.375 
Q 8.59375 20.453125 8.59375 31.390625 
Q 8.59375 42.28125 12.203125 53.3125 
Q 15.828125 64.359375 23.1875 75.875 
z
" id="DejaVuSans-40"/>
      <path d="M 44.28125 53.078125 
L 44.28125 44.578125 
Q 40.484375 46.53125 36.375 47.5 
Q 32.28125 48.484375 27.875 48.484375 
Q 21.1875 48.484375 17.84375 46.4375 
Q 14.5 44.390625 14.5 40.28125 
Q 14.5 37.15625 16.890625 35.375 
Q 19.28125 33.59375 26.515625 31.984375 
L 29.59375 31.296875 
Q 39.15625 29.25 43.1875 25.515625 
Q 47.21875 21.78125 47.21875 15.09375 
Q 47.21875 7.46875 41.1875 3.015625 
Q 35.15625 -1.421875 24.609375 -1.421875 
Q 20.21875 -1.421875 15.453125 -0.5625 
Q 10.6875 0.296875 5.421875 2 
L 5.421875 11.28125 
Q 10.40625 8.6875 15.234375 7.390625 
Q 20.0625 6.109375 24.8125 6.109375 
Q 31.15625 6.109375 34.5625 8.28125 
Q 37.984375 10.453125 37.984375 14.40625 
Q 37.984375 18.0625 35.515625 20.015625 
Q 33.0625 21.96875 24.703125 23.78125 
L 21.578125 24.515625 
Q 13.234375 26.265625 9.515625 29.90625 
Q 5.8125 33.546875 5.8125 39.890625 
Q 5.8125 47.609375 11.28125 51.796875 
Q 16.75 56 26.8125 56 
Q 31.78125 56 36.171875 55.265625 
Q 40.578125 54.546875 44.28125 53.078125 
z
" id="DejaVuSans-115"/>
      <path d="M 8.015625 75.875 
L 15.828125 75.875 
Q 23.140625 64.359375 26.78125 53.3125 
Q 30.421875 42.28125 30.421875 31.390625 
Q 30.421875 20.453125 26.78125 9.375 
Q 23.140625 -1.703125 15.828125 -13.1875 
L 8.015625 -13.1875 
Q 14.5 -2 17.703125 9.0625 
Q 20.90625 20.125 20.90625 31.390625 
Q 20.90625 42.671875 17.703125 53.65625 
Q 14.5 64.65625 8.015625 75.875 
z
" id="DejaVuSans-41"/>
     </defs>
     <g transform="translate(466.28675 668.14625)scale(0.4 -0.4)">
      <use xlink:href="#DejaVuSans-84"/>
      <use x="61.037109" xlink:href="#DejaVuSans-105"/>
      <use x="88.820312" xlink:href="#DejaVuSans-109"/>
      <use x="186.232422" xlink:href="#DejaVuSans-101"/>
      <use x="247.755859" xlink:href="#DejaVuSans-32"/>
      <use x="279.542969" xlink:href="#DejaVuSans-40"/>
      <use x="318.556641" xlink:href="#DejaVuSans-115"/>
      <use x="370.65625" xlink:href="#DejaVuSans-41"/>
     </g>
    </g>
   </g>
   <g id="matplotlib.axis_2">
    <g id="ytick_1">
     <g id="line2d_7">
      <defs>
       <path d="M 0 0 
L -3.5 0 
" id="m279a53e221" style="stroke:#000000;stroke-width:0.8;"/>
      </defs>
      <g>
       <use style="stroke:#000000;stroke-width:0.8;" x="179.66" xlink:href="#m279a53e221" y="533.556"/>
      </g>
     </g>
     <g id="text_8">
      <!-- −20 -->
      <defs>
       <path d="M 10.59375 35.5 
L 73.1875 35.5 
L 73.1875 27.203125 
L 10.59375 27.203125 
z
" id="DejaVuSans-8722"/>
      </defs>
      <g transform="translate(88.24125 548.752875)scale(0.4 -0.4)">
       <use xlink:href="#DejaVuSans-8722"/>
       <use x="83.789062" xlink:href="#DejaVuSans-50"/>
       <use x="147.412109" xlink:href="#DejaVuSans-48"/>
      </g>
     </g>
    </g>
    <g id="ytick_2">
     <g id="line2d_8">
      <g>
       <use style="stroke:#000000;stroke-width:0.8;" x="179.66" xlink:href="#m279a53e221" y="424.588"/>
      </g>
     </g>
     <g id="text_9">
      <!-- −10 -->
      <g transform="translate(88.24125 439.784875)scale(0.4 -0.4)">
       <use xlink:href="#DejaVuSans-8722"/>
       <use x="83.789062" xlink:href="#DejaVuSans-49"/>
       <use x="147.412109" xlink:href="#DejaVuSans-48"/>
      </g>
     </g>
    </g>
    <g id="ytick_3">
     <g id="line2d_9">
      <g>
       <use style="stroke:#000000;stroke-width:0.8;" x="179.66" xlink:href="#m279a53e221" y="315.62"/>
      </g>
     </g>
     <g id="text_10">
      <!-- 0 -->
      <g transform="translate(147.21 330.816875)scale(0.4 -0.4)">
       <use xlink:href="#DejaVuSans-48"/>
      </g>
     </g>
    </g>
    <g id="ytick_4">
     <g id="line2d_10">
      <g>
       <use style="stroke:#000000;stroke-width:0.8;" x="179.66" xlink:href="#m279a53e221" y="206.652"/>
      </g>
     </g>
     <g id="text_11">
      <!-- 10 -->
      <g transform="translate(121.76 221.848875)scale(0.4 -0.4)">
       <use xlink:href="#DejaVuSans-49"/>
       <use x="63.623047" xlink:href="#DejaVuSans-48"/>
      </g>
     </g>
    </g>
    <g id="ytick_5">
     <g id="line2d_11">
      <g>
       <use style="stroke:#000000;stroke-width:0.8;" x="179.66" xlink:href="#m279a53e221" y="97.684"/>
      </g>
     </g>
     <g id="text_12">
      <!-- 20 -->
      <g transform="translate(121.76 112.880875)scale(0.4 -0.4)">
       <use xlink:href="#DejaVuSans-50"/>
       <use x="63.623047" xlink:href="#DejaVuSans-48"/>
      </g>
     </g>
    </g>
    <g id="text_13">
     <!-- $\tan (\psi)$ -->
     <defs>
      <path d="M 18.3125 70.21875 
L 18.3125 54.6875 
L 36.8125 54.6875 
L 36.8125 47.703125 
L 18.3125 47.703125 
L 18.3125 18.015625 
Q 18.3125 11.328125 20.140625 9.421875 
Q 21.96875 7.515625 27.59375 7.515625 
L 36.8125 7.515625 
L 36.8125 0 
L 27.59375 0 
Q 17.1875 0 13.234375 3.875 
Q 9.28125 7.765625 9.28125 18.015625 
L 9.28125 47.703125 
L 2.6875 47.703125 
L 2.6875 54.6875 
L 9.28125 54.6875 
L 9.28125 70.21875 
z
" id="DejaVuSans-116"/>
      <path d="M 34.28125 27.484375 
Q 23.390625 27.484375 19.1875 25 
Q 14.984375 22.515625 14.984375 16.5 
Q 14.984375 11.71875 18.140625 8.90625 
Q 21.296875 6.109375 26.703125 6.109375 
Q 34.1875 6.109375 38.703125 11.40625 
Q 43.21875 16.703125 43.21875 25.484375 
L 43.21875 27.484375 
z
M 52.203125 31.203125 
L 52.203125 0 
L 43.21875 0 
L 43.21875 8.296875 
Q 40.140625 3.328125 35.546875 0.953125 
Q 30.953125 -1.421875 24.3125 -1.421875 
Q 15.921875 -1.421875 10.953125 3.296875 
Q 6 8.015625 6 15.921875 
Q 6 25.140625 12.171875 29.828125 
Q 18.359375 34.515625 30.609375 34.515625 
L 43.21875 34.515625 
L 43.21875 35.40625 
Q 43.21875 41.609375 39.140625 45 
Q 35.0625 48.390625 27.6875 48.390625 
Q 23 48.390625 18.546875 47.265625 
Q 14.109375 46.140625 10.015625 43.890625 
L 10.015625 52.203125 
Q 14.9375 54.109375 19.578125 55.046875 
Q 24.21875 56 28.609375 56 
Q 40.484375 56 46.34375 49.84375 
Q 52.203125 43.703125 52.203125 31.203125 
z
" id="DejaVuSans-97"/>
      <path d="M 54.890625 33.015625 
L 54.890625 0 
L 45.90625 0 
L 45.90625 32.71875 
Q 45.90625 40.484375 42.875 44.328125 
Q 39.84375 48.1875 33.796875 48.1875 
Q 26.515625 48.1875 22.3125 43.546875 
Q 18.109375 38.921875 18.109375 30.90625 
L 18.109375 0 
L 9.078125 0 
L 9.078125 54.6875 
L 18.109375 54.6875 
L 18.109375 46.1875 
Q 21.34375 51.125 25.703125 53.5625 
Q 30.078125 56 35.796875 56 
Q 45.21875 56 50.046875 50.171875 
Q 54.890625 44.34375 54.890625 33.015625 
z
" id="DejaVuSans-110"/>
      <path d="M 24.859375 -1.21875 
Q 13.921875 0.59375 9.625 5.328125 
Q 4.34375 11.140625 6.640625 23 
L 12.796875 54.6875 
L 21.875 54.6875 
L 15.765625 23.34375 
Q 14.0625 14.40625 17.484375 10.6875 
Q 20.515625 7.46875 26.421875 6.78125 
L 35.6875 54.6875 
L 44.625 54.6875 
L 35.359375 6.84375 
Q 41.890625 7.515625 45.75 10.75 
Q 50.734375 14.84375 52.390625 23.390625 
L 58.453125 54.6875 
L 67.53125 54.6875 
L 61.375 23.046875 
Q 58.984375 10.75 51.5625 5.375 
Q 44.875 0.53125 33.796875 -1.171875 
L 29.984375 -20.796875 
L 21.046875 -20.796875 
z
" id="DejaVuSans-Oblique-968"/>
     </defs>
     <g transform="translate(75.84125 377.22)rotate(-90)scale(0.4 -0.4)">
      <use transform="translate(0 0.125)" xlink:href="#DejaVuSans-116"/>
      <use transform="translate(39.208984 0.125)" xlink:href="#DejaVuSans-97"/>
      <use transform="translate(100.488281 0.125)" xlink:href="#DejaVuSans-110"/>
      <use transform="translate(163.867188 0.125)" xlink:href="#DejaVuSans-40"/>
      <use transform="translate(202.880859 0.125)" xlink:href="#DejaVuSans-Oblique-968"/>
      <use transform="translate(268.847656 0.125)" xlink:href="#DejaVuSans-41"/>
     </g>
    </g>
   </g>
   <g id="line2d_12">
    <path clip-path="url(#pb9da7e93ed)" d="M 241.647568 721 
L 241.647605 -1 
M 243.226441 -1 
L 243.331599 17.623541 
L 243.892916 77.280262 
L 244.454232 117.060612 
L 245.015549 145.482907 
L 245.576865 166.806243 
L 246.138182 183.39676 
L 247.260815 207.541778 
L 248.383448 224.271687 
L 249.506081 236.551523 
L 250.628714 245.950991 
L 251.751347 253.378853 
L 252.87398 259.39767 
L 253.996613 264.374319 
L 255.119246 268.558272 
L 256.241879 272.12508 
L 257.925828 276.586943 
L 259.609777 280.23971 
L 261.293727 283.284088 
L 262.977676 285.85902 
L 264.661626 288.063742 
L 266.345575 289.971023 
L 268.590841 292.143774 
L 270.836107 293.978798 
L 273.081373 295.544785 
L 275.887956 297.199872 
L 278.694538 298.585403 
L 282.062437 299.964965 
L 285.430336 301.096506 
L 289.359551 302.16498 
L 293.288767 303.012786 
L 297.779299 303.760247 
L 302.831147 304.366959 
L 308.444312 304.797501 
L 314.057477 305.008291 
L 320.231958 305.016173 
L 326.40644 304.809102 
L 333.142238 304.349782 
L 339.316719 303.716081 
L 345.4912 302.871965 
L 351.665682 301.802555 
L 357.278847 300.615213 
L 362.892012 299.197346 
L 367.94386 297.696751 
L 372.995708 295.950878 
L 377.48624 294.160697 
L 381.976772 292.109334 
L 385.905988 290.065422 
L 389.835203 287.750817 
L 393.203102 285.517426 
L 396.571001 283.017523 
L 399.9389 280.209362 
L 402.745482 277.597478 
L 405.552065 274.701238 
L 408.358647 271.478655 
L 411.16523 267.87941 
L 413.971812 263.84277 
L 416.217078 260.249417 
L 418.462344 256.283827 
L 420.70761 251.89229 
L 422.952876 247.010764 
L 425.198142 241.562356 
L 427.443408 235.454024 
L 429.688674 228.572232 
L 431.93394 220.777143 
L 433.617889 214.228369 
L 435.301839 206.979515 
L 436.985788 198.923645 
L 438.669738 189.931841 
L 440.353687 179.84737 
L 442.037637 168.477912 
L 443.721586 155.585047 
L 445.405536 140.869816 
L 447.089485 123.952544 
L 448.773434 104.344057 
L 450.457384 81.403749 
L 452.141333 54.276869 
L 453.825283 21.798009 
L 454.836429 -1 
M 472.642234 -1 
L 472.648977 721 
M 510.60643 721 
L 510.609969 -1 
M 529.345485 -1 
L 530.725642 28.290829 
L 532.409591 58.412411 
L 534.093541 83.772466 
L 535.77749 105.369046 
L 537.46144 123.943554 
L 539.145389 140.057812 
L 540.829339 154.144993 
L 542.513288 166.544189 
L 544.197238 177.52444 
L 545.881187 187.30177 
L 547.565137 196.051515 
L 549.810403 206.364039 
L 552.055669 215.376486 
L 554.300934 223.304487 
L 556.5462 230.319792 
L 558.791466 236.560742 
L 561.036732 242.139905 
L 563.281998 247.149716 
L 565.527264 251.666718 
L 567.77253 255.754775 
L 570.579113 260.342584 
L 573.385695 264.430444 
L 576.192278 268.089577 
L 578.99886 271.378754 
L 581.805442 274.346852 
L 584.612025 277.034803 
L 587.979924 279.938749 
L 591.347823 282.538527 
L 594.715722 284.875344 
L 598.644937 287.31475 
L 602.574153 289.487845 
L 607.064684 291.692488 
L 611.555216 293.642627 
L 616.607065 295.577701 
L 621.658913 297.279117 
L 627.272078 298.936609 
L 633.446559 300.519232 
L 640.182357 302.0024 
L 647.479472 303.366562 
L 655.337903 304.595416 
L 663.75765 305.673711 
L 672.738714 306.584547 
L 681.719778 307.270219 
L 690.700841 307.741215 
L 699.681905 307.996617 
L 708.662969 308.023449 
L 717.082716 307.816929 
L 724.379831 307.427445 
L 731.115629 306.861254 
L 737.29011 306.131168 
L 742.903275 305.252179 
L 747.955123 304.243608 
L 752.445655 303.131433 
L 756.374871 301.950656 
L 760.304086 300.526723 
L 763.671985 299.062729 
L 766.478567 297.627142 
L 769.28515 295.946399 
L 771.530416 294.383145 
L 773.775682 292.578527 
L 776.020948 290.473532 
L 778.266214 287.987255 
L 779.950163 285.805444 
L 781.634113 283.28002 
L 783.318062 280.32166 
L 785.002012 276.806489 
L 786.685961 272.557564 
L 787.808594 269.192965 
L 788.931227 265.279481 
L 790.05386 260.668198 
L 791.176493 255.150636 
L 792.299126 248.42566 
L 793.421759 240.041567 
L 794.544392 229.288542 
L 795.667025 214.98355 
L 796.228341 205.894104 
L 796.789658 194.99712 
L 797.350974 181.690318 
L 797.912291 165.070275 
L 798.473607 143.717315 
L 799.034924 115.265294 
L 799.59624 75.455112 
L 800.252211 -1 
M 801.841552 -1 
L 801.841589 721 
L 801.841589 721 
" style="fill:none;stroke:#1f77b4;stroke-linecap:square;stroke-width:4;"/>
   </g>
   <g id="line2d_13">
    <path clip-path="url(#pb9da7e93ed)" d="M 241.555391 721 
L 241.555422 -1 
M 243.225639 -1 
L 243.432015 30.396201 
L 243.901151 77.984868 
L 244.370288 111.984191 
L 245.308561 157.333936 
L 246.246833 186.2115 
L 247.185106 206.219 
L 248.123379 220.903981 
L 249.061651 232.144473 
L 249.999924 241.027695 
L 250.938197 248.226636 
L 251.876469 254.180156 
L 253.283879 261.402878 
L 254.691288 267.14034 
L 256.098697 271.808677 
L 257.506106 275.681252 
L 258.913515 278.945028 
L 260.320924 281.73219 
L 262.197469 284.869403 
L 264.074015 287.490659 
L 265.95056 289.709938 
L 267.827106 291.609221 
L 270.172787 293.624013 
L 272.518469 295.319014 
L 274.864151 296.756994 
L 277.678969 298.208093 
L 280.493787 299.415424 
L 283.777742 300.574096 
L 287.530832 301.630896 
L 291.283923 302.455718 
L 295.50615 303.156659 
L 300.197514 303.702201 
L 305.358014 304.065309 
L 310.98765 304.220252 
L 316.617286 304.153617 
L 322.716059 303.851772 
L 328.814832 303.319234 
L 334.913604 302.552099 
L 340.543241 301.622276 
L 346.172877 300.457308 
L 351.333377 299.155482 
L 356.02474 297.748622 
L 360.246967 296.272286 
L 364.469195 294.565 
L 368.222285 292.822475 
L 371.975376 290.833433 
L 375.259331 288.858534 
L 378.543285 286.629668 
L 381.82724 284.106013 
L 384.642058 281.670863 
L 387.456876 278.945056 
L 390.271694 275.883416 
L 392.617376 273.036596 
L 394.963058 269.881527 
L 397.308739 266.374043 
L 399.654421 262.461816 
L 402.000103 258.082517 
L 404.345785 253.161483 
L 406.691467 247.608748 
L 408.568012 242.639184 
L 410.444557 237.129295 
L 412.321103 231.000534 
L 414.197648 224.159937 
L 416.074194 216.496945 
L 417.950739 207.879419 
L 419.827284 198.148618 
L 421.70383 187.112846 
L 423.580375 174.539383 
L 425.456921 160.14423 
L 427.333466 143.57904 
L 429.210012 124.41453 
L 430.617421 108.020339 
L 432.02483 89.597898 
L 433.432239 68.829487 
L 434.839648 45.341221 
L 436.247057 18.693835 
L 437.181767 -1 
M 481.923232 -1 
L 483.160692 24.734068 
L 484.568101 50.633734 
L 486.444647 80.497916 
L 488.321192 105.910225 
L 490.197738 127.658651 
L 492.074283 146.377498 
L 493.950829 162.578152 
L 495.827374 176.67422 
L 497.703919 189.001631 
L 499.580465 199.834532 
L 501.45701 209.397801 
L 503.333556 217.876864 
L 505.210101 225.42543 
L 507.086646 232.171577 
L 508.963192 238.222573 
L 511.308874 244.94494 
L 513.654555 250.867597 
L 516.000237 256.110118 
L 518.345919 260.770832 
L 520.691601 264.931119 
L 523.037283 268.658747 
L 525.382964 272.010475 
L 528.197782 275.603134 
L 531.012601 278.79185 
L 533.827419 281.633433 
L 536.642237 284.175022 
L 539.926191 286.813198 
L 543.210146 289.148177 
L 546.4941 291.222515 
L 550.247191 293.318888 
L 554.000282 295.163773 
L 558.222509 296.982268 
L 562.444736 298.567619 
L 567.1361 300.095412 
L 572.2966 301.533136 
L 577.926236 302.854179 
L 584.025009 304.036461 
L 590.123781 304.995249 
L 596.69169 305.808411 
L 603.728736 306.45296 
L 610.765781 306.880547 
L 618.271963 307.106639 
L 625.309008 307.101316 
L 632.346053 306.873357 
L 638.913962 306.437902 
L 645.012735 305.811239 
L 650.642371 305.006427 
L 655.802871 304.035799 
L 660.494234 302.91351 
L 664.716462 301.658337 
L 668.469553 300.296774 
L 671.753507 298.866227 
L 674.568325 297.417717 
L 677.383143 295.712455 
L 679.728825 294.047191 
L 682.074507 292.10385 
L 683.951052 290.30115 
L 685.827598 288.224981 
L 687.704143 285.809234 
L 689.580688 282.963935 
L 690.988098 280.474266 
L 692.395507 277.601138 
L 693.802916 274.24768 
L 695.210325 270.280839 
L 696.617734 265.512684 
L 698.025143 259.668771 
L 698.963416 254.977669 
L 699.901688 249.449432 
L 700.839961 242.834329 
L 701.778234 234.771742 
L 702.716506 224.720876 
L 703.654779 211.832068 
L 704.593052 194.689421 
L 705.531325 170.744588 
L 706.000461 154.805689 
L 706.469597 134.901229 
L 706.938734 109.332495 
L 707.40787 75.268318 
L 708.064902 -1 
M 709.7536 -1 
L 709.753631 721 
L 709.753631 721 
" style="fill:none;stroke:#ff7f0e;stroke-linecap:square;stroke-width:4;"/>
   </g>
   <g id="line2d_14">
    <path clip-path="url(#pb9da7e93ed)" d="M 241.523617 721 
L 241.523646 -1 
M 243.212269 -1 
L 243.273142 9.654651 
L 243.710504 60.697041 
L 244.585227 124.51808 
L 245.459951 162.829909 
L 246.334674 188.386782 
L 247.209397 206.654648 
L 248.084121 220.366379 
L 248.958844 231.040165 
L 249.833568 239.586858 
L 250.708291 246.586042 
L 252.020376 254.994556 
L 253.332462 261.609915 
L 254.644547 266.951065 
L 255.956632 271.353691 
L 257.268717 275.044528 
L 258.580802 278.182232 
L 260.330249 281.698541 
L 262.079696 284.62415 
L 263.829143 287.092486 
L 265.57859 289.198864 
L 267.765398 291.427626 
L 269.952207 293.298563 
L 272.139016 294.88346 
L 274.763186 296.48149 
L 277.387356 297.811118 
L 280.448888 299.088783 
L 283.51042 300.126642 
L 287.009314 301.073556 
L 290.94557 301.88914 
L 295.319187 302.541196 
L 299.692804 302.970839 
L 304.503783 303.225407 
L 309.752124 303.275688 
L 315.000464 303.111413 
L 320.686167 302.704941 
L 326.371869 302.063034 
L 331.62021 301.253729 
L 336.86855 300.220055 
L 341.679529 299.05426 
L 346.490508 297.652265 
L 350.864125 296.143141 
L 354.800381 294.565055 
L 358.736636 292.746688 
L 362.23553 290.897975 
L 365.734424 288.796747 
L 368.795956 286.720269 
L 371.857488 284.388921 
L 374.91902 281.76536 
L 377.54319 279.250597 
L 380.167361 276.455833 
L 382.791531 273.342811 
L 385.415701 269.866892 
L 388.039872 265.975911 
L 390.22668 262.372634 
L 392.413489 258.398155 
L 394.600298 254.006007 
L 396.787106 249.143279 
L 398.973915 243.749843 
L 401.160723 237.757608 
L 403.347532 231.089877 
L 405.534341 223.66094 
L 407.721149 215.376138 
L 409.907958 206.132726 
L 412.094766 195.822039 
L 414.281575 184.333704 
L 416.468384 171.562912 
L 418.655192 157.422089 
L 420.842001 141.858578 
L 423.466171 121.321261 
L 426.090342 98.951194 
L 430.026597 63.167542 
L 433.525491 31.70752 
L 435.712299 14.006185 
L 437.461746 1.883491 
L 437.936966 -1 
M 448.860258 -1 
L 450.145236 7.207319 
L 451.894683 20.23257 
L 454.081492 38.639853 
L 458.017747 74.3862 
L 461.954003 109.376614 
L 464.578173 130.840533 
L 467.202343 150.366766 
L 469.389152 165.085557 
L 471.575961 178.420518 
L 473.762769 190.445491 
L 475.949578 201.258048 
L 478.136386 210.965658 
L 480.323195 219.676827 
L 482.510004 227.495796 
L 484.696812 234.519616 
L 486.883621 240.836815 
L 489.070429 246.527029 
L 491.257238 251.661221 
L 493.444047 256.30223 
L 495.630855 260.505463 
L 498.255026 265.039664 
L 500.879196 269.086385 
L 503.503366 272.708104 
L 506.127537 275.958262 
L 508.751707 278.882624 
L 511.813239 281.934657 
L 514.874771 284.649396 
L 517.936303 287.071339 
L 521.435197 289.528603 
L 524.934091 291.699109 
L 528.432984 293.621716 
L 532.36924 295.528403 
L 536.305495 297.20026 
L 540.679113 298.820316 
L 545.490092 300.353551 
L 550.738432 301.770993 
L 555.986773 302.958967 
L 561.672475 304.021047 
L 567.795539 304.934855 
L 574.355965 305.677774 
L 580.916391 306.197182 
L 587.476817 306.505106 
L 594.037243 306.604779 
L 600.597668 306.490323 
L 606.720733 306.175981 
L 612.843797 305.636913 
L 618.529499 304.901925 
L 623.340478 304.068878 
L 627.714095 303.107419 
L 631.650351 302.038805 
L 635.586606 300.731392 
L 639.0855 299.318174 
L 642.147032 297.837328 
L 644.771202 296.341045 
L 647.395373 294.582843 
L 649.582181 292.868863 
L 651.76899 290.872069 
L 653.955798 288.519634 
L 655.705245 286.314936 
L 657.454692 283.747814 
L 659.204139 280.721772 
L 660.516224 278.071914 
L 661.828309 275.011764 
L 663.140395 271.437401 
L 664.45248 267.206074 
L 665.764565 262.116156 
L 667.07665 255.873205 
L 668.388735 248.029483 
L 669.263459 241.574284 
L 670.138182 233.778622 
L 671.012906 224.171213 
L 671.887629 212.029589 
L 672.762352 196.186908 
L 673.637076 174.628007 
L 674.511799 143.546855 
L 674.949161 122.205462 
L 675.386523 94.788187 
L 675.823885 58.25814 
L 676.307761 -1 
M 678.010742 -1 
L 678.010771 721 
L 678.010771 721 
" style="fill:none;stroke:#2ca02c;stroke-linecap:square;stroke-width:4;"/>
   </g>
   <g id="line2d_15">
    <path clip-path="url(#pb9da7e93ed)" d="M 241.48243 721 
L 241.482457 -1 
M 243.216135 -1 
L 243.463373 34.162533 
L 244.255719 104.609033 
L 245.048065 146.894158 
L 245.840412 175.098285 
L 246.632758 195.255682 
L 247.425105 210.383381 
L 248.217451 222.157437 
L 249.009798 231.583426 
L 250.198317 242.658614 
L 251.386837 251.187033 
L 252.575357 257.957454 
L 253.763876 263.46275 
L 254.952396 268.026726 
L 256.140915 271.870874 
L 257.725608 276.14093 
L 259.310301 279.664341 
L 260.894994 282.617508 
L 262.479687 285.124563 
L 264.06438 287.275417 
L 266.045246 289.563147 
L 268.026112 291.493643 
L 270.006978 293.136873 
L 272.384017 294.802053 
L 274.761057 296.195115 
L 277.534269 297.541851 
L 280.307482 298.643528 
L 283.476867 299.657196 
L 287.042426 300.540397 
L 290.607985 301.198018 
L 294.569717 301.706669 
L 298.927623 302.035345 
L 303.681701 302.153117 
L 308.43578 302.04421 
L 313.189858 301.72231 
L 317.943937 301.191575 
L 322.698016 300.447905 
L 327.452094 299.479441 
L 331.809999 298.377514 
L 336.167905 297.048807 
L 340.129637 295.620592 
L 344.091369 293.955214 
L 347.656928 292.226735 
L 351.222487 290.251095 
L 354.391873 288.260124 
L 357.561258 286.019204 
L 360.730644 283.496229 
L 363.503857 281.02849 
L 366.277069 278.289036 
L 369.050282 275.247183 
L 371.823494 271.869366 
L 374.596707 268.119486 
L 377.369919 263.959664 
L 380.143132 259.351597 
L 382.916344 254.258787 
L 385.689557 248.650002 
L 388.462769 242.504365 
L 391.235982 235.818502 
L 394.405367 227.548038 
L 397.970926 217.565595 
L 408.27143 188.091293 
L 410.252296 183.221136 
L 412.233162 178.952609 
L 413.817855 176.071936 
L 415.006374 174.269572 
L 416.194894 172.803219 
L 417.383414 171.694544 
L 418.571933 170.960257 
L 419.36428 170.684462 
L 420.156626 170.581952 
L 420.948973 170.653325 
L 421.741319 170.897951 
L 422.533666 171.313977 
L 423.722185 172.252431 
L 424.910705 173.554469 
L 426.099224 175.199989 
L 427.683917 177.885449 
L 429.26861 181.070159 
L 431.249476 185.638991 
L 433.626516 191.782669 
L 436.795901 200.67765 
L 445.907885 226.657557 
L 449.077271 234.883686 
L 452.246657 242.456694 
L 455.019869 248.51928 
L 457.793082 254.060039 
L 460.566294 259.100259 
L 463.339507 263.670785 
L 466.112719 267.80727 
L 468.885932 271.546953 
L 471.659144 274.926591 
L 474.432357 277.981202 
L 477.601742 281.115872 
L 480.771128 283.912727 
L 483.940514 286.411207 
L 487.1099 288.646129 
L 490.675458 290.883248 
L 494.241017 292.862995 
L 498.20275 294.799873 
L 502.164482 296.496079 
L 506.522387 298.121168 
L 511.276466 299.645473 
L 516.426717 301.045052 
L 521.576969 302.218726 
L 527.123394 303.263177 
L 533.065992 304.160079 
L 539.404764 304.89041 
L 546.139708 305.431466 
L 552.874653 305.741464 
L 559.609598 305.819408 
L 565.948369 305.667812 
L 571.890967 305.304439 
L 577.437392 304.740475 
L 582.587644 303.98331 
L 586.94555 303.128029 
L 590.907282 302.14019 
L 594.472841 301.040021 
L 597.642226 299.854907 
L 600.811612 298.42772 
L 603.584825 296.931651 
L 605.961864 295.420601 
L 608.338903 293.647083 
L 610.319769 291.921252 
L 612.300635 289.9154 
L 614.281501 287.559786 
L 615.866194 285.360128 
L 617.450887 282.809227 
L 619.03558 279.817196 
L 620.620273 276.259878 
L 621.808792 273.11748 
L 622.997312 269.456467 
L 624.185832 265.136326 
L 625.374351 259.960295 
L 626.562871 253.644105 
L 627.751391 245.761282 
L 628.543737 239.319769 
L 629.336084 231.597441 
L 630.12843 222.167701 
L 630.920776 210.390617 
L 631.713123 195.260544 
L 632.505469 175.101355 
L 633.297816 146.895938 
L 634.090162 104.609945 
L 634.486335 74.415198 
L 635.129749 -1 
M 636.863425 -1 
L 636.863451 721 
L 636.863451 721 
" style="fill:none;stroke:#d62728;stroke-linecap:square;stroke-width:4;"/>
   </g>
   <g id="patch_3">
    <path d="M 179.66 588.04 
L 179.66 43.2 
" style="fill:none;stroke:#000000;stroke-linecap:square;stroke-linejoin:miter;stroke-width:0.8;"/>
   </g>
   <g id="patch_4">
    <path d="M 916.776 588.04 
L 916.776 43.2 
" style="fill:none;stroke:#000000;stroke-linecap:square;stroke-linejoin:miter;stroke-width:0.8;"/>
   </g>
   <g id="patch_5">
    <path d="M 179.66 588.04 
L 916.776 588.04 
" style="fill:none;stroke:#000000;stroke-linecap:square;stroke-linejoin:miter;stroke-width:0.8;"/>
   </g>
   <g id="patch_6">
    <path d="M 179.66 43.2 
L 916.776 43.2 
" style="fill:none;stroke:#000000;stroke-linecap:square;stroke-linejoin:miter;stroke-width:0.8;"/>
   </g>
   <g id="legend_1">
    <g id="patch_7">
     <path d="M 202.06 572.04 
L 565.035 572.04 
Q 571.435 572.04 571.435 565.64 
L 571.435 380.96 
Q 571.435 374.56 565.035 374.56 
L 202.06 374.56 
Q 195.66 374.56 195.66 380.96 
L 195.66 565.64 
Q 195.66 572.04 202.06 572.04 
z
" style="fill:#ffffff;opacity:0.8;stroke:#cccccc;stroke-linejoin:miter;"/>
    </g>
    <g id="line2d_16">
     <path d="M 208.46 400.475 
L 272.46 400.475 
" style="fill:none;stroke:#1f77b4;stroke-linecap:square;stroke-width:4;"/>
    </g>
    <g id="line2d_17"/>
    <g id="text_14">
     <!-- No Elevation -->
     <defs>
      <path d="M 9.8125 72.90625 
L 23.09375 72.90625 
L 55.421875 11.921875 
L 55.421875 72.90625 
L 64.984375 72.90625 
L 64.984375 0 
L 51.703125 0 
L 19.390625 60.984375 
L 19.390625 0 
L 9.8125 0 
z
" id="DejaVuSans-78"/>
      <path d="M 30.609375 48.390625 
Q 23.390625 48.390625 19.1875 42.75 
Q 14.984375 37.109375 14.984375 27.296875 
Q 14.984375 17.484375 19.15625 11.84375 
Q 23.34375 6.203125 30.609375 6.203125 
Q 37.796875 6.203125 41.984375 11.859375 
Q 46.1875 17.53125 46.1875 27.296875 
Q 46.1875 37.015625 41.984375 42.703125 
Q 37.796875 48.390625 30.609375 48.390625 
z
M 30.609375 56 
Q 42.328125 56 49.015625 48.375 
Q 55.71875 40.765625 55.71875 27.296875 
Q 55.71875 13.875 49.015625 6.21875 
Q 42.328125 -1.421875 30.609375 -1.421875 
Q 18.84375 -1.421875 12.171875 6.21875 
Q 5.515625 13.875 5.515625 27.296875 
Q 5.515625 40.765625 12.171875 48.375 
Q 18.84375 56 30.609375 56 
z
" id="DejaVuSans-111"/>
      <path d="M 9.8125 72.90625 
L 55.90625 72.90625 
L 55.90625 64.59375 
L 19.671875 64.59375 
L 19.671875 43.015625 
L 54.390625 43.015625 
L 54.390625 34.71875 
L 19.671875 34.71875 
L 19.671875 8.296875 
L 56.78125 8.296875 
L 56.78125 0 
L 9.8125 0 
z
" id="DejaVuSans-69"/>
      <path d="M 9.421875 75.984375 
L 18.40625 75.984375 
L 18.40625 0 
L 9.421875 0 
z
" id="DejaVuSans-108"/>
      <path d="M 2.984375 54.6875 
L 12.5 54.6875 
L 29.59375 8.796875 
L 46.6875 54.6875 
L 56.203125 54.6875 
L 35.6875 0 
L 23.484375 0 
z
" id="DejaVuSans-118"/>
     </defs>
     <g transform="translate(298.06 411.675)scale(0.32 -0.32)">
      <use xlink:href="#DejaVuSans-78"/>
      <use x="74.804688" xlink:href="#DejaVuSans-111"/>
      <use x="135.986328" xlink:href="#DejaVuSans-32"/>
      <use x="167.773438" xlink:href="#DejaVuSans-69"/>
      <use x="230.957031" xlink:href="#DejaVuSans-108"/>
      <use x="258.740234" xlink:href="#DejaVuSans-101"/>
      <use x="320.263672" xlink:href="#DejaVuSans-118"/>
      <use x="379.443359" xlink:href="#DejaVuSans-97"/>
      <use x="440.722656" xlink:href="#DejaVuSans-116"/>
      <use x="479.931641" xlink:href="#DejaVuSans-105"/>
      <use x="507.714844" xlink:href="#DejaVuSans-111"/>
      <use x="568.896484" xlink:href="#DejaVuSans-110"/>
     </g>
    </g>
    <g id="line2d_18">
     <path d="M 208.46 447.445 
L 272.46 447.445 
" style="fill:none;stroke:#ff7f0e;stroke-linecap:square;stroke-width:4;"/>
    </g>
    <g id="line2d_19"/>
    <g id="text_15">
     <!-- Elevated by 30 -->
     <defs>
      <path d="M 45.40625 46.390625 
L 45.40625 75.984375 
L 54.390625 75.984375 
L 54.390625 0 
L 45.40625 0 
L 45.40625 8.203125 
Q 42.578125 3.328125 38.25 0.953125 
Q 33.9375 -1.421875 27.875 -1.421875 
Q 17.96875 -1.421875 11.734375 6.484375 
Q 5.515625 14.40625 5.515625 27.296875 
Q 5.515625 40.1875 11.734375 48.09375 
Q 17.96875 56 27.875 56 
Q 33.9375 56 38.25 53.625 
Q 42.578125 51.265625 45.40625 46.390625 
z
M 14.796875 27.296875 
Q 14.796875 17.390625 18.875 11.75 
Q 22.953125 6.109375 30.078125 6.109375 
Q 37.203125 6.109375 41.296875 11.75 
Q 45.40625 17.390625 45.40625 27.296875 
Q 45.40625 37.203125 41.296875 42.84375 
Q 37.203125 48.484375 30.078125 48.484375 
Q 22.953125 48.484375 18.875 42.84375 
Q 14.796875 37.203125 14.796875 27.296875 
z
" id="DejaVuSans-100"/>
      <path d="M 48.6875 27.296875 
Q 48.6875 37.203125 44.609375 42.84375 
Q 40.53125 48.484375 33.40625 48.484375 
Q 26.265625 48.484375 22.1875 42.84375 
Q 18.109375 37.203125 18.109375 27.296875 
Q 18.109375 17.390625 22.1875 11.75 
Q 26.265625 6.109375 33.40625 6.109375 
Q 40.53125 6.109375 44.609375 11.75 
Q 48.6875 17.390625 48.6875 27.296875 
z
M 18.109375 46.390625 
Q 20.953125 51.265625 25.265625 53.625 
Q 29.59375 56 35.59375 56 
Q 45.5625 56 51.78125 48.09375 
Q 58.015625 40.1875 58.015625 27.296875 
Q 58.015625 14.40625 51.78125 6.484375 
Q 45.5625 -1.421875 35.59375 -1.421875 
Q 29.59375 -1.421875 25.265625 0.953125 
Q 20.953125 3.328125 18.109375 8.203125 
L 18.109375 0 
L 9.078125 0 
L 9.078125 75.984375 
L 18.109375 75.984375 
z
" id="DejaVuSans-98"/>
      <path d="M 32.171875 -5.078125 
Q 28.375 -14.84375 24.75 -17.8125 
Q 21.140625 -20.796875 15.09375 -20.796875 
L 7.90625 -20.796875 
L 7.90625 -13.28125 
L 13.1875 -13.28125 
Q 16.890625 -13.28125 18.9375 -11.515625 
Q 21 -9.765625 23.484375 -3.21875 
L 25.09375 0.875 
L 2.984375 54.6875 
L 12.5 54.6875 
L 29.59375 11.921875 
L 46.6875 54.6875 
L 56.203125 54.6875 
z
" id="DejaVuSans-121"/>
      <path d="M 40.578125 39.3125 
Q 47.65625 37.796875 51.625 33 
Q 55.609375 28.21875 55.609375 21.1875 
Q 55.609375 10.40625 48.1875 4.484375 
Q 40.765625 -1.421875 27.09375 -1.421875 
Q 22.515625 -1.421875 17.65625 -0.515625 
Q 12.796875 0.390625 7.625 2.203125 
L 7.625 11.71875 
Q 11.71875 9.328125 16.59375 8.109375 
Q 21.484375 6.890625 26.8125 6.890625 
Q 36.078125 6.890625 40.9375 10.546875 
Q 45.796875 14.203125 45.796875 21.1875 
Q 45.796875 27.640625 41.28125 31.265625 
Q 36.765625 34.90625 28.71875 34.90625 
L 20.21875 34.90625 
L 20.21875 43.015625 
L 29.109375 43.015625 
Q 36.375 43.015625 40.234375 45.921875 
Q 44.09375 48.828125 44.09375 54.296875 
Q 44.09375 59.90625 40.109375 62.90625 
Q 36.140625 65.921875 28.71875 65.921875 
Q 24.65625 65.921875 20.015625 65.03125 
Q 15.375 64.15625 9.8125 62.3125 
L 9.8125 71.09375 
Q 15.4375 72.65625 20.34375 73.4375 
Q 25.25 74.21875 29.59375 74.21875 
Q 40.828125 74.21875 47.359375 69.109375 
Q 53.90625 64.015625 53.90625 55.328125 
Q 53.90625 49.265625 50.4375 45.09375 
Q 46.96875 40.921875 40.578125 39.3125 
z
" id="DejaVuSans-51"/>
     </defs>
     <g transform="translate(298.06 458.645)scale(0.32 -0.32)">
      <use xlink:href="#DejaVuSans-69"/>
      <use x="63.183594" xlink:href="#DejaVuSans-108"/>
      <use x="90.966797" xlink:href="#DejaVuSans-101"/>
      <use x="152.490234" xlink:href="#DejaVuSans-118"/>
      <use x="211.669922" xlink:href="#DejaVuSans-97"/>
      <use x="272.949219" xlink:href="#DejaVuSans-116"/>
      <use x="312.158203" xlink:href="#DejaVuSans-101"/>
      <use x="373.681641" xlink:href="#DejaVuSans-100"/>
      <use x="437.158203" xlink:href="#DejaVuSans-32"/>
      <use x="468.945312" xlink:href="#DejaVuSans-98"/>
      <use x="532.421875" xlink:href="#DejaVuSans-121"/>
      <use x="591.601562" xlink:href="#DejaVuSans-32"/>
      <use x="623.388672" xlink:href="#DejaVuSans-51"/>
      <use x="687.011719" xlink:href="#DejaVuSans-48"/>
     </g>
    </g>
    <g id="line2d_20">
     <path d="M 208.46 494.415 
L 272.46 494.415 
" style="fill:none;stroke:#2ca02c;stroke-linecap:square;stroke-width:4;"/>
    </g>
    <g id="line2d_21"/>
    <g id="text_16">
     <!-- Elevated by 100 -->
     <g transform="translate(298.06 505.615)scale(0.32 -0.32)">
      <use xlink:href="#DejaVuSans-69"/>
      <use x="63.183594" xlink:href="#DejaVuSans-108"/>
      <use x="90.966797" xlink:href="#DejaVuSans-101"/>
      <use x="152.490234" xlink:href="#DejaVuSans-118"/>
      <use x="211.669922" xlink:href="#DejaVuSans-97"/>
      <use x="272.949219" xlink:href="#DejaVuSans-116"/>
      <use x="312.158203" xlink:href="#DejaVuSans-101"/>
      <use x="373.681641" xlink:href="#DejaVuSans-100"/>
      <use x="437.158203" xlink:href="#DejaVuSans-32"/>
      <use x="468.945312" xlink:href="#DejaVuSans-98"/>
      <use x="532.421875" xlink:href="#DejaVuSans-121"/>
      <use x="591.601562" xlink:href="#DejaVuSans-32"/>
      <use x="623.388672" xlink:href="#DejaVuSans-49"/>
      <use x="687.011719" xlink:href="#DejaVuSans-48"/>
      <use x="750.634766" xlink:href="#DejaVuSans-48"/>
     </g>
    </g>
    <g id="line2d_22">
     <path d="M 208.46 541.385 
L 272.46 541.385 
" style="fill:none;stroke:#d62728;stroke-linecap:square;stroke-width:4;"/>
    </g>
    <g id="line2d_23"/>
    <g id="text_17">
     <!-- Exact Extrema -->
     <defs>
      <path d="M 54.890625 54.6875 
L 35.109375 28.078125 
L 55.90625 0 
L 45.3125 0 
L 29.390625 21.484375 
L 13.484375 0 
L 2.875 0 
L 24.125 28.609375 
L 4.6875 54.6875 
L 15.28125 54.6875 
L 29.78125 35.203125 
L 44.28125 54.6875 
z
" id="DejaVuSans-120"/>
      <path d="M 48.78125 52.59375 
L 48.78125 44.1875 
Q 44.96875 46.296875 41.140625 47.34375 
Q 37.3125 48.390625 33.40625 48.390625 
Q 24.65625 48.390625 19.8125 42.84375 
Q 14.984375 37.3125 14.984375 27.296875 
Q 14.984375 17.28125 19.8125 11.734375 
Q 24.65625 6.203125 33.40625 6.203125 
Q 37.3125 6.203125 41.140625 7.25 
Q 44.96875 8.296875 48.78125 10.40625 
L 48.78125 2.09375 
Q 45.015625 0.34375 40.984375 -0.53125 
Q 36.96875 -1.421875 32.421875 -1.421875 
Q 20.0625 -1.421875 12.78125 6.34375 
Q 5.515625 14.109375 5.515625 27.296875 
Q 5.515625 40.671875 12.859375 48.328125 
Q 20.21875 56 33.015625 56 
Q 37.15625 56 41.109375 55.140625 
Q 45.0625 54.296875 48.78125 52.59375 
z
" id="DejaVuSans-99"/>
      <path d="M 41.109375 46.296875 
Q 39.59375 47.171875 37.8125 47.578125 
Q 36.03125 48 33.890625 48 
Q 26.265625 48 22.1875 43.046875 
Q 18.109375 38.09375 18.109375 28.8125 
L 18.109375 0 
L 9.078125 0 
L 9.078125 54.6875 
L 18.109375 54.6875 
L 18.109375 46.1875 
Q 20.953125 51.171875 25.484375 53.578125 
Q 30.03125 56 36.53125 56 
Q 37.453125 56 38.578125 55.875 
Q 39.703125 55.765625 41.0625 55.515625 
z
" id="DejaVuSans-114"/>
     </defs>
     <g transform="translate(298.06 552.585)scale(0.32 -0.32)">
      <use xlink:href="#DejaVuSans-69"/>
      <use x="63.183594" xlink:href="#DejaVuSans-120"/>
      <use x="122.363281" xlink:href="#DejaVuSans-97"/>
      <use x="183.642578" xlink:href="#DejaVuSans-99"/>
      <use x="238.623047" xlink:href="#DejaVuSans-116"/>
      <use x="277.832031" xlink:href="#DejaVuSans-32"/>
      <use x="309.619141" xlink:href="#DejaVuSans-69"/>
      <use x="372.802734" xlink:href="#DejaVuSans-120"/>
      <use x="431.982422" xlink:href="#DejaVuSans-116"/>
      <use x="471.191406" xlink:href="#DejaVuSans-114"/>
      <use x="512.273438" xlink:href="#DejaVuSans-101"/>
      <use x="573.796875" xlink:href="#DejaVuSans-109"/>
      <use x="671.208984" xlink:href="#DejaVuSans-97"/>
     </g>
    </g>
   </g>
  </g>
 </g>
 <defs>
  <clipPath id="pb9da7e93ed">
   <rect height="544.84" width="737.116" x="179.66" y="43.2"/>
  </clipPath>
 </defs>
</svg>
