<?xml version="1.0" encoding="utf-8" standalone="no"?>
<!DOCTYPE svg PUBLIC "-//W3C//DTD SVG 1.1//EN"
  "http://www.w3.org/Graphics/SVG/1.1/DTD/svg11.dtd">
<svg height="720pt" version="1.1" viewBox="0 0 959.76 720" width="959.76pt" xmlns="http://www.w3.org/2000/svg" xmlns:xlink="http://www.w3.org/1999/xlink">
 <metadata>
  <rdf:RDF xmlns:cc="http://creativecommons.org/ns#" xmlns:dc="http://purl.org/dc/elements/1.1/" xmlns:rdf="http://www.w3.org/1999/02/22-rdf-syntax-ns#">
   <cc:Work>
    <dc:type rdf:resource="http://purl.org/dc/dcmitype/StillImage"/>
    <dc:date>2021-10-18T16:13:51.326112</dc:date>
    <dc:format>image/svg+xml</dc:format>
    <dc:creator>
     <cc:Agent>
      <dc:title>Matplotlib v3.4.2, https://matplotlib.org/</dc:title>
     </cc:Agent>
    </dc:creator>
   </cc:Work>
  </rdf:RDF>
 </metadata>
 <defs>
  <style type="text/css">*{stroke-linecap:butt;stroke-linejoin:round;}</style>
 </defs>
 <g id="figure_1">
  <g id="patch_1">
   <path d="M 0 720 
L 959.76 720 
L 959.76 0 
L 0 0 
z
" style="fill:#ffffff;"/>
  </g>
  <g id="axes_1">
   <g id="patch_2">
    <path d="M 130.07 619.72 
L 925.2 619.72 
L 925.2 34.56 
L 130.07 34.56 
z
" style="fill:#ffffff;"/>
   </g>
   <g id="matplotlib.axis_1">
    <g id="xtick_1">
     <g id="line2d_1">
      <defs>
       <path d="M 0 0 
L 0 3.5 
" id="mdc47fb2d89" style="stroke:#000000;stroke-width:0.8;"/>
      </defs>
      <g>
       <use style="stroke:#000000;stroke-width:0.8;" x="196.330833" xlink:href="#mdc47fb2d89" y="619.72"/>
      </g>
     </g>
     <g id="text_1">
      <!-- 0 -->
      <g transform="translate(188.695833 644.95625)scale(0.24 -0.24)">
       <defs>
        <path d="M 2034 4250 
Q 1547 4250 1301 3770 
Q 1056 3291 1056 2328 
Q 1056 1369 1301 889 
Q 1547 409 2034 409 
Q 2525 409 2770 889 
Q 3016 1369 3016 2328 
Q 3016 3291 2770 3770 
Q 2525 4250 2034 4250 
z
M 2034 4750 
Q 2819 4750 3233 4129 
Q 3647 3509 3647 2328 
Q 3647 1150 3233 529 
Q 2819 -91 2034 -91 
Q 1250 -91 836 529 
Q 422 1150 422 2328 
Q 422 3509 836 4129 
Q 1250 4750 2034 4750 
z
" id="DejaVuSans-30" transform="scale(0.015625)"/>
       </defs>
       <use xlink:href="#DejaVuSans-30"/>
      </g>
     </g>
    </g>
    <g id="xtick_2">
     <g id="line2d_2">
      <g>
       <use style="stroke:#000000;stroke-width:0.8;" x="328.8525" xlink:href="#mdc47fb2d89" y="619.72"/>
      </g>
     </g>
     <g id="text_2">
      <!-- 2 -->
      <g transform="translate(321.2175 644.95625)scale(0.24 -0.24)">
       <defs>
        <path d="M 1228 531 
L 3431 531 
L 3431 0 
L 469 0 
L 469 531 
Q 828 903 1448 1529 
Q 2069 2156 2228 2338 
Q 2531 2678 2651 2914 
Q 2772 3150 2772 3378 
Q 2772 3750 2511 3984 
Q 2250 4219 1831 4219 
Q 1534 4219 1204 4116 
Q 875 4013 500 3803 
L 500 4441 
Q 881 4594 1212 4672 
Q 1544 4750 1819 4750 
Q 2544 4750 2975 4387 
Q 3406 4025 3406 3419 
Q 3406 3131 3298 2873 
Q 3191 2616 2906 2266 
Q 2828 2175 2409 1742 
Q 1991 1309 1228 531 
z
" id="DejaVuSans-32" transform="scale(0.015625)"/>
       </defs>
       <use xlink:href="#DejaVuSans-32"/>
      </g>
     </g>
    </g>
    <g id="xtick_3">
     <g id="line2d_3">
      <g>
       <use style="stroke:#000000;stroke-width:0.8;" x="461.374167" xlink:href="#mdc47fb2d89" y="619.72"/>
      </g>
     </g>
     <g id="text_3">
      <!-- 4 -->
      <g transform="translate(453.739167 644.95625)scale(0.24 -0.24)">
       <defs>
        <path d="M 2419 4116 
L 825 1625 
L 2419 1625 
L 2419 4116 
z
M 2253 4666 
L 3047 4666 
L 3047 1625 
L 3713 1625 
L 3713 1100 
L 3047 1100 
L 3047 0 
L 2419 0 
L 2419 1100 
L 313 1100 
L 313 1709 
L 2253 4666 
z
" id="DejaVuSans-34" transform="scale(0.015625)"/>
       </defs>
       <use xlink:href="#DejaVuSans-34"/>
      </g>
     </g>
    </g>
    <g id="xtick_4">
     <g id="line2d_4">
      <g>
       <use style="stroke:#000000;stroke-width:0.8;" x="593.895833" xlink:href="#mdc47fb2d89" y="619.72"/>
      </g>
     </g>
     <g id="text_4">
      <!-- 6 -->
      <g transform="translate(586.260833 644.95625)scale(0.24 -0.24)">
       <defs>
        <path d="M 2113 2584 
Q 1688 2584 1439 2293 
Q 1191 2003 1191 1497 
Q 1191 994 1439 701 
Q 1688 409 2113 409 
Q 2538 409 2786 701 
Q 3034 994 3034 1497 
Q 3034 2003 2786 2293 
Q 2538 2584 2113 2584 
z
M 3366 4563 
L 3366 3988 
Q 3128 4100 2886 4159 
Q 2644 4219 2406 4219 
Q 1781 4219 1451 3797 
Q 1122 3375 1075 2522 
Q 1259 2794 1537 2939 
Q 1816 3084 2150 3084 
Q 2853 3084 3261 2657 
Q 3669 2231 3669 1497 
Q 3669 778 3244 343 
Q 2819 -91 2113 -91 
Q 1303 -91 875 529 
Q 447 1150 447 2328 
Q 447 3434 972 4092 
Q 1497 4750 2381 4750 
Q 2619 4750 2861 4703 
Q 3103 4656 3366 4563 
z
" id="DejaVuSans-36" transform="scale(0.015625)"/>
       </defs>
       <use xlink:href="#DejaVuSans-36"/>
      </g>
     </g>
    </g>
    <g id="xtick_5">
     <g id="line2d_5">
      <g>
       <use style="stroke:#000000;stroke-width:0.8;" x="726.4175" xlink:href="#mdc47fb2d89" y="619.72"/>
      </g>
     </g>
     <g id="text_5">
      <!-- 8 -->
      <g transform="translate(718.7825 644.95625)scale(0.24 -0.24)">
       <defs>
        <path d="M 2034 2216 
Q 1584 2216 1326 1975 
Q 1069 1734 1069 1313 
Q 1069 891 1326 650 
Q 1584 409 2034 409 
Q 2484 409 2743 651 
Q 3003 894 3003 1313 
Q 3003 1734 2745 1975 
Q 2488 2216 2034 2216 
z
M 1403 2484 
Q 997 2584 770 2862 
Q 544 3141 544 3541 
Q 544 4100 942 4425 
Q 1341 4750 2034 4750 
Q 2731 4750 3128 4425 
Q 3525 4100 3525 3541 
Q 3525 3141 3298 2862 
Q 3072 2584 2669 2484 
Q 3125 2378 3379 2068 
Q 3634 1759 3634 1313 
Q 3634 634 3220 271 
Q 2806 -91 2034 -91 
Q 1263 -91 848 271 
Q 434 634 434 1313 
Q 434 1759 690 2068 
Q 947 2378 1403 2484 
z
M 1172 3481 
Q 1172 3119 1398 2916 
Q 1625 2713 2034 2713 
Q 2441 2713 2670 2916 
Q 2900 3119 2900 3481 
Q 2900 3844 2670 4047 
Q 2441 4250 2034 4250 
Q 1625 4250 1398 4047 
Q 1172 3844 1172 3481 
z
" id="DejaVuSans-38" transform="scale(0.015625)"/>
       </defs>
       <use xlink:href="#DejaVuSans-38"/>
      </g>
     </g>
    </g>
    <g id="xtick_6">
     <g id="line2d_6">
      <g>
       <use style="stroke:#000000;stroke-width:0.8;" x="858.939167" xlink:href="#mdc47fb2d89" y="619.72"/>
      </g>
     </g>
     <g id="text_6">
      <!-- 10 -->
      <g transform="translate(843.669167 644.95625)scale(0.24 -0.24)">
       <defs>
        <path d="M 794 531 
L 1825 531 
L 1825 4091 
L 703 3866 
L 703 4441 
L 1819 4666 
L 2450 4666 
L 2450 531 
L 3481 531 
L 3481 0 
L 794 0 
L 794 531 
z
" id="DejaVuSans-31" transform="scale(0.015625)"/>
       </defs>
       <use xlink:href="#DejaVuSans-31"/>
       <use x="63.623047" xlink:href="#DejaVuSans-30"/>
      </g>
     </g>
    </g>
    <g id="text_7">
     <!-- Time (s) -->
     <g transform="translate(462.5825 678.2625)scale(0.32 -0.32)">
      <defs>
       <path d="M -19 4666 
L 3928 4666 
L 3928 4134 
L 2272 4134 
L 2272 0 
L 1638 0 
L 1638 4134 
L -19 4134 
L -19 4666 
z
" id="DejaVuSans-54" transform="scale(0.015625)"/>
       <path d="M 603 3500 
L 1178 3500 
L 1178 0 
L 603 0 
L 603 3500 
z
M 603 4863 
L 1178 4863 
L 1178 4134 
L 603 4134 
L 603 4863 
z
" id="DejaVuSans-69" transform="scale(0.015625)"/>
       <path d="M 3328 2828 
Q 3544 3216 3844 3400 
Q 4144 3584 4550 3584 
Q 5097 3584 5394 3201 
Q 5691 2819 5691 2113 
L 5691 0 
L 5113 0 
L 5113 2094 
Q 5113 2597 4934 2840 
Q 4756 3084 4391 3084 
Q 3944 3084 3684 2787 
Q 3425 2491 3425 1978 
L 3425 0 
L 2847 0 
L 2847 2094 
Q 2847 2600 2669 2842 
Q 2491 3084 2119 3084 
Q 1678 3084 1418 2786 
Q 1159 2488 1159 1978 
L 1159 0 
L 581 0 
L 581 3500 
L 1159 3500 
L 1159 2956 
Q 1356 3278 1631 3431 
Q 1906 3584 2284 3584 
Q 2666 3584 2933 3390 
Q 3200 3197 3328 2828 
z
" id="DejaVuSans-6d" transform="scale(0.015625)"/>
       <path d="M 3597 1894 
L 3597 1613 
L 953 1613 
Q 991 1019 1311 708 
Q 1631 397 2203 397 
Q 2534 397 2845 478 
Q 3156 559 3463 722 
L 3463 178 
Q 3153 47 2828 -22 
Q 2503 -91 2169 -91 
Q 1331 -91 842 396 
Q 353 884 353 1716 
Q 353 2575 817 3079 
Q 1281 3584 2069 3584 
Q 2775 3584 3186 3129 
Q 3597 2675 3597 1894 
z
M 3022 2063 
Q 3016 2534 2758 2815 
Q 2500 3097 2075 3097 
Q 1594 3097 1305 2825 
Q 1016 2553 972 2059 
L 3022 2063 
z
" id="DejaVuSans-65" transform="scale(0.015625)"/>
       <path id="DejaVuSans-20" transform="scale(0.015625)"/>
       <path d="M 1984 4856 
Q 1566 4138 1362 3434 
Q 1159 2731 1159 2009 
Q 1159 1288 1364 580 
Q 1569 -128 1984 -844 
L 1484 -844 
Q 1016 -109 783 600 
Q 550 1309 550 2009 
Q 550 2706 781 3412 
Q 1013 4119 1484 4856 
L 1984 4856 
z
" id="DejaVuSans-28" transform="scale(0.015625)"/>
       <path d="M 2834 3397 
L 2834 2853 
Q 2591 2978 2328 3040 
Q 2066 3103 1784 3103 
Q 1356 3103 1142 2972 
Q 928 2841 928 2578 
Q 928 2378 1081 2264 
Q 1234 2150 1697 2047 
L 1894 2003 
Q 2506 1872 2764 1633 
Q 3022 1394 3022 966 
Q 3022 478 2636 193 
Q 2250 -91 1575 -91 
Q 1294 -91 989 -36 
Q 684 19 347 128 
L 347 722 
Q 666 556 975 473 
Q 1284 391 1588 391 
Q 1994 391 2212 530 
Q 2431 669 2431 922 
Q 2431 1156 2273 1281 
Q 2116 1406 1581 1522 
L 1381 1569 
Q 847 1681 609 1914 
Q 372 2147 372 2553 
Q 372 3047 722 3315 
Q 1072 3584 1716 3584 
Q 2034 3584 2315 3537 
Q 2597 3491 2834 3397 
z
" id="DejaVuSans-73" transform="scale(0.015625)"/>
       <path d="M 513 4856 
L 1013 4856 
Q 1481 4119 1714 3412 
Q 1947 2706 1947 2009 
Q 1947 1309 1714 600 
Q 1481 -109 1013 -844 
L 513 -844 
Q 928 -128 1133 580 
Q 1338 1288 1338 2009 
Q 1338 2731 1133 3434 
Q 928 4138 513 4856 
z
" id="DejaVuSans-29" transform="scale(0.015625)"/>
      </defs>
      <use xlink:href="#DejaVuSans-54"/>
      <use x="57.958984" xlink:href="#DejaVuSans-69"/>
      <use x="85.742188" xlink:href="#DejaVuSans-6d"/>
      <use x="183.154297" xlink:href="#DejaVuSans-65"/>
      <use x="244.677734" xlink:href="#DejaVuSans-20"/>
      <use x="276.464844" xlink:href="#DejaVuSans-28"/>
      <use x="315.478516" xlink:href="#DejaVuSans-73"/>
      <use x="367.578125" xlink:href="#DejaVuSans-29"/>
     </g>
    </g>
   </g>
   <g id="matplotlib.axis_2">
    <g id="ytick_1">
     <g id="line2d_7">
      <defs>
       <path d="M 0 0 
L -3.5 0 
" id="m3ed6620b8e" style="stroke:#000000;stroke-width:0.8;"/>
      </defs>
      <g>
       <use style="stroke:#000000;stroke-width:0.8;" x="130.07" xlink:href="#m3ed6620b8e" y="561.204"/>
      </g>
     </g>
     <g id="text_8">
      <!-- −20 -->
      <g transform="translate(72.41875 570.322125)scale(0.24 -0.24)">
       <defs>
        <path d="M 678 2272 
L 4684 2272 
L 4684 1741 
L 678 1741 
L 678 2272 
z
" id="DejaVuSans-2212" transform="scale(0.015625)"/>
       </defs>
       <use xlink:href="#DejaVuSans-2212"/>
       <use x="83.789062" xlink:href="#DejaVuSans-32"/>
       <use x="147.412109" xlink:href="#DejaVuSans-30"/>
      </g>
     </g>
    </g>
    <g id="ytick_2">
     <g id="line2d_8">
      <g>
       <use style="stroke:#000000;stroke-width:0.8;" x="130.07" xlink:href="#m3ed6620b8e" y="444.172"/>
      </g>
     </g>
     <g id="text_9">
      <!-- −10 -->
      <g transform="translate(72.41875 453.290125)scale(0.24 -0.24)">
       <use xlink:href="#DejaVuSans-2212"/>
       <use x="83.789062" xlink:href="#DejaVuSans-31"/>
       <use x="147.412109" xlink:href="#DejaVuSans-30"/>
      </g>
     </g>
    </g>
    <g id="ytick_3">
     <g id="line2d_9">
      <g>
       <use style="stroke:#000000;stroke-width:0.8;" x="130.07" xlink:href="#m3ed6620b8e" y="327.14"/>
      </g>
     </g>
     <g id="text_10">
      <!-- 0 -->
      <g transform="translate(107.8 336.258125)scale(0.24 -0.24)">
       <use xlink:href="#DejaVuSans-30"/>
      </g>
     </g>
    </g>
    <g id="ytick_4">
     <g id="line2d_10">
      <g>
       <use style="stroke:#000000;stroke-width:0.8;" x="130.07" xlink:href="#m3ed6620b8e" y="210.108"/>
      </g>
     </g>
     <g id="text_11">
      <!-- 10 -->
      <g transform="translate(92.53 219.226125)scale(0.24 -0.24)">
       <use xlink:href="#DejaVuSans-31"/>
       <use x="63.623047" xlink:href="#DejaVuSans-30"/>
      </g>
     </g>
    </g>
    <g id="ytick_5">
     <g id="line2d_11">
      <g>
       <use style="stroke:#000000;stroke-width:0.8;" x="130.07" xlink:href="#m3ed6620b8e" y="93.076"/>
      </g>
     </g>
     <g id="text_12">
      <!-- 20 -->
      <g transform="translate(92.53 102.194125)scale(0.24 -0.24)">
       <use xlink:href="#DejaVuSans-32"/>
       <use x="63.623047" xlink:href="#DejaVuSans-30"/>
      </g>
     </g>
    </g>
    <g id="text_13">
     <!-- $\tan (\psi)$ -->
     <g transform="translate(61.69875 376.42)rotate(-90)scale(0.32 -0.32)">
      <defs>
       <path d="M 1172 4494 
L 1172 3500 
L 2356 3500 
L 2356 3053 
L 1172 3053 
L 1172 1153 
Q 1172 725 1289 603 
Q 1406 481 1766 481 
L 2356 481 
L 2356 0 
L 1766 0 
Q 1100 0 847 248 
Q 594 497 594 1153 
L 594 3053 
L 172 3053 
L 172 3500 
L 594 3500 
L 594 4494 
L 1172 4494 
z
" id="DejaVuSans-74" transform="scale(0.015625)"/>
       <path d="M 2194 1759 
Q 1497 1759 1228 1600 
Q 959 1441 959 1056 
Q 959 750 1161 570 
Q 1363 391 1709 391 
Q 2188 391 2477 730 
Q 2766 1069 2766 1631 
L 2766 1759 
L 2194 1759 
z
M 3341 1997 
L 3341 0 
L 2766 0 
L 2766 531 
Q 2569 213 2275 61 
Q 1981 -91 1556 -91 
Q 1019 -91 701 211 
Q 384 513 384 1019 
Q 384 1609 779 1909 
Q 1175 2209 1959 2209 
L 2766 2209 
L 2766 2266 
Q 2766 2663 2505 2880 
Q 2244 3097 1772 3097 
Q 1472 3097 1187 3025 
Q 903 2953 641 2809 
L 641 3341 
Q 956 3463 1253 3523 
Q 1550 3584 1831 3584 
Q 2591 3584 2966 3190 
Q 3341 2797 3341 1997 
z
" id="DejaVuSans-61" transform="scale(0.015625)"/>
       <path d="M 3513 2113 
L 3513 0 
L 2938 0 
L 2938 2094 
Q 2938 2591 2744 2837 
Q 2550 3084 2163 3084 
Q 1697 3084 1428 2787 
Q 1159 2491 1159 1978 
L 1159 0 
L 581 0 
L 581 3500 
L 1159 3500 
L 1159 2956 
Q 1366 3272 1645 3428 
Q 1925 3584 2291 3584 
Q 2894 3584 3203 3211 
Q 3513 2838 3513 2113 
z
" id="DejaVuSans-6e" transform="scale(0.015625)"/>
       <path d="M 1591 -78 
Q 891 38 616 341 
Q 278 713 425 1472 
L 819 3500 
L 1400 3500 
L 1009 1494 
Q 900 922 1119 684 
Q 1313 478 1691 434 
L 2284 3500 
L 2856 3500 
L 2263 438 
Q 2681 481 2928 688 
Q 3247 950 3353 1497 
L 3741 3500 
L 4322 3500 
L 3928 1475 
Q 3775 688 3300 344 
Q 2872 34 2163 -75 
L 1919 -1331 
L 1347 -1331 
L 1591 -78 
z
" id="DejaVuSans-Oblique-3c8" transform="scale(0.015625)"/>
      </defs>
      <use transform="translate(0 0.125)" xlink:href="#DejaVuSans-74"/>
      <use transform="translate(39.208984 0.125)" xlink:href="#DejaVuSans-61"/>
      <use transform="translate(100.488281 0.125)" xlink:href="#DejaVuSans-6e"/>
      <use transform="translate(163.867188 0.125)" xlink:href="#DejaVuSans-28"/>
      <use transform="translate(202.880859 0.125)" xlink:href="#DejaVuSans-Oblique-3c8"/>
      <use transform="translate(268.847656 0.125)" xlink:href="#DejaVuSans-29"/>
     </g>
    </g>
   </g>
   <g id="line2d_12">
    <path clip-path="url(#pdc5ec45d61)" d="M 196.825542 721 
L 196.825573 -1 
M 198.365767 -1 
L 198.804781 67.556988 
L 199.29957 118.735822 
L 199.79436 155.020623 
L 200.28915 182.007589 
L 201.278729 219.277586 
L 202.268308 243.596215 
L 203.257887 260.551506 
L 204.247466 272.933744 
L 205.237045 282.290229 
L 206.226624 289.547113 
L 207.216203 295.292 
L 208.205782 299.915215 
L 209.195361 303.685836 
L 210.18494 306.795125 
L 211.174519 309.382569 
L 212.658888 312.50567 
L 214.143256 314.93555 
L 215.627625 316.845221 
L 217.111993 318.356682 
L 218.596362 319.558143 
L 220.08073 320.514745 
L 222.059889 321.492272 
L 224.039047 322.205892 
L 226.512994 322.818346 
L 228.986942 323.197371 
L 231.955679 323.425059 
L 235.419206 323.462381 
L 239.377522 323.290134 
L 244.325417 322.848811 
L 250.262891 322.086913 
L 257.189945 320.964084 
L 264.611788 319.530952 
L 272.033631 317.866717 
L 278.960684 316.081253 
L 285.392948 314.182609 
L 290.835632 312.354064 
L 295.783528 310.475183 
L 300.236633 308.570074 
L 304.689739 306.419105 
L 308.648055 304.258006 
L 312.111582 302.136314 
L 315.575109 299.757998 
L 318.543846 297.478098 
L 321.512583 294.935227 
L 324.48132 292.082228 
L 326.955268 289.425998 
L 329.429215 286.47235 
L 331.903163 283.170473 
L 334.377111 279.457755 
L 336.851058 275.256196 
L 338.830216 271.477728 
L 340.809374 267.261388 
L 342.788532 262.530277 
L 344.767691 257.188859 
L 346.746849 251.117004 
L 348.726007 244.161578 
L 350.210375 238.248071 
L 351.694744 231.621569 
L 353.179113 224.150664 
L 354.663481 215.670043 
L 356.14785 205.968837 
L 357.632218 194.77383 
L 359.116587 181.724639 
L 360.600955 166.336031 
L 362.085324 147.938852 
L 363.569693 125.583921 
L 364.559272 107.819952 
L 365.548851 87.116466 
L 366.53843 62.694286 
L 367.528009 33.473203 
L 368.488769 -1 
M 377.558297 -1 
L 377.568651 721 
M 388.121372 721 
L 388.803958 700.770551 
L 389.793537 675.920223 
L 390.783116 655.042806 
L 392.267485 629.415981 
L 393.751853 608.952793 
L 395.236222 592.368327 
L 396.720591 578.783975 
L 398.204959 567.580307 
L 399.689328 558.309847 
L 401.173696 550.643149 
L 402.658065 544.334298 
L 404.142434 539.198214 
L 405.626802 535.095375 
L 406.616381 532.881409 
L 407.60596 531.055888 
L 408.595539 529.599808 
L 409.585118 528.498449 
L 410.574697 527.740984 
L 411.564276 527.320202 
L 412.553855 527.232331 
L 413.543434 527.476939 
L 414.533014 528.056932 
L 415.522593 528.978627 
L 416.512172 530.251918 
L 417.501751 531.890539 
L 418.49133 533.912425 
L 419.480909 536.340217 
L 420.470488 539.201907 
L 421.954856 544.384735 
L 423.439225 550.769969 
L 424.923594 558.55368 
L 426.407962 567.99728 
L 427.892331 579.452644 
L 429.376699 593.400606 
L 430.861068 610.511753 
L 431.850647 624.134186 
L 432.840226 639.967599 
L 433.829805 658.522942 
L 434.819384 680.487197 
L 435.808963 706.805764 
L 436.271333 721 
M 446.517984 721 
L 446.529828 -1 
M 455.410111 -1 
L 456.095334 25.163033 
L 457.084913 56.638256 
L 458.074492 82.711122 
L 459.064071 104.647793 
L 460.548439 131.696956 
L 462.032808 153.500847 
L 463.517176 171.427299 
L 465.001545 186.407882 
L 466.485914 199.098901 
L 467.970282 209.975995 
L 469.454651 219.392242 
L 470.939019 227.615205 
L 472.423388 234.851298 
L 474.402546 243.238932 
L 476.381704 250.451263 
L 478.360862 256.710218 
L 480.34002 262.185722 
L 482.319178 267.01003 
L 484.298336 271.287585 
L 486.277495 275.101925 
L 488.256653 278.520639 
L 490.7306 282.320902 
L 493.204548 285.675861 
L 495.678495 288.654991 
L 498.152443 291.314269 
L 501.12118 294.146772 
L 504.089917 296.647539 
L 507.058655 298.867469 
L 510.522181 301.156891 
L 513.985708 303.172318 
L 517.944024 305.193588 
L 521.90234 306.961361 
L 526.355446 308.695875 
L 531.303341 310.3587 
L 536.251236 311.788531 
L 541.693921 313.13553 
L 547.631396 314.377311 
L 554.063659 315.495331 
L 560.990713 316.47288 
L 568.412556 317.292694 
L 576.329188 317.934045 
L 584.24582 318.350284 
L 592.162453 318.545381 
L 600.079085 318.511559 
L 607.500928 318.2537 
L 614.427981 317.78897 
L 620.860245 317.130468 
L 626.797719 316.289724 
L 631.745615 315.381695 
L 636.69351 314.242062 
L 641.146616 312.971556 
L 645.104932 311.59923 
L 648.568458 310.164851 
L 651.537196 308.72094 
L 654.505933 307.032646 
L 656.97988 305.396438 
L 659.453828 303.502947 
L 661.927776 301.290286 
L 663.906934 299.234543 
L 665.886092 296.862735 
L 667.86525 294.096842 
L 669.349618 291.700967 
L 670.833987 288.96396 
L 672.318356 285.806665 
L 673.802724 282.122883 
L 675.287093 277.766698 
L 676.771461 272.531954 
L 678.25583 266.117512 
L 679.245409 260.969049 
L 680.234988 254.902198 
L 681.224567 247.642782 
L 682.214146 238.794832 
L 683.203725 227.764477 
L 684.193304 213.618584 
L 685.182883 194.802055 
L 686.172462 168.515857 
L 686.667252 151.016656 
L 687.162041 129.162096 
L 687.656831 101.086237 
L 688.15162 63.679173 
L 688.724247 -1 
M 690.625621 -1 
L 690.625651 721 
L 690.625651 721 
" style="fill:none;stroke:#1f77b4;stroke-linecap:square;stroke-width:4;"/>
   </g>
   <g id="line2d_13">
    <path clip-path="url(#pdc5ec45d61)" d="M 196.687447 721 
L 196.687469 -1 
M 198.079839 -1 
L 198.114272 9.065185 
L 198.827648 125.177519 
L 199.541023 186.95636 
L 200.254399 224.384977 
L 200.967774 248.937919 
L 201.681149 265.931818 
L 202.394525 278.155188 
L 203.1079 287.203996 
L 203.821276 294.052937 
L 204.534651 299.327931 
L 205.248027 303.447322 
L 206.31809 308.067767 
L 207.388153 311.368686 
L 208.458217 313.756694 
L 209.52828 315.496618 
L 210.598343 316.76668 
L 211.668406 317.690108 
L 212.73847 318.354061 
L 214.165221 318.941793 
L 215.591971 319.282907 
L 217.37541 319.468332 
L 219.515537 319.453914 
L 222.369039 319.186527 
L 226.292604 318.563852 
L 231.999608 317.408726 
L 239.846738 315.583339 
L 246.980493 313.699159 
L 252.687497 311.961467 
L 257.324438 310.328043 
L 261.60469 308.579228 
L 265.171568 306.892201 
L 268.381758 305.148789 
L 271.591947 303.141514 
L 274.445449 301.086086 
L 276.942263 299.033962 
L 279.439078 296.697879 
L 281.935892 294.021713 
L 284.076018 291.404488 
L 286.216145 288.431433 
L 288.356271 285.035011 
L 290.13971 281.821143 
L 291.923149 278.195188 
L 293.706587 274.083784 
L 295.490026 269.396441 
L 297.273465 264.020415 
L 299.056904 257.813674 
L 300.483655 252.130085 
L 301.910405 245.683567 
L 303.337156 238.329872 
L 304.763907 229.888237 
L 306.190658 220.129412 
L 307.617409 208.758738 
L 309.04416 195.391714 
L 310.470911 179.517915 
L 311.897662 160.446238 
L 312.967726 143.481404 
L 314.037789 123.643029 
L 315.107852 100.210237 
L 316.177915 72.208939 
L 317.247978 38.291807 
L 318.259376 -1 
M 328.334882 -1 
L 328.336258 721 
M 349.236653 721 
L 349.240216 -1 
M 360.394001 -1 
L 361.120571 25.181711 
L 362.190634 57.97548 
L 363.260697 85.358025 
L 364.687448 115.441873 
L 366.114199 139.939921 
L 367.54095 160.204829 
L 368.967701 177.193257 
L 370.394452 191.599728 
L 371.821203 203.939832 
L 373.247954 214.603762 
L 374.674705 223.891818 
L 376.458144 233.919549 
L 378.241583 242.51437 
L 380.025021 249.945158 
L 381.80846 256.419447 
L 383.591899 262.099699 
L 385.375338 267.114702 
L 387.158776 271.567708 
L 389.298903 276.286105 
L 391.439029 280.430955 
L 393.579156 284.094487 
L 395.719282 287.35076 
L 398.216096 290.714487 
L 400.712911 293.682053 
L 403.209725 296.314922 
L 406.063227 298.977282 
L 408.916729 301.326522 
L 412.126918 303.653962 
L 415.337108 305.698922 
L 418.903985 307.691371 
L 422.470863 309.433702 
L 426.394428 311.104323 
L 430.674681 312.675295 
L 435.311622 314.122543 
L 439.948562 315.339132 
L 444.942191 316.420677 
L 450.292507 317.341171 
L 455.642823 318.032805 
L 460.993139 318.506003 
L 466.343455 318.764974 
L 471.693772 318.808738 
L 477.044088 318.631611 
L 482.394404 318.223084 
L 487.388032 317.61875 
L 492.024973 316.847596 
L 496.661914 315.851549 
L 500.942167 314.705044 
L 504.865732 313.431148 
L 508.432609 312.053899 
L 511.642799 310.600355 
L 514.852989 308.900025 
L 517.70649 307.13371 
L 520.203305 305.344497 
L 522.700119 303.272527 
L 524.840245 301.216893 
L 526.980372 298.837832 
L 528.763811 296.547636 
L 530.547249 293.907657 
L 532.330688 290.828217 
L 533.757439 287.966696 
L 535.18419 284.659805 
L 536.610941 280.791664 
L 538.037692 276.202198 
L 539.464443 270.663899 
L 540.534506 265.691972 
L 541.604569 259.799709 
L 542.674633 252.701633 
L 543.744696 243.980527 
L 544.814759 233.001532 
L 545.884822 218.748929 
L 546.598198 206.620447 
L 547.311573 191.471419 
L 548.024949 172.007574 
L 548.738324 146.071843 
L 549.4517 109.78156 
L 550.165075 55.371442 
L 550.6424 -1 
M 552.661946 -1 
L 552.661968 721 
L 552.661968 721 
" style="fill:none;stroke:#ff7f0e;stroke-linecap:square;stroke-width:4;"/>
   </g>
   <g id="line2d_14">
    <path clip-path="url(#pdc5ec45d61)" d="M 196.636289 721 
L 196.636308 -1 
M 197.694483 -1 
L 197.858454 59.283587 
L 198.469502 179.221737 
L 199.08055 238.971698 
L 199.691598 272.690278 
L 200.302646 293.187869 
L 200.913695 306.255476 
L 201.524743 314.846194 
L 202.135791 320.598954 
L 202.746839 324.482337 
L 203.357887 327.097226 
L 203.968935 328.831056 
L 204.579983 329.941585 
L 205.191032 330.604793 
L 205.80208 330.943455 
L 206.413128 331.044802 
L 207.3297 330.88476 
L 208.246272 330.474634 
L 209.773893 329.473926 
L 212.218085 327.52707 
L 217.411995 323.353996 
L 221.078284 320.732315 
L 225.050097 318.193913 
L 229.632958 315.54197 
L 246.131258 306.262731 
L 249.797547 303.782024 
L 252.852788 301.446697 
L 255.602504 299.069372 
L 258.046697 296.679525 
L 260.49089 293.967382 
L 262.629558 291.272403 
L 264.768227 288.213965 
L 266.906895 284.717809 
L 268.74004 281.303661 
L 270.573184 277.429866 
L 272.406329 273.010042 
L 274.239473 267.938278 
L 276.072618 262.083836 
L 277.600238 256.491202 
L 279.127858 250.12782 
L 280.655479 242.85443 
L 282.183099 234.501959 
L 283.71072 224.864542 
L 285.23834 213.691082 
L 286.76596 200.675327 
L 288.293581 185.444782 
L 289.821201 167.549541 
L 291.348822 146.45363 
L 292.876442 121.53435 
L 294.404062 92.100344 
L 295.931683 57.447818 
L 297.459303 16.987213 
L 298.073785 -1 
M 318.945174 -1 
L 320.373609 37.638135 
L 321.901229 73.482499 
L 323.42885 104.160041 
L 324.95647 130.306653 
L 326.484091 152.577934 
L 328.011711 171.579945 
L 329.539331 187.842951 
L 331.066952 201.817123 
L 332.594572 213.878279 
L 334.122193 224.337378 
L 335.649813 233.45067 
L 337.177433 241.429115 
L 339.010578 249.747839 
L 340.843722 256.925155 
L 342.676867 263.155959 
L 344.510011 268.59676 
L 346.343156 273.373988 
L 348.1763 277.590393 
L 350.314969 281.911941 
L 352.453637 285.692104 
L 354.592306 289.017713 
L 356.730974 291.958979 
L 359.175167 294.922665 
L 361.61936 297.527834 
L 364.063552 299.830045 
L 366.813269 302.11359 
L 369.562986 304.122097 
L 372.618226 306.081298 
L 375.978991 307.956981 
L 379.339756 309.585745 
L 383.006045 311.124456 
L 386.977858 312.553019 
L 391.255195 313.854773 
L 395.838056 315.014767 
L 400.726442 316.017838 
L 405.920351 316.846477 
L 411.11426 317.449663 
L 416.30817 317.837199 
L 421.502079 318.010705 
L 426.695988 317.964365 
L 431.584373 317.708342 
L 436.472759 317.229109 
L 441.05562 316.556153 
L 445.332957 315.709456 
L 449.30477 314.709552 
L 453.276583 313.473949 
L 456.942872 312.090317 
L 460.303637 310.579994 
L 463.358878 308.967076 
L 466.108594 307.279985 
L 468.858311 305.320415 
L 471.302504 303.296316 
L 473.441172 301.254719 
L 475.579841 298.898577 
L 477.412985 296.567434 
L 479.24613 293.875598 
L 481.079274 290.72796 
L 482.606894 287.662839 
L 484.134515 284.084848 
L 485.662135 279.84868 
L 486.884232 275.850374 
L 488.106328 271.153924 
L 489.328424 265.555129 
L 490.550521 258.76168 
L 491.772617 250.339843 
L 492.689189 242.56369 
L 493.605761 233.073696 
L 494.522334 221.228248 
L 495.438906 206.019397 
L 496.355478 185.767626 
L 496.966526 168.06545 
L 497.577574 145.323407 
L 498.188622 115.023053 
L 498.799671 72.631368 
L 499.410719 9.082474 
L 499.478608 -1 
M 501.549445 -1 
L 501.549464 721 
L 501.549464 721 
" style="fill:none;stroke:#2ca02c;stroke-linecap:square;stroke-width:4;"/>
   </g>
   <g id="line2d_15">
    <path clip-path="url(#pdc5ec45d61)" d="M 196.591046 721 
L 196.591062 -1 
M 197.532665 -1 
L 197.892504 128.074524 
L 198.413062 219.702528 
L 198.933619 267.467469 
L 199.454176 294.777225 
L 199.974733 311.280943 
L 200.49529 321.585964 
L 201.015847 328.122218 
L 201.536404 332.266887 
L 202.056961 334.84423 
L 202.577518 336.369067 
L 203.098075 337.174118 
L 203.618632 337.480471 
L 204.139189 337.438434 
L 204.659746 337.15214 
L 205.440582 336.419074 
L 206.741974 334.750784 
L 213.769494 324.946362 
L 216.372279 321.968536 
L 218.975065 319.332749 
L 221.838128 316.737509 
L 225.482028 313.750776 
L 231.208155 309.398778 
L 236.934283 304.971303 
L 240.578182 301.862362 
L 243.441246 299.135879 
L 246.044031 296.355996 
L 248.386538 293.538324 
L 250.729044 290.347078 
L 252.811273 287.127647 
L 254.893501 283.47361 
L 256.71545 279.853687 
L 258.5374 275.770514 
L 260.35935 271.148356 
L 262.181299 265.901068 
L 264.003249 259.932171 
L 265.825199 253.136309 
L 267.647148 245.403116 
L 269.469098 236.625084 
L 271.291048 226.711646 
L 273.112997 215.612276 
L 275.195225 201.51176 
L 277.798011 182.153938 
L 282.483024 146.880985 
L 284.044695 137.067432 
L 285.085809 131.665559 
L 286.126923 127.409433 
L 286.907759 125.070276 
L 287.688594 123.521932 
L 288.209151 122.94668 
L 288.729708 122.743559 
L 289.250266 122.913507 
L 289.770823 123.45328 
L 290.29138 124.35556 
L 291.072215 126.363258 
L 291.853051 129.108389 
L 292.894165 133.798312 
L 294.195557 141.047972 
L 295.757229 151.250611 
L 298.360014 170.168286 
L 302.264192 198.48394 
L 304.606698 213.767286 
L 306.688926 225.8905 
L 308.771155 236.61267 
L 310.593104 244.906709 
L 312.415054 252.272578 
L 314.237004 258.804336 
L 316.058953 264.596137 
L 317.880903 269.736784 
L 319.963131 274.917789 
L 322.045359 279.460147 
L 324.127587 283.455557 
L 326.209816 286.982094 
L 328.292044 290.105825 
L 330.63455 293.207575 
L 332.977057 295.936008 
L 335.319564 298.345737 
L 337.922349 300.704039 
L 340.525134 302.775184 
L 343.388198 304.770851 
L 346.51154 306.660523 
L 349.634883 308.294735 
L 353.018503 309.818774 
L 356.662403 311.213662 
L 360.56658 312.46297 
L 364.731037 313.551175 
L 368.895493 314.414838 
L 373.320228 315.108474 
L 377.744963 315.586027 
L 382.429976 315.864522 
L 387.11499 315.91017 
L 391.539724 315.733133 
L 395.964459 315.329084 
L 400.128916 314.722897 
L 404.033094 313.932961 
L 407.676993 312.976391 
L 411.060614 311.870262 
L 414.183956 310.632739 
L 417.307298 309.150187 
L 420.170362 307.534028 
L 422.773147 305.806753 
L 425.115654 303.997151 
L 427.45816 301.891798 
L 429.540389 299.714773 
L 431.362338 297.518782 
L 433.184288 294.987308 
L 435.006238 292.037869 
L 436.567909 289.0925 
L 438.12958 285.660531 
L 439.691251 281.609012 
L 440.992644 277.626991 
L 442.294036 272.935881 
L 443.595429 267.325253 
L 444.636543 261.975273 
L 445.677657 255.624802 
L 446.718771 247.960706 
L 447.759885 238.523077 
L 448.800999 226.607456 
L 449.581835 215.385853 
L 450.36267 201.393531 
L 451.143506 183.447375 
L 451.924341 159.576023 
L 452.705177 126.231616 
L 453.225734 95.504993 
L 453.746291 53.65888 
L 454.222037 -1 
M 456.349135 -1 
L 456.349151 721 
L 456.349151 721 
" style="fill:none;stroke:#d62728;stroke-linecap:square;stroke-width:4;"/>
   </g>
   <g id="patch_3">
    <path d="M 130.07 619.72 
L 130.07 34.56 
" style="fill:none;stroke:#000000;stroke-linecap:square;stroke-linejoin:miter;stroke-width:0.8;"/>
   </g>
   <g id="patch_4">
    <path d="M 925.2 619.72 
L 925.2 34.56 
" style="fill:none;stroke:#000000;stroke-linecap:square;stroke-linejoin:miter;stroke-width:0.8;"/>
   </g>
   <g id="patch_5">
    <path d="M 130.07 619.72 
L 925.2 619.72 
" style="fill:none;stroke:#000000;stroke-linecap:square;stroke-linejoin:miter;stroke-width:0.8;"/>
   </g>
   <g id="patch_6">
    <path d="M 130.07 34.56 
L 925.2 34.56 
" style="fill:none;stroke:#000000;stroke-linecap:square;stroke-linejoin:miter;stroke-width:0.8;"/>
   </g>
   <g id="legend_1">
    <g id="patch_7">
     <path d="M 539.825 603.72 
L 902.8 603.72 
Q 909.2 603.72 909.2 597.32 
L 909.2 412.64 
Q 909.2 406.24 902.8 406.24 
L 539.825 406.24 
Q 533.425 406.24 533.425 412.64 
L 533.425 597.32 
Q 533.425 603.72 539.825 603.72 
z
" style="fill:#ffffff;opacity:0.8;stroke:#cccccc;stroke-linejoin:miter;"/>
    </g>
    <g id="line2d_16">
     <path d="M 546.225 432.155 
L 610.225 432.155 
" style="fill:none;stroke:#1f77b4;stroke-linecap:square;stroke-width:4;"/>
    </g>
    <g id="line2d_17"/>
    <g id="text_14">
     <!-- No Elevation -->
     <g transform="translate(635.825 443.355)scale(0.32 -0.32)">
      <defs>
       <path d="M 628 4666 
L 1478 4666 
L 3547 763 
L 3547 4666 
L 4159 4666 
L 4159 0 
L 3309 0 
L 1241 3903 
L 1241 0 
L 628 0 
L 628 4666 
z
" id="DejaVuSans-4e" transform="scale(0.015625)"/>
       <path d="M 1959 3097 
Q 1497 3097 1228 2736 
Q 959 2375 959 1747 
Q 959 1119 1226 758 
Q 1494 397 1959 397 
Q 2419 397 2687 759 
Q 2956 1122 2956 1747 
Q 2956 2369 2687 2733 
Q 2419 3097 1959 3097 
z
M 1959 3584 
Q 2709 3584 3137 3096 
Q 3566 2609 3566 1747 
Q 3566 888 3137 398 
Q 2709 -91 1959 -91 
Q 1206 -91 779 398 
Q 353 888 353 1747 
Q 353 2609 779 3096 
Q 1206 3584 1959 3584 
z
" id="DejaVuSans-6f" transform="scale(0.015625)"/>
       <path d="M 628 4666 
L 3578 4666 
L 3578 4134 
L 1259 4134 
L 1259 2753 
L 3481 2753 
L 3481 2222 
L 1259 2222 
L 1259 531 
L 3634 531 
L 3634 0 
L 628 0 
L 628 4666 
z
" id="DejaVuSans-45" transform="scale(0.015625)"/>
       <path d="M 603 4863 
L 1178 4863 
L 1178 0 
L 603 0 
L 603 4863 
z
" id="DejaVuSans-6c" transform="scale(0.015625)"/>
       <path d="M 191 3500 
L 800 3500 
L 1894 563 
L 2988 3500 
L 3597 3500 
L 2284 0 
L 1503 0 
L 191 3500 
z
" id="DejaVuSans-76" transform="scale(0.015625)"/>
      </defs>
      <use xlink:href="#DejaVuSans-4e"/>
      <use x="74.804688" xlink:href="#DejaVuSans-6f"/>
      <use x="135.986328" xlink:href="#DejaVuSans-20"/>
      <use x="167.773438" xlink:href="#DejaVuSans-45"/>
      <use x="230.957031" xlink:href="#DejaVuSans-6c"/>
      <use x="258.740234" xlink:href="#DejaVuSans-65"/>
      <use x="320.263672" xlink:href="#DejaVuSans-76"/>
      <use x="379.443359" xlink:href="#DejaVuSans-61"/>
      <use x="440.722656" xlink:href="#DejaVuSans-74"/>
      <use x="479.931641" xlink:href="#DejaVuSans-69"/>
      <use x="507.714844" xlink:href="#DejaVuSans-6f"/>
      <use x="568.896484" xlink:href="#DejaVuSans-6e"/>
     </g>
    </g>
    <g id="line2d_18">
     <path d="M 546.225 479.125 
L 610.225 479.125 
" style="fill:none;stroke:#ff7f0e;stroke-linecap:square;stroke-width:4;"/>
    </g>
    <g id="line2d_19"/>
    <g id="text_15">
     <!-- Elevated by 30 -->
     <g transform="translate(635.825 490.325)scale(0.32 -0.32)">
      <defs>
       <path d="M 2906 2969 
L 2906 4863 
L 3481 4863 
L 3481 0 
L 2906 0 
L 2906 525 
Q 2725 213 2448 61 
Q 2172 -91 1784 -91 
Q 1150 -91 751 415 
Q 353 922 353 1747 
Q 353 2572 751 3078 
Q 1150 3584 1784 3584 
Q 2172 3584 2448 3432 
Q 2725 3281 2906 2969 
z
M 947 1747 
Q 947 1113 1208 752 
Q 1469 391 1925 391 
Q 2381 391 2643 752 
Q 2906 1113 2906 1747 
Q 2906 2381 2643 2742 
Q 2381 3103 1925 3103 
Q 1469 3103 1208 2742 
Q 947 2381 947 1747 
z
" id="DejaVuSans-64" transform="scale(0.015625)"/>
       <path d="M 3116 1747 
Q 3116 2381 2855 2742 
Q 2594 3103 2138 3103 
Q 1681 3103 1420 2742 
Q 1159 2381 1159 1747 
Q 1159 1113 1420 752 
Q 1681 391 2138 391 
Q 2594 391 2855 752 
Q 3116 1113 3116 1747 
z
M 1159 2969 
Q 1341 3281 1617 3432 
Q 1894 3584 2278 3584 
Q 2916 3584 3314 3078 
Q 3713 2572 3713 1747 
Q 3713 922 3314 415 
Q 2916 -91 2278 -91 
Q 1894 -91 1617 61 
Q 1341 213 1159 525 
L 1159 0 
L 581 0 
L 581 4863 
L 1159 4863 
L 1159 2969 
z
" id="DejaVuSans-62" transform="scale(0.015625)"/>
       <path d="M 2059 -325 
Q 1816 -950 1584 -1140 
Q 1353 -1331 966 -1331 
L 506 -1331 
L 506 -850 
L 844 -850 
Q 1081 -850 1212 -737 
Q 1344 -625 1503 -206 
L 1606 56 
L 191 3500 
L 800 3500 
L 1894 763 
L 2988 3500 
L 3597 3500 
L 2059 -325 
z
" id="DejaVuSans-79" transform="scale(0.015625)"/>
       <path d="M 2597 2516 
Q 3050 2419 3304 2112 
Q 3559 1806 3559 1356 
Q 3559 666 3084 287 
Q 2609 -91 1734 -91 
Q 1441 -91 1130 -33 
Q 819 25 488 141 
L 488 750 
Q 750 597 1062 519 
Q 1375 441 1716 441 
Q 2309 441 2620 675 
Q 2931 909 2931 1356 
Q 2931 1769 2642 2001 
Q 2353 2234 1838 2234 
L 1294 2234 
L 1294 2753 
L 1863 2753 
Q 2328 2753 2575 2939 
Q 2822 3125 2822 3475 
Q 2822 3834 2567 4026 
Q 2313 4219 1838 4219 
Q 1578 4219 1281 4162 
Q 984 4106 628 3988 
L 628 4550 
Q 988 4650 1302 4700 
Q 1616 4750 1894 4750 
Q 2613 4750 3031 4423 
Q 3450 4097 3450 3541 
Q 3450 3153 3228 2886 
Q 3006 2619 2597 2516 
z
" id="DejaVuSans-33" transform="scale(0.015625)"/>
      </defs>
      <use xlink:href="#DejaVuSans-45"/>
      <use x="63.183594" xlink:href="#DejaVuSans-6c"/>
      <use x="90.966797" xlink:href="#DejaVuSans-65"/>
      <use x="152.490234" xlink:href="#DejaVuSans-76"/>
      <use x="211.669922" xlink:href="#DejaVuSans-61"/>
      <use x="272.949219" xlink:href="#DejaVuSans-74"/>
      <use x="312.158203" xlink:href="#DejaVuSans-65"/>
      <use x="373.681641" xlink:href="#DejaVuSans-64"/>
      <use x="437.158203" xlink:href="#DejaVuSans-20"/>
      <use x="468.945312" xlink:href="#DejaVuSans-62"/>
      <use x="532.421875" xlink:href="#DejaVuSans-79"/>
      <use x="591.601562" xlink:href="#DejaVuSans-20"/>
      <use x="623.388672" xlink:href="#DejaVuSans-33"/>
      <use x="687.011719" xlink:href="#DejaVuSans-30"/>
     </g>
    </g>
    <g id="line2d_20">
     <path d="M 546.225 526.095 
L 610.225 526.095 
" style="fill:none;stroke:#2ca02c;stroke-linecap:square;stroke-width:4;"/>
    </g>
    <g id="line2d_21"/>
    <g id="text_16">
     <!-- Elevated by 100 -->
     <g transform="translate(635.825 537.295)scale(0.32 -0.32)">
      <use xlink:href="#DejaVuSans-45"/>
      <use x="63.183594" xlink:href="#DejaVuSans-6c"/>
      <use x="90.966797" xlink:href="#DejaVuSans-65"/>
      <use x="152.490234" xlink:href="#DejaVuSans-76"/>
      <use x="211.669922" xlink:href="#DejaVuSans-61"/>
      <use x="272.949219" xlink:href="#DejaVuSans-74"/>
      <use x="312.158203" xlink:href="#DejaVuSans-65"/>
      <use x="373.681641" xlink:href="#DejaVuSans-64"/>
      <use x="437.158203" xlink:href="#DejaVuSans-20"/>
      <use x="468.945312" xlink:href="#DejaVuSans-62"/>
      <use x="532.421875" xlink:href="#DejaVuSans-79"/>
      <use x="591.601562" xlink:href="#DejaVuSans-20"/>
      <use x="623.388672" xlink:href="#DejaVuSans-31"/>
      <use x="687.011719" xlink:href="#DejaVuSans-30"/>
      <use x="750.634766" xlink:href="#DejaVuSans-30"/>
     </g>
    </g>
    <g id="line2d_22">
     <path d="M 546.225 573.065 
L 610.225 573.065 
" style="fill:none;stroke:#d62728;stroke-linecap:square;stroke-width:4;"/>
    </g>
    <g id="line2d_23"/>
    <g id="text_17">
     <!-- Exact Extrema -->
     <g transform="translate(635.825 584.265)scale(0.32 -0.32)">
      <defs>
       <path d="M 3513 3500 
L 2247 1797 
L 3578 0 
L 2900 0 
L 1881 1375 
L 863 0 
L 184 0 
L 1544 1831 
L 300 3500 
L 978 3500 
L 1906 2253 
L 2834 3500 
L 3513 3500 
z
" id="DejaVuSans-78" transform="scale(0.015625)"/>
       <path d="M 3122 3366 
L 3122 2828 
Q 2878 2963 2633 3030 
Q 2388 3097 2138 3097 
Q 1578 3097 1268 2742 
Q 959 2388 959 1747 
Q 959 1106 1268 751 
Q 1578 397 2138 397 
Q 2388 397 2633 464 
Q 2878 531 3122 666 
L 3122 134 
Q 2881 22 2623 -34 
Q 2366 -91 2075 -91 
Q 1284 -91 818 406 
Q 353 903 353 1747 
Q 353 2603 823 3093 
Q 1294 3584 2113 3584 
Q 2378 3584 2631 3529 
Q 2884 3475 3122 3366 
z
" id="DejaVuSans-63" transform="scale(0.015625)"/>
       <path d="M 2631 2963 
Q 2534 3019 2420 3045 
Q 2306 3072 2169 3072 
Q 1681 3072 1420 2755 
Q 1159 2438 1159 1844 
L 1159 0 
L 581 0 
L 581 3500 
L 1159 3500 
L 1159 2956 
Q 1341 3275 1631 3429 
Q 1922 3584 2338 3584 
Q 2397 3584 2469 3576 
Q 2541 3569 2628 3553 
L 2631 2963 
z
" id="DejaVuSans-72" transform="scale(0.015625)"/>
      </defs>
      <use xlink:href="#DejaVuSans-45"/>
      <use x="63.183594" xlink:href="#DejaVuSans-78"/>
      <use x="122.363281" xlink:href="#DejaVuSans-61"/>
      <use x="183.642578" xlink:href="#DejaVuSans-63"/>
      <use x="238.623047" xlink:href="#DejaVuSans-74"/>
      <use x="277.832031" xlink:href="#DejaVuSans-20"/>
      <use x="309.619141" xlink:href="#DejaVuSans-45"/>
      <use x="372.802734" xlink:href="#DejaVuSans-78"/>
      <use x="431.982422" xlink:href="#DejaVuSans-74"/>
      <use x="471.191406" xlink:href="#DejaVuSans-72"/>
      <use x="510.054688" xlink:href="#DejaVuSans-65"/>
      <use x="571.578125" xlink:href="#DejaVuSans-6d"/>
      <use x="668.990234" xlink:href="#DejaVuSans-61"/>
     </g>
    </g>
   </g>
  </g>
 </g>
 <defs>
  <clipPath id="pdc5ec45d61">
   <rect height="585.16" width="795.13" x="130.07" y="34.56"/>
  </clipPath>
 </defs>
</svg>
