<?xml version="1.0" encoding="utf-8" standalone="no"?>
<!DOCTYPE svg PUBLIC "-//W3C//DTD SVG 1.1//EN"
  "http://www.w3.org/Graphics/SVG/1.1/DTD/svg11.dtd">
<!-- Created with matplotlib (https://matplotlib.org/) -->
<svg height="720pt" version="1.1" viewBox="0 0 959.976 720" width="959.976pt" xmlns="http://www.w3.org/2000/svg" xmlns:xlink="http://www.w3.org/1999/xlink">
 <defs>
  <style type="text/css">
*{stroke-linecap:butt;stroke-linejoin:round;}
  </style>
 </defs>
 <g id="figure_1">
  <g id="patch_1">
   <path d="M 0 720 
L 959.976 720 
L 959.976 0 
L 0 0 
z
" style="fill:#ffffff;"/>
  </g>
  <g id="axes_1">
   <g id="patch_2">
    <path d="M 179.66 588.04 
L 916.776 588.04 
L 916.776 43.2 
L 179.66 43.2 
z
" style="fill:#ffffff;"/>
   </g>
   <g id="matplotlib.axis_1">
    <g id="xtick_1">
     <g id="line2d_1">
      <defs>
       <path d="M 0 0 
L 0 3.5 
" id="m413349a700" style="stroke:#000000;stroke-width:0.8;"/>
      </defs>
      <g>
       <use style="stroke:#000000;stroke-width:0.8;" x="241.086333" xlink:href="#m413349a700" y="588.04"/>
      </g>
     </g>
     <g id="text_1">
      <!-- 0 -->
      <defs>
       <path d="M 31.78125 66.40625 
Q 24.171875 66.40625 20.328125 58.90625 
Q 16.5 51.421875 16.5 36.375 
Q 16.5 21.390625 20.328125 13.890625 
Q 24.171875 6.390625 31.78125 6.390625 
Q 39.453125 6.390625 43.28125 13.890625 
Q 47.125 21.390625 47.125 36.375 
Q 47.125 51.421875 43.28125 58.90625 
Q 39.453125 66.40625 31.78125 66.40625 
z
M 31.78125 74.21875 
Q 44.046875 74.21875 50.515625 64.515625 
Q 56.984375 54.828125 56.984375 36.375 
Q 56.984375 17.96875 50.515625 8.265625 
Q 44.046875 -1.421875 31.78125 -1.421875 
Q 19.53125 -1.421875 13.0625 8.265625 
Q 6.59375 17.96875 6.59375 36.375 
Q 6.59375 54.828125 13.0625 64.515625 
Q 19.53125 74.21875 31.78125 74.21875 
z
" id="DejaVuSans-48"/>
      </defs>
      <g transform="translate(228.361333 625.43375)scale(0.4 -0.4)">
       <use xlink:href="#DejaVuSans-48"/>
      </g>
     </g>
    </g>
    <g id="xtick_2">
     <g id="line2d_2">
      <g>
       <use style="stroke:#000000;stroke-width:0.8;" x="363.939" xlink:href="#m413349a700" y="588.04"/>
      </g>
     </g>
     <g id="text_2">
      <!-- 2 -->
      <defs>
       <path d="M 19.1875 8.296875 
L 53.609375 8.296875 
L 53.609375 0 
L 7.328125 0 
L 7.328125 8.296875 
Q 12.9375 14.109375 22.625 23.890625 
Q 32.328125 33.6875 34.8125 36.53125 
Q 39.546875 41.84375 41.421875 45.53125 
Q 43.3125 49.21875 43.3125 52.78125 
Q 43.3125 58.59375 39.234375 62.25 
Q 35.15625 65.921875 28.609375 65.921875 
Q 23.96875 65.921875 18.8125 64.3125 
Q 13.671875 62.703125 7.8125 59.421875 
L 7.8125 69.390625 
Q 13.765625 71.78125 18.9375 73 
Q 24.125 74.21875 28.421875 74.21875 
Q 39.75 74.21875 46.484375 68.546875 
Q 53.21875 62.890625 53.21875 53.421875 
Q 53.21875 48.921875 51.53125 44.890625 
Q 49.859375 40.875 45.40625 35.40625 
Q 44.1875 33.984375 37.640625 27.21875 
Q 31.109375 20.453125 19.1875 8.296875 
z
" id="DejaVuSans-50"/>
      </defs>
      <g transform="translate(351.214 625.43375)scale(0.4 -0.4)">
       <use xlink:href="#DejaVuSans-50"/>
      </g>
     </g>
    </g>
    <g id="xtick_3">
     <g id="line2d_3">
      <g>
       <use style="stroke:#000000;stroke-width:0.8;" x="486.791667" xlink:href="#m413349a700" y="588.04"/>
      </g>
     </g>
     <g id="text_3">
      <!-- 4 -->
      <defs>
       <path d="M 37.796875 64.3125 
L 12.890625 25.390625 
L 37.796875 25.390625 
z
M 35.203125 72.90625 
L 47.609375 72.90625 
L 47.609375 25.390625 
L 58.015625 25.390625 
L 58.015625 17.1875 
L 47.609375 17.1875 
L 47.609375 0 
L 37.796875 0 
L 37.796875 17.1875 
L 4.890625 17.1875 
L 4.890625 26.703125 
z
" id="DejaVuSans-52"/>
      </defs>
      <g transform="translate(474.066667 625.43375)scale(0.4 -0.4)">
       <use xlink:href="#DejaVuSans-52"/>
      </g>
     </g>
    </g>
    <g id="xtick_4">
     <g id="line2d_4">
      <g>
       <use style="stroke:#000000;stroke-width:0.8;" x="609.644333" xlink:href="#m413349a700" y="588.04"/>
      </g>
     </g>
     <g id="text_4">
      <!-- 6 -->
      <defs>
       <path d="M 33.015625 40.375 
Q 26.375 40.375 22.484375 35.828125 
Q 18.609375 31.296875 18.609375 23.390625 
Q 18.609375 15.53125 22.484375 10.953125 
Q 26.375 6.390625 33.015625 6.390625 
Q 39.65625 6.390625 43.53125 10.953125 
Q 47.40625 15.53125 47.40625 23.390625 
Q 47.40625 31.296875 43.53125 35.828125 
Q 39.65625 40.375 33.015625 40.375 
z
M 52.59375 71.296875 
L 52.59375 62.3125 
Q 48.875 64.0625 45.09375 64.984375 
Q 41.3125 65.921875 37.59375 65.921875 
Q 27.828125 65.921875 22.671875 59.328125 
Q 17.53125 52.734375 16.796875 39.40625 
Q 19.671875 43.65625 24.015625 45.921875 
Q 28.375 48.1875 33.59375 48.1875 
Q 44.578125 48.1875 50.953125 41.515625 
Q 57.328125 34.859375 57.328125 23.390625 
Q 57.328125 12.15625 50.6875 5.359375 
Q 44.046875 -1.421875 33.015625 -1.421875 
Q 20.359375 -1.421875 13.671875 8.265625 
Q 6.984375 17.96875 6.984375 36.375 
Q 6.984375 53.65625 15.1875 63.9375 
Q 23.390625 74.21875 37.203125 74.21875 
Q 40.921875 74.21875 44.703125 73.484375 
Q 48.484375 72.75 52.59375 71.296875 
z
" id="DejaVuSans-54"/>
      </defs>
      <g transform="translate(596.919333 625.43375)scale(0.4 -0.4)">
       <use xlink:href="#DejaVuSans-54"/>
      </g>
     </g>
    </g>
    <g id="xtick_5">
     <g id="line2d_5">
      <g>
       <use style="stroke:#000000;stroke-width:0.8;" x="732.497" xlink:href="#m413349a700" y="588.04"/>
      </g>
     </g>
     <g id="text_5">
      <!-- 8 -->
      <defs>
       <path d="M 31.78125 34.625 
Q 24.75 34.625 20.71875 30.859375 
Q 16.703125 27.09375 16.703125 20.515625 
Q 16.703125 13.921875 20.71875 10.15625 
Q 24.75 6.390625 31.78125 6.390625 
Q 38.8125 6.390625 42.859375 10.171875 
Q 46.921875 13.96875 46.921875 20.515625 
Q 46.921875 27.09375 42.890625 30.859375 
Q 38.875 34.625 31.78125 34.625 
z
M 21.921875 38.8125 
Q 15.578125 40.375 12.03125 44.71875 
Q 8.5 49.078125 8.5 55.328125 
Q 8.5 64.0625 14.71875 69.140625 
Q 20.953125 74.21875 31.78125 74.21875 
Q 42.671875 74.21875 48.875 69.140625 
Q 55.078125 64.0625 55.078125 55.328125 
Q 55.078125 49.078125 51.53125 44.71875 
Q 48 40.375 41.703125 38.8125 
Q 48.828125 37.15625 52.796875 32.3125 
Q 56.78125 27.484375 56.78125 20.515625 
Q 56.78125 9.90625 50.3125 4.234375 
Q 43.84375 -1.421875 31.78125 -1.421875 
Q 19.734375 -1.421875 13.25 4.234375 
Q 6.78125 9.90625 6.78125 20.515625 
Q 6.78125 27.484375 10.78125 32.3125 
Q 14.796875 37.15625 21.921875 38.8125 
z
M 18.3125 54.390625 
Q 18.3125 48.734375 21.84375 45.5625 
Q 25.390625 42.390625 31.78125 42.390625 
Q 38.140625 42.390625 41.71875 45.5625 
Q 45.3125 48.734375 45.3125 54.390625 
Q 45.3125 60.0625 41.71875 63.234375 
Q 38.140625 66.40625 31.78125 66.40625 
Q 25.390625 66.40625 21.84375 63.234375 
Q 18.3125 60.0625 18.3125 54.390625 
z
" id="DejaVuSans-56"/>
      </defs>
      <g transform="translate(719.772 625.43375)scale(0.4 -0.4)">
       <use xlink:href="#DejaVuSans-56"/>
      </g>
     </g>
    </g>
    <g id="xtick_6">
     <g id="line2d_6">
      <g>
       <use style="stroke:#000000;stroke-width:0.8;" x="855.349667" xlink:href="#m413349a700" y="588.04"/>
      </g>
     </g>
     <g id="text_6">
      <!-- 10 -->
      <defs>
       <path d="M 12.40625 8.296875 
L 28.515625 8.296875 
L 28.515625 63.921875 
L 10.984375 60.40625 
L 10.984375 69.390625 
L 28.421875 72.90625 
L 38.28125 72.90625 
L 38.28125 8.296875 
L 54.390625 8.296875 
L 54.390625 0 
L 12.40625 0 
z
" id="DejaVuSans-49"/>
      </defs>
      <g transform="translate(829.899667 625.43375)scale(0.4 -0.4)">
       <use xlink:href="#DejaVuSans-49"/>
       <use x="63.623047" xlink:href="#DejaVuSans-48"/>
      </g>
     </g>
    </g>
    <g id="text_7">
     <!-- Time (s) -->
     <defs>
      <path d="M -0.296875 72.90625 
L 61.375 72.90625 
L 61.375 64.59375 
L 35.5 64.59375 
L 35.5 0 
L 25.59375 0 
L 25.59375 64.59375 
L -0.296875 64.59375 
z
" id="DejaVuSans-84"/>
      <path d="M 9.421875 54.6875 
L 18.40625 54.6875 
L 18.40625 0 
L 9.421875 0 
z
M 9.421875 75.984375 
L 18.40625 75.984375 
L 18.40625 64.59375 
L 9.421875 64.59375 
z
" id="DejaVuSans-105"/>
      <path d="M 52 44.1875 
Q 55.375 50.25 60.0625 53.125 
Q 64.75 56 71.09375 56 
Q 79.640625 56 84.28125 50.015625 
Q 88.921875 44.046875 88.921875 33.015625 
L 88.921875 0 
L 79.890625 0 
L 79.890625 32.71875 
Q 79.890625 40.578125 77.09375 44.375 
Q 74.3125 48.1875 68.609375 48.1875 
Q 61.625 48.1875 57.5625 43.546875 
Q 53.515625 38.921875 53.515625 30.90625 
L 53.515625 0 
L 44.484375 0 
L 44.484375 32.71875 
Q 44.484375 40.625 41.703125 44.40625 
Q 38.921875 48.1875 33.109375 48.1875 
Q 26.21875 48.1875 22.15625 43.53125 
Q 18.109375 38.875 18.109375 30.90625 
L 18.109375 0 
L 9.078125 0 
L 9.078125 54.6875 
L 18.109375 54.6875 
L 18.109375 46.1875 
Q 21.1875 51.21875 25.484375 53.609375 
Q 29.78125 56 35.6875 56 
Q 41.65625 56 45.828125 52.96875 
Q 50 49.953125 52 44.1875 
z
" id="DejaVuSans-109"/>
      <path d="M 56.203125 29.59375 
L 56.203125 25.203125 
L 14.890625 25.203125 
Q 15.484375 15.921875 20.484375 11.0625 
Q 25.484375 6.203125 34.421875 6.203125 
Q 39.59375 6.203125 44.453125 7.46875 
Q 49.3125 8.734375 54.109375 11.28125 
L 54.109375 2.78125 
Q 49.265625 0.734375 44.1875 -0.34375 
Q 39.109375 -1.421875 33.890625 -1.421875 
Q 20.796875 -1.421875 13.15625 6.1875 
Q 5.515625 13.8125 5.515625 26.8125 
Q 5.515625 40.234375 12.765625 48.109375 
Q 20.015625 56 32.328125 56 
Q 43.359375 56 49.78125 48.890625 
Q 56.203125 41.796875 56.203125 29.59375 
z
M 47.21875 32.234375 
Q 47.125 39.59375 43.09375 43.984375 
Q 39.0625 48.390625 32.421875 48.390625 
Q 24.90625 48.390625 20.390625 44.140625 
Q 15.875 39.890625 15.1875 32.171875 
z
" id="DejaVuSans-101"/>
      <path id="DejaVuSans-32"/>
      <path d="M 31 75.875 
Q 24.46875 64.65625 21.28125 53.65625 
Q 18.109375 42.671875 18.109375 31.390625 
Q 18.109375 20.125 21.3125 9.0625 
Q 24.515625 -2 31 -13.1875 
L 23.1875 -13.1875 
Q 15.875 -1.703125 12.234375 9.375 
Q 8.59375 20.453125 8.59375 31.390625 
Q 8.59375 42.28125 12.203125 53.3125 
Q 15.828125 64.359375 23.1875 75.875 
z
" id="DejaVuSans-40"/>
      <path d="M 44.28125 53.078125 
L 44.28125 44.578125 
Q 40.484375 46.53125 36.375 47.5 
Q 32.28125 48.484375 27.875 48.484375 
Q 21.1875 48.484375 17.84375 46.4375 
Q 14.5 44.390625 14.5 40.28125 
Q 14.5 37.15625 16.890625 35.375 
Q 19.28125 33.59375 26.515625 31.984375 
L 29.59375 31.296875 
Q 39.15625 29.25 43.1875 25.515625 
Q 47.21875 21.78125 47.21875 15.09375 
Q 47.21875 7.46875 41.1875 3.015625 
Q 35.15625 -1.421875 24.609375 -1.421875 
Q 20.21875 -1.421875 15.453125 -0.5625 
Q 10.6875 0.296875 5.421875 2 
L 5.421875 11.28125 
Q 10.40625 8.6875 15.234375 7.390625 
Q 20.0625 6.109375 24.8125 6.109375 
Q 31.15625 6.109375 34.5625 8.28125 
Q 37.984375 10.453125 37.984375 14.40625 
Q 37.984375 18.0625 35.515625 20.015625 
Q 33.0625 21.96875 24.703125 23.78125 
L 21.578125 24.515625 
Q 13.234375 26.265625 9.515625 29.90625 
Q 5.8125 33.546875 5.8125 39.890625 
Q 5.8125 47.609375 11.28125 51.796875 
Q 16.75 56 26.8125 56 
Q 31.78125 56 36.171875 55.265625 
Q 40.578125 54.546875 44.28125 53.078125 
z
" id="DejaVuSans-115"/>
      <path d="M 8.015625 75.875 
L 15.828125 75.875 
Q 23.140625 64.359375 26.78125 53.3125 
Q 30.421875 42.28125 30.421875 31.390625 
Q 30.421875 20.453125 26.78125 9.375 
Q 23.140625 -1.703125 15.828125 -13.1875 
L 8.015625 -13.1875 
Q 14.5 -2 17.703125 9.0625 
Q 20.90625 20.125 20.90625 31.390625 
Q 20.90625 42.671875 17.703125 53.65625 
Q 14.5 64.65625 8.015625 75.875 
z
" id="DejaVuSans-41"/>
     </defs>
     <g transform="translate(466.902375 668.14625)scale(0.4 -0.4)">
      <use xlink:href="#DejaVuSans-84"/>
      <use x="57.958984" xlink:href="#DejaVuSans-105"/>
      <use x="85.742188" xlink:href="#DejaVuSans-109"/>
      <use x="183.154297" xlink:href="#DejaVuSans-101"/>
      <use x="244.677734" xlink:href="#DejaVuSans-32"/>
      <use x="276.464844" xlink:href="#DejaVuSans-40"/>
      <use x="315.478516" xlink:href="#DejaVuSans-115"/>
      <use x="367.578125" xlink:href="#DejaVuSans-41"/>
     </g>
    </g>
   </g>
   <g id="matplotlib.axis_2">
    <g id="ytick_1">
     <g id="line2d_7">
      <defs>
       <path d="M 0 0 
L -3.5 0 
" id="m0cfcc79e4b" style="stroke:#000000;stroke-width:0.8;"/>
      </defs>
      <g>
       <use style="stroke:#000000;stroke-width:0.8;" x="179.66" xlink:href="#m0cfcc79e4b" y="533.556"/>
      </g>
     </g>
     <g id="text_8">
      <!-- −20 -->
      <defs>
       <path d="M 10.59375 35.5 
L 73.1875 35.5 
L 73.1875 27.203125 
L 10.59375 27.203125 
z
" id="DejaVuSans-8722"/>
      </defs>
      <g transform="translate(88.24125 548.752875)scale(0.4 -0.4)">
       <use xlink:href="#DejaVuSans-8722"/>
       <use x="83.789062" xlink:href="#DejaVuSans-50"/>
       <use x="147.412109" xlink:href="#DejaVuSans-48"/>
      </g>
     </g>
    </g>
    <g id="ytick_2">
     <g id="line2d_8">
      <g>
       <use style="stroke:#000000;stroke-width:0.8;" x="179.66" xlink:href="#m0cfcc79e4b" y="424.588"/>
      </g>
     </g>
     <g id="text_9">
      <!-- −10 -->
      <g transform="translate(88.24125 439.784875)scale(0.4 -0.4)">
       <use xlink:href="#DejaVuSans-8722"/>
       <use x="83.789062" xlink:href="#DejaVuSans-49"/>
       <use x="147.412109" xlink:href="#DejaVuSans-48"/>
      </g>
     </g>
    </g>
    <g id="ytick_3">
     <g id="line2d_9">
      <g>
       <use style="stroke:#000000;stroke-width:0.8;" x="179.66" xlink:href="#m0cfcc79e4b" y="315.62"/>
      </g>
     </g>
     <g id="text_10">
      <!-- 0 -->
      <g transform="translate(147.21 330.816875)scale(0.4 -0.4)">
       <use xlink:href="#DejaVuSans-48"/>
      </g>
     </g>
    </g>
    <g id="ytick_4">
     <g id="line2d_10">
      <g>
       <use style="stroke:#000000;stroke-width:0.8;" x="179.66" xlink:href="#m0cfcc79e4b" y="206.652"/>
      </g>
     </g>
     <g id="text_11">
      <!-- 10 -->
      <g transform="translate(121.76 221.848875)scale(0.4 -0.4)">
       <use xlink:href="#DejaVuSans-49"/>
       <use x="63.623047" xlink:href="#DejaVuSans-48"/>
      </g>
     </g>
    </g>
    <g id="ytick_5">
     <g id="line2d_11">
      <g>
       <use style="stroke:#000000;stroke-width:0.8;" x="179.66" xlink:href="#m0cfcc79e4b" y="97.684"/>
      </g>
     </g>
     <g id="text_12">
      <!-- 20 -->
      <g transform="translate(121.76 112.880875)scale(0.4 -0.4)">
       <use xlink:href="#DejaVuSans-50"/>
       <use x="63.623047" xlink:href="#DejaVuSans-48"/>
      </g>
     </g>
    </g>
    <g id="text_13">
     <!-- $\tan (\psi)$ -->
     <defs>
      <path d="M 18.3125 70.21875 
L 18.3125 54.6875 
L 36.8125 54.6875 
L 36.8125 47.703125 
L 18.3125 47.703125 
L 18.3125 18.015625 
Q 18.3125 11.328125 20.140625 9.421875 
Q 21.96875 7.515625 27.59375 7.515625 
L 36.8125 7.515625 
L 36.8125 0 
L 27.59375 0 
Q 17.1875 0 13.234375 3.875 
Q 9.28125 7.765625 9.28125 18.015625 
L 9.28125 47.703125 
L 2.6875 47.703125 
L 2.6875 54.6875 
L 9.28125 54.6875 
L 9.28125 70.21875 
z
" id="DejaVuSans-116"/>
      <path d="M 34.28125 27.484375 
Q 23.390625 27.484375 19.1875 25 
Q 14.984375 22.515625 14.984375 16.5 
Q 14.984375 11.71875 18.140625 8.90625 
Q 21.296875 6.109375 26.703125 6.109375 
Q 34.1875 6.109375 38.703125 11.40625 
Q 43.21875 16.703125 43.21875 25.484375 
L 43.21875 27.484375 
z
M 52.203125 31.203125 
L 52.203125 0 
L 43.21875 0 
L 43.21875 8.296875 
Q 40.140625 3.328125 35.546875 0.953125 
Q 30.953125 -1.421875 24.3125 -1.421875 
Q 15.921875 -1.421875 10.953125 3.296875 
Q 6 8.015625 6 15.921875 
Q 6 25.140625 12.171875 29.828125 
Q 18.359375 34.515625 30.609375 34.515625 
L 43.21875 34.515625 
L 43.21875 35.40625 
Q 43.21875 41.609375 39.140625 45 
Q 35.0625 48.390625 27.6875 48.390625 
Q 23 48.390625 18.546875 47.265625 
Q 14.109375 46.140625 10.015625 43.890625 
L 10.015625 52.203125 
Q 14.9375 54.109375 19.578125 55.046875 
Q 24.21875 56 28.609375 56 
Q 40.484375 56 46.34375 49.84375 
Q 52.203125 43.703125 52.203125 31.203125 
z
" id="DejaVuSans-97"/>
      <path d="M 54.890625 33.015625 
L 54.890625 0 
L 45.90625 0 
L 45.90625 32.71875 
Q 45.90625 40.484375 42.875 44.328125 
Q 39.84375 48.1875 33.796875 48.1875 
Q 26.515625 48.1875 22.3125 43.546875 
Q 18.109375 38.921875 18.109375 30.90625 
L 18.109375 0 
L 9.078125 0 
L 9.078125 54.6875 
L 18.109375 54.6875 
L 18.109375 46.1875 
Q 21.34375 51.125 25.703125 53.5625 
Q 30.078125 56 35.796875 56 
Q 45.21875 56 50.046875 50.171875 
Q 54.890625 44.34375 54.890625 33.015625 
z
" id="DejaVuSans-110"/>
      <path d="M 24.859375 -1.21875 
Q 13.921875 0.59375 9.625 5.328125 
Q 4.34375 11.140625 6.640625 23 
L 12.796875 54.6875 
L 21.875 54.6875 
L 15.765625 23.34375 
Q 14.0625 14.40625 17.484375 10.6875 
Q 20.515625 7.46875 26.421875 6.78125 
L 35.6875 54.6875 
L 44.625 54.6875 
L 35.359375 6.84375 
Q 41.890625 7.515625 45.75 10.75 
Q 50.734375 14.84375 52.390625 23.390625 
L 58.453125 54.6875 
L 67.53125 54.6875 
L 61.375 23.046875 
Q 58.984375 10.75 51.5625 5.375 
Q 44.875 0.53125 33.796875 -1.171875 
L 29.984375 -20.796875 
L 21.046875 -20.796875 
z
" id="DejaVuSans-Oblique-968"/>
     </defs>
     <g transform="translate(75.84125 377.22)rotate(-90)scale(0.4 -0.4)">
      <use transform="translate(0 0.125)" xlink:href="#DejaVuSans-116"/>
      <use transform="translate(39.208984 0.125)" xlink:href="#DejaVuSans-97"/>
      <use transform="translate(100.488281 0.125)" xlink:href="#DejaVuSans-110"/>
      <use transform="translate(163.867188 0.125)" xlink:href="#DejaVuSans-40"/>
      <use transform="translate(202.880859 0.125)" xlink:href="#DejaVuSans-Oblique-968"/>
      <use transform="translate(268.847656 0.125)" xlink:href="#DejaVuSans-41"/>
     </g>
    </g>
   </g>
   <g id="line2d_12">
    <path clip-path="url(#pc6fa11cf3d)" d="M 241.647568 721 
L 241.647605 -1 
M 243.226441 -1 
L 243.331599 17.623542 
L 243.892916 77.280262 
L 244.454232 117.060613 
L 245.015549 145.482907 
L 245.576865 166.806243 
L 246.138182 183.39676 
L 247.260815 207.541778 
L 248.383448 224.271687 
L 249.506081 236.551523 
L 250.628714 245.950991 
L 251.751347 253.378853 
L 252.87398 259.39767 
L 253.996613 264.374319 
L 255.119246 268.558272 
L 256.241879 272.12508 
L 257.925828 276.586943 
L 259.609777 280.23971 
L 261.293727 283.284088 
L 262.977676 285.85902 
L 264.661626 288.063742 
L 266.345575 289.971023 
L 268.590841 292.143774 
L 270.836107 293.978798 
L 273.081373 295.544785 
L 275.887956 297.199872 
L 278.694538 298.585403 
L 282.062437 299.964965 
L 285.430336 301.096506 
L 289.359551 302.16498 
L 293.288767 303.012786 
L 297.779299 303.760247 
L 302.831147 304.366959 
L 308.444312 304.797501 
L 314.057477 305.008291 
L 320.231958 305.016173 
L 326.40644 304.809102 
L 333.142238 304.349782 
L 339.316719 303.716081 
L 345.4912 302.871965 
L 351.665682 301.802555 
L 357.278847 300.615213 
L 362.892012 299.197346 
L 367.94386 297.696751 
L 372.995708 295.950878 
L 377.48624 294.160697 
L 381.976772 292.109334 
L 385.905988 290.065422 
L 389.835203 287.750817 
L 393.203102 285.517426 
L 396.571001 283.017523 
L 399.9389 280.209362 
L 402.745482 277.597478 
L 405.552065 274.701238 
L 408.358647 271.478655 
L 411.16523 267.87941 
L 413.971812 263.84277 
L 416.217078 260.249417 
L 418.462344 256.283827 
L 420.70761 251.892289 
L 422.952876 247.010764 
L 425.198142 241.562356 
L 427.443408 235.454024 
L 429.688674 228.572231 
L 431.93394 220.777143 
L 433.617889 214.228369 
L 435.301839 206.979515 
L 436.985788 198.923645 
L 438.669738 189.93184 
L 440.353687 179.847369 
L 442.037637 168.477911 
L 443.721586 155.585046 
L 445.405536 140.869816 
L 447.089485 123.952543 
L 448.773435 104.344056 
L 450.457384 81.403748 
L 452.141333 54.276867 
L 453.825283 21.798006 
L 454.836429 -1 
M 472.642234 -1 
L 472.648978 721 
M 510.60643 721 
L 510.609968 -1 
M 529.345485 -1 
L 530.725642 28.290825 
L 532.409591 58.412408 
L 534.093541 83.772464 
L 535.77749 105.369045 
L 537.46144 123.943553 
L 539.145389 140.057811 
L 540.829339 154.144992 
L 542.513288 166.544189 
L 544.197238 177.524439 
L 545.881187 187.30177 
L 547.565137 196.051514 
L 549.810403 206.364038 
L 552.055669 215.376485 
L 554.300935 223.304487 
L 556.546201 230.319792 
L 558.791466 236.560742 
L 561.036732 242.139905 
L 563.281998 247.149716 
L 565.527264 251.666718 
L 567.77253 255.754775 
L 570.579113 260.342584 
L 573.385695 264.430444 
L 576.192278 268.089577 
L 578.99886 271.378754 
L 581.805443 274.346852 
L 584.612025 277.034803 
L 587.979924 279.938749 
L 591.347823 282.538527 
L 594.715722 284.875344 
L 598.644937 287.31475 
L 602.574153 289.487845 
L 607.064685 291.692488 
L 611.555217 293.642627 
L 616.607065 295.577701 
L 621.658913 297.279117 
L 627.272078 298.936609 
L 633.44656 300.519232 
L 640.182357 302.0024 
L 647.479472 303.366562 
L 655.337903 304.595416 
L 663.75765 305.673711 
L 672.738714 306.584547 
L 681.719778 307.270219 
L 690.700842 307.741215 
L 699.681905 307.996617 
L 708.662969 308.023449 
L 717.082717 307.816929 
L 724.379831 307.427445 
L 731.115629 306.861254 
L 737.29011 306.131168 
L 742.903275 305.252179 
L 747.955123 304.243608 
L 752.445655 303.131433 
L 756.374871 301.950656 
L 760.304086 300.526723 
L 763.671985 299.062729 
L 766.478568 297.627142 
L 769.28515 295.946399 
L 771.530416 294.383145 
L 773.775682 292.578527 
L 776.020948 290.473532 
L 778.266214 287.987255 
L 779.950163 285.805444 
L 781.634113 283.28002 
L 783.318062 280.32166 
L 785.002012 276.806489 
L 786.685961 272.557564 
L 787.808594 269.192965 
L 788.931227 265.279481 
L 790.05386 260.668198 
L 791.176493 255.150636 
L 792.299126 248.42566 
L 793.421759 240.041567 
L 794.544392 229.288542 
L 795.667025 214.98355 
L 796.228342 205.894104 
L 796.789658 194.99712 
L 797.350975 181.690319 
L 797.912291 165.070276 
L 798.473608 143.717315 
L 799.034924 115.265294 
L 799.596241 75.455112 
L 800.252212 -1 
M 801.841552 -1 
L 801.841589 721 
L 801.841589 721 
" style="fill:none;stroke:#1f77b4;stroke-linecap:square;stroke-width:4;"/>
   </g>
   <g id="line2d_13">
    <path clip-path="url(#pc6fa11cf3d)" d="M 241.555391 721 
L 241.555422 -1 
M 243.225639 -1 
L 243.432015 30.396208 
L 243.901151 77.984876 
L 244.370288 111.9842 
L 245.308561 157.333947 
L 246.246833 186.211514 
L 247.185106 206.219018 
L 248.123379 220.904003 
L 249.061651 232.144499 
L 249.999924 241.027727 
L 250.938197 248.226673 
L 251.876469 254.180198 
L 253.283879 261.402929 
L 254.691288 267.1404 
L 256.098697 271.808746 
L 257.506106 275.681331 
L 258.913515 278.945116 
L 260.320924 281.732288 
L 262.197469 284.869513 
L 264.074015 287.490781 
L 265.95056 289.710071 
L 267.827106 291.609363 
L 270.172787 293.624166 
L 272.518469 295.319175 
L 274.864151 296.757163 
L 277.678969 298.208268 
L 280.493787 299.415602 
L 283.777742 300.574275 
L 287.530832 301.631074 
L 291.283923 302.455893 
L 295.506151 303.156827 
L 300.197514 303.702361 
L 305.358014 304.065458 
L 310.98765 304.220393 
L 316.617286 304.153751 
L 322.716059 303.851903 
L 328.814832 303.319369 
L 334.913604 302.552246 
L 340.543241 301.622445 
L 346.172877 300.45751 
L 351.333377 299.155728 
L 356.02474 297.748922 
L 360.246968 296.272649 
L 364.469195 294.565442 
L 368.222286 292.823005 
L 371.975376 290.834073 
L 375.259331 288.85929 
L 378.543285 286.630564 
L 381.82724 284.107079 
L 384.642058 281.672103 
L 387.456876 278.946502 
L 390.271694 275.885108 
L 392.617376 273.038529 
L 394.963058 269.883739 
L 397.30874 266.376582 
L 399.654421 262.464739 
L 402.000103 258.085891 
L 404.345785 253.165392 
L 406.691467 247.613292 
L 408.568012 242.644326 
L 410.444557 237.13513 
L 412.321103 231.007175 
L 414.197648 224.167519 
L 416.074194 216.505633 
L 417.950739 207.889413 
L 419.827285 198.160162 
L 421.70383 187.12624 
L 423.580375 174.554999 
L 425.456921 160.16253 
L 427.333466 143.600606 
L 429.210012 124.440096 
L 430.617421 108.049505 
L 432.02483 89.631294 
L 433.432239 68.867874 
L 434.839648 45.385521 
L 436.247057 18.745163 
L 437.184403 -1 
M 481.924527 -1 
L 483.160693 24.708338 
L 484.568102 50.61066 
L 486.444647 80.477974 
L 488.321192 105.892982 
L 490.197738 127.643718 
L 492.074283 146.364539 
L 493.950829 162.56688 
L 495.827374 176.66439 
L 497.70392 188.993035 
L 499.580465 199.826998 
L 501.45701 209.39118 
L 503.333556 217.871033 
L 505.210101 225.420282 
L 507.086647 232.167023 
L 508.963192 238.218537 
L 511.308874 244.941461 
L 513.654556 250.86459 
L 516.000237 256.107514 
L 518.345919 260.768572 
L 520.691601 264.929155 
L 523.037283 268.657037 
L 525.382964 272.008986 
L 528.197783 275.60187 
L 531.012601 278.790777 
L 533.827419 281.632521 
L 536.642237 284.174248 
L 539.926191 286.812559 
L 543.210146 289.14765 
L 546.4941 291.222082 
L 550.247191 293.318543 
L 554.000282 295.163499 
L 558.222509 296.982058 
L 562.444737 298.567459 
L 567.1361 300.095295 
L 572.2966 301.533053 
L 577.926236 302.854121 
L 584.025009 304.036419 
L 590.123781 304.995213 
L 596.69169 305.808374 
L 603.728736 306.452916 
L 610.765781 306.880491 
L 618.271963 307.106566 
L 625.309008 307.101225 
L 632.346053 306.873248 
L 638.913962 306.437777 
L 645.012735 305.811102 
L 650.642371 305.00628 
L 655.802871 304.035645 
L 660.494235 302.913351 
L 664.716462 301.658175 
L 668.469553 300.29661 
L 671.753507 298.866062 
L 674.568325 297.417552 
L 677.383143 295.712289 
L 679.728825 294.047024 
L 682.074507 292.103681 
L 683.951052 290.300978 
L 685.827598 288.224805 
L 687.704143 285.809053 
L 689.580689 282.963747 
L 690.988098 280.474072 
L 692.395507 277.600935 
L 693.802916 274.247467 
L 695.210325 270.280614 
L 696.617734 265.512444 
L 698.025143 259.668514 
L 698.963416 254.977399 
L 699.901689 249.449147 
L 700.839961 242.834026 
L 701.778234 234.771421 
L 702.716507 224.720534 
L 703.654779 211.831702 
L 704.593052 194.689028 
L 705.531325 170.744165 
L 706.000461 154.80525 
L 706.469598 134.900772 
L 706.938734 109.33202 
L 707.40787 75.267825 
L 708.064899 -1 
M 709.7536 -1 
L 709.753631 721 
L 709.753631 721 
" style="fill:none;stroke:#ff7f0e;stroke-linecap:square;stroke-width:4;"/>
   </g>
   <g id="line2d_14">
    <path clip-path="url(#pc6fa11cf3d)" d="M 241.52346 721 
L 241.523489 -1 
M 243.212155 -1 
L 243.272354 9.544431 
L 243.709559 60.605242 
L 244.583967 124.449358 
L 245.458375 162.775106 
L 246.332784 188.341333 
L 247.207192 206.615954 
L 248.081601 220.332827 
L 248.956009 231.010684 
L 249.830417 239.560706 
L 250.704826 246.562682 
L 252.016438 254.974664 
L 253.328051 261.592881 
L 254.639664 266.936456 
L 255.951276 271.34119 
L 257.262889 275.033891 
L 258.574502 278.173267 
L 260.323318 281.691565 
L 262.072135 284.618937 
L 263.820952 287.08885 
L 265.569769 289.196641 
L 267.75579 291.426968 
L 269.941811 293.299271 
L 272.127832 294.885352 
L 274.751057 296.484589 
L 277.374282 297.815211 
L 280.434712 299.093797 
L 283.495141 300.132352 
L 286.992775 301.079822 
L 290.927613 301.895773 
L 295.299655 302.547969 
L 299.671697 302.977524 
L 304.480943 303.231783 
L 309.727394 303.281535 
L 314.973844 303.11659 
L 320.657499 302.709324 
L 326.341153 302.066681 
L 331.587604 301.256923 
L 336.834054 300.223266 
L 341.6433 299.058221 
L 346.452547 297.658134 
L 350.824589 296.152297 
L 354.759427 294.579047 
L 358.694264 292.768064 
L 362.191898 290.928895 
L 365.689532 288.841066 
L 368.749961 286.780552 
L 371.810391 284.470415 
L 374.87082 281.874955 
L 377.93125 278.951979 
L 380.554475 276.148262 
L 383.1777 273.030522 
L 385.800925 269.556069 
L 388.42415 265.675398 
L 391.047376 261.331122 
L 393.233397 257.309112 
L 395.419418 252.875331 
L 397.605439 247.980464 
L 399.79146 242.569317 
L 401.977481 236.580513 
L 404.163502 229.946447 
L 406.349523 222.593644 
L 408.535544 214.443813 
L 410.721565 205.415922 
L 412.907586 195.429834 
L 415.093607 184.412155 
L 417.279628 172.305149 
L 419.465649 159.079652 
L 422.088874 141.761484 
L 425.149304 119.79141 
L 430.395754 79.80095 
L 433.456184 57.484933 
L 435.205 46.070209 
L 436.953817 36.190619 
L 438.26543 30.057414 
L 439.577042 25.208719 
L 440.451451 22.761386 
L 441.325859 20.981809 
L 442.200268 19.894399 
L 442.637472 19.615318 
L 443.074676 19.514118 
L 443.51188 19.591108 
L 443.949084 19.845959 
L 444.386289 20.277709 
L 445.260697 21.664955 
L 446.135105 23.732952 
L 447.009514 26.45278 
L 447.883922 29.787471 
L 449.195535 35.845014 
L 450.507148 43.016739 
L 452.255964 53.989404 
L 454.441985 69.334391 
L 458.376823 99.066912 
L 462.748865 131.555981 
L 465.372091 149.556711 
L 467.995316 166.063317 
L 470.618541 180.986642 
L 472.804562 192.228993 
L 474.990583 202.439166 
L 477.176604 211.686292 
L 479.362625 220.047903 
L 481.548646 227.603592 
L 483.734667 234.431011 
L 485.920688 240.603514 
L 488.106709 246.188932 
L 490.29273 251.249066 
L 492.478751 255.839651 
L 495.101976 260.798432 
L 497.725202 265.22864 
L 500.348427 269.196156 
L 502.971652 272.757948 
L 505.594877 275.963215 
L 508.218103 278.854442 
L 511.278532 281.879316 
L 514.338961 284.576367 
L 517.399391 286.987777 
L 520.897025 289.439534 
L 524.394658 291.609658 
L 527.892292 293.53558 
L 531.82713 295.449118 
L 536.199172 297.303892 
L 540.571214 298.912835 
L 545.38046 300.438562 
L 550.62691 301.851815 
L 555.873361 303.038445 
L 561.557016 304.101119 
L 567.677874 305.016911 
L 574.235938 305.762547 
L 580.794001 306.284522 
L 587.352064 306.59428 
L 593.910127 306.694619 
L 600.46819 306.579343 
L 606.589049 306.262706 
L 612.709908 305.719772 
L 618.393562 304.979778 
L 623.202809 304.14148 
L 627.574851 303.174517 
L 631.509688 302.100443 
L 635.444526 300.787198 
L 638.94216 299.368601 
L 642.002589 297.883001 
L 644.625815 296.382692 
L 647.24904 294.620597 
L 649.435061 292.903542 
L 651.621082 290.9039 
L 653.807103 288.548918 
L 655.55592 286.342459 
L 657.304737 283.773873 
L 659.053553 280.746722 
L 660.365166 278.096296 
L 661.676779 275.035832 
L 662.988391 271.46143 
L 664.300004 267.230356 
L 665.611616 262.140987 
L 666.923229 255.898867 
L 668.234842 248.056202 
L 669.10925 241.601771 
L 669.983658 233.806848 
L 670.858067 224.200025 
L 671.732475 212.058626 
L 672.606884 196.215449 
L 673.481292 174.65467 
L 674.355701 143.568961 
L 674.792905 122.223509 
L 675.230109 94.800207 
L 675.667313 58.261083 
L 676.150938 -1 
M 677.853383 -1 
L 677.853412 721 
L 677.853412 721 
" style="fill:none;stroke:#2ca02c;stroke-linecap:square;stroke-width:4;"/>
   </g>
   <g id="line2d_15">
    <path clip-path="url(#pc6fa11cf3d)" d="M 242.686914 721 
L 243.219277 613.983377 
L 243.828689 544.238198 
L 244.438101 499.85405 
L 245.047514 469.12836 
L 245.656926 446.600236 
L 246.571044 422.206607 
L 247.485163 404.803014 
L 248.399281 391.779022 
L 249.3134 381.688234 
L 250.227518 373.668164 
L 251.141637 367.177772 
L 252.360462 360.31993 
L 253.27458 356.258552 
L 254.188699 353.016435 
L 255.102817 350.623114 
L 255.712229 349.610622 
L 256.016936 349.342305 
L 256.321642 349.289398 
L 256.626348 349.527494 
L 256.931054 350.185324 
L 257.23576 351.499096 
L 257.540466 353.951001 
L 257.845173 358.696933 
L 258.149879 369.363858 
L 258.454585 406.189338 
L 258.676878 -1 
M 258.865815 -1 
L 259.063997 279.853773 
L 259.368703 304.869997 
L 259.67341 313.480807 
L 259.978116 317.627528 
L 260.282822 319.932946 
L 260.587528 321.306799 
L 260.892234 322.147752 
L 261.196941 322.657882 
L 261.806353 323.093576 
L 262.415765 323.091376 
L 263.025178 322.85596 
L 264.244002 322.044647 
L 266.681652 319.986351 
L 270.642832 316.666363 
L 273.9946 314.15851 
L 277.651074 311.717286 
L 281.91696 309.162595 
L 287.096965 306.341236 
L 295.324031 302.157871 
L 305.074629 297.143764 
L 310.55934 294.076234 
L 315.129932 291.282082 
L 319.395819 288.41393 
L 323.356999 285.471553 
L 327.013473 282.472073 
L 330.365241 279.448738 
L 333.717009 276.13493 
L 337.068777 272.50979 
L 340.420545 268.565522 
L 344.077019 263.916515 
L 348.647611 257.703927 
L 356.569972 246.843403 
L 359.312327 243.515447 
L 361.44527 241.26399 
L 363.273507 239.641767 
L 364.797038 238.546561 
L 366.320569 237.712897 
L 367.8441 237.162172 
L 369.062924 236.935761 
L 370.281749 236.904803 
L 371.500574 237.070633 
L 372.719398 237.431335 
L 374.242929 238.148164 
L 375.76646 239.144716 
L 377.289991 240.398053 
L 379.118228 242.201258 
L 381.251171 244.647465 
L 383.993527 248.191156 
L 387.954707 253.740699 
L 394.353536 262.713822 
L 398.010011 267.434688 
L 401.361778 271.377999 
L 404.40884 274.620964 
L 407.455902 277.541987 
L 410.502963 280.158136 
L 413.550025 282.49373 
L 416.901793 284.77181 
L 420.253561 286.781478 
L 423.910035 288.71045 
L 427.871215 290.539473 
L 432.137101 292.262403 
L 437.0124 293.988542 
L 443.106524 295.891253 
L 453.466533 298.833814 
L 461.084188 301.101016 
L 465.959486 302.774686 
L 469.920666 304.36504 
L 473.272434 305.946469 
L 476.319496 307.639676 
L 479.061852 309.436799 
L 481.499501 311.312896 
L 483.632444 313.224251 
L 485.765387 315.447492 
L 487.593624 317.656544 
L 489.421861 320.206659 
L 491.250098 323.170682 
L 492.773629 326.022449 
L 494.29716 329.291076 
L 495.820691 333.057764 
L 497.344222 337.422885 
L 498.867753 342.511162 
L 500.391283 348.478288 
L 501.914814 355.519234 
L 503.438345 363.878385 
L 504.65717 371.717704 
L 505.875994 380.784209 
L 507.094819 391.30022 
L 508.313644 403.521256 
L 509.532468 417.730456 
L 510.751293 434.221211 
L 511.970118 453.258128 
L 513.493649 480.858471 
L 515.321886 519.087365 
L 518.368947 585.152775 
L 519.283066 600.674614 
L 519.892478 608.511815 
L 520.501891 613.806558 
L 520.806597 615.379072 
L 521.111303 616.184175 
L 521.416009 616.194735 
L 521.720715 615.393655 
L 522.025421 613.774561 
L 522.634834 608.112092 
L 523.244246 599.374198 
L 524.158365 581.238181 
L 525.377189 550.145277 
L 530.557194 406.342047 
L 532.080725 372.601843 
L 533.908962 337.431709 
L 536.651318 290.362442 
L 538.479555 257.495986 
L 539.698379 231.302521 
L 540.612498 206.778072 
L 541.526616 174.512116 
L 542.136029 145.58654 
L 542.745441 106.398498 
L 543.354853 49.084465 
L 543.71503 -1 
M 545.487849 -1 
L 545.487869 721 
L 545.487869 721 
" style="fill:none;stroke:#d62728;stroke-linecap:square;stroke-width:4;"/>
   </g>
   <g id="patch_3">
    <path d="M 179.66 588.04 
L 179.66 43.2 
" style="fill:none;stroke:#000000;stroke-linecap:square;stroke-linejoin:miter;stroke-width:0.8;"/>
   </g>
   <g id="patch_4">
    <path d="M 916.776 588.04 
L 916.776 43.2 
" style="fill:none;stroke:#000000;stroke-linecap:square;stroke-linejoin:miter;stroke-width:0.8;"/>
   </g>
   <g id="patch_5">
    <path d="M 179.66 588.04 
L 916.776 588.04 
" style="fill:none;stroke:#000000;stroke-linecap:square;stroke-linejoin:miter;stroke-width:0.8;"/>
   </g>
   <g id="patch_6">
    <path d="M 179.66 43.2 
L 916.776 43.2 
" style="fill:none;stroke:#000000;stroke-linecap:square;stroke-linejoin:miter;stroke-width:0.8;"/>
   </g>
   <g id="legend_1">
    <g id="patch_7">
     <path d="M 531.401 572.04 
L 894.376 572.04 
Q 900.776 572.04 900.776 565.64 
L 900.776 380.96 
Q 900.776 374.56 894.376 374.56 
L 531.401 374.56 
Q 525.001 374.56 525.001 380.96 
L 525.001 565.64 
Q 525.001 572.04 531.401 572.04 
z
" style="fill:#ffffff;opacity:0.8;stroke:#cccccc;stroke-linejoin:miter;"/>
    </g>
    <g id="line2d_16">
     <path d="M 537.801 400.475 
L 601.801 400.475 
" style="fill:none;stroke:#1f77b4;stroke-linecap:square;stroke-width:4;"/>
    </g>
    <g id="line2d_17"/>
    <g id="text_14">
     <!-- No Elevation -->
     <defs>
      <path d="M 9.8125 72.90625 
L 23.09375 72.90625 
L 55.421875 11.921875 
L 55.421875 72.90625 
L 64.984375 72.90625 
L 64.984375 0 
L 51.703125 0 
L 19.390625 60.984375 
L 19.390625 0 
L 9.8125 0 
z
" id="DejaVuSans-78"/>
      <path d="M 30.609375 48.390625 
Q 23.390625 48.390625 19.1875 42.75 
Q 14.984375 37.109375 14.984375 27.296875 
Q 14.984375 17.484375 19.15625 11.84375 
Q 23.34375 6.203125 30.609375 6.203125 
Q 37.796875 6.203125 41.984375 11.859375 
Q 46.1875 17.53125 46.1875 27.296875 
Q 46.1875 37.015625 41.984375 42.703125 
Q 37.796875 48.390625 30.609375 48.390625 
z
M 30.609375 56 
Q 42.328125 56 49.015625 48.375 
Q 55.71875 40.765625 55.71875 27.296875 
Q 55.71875 13.875 49.015625 6.21875 
Q 42.328125 -1.421875 30.609375 -1.421875 
Q 18.84375 -1.421875 12.171875 6.21875 
Q 5.515625 13.875 5.515625 27.296875 
Q 5.515625 40.765625 12.171875 48.375 
Q 18.84375 56 30.609375 56 
z
" id="DejaVuSans-111"/>
      <path d="M 9.8125 72.90625 
L 55.90625 72.90625 
L 55.90625 64.59375 
L 19.671875 64.59375 
L 19.671875 43.015625 
L 54.390625 43.015625 
L 54.390625 34.71875 
L 19.671875 34.71875 
L 19.671875 8.296875 
L 56.78125 8.296875 
L 56.78125 0 
L 9.8125 0 
z
" id="DejaVuSans-69"/>
      <path d="M 9.421875 75.984375 
L 18.40625 75.984375 
L 18.40625 0 
L 9.421875 0 
z
" id="DejaVuSans-108"/>
      <path d="M 2.984375 54.6875 
L 12.5 54.6875 
L 29.59375 8.796875 
L 46.6875 54.6875 
L 56.203125 54.6875 
L 35.6875 0 
L 23.484375 0 
z
" id="DejaVuSans-118"/>
     </defs>
     <g transform="translate(627.401 411.675)scale(0.32 -0.32)">
      <use xlink:href="#DejaVuSans-78"/>
      <use x="74.804688" xlink:href="#DejaVuSans-111"/>
      <use x="135.986328" xlink:href="#DejaVuSans-32"/>
      <use x="167.773438" xlink:href="#DejaVuSans-69"/>
      <use x="230.957031" xlink:href="#DejaVuSans-108"/>
      <use x="258.740234" xlink:href="#DejaVuSans-101"/>
      <use x="320.263672" xlink:href="#DejaVuSans-118"/>
      <use x="379.443359" xlink:href="#DejaVuSans-97"/>
      <use x="440.722656" xlink:href="#DejaVuSans-116"/>
      <use x="479.931641" xlink:href="#DejaVuSans-105"/>
      <use x="507.714844" xlink:href="#DejaVuSans-111"/>
      <use x="568.896484" xlink:href="#DejaVuSans-110"/>
     </g>
    </g>
    <g id="line2d_18">
     <path d="M 537.801 447.445 
L 601.801 447.445 
" style="fill:none;stroke:#ff7f0e;stroke-linecap:square;stroke-width:4;"/>
    </g>
    <g id="line2d_19"/>
    <g id="text_15">
     <!-- Elevated by 30 -->
     <defs>
      <path d="M 45.40625 46.390625 
L 45.40625 75.984375 
L 54.390625 75.984375 
L 54.390625 0 
L 45.40625 0 
L 45.40625 8.203125 
Q 42.578125 3.328125 38.25 0.953125 
Q 33.9375 -1.421875 27.875 -1.421875 
Q 17.96875 -1.421875 11.734375 6.484375 
Q 5.515625 14.40625 5.515625 27.296875 
Q 5.515625 40.1875 11.734375 48.09375 
Q 17.96875 56 27.875 56 
Q 33.9375 56 38.25 53.625 
Q 42.578125 51.265625 45.40625 46.390625 
z
M 14.796875 27.296875 
Q 14.796875 17.390625 18.875 11.75 
Q 22.953125 6.109375 30.078125 6.109375 
Q 37.203125 6.109375 41.296875 11.75 
Q 45.40625 17.390625 45.40625 27.296875 
Q 45.40625 37.203125 41.296875 42.84375 
Q 37.203125 48.484375 30.078125 48.484375 
Q 22.953125 48.484375 18.875 42.84375 
Q 14.796875 37.203125 14.796875 27.296875 
z
" id="DejaVuSans-100"/>
      <path d="M 48.6875 27.296875 
Q 48.6875 37.203125 44.609375 42.84375 
Q 40.53125 48.484375 33.40625 48.484375 
Q 26.265625 48.484375 22.1875 42.84375 
Q 18.109375 37.203125 18.109375 27.296875 
Q 18.109375 17.390625 22.1875 11.75 
Q 26.265625 6.109375 33.40625 6.109375 
Q 40.53125 6.109375 44.609375 11.75 
Q 48.6875 17.390625 48.6875 27.296875 
z
M 18.109375 46.390625 
Q 20.953125 51.265625 25.265625 53.625 
Q 29.59375 56 35.59375 56 
Q 45.5625 56 51.78125 48.09375 
Q 58.015625 40.1875 58.015625 27.296875 
Q 58.015625 14.40625 51.78125 6.484375 
Q 45.5625 -1.421875 35.59375 -1.421875 
Q 29.59375 -1.421875 25.265625 0.953125 
Q 20.953125 3.328125 18.109375 8.203125 
L 18.109375 0 
L 9.078125 0 
L 9.078125 75.984375 
L 18.109375 75.984375 
z
" id="DejaVuSans-98"/>
      <path d="M 32.171875 -5.078125 
Q 28.375 -14.84375 24.75 -17.8125 
Q 21.140625 -20.796875 15.09375 -20.796875 
L 7.90625 -20.796875 
L 7.90625 -13.28125 
L 13.1875 -13.28125 
Q 16.890625 -13.28125 18.9375 -11.515625 
Q 21 -9.765625 23.484375 -3.21875 
L 25.09375 0.875 
L 2.984375 54.6875 
L 12.5 54.6875 
L 29.59375 11.921875 
L 46.6875 54.6875 
L 56.203125 54.6875 
z
" id="DejaVuSans-121"/>
      <path d="M 40.578125 39.3125 
Q 47.65625 37.796875 51.625 33 
Q 55.609375 28.21875 55.609375 21.1875 
Q 55.609375 10.40625 48.1875 4.484375 
Q 40.765625 -1.421875 27.09375 -1.421875 
Q 22.515625 -1.421875 17.65625 -0.515625 
Q 12.796875 0.390625 7.625 2.203125 
L 7.625 11.71875 
Q 11.71875 9.328125 16.59375 8.109375 
Q 21.484375 6.890625 26.8125 6.890625 
Q 36.078125 6.890625 40.9375 10.546875 
Q 45.796875 14.203125 45.796875 21.1875 
Q 45.796875 27.640625 41.28125 31.265625 
Q 36.765625 34.90625 28.71875 34.90625 
L 20.21875 34.90625 
L 20.21875 43.015625 
L 29.109375 43.015625 
Q 36.375 43.015625 40.234375 45.921875 
Q 44.09375 48.828125 44.09375 54.296875 
Q 44.09375 59.90625 40.109375 62.90625 
Q 36.140625 65.921875 28.71875 65.921875 
Q 24.65625 65.921875 20.015625 65.03125 
Q 15.375 64.15625 9.8125 62.3125 
L 9.8125 71.09375 
Q 15.4375 72.65625 20.34375 73.4375 
Q 25.25 74.21875 29.59375 74.21875 
Q 40.828125 74.21875 47.359375 69.109375 
Q 53.90625 64.015625 53.90625 55.328125 
Q 53.90625 49.265625 50.4375 45.09375 
Q 46.96875 40.921875 40.578125 39.3125 
z
" id="DejaVuSans-51"/>
     </defs>
     <g transform="translate(627.401 458.645)scale(0.32 -0.32)">
      <use xlink:href="#DejaVuSans-69"/>
      <use x="63.183594" xlink:href="#DejaVuSans-108"/>
      <use x="90.966797" xlink:href="#DejaVuSans-101"/>
      <use x="152.490234" xlink:href="#DejaVuSans-118"/>
      <use x="211.669922" xlink:href="#DejaVuSans-97"/>
      <use x="272.949219" xlink:href="#DejaVuSans-116"/>
      <use x="312.158203" xlink:href="#DejaVuSans-101"/>
      <use x="373.681641" xlink:href="#DejaVuSans-100"/>
      <use x="437.158203" xlink:href="#DejaVuSans-32"/>
      <use x="468.945312" xlink:href="#DejaVuSans-98"/>
      <use x="532.421875" xlink:href="#DejaVuSans-121"/>
      <use x="591.601562" xlink:href="#DejaVuSans-32"/>
      <use x="623.388672" xlink:href="#DejaVuSans-51"/>
      <use x="687.011719" xlink:href="#DejaVuSans-48"/>
     </g>
    </g>
    <g id="line2d_20">
     <path d="M 537.801 494.415 
L 601.801 494.415 
" style="fill:none;stroke:#2ca02c;stroke-linecap:square;stroke-width:4;"/>
    </g>
    <g id="line2d_21"/>
    <g id="text_16">
     <!-- Elevated by 100 -->
     <g transform="translate(627.401 505.615)scale(0.32 -0.32)">
      <use xlink:href="#DejaVuSans-69"/>
      <use x="63.183594" xlink:href="#DejaVuSans-108"/>
      <use x="90.966797" xlink:href="#DejaVuSans-101"/>
      <use x="152.490234" xlink:href="#DejaVuSans-118"/>
      <use x="211.669922" xlink:href="#DejaVuSans-97"/>
      <use x="272.949219" xlink:href="#DejaVuSans-116"/>
      <use x="312.158203" xlink:href="#DejaVuSans-101"/>
      <use x="373.681641" xlink:href="#DejaVuSans-100"/>
      <use x="437.158203" xlink:href="#DejaVuSans-32"/>
      <use x="468.945312" xlink:href="#DejaVuSans-98"/>
      <use x="532.421875" xlink:href="#DejaVuSans-121"/>
      <use x="591.601562" xlink:href="#DejaVuSans-32"/>
      <use x="623.388672" xlink:href="#DejaVuSans-49"/>
      <use x="687.011719" xlink:href="#DejaVuSans-48"/>
      <use x="750.634766" xlink:href="#DejaVuSans-48"/>
     </g>
    </g>
    <g id="line2d_22">
     <path d="M 537.801 541.385 
L 601.801 541.385 
" style="fill:none;stroke:#d62728;stroke-linecap:square;stroke-width:4;"/>
    </g>
    <g id="line2d_23"/>
    <g id="text_17">
     <!-- Exact Extrema -->
     <defs>
      <path d="M 54.890625 54.6875 
L 35.109375 28.078125 
L 55.90625 0 
L 45.3125 0 
L 29.390625 21.484375 
L 13.484375 0 
L 2.875 0 
L 24.125 28.609375 
L 4.6875 54.6875 
L 15.28125 54.6875 
L 29.78125 35.203125 
L 44.28125 54.6875 
z
" id="DejaVuSans-120"/>
      <path d="M 48.78125 52.59375 
L 48.78125 44.1875 
Q 44.96875 46.296875 41.140625 47.34375 
Q 37.3125 48.390625 33.40625 48.390625 
Q 24.65625 48.390625 19.8125 42.84375 
Q 14.984375 37.3125 14.984375 27.296875 
Q 14.984375 17.28125 19.8125 11.734375 
Q 24.65625 6.203125 33.40625 6.203125 
Q 37.3125 6.203125 41.140625 7.25 
Q 44.96875 8.296875 48.78125 10.40625 
L 48.78125 2.09375 
Q 45.015625 0.34375 40.984375 -0.53125 
Q 36.96875 -1.421875 32.421875 -1.421875 
Q 20.0625 -1.421875 12.78125 6.34375 
Q 5.515625 14.109375 5.515625 27.296875 
Q 5.515625 40.671875 12.859375 48.328125 
Q 20.21875 56 33.015625 56 
Q 37.15625 56 41.109375 55.140625 
Q 45.0625 54.296875 48.78125 52.59375 
z
" id="DejaVuSans-99"/>
      <path d="M 41.109375 46.296875 
Q 39.59375 47.171875 37.8125 47.578125 
Q 36.03125 48 33.890625 48 
Q 26.265625 48 22.1875 43.046875 
Q 18.109375 38.09375 18.109375 28.8125 
L 18.109375 0 
L 9.078125 0 
L 9.078125 54.6875 
L 18.109375 54.6875 
L 18.109375 46.1875 
Q 20.953125 51.171875 25.484375 53.578125 
Q 30.03125 56 36.53125 56 
Q 37.453125 56 38.578125 55.875 
Q 39.703125 55.765625 41.0625 55.515625 
z
" id="DejaVuSans-114"/>
     </defs>
     <g transform="translate(627.401 552.585)scale(0.32 -0.32)">
      <use xlink:href="#DejaVuSans-69"/>
      <use x="63.183594" xlink:href="#DejaVuSans-120"/>
      <use x="122.363281" xlink:href="#DejaVuSans-97"/>
      <use x="183.642578" xlink:href="#DejaVuSans-99"/>
      <use x="238.623047" xlink:href="#DejaVuSans-116"/>
      <use x="277.832031" xlink:href="#DejaVuSans-32"/>
      <use x="309.619141" xlink:href="#DejaVuSans-69"/>
      <use x="372.802734" xlink:href="#DejaVuSans-120"/>
      <use x="431.982422" xlink:href="#DejaVuSans-116"/>
      <use x="471.191406" xlink:href="#DejaVuSans-114"/>
      <use x="510.054688" xlink:href="#DejaVuSans-101"/>
      <use x="571.578125" xlink:href="#DejaVuSans-109"/>
      <use x="668.990234" xlink:href="#DejaVuSans-97"/>
     </g>
    </g>
   </g>
  </g>
 </g>
 <defs>
  <clipPath id="pc6fa11cf3d">
   <rect height="544.84" width="737.116" x="179.66" y="43.2"/>
  </clipPath>
 </defs>
</svg>
