<?xml version="1.0" encoding="utf-8" standalone="no"?>
<!DOCTYPE svg PUBLIC "-//W3C//DTD SVG 1.1//EN"
  "http://www.w3.org/Graphics/SVG/1.1/DTD/svg11.dtd">
<!-- Created with matplotlib (https://matplotlib.org/) -->
<svg height="720pt" version="1.1" viewBox="0 0 959.976 720" width="959.976pt" xmlns="http://www.w3.org/2000/svg" xmlns:xlink="http://www.w3.org/1999/xlink">
 <metadata>
  <rdf:RDF xmlns:cc="http://creativecommons.org/ns#" xmlns:dc="http://purl.org/dc/elements/1.1/" xmlns:rdf="http://www.w3.org/1999/02/22-rdf-syntax-ns#">
   <cc:Work>
    <dc:type rdf:resource="http://purl.org/dc/dcmitype/StillImage"/>
    <dc:date>2020-12-14T13:07:35.621420</dc:date>
    <dc:format>image/svg+xml</dc:format>
    <dc:creator>
     <cc:Agent>
      <dc:title>Matplotlib v3.3.2, https://matplotlib.org/</dc:title>
     </cc:Agent>
    </dc:creator>
   </cc:Work>
  </rdf:RDF>
 </metadata>
 <defs>
  <style type="text/css">*{stroke-linecap:butt;stroke-linejoin:round;}</style>
 </defs>
 <g id="figure_1">
  <g id="patch_1">
   <path d="M 0 720 
L 959.976 720 
L 959.976 0 
L 0 0 
z
" style="fill:#ffffff;"/>
  </g>
  <g id="axes_1">
   <g id="patch_2">
    <path d="M 179.66 588.04 
L 916.776 588.04 
L 916.776 43.2 
L 179.66 43.2 
z
" style="fill:#ffffff;"/>
   </g>
   <g id="matplotlib.axis_1">
    <g id="xtick_1">
     <g id="line2d_1">
      <defs>
       <path d="M 0 0 
L 0 3.5 
" id="m203e33a911" style="stroke:#000000;stroke-width:0.8;"/>
      </defs>
      <g>
       <use style="stroke:#000000;stroke-width:0.8;" x="241.086333" xlink:href="#m203e33a911" y="588.04"/>
      </g>
     </g>
     <g id="text_1">
      <!-- 0 -->
      <g transform="translate(228.361333 625.43375)scale(0.4 -0.4)">
       <defs>
        <path d="M 31.78125 66.40625 
Q 24.171875 66.40625 20.328125 58.90625 
Q 16.5 51.421875 16.5 36.375 
Q 16.5 21.390625 20.328125 13.890625 
Q 24.171875 6.390625 31.78125 6.390625 
Q 39.453125 6.390625 43.28125 13.890625 
Q 47.125 21.390625 47.125 36.375 
Q 47.125 51.421875 43.28125 58.90625 
Q 39.453125 66.40625 31.78125 66.40625 
z
M 31.78125 74.21875 
Q 44.046875 74.21875 50.515625 64.515625 
Q 56.984375 54.828125 56.984375 36.375 
Q 56.984375 17.96875 50.515625 8.265625 
Q 44.046875 -1.421875 31.78125 -1.421875 
Q 19.53125 -1.421875 13.0625 8.265625 
Q 6.59375 17.96875 6.59375 36.375 
Q 6.59375 54.828125 13.0625 64.515625 
Q 19.53125 74.21875 31.78125 74.21875 
z
" id="DejaVuSans-48"/>
       </defs>
       <use xlink:href="#DejaVuSans-48"/>
      </g>
     </g>
    </g>
    <g id="xtick_2">
     <g id="line2d_2">
      <g>
       <use style="stroke:#000000;stroke-width:0.8;" x="363.939" xlink:href="#m203e33a911" y="588.04"/>
      </g>
     </g>
     <g id="text_2">
      <!-- 2 -->
      <g transform="translate(351.214 625.43375)scale(0.4 -0.4)">
       <defs>
        <path d="M 19.1875 8.296875 
L 53.609375 8.296875 
L 53.609375 0 
L 7.328125 0 
L 7.328125 8.296875 
Q 12.9375 14.109375 22.625 23.890625 
Q 32.328125 33.6875 34.8125 36.53125 
Q 39.546875 41.84375 41.421875 45.53125 
Q 43.3125 49.21875 43.3125 52.78125 
Q 43.3125 58.59375 39.234375 62.25 
Q 35.15625 65.921875 28.609375 65.921875 
Q 23.96875 65.921875 18.8125 64.3125 
Q 13.671875 62.703125 7.8125 59.421875 
L 7.8125 69.390625 
Q 13.765625 71.78125 18.9375 73 
Q 24.125 74.21875 28.421875 74.21875 
Q 39.75 74.21875 46.484375 68.546875 
Q 53.21875 62.890625 53.21875 53.421875 
Q 53.21875 48.921875 51.53125 44.890625 
Q 49.859375 40.875 45.40625 35.40625 
Q 44.1875 33.984375 37.640625 27.21875 
Q 31.109375 20.453125 19.1875 8.296875 
z
" id="DejaVuSans-50"/>
       </defs>
       <use xlink:href="#DejaVuSans-50"/>
      </g>
     </g>
    </g>
    <g id="xtick_3">
     <g id="line2d_3">
      <g>
       <use style="stroke:#000000;stroke-width:0.8;" x="486.791667" xlink:href="#m203e33a911" y="588.04"/>
      </g>
     </g>
     <g id="text_3">
      <!-- 4 -->
      <g transform="translate(474.066667 625.43375)scale(0.4 -0.4)">
       <defs>
        <path d="M 37.796875 64.3125 
L 12.890625 25.390625 
L 37.796875 25.390625 
z
M 35.203125 72.90625 
L 47.609375 72.90625 
L 47.609375 25.390625 
L 58.015625 25.390625 
L 58.015625 17.1875 
L 47.609375 17.1875 
L 47.609375 0 
L 37.796875 0 
L 37.796875 17.1875 
L 4.890625 17.1875 
L 4.890625 26.703125 
z
" id="DejaVuSans-52"/>
       </defs>
       <use xlink:href="#DejaVuSans-52"/>
      </g>
     </g>
    </g>
    <g id="xtick_4">
     <g id="line2d_4">
      <g>
       <use style="stroke:#000000;stroke-width:0.8;" x="609.644333" xlink:href="#m203e33a911" y="588.04"/>
      </g>
     </g>
     <g id="text_4">
      <!-- 6 -->
      <g transform="translate(596.919333 625.43375)scale(0.4 -0.4)">
       <defs>
        <path d="M 33.015625 40.375 
Q 26.375 40.375 22.484375 35.828125 
Q 18.609375 31.296875 18.609375 23.390625 
Q 18.609375 15.53125 22.484375 10.953125 
Q 26.375 6.390625 33.015625 6.390625 
Q 39.65625 6.390625 43.53125 10.953125 
Q 47.40625 15.53125 47.40625 23.390625 
Q 47.40625 31.296875 43.53125 35.828125 
Q 39.65625 40.375 33.015625 40.375 
z
M 52.59375 71.296875 
L 52.59375 62.3125 
Q 48.875 64.0625 45.09375 64.984375 
Q 41.3125 65.921875 37.59375 65.921875 
Q 27.828125 65.921875 22.671875 59.328125 
Q 17.53125 52.734375 16.796875 39.40625 
Q 19.671875 43.65625 24.015625 45.921875 
Q 28.375 48.1875 33.59375 48.1875 
Q 44.578125 48.1875 50.953125 41.515625 
Q 57.328125 34.859375 57.328125 23.390625 
Q 57.328125 12.15625 50.6875 5.359375 
Q 44.046875 -1.421875 33.015625 -1.421875 
Q 20.359375 -1.421875 13.671875 8.265625 
Q 6.984375 17.96875 6.984375 36.375 
Q 6.984375 53.65625 15.1875 63.9375 
Q 23.390625 74.21875 37.203125 74.21875 
Q 40.921875 74.21875 44.703125 73.484375 
Q 48.484375 72.75 52.59375 71.296875 
z
" id="DejaVuSans-54"/>
       </defs>
       <use xlink:href="#DejaVuSans-54"/>
      </g>
     </g>
    </g>
    <g id="xtick_5">
     <g id="line2d_5">
      <g>
       <use style="stroke:#000000;stroke-width:0.8;" x="732.497" xlink:href="#m203e33a911" y="588.04"/>
      </g>
     </g>
     <g id="text_5">
      <!-- 8 -->
      <g transform="translate(719.772 625.43375)scale(0.4 -0.4)">
       <defs>
        <path d="M 31.78125 34.625 
Q 24.75 34.625 20.71875 30.859375 
Q 16.703125 27.09375 16.703125 20.515625 
Q 16.703125 13.921875 20.71875 10.15625 
Q 24.75 6.390625 31.78125 6.390625 
Q 38.8125 6.390625 42.859375 10.171875 
Q 46.921875 13.96875 46.921875 20.515625 
Q 46.921875 27.09375 42.890625 30.859375 
Q 38.875 34.625 31.78125 34.625 
z
M 21.921875 38.8125 
Q 15.578125 40.375 12.03125 44.71875 
Q 8.5 49.078125 8.5 55.328125 
Q 8.5 64.0625 14.71875 69.140625 
Q 20.953125 74.21875 31.78125 74.21875 
Q 42.671875 74.21875 48.875 69.140625 
Q 55.078125 64.0625 55.078125 55.328125 
Q 55.078125 49.078125 51.53125 44.71875 
Q 48 40.375 41.703125 38.8125 
Q 48.828125 37.15625 52.796875 32.3125 
Q 56.78125 27.484375 56.78125 20.515625 
Q 56.78125 9.90625 50.3125 4.234375 
Q 43.84375 -1.421875 31.78125 -1.421875 
Q 19.734375 -1.421875 13.25 4.234375 
Q 6.78125 9.90625 6.78125 20.515625 
Q 6.78125 27.484375 10.78125 32.3125 
Q 14.796875 37.15625 21.921875 38.8125 
z
M 18.3125 54.390625 
Q 18.3125 48.734375 21.84375 45.5625 
Q 25.390625 42.390625 31.78125 42.390625 
Q 38.140625 42.390625 41.71875 45.5625 
Q 45.3125 48.734375 45.3125 54.390625 
Q 45.3125 60.0625 41.71875 63.234375 
Q 38.140625 66.40625 31.78125 66.40625 
Q 25.390625 66.40625 21.84375 63.234375 
Q 18.3125 60.0625 18.3125 54.390625 
z
" id="DejaVuSans-56"/>
       </defs>
       <use xlink:href="#DejaVuSans-56"/>
      </g>
     </g>
    </g>
    <g id="xtick_6">
     <g id="line2d_6">
      <g>
       <use style="stroke:#000000;stroke-width:0.8;" x="855.349667" xlink:href="#m203e33a911" y="588.04"/>
      </g>
     </g>
     <g id="text_6">
      <!-- 10 -->
      <g transform="translate(829.899667 625.43375)scale(0.4 -0.4)">
       <defs>
        <path d="M 12.40625 8.296875 
L 28.515625 8.296875 
L 28.515625 63.921875 
L 10.984375 60.40625 
L 10.984375 69.390625 
L 28.421875 72.90625 
L 38.28125 72.90625 
L 38.28125 8.296875 
L 54.390625 8.296875 
L 54.390625 0 
L 12.40625 0 
z
" id="DejaVuSans-49"/>
       </defs>
       <use xlink:href="#DejaVuSans-49"/>
       <use x="63.623047" xlink:href="#DejaVuSans-48"/>
      </g>
     </g>
    </g>
    <g id="text_7">
     <!-- Time (s) -->
     <g transform="translate(466.902375 668.14625)scale(0.4 -0.4)">
      <defs>
       <path d="M -0.296875 72.90625 
L 61.375 72.90625 
L 61.375 64.59375 
L 35.5 64.59375 
L 35.5 0 
L 25.59375 0 
L 25.59375 64.59375 
L -0.296875 64.59375 
z
" id="DejaVuSans-84"/>
       <path d="M 9.421875 54.6875 
L 18.40625 54.6875 
L 18.40625 0 
L 9.421875 0 
z
M 9.421875 75.984375 
L 18.40625 75.984375 
L 18.40625 64.59375 
L 9.421875 64.59375 
z
" id="DejaVuSans-105"/>
       <path d="M 52 44.1875 
Q 55.375 50.25 60.0625 53.125 
Q 64.75 56 71.09375 56 
Q 79.640625 56 84.28125 50.015625 
Q 88.921875 44.046875 88.921875 33.015625 
L 88.921875 0 
L 79.890625 0 
L 79.890625 32.71875 
Q 79.890625 40.578125 77.09375 44.375 
Q 74.3125 48.1875 68.609375 48.1875 
Q 61.625 48.1875 57.5625 43.546875 
Q 53.515625 38.921875 53.515625 30.90625 
L 53.515625 0 
L 44.484375 0 
L 44.484375 32.71875 
Q 44.484375 40.625 41.703125 44.40625 
Q 38.921875 48.1875 33.109375 48.1875 
Q 26.21875 48.1875 22.15625 43.53125 
Q 18.109375 38.875 18.109375 30.90625 
L 18.109375 0 
L 9.078125 0 
L 9.078125 54.6875 
L 18.109375 54.6875 
L 18.109375 46.1875 
Q 21.1875 51.21875 25.484375 53.609375 
Q 29.78125 56 35.6875 56 
Q 41.65625 56 45.828125 52.96875 
Q 50 49.953125 52 44.1875 
z
" id="DejaVuSans-109"/>
       <path d="M 56.203125 29.59375 
L 56.203125 25.203125 
L 14.890625 25.203125 
Q 15.484375 15.921875 20.484375 11.0625 
Q 25.484375 6.203125 34.421875 6.203125 
Q 39.59375 6.203125 44.453125 7.46875 
Q 49.3125 8.734375 54.109375 11.28125 
L 54.109375 2.78125 
Q 49.265625 0.734375 44.1875 -0.34375 
Q 39.109375 -1.421875 33.890625 -1.421875 
Q 20.796875 -1.421875 13.15625 6.1875 
Q 5.515625 13.8125 5.515625 26.8125 
Q 5.515625 40.234375 12.765625 48.109375 
Q 20.015625 56 32.328125 56 
Q 43.359375 56 49.78125 48.890625 
Q 56.203125 41.796875 56.203125 29.59375 
z
M 47.21875 32.234375 
Q 47.125 39.59375 43.09375 43.984375 
Q 39.0625 48.390625 32.421875 48.390625 
Q 24.90625 48.390625 20.390625 44.140625 
Q 15.875 39.890625 15.1875 32.171875 
z
" id="DejaVuSans-101"/>
       <path id="DejaVuSans-32"/>
       <path d="M 31 75.875 
Q 24.46875 64.65625 21.28125 53.65625 
Q 18.109375 42.671875 18.109375 31.390625 
Q 18.109375 20.125 21.3125 9.0625 
Q 24.515625 -2 31 -13.1875 
L 23.1875 -13.1875 
Q 15.875 -1.703125 12.234375 9.375 
Q 8.59375 20.453125 8.59375 31.390625 
Q 8.59375 42.28125 12.203125 53.3125 
Q 15.828125 64.359375 23.1875 75.875 
z
" id="DejaVuSans-40"/>
       <path d="M 44.28125 53.078125 
L 44.28125 44.578125 
Q 40.484375 46.53125 36.375 47.5 
Q 32.28125 48.484375 27.875 48.484375 
Q 21.1875 48.484375 17.84375 46.4375 
Q 14.5 44.390625 14.5 40.28125 
Q 14.5 37.15625 16.890625 35.375 
Q 19.28125 33.59375 26.515625 31.984375 
L 29.59375 31.296875 
Q 39.15625 29.25 43.1875 25.515625 
Q 47.21875 21.78125 47.21875 15.09375 
Q 47.21875 7.46875 41.1875 3.015625 
Q 35.15625 -1.421875 24.609375 -1.421875 
Q 20.21875 -1.421875 15.453125 -0.5625 
Q 10.6875 0.296875 5.421875 2 
L 5.421875 11.28125 
Q 10.40625 8.6875 15.234375 7.390625 
Q 20.0625 6.109375 24.8125 6.109375 
Q 31.15625 6.109375 34.5625 8.28125 
Q 37.984375 10.453125 37.984375 14.40625 
Q 37.984375 18.0625 35.515625 20.015625 
Q 33.0625 21.96875 24.703125 23.78125 
L 21.578125 24.515625 
Q 13.234375 26.265625 9.515625 29.90625 
Q 5.8125 33.546875 5.8125 39.890625 
Q 5.8125 47.609375 11.28125 51.796875 
Q 16.75 56 26.8125 56 
Q 31.78125 56 36.171875 55.265625 
Q 40.578125 54.546875 44.28125 53.078125 
z
" id="DejaVuSans-115"/>
       <path d="M 8.015625 75.875 
L 15.828125 75.875 
Q 23.140625 64.359375 26.78125 53.3125 
Q 30.421875 42.28125 30.421875 31.390625 
Q 30.421875 20.453125 26.78125 9.375 
Q 23.140625 -1.703125 15.828125 -13.1875 
L 8.015625 -13.1875 
Q 14.5 -2 17.703125 9.0625 
Q 20.90625 20.125 20.90625 31.390625 
Q 20.90625 42.671875 17.703125 53.65625 
Q 14.5 64.65625 8.015625 75.875 
z
" id="DejaVuSans-41"/>
      </defs>
      <use xlink:href="#DejaVuSans-84"/>
      <use x="57.958984" xlink:href="#DejaVuSans-105"/>
      <use x="85.742188" xlink:href="#DejaVuSans-109"/>
      <use x="183.154297" xlink:href="#DejaVuSans-101"/>
      <use x="244.677734" xlink:href="#DejaVuSans-32"/>
      <use x="276.464844" xlink:href="#DejaVuSans-40"/>
      <use x="315.478516" xlink:href="#DejaVuSans-115"/>
      <use x="367.578125" xlink:href="#DejaVuSans-41"/>
     </g>
    </g>
   </g>
   <g id="matplotlib.axis_2">
    <g id="ytick_1">
     <g id="line2d_7">
      <defs>
       <path d="M 0 0 
L -3.5 0 
" id="m86e6d42e07" style="stroke:#000000;stroke-width:0.8;"/>
      </defs>
      <g>
       <use style="stroke:#000000;stroke-width:0.8;" x="179.66" xlink:href="#m86e6d42e07" y="533.556"/>
      </g>
     </g>
     <g id="text_8">
      <!-- −20 -->
      <g transform="translate(88.24125 548.752875)scale(0.4 -0.4)">
       <defs>
        <path d="M 10.59375 35.5 
L 73.1875 35.5 
L 73.1875 27.203125 
L 10.59375 27.203125 
z
" id="DejaVuSans-8722"/>
       </defs>
       <use xlink:href="#DejaVuSans-8722"/>
       <use x="83.789062" xlink:href="#DejaVuSans-50"/>
       <use x="147.412109" xlink:href="#DejaVuSans-48"/>
      </g>
     </g>
    </g>
    <g id="ytick_2">
     <g id="line2d_8">
      <g>
       <use style="stroke:#000000;stroke-width:0.8;" x="179.66" xlink:href="#m86e6d42e07" y="424.588"/>
      </g>
     </g>
     <g id="text_9">
      <!-- −10 -->
      <g transform="translate(88.24125 439.784875)scale(0.4 -0.4)">
       <use xlink:href="#DejaVuSans-8722"/>
       <use x="83.789062" xlink:href="#DejaVuSans-49"/>
       <use x="147.412109" xlink:href="#DejaVuSans-48"/>
      </g>
     </g>
    </g>
    <g id="ytick_3">
     <g id="line2d_9">
      <g>
       <use style="stroke:#000000;stroke-width:0.8;" x="179.66" xlink:href="#m86e6d42e07" y="315.62"/>
      </g>
     </g>
     <g id="text_10">
      <!-- 0 -->
      <g transform="translate(147.21 330.816875)scale(0.4 -0.4)">
       <use xlink:href="#DejaVuSans-48"/>
      </g>
     </g>
    </g>
    <g id="ytick_4">
     <g id="line2d_10">
      <g>
       <use style="stroke:#000000;stroke-width:0.8;" x="179.66" xlink:href="#m86e6d42e07" y="206.652"/>
      </g>
     </g>
     <g id="text_11">
      <!-- 10 -->
      <g transform="translate(121.76 221.848875)scale(0.4 -0.4)">
       <use xlink:href="#DejaVuSans-49"/>
       <use x="63.623047" xlink:href="#DejaVuSans-48"/>
      </g>
     </g>
    </g>
    <g id="ytick_5">
     <g id="line2d_11">
      <g>
       <use style="stroke:#000000;stroke-width:0.8;" x="179.66" xlink:href="#m86e6d42e07" y="97.684"/>
      </g>
     </g>
     <g id="text_12">
      <!-- 20 -->
      <g transform="translate(121.76 112.880875)scale(0.4 -0.4)">
       <use xlink:href="#DejaVuSans-50"/>
       <use x="63.623047" xlink:href="#DejaVuSans-48"/>
      </g>
     </g>
    </g>
    <g id="text_13">
     <!-- $\tan (\psi)$ -->
     <g transform="translate(75.84125 377.22)rotate(-90)scale(0.4 -0.4)">
      <defs>
       <path d="M 18.3125 70.21875 
L 18.3125 54.6875 
L 36.8125 54.6875 
L 36.8125 47.703125 
L 18.3125 47.703125 
L 18.3125 18.015625 
Q 18.3125 11.328125 20.140625 9.421875 
Q 21.96875 7.515625 27.59375 7.515625 
L 36.8125 7.515625 
L 36.8125 0 
L 27.59375 0 
Q 17.1875 0 13.234375 3.875 
Q 9.28125 7.765625 9.28125 18.015625 
L 9.28125 47.703125 
L 2.6875 47.703125 
L 2.6875 54.6875 
L 9.28125 54.6875 
L 9.28125 70.21875 
z
" id="DejaVuSans-116"/>
       <path d="M 34.28125 27.484375 
Q 23.390625 27.484375 19.1875 25 
Q 14.984375 22.515625 14.984375 16.5 
Q 14.984375 11.71875 18.140625 8.90625 
Q 21.296875 6.109375 26.703125 6.109375 
Q 34.1875 6.109375 38.703125 11.40625 
Q 43.21875 16.703125 43.21875 25.484375 
L 43.21875 27.484375 
z
M 52.203125 31.203125 
L 52.203125 0 
L 43.21875 0 
L 43.21875 8.296875 
Q 40.140625 3.328125 35.546875 0.953125 
Q 30.953125 -1.421875 24.3125 -1.421875 
Q 15.921875 -1.421875 10.953125 3.296875 
Q 6 8.015625 6 15.921875 
Q 6 25.140625 12.171875 29.828125 
Q 18.359375 34.515625 30.609375 34.515625 
L 43.21875 34.515625 
L 43.21875 35.40625 
Q 43.21875 41.609375 39.140625 45 
Q 35.0625 48.390625 27.6875 48.390625 
Q 23 48.390625 18.546875 47.265625 
Q 14.109375 46.140625 10.015625 43.890625 
L 10.015625 52.203125 
Q 14.9375 54.109375 19.578125 55.046875 
Q 24.21875 56 28.609375 56 
Q 40.484375 56 46.34375 49.84375 
Q 52.203125 43.703125 52.203125 31.203125 
z
" id="DejaVuSans-97"/>
       <path d="M 54.890625 33.015625 
L 54.890625 0 
L 45.90625 0 
L 45.90625 32.71875 
Q 45.90625 40.484375 42.875 44.328125 
Q 39.84375 48.1875 33.796875 48.1875 
Q 26.515625 48.1875 22.3125 43.546875 
Q 18.109375 38.921875 18.109375 30.90625 
L 18.109375 0 
L 9.078125 0 
L 9.078125 54.6875 
L 18.109375 54.6875 
L 18.109375 46.1875 
Q 21.34375 51.125 25.703125 53.5625 
Q 30.078125 56 35.796875 56 
Q 45.21875 56 50.046875 50.171875 
Q 54.890625 44.34375 54.890625 33.015625 
z
" id="DejaVuSans-110"/>
       <path d="M 24.859375 -1.21875 
Q 13.921875 0.59375 9.625 5.328125 
Q 4.34375 11.140625 6.640625 23 
L 12.796875 54.6875 
L 21.875 54.6875 
L 15.765625 23.34375 
Q 14.0625 14.40625 17.484375 10.6875 
Q 20.515625 7.46875 26.421875 6.78125 
L 35.6875 54.6875 
L 44.625 54.6875 
L 35.359375 6.84375 
Q 41.890625 7.515625 45.75 10.75 
Q 50.734375 14.84375 52.390625 23.390625 
L 58.453125 54.6875 
L 67.53125 54.6875 
L 61.375 23.046875 
Q 58.984375 10.75 51.5625 5.375 
Q 44.875 0.53125 33.796875 -1.171875 
L 29.984375 -20.796875 
L 21.046875 -20.796875 
z
" id="DejaVuSans-Oblique-968"/>
      </defs>
      <use transform="translate(0 0.125)" xlink:href="#DejaVuSans-116"/>
      <use transform="translate(39.208984 0.125)" xlink:href="#DejaVuSans-97"/>
      <use transform="translate(100.488281 0.125)" xlink:href="#DejaVuSans-110"/>
      <use transform="translate(163.867188 0.125)" xlink:href="#DejaVuSans-40"/>
      <use transform="translate(202.880859 0.125)" xlink:href="#DejaVuSans-Oblique-968"/>
      <use transform="translate(268.847656 0.125)" xlink:href="#DejaVuSans-41"/>
     </g>
    </g>
   </g>
   <g id="line2d_12">
    <path clip-path="url(#p36aade3da9)" d="M 241.544946 721 
L 241.544976 -1 
M 242.909749 -1 
L 242.921089 1.98047 
L 243.379778 73.923368 
L 243.838467 121.575761 
L 244.297156 155.360383 
L 245.214533 199.852285 
L 246.131911 227.604621 
L 247.049289 246.383293 
L 247.966667 259.808384 
L 248.884044 269.793375 
L 249.801422 277.443726 
L 250.7188 283.441927 
L 251.636178 288.231611 
L 252.553555 292.113266 
L 253.470933 295.297384 
L 254.847 299.086131 
L 256.223066 301.994037 
L 257.599133 304.256488 
L 258.9752 306.034574 
L 260.351266 307.44189 
L 261.727333 308.560565 
L 263.562089 309.705713 
L 265.396844 310.548027 
L 267.2316 311.160648 
L 269.525044 311.68207 
L 272.277177 312.04213 
L 275.488 312.199866 
L 279.157511 312.138028 
L 283.7444 311.812088 
L 289.248666 311.173286 
L 295.67031 310.189152 
L 302.550644 308.911754 
L 309.430977 307.420877 
L 316.31131 305.698912 
L 322.274266 303.985011 
L 327.778532 302.178428 
L 332.82411 300.288196 
L 337.410999 298.32962 
L 341.539199 296.326861 
L 345.20871 294.314672 
L 348.878221 292.038416 
L 352.089043 289.786332 
L 355.299865 287.241893 
L 358.051999 284.783329 
L 360.804132 282.019154 
L 363.556265 278.890614 
L 365.84971 275.952259 
L 368.143154 272.6562 
L 370.436599 268.936015 
L 372.730043 264.708359 
L 374.564798 260.890599 
L 376.399554 256.612885 
L 378.23431 251.791053 
L 380.069065 246.319605 
L 381.903821 240.064535 
L 383.738576 232.853076 
L 385.573332 224.458675 
L 386.949398 217.208097 
L 388.325465 208.957295 
L 389.701532 199.492618 
L 391.077598 188.535664 
L 392.453665 175.716804 
L 393.829732 160.534581 
L 395.205798 142.291305 
L 396.581865 119.986818 
L 397.499243 102.155556 
L 398.41662 81.2529 
L 399.333998 56.427495 
L 400.251376 26.48241 
L 400.948349 -1 
M 409.091003 -1 
L 409.101313 721 
M 417.800598 721 
L 418.598931 691.42487 
L 419.516309 663.505307 
L 420.433687 640.367339 
L 421.809753 612.344982 
L 423.18582 590.251214 
L 424.561887 572.512455 
L 425.937953 558.078731 
L 427.31402 546.224182 
L 428.690087 536.432562 
L 430.066153 528.328352 
L 431.44222 521.633652 
L 432.818287 516.140315 
L 434.194353 511.691474 
L 435.57042 508.169029 
L 436.487798 506.290937 
L 437.405176 504.765151 
L 438.322553 503.576023 
L 439.239931 502.711698 
L 440.157309 502.163806 
L 441.074687 501.927249 
L 441.992064 502.000075 
L 442.909442 502.383433 
L 443.82682 503.081601 
L 444.744198 504.102105 
L 445.661575 505.455905 
L 446.578953 507.157696 
L 447.496331 509.226303 
L 448.413709 511.685211 
L 449.789775 516.170143 
L 451.165842 521.724429 
L 452.541909 528.514116 
L 453.917975 536.76018 
L 455.294042 546.758933 
L 456.670109 558.913013 
L 458.046175 573.779821 
L 459.422242 592.149804 
L 460.33962 606.892208 
L 461.256997 624.168984 
L 462.174375 644.619779 
L 463.091753 669.124846 
L 464.009131 698.929343 
L 464.577059 721 
M 473.018789 721 
L 473.030581 -1 
M 480.995089 -1 
L 481.897997 34.450418 
L 482.815375 63.756891 
L 483.732753 88.033245 
L 485.108819 117.498407 
L 486.484886 140.880093 
L 487.860953 159.860788 
L 489.237019 175.556351 
L 490.613086 188.735925 
L 491.989153 199.946812 
L 493.365219 209.58901 
L 494.741286 217.961599 
L 496.576041 227.536624 
L 498.410797 235.659625 
L 500.245553 242.626939 
L 502.080308 248.660092 
L 503.915064 253.927945 
L 505.749819 258.561419 
L 507.584575 262.663541 
L 509.41933 266.316466 
L 511.712775 270.350721 
L 514.006219 273.88913 
L 516.299663 277.012918 
L 518.593108 279.786774 
L 521.345241 282.726165 
L 524.097375 285.308263 
L 526.849508 287.59012 
L 530.06033 289.933289 
L 533.271152 291.987559 
L 536.940663 294.039905 
L 540.610174 295.828531 
L 544.738374 297.578011 
L 548.866574 299.094642 
L 553.453463 300.551464 
L 558.499041 301.921548 
L 564.003307 303.184035 
L 569.966263 304.322442 
L 576.387907 305.322646 
L 583.26824 306.170578 
L 590.607263 306.849549 
L 598.404974 307.336899 
L 606.202685 307.591681 
L 613.541707 307.61478 
L 620.880729 307.411502 
L 627.761062 306.988653 
L 633.724018 306.409266 
L 639.228284 305.664128 
L 644.273862 304.765415 
L 648.860751 303.727969 
L 652.988951 302.571537 
L 656.658462 301.323165 
L 659.869284 300.01953 
L 663.080106 298.470092 
L 665.83224 296.898129 
L 668.584373 295.042825 
L 670.877817 293.225538 
L 673.171262 291.097285 
L 675.006017 289.115315 
L 676.840773 286.822885 
L 678.675528 284.141592 
L 680.510284 280.963334 
L 681.88635 278.163584 
L 683.262417 274.909997 
L 684.638484 271.080716 
L 686.01455 266.505259 
L 687.390617 260.937518 
L 688.766684 254.00851 
L 689.684061 248.359692 
L 690.601439 241.60048 
L 691.518817 233.362192 
L 692.436195 223.091875 
L 693.353573 209.920695 
L 694.27095 192.400705 
L 695.188328 167.925738 
L 695.647017 151.632307 
L 696.105706 131.28362 
L 696.564395 105.142308 
L 697.023084 70.31275 
L 697.623563 -1 
M 699.316576 -1 
L 699.316607 721 
L 699.316607 721 
" style="fill:none;stroke:#1f77b4;stroke-linecap:square;stroke-width:4;"/>
   </g>
   <g id="line2d_13">
    <path clip-path="url(#p36aade3da9)" d="M 241.416927 721 
L 241.416948 -1 
M 242.670307 -1 
L 242.739649 19.359507 
L 243.400975 127.483077 
L 244.062301 185.015075 
L 244.723628 219.873182 
L 245.384954 242.741588 
L 246.04628 258.570811 
L 246.707606 269.957398 
L 247.368932 278.38748 
L 248.030259 284.768705 
L 248.691585 289.683952 
L 249.683574 295.126078 
L 250.675564 298.969304 
L 251.667553 301.728795 
L 252.659542 303.731504 
L 253.651532 305.192883 
L 254.643521 306.259333 
L 255.63551 307.032897 
L 256.958163 307.731308 
L 258.280815 308.15583 
L 259.934131 308.420857 
L 261.918109 308.479471 
L 264.563414 308.287728 
L 267.870046 307.806293 
L 272.829992 306.841811 
L 280.104581 305.184652 
L 287.048506 303.386553 
L 292.669779 301.70649 
L 297.299063 300.09613 
L 301.26702 298.489398 
L 304.904314 296.774354 
L 308.210945 294.95783 
L 311.186913 293.059724 
L 313.832218 291.114207 
L 316.477523 288.871415 
L 318.792165 286.61363 
L 321.106807 284.022419 
L 323.090785 281.483693 
L 325.074764 278.594617 
L 327.058743 275.287705 
L 329.042721 271.478564 
L 330.696037 267.844453 
L 332.349353 263.710719 
L 334.002668 258.981523 
L 335.655984 253.536684 
L 337.309299 247.22372 
L 338.962615 239.846611 
L 340.285267 233.009452 
L 341.60792 225.161217 
L 342.930572 216.088941 
L 344.253225 205.51892 
L 345.575877 193.094035 
L 346.89853 178.34026 
L 348.221182 160.615855 
L 349.543834 139.031913 
L 350.535824 119.569728 
L 351.527813 96.498914 
L 352.519802 68.815088 
L 353.511792 35.117219 
L 354.379844 -1 
M 363.452874 -1 
L 363.453958 721 
M 382.805979 721 
L 382.809942 -1 
M 392.923953 -1 
L 393.852692 33.74771 
L 394.844681 64.417669 
L 396.167333 97.624356 
L 397.489986 124.285625 
L 398.812638 146.080006 
L 400.135291 164.167029 
L 401.457943 179.372002 
L 402.780596 192.29733 
L 404.103248 203.392301 
L 405.756564 215.199439 
L 407.409879 225.176256 
L 409.063195 233.693952 
L 410.71651 241.032457 
L 412.369826 247.406457 
L 414.023142 252.98306 
L 415.676457 257.89407 
L 417.660436 263.055314 
L 419.644414 267.552499 
L 421.628393 271.498373 
L 423.612372 274.982314 
L 425.927014 278.557853 
L 428.241655 281.692303 
L 430.556297 284.457391 
L 433.201602 287.238229 
L 435.846907 289.679337 
L 438.492212 291.834677 
L 441.46818 293.97122 
L 444.444148 295.849394 
L 447.750779 297.680109 
L 451.388073 299.430389 
L 455.356031 301.073831 
L 459.323988 302.481218 
L 463.622609 303.776834 
L 468.251892 304.93954 
L 473.211839 305.94775 
L 478.171786 306.732508 
L 483.462395 307.339347 
L 488.753005 307.717281 
L 494.043615 307.868434 
L 499.334225 307.789002 
L 504.294171 307.496773 
L 509.254118 306.980731 
L 513.883402 306.280244 
L 518.182022 305.420272 
L 522.480643 304.331409 
L 526.4486 303.089841 
L 530.085894 301.713629 
L 533.392525 300.222219 
L 536.368493 298.63902 
L 539.013798 296.994355 
L 541.659103 295.070219 
L 543.973745 293.098294 
L 545.957724 291.138553 
L 547.941702 288.866133 
L 549.595018 286.674084 
L 551.248334 284.141643 
L 552.901649 281.179952 
L 554.554965 277.665844 
L 555.877617 274.341205 
L 557.20027 270.425728 
L 558.522922 265.742422 
L 559.845575 260.0356 
L 560.837564 254.860066 
L 561.829553 248.661338 
L 562.821543 241.098499 
L 563.813532 231.660206 
L 564.805521 219.542955 
L 565.797511 203.407652 
L 566.458837 189.30267 
L 567.120163 171.180208 
L 567.781489 147.031831 
L 568.442815 113.242408 
L 569.104142 62.58172 
L 569.622711 -1 
M 571.418835 -1 
L 571.418857 721 
L 571.418857 721 
" style="fill:none;stroke:#ff7f0e;stroke-linecap:square;stroke-width:4;"/>
   </g>
   <g id="line2d_14">
    <path clip-path="url(#p36aade3da9)" d="M 241.369501 721 
L 241.36952 -1 
M 242.320455 -1 
L 242.785729 132.740795 
L 243.352194 209.96826 
L 243.918659 251.277692 
L 244.485124 275.578066 
L 245.051589 290.744527 
L 245.618054 300.58016 
L 246.184519 307.115026 
L 246.750984 311.514259 
L 247.317449 314.48438 
L 247.883914 316.472706 
L 248.450379 317.772434 
L 249.016844 318.581285 
L 249.583309 319.035784 
L 250.149774 319.232085 
L 250.71624 319.239057 
L 251.565937 319.000231 
L 252.698867 318.385273 
L 254.398263 317.138259 
L 263.178471 310.238568 
L 266.860494 307.813659 
L 271.108982 305.299014 
L 278.189796 301.425165 
L 284.420911 297.924699 
L 288.386167 295.441722 
L 291.501725 293.2464 
L 294.33405 290.989379 
L 296.883143 288.680507 
L 299.149003 286.349937 
L 301.414864 283.695273 
L 303.397491 281.048533 
L 305.380119 278.035493 
L 307.362747 274.580498 
L 309.062142 271.196688 
L 310.761537 267.346701 
L 312.460932 262.941552 
L 314.160328 257.871771 
L 315.859723 252.001774 
L 317.275886 246.378106 
L 318.692048 239.96201 
L 320.108211 232.607873 
L 321.524374 224.138581 
L 322.940536 214.33822 
L 324.356699 202.943372 
L 325.772862 189.633158 
L 327.189024 174.018679 
L 328.605187 155.633595 
L 330.02135 133.929672 
L 331.437512 108.284996 
L 332.853675 78.039254 
L 334.269838 42.580944 
L 335.766497 -1 
M 354.376894 -1 
L 355.79551 38.770214 
L 357.211673 73.167917 
L 358.627836 102.648842 
L 360.043999 127.788077 
L 361.460161 149.199284 
L 362.876324 167.458877 
L 364.292487 183.075473 
L 365.708649 196.4829 
L 367.124812 208.044275 
L 368.540975 218.060447 
L 370.24037 228.386259 
L 371.939765 237.188674 
L 373.63916 244.742676 
L 375.338555 251.267037 
L 377.037951 256.936639 
L 378.737346 261.892057 
L 380.436741 266.246962 
L 382.419369 270.691106 
L 384.401997 274.561544 
L 386.384624 277.952813 
L 388.367252 280.940942 
L 390.633112 283.940795 
L 392.898973 286.568296 
L 395.164833 288.882696 
L 397.713926 291.171239 
L 400.263019 293.178306 
L 403.095344 295.130947 
L 406.210902 296.995843 
L 409.609692 298.748077 
L 413.008483 300.253921 
L 416.690506 301.651318 
L 420.655761 302.925256 
L 424.904249 304.062632 
L 429.43597 305.050408 
L 434.250923 305.8736 
L 439.349109 306.513004 
L 444.447294 306.926058 
L 449.54548 307.11583 
L 454.643666 307.076605 
L 459.458619 306.816619 
L 463.990339 306.356756 
L 468.238827 305.715916 
L 472.487315 304.846943 
L 476.452571 303.801205 
L 480.134594 302.595311 
L 483.533384 301.246791 
L 486.648942 299.774715 
L 489.481268 298.200793 
L 492.03036 296.551077 
L 494.579453 294.629204 
L 496.845314 292.636472 
L 498.827941 290.617874 
L 500.810569 288.276729 
L 502.509964 285.947695 
L 504.209359 283.242045 
L 505.908755 280.055677 
L 507.324917 276.929063 
L 508.74108 273.249207 
L 510.157243 268.849996 
L 511.290173 264.655023 
L 512.423103 259.673721 
L 513.556033 253.658038 
L 514.688963 246.243443 
L 515.538661 239.439263 
L 516.388359 231.189544 
L 517.238056 220.974782 
L 518.087754 207.992364 
L 518.937451 190.9331 
L 519.787149 167.506359 
L 520.353614 146.331338 
L 520.920079 118.118807 
L 521.486544 78.648088 
L 522.053009 19.477981 
L 522.190294 -1 
M 524.03569 -1 
L 524.035709 721 
L 524.035709 721 
" style="fill:none;stroke:#2ca02c;stroke-linecap:square;stroke-width:4;"/>
   </g>
   <g id="line2d_15">
    <path clip-path="url(#p36aade3da9)" d="M 241.32756 721 
L 241.327576 -1 
M 242.177956 -1 
L 242.534062 130.270999 
L 243.016639 215.585442 
L 243.499215 260.059174 
L 243.981791 285.48717 
L 244.464368 300.85371 
L 244.946944 310.44867 
L 245.42952 316.534548 
L 245.912097 320.393631 
L 246.394673 322.793383 
L 246.877249 324.213152 
L 247.359826 324.962731 
L 247.842402 325.247975 
L 248.324978 325.208833 
L 248.807555 324.942266 
L 249.531419 324.259711 
L 250.73786 322.706373 
L 257.252641 313.577515 
L 259.665522 310.804874 
L 262.319692 308.120057 
L 265.21515 305.520022 
L 268.834473 302.586313 
L 281.622746 292.517617 
L 284.518204 289.788333 
L 286.931086 287.230196 
L 289.343967 284.333618 
L 291.515561 281.36226 
L 293.445866 278.36466 
L 295.376172 274.9624 
L 297.306477 271.076734 
L 298.995494 267.207753 
L 300.684511 262.826066 
L 302.373529 257.850065 
L 304.062546 252.188615 
L 305.751563 245.742661 
L 307.44058 238.409266 
L 309.129597 230.089615 
L 310.818615 220.703155 
L 312.74892 208.622132 
L 314.920513 193.398624 
L 317.815971 171.241016 
L 320.71143 149.450179 
L 322.159159 140.04699 
L 323.365599 133.614367 
L 324.330752 129.651507 
L 325.054617 127.473532 
L 325.778481 126.031881 
L 326.261057 125.496271 
L 326.743634 125.307152 
L 327.22621 125.465397 
L 327.708786 125.967985 
L 328.191363 126.808103 
L 328.915227 128.677476 
L 329.639092 131.233472 
L 330.604244 135.60026 
L 331.810685 142.350415 
L 333.258414 151.850079 
L 335.671296 169.464288 
L 339.290619 195.828913 
L 341.462212 210.059184 
L 343.392518 221.347064 
L 345.322823 231.330433 
L 347.253128 240.083655 
L 349.183434 247.724293 
L 351.113739 254.383556 
L 353.044044 260.190048 
L 354.97435 265.261859 
L 356.904655 269.703488 
L 358.83496 273.605397 
L 360.765266 277.044876 
L 362.936859 280.442715 
L 365.108453 283.41593 
L 367.280046 286.028862 
L 369.692928 288.573785 
L 372.10581 290.798761 
L 374.75998 292.934038 
L 377.41415 294.792192 
L 380.309608 296.551655 
L 383.446354 298.190439 
L 386.824388 299.691591 
L 390.443711 301.041569 
L 394.304321 302.228478 
L 398.164932 303.187293 
L 402.266831 303.983175 
L 406.610018 304.596894 
L 410.953205 304.988626 
L 415.296392 305.163929 
L 419.639579 305.120738 
L 423.982766 304.849389 
L 428.084665 304.367504 
L 431.945276 303.692627 
L 435.564599 302.83993 
L 438.942633 301.823548 
L 442.079379 300.657697 
L 444.974837 299.357766 
L 447.629007 297.941512 
L 450.283177 296.265986 
L 452.696059 294.468041 
L 454.867652 292.57398 
L 456.797958 290.619678 
L 458.728263 288.349494 
L 460.41728 286.041238 
L 462.106297 283.356279 
L 463.554026 280.67985 
L 465.001755 277.567399 
L 466.449484 273.90164 
L 467.655925 270.30781 
L 468.862366 266.085528 
L 470.068807 261.051965 
L 471.275248 254.945349 
L 472.2404 249.032449 
L 473.205553 241.896439 
L 474.170706 233.109099 
L 475.135858 222.014511 
L 476.101011 207.553979 
L 476.824876 193.448052 
L 477.54874 175.154843 
L 478.272605 150.463194 
L 478.996469 115.267261 
L 479.479046 82.081701 
L 479.961622 35.678801 
L 480.238951 -1 
M 482.13327 -1 
L 482.133286 721 
L 482.133286 721 
" style="fill:none;stroke:#d62728;stroke-linecap:square;stroke-width:4;"/>
   </g>
   <g id="patch_3">
    <path d="M 179.66 588.04 
L 179.66 43.2 
" style="fill:none;stroke:#000000;stroke-linecap:square;stroke-linejoin:miter;stroke-width:0.8;"/>
   </g>
   <g id="patch_4">
    <path d="M 916.776 588.04 
L 916.776 43.2 
" style="fill:none;stroke:#000000;stroke-linecap:square;stroke-linejoin:miter;stroke-width:0.8;"/>
   </g>
   <g id="patch_5">
    <path d="M 179.66 588.04 
L 916.776 588.04 
" style="fill:none;stroke:#000000;stroke-linecap:square;stroke-linejoin:miter;stroke-width:0.8;"/>
   </g>
   <g id="patch_6">
    <path d="M 179.66 43.2 
L 916.776 43.2 
" style="fill:none;stroke:#000000;stroke-linecap:square;stroke-linejoin:miter;stroke-width:0.8;"/>
   </g>
   <g id="legend_1">
    <g id="patch_7">
     <path d="M 531.401 572.04 
L 894.376 572.04 
Q 900.776 572.04 900.776 565.64 
L 900.776 380.96 
Q 900.776 374.56 894.376 374.56 
L 531.401 374.56 
Q 525.001 374.56 525.001 380.96 
L 525.001 565.64 
Q 525.001 572.04 531.401 572.04 
z
" style="fill:#ffffff;opacity:0.8;stroke:#cccccc;stroke-linejoin:miter;"/>
    </g>
    <g id="line2d_16">
     <path d="M 537.801 400.475 
L 601.801 400.475 
" style="fill:none;stroke:#1f77b4;stroke-linecap:square;stroke-width:4;"/>
    </g>
    <g id="line2d_17"/>
    <g id="text_14">
     <!-- No Elevation -->
     <g transform="translate(627.401 411.675)scale(0.32 -0.32)">
      <defs>
       <path d="M 9.8125 72.90625 
L 23.09375 72.90625 
L 55.421875 11.921875 
L 55.421875 72.90625 
L 64.984375 72.90625 
L 64.984375 0 
L 51.703125 0 
L 19.390625 60.984375 
L 19.390625 0 
L 9.8125 0 
z
" id="DejaVuSans-78"/>
       <path d="M 30.609375 48.390625 
Q 23.390625 48.390625 19.1875 42.75 
Q 14.984375 37.109375 14.984375 27.296875 
Q 14.984375 17.484375 19.15625 11.84375 
Q 23.34375 6.203125 30.609375 6.203125 
Q 37.796875 6.203125 41.984375 11.859375 
Q 46.1875 17.53125 46.1875 27.296875 
Q 46.1875 37.015625 41.984375 42.703125 
Q 37.796875 48.390625 30.609375 48.390625 
z
M 30.609375 56 
Q 42.328125 56 49.015625 48.375 
Q 55.71875 40.765625 55.71875 27.296875 
Q 55.71875 13.875 49.015625 6.21875 
Q 42.328125 -1.421875 30.609375 -1.421875 
Q 18.84375 -1.421875 12.171875 6.21875 
Q 5.515625 13.875 5.515625 27.296875 
Q 5.515625 40.765625 12.171875 48.375 
Q 18.84375 56 30.609375 56 
z
" id="DejaVuSans-111"/>
       <path d="M 9.8125 72.90625 
L 55.90625 72.90625 
L 55.90625 64.59375 
L 19.671875 64.59375 
L 19.671875 43.015625 
L 54.390625 43.015625 
L 54.390625 34.71875 
L 19.671875 34.71875 
L 19.671875 8.296875 
L 56.78125 8.296875 
L 56.78125 0 
L 9.8125 0 
z
" id="DejaVuSans-69"/>
       <path d="M 9.421875 75.984375 
L 18.40625 75.984375 
L 18.40625 0 
L 9.421875 0 
z
" id="DejaVuSans-108"/>
       <path d="M 2.984375 54.6875 
L 12.5 54.6875 
L 29.59375 8.796875 
L 46.6875 54.6875 
L 56.203125 54.6875 
L 35.6875 0 
L 23.484375 0 
z
" id="DejaVuSans-118"/>
      </defs>
      <use xlink:href="#DejaVuSans-78"/>
      <use x="74.804688" xlink:href="#DejaVuSans-111"/>
      <use x="135.986328" xlink:href="#DejaVuSans-32"/>
      <use x="167.773438" xlink:href="#DejaVuSans-69"/>
      <use x="230.957031" xlink:href="#DejaVuSans-108"/>
      <use x="258.740234" xlink:href="#DejaVuSans-101"/>
      <use x="320.263672" xlink:href="#DejaVuSans-118"/>
      <use x="379.443359" xlink:href="#DejaVuSans-97"/>
      <use x="440.722656" xlink:href="#DejaVuSans-116"/>
      <use x="479.931641" xlink:href="#DejaVuSans-105"/>
      <use x="507.714844" xlink:href="#DejaVuSans-111"/>
      <use x="568.896484" xlink:href="#DejaVuSans-110"/>
     </g>
    </g>
    <g id="line2d_18">
     <path d="M 537.801 447.445 
L 601.801 447.445 
" style="fill:none;stroke:#ff7f0e;stroke-linecap:square;stroke-width:4;"/>
    </g>
    <g id="line2d_19"/>
    <g id="text_15">
     <!-- Elevated by 30 -->
     <g transform="translate(627.401 458.645)scale(0.32 -0.32)">
      <defs>
       <path d="M 45.40625 46.390625 
L 45.40625 75.984375 
L 54.390625 75.984375 
L 54.390625 0 
L 45.40625 0 
L 45.40625 8.203125 
Q 42.578125 3.328125 38.25 0.953125 
Q 33.9375 -1.421875 27.875 -1.421875 
Q 17.96875 -1.421875 11.734375 6.484375 
Q 5.515625 14.40625 5.515625 27.296875 
Q 5.515625 40.1875 11.734375 48.09375 
Q 17.96875 56 27.875 56 
Q 33.9375 56 38.25 53.625 
Q 42.578125 51.265625 45.40625 46.390625 
z
M 14.796875 27.296875 
Q 14.796875 17.390625 18.875 11.75 
Q 22.953125 6.109375 30.078125 6.109375 
Q 37.203125 6.109375 41.296875 11.75 
Q 45.40625 17.390625 45.40625 27.296875 
Q 45.40625 37.203125 41.296875 42.84375 
Q 37.203125 48.484375 30.078125 48.484375 
Q 22.953125 48.484375 18.875 42.84375 
Q 14.796875 37.203125 14.796875 27.296875 
z
" id="DejaVuSans-100"/>
       <path d="M 48.6875 27.296875 
Q 48.6875 37.203125 44.609375 42.84375 
Q 40.53125 48.484375 33.40625 48.484375 
Q 26.265625 48.484375 22.1875 42.84375 
Q 18.109375 37.203125 18.109375 27.296875 
Q 18.109375 17.390625 22.1875 11.75 
Q 26.265625 6.109375 33.40625 6.109375 
Q 40.53125 6.109375 44.609375 11.75 
Q 48.6875 17.390625 48.6875 27.296875 
z
M 18.109375 46.390625 
Q 20.953125 51.265625 25.265625 53.625 
Q 29.59375 56 35.59375 56 
Q 45.5625 56 51.78125 48.09375 
Q 58.015625 40.1875 58.015625 27.296875 
Q 58.015625 14.40625 51.78125 6.484375 
Q 45.5625 -1.421875 35.59375 -1.421875 
Q 29.59375 -1.421875 25.265625 0.953125 
Q 20.953125 3.328125 18.109375 8.203125 
L 18.109375 0 
L 9.078125 0 
L 9.078125 75.984375 
L 18.109375 75.984375 
z
" id="DejaVuSans-98"/>
       <path d="M 32.171875 -5.078125 
Q 28.375 -14.84375 24.75 -17.8125 
Q 21.140625 -20.796875 15.09375 -20.796875 
L 7.90625 -20.796875 
L 7.90625 -13.28125 
L 13.1875 -13.28125 
Q 16.890625 -13.28125 18.9375 -11.515625 
Q 21 -9.765625 23.484375 -3.21875 
L 25.09375 0.875 
L 2.984375 54.6875 
L 12.5 54.6875 
L 29.59375 11.921875 
L 46.6875 54.6875 
L 56.203125 54.6875 
z
" id="DejaVuSans-121"/>
       <path d="M 40.578125 39.3125 
Q 47.65625 37.796875 51.625 33 
Q 55.609375 28.21875 55.609375 21.1875 
Q 55.609375 10.40625 48.1875 4.484375 
Q 40.765625 -1.421875 27.09375 -1.421875 
Q 22.515625 -1.421875 17.65625 -0.515625 
Q 12.796875 0.390625 7.625 2.203125 
L 7.625 11.71875 
Q 11.71875 9.328125 16.59375 8.109375 
Q 21.484375 6.890625 26.8125 6.890625 
Q 36.078125 6.890625 40.9375 10.546875 
Q 45.796875 14.203125 45.796875 21.1875 
Q 45.796875 27.640625 41.28125 31.265625 
Q 36.765625 34.90625 28.71875 34.90625 
L 20.21875 34.90625 
L 20.21875 43.015625 
L 29.109375 43.015625 
Q 36.375 43.015625 40.234375 45.921875 
Q 44.09375 48.828125 44.09375 54.296875 
Q 44.09375 59.90625 40.109375 62.90625 
Q 36.140625 65.921875 28.71875 65.921875 
Q 24.65625 65.921875 20.015625 65.03125 
Q 15.375 64.15625 9.8125 62.3125 
L 9.8125 71.09375 
Q 15.4375 72.65625 20.34375 73.4375 
Q 25.25 74.21875 29.59375 74.21875 
Q 40.828125 74.21875 47.359375 69.109375 
Q 53.90625 64.015625 53.90625 55.328125 
Q 53.90625 49.265625 50.4375 45.09375 
Q 46.96875 40.921875 40.578125 39.3125 
z
" id="DejaVuSans-51"/>
      </defs>
      <use xlink:href="#DejaVuSans-69"/>
      <use x="63.183594" xlink:href="#DejaVuSans-108"/>
      <use x="90.966797" xlink:href="#DejaVuSans-101"/>
      <use x="152.490234" xlink:href="#DejaVuSans-118"/>
      <use x="211.669922" xlink:href="#DejaVuSans-97"/>
      <use x="272.949219" xlink:href="#DejaVuSans-116"/>
      <use x="312.158203" xlink:href="#DejaVuSans-101"/>
      <use x="373.681641" xlink:href="#DejaVuSans-100"/>
      <use x="437.158203" xlink:href="#DejaVuSans-32"/>
      <use x="468.945312" xlink:href="#DejaVuSans-98"/>
      <use x="532.421875" xlink:href="#DejaVuSans-121"/>
      <use x="591.601562" xlink:href="#DejaVuSans-32"/>
      <use x="623.388672" xlink:href="#DejaVuSans-51"/>
      <use x="687.011719" xlink:href="#DejaVuSans-48"/>
     </g>
    </g>
    <g id="line2d_20">
     <path d="M 537.801 494.415 
L 601.801 494.415 
" style="fill:none;stroke:#2ca02c;stroke-linecap:square;stroke-width:4;"/>
    </g>
    <g id="line2d_21"/>
    <g id="text_16">
     <!-- Elevated by 100 -->
     <g transform="translate(627.401 505.615)scale(0.32 -0.32)">
      <use xlink:href="#DejaVuSans-69"/>
      <use x="63.183594" xlink:href="#DejaVuSans-108"/>
      <use x="90.966797" xlink:href="#DejaVuSans-101"/>
      <use x="152.490234" xlink:href="#DejaVuSans-118"/>
      <use x="211.669922" xlink:href="#DejaVuSans-97"/>
      <use x="272.949219" xlink:href="#DejaVuSans-116"/>
      <use x="312.158203" xlink:href="#DejaVuSans-101"/>
      <use x="373.681641" xlink:href="#DejaVuSans-100"/>
      <use x="437.158203" xlink:href="#DejaVuSans-32"/>
      <use x="468.945312" xlink:href="#DejaVuSans-98"/>
      <use x="532.421875" xlink:href="#DejaVuSans-121"/>
      <use x="591.601562" xlink:href="#DejaVuSans-32"/>
      <use x="623.388672" xlink:href="#DejaVuSans-49"/>
      <use x="687.011719" xlink:href="#DejaVuSans-48"/>
      <use x="750.634766" xlink:href="#DejaVuSans-48"/>
     </g>
    </g>
    <g id="line2d_22">
     <path d="M 537.801 541.385 
L 601.801 541.385 
" style="fill:none;stroke:#d62728;stroke-linecap:square;stroke-width:4;"/>
    </g>
    <g id="line2d_23"/>
    <g id="text_17">
     <!-- Exact Extrema -->
     <g transform="translate(627.401 552.585)scale(0.32 -0.32)">
      <defs>
       <path d="M 54.890625 54.6875 
L 35.109375 28.078125 
L 55.90625 0 
L 45.3125 0 
L 29.390625 21.484375 
L 13.484375 0 
L 2.875 0 
L 24.125 28.609375 
L 4.6875 54.6875 
L 15.28125 54.6875 
L 29.78125 35.203125 
L 44.28125 54.6875 
z
" id="DejaVuSans-120"/>
       <path d="M 48.78125 52.59375 
L 48.78125 44.1875 
Q 44.96875 46.296875 41.140625 47.34375 
Q 37.3125 48.390625 33.40625 48.390625 
Q 24.65625 48.390625 19.8125 42.84375 
Q 14.984375 37.3125 14.984375 27.296875 
Q 14.984375 17.28125 19.8125 11.734375 
Q 24.65625 6.203125 33.40625 6.203125 
Q 37.3125 6.203125 41.140625 7.25 
Q 44.96875 8.296875 48.78125 10.40625 
L 48.78125 2.09375 
Q 45.015625 0.34375 40.984375 -0.53125 
Q 36.96875 -1.421875 32.421875 -1.421875 
Q 20.0625 -1.421875 12.78125 6.34375 
Q 5.515625 14.109375 5.515625 27.296875 
Q 5.515625 40.671875 12.859375 48.328125 
Q 20.21875 56 33.015625 56 
Q 37.15625 56 41.109375 55.140625 
Q 45.0625 54.296875 48.78125 52.59375 
z
" id="DejaVuSans-99"/>
       <path d="M 41.109375 46.296875 
Q 39.59375 47.171875 37.8125 47.578125 
Q 36.03125 48 33.890625 48 
Q 26.265625 48 22.1875 43.046875 
Q 18.109375 38.09375 18.109375 28.8125 
L 18.109375 0 
L 9.078125 0 
L 9.078125 54.6875 
L 18.109375 54.6875 
L 18.109375 46.1875 
Q 20.953125 51.171875 25.484375 53.578125 
Q 30.03125 56 36.53125 56 
Q 37.453125 56 38.578125 55.875 
Q 39.703125 55.765625 41.0625 55.515625 
z
" id="DejaVuSans-114"/>
      </defs>
      <use xlink:href="#DejaVuSans-69"/>
      <use x="63.183594" xlink:href="#DejaVuSans-120"/>
      <use x="122.363281" xlink:href="#DejaVuSans-97"/>
      <use x="183.642578" xlink:href="#DejaVuSans-99"/>
      <use x="238.623047" xlink:href="#DejaVuSans-116"/>
      <use x="277.832031" xlink:href="#DejaVuSans-32"/>
      <use x="309.619141" xlink:href="#DejaVuSans-69"/>
      <use x="372.802734" xlink:href="#DejaVuSans-120"/>
      <use x="431.982422" xlink:href="#DejaVuSans-116"/>
      <use x="471.191406" xlink:href="#DejaVuSans-114"/>
      <use x="510.054688" xlink:href="#DejaVuSans-101"/>
      <use x="571.578125" xlink:href="#DejaVuSans-109"/>
      <use x="668.990234" xlink:href="#DejaVuSans-97"/>
     </g>
    </g>
   </g>
  </g>
 </g>
 <defs>
  <clipPath id="p36aade3da9">
   <rect height="544.84" width="737.116" x="179.66" y="43.2"/>
  </clipPath>
 </defs>
</svg>
