<?xml version="1.0" encoding="utf-8" standalone="no"?>
<!DOCTYPE svg PUBLIC "-//W3C//DTD SVG 1.1//EN"
  "http://www.w3.org/Graphics/SVG/1.1/DTD/svg11.dtd">
<svg height="720pt" version="1.1" viewBox="0 0 959.976 720" width="959.976pt" xmlns="http://www.w3.org/2000/svg" xmlns:xlink="http://www.w3.org/1999/xlink">
 <metadata>
  <rdf:RDF xmlns:cc="http://creativecommons.org/ns#" xmlns:dc="http://purl.org/dc/elements/1.1/" xmlns:rdf="http://www.w3.org/1999/02/22-rdf-syntax-ns#">
   <cc:Work>
    <dc:type rdf:resource="http://purl.org/dc/dcmitype/StillImage"/>
    <dc:date>2021-10-18T11:14:02.262329</dc:date>
    <dc:format>image/svg+xml</dc:format>
    <dc:creator>
     <cc:Agent>
      <dc:title>Matplotlib v3.4.2, https://matplotlib.org/</dc:title>
     </cc:Agent>
    </dc:creator>
   </cc:Work>
  </rdf:RDF>
 </metadata>
 <defs>
  <style type="text/css">*{stroke-linecap:butt;stroke-linejoin:round;}</style>
 </defs>
 <g id="figure_1">
  <g id="patch_1">
   <path d="M 0 720 
L 959.976 720 
L 959.976 0 
L 0 0 
z
" style="fill:#ffffff;"/>
  </g>
  <g id="axes_1">
   <g id="patch_2">
    <path d="M 129.60215 619.72 
L 925.416 619.72 
L 925.416 34.56 
L 129.60215 34.56 
z
" style="fill:#ffffff;"/>
   </g>
   <g id="matplotlib.axis_1">
    <g id="xtick_1">
     <g id="line2d_1">
      <defs>
       <path d="M 0 0 
L 0 3.5 
" id="m7d41330b95" style="stroke:#000000;stroke-width:0.8;"/>
      </defs>
      <g>
       <use style="stroke:#000000;stroke-width:0.8;" x="165.775507" xlink:href="#m7d41330b95" y="619.72"/>
      </g>
     </g>
     <g id="text_1">
      <!-- 10 -->
      <g transform="translate(150.505507 644.95625)scale(0.24 -0.24)">
       <defs>
        <path d="M 794 531 
L 1825 531 
L 1825 4091 
L 703 3866 
L 703 4441 
L 1819 4666 
L 2450 4666 
L 2450 531 
L 3481 531 
L 3481 0 
L 794 0 
L 794 531 
z
" id="DejaVuSans-31" transform="scale(0.015625)"/>
        <path d="M 2034 4250 
Q 1547 4250 1301 3770 
Q 1056 3291 1056 2328 
Q 1056 1369 1301 889 
Q 1547 409 2034 409 
Q 2525 409 2770 889 
Q 3016 1369 3016 2328 
Q 3016 3291 2770 3770 
Q 2525 4250 2034 4250 
z
M 2034 4750 
Q 2819 4750 3233 4129 
Q 3647 3509 3647 2328 
Q 3647 1150 3233 529 
Q 2819 -91 2034 -91 
Q 1250 -91 836 529 
Q 422 1150 422 2328 
Q 422 3509 836 4129 
Q 1250 4750 2034 4750 
z
" id="DejaVuSans-30" transform="scale(0.015625)"/>
       </defs>
       <use xlink:href="#DejaVuSans-31"/>
       <use x="63.623047" xlink:href="#DejaVuSans-30"/>
      </g>
     </g>
    </g>
    <g id="xtick_2">
     <g id="line2d_2">
      <g>
       <use style="stroke:#000000;stroke-width:0.8;" x="310.468934" xlink:href="#m7d41330b95" y="619.72"/>
      </g>
     </g>
     <g id="text_2">
      <!-- 12 -->
      <g transform="translate(295.198934 644.95625)scale(0.24 -0.24)">
       <defs>
        <path d="M 1228 531 
L 3431 531 
L 3431 0 
L 469 0 
L 469 531 
Q 828 903 1448 1529 
Q 2069 2156 2228 2338 
Q 2531 2678 2651 2914 
Q 2772 3150 2772 3378 
Q 2772 3750 2511 3984 
Q 2250 4219 1831 4219 
Q 1534 4219 1204 4116 
Q 875 4013 500 3803 
L 500 4441 
Q 881 4594 1212 4672 
Q 1544 4750 1819 4750 
Q 2544 4750 2975 4387 
Q 3406 4025 3406 3419 
Q 3406 3131 3298 2873 
Q 3191 2616 2906 2266 
Q 2828 2175 2409 1742 
Q 1991 1309 1228 531 
z
" id="DejaVuSans-32" transform="scale(0.015625)"/>
       </defs>
       <use xlink:href="#DejaVuSans-31"/>
       <use x="63.623047" xlink:href="#DejaVuSans-32"/>
      </g>
     </g>
    </g>
    <g id="xtick_3">
     <g id="line2d_3">
      <g>
       <use style="stroke:#000000;stroke-width:0.8;" x="455.162361" xlink:href="#m7d41330b95" y="619.72"/>
      </g>
     </g>
     <g id="text_3">
      <!-- 14 -->
      <g transform="translate(439.892361 644.95625)scale(0.24 -0.24)">
       <defs>
        <path d="M 2419 4116 
L 825 1625 
L 2419 1625 
L 2419 4116 
z
M 2253 4666 
L 3047 4666 
L 3047 1625 
L 3713 1625 
L 3713 1100 
L 3047 1100 
L 3047 0 
L 2419 0 
L 2419 1100 
L 313 1100 
L 313 1709 
L 2253 4666 
z
" id="DejaVuSans-34" transform="scale(0.015625)"/>
       </defs>
       <use xlink:href="#DejaVuSans-31"/>
       <use x="63.623047" xlink:href="#DejaVuSans-34"/>
      </g>
     </g>
    </g>
    <g id="xtick_4">
     <g id="line2d_4">
      <g>
       <use style="stroke:#000000;stroke-width:0.8;" x="599.855789" xlink:href="#m7d41330b95" y="619.72"/>
      </g>
     </g>
     <g id="text_4">
      <!-- 16 -->
      <g transform="translate(584.585789 644.95625)scale(0.24 -0.24)">
       <defs>
        <path d="M 2113 2584 
Q 1688 2584 1439 2293 
Q 1191 2003 1191 1497 
Q 1191 994 1439 701 
Q 1688 409 2113 409 
Q 2538 409 2786 701 
Q 3034 994 3034 1497 
Q 3034 2003 2786 2293 
Q 2538 2584 2113 2584 
z
M 3366 4563 
L 3366 3988 
Q 3128 4100 2886 4159 
Q 2644 4219 2406 4219 
Q 1781 4219 1451 3797 
Q 1122 3375 1075 2522 
Q 1259 2794 1537 2939 
Q 1816 3084 2150 3084 
Q 2853 3084 3261 2657 
Q 3669 2231 3669 1497 
Q 3669 778 3244 343 
Q 2819 -91 2113 -91 
Q 1303 -91 875 529 
Q 447 1150 447 2328 
Q 447 3434 972 4092 
Q 1497 4750 2381 4750 
Q 2619 4750 2861 4703 
Q 3103 4656 3366 4563 
z
" id="DejaVuSans-36" transform="scale(0.015625)"/>
       </defs>
       <use xlink:href="#DejaVuSans-31"/>
       <use x="63.623047" xlink:href="#DejaVuSans-36"/>
      </g>
     </g>
    </g>
    <g id="xtick_5">
     <g id="line2d_5">
      <g>
       <use style="stroke:#000000;stroke-width:0.8;" x="744.549216" xlink:href="#m7d41330b95" y="619.72"/>
      </g>
     </g>
     <g id="text_5">
      <!-- 18 -->
      <g transform="translate(729.279216 644.95625)scale(0.24 -0.24)">
       <defs>
        <path d="M 2034 2216 
Q 1584 2216 1326 1975 
Q 1069 1734 1069 1313 
Q 1069 891 1326 650 
Q 1584 409 2034 409 
Q 2484 409 2743 651 
Q 3003 894 3003 1313 
Q 3003 1734 2745 1975 
Q 2488 2216 2034 2216 
z
M 1403 2484 
Q 997 2584 770 2862 
Q 544 3141 544 3541 
Q 544 4100 942 4425 
Q 1341 4750 2034 4750 
Q 2731 4750 3128 4425 
Q 3525 4100 3525 3541 
Q 3525 3141 3298 2862 
Q 3072 2584 2669 2484 
Q 3125 2378 3379 2068 
Q 3634 1759 3634 1313 
Q 3634 634 3220 271 
Q 2806 -91 2034 -91 
Q 1263 -91 848 271 
Q 434 634 434 1313 
Q 434 1759 690 2068 
Q 947 2378 1403 2484 
z
M 1172 3481 
Q 1172 3119 1398 2916 
Q 1625 2713 2034 2713 
Q 2441 2713 2670 2916 
Q 2900 3119 2900 3481 
Q 2900 3844 2670 4047 
Q 2441 4250 2034 4250 
Q 1625 4250 1398 4047 
Q 1172 3844 1172 3481 
z
" id="DejaVuSans-38" transform="scale(0.015625)"/>
       </defs>
       <use xlink:href="#DejaVuSans-31"/>
       <use x="63.623047" xlink:href="#DejaVuSans-38"/>
      </g>
     </g>
    </g>
    <g id="xtick_6">
     <g id="line2d_6">
      <g>
       <use style="stroke:#000000;stroke-width:0.8;" x="889.242643" xlink:href="#m7d41330b95" y="619.72"/>
      </g>
     </g>
     <g id="text_6">
      <!-- 20 -->
      <g transform="translate(873.972643 644.95625)scale(0.24 -0.24)">
       <use xlink:href="#DejaVuSans-32"/>
       <use x="63.623047" xlink:href="#DejaVuSans-30"/>
      </g>
     </g>
    </g>
    <g id="text_7">
     <!-- Time (s) -->
     <g transform="translate(462.456575 678.2625)scale(0.32 -0.32)">
      <defs>
       <path d="M -19 4666 
L 3928 4666 
L 3928 4134 
L 2272 4134 
L 2272 0 
L 1638 0 
L 1638 4134 
L -19 4134 
L -19 4666 
z
" id="DejaVuSans-54" transform="scale(0.015625)"/>
       <path d="M 603 3500 
L 1178 3500 
L 1178 0 
L 603 0 
L 603 3500 
z
M 603 4863 
L 1178 4863 
L 1178 4134 
L 603 4134 
L 603 4863 
z
" id="DejaVuSans-69" transform="scale(0.015625)"/>
       <path d="M 3328 2828 
Q 3544 3216 3844 3400 
Q 4144 3584 4550 3584 
Q 5097 3584 5394 3201 
Q 5691 2819 5691 2113 
L 5691 0 
L 5113 0 
L 5113 2094 
Q 5113 2597 4934 2840 
Q 4756 3084 4391 3084 
Q 3944 3084 3684 2787 
Q 3425 2491 3425 1978 
L 3425 0 
L 2847 0 
L 2847 2094 
Q 2847 2600 2669 2842 
Q 2491 3084 2119 3084 
Q 1678 3084 1418 2786 
Q 1159 2488 1159 1978 
L 1159 0 
L 581 0 
L 581 3500 
L 1159 3500 
L 1159 2956 
Q 1356 3278 1631 3431 
Q 1906 3584 2284 3584 
Q 2666 3584 2933 3390 
Q 3200 3197 3328 2828 
z
" id="DejaVuSans-6d" transform="scale(0.015625)"/>
       <path d="M 3597 1894 
L 3597 1613 
L 953 1613 
Q 991 1019 1311 708 
Q 1631 397 2203 397 
Q 2534 397 2845 478 
Q 3156 559 3463 722 
L 3463 178 
Q 3153 47 2828 -22 
Q 2503 -91 2169 -91 
Q 1331 -91 842 396 
Q 353 884 353 1716 
Q 353 2575 817 3079 
Q 1281 3584 2069 3584 
Q 2775 3584 3186 3129 
Q 3597 2675 3597 1894 
z
M 3022 2063 
Q 3016 2534 2758 2815 
Q 2500 3097 2075 3097 
Q 1594 3097 1305 2825 
Q 1016 2553 972 2059 
L 3022 2063 
z
" id="DejaVuSans-65" transform="scale(0.015625)"/>
       <path id="DejaVuSans-20" transform="scale(0.015625)"/>
       <path d="M 1984 4856 
Q 1566 4138 1362 3434 
Q 1159 2731 1159 2009 
Q 1159 1288 1364 580 
Q 1569 -128 1984 -844 
L 1484 -844 
Q 1016 -109 783 600 
Q 550 1309 550 2009 
Q 550 2706 781 3412 
Q 1013 4119 1484 4856 
L 1984 4856 
z
" id="DejaVuSans-28" transform="scale(0.015625)"/>
       <path d="M 2834 3397 
L 2834 2853 
Q 2591 2978 2328 3040 
Q 2066 3103 1784 3103 
Q 1356 3103 1142 2972 
Q 928 2841 928 2578 
Q 928 2378 1081 2264 
Q 1234 2150 1697 2047 
L 1894 2003 
Q 2506 1872 2764 1633 
Q 3022 1394 3022 966 
Q 3022 478 2636 193 
Q 2250 -91 1575 -91 
Q 1294 -91 989 -36 
Q 684 19 347 128 
L 347 722 
Q 666 556 975 473 
Q 1284 391 1588 391 
Q 1994 391 2212 530 
Q 2431 669 2431 922 
Q 2431 1156 2273 1281 
Q 2116 1406 1581 1522 
L 1381 1569 
Q 847 1681 609 1914 
Q 372 2147 372 2553 
Q 372 3047 722 3315 
Q 1072 3584 1716 3584 
Q 2034 3584 2315 3537 
Q 2597 3491 2834 3397 
z
" id="DejaVuSans-73" transform="scale(0.015625)"/>
       <path d="M 513 4856 
L 1013 4856 
Q 1481 4119 1714 3412 
Q 1947 2706 1947 2009 
Q 1947 1309 1714 600 
Q 1481 -109 1013 -844 
L 513 -844 
Q 928 -128 1133 580 
Q 1338 1288 1338 2009 
Q 1338 2731 1133 3434 
Q 928 4138 513 4856 
z
" id="DejaVuSans-29" transform="scale(0.015625)"/>
      </defs>
      <use xlink:href="#DejaVuSans-54"/>
      <use x="57.958984" xlink:href="#DejaVuSans-69"/>
      <use x="85.742188" xlink:href="#DejaVuSans-6d"/>
      <use x="183.154297" xlink:href="#DejaVuSans-65"/>
      <use x="244.677734" xlink:href="#DejaVuSans-20"/>
      <use x="276.464844" xlink:href="#DejaVuSans-28"/>
      <use x="315.478516" xlink:href="#DejaVuSans-73"/>
      <use x="367.578125" xlink:href="#DejaVuSans-29"/>
     </g>
    </g>
   </g>
   <g id="matplotlib.axis_2">
    <g id="ytick_1">
     <g id="line2d_7">
      <defs>
       <path d="M 0 0 
L -3.5 0 
" id="m8088f4c92b" style="stroke:#000000;stroke-width:0.8;"/>
      </defs>
      <g>
       <use style="stroke:#000000;stroke-width:0.8;" x="129.60215" xlink:href="#m8088f4c92b" y="600.510202"/>
      </g>
     </g>
     <g id="text_8">
      <!-- −2 -->
      <g transform="translate(87.2209 609.628327)scale(0.24 -0.24)">
       <defs>
        <path d="M 678 2272 
L 4684 2272 
L 4684 1741 
L 678 1741 
L 678 2272 
z
" id="DejaVuSans-2212" transform="scale(0.015625)"/>
       </defs>
       <use xlink:href="#DejaVuSans-2212"/>
       <use x="83.789062" xlink:href="#DejaVuSans-32"/>
      </g>
     </g>
    </g>
    <g id="ytick_2">
     <g id="line2d_8">
      <g>
       <use style="stroke:#000000;stroke-width:0.8;" x="129.60215" xlink:href="#m8088f4c92b" y="494.961861"/>
      </g>
     </g>
     <g id="text_9">
      <!-- 0 -->
      <g transform="translate(107.33215 504.079986)scale(0.24 -0.24)">
       <use xlink:href="#DejaVuSans-30"/>
      </g>
     </g>
    </g>
    <g id="ytick_3">
     <g id="line2d_9">
      <g>
       <use style="stroke:#000000;stroke-width:0.8;" x="129.60215" xlink:href="#m8088f4c92b" y="389.413521"/>
      </g>
     </g>
     <g id="text_10">
      <!-- 2 -->
      <g transform="translate(107.33215 398.531646)scale(0.24 -0.24)">
       <use xlink:href="#DejaVuSans-32"/>
      </g>
     </g>
    </g>
    <g id="ytick_4">
     <g id="line2d_10">
      <g>
       <use style="stroke:#000000;stroke-width:0.8;" x="129.60215" xlink:href="#m8088f4c92b" y="283.86518"/>
      </g>
     </g>
     <g id="text_11">
      <!-- 4 -->
      <g transform="translate(107.33215 292.983305)scale(0.24 -0.24)">
       <use xlink:href="#DejaVuSans-34"/>
      </g>
     </g>
    </g>
    <g id="ytick_5">
     <g id="line2d_11">
      <g>
       <use style="stroke:#000000;stroke-width:0.8;" x="129.60215" xlink:href="#m8088f4c92b" y="178.31684"/>
      </g>
     </g>
     <g id="text_12">
      <!-- 6 -->
      <g transform="translate(107.33215 187.434965)scale(0.24 -0.24)">
       <use xlink:href="#DejaVuSans-36"/>
      </g>
     </g>
    </g>
    <g id="ytick_6">
     <g id="line2d_12">
      <g>
       <use style="stroke:#000000;stroke-width:0.8;" x="129.60215" xlink:href="#m8088f4c92b" y="72.768499"/>
      </g>
     </g>
     <g id="text_13">
      <!-- 8 -->
      <g transform="translate(107.33215 81.886624)scale(0.24 -0.24)">
       <use xlink:href="#DejaVuSans-38"/>
      </g>
     </g>
    </g>
    <g id="text_14">
     <!-- Squared Acceleration $\left( \frac{m}{s^2} \right)^2$ -->
     <g transform="translate(66.5809 539.3)rotate(-90)scale(0.32 -0.32)">
      <defs>
       <path d="M 3425 4513 
L 3425 3897 
Q 3066 4069 2747 4153 
Q 2428 4238 2131 4238 
Q 1616 4238 1336 4038 
Q 1056 3838 1056 3469 
Q 1056 3159 1242 3001 
Q 1428 2844 1947 2747 
L 2328 2669 
Q 3034 2534 3370 2195 
Q 3706 1856 3706 1288 
Q 3706 609 3251 259 
Q 2797 -91 1919 -91 
Q 1588 -91 1214 -16 
Q 841 59 441 206 
L 441 856 
Q 825 641 1194 531 
Q 1563 422 1919 422 
Q 2459 422 2753 634 
Q 3047 847 3047 1241 
Q 3047 1584 2836 1778 
Q 2625 1972 2144 2069 
L 1759 2144 
Q 1053 2284 737 2584 
Q 422 2884 422 3419 
Q 422 4038 858 4394 
Q 1294 4750 2059 4750 
Q 2388 4750 2728 4690 
Q 3069 4631 3425 4513 
z
" id="DejaVuSans-53" transform="scale(0.015625)"/>
       <path d="M 947 1747 
Q 947 1113 1208 752 
Q 1469 391 1925 391 
Q 2381 391 2643 752 
Q 2906 1113 2906 1747 
Q 2906 2381 2643 2742 
Q 2381 3103 1925 3103 
Q 1469 3103 1208 2742 
Q 947 2381 947 1747 
z
M 2906 525 
Q 2725 213 2448 61 
Q 2172 -91 1784 -91 
Q 1150 -91 751 415 
Q 353 922 353 1747 
Q 353 2572 751 3078 
Q 1150 3584 1784 3584 
Q 2172 3584 2448 3432 
Q 2725 3281 2906 2969 
L 2906 3500 
L 3481 3500 
L 3481 -1331 
L 2906 -1331 
L 2906 525 
z
" id="DejaVuSans-71" transform="scale(0.015625)"/>
       <path d="M 544 1381 
L 544 3500 
L 1119 3500 
L 1119 1403 
Q 1119 906 1312 657 
Q 1506 409 1894 409 
Q 2359 409 2629 706 
Q 2900 1003 2900 1516 
L 2900 3500 
L 3475 3500 
L 3475 0 
L 2900 0 
L 2900 538 
Q 2691 219 2414 64 
Q 2138 -91 1772 -91 
Q 1169 -91 856 284 
Q 544 659 544 1381 
z
M 1991 3584 
L 1991 3584 
z
" id="DejaVuSans-75" transform="scale(0.015625)"/>
       <path d="M 2194 1759 
Q 1497 1759 1228 1600 
Q 959 1441 959 1056 
Q 959 750 1161 570 
Q 1363 391 1709 391 
Q 2188 391 2477 730 
Q 2766 1069 2766 1631 
L 2766 1759 
L 2194 1759 
z
M 3341 1997 
L 3341 0 
L 2766 0 
L 2766 531 
Q 2569 213 2275 61 
Q 1981 -91 1556 -91 
Q 1019 -91 701 211 
Q 384 513 384 1019 
Q 384 1609 779 1909 
Q 1175 2209 1959 2209 
L 2766 2209 
L 2766 2266 
Q 2766 2663 2505 2880 
Q 2244 3097 1772 3097 
Q 1472 3097 1187 3025 
Q 903 2953 641 2809 
L 641 3341 
Q 956 3463 1253 3523 
Q 1550 3584 1831 3584 
Q 2591 3584 2966 3190 
Q 3341 2797 3341 1997 
z
" id="DejaVuSans-61" transform="scale(0.015625)"/>
       <path d="M 2631 2963 
Q 2534 3019 2420 3045 
Q 2306 3072 2169 3072 
Q 1681 3072 1420 2755 
Q 1159 2438 1159 1844 
L 1159 0 
L 581 0 
L 581 3500 
L 1159 3500 
L 1159 2956 
Q 1341 3275 1631 3429 
Q 1922 3584 2338 3584 
Q 2397 3584 2469 3576 
Q 2541 3569 2628 3553 
L 2631 2963 
z
" id="DejaVuSans-72" transform="scale(0.015625)"/>
       <path d="M 2906 2969 
L 2906 4863 
L 3481 4863 
L 3481 0 
L 2906 0 
L 2906 525 
Q 2725 213 2448 61 
Q 2172 -91 1784 -91 
Q 1150 -91 751 415 
Q 353 922 353 1747 
Q 353 2572 751 3078 
Q 1150 3584 1784 3584 
Q 2172 3584 2448 3432 
Q 2725 3281 2906 2969 
z
M 947 1747 
Q 947 1113 1208 752 
Q 1469 391 1925 391 
Q 2381 391 2643 752 
Q 2906 1113 2906 1747 
Q 2906 2381 2643 2742 
Q 2381 3103 1925 3103 
Q 1469 3103 1208 2742 
Q 947 2381 947 1747 
z
" id="DejaVuSans-64" transform="scale(0.015625)"/>
       <path d="M 2188 4044 
L 1331 1722 
L 3047 1722 
L 2188 4044 
z
M 1831 4666 
L 2547 4666 
L 4325 0 
L 3669 0 
L 3244 1197 
L 1141 1197 
L 716 0 
L 50 0 
L 1831 4666 
z
" id="DejaVuSans-41" transform="scale(0.015625)"/>
       <path d="M 3122 3366 
L 3122 2828 
Q 2878 2963 2633 3030 
Q 2388 3097 2138 3097 
Q 1578 3097 1268 2742 
Q 959 2388 959 1747 
Q 959 1106 1268 751 
Q 1578 397 2138 397 
Q 2388 397 2633 464 
Q 2878 531 3122 666 
L 3122 134 
Q 2881 22 2623 -34 
Q 2366 -91 2075 -91 
Q 1284 -91 818 406 
Q 353 903 353 1747 
Q 353 2603 823 3093 
Q 1294 3584 2113 3584 
Q 2378 3584 2631 3529 
Q 2884 3475 3122 3366 
z
" id="DejaVuSans-63" transform="scale(0.015625)"/>
       <path d="M 603 4863 
L 1178 4863 
L 1178 0 
L 603 0 
L 603 4863 
z
" id="DejaVuSans-6c" transform="scale(0.015625)"/>
       <path d="M 1172 4494 
L 1172 3500 
L 2356 3500 
L 2356 3053 
L 1172 3053 
L 1172 1153 
Q 1172 725 1289 603 
Q 1406 481 1766 481 
L 2356 481 
L 2356 0 
L 1766 0 
Q 1100 0 847 248 
Q 594 497 594 1153 
L 594 3053 
L 172 3053 
L 172 3500 
L 594 3500 
L 594 4494 
L 1172 4494 
z
" id="DejaVuSans-74" transform="scale(0.015625)"/>
       <path d="M 1959 3097 
Q 1497 3097 1228 2736 
Q 959 2375 959 1747 
Q 959 1119 1226 758 
Q 1494 397 1959 397 
Q 2419 397 2687 759 
Q 2956 1122 2956 1747 
Q 2956 2369 2687 2733 
Q 2419 3097 1959 3097 
z
M 1959 3584 
Q 2709 3584 3137 3096 
Q 3566 2609 3566 1747 
Q 3566 888 3137 398 
Q 2709 -91 1959 -91 
Q 1206 -91 779 398 
Q 353 888 353 1747 
Q 353 2609 779 3096 
Q 1206 3584 1959 3584 
z
" id="DejaVuSans-6f" transform="scale(0.015625)"/>
       <path d="M 3513 2113 
L 3513 0 
L 2938 0 
L 2938 2094 
Q 2938 2591 2744 2837 
Q 2550 3084 2163 3084 
Q 1697 3084 1428 2787 
Q 1159 2491 1159 1978 
L 1159 0 
L 581 0 
L 581 3500 
L 1159 3500 
L 1159 2956 
Q 1366 3272 1645 3428 
Q 1925 3584 2291 3584 
Q 2894 3584 3203 3211 
Q 3513 2838 3513 2113 
z
" id="DejaVuSans-6e" transform="scale(0.015625)"/>
       <path d="M 3219 -1555 
L 3219 -1786 
Q 2144 -774 1517 730 
Q 890 2234 890 4115 
Q 890 6003 1533 7593 
Q 2176 9184 3219 10022 
L 3219 9811 
Q 2490 9062 1994 7606 
Q 1498 6150 1498 4115 
Q 1498 563 3219 -1555 
z
" id="STIXSizeTwoSym-Regular-28" transform="scale(0.015625)"/>
       <path d="M 5747 2113 
L 5338 0 
L 4763 0 
L 5166 2094 
Q 5191 2228 5203 2325 
Q 5216 2422 5216 2491 
Q 5216 2772 5059 2928 
Q 4903 3084 4622 3084 
Q 4203 3084 3875 2770 
Q 3547 2456 3450 1953 
L 3066 0 
L 2491 0 
L 2900 2094 
Q 2925 2209 2937 2307 
Q 2950 2406 2950 2484 
Q 2950 2769 2794 2926 
Q 2638 3084 2363 3084 
Q 1938 3084 1609 2770 
Q 1281 2456 1184 1953 
L 800 0 
L 225 0 
L 909 3500 
L 1484 3500 
L 1375 2956 
Q 1609 3263 1923 3423 
Q 2238 3584 2597 3584 
Q 2978 3584 3223 3384 
Q 3469 3184 3519 2828 
Q 3781 3197 4126 3390 
Q 4472 3584 4856 3584 
Q 5306 3584 5551 3325 
Q 5797 3066 5797 2591 
Q 5797 2488 5784 2364 
Q 5772 2241 5747 2113 
z
" id="DejaVuSans-Oblique-6d" transform="scale(0.015625)"/>
       <path d="M 3200 3397 
L 3091 2853 
Q 2863 2978 2609 3040 
Q 2356 3103 2088 3103 
Q 1634 3103 1373 2948 
Q 1113 2794 1113 2528 
Q 1113 2219 1719 2053 
Q 1766 2041 1788 2034 
L 1972 1978 
Q 2547 1819 2739 1644 
Q 2931 1469 2931 1166 
Q 2931 609 2489 259 
Q 2047 -91 1331 -91 
Q 1053 -91 747 -37 
Q 441 16 72 128 
L 184 722 
Q 500 559 806 475 
Q 1113 391 1394 391 
Q 1816 391 2080 572 
Q 2344 753 2344 1031 
Q 2344 1331 1650 1516 
L 1591 1531 
L 1394 1581 
Q 956 1697 753 1886 
Q 550 2075 550 2369 
Q 550 2928 970 3256 
Q 1391 3584 2113 3584 
Q 2397 3584 2667 3537 
Q 2938 3491 3200 3397 
z
" id="DejaVuSans-Oblique-73" transform="scale(0.015625)"/>
       <path d="M 730 9792 
L 730 10022 
Q 1805 9011 2432 7507 
Q 3059 6003 3059 4115 
Q 3059 2234 2416 643 
Q 1773 -947 730 -1786 
L 730 -1574 
Q 1459 -826 1955 633 
Q 2451 2093 2451 4115 
Q 2451 7674 730 9792 
z
" id="STIXSizeTwoSym-Regular-29" transform="scale(0.015625)"/>
      </defs>
      <use transform="translate(0 0.765625)" xlink:href="#DejaVuSans-53"/>
      <use transform="translate(63.476562 0.765625)" xlink:href="#DejaVuSans-71"/>
      <use transform="translate(126.953125 0.765625)" xlink:href="#DejaVuSans-75"/>
      <use transform="translate(190.332031 0.765625)" xlink:href="#DejaVuSans-61"/>
      <use transform="translate(251.611328 0.765625)" xlink:href="#DejaVuSans-72"/>
      <use transform="translate(292.724609 0.765625)" xlink:href="#DejaVuSans-65"/>
      <use transform="translate(354.248047 0.765625)" xlink:href="#DejaVuSans-64"/>
      <use transform="translate(417.724609 0.765625)" xlink:href="#DejaVuSans-20"/>
      <use transform="translate(449.511719 0.765625)" xlink:href="#DejaVuSans-41"/>
      <use transform="translate(517.919922 0.765625)" xlink:href="#DejaVuSans-63"/>
      <use transform="translate(572.900391 0.765625)" xlink:href="#DejaVuSans-63"/>
      <use transform="translate(627.880859 0.765625)" xlink:href="#DejaVuSans-65"/>
      <use transform="translate(689.404297 0.765625)" xlink:href="#DejaVuSans-6c"/>
      <use transform="translate(717.1875 0.765625)" xlink:href="#DejaVuSans-65"/>
      <use transform="translate(778.710938 0.765625)" xlink:href="#DejaVuSans-72"/>
      <use transform="translate(819.824219 0.765625)" xlink:href="#DejaVuSans-61"/>
      <use transform="translate(881.103516 0.765625)" xlink:href="#DejaVuSans-74"/>
      <use transform="translate(920.3125 0.765625)" xlink:href="#DejaVuSans-69"/>
      <use transform="translate(948.095703 0.765625)" xlink:href="#DejaVuSans-6f"/>
      <use transform="translate(1009.277344 0.765625)" xlink:href="#DejaVuSans-6e"/>
      <use transform="translate(1072.65625 0.765625)" xlink:href="#DejaVuSans-20"/>
      <use transform="translate(1104.443359 -30.4875)scale(0.72959)" xlink:href="#STIXSizeTwoSym-Regular-28"/>
      <use transform="translate(1149.41275 44.5625)scale(0.7)" xlink:href="#DejaVuSans-Oblique-6d"/>
      <use transform="translate(1147.41275 -49.851562)scale(0.7)" xlink:href="#DejaVuSans-Oblique-73"/>
      <use transform="translate(1187.137404 -23.054688)scale(0.49)" xlink:href="#DejaVuSans-32"/>
      <use transform="translate(1232.726759 -30.4875)scale(0.72959)" xlink:href="#STIXSizeTwoSym-Regular-29"/>
      <use transform="translate(1278.03929 39.046875)scale(0.7)" xlink:href="#DejaVuSans-32"/>
      <path d="M 1147.41275 19.5625 
L 1147.41275 25.8125 
L 1220.226759 25.8125 
L 1220.226759 19.5625 
L 1147.41275 19.5625 
z
"/>
     </g>
    </g>
   </g>
   <g id="line2d_13">
    <path clip-path="url(#p4957cf378a)" d="M 165.775507 453.798009 
L 169.392843 457.064223 
L 173.010178 460.035828 
L 176.627514 462.730993 
L 180.24485 465.167139 
L 183.862185 467.360962 
L 187.479521 469.328446 
L 191.820324 471.412146 
L 196.161127 473.217056 
L 200.501929 474.766973 
L 204.842732 476.084387 
L 209.183535 477.190519 
L 214.247805 478.240585 
L 219.312075 479.059971 
L 225.099812 479.74929 
L 230.887549 480.211346 
L 237.398753 480.502647 
L 244.633425 480.594738 
L 252.591563 480.477192 
L 262.720103 480.09194 
L 276.465979 479.325348 
L 310.468934 477.337957 
L 324.938277 476.763034 
L 338.684152 476.442003 
L 352.430028 476.342067 
L 367.622838 476.460781 
L 385.709516 476.839921 
L 451.545026 478.466409 
L 467.461303 478.490916 
L 481.930645 478.295723 
L 496.399988 477.88206 
L 511.592798 477.220522 
L 528.232542 476.263602 
L 549.213089 474.813439 
L 590.450716 471.905321 
L 605.643526 471.101399 
L 618.665934 470.638888 
L 630.241408 470.446392 
L 641.093415 470.478703 
L 651.945422 470.732356 
L 662.797429 471.212655 
L 673.649437 471.912979 
L 685.224911 472.878584 
L 698.970786 474.252984 
L 732.973742 477.782595 
L 741.655347 478.401136 
L 748.890019 478.709762 
L 755.401223 478.773438 
L 761.18896 478.618269 
L 766.25323 478.287622 
L 771.3175 477.745875 
L 776.38177 476.962924 
L 780.722573 476.075397 
L 785.063376 474.965221 
L 789.404178 473.609385 
L 793.744981 471.983536 
L 797.362317 470.403877 
L 800.979653 468.603215 
L 804.596988 466.565193 
L 808.214324 464.272734 
L 811.83166 461.708013 
L 815.448995 458.852446 
L 819.066331 455.686666 
L 822.683667 452.190508 
L 826.301002 448.342985 
L 829.918338 444.122272 
L 833.535674 439.505685 
L 837.153009 434.469661 
L 840.770345 428.989737 
L 844.387681 423.04053 
L 848.005016 416.595719 
L 851.622352 409.628017 
L 855.239688 402.109159 
L 858.857023 394.009875 
L 862.474359 385.299868 
L 866.091695 375.947796 
L 869.70903 365.921246 
L 873.326366 355.186717 
L 876.943702 343.709591 
L 880.561038 331.454115 
L 884.178373 318.383378 
L 887.795709 304.459286 
L 889.242643 298.641948 
L 889.242643 298.641948 
" style="fill:none;stroke:#1f77b4;stroke-linecap:square;stroke-width:4;"/>
   </g>
   <g id="line2d_14">
    <path clip-path="url(#p4957cf378a)" d="M 165.775507 453.798009 
L 238.12222 522.193333 
L 310.468934 451.264848 
L 382.815648 455.697879 
L 455.162361 501.204292 
L 527.509075 506.722962 
L 599.855789 456.13515 
L 672.202502 419.494798 
L 744.549216 483.773737 
L 816.89593 593.121818 
L 889.242643 298.641948 
" style="fill:none;stroke:#1f77b4;stroke-dasharray:14.8,6.4;stroke-dashoffset:0;stroke-width:4;"/>
    <defs>
     <path d="M 0 4.5 
C 1.193414 4.5 2.338109 4.025852 3.181981 3.181981 
C 4.025852 2.338109 4.5 1.193414 4.5 0 
C 4.5 -1.193414 4.025852 -2.338109 3.181981 -3.181981 
C 2.338109 -4.025852 1.193414 -4.5 0 -4.5 
C -1.193414 -4.5 -2.338109 -4.025852 -3.181981 -3.181981 
C -4.025852 -2.338109 -4.5 -1.193414 -4.5 0 
C -4.5 1.193414 -4.025852 2.338109 -3.181981 3.181981 
C -2.338109 4.025852 -1.193414 4.5 0 4.5 
z
" id="mdfcb0479e4" style="stroke:#1f77b4;"/>
    </defs>
    <g clip-path="url(#p4957cf378a)">
     <use style="fill:#1f77b4;stroke:#1f77b4;" x="165.775507" xlink:href="#mdfcb0479e4" y="453.798009"/>
     <use style="fill:#1f77b4;stroke:#1f77b4;" x="238.12222" xlink:href="#mdfcb0479e4" y="522.193333"/>
     <use style="fill:#1f77b4;stroke:#1f77b4;" x="310.468934" xlink:href="#mdfcb0479e4" y="451.264848"/>
     <use style="fill:#1f77b4;stroke:#1f77b4;" x="382.815648" xlink:href="#mdfcb0479e4" y="455.697879"/>
     <use style="fill:#1f77b4;stroke:#1f77b4;" x="455.162361" xlink:href="#mdfcb0479e4" y="501.204292"/>
     <use style="fill:#1f77b4;stroke:#1f77b4;" x="527.509075" xlink:href="#mdfcb0479e4" y="506.722962"/>
     <use style="fill:#1f77b4;stroke:#1f77b4;" x="599.855789" xlink:href="#mdfcb0479e4" y="456.13515"/>
     <use style="fill:#1f77b4;stroke:#1f77b4;" x="672.202502" xlink:href="#mdfcb0479e4" y="419.494798"/>
     <use style="fill:#1f77b4;stroke:#1f77b4;" x="744.549216" xlink:href="#mdfcb0479e4" y="483.773737"/>
     <use style="fill:#1f77b4;stroke:#1f77b4;" x="816.89593" xlink:href="#mdfcb0479e4" y="593.121818"/>
     <use style="fill:#1f77b4;stroke:#1f77b4;" x="889.242643" xlink:href="#mdfcb0479e4" y="298.641948"/>
    </g>
   </g>
   <g id="line2d_15">
    <path clip-path="url(#p4957cf378a)" d="M 165.775507 441.132208 
L 170.839777 444.99293 
L 175.904047 448.604475 
L 181.691784 452.443276 
L 187.479521 455.991641 
L 193.267258 459.266951 
L 199.054995 462.285726 
L 204.842732 465.063657 
L 210.630469 467.615642 
L 217.141674 470.234123 
L 223.652878 472.603542 
L 230.164082 474.741817 
L 237.398753 476.867056 
L 244.633425 478.749404 
L 251.868096 480.409096 
L 259.826235 482.000075 
L 267.784373 483.367787 
L 276.465979 484.630519 
L 285.871051 485.757467 
L 295.276124 486.662923 
L 305.404664 487.42155 
L 316.256671 488.019349 
L 328.555612 488.469851 
L 342.301488 488.739674 
L 357.494298 488.81297 
L 375.580976 488.675183 
L 399.455392 488.257379 
L 498.57039 486.270438 
L 579.598709 485.146816 
L 594.791519 484.600245 
L 607.09046 483.947371 
L 617.942467 483.161863 
L 628.071007 482.205822 
L 637.47608 481.084082 
L 646.157685 479.811794 
L 654.115824 478.41395 
L 661.350495 476.924364 
L 668.585167 475.200483 
L 675.096371 473.426301 
L 681.607575 471.419187 
L 687.395312 469.421248 
L 693.183049 467.204455 
L 698.970786 464.750909 
L 704.758523 462.041689 
L 709.822793 459.445711 
L 714.887063 456.624632 
L 719.951333 453.563714 
L 725.015603 450.247534 
L 730.079873 446.659964 
L 735.144143 442.784143 
L 740.208413 438.60246 
L 745.272683 434.096529 
L 750.336953 429.247165 
L 754.677756 424.802082 
L 759.018559 420.076906 
L 763.359361 415.05808 
L 767.700164 409.731565 
L 772.040967 404.082834 
L 776.38177 398.096858 
L 780.722573 391.758093 
L 785.063376 385.050471 
L 789.404178 377.957385 
L 793.744981 370.461678 
L 798.085784 362.545631 
L 802.426587 354.190949 
L 806.76739 345.378751 
L 811.108192 336.089553 
L 815.448995 326.30326 
L 819.789798 315.999148 
L 824.130601 305.155854 
L 828.471404 293.75136 
L 832.812207 281.762984 
L 837.153009 269.16736 
L 841.493812 255.940428 
L 845.834615 242.057419 
L 850.175418 227.492841 
L 854.516221 212.220465 
L 858.857023 196.21331 
L 863.197826 179.443627 
L 867.538629 161.882886 
L 871.879432 143.501762 
L 876.220235 124.270117 
L 880.561038 104.156986 
L 884.90184 83.130562 
L 889.242643 61.158182 
L 889.242643 61.158182 
" style="fill:none;stroke:#ff7f0e;stroke-linecap:square;stroke-width:4;"/>
   </g>
   <g id="line2d_16">
    <path clip-path="url(#p4957cf378a)" d="M 165.775507 441.132208 
L 238.12222 498.128312 
L 310.468934 495.595152 
L 382.815648 488.945606 
L 455.162361 485.191101 
L 527.509075 481.466752 
L 599.855789 482.296061 
L 672.202502 495.595152 
L 744.549216 507.416566 
L 816.89593 435.432597 
L 889.242643 61.158182 
" style="fill:none;stroke:#ff7f0e;stroke-dasharray:14.8,6.4;stroke-dashoffset:0;stroke-width:4;"/>
    <defs>
     <path d="M 0 4.5 
C 1.193414 4.5 2.338109 4.025852 3.181981 3.181981 
C 4.025852 2.338109 4.5 1.193414 4.5 0 
C 4.5 -1.193414 4.025852 -2.338109 3.181981 -3.181981 
C 2.338109 -4.025852 1.193414 -4.5 0 -4.5 
C -1.193414 -4.5 -2.338109 -4.025852 -3.181981 -3.181981 
C -4.025852 -2.338109 -4.5 -1.193414 -4.5 0 
C -4.5 1.193414 -4.025852 2.338109 -3.181981 3.181981 
C -2.338109 4.025852 -1.193414 4.5 0 4.5 
z
" id="mdadd12bdef" style="stroke:#ff7f0e;"/>
    </defs>
    <g clip-path="url(#p4957cf378a)">
     <use style="fill:#ff7f0e;stroke:#ff7f0e;" x="165.775507" xlink:href="#mdadd12bdef" y="441.132208"/>
     <use style="fill:#ff7f0e;stroke:#ff7f0e;" x="238.12222" xlink:href="#mdadd12bdef" y="498.128312"/>
     <use style="fill:#ff7f0e;stroke:#ff7f0e;" x="310.468934" xlink:href="#mdadd12bdef" y="495.595152"/>
     <use style="fill:#ff7f0e;stroke:#ff7f0e;" x="382.815648" xlink:href="#mdadd12bdef" y="488.945606"/>
     <use style="fill:#ff7f0e;stroke:#ff7f0e;" x="455.162361" xlink:href="#mdadd12bdef" y="485.191101"/>
     <use style="fill:#ff7f0e;stroke:#ff7f0e;" x="527.509075" xlink:href="#mdadd12bdef" y="481.466752"/>
     <use style="fill:#ff7f0e;stroke:#ff7f0e;" x="599.855789" xlink:href="#mdadd12bdef" y="482.296061"/>
     <use style="fill:#ff7f0e;stroke:#ff7f0e;" x="672.202502" xlink:href="#mdadd12bdef" y="495.595152"/>
     <use style="fill:#ff7f0e;stroke:#ff7f0e;" x="744.549216" xlink:href="#mdadd12bdef" y="507.416566"/>
     <use style="fill:#ff7f0e;stroke:#ff7f0e;" x="816.89593" xlink:href="#mdadd12bdef" y="435.432597"/>
     <use style="fill:#ff7f0e;stroke:#ff7f0e;" x="889.242643" xlink:href="#mdadd12bdef" y="61.158182"/>
    </g>
   </g>
   <g id="line2d_17">
    <path clip-path="url(#p4957cf378a)" d="M 889.242643 298.641948 
L 165.775507 453.798009 
" style="fill:none;stroke:#000000;stroke-dasharray:4,6.6;stroke-dashoffset:0;stroke-width:4;"/>
   </g>
   <g id="line2d_18">
    <path clip-path="url(#p4957cf378a)" d="M 816.89593 593.121818 
L 889.242643 298.641948 
" style="fill:none;stroke:#000000;stroke-dasharray:4,6.6;stroke-dashoffset:0;stroke-width:4;"/>
   </g>
   <g id="line2d_19">
    <path clip-path="url(#p4957cf378a)" d="M 238.12222 522.193333 
L 165.775507 453.798009 
" style="fill:none;stroke:#000000;stroke-dasharray:4,6.6;stroke-dashoffset:0;stroke-width:4;"/>
   </g>
   <g id="line2d_20">
    <path clip-path="url(#p4957cf378a)" d="M 238.12222 522.193333 
L 816.89593 593.121818 
" style="fill:none;stroke:#000000;stroke-dasharray:4,6.6;stroke-dashoffset:0;stroke-width:4;"/>
   </g>
   <g id="line2d_21">
    <path clip-path="url(#p4957cf378a)" d="M 889.242643 61.158182 
L 165.775507 441.132208 
" style="fill:none;stroke:#000000;stroke-dasharray:4,6.6;stroke-dashoffset:0;stroke-width:4;"/>
   </g>
   <g id="line2d_22">
    <path clip-path="url(#p4957cf378a)" d="M 238.12222 498.128312 
L 165.775507 441.132208 
" style="fill:none;stroke:#000000;stroke-dasharray:4,6.6;stroke-dashoffset:0;stroke-width:4;"/>
   </g>
   <g id="line2d_23">
    <path clip-path="url(#p4957cf378a)" d="M 238.12222 498.128312 
L 744.549216 507.416566 
" style="fill:none;stroke:#000000;stroke-dasharray:4,6.6;stroke-dashoffset:0;stroke-width:4;"/>
   </g>
   <g id="line2d_24">
    <path clip-path="url(#p4957cf378a)" d="M 816.89593 435.432597 
L 889.242643 61.158182 
" style="fill:none;stroke:#000000;stroke-dasharray:4,6.6;stroke-dashoffset:0;stroke-width:4;"/>
   </g>
   <g id="line2d_25">
    <path clip-path="url(#p4957cf378a)" d="M 816.89593 435.432597 
L 744.549216 507.416566 
" style="fill:none;stroke:#000000;stroke-dasharray:4,6.6;stroke-dashoffset:0;stroke-width:4;"/>
   </g>
   <g id="patch_3">
    <path d="M 129.60215 619.72 
L 129.60215 34.56 
" style="fill:none;stroke:#000000;stroke-linecap:square;stroke-linejoin:miter;stroke-width:0.8;"/>
   </g>
   <g id="patch_4">
    <path d="M 925.416 619.72 
L 925.416 34.56 
" style="fill:none;stroke:#000000;stroke-linecap:square;stroke-linejoin:miter;stroke-width:0.8;"/>
   </g>
   <g id="patch_5">
    <path d="M 129.60215 619.72 
L 925.416 619.72 
" style="fill:none;stroke:#000000;stroke-linecap:square;stroke-linejoin:miter;stroke-width:0.8;"/>
   </g>
   <g id="patch_6">
    <path d="M 129.60215 34.56 
L 925.416 34.56 
" style="fill:none;stroke:#000000;stroke-linecap:square;stroke-linejoin:miter;stroke-width:0.8;"/>
   </g>
   <g id="legend_1">
    <g id="patch_7">
     <path d="M 146.40215 140.64 
L 337.68215 140.64 
Q 342.48215 140.64 342.48215 135.84 
L 342.48215 51.36 
Q 342.48215 46.56 337.68215 46.56 
L 146.40215 46.56 
Q 141.60215 46.56 141.60215 51.36 
L 141.60215 135.84 
Q 141.60215 140.64 146.40215 140.64 
z
" style="fill:#ffffff;opacity:0.8;stroke:#cccccc;stroke-linejoin:miter;"/>
    </g>
    <g id="line2d_26">
     <path d="M 151.20215 73.44 
L 199.20215 73.44 
" style="fill:none;stroke:#1f77b4;stroke-linecap:square;stroke-width:4;"/>
    </g>
    <g id="line2d_27"/>
    <g id="text_15">
     <!-- $||\ddot \mathbf{C}^{[3]}(t)||^2$ -->
     <g transform="translate(218.40215 81.84)scale(0.24 -0.24)">
      <defs>
       <path d="M 1344 4891 
L 1344 -1509 
L 813 -1509 
L 813 4891 
L 1344 4891 
z
" id="DejaVuSans-7c" transform="scale(0.015625)"/>
       <path d="M -1306 4850 
L -672 4850 
L -672 4219 
L -1306 4219 
L -1306 4850 
z
M -2528 4850 
L -1894 4850 
L -1894 4219 
L -2528 4219 
L -2528 4850 
z
M -1600 3584 
L -1600 3584 
z
" id="DejaVuSans-308" transform="scale(0.015625)"/>
       <path d="M 4288 256 
Q 3956 84 3597 -3 
Q 3238 -91 2847 -91 
Q 1681 -91 1000 561 
Q 319 1213 319 2328 
Q 319 3447 1000 4098 
Q 1681 4750 2847 4750 
Q 3238 4750 3597 4662 
Q 3956 4575 4288 4403 
L 4288 3438 
Q 3953 3666 3628 3772 
Q 3303 3878 2944 3878 
Q 2300 3878 1931 3465 
Q 1563 3053 1563 2328 
Q 1563 1606 1931 1193 
Q 2300 781 2944 781 
Q 3303 781 3628 887 
Q 3953 994 4288 1222 
L 4288 256 
z
" id="DejaVuSans-Bold-43" transform="scale(0.015625)"/>
       <path d="M 550 4863 
L 1875 4863 
L 1875 4416 
L 1125 4416 
L 1125 -397 
L 1875 -397 
L 1875 -844 
L 550 -844 
L 550 4863 
z
" id="DejaVuSans-5b" transform="scale(0.015625)"/>
       <path d="M 2597 2516 
Q 3050 2419 3304 2112 
Q 3559 1806 3559 1356 
Q 3559 666 3084 287 
Q 2609 -91 1734 -91 
Q 1441 -91 1130 -33 
Q 819 25 488 141 
L 488 750 
Q 750 597 1062 519 
Q 1375 441 1716 441 
Q 2309 441 2620 675 
Q 2931 909 2931 1356 
Q 2931 1769 2642 2001 
Q 2353 2234 1838 2234 
L 1294 2234 
L 1294 2753 
L 1863 2753 
Q 2328 2753 2575 2939 
Q 2822 3125 2822 3475 
Q 2822 3834 2567 4026 
Q 2313 4219 1838 4219 
Q 1578 4219 1281 4162 
Q 984 4106 628 3988 
L 628 4550 
Q 988 4650 1302 4700 
Q 1616 4750 1894 4750 
Q 2613 4750 3031 4423 
Q 3450 4097 3450 3541 
Q 3450 3153 3228 2886 
Q 3006 2619 2597 2516 
z
" id="DejaVuSans-33" transform="scale(0.015625)"/>
       <path d="M 1947 4863 
L 1947 -844 
L 622 -844 
L 622 -397 
L 1369 -397 
L 1369 4416 
L 622 4416 
L 622 4863 
L 1947 4863 
z
" id="DejaVuSans-5d" transform="scale(0.015625)"/>
       <path d="M 2706 3500 
L 2619 3053 
L 1472 3053 
L 1100 1153 
Q 1081 1047 1072 975 
Q 1063 903 1063 863 
Q 1063 663 1183 572 
Q 1303 481 1569 481 
L 2150 481 
L 2053 0 
L 1503 0 
Q 991 0 739 200 
Q 488 400 488 806 
Q 488 878 497 964 
Q 506 1050 525 1153 
L 897 3053 
L 409 3053 
L 500 3500 
L 978 3500 
L 1172 4494 
L 1747 4494 
L 1556 3500 
L 2706 3500 
z
" id="DejaVuSans-Oblique-74" transform="scale(0.015625)"/>
      </defs>
      <use transform="translate(0 0.5)" xlink:href="#DejaVuSans-7c"/>
      <use transform="translate(33.691406 0.5)" xlink:href="#DejaVuSans-7c"/>
      <use transform="translate(138.22998 31.21875)" xlink:href="#DejaVuSans-308"/>
      <use transform="translate(67.382812 0.5)" xlink:href="#DejaVuSans-Bold-43"/>
      <use transform="translate(141.728516 38.78125)scale(0.7)" xlink:href="#DejaVuSans-5b"/>
      <use transform="translate(169.038086 38.78125)scale(0.7)" xlink:href="#DejaVuSans-33"/>
      <use transform="translate(213.574219 38.78125)scale(0.7)" xlink:href="#DejaVuSans-5d"/>
      <use transform="translate(243.618164 0.5)" xlink:href="#DejaVuSans-28"/>
      <use transform="translate(282.631836 0.5)" xlink:href="#DejaVuSans-Oblique-74"/>
      <use transform="translate(321.84082 0.5)" xlink:href="#DejaVuSans-29"/>
      <use transform="translate(360.854492 0.5)" xlink:href="#DejaVuSans-7c"/>
      <use transform="translate(394.545898 0.5)" xlink:href="#DejaVuSans-7c"/>
      <use transform="translate(429.194336 38.78125)scale(0.7)" xlink:href="#DejaVuSans-32"/>
     </g>
    </g>
    <g id="line2d_28">
     <path d="M 151.20215 116.88 
L 199.20215 116.88 
" style="fill:none;stroke:#ff7f0e;stroke-linecap:square;stroke-width:4;"/>
    </g>
    <g id="line2d_29"/>
    <g id="text_16">
     <!-- $||\ddot \mathbf{C}^{[4]}(t)||^2$ -->
     <g transform="translate(218.40215 125.28)scale(0.24 -0.24)">
      <use transform="translate(0 0.5)" xlink:href="#DejaVuSans-7c"/>
      <use transform="translate(33.691406 0.5)" xlink:href="#DejaVuSans-7c"/>
      <use transform="translate(138.22998 31.21875)" xlink:href="#DejaVuSans-308"/>
      <use transform="translate(67.382812 0.5)" xlink:href="#DejaVuSans-Bold-43"/>
      <use transform="translate(141.728516 38.78125)scale(0.7)" xlink:href="#DejaVuSans-5b"/>
      <use transform="translate(169.038086 38.78125)scale(0.7)" xlink:href="#DejaVuSans-34"/>
      <use transform="translate(213.574219 38.78125)scale(0.7)" xlink:href="#DejaVuSans-5d"/>
      <use transform="translate(243.618164 0.5)" xlink:href="#DejaVuSans-28"/>
      <use transform="translate(282.631836 0.5)" xlink:href="#DejaVuSans-Oblique-74"/>
      <use transform="translate(321.84082 0.5)" xlink:href="#DejaVuSans-29"/>
      <use transform="translate(360.854492 0.5)" xlink:href="#DejaVuSans-7c"/>
      <use transform="translate(394.545898 0.5)" xlink:href="#DejaVuSans-7c"/>
      <use transform="translate(429.194336 38.78125)scale(0.7)" xlink:href="#DejaVuSans-32"/>
     </g>
    </g>
   </g>
  </g>
 </g>
 <defs>
  <clipPath id="p4957cf378a">
   <rect height="585.16" width="795.81385" x="129.60215" y="34.56"/>
  </clipPath>
 </defs>
</svg>
