<?xml version="1.0" encoding="utf-8" standalone="no"?>
<!DOCTYPE svg PUBLIC "-//W3C//DTD SVG 1.1//EN"
  "http://www.w3.org/Graphics/SVG/1.1/DTD/svg11.dtd">
<!-- Created with matplotlib (https://matplotlib.org/) -->
<svg height="681.12pt" version="1.1" viewBox="0 0 994.32 681.12" width="994.32pt" xmlns="http://www.w3.org/2000/svg" xmlns:xlink="http://www.w3.org/1999/xlink">
 <defs>
  <style type="text/css">
*{stroke-linecap:butt;stroke-linejoin:round;}
  </style>
 </defs>
 <g id="figure_1">
  <g id="patch_1">
   <path d="M 0 681.12 
L 994.32 681.12 
L 994.32 0 
L 0 0 
z
" style="fill:#ffffff;"/>
  </g>
  <g id="patch_2">
   <path d="M 32.196006 638.726639 
L 962.123994 638.726639 
L 962.123994 42.393361 
L 32.196006 42.393361 
z
" style="fill:#ffffff;"/>
  </g>
  <g id="pane3d_1">
   <g id="patch_3">
    <path d="M 218.626287 361.137835 
L 696.987834 316.293823 
L 710.437188 75.687334 
L 197.394618 120.068183 
" style="fill:#f2f2f2;opacity:0.5;stroke:#f2f2f2;stroke-linejoin:miter;"/>
   </g>
  </g>
  <g id="pane3d_2">
   <g id="patch_4">
    <path d="M 696.987834 316.293823 
L 817.554019 541.87092 
L 841.395728 299.874175 
L 710.437188 75.687334 
" style="fill:#e6e6e6;opacity:0.5;stroke:#e6e6e6;stroke-linejoin:miter;"/>
   </g>
  </g>
  <g id="pane3d_3">
   <g id="patch_5">
    <path d="M 218.626287 361.137835 
L 305.720617 593.532074 
L 817.554019 541.87092 
L 696.987834 316.293823 
" style="fill:#ececec;opacity:0.5;stroke:#ececec;stroke-linejoin:miter;"/>
   </g>
  </g>
  <g id="axis3d_1">
   <g id="line2d_1">
    <path d="M 218.626287 361.137835 
L 305.720617 593.532074 
" style="fill:none;stroke:#000000;stroke-linecap:square;stroke-width:0.8;"/>
   </g>
   <g id="Line3DCollection_1">
    <path d="M 220.573264 366.332963 
L 699.685843 321.341749 
L 713.352784 80.678517 
" style="fill:none;stroke:#b0b0b0;stroke-width:0.8;"/>
    <path d="M 236.936466 409.994977 
L 722.356014 363.757218 
L 737.878195 122.663366 
" style="fill:none;stroke:#b0b0b0;stroke-width:0.8;"/>
    <path d="M 253.759593 454.884211 
L 745.65403 407.347373 
L 763.133153 165.89712 
" style="fill:none;stroke:#b0b0b0;stroke-width:0.8;"/>
    <path d="M 271.062312 501.053144 
L 769.606339 452.161699 
L 789.150703 210.436348 
" style="fill:none;stroke:#b0b0b0;stroke-width:0.8;"/>
    <path d="M 288.865428 548.557288 
L 794.240896 498.252499 
L 815.965913 256.341084 
" style="fill:none;stroke:#b0b0b0;stroke-width:0.8;"/>
   </g>
   <g id="xtick_1">
    <g id="line2d_2">
     <path d="M 224.461244 365.967861 
L 212.7946 367.063421 
" style="fill:none;stroke:#000000;stroke-linecap:square;stroke-width:0.8;"/>
    </g>
    <g id="text_1">
     <!-- 0 -->
     <defs>
      <path d="M 31.78125 66.40625 
Q 24.171875 66.40625 20.328125 58.90625 
Q 16.5 51.421875 16.5 36.375 
Q 16.5 21.390625 20.328125 13.890625 
Q 24.171875 6.390625 31.78125 6.390625 
Q 39.453125 6.390625 43.28125 13.890625 
Q 47.125 21.390625 47.125 36.375 
Q 47.125 51.421875 43.28125 58.90625 
Q 39.453125 66.40625 31.78125 66.40625 
z
M 31.78125 74.21875 
Q 44.046875 74.21875 50.515625 64.515625 
Q 56.984375 54.828125 56.984375 36.375 
Q 56.984375 17.96875 50.515625 8.265625 
Q 44.046875 -1.421875 31.78125 -1.421875 
Q 19.53125 -1.421875 13.0625 8.265625 
Q 6.59375 17.96875 6.59375 36.375 
Q 6.59375 54.828125 13.0625 64.515625 
Q 19.53125 74.21875 31.78125 74.21875 
z
" id="DejaVuSans-48"/>
     </defs>
     <g transform="translate(194.375603 404.536546)scale(0.4 -0.4)">
      <use xlink:href="#DejaVuSans-48"/>
     </g>
    </g>
   </g>
   <g id="xtick_2">
    <g id="line2d_3">
     <path d="M 240.8764 409.619686 
L 229.05382 410.745824 
" style="fill:none;stroke:#000000;stroke-linecap:square;stroke-width:0.8;"/>
    </g>
    <g id="text_2">
     <!-- 5 -->
     <defs>
      <path d="M 10.796875 72.90625 
L 49.515625 72.90625 
L 49.515625 64.59375 
L 19.828125 64.59375 
L 19.828125 46.734375 
Q 21.96875 47.46875 24.109375 47.828125 
Q 26.265625 48.1875 28.421875 48.1875 
Q 40.625 48.1875 47.75 41.5 
Q 54.890625 34.8125 54.890625 23.390625 
Q 54.890625 11.625 47.5625 5.09375 
Q 40.234375 -1.421875 26.90625 -1.421875 
Q 22.3125 -1.421875 17.546875 -0.640625 
Q 12.796875 0.140625 7.71875 1.703125 
L 7.71875 11.625 
Q 12.109375 9.234375 16.796875 8.0625 
Q 21.484375 6.890625 26.703125 6.890625 
Q 35.15625 6.890625 40.078125 11.328125 
Q 45.015625 15.765625 45.015625 23.390625 
Q 45.015625 31 40.078125 35.4375 
Q 35.15625 39.890625 26.703125 39.890625 
Q 22.75 39.890625 18.8125 39.015625 
Q 14.890625 38.140625 10.796875 36.28125 
z
" id="DejaVuSans-53"/>
     </defs>
     <g transform="translate(210.526693 448.238079)scale(0.4 -0.4)">
      <use xlink:href="#DejaVuSans-53"/>
     </g>
    </g>
   </g>
   <g id="xtick_3">
    <g id="line2d_4">
     <path d="M 257.752886 454.498298 
L 245.77015 455.656314 
" style="fill:none;stroke:#000000;stroke-linecap:square;stroke-width:0.8;"/>
    </g>
    <g id="text_3">
     <!-- 10 -->
     <defs>
      <path d="M 12.40625 8.296875 
L 28.515625 8.296875 
L 28.515625 63.921875 
L 10.984375 60.40625 
L 10.984375 69.390625 
L 28.421875 72.90625 
L 38.28125 72.90625 
L 38.28125 8.296875 
L 54.390625 8.296875 
L 54.390625 0 
L 12.40625 0 
z
" id="DejaVuSans-49"/>
     </defs>
     <g transform="translate(214.406023 493.165988)scale(0.4 -0.4)">
      <use xlink:href="#DejaVuSans-49"/>
      <use x="63.623047" xlink:href="#DejaVuSans-48"/>
     </g>
    </g>
   </g>
   <g id="xtick_4">
    <g id="line2d_5">
     <path d="M 275.110428 500.656151 
L 262.963144 501.847417 
" style="fill:none;stroke:#000000;stroke-linecap:square;stroke-width:0.8;"/>
    </g>
    <g id="text_4">
     <!-- 15 -->
     <g transform="translate(231.482944 539.372629)scale(0.4 -0.4)">
      <use xlink:href="#DejaVuSans-49"/>
      <use x="63.623047" xlink:href="#DejaVuSans-53"/>
     </g>
    </g>
   </g>
   <g id="xtick_5">
    <g id="line2d_6">
     <path d="M 292.96989 548.148733 
L 280.653484 549.374701 
" style="fill:none;stroke:#000000;stroke-linecap:square;stroke-width:0.8;"/>
    </g>
    <g id="text_5">
     <!-- 20 -->
     <defs>
      <path d="M 19.1875 8.296875 
L 53.609375 8.296875 
L 53.609375 0 
L 7.328125 0 
L 7.328125 8.296875 
Q 12.9375 14.109375 22.625 23.890625 
Q 32.328125 33.6875 34.8125 36.53125 
Q 39.546875 41.84375 41.421875 45.53125 
Q 43.3125 49.21875 43.3125 52.78125 
Q 43.3125 58.59375 39.234375 62.25 
Q 35.15625 65.921875 28.609375 65.921875 
Q 23.96875 65.921875 18.8125 64.3125 
Q 13.671875 62.703125 7.8125 59.421875 
L 7.8125 69.390625 
Q 13.765625 71.78125 18.9375 73 
Q 24.125 74.21875 28.421875 74.21875 
Q 39.75 74.21875 46.484375 68.546875 
Q 53.21875 62.890625 53.21875 53.421875 
Q 53.21875 48.921875 51.53125 44.890625 
Q 49.859375 40.875 45.40625 35.40625 
Q 44.1875 33.984375 37.640625 27.21875 
Q 31.109375 20.453125 19.1875 8.296875 
z
" id="DejaVuSans-50"/>
     </defs>
     <g transform="translate(249.052923 586.913385)scale(0.4 -0.4)">
      <use xlink:href="#DejaVuSans-50"/>
      <use x="63.623047" xlink:href="#DejaVuSans-48"/>
     </g>
    </g>
   </g>
  </g>
  <g id="axis3d_2">
   <g id="line2d_7">
    <path d="M 817.554019 541.87092 
L 305.720617 593.532074 
" style="fill:none;stroke:#000000;stroke-linecap:square;stroke-width:0.8;"/>
   </g>
   <g id="Line3DCollection_2">
    <path d="M 210.77477 118.910731 
L 231.089336 359.969486 
L 319.06941 592.184733 
" style="fill:none;stroke:#b0b0b0;stroke-width:0.8;"/>
    <path d="M 309.252836 110.391866 
L 322.838291 351.368479 
L 417.316383 582.268319 
" style="fill:none;stroke:#b0b0b0;stroke-width:0.8;"/>
    <path d="M 407.154636 101.922851 
L 414.086641 342.8144 
L 514.987935 572.409984 
" style="fill:none;stroke:#b0b0b0;stroke-width:0.8;"/>
    <path d="M 504.485211 93.503251 
L 504.83847 334.306869 
L 612.089106 562.60922 
" style="fill:none;stroke:#b0b0b0;stroke-width:0.8;"/>
    <path d="M 601.249548 85.132632 
L 595.097821 325.845504 
L 708.624879 552.865523 
" style="fill:none;stroke:#b0b0b0;stroke-width:0.8;"/>
    <path d="M 697.452573 76.810571 
L 684.868691 317.429932 
L 804.600177 543.178397 
" style="fill:none;stroke:#b0b0b0;stroke-width:0.8;"/>
   </g>
   <g id="xtick_6">
    <g id="line2d_8">
     <path d="M 318.314032 590.190983 
L 320.582847 596.17931 
" style="fill:none;stroke:#000000;stroke-linecap:square;stroke-width:0.8;"/>
    </g>
    <g id="text_6">
     <!-- 0 -->
     <g transform="translate(309.480603 636.284412)scale(0.4 -0.4)">
      <use xlink:href="#DejaVuSans-48"/>
     </g>
    </g>
   </g>
   <g id="xtick_7">
    <g id="line2d_9">
     <path d="M 416.505377 580.28626 
L 418.941265 586.239452 
" style="fill:none;stroke:#000000;stroke-linecap:square;stroke-width:0.8;"/>
    </g>
    <g id="text_7">
     <!-- 5 -->
     <g transform="translate(407.720875 626.327489)scale(0.4 -0.4)">
      <use xlink:href="#DejaVuSans-53"/>
     </g>
    </g>
   </g>
   <g id="xtick_8">
    <g id="line2d_10">
     <path d="M 514.121964 570.439513 
L 516.722932 576.357879 
" style="fill:none;stroke:#000000;stroke-linecap:square;stroke-width:0.8;"/>
    </g>
    <g id="text_8">
     <!-- 10 -->
     <g transform="translate(492.660751 616.428883)scale(0.4 -0.4)">
      <use xlink:href="#DejaVuSans-49"/>
      <use x="63.623047" xlink:href="#DejaVuSans-48"/>
     </g>
    </g>
   </g>
   <g id="xtick_9">
    <g id="line2d_11">
     <path d="M 611.168826 560.650236 
L 613.932906 566.53408 
" style="fill:none;stroke:#000000;stroke-linecap:square;stroke-width:0.8;"/>
    </g>
    <g id="text_9">
     <!-- 15 -->
     <g transform="translate(589.755271 606.588085)scale(0.4 -0.4)">
      <use xlink:href="#DejaVuSans-49"/>
      <use x="63.623047" xlink:href="#DejaVuSans-53"/>
     </g>
    </g>
   </g>
   <g id="xtick_10">
    <g id="line2d_12">
     <path d="M 707.650934 550.917926 
L 710.576185 556.767549 
" style="fill:none;stroke:#000000;stroke-linecap:square;stroke-width:0.8;"/>
    </g>
    <g id="text_10">
     <!-- 20 -->
     <g transform="translate(686.284416 596.804589)scale(0.4 -0.4)">
      <use xlink:href="#DejaVuSans-50"/>
      <use x="63.623047" xlink:href="#DejaVuSans-48"/>
     </g>
    </g>
   </g>
   <g id="xtick_11">
    <g id="line2d_13">
     <path d="M 803.573206 541.242088 
L 806.657712 547.057788 
" style="fill:none;stroke:#000000;stroke-linecap:square;stroke-width:0.8;"/>
    </g>
    <g id="text_11">
     <!-- 25 -->
     <g transform="translate(782.253111 587.077896)scale(0.4 -0.4)">
      <use xlink:href="#DejaVuSans-50"/>
      <use x="63.623047" xlink:href="#DejaVuSans-53"/>
     </g>
    </g>
   </g>
  </g>
  <g id="axis3d_3">
   <g id="line2d_14">
    <path d="M 817.554019 541.87092 
L 841.395728 299.874175 
" style="fill:none;stroke:#000000;stroke-linecap:square;stroke-width:0.8;"/>
   </g>
   <g id="Line3DCollection_3">
    <path d="M 817.997213 537.372432 
L 697.239133 311.798123 
L 218.229981 356.638072 
" style="fill:none;stroke:#b0b0b0;stroke-width:0.8;"/>
    <path d="M 822.317723 493.518638 
L 699.686373 268.017459 
L 214.369808 312.808713 
" style="fill:none;stroke:#b0b0b0;stroke-width:0.8;"/>
    <path d="M 826.761062 448.418121 
L 702.198335 223.078914 
L 210.406026 267.802946 
" style="fill:none;stroke:#b0b0b0;stroke-width:0.8;"/>
    <path d="M 831.332542 402.01695 
L 704.777622 176.935939 
L 206.334406 221.572763 
" style="fill:none;stroke:#b0b0b0;stroke-width:0.8;"/>
    <path d="M 836.037787 354.258037 
L 707.426978 129.539455 
L 202.150487 174.067509 
" style="fill:none;stroke:#b0b0b0;stroke-width:0.8;"/>
    <path d="M 840.882757 305.080905 
L 710.149296 80.837679 
L 197.849559 125.233694 
" style="fill:none;stroke:#b0b0b0;stroke-width:0.8;"/>
   </g>
   <g id="xtick_12">
    <g id="line2d_15">
     <path d="M 816.961364 535.43748 
L 820.072539 541.24911 
" style="fill:none;stroke:#000000;stroke-linecap:square;stroke-width:0.8;"/>
    </g>
    <g id="text_12">
     <!-- 0 -->
     <g transform="translate(823.654741 573.305588)scale(0.4 -0.4)">
      <use xlink:href="#DejaVuSans-48"/>
     </g>
    </g>
   </g>
   <g id="xtick_13">
    <g id="line2d_16">
     <path d="M 821.264813 491.582488 
L 824.427284 497.397812 
" style="fill:none;stroke:#000000;stroke-linecap:square;stroke-width:0.8;"/>
    </g>
    <g id="text_13">
     <!-- 20 -->
     <g transform="translate(815.51563 529.455398)scale(0.4 -0.4)">
      <use xlink:href="#DejaVuSans-50"/>
      <use x="63.623047" xlink:href="#DejaVuSans-48"/>
     </g>
    </g>
   </g>
   <g id="xtick_14">
    <g id="line2d_17">
     <path d="M 825.690531 446.481486 
L 828.905978 452.298365 
" style="fill:none;stroke:#000000;stroke-linecap:square;stroke-width:0.8;"/>
    </g>
    <g id="text_14">
     <!-- 40 -->
     <defs>
      <path d="M 37.796875 64.3125 
L 12.890625 25.390625 
L 37.796875 25.390625 
z
M 35.203125 72.90625 
L 47.609375 72.90625 
L 47.609375 25.390625 
L 58.015625 25.390625 
L 58.015625 17.1875 
L 47.609375 17.1875 
L 47.609375 0 
L 37.796875 0 
L 37.796875 17.1875 
L 4.890625 17.1875 
L 4.890625 26.703125 
z
" id="DejaVuSans-52"/>
     </defs>
     <g transform="translate(820.232116 484.35645)scale(0.4 -0.4)">
      <use xlink:href="#DejaVuSans-52"/>
      <use x="63.623047" xlink:href="#DejaVuSans-48"/>
     </g>
    </g>
   </g>
   <g id="xtick_15">
    <g id="line2d_18">
     <path d="M 830.243806 400.080606 
L 833.513991 405.896711 
" style="fill:none;stroke:#000000;stroke-linecap:square;stroke-width:0.8;"/>
    </g>
    <g id="text_15">
     <!-- 60 -->
     <defs>
      <path d="M 33.015625 40.375 
Q 26.375 40.375 22.484375 35.828125 
Q 18.609375 31.296875 18.609375 23.390625 
Q 18.609375 15.53125 22.484375 10.953125 
Q 26.375 6.390625 33.015625 6.390625 
Q 39.65625 6.390625 43.53125 10.953125 
Q 47.40625 15.53125 47.40625 23.390625 
Q 47.40625 31.296875 43.53125 35.828125 
Q 39.65625 40.375 33.015625 40.375 
z
M 52.59375 71.296875 
L 52.59375 62.3125 
Q 48.875 64.0625 45.09375 64.984375 
Q 41.3125 65.921875 37.59375 65.921875 
Q 27.828125 65.921875 22.671875 59.328125 
Q 17.53125 52.734375 16.796875 39.40625 
Q 19.671875 43.65625 24.015625 45.921875 
Q 28.375 48.1875 33.59375 48.1875 
Q 44.578125 48.1875 50.953125 41.515625 
Q 57.328125 34.859375 57.328125 23.390625 
Q 57.328125 12.15625 50.6875 5.359375 
Q 44.046875 -1.421875 33.015625 -1.421875 
Q 20.359375 -1.421875 13.671875 8.265625 
Q 6.984375 17.96875 6.984375 36.375 
Q 6.984375 53.65625 15.1875 63.9375 
Q 23.390625 74.21875 37.203125 74.21875 
Q 40.921875 74.21875 44.703125 73.484375 
Q 48.484375 72.75 52.59375 71.296875 
z
" id="DejaVuSans-54"/>
     </defs>
     <g transform="translate(825.084857 437.95463)scale(0.4 -0.4)">
      <use xlink:href="#DejaVuSans-54"/>
      <use x="63.623047" xlink:href="#DejaVuSans-48"/>
     </g>
    </g>
   </g>
   <g id="xtick_16">
    <g id="line2d_19">
     <path d="M 834.930231 352.322831 
L 838.257005 358.135623 
" style="fill:none;stroke:#000000;stroke-linecap:square;stroke-width:0.8;"/>
    </g>
    <g id="text_16">
     <!-- 80 -->
     <defs>
      <path d="M 31.78125 34.625 
Q 24.75 34.625 20.71875 30.859375 
Q 16.703125 27.09375 16.703125 20.515625 
Q 16.703125 13.921875 20.71875 10.15625 
Q 24.75 6.390625 31.78125 6.390625 
Q 38.8125 6.390625 42.859375 10.171875 
Q 46.921875 13.96875 46.921875 20.515625 
Q 46.921875 27.09375 42.890625 30.859375 
Q 38.875 34.625 31.78125 34.625 
z
M 21.921875 38.8125 
Q 15.578125 40.375 12.03125 44.71875 
Q 8.5 49.078125 8.5 55.328125 
Q 8.5 64.0625 14.71875 69.140625 
Q 20.953125 74.21875 31.78125 74.21875 
Q 42.671875 74.21875 48.875 69.140625 
Q 55.078125 64.0625 55.078125 55.328125 
Q 55.078125 49.078125 51.53125 44.71875 
Q 48 40.375 41.703125 38.8125 
Q 48.828125 37.15625 52.796875 32.3125 
Q 56.78125 27.484375 56.78125 20.515625 
Q 56.78125 9.90625 50.3125 4.234375 
Q 43.84375 -1.421875 31.78125 -1.421875 
Q 19.734375 -1.421875 13.25 4.234375 
Q 6.78125 9.90625 6.78125 20.515625 
Q 6.78125 27.484375 10.78125 32.3125 
Q 14.796875 37.15625 21.921875 38.8125 
z
M 18.3125 54.390625 
Q 18.3125 48.734375 21.84375 45.5625 
Q 25.390625 42.390625 31.78125 42.390625 
Q 38.140625 42.390625 41.71875 45.5625 
Q 45.3125 48.734375 45.3125 54.390625 
Q 45.3125 60.0625 41.71875 63.234375 
Q 38.140625 66.40625 31.78125 66.40625 
Q 25.390625 66.40625 21.84375 63.234375 
Q 18.3125 60.0625 18.3125 54.390625 
z
" id="DejaVuSans-56"/>
     </defs>
     <g transform="translate(830.079845 390.192652)scale(0.4 -0.4)">
      <use xlink:href="#DejaVuSans-56"/>
      <use x="63.623047" xlink:href="#DejaVuSans-48"/>
     </g>
    </g>
   </g>
   <g id="xtick_17">
    <g id="line2d_20">
     <path d="M 839.755735 303.147756 
L 843.141042 308.954473 
" style="fill:none;stroke:#000000;stroke-linecap:square;stroke-width:0.8;"/>
    </g>
    <g id="text_17">
     <!-- 100 -->
     <g transform="translate(822.498426 341.009822)scale(0.4 -0.4)">
      <use xlink:href="#DejaVuSans-49"/>
      <use x="63.623047" xlink:href="#DejaVuSans-48"/>
      <use x="127.246094" xlink:href="#DejaVuSans-48"/>
     </g>
    </g>
   </g>
  </g>
  <g id="axes_1">
   <g id="line2d_21">
    <path clip-path="url(#p8a24fd0cb4)" d="M 305.23748 398.96025 
L 317.295764 387.210042 
L 328.818391 375.670203 
L 339.814729 364.344506 
L 350.294762 353.236387 
L 360.461568 342.135559 
L 370.121626 331.258647 
L 379.286505 320.608278 
L 388.142301 309.974254 
L 396.515106 299.571878 
L 404.417847 289.40298 
L 412.019083 279.257992 
L 419.164731 269.350366 
L 425.868842 259.681167 
L 432.282039 250.041963 
L 438.27009 240.64389 
L 443.97148 231.279582 
L 449.265197 222.158444 
L 454.277456 213.074375 
L 458.900479 204.234865 
L 463.150157 195.63944 
L 466.581418 188.303823 
L 466.581418 188.303823 
" style="fill:none;stroke:#1f77b4;stroke-linecap:square;stroke-width:4;"/>
   </g>
   <g id="line2d_22">
    <path clip-path="url(#p8a24fd0cb4)" d="M 474.7857 346.83129 
L 474.811125 332.776849 
L 475.059528 318.425944 
L 475.536709 303.770211 
L 476.248688 288.800963 
L 477.190645 273.668501 
L 478.375015 258.21103 
L 479.808349 242.419107 
L 481.497457 226.282918 
L 483.449425 209.792254 
L 485.647057 193.113999 
L 486.576173 186.519225 
L 486.576173 186.519225 
" style="fill:none;stroke:#ff7f0e;stroke-linecap:square;stroke-width:4;"/>
   </g>
   <g id="line2d_23">
    <path clip-path="url(#p8a24fd0cb4)" d="M 364.978986 357.157137 
L 387.653085 330.963423 
L 408.742473 306.263997 
L 428.103505 283.249882 
L 445.777211 261.901928 
L 461.95094 242.02194 
L 476.538113 223.747242 
L 489.729449 206.872712 
L 501.580922 191.358491 
L 506.546933 184.736768 
L 506.546933 184.736768 
" style="fill:none;stroke:#2ca02c;stroke-linecap:square;stroke-width:4;"/>
   </g>
   <g id="line2d_24">
    <path clip-path="url(#p8a24fd0cb4)" d="M 609.447239 388.263625 
L 548.866194 238.890125 
L 528.626798 188.506725 
L 526.493742 182.95645 
L 526.493742 182.95645 
" style="fill:none;stroke:#d62728;stroke-linecap:square;stroke-width:4;"/>
   </g>
   <g id="line2d_25">
    <path clip-path="url(#p8a24fd0cb4)" d="M 424.343789 405.97208 
L 442.148491 375.291219 
L 458.805235 346.148353 
L 474.191132 318.786158 
L 488.465689 292.951181 
L 501.649655 268.632393 
L 513.6567 246.02472 
L 524.642698 224.873252 
L 534.642168 205.145873 
L 543.693101 186.804903 
L 546.416643 181.178265 
L 546.416643 181.178265 
" style="fill:none;stroke:#9467bd;stroke-linecap:square;stroke-width:4;"/>
   </g>
   <g id="line2d_26">
    <path clip-path="url(#p8a24fd0cb4)" d="M 552.392126 430.904361 
L 554.07833 392.797278 
L 556.187848 350.241269 
L 558.751255 303.079968 
L 561.827613 250.647138 
L 565.450923 192.753012 
L 566.315678 179.40221 
L 566.315678 179.40221 
" style="fill:none;stroke:#8c564b;stroke-linecap:square;stroke-width:4;"/>
   </g>
   <g id="line2d_27">
    <path clip-path="url(#p8a24fd0cb4)" d="M 349.722493 413.110941 
L 398.572806 362.487848 
L 439.78123 320.093639 
L 474.24083 284.950091 
L 502.54066 256.393996 
L 525.331847 233.698262 
L 543.48708 215.920859 
L 557.442581 202.553165 
L 567.874941 192.849928 
L 575.530175 186.015949 
L 580.848688 181.544647 
L 584.431613 178.802191 
L 586.190891 177.628281 
L 586.190891 177.628281 
" style="fill:none;stroke:#e377c2;stroke-linecap:square;stroke-width:4;"/>
   </g>
   <g id="line2d_28">
    <path clip-path="url(#p8a24fd0cb4)" d="M 372.263295 374.425303 
L 432.123319 322.762052 
L 482.878968 279.242049 
L 525.008613 243.402622 
L 559.20066 214.596808 
L 586.461017 191.909544 
L 606.042324 175.856475 
L 606.042324 175.856475 
" style="fill:none;stroke:#7f7f7f;stroke-linecap:square;stroke-width:4;"/>
   </g>
   <g id="line2d_29">
    <path clip-path="url(#p8a24fd0cb4)" d="M 449.76732 558.156173 
L 483.714653 486.219009 
L 513.745572 422.069895 
L 540.129991 365.19602 
L 563.138726 315.081708 
L 583.041224 271.212872 
L 600.103492 233.081084 
L 614.586231 200.187267 
L 625.87002 174.086788 
L 625.87002 174.086788 
" style="fill:none;stroke:#bcbd22;stroke-linecap:square;stroke-width:4;"/>
   </g>
   <g id="line2d_30">
    <path clip-path="url(#p8a24fd0cb4)" d="M 604.935464 542.591538 
L 643.335498 193.160214 
L 645.674022 172.319215 
L 645.674022 172.319215 
" style="fill:none;stroke:#17becf;stroke-linecap:square;stroke-width:4;"/>
   </g>
   <g id="line2d_31">
    <path clip-path="url(#p8a24fd0cb4)" d="M 302.942835 493.396499 
L 357.159869 369.676291 
L 404.985309 259.998714 
L 430.679893 200.807939 
L 430.679893 200.807939 
" style="fill:none;stroke:#1f77b4;stroke-linecap:square;stroke-width:4;"/>
   </g>
   <g id="line2d_32">
    <path clip-path="url(#p8a24fd0cb4)" d="M 498.632597 398.865027 
L 477.323246 308.112952 
L 463.371036 249.588528 
L 455.154509 215.98827 
L 450.999849 199.817007 
L 450.780353 199.008299 
L 450.780353 199.008299 
" style="fill:none;stroke:#ff7f0e;stroke-linecap:square;stroke-width:4;"/>
   </g>
   <g id="line2d_33">
    <path clip-path="url(#p8a24fd0cb4)" d="M 655.12992 402.319161 
L 622.460036 368.545424 
L 594.069346 338.882644 
L 569.452612 312.84709 
L 548.609665 290.488108 
L 531.009599 271.291424 
L 516.373168 255.007558 
L 504.407167 241.371749 
L 494.812304 230.111474 
L 487.290209 220.953206 
L 481.549484 213.628298 
L 477.310771 207.877971 
L 474.310863 203.4574 
L 472.267008 200.069055 
L 471.023189 197.600487 
L 470.856591 197.210829 
L 470.856591 197.210829 
" style="fill:none;stroke:#2ca02c;stroke-linecap:square;stroke-width:4;"/>
   </g>
   <g id="line2d_34">
    <path clip-path="url(#p8a24fd0cb4)" d="M 379.54071 485.895032 
L 389.42584 466.64379 
L 398.759899 447.975731 
L 407.556636 429.884829 
L 415.830194 412.364516 
L 423.595067 395.407717 
L 430.866063 379.006876 
L 437.785537 362.851484 
L 444.228393 347.244951 
L 450.210298 332.178509 
L 455.747102 317.643019 
L 460.95574 303.345416 
L 465.738458 289.569002 
L 470.111661 276.30368 
L 474.173236 263.269941 
L 477.845519 250.735923 
L 481.145264 238.690746 
L 484.089212 227.123341 
L 486.750096 215.772619 
L 489.076205 204.886593 
L 490.908651 195.415523 
L 490.908651 195.415523 
" style="fill:none;stroke:#d62728;stroke-linecap:square;stroke-width:4;"/>
   </g>
   <g id="line2d_35">
    <path clip-path="url(#p8a24fd0cb4)" d="M 578.215262 485.794537 
L 575.873264 471.793003 
L 572.956737 455.741121 
L 569.435489 437.643841 
L 565.246898 417.315033 
L 560.323976 394.554891 
L 554.594921 369.148536 
L 547.982612 340.864401 
L 540.486122 309.787935 
L 531.950523 275.36247 
L 522.280259 237.298523 
L 511.371648 195.281101 
L 510.936574 193.622377 
L 510.936574 193.622377 
" style="fill:none;stroke:#9467bd;stroke-linecap:square;stroke-width:4;"/>
   </g>
   <g id="line2d_36">
    <path clip-path="url(#p8a24fd0cb4)" d="M 461.529615 402.414591 
L 530.940406 191.831389 
L 530.940406 191.831389 
" style="fill:none;stroke:#8c564b;stroke-linecap:square;stroke-width:4;"/>
   </g>
   <g id="line2d_37">
    <path clip-path="url(#p8a24fd0cb4)" d="M 438.263761 350.265688 
L 550.92019 190.042554 
L 550.92019 190.042554 
" style="fill:none;stroke:#e377c2;stroke-linecap:square;stroke-width:4;"/>
   </g>
   <g id="line2d_38">
    <path clip-path="url(#p8a24fd0cb4)" d="M 441.613514 538.826778 
L 458.688309 498.359521 
L 474.286606 460.828454 
L 488.278844 426.595842 
L 500.930552 395.066158 
L 512.30095 366.136971 
L 522.308834 340.077056 
L 531.186084 316.349374 
L 538.879024 295.168913 
L 545.594623 276.042966 
L 551.397235 258.854368 
L 556.268177 243.749361 
L 560.375889 230.305169 
L 563.782058 218.407411 
L 566.495704 208.147473 
L 568.64664 199.17388 
L 570.291001 191.381087 
L 570.875969 188.255868 
L 570.875969 188.255868 
" style="fill:none;stroke:#7f7f7f;stroke-linecap:square;stroke-width:4;"/>
   </g>
   <g id="line2d_39">
    <path clip-path="url(#p8a24fd0cb4)" d="M 394.604794 427.38801 
L 431.026125 383.867229 
L 464.342786 343.713775 
L 494.5923 306.912509 
L 521.846718 273.409412 
L 546.208621 243.115635 
L 567.806696 215.912101 
L 586.941283 191.460942 
L 590.807786 186.471328 
L 590.807786 186.471328 
" style="fill:none;stroke:#bcbd22;stroke-linecap:square;stroke-width:4;"/>
   </g>
   <g id="line2d_40">
    <path clip-path="url(#p8a24fd0cb4)" d="M 425.5856 500.831041 
L 460.486882 439.811648 
L 492.574896 384.151839 
L 521.880109 333.757957 
L 548.464226 288.479256 
L 572.416224 248.115782 
L 593.848097 212.426719 
L 610.715684 184.688929 
L 610.715684 184.688929 
" style="fill:none;stroke:#17becf;stroke-linecap:square;stroke-width:4;"/>
   </g>
   <g id="line2d_41">
    <path clip-path="url(#p8a24fd0cb4)" d="M 557.482138 527.27425 
L 567.496039 475.037846 
L 576.919409 427.048279 
L 585.766351 383.130316 
L 594.052773 343.098608 
L 601.868024 306.427594 
L 609.154391 273.291593 
L 615.931721 243.485985 
L 622.285761 216.532908 
L 628.168308 192.53431 
L 630.599707 182.908667 
L 630.599707 182.908667 
" style="fill:none;stroke:#1f77b4;stroke-linecap:square;stroke-width:4;"/>
   </g>
   <g id="line2d_42">
    <path clip-path="url(#p8a24fd0cb4)" d="M 335.305673 377.920538 
L 354.129631 369.850378 
L 372.586216 361.694029 
L 390.26702 353.636962 
L 407.186931 345.686062 
L 423.742458 337.66049 
L 439.552273 329.750858 
L 454.996942 321.772777 
L 469.713493 313.920034 
L 483.720387 306.198672 
L 497.373596 298.419286 
L 510.338112 290.779873 
L 522.953058 283.088014 
L 534.902144 275.544273 
L 546.507338 267.953413 
L 557.471174 260.518348 
L 568.098225 253.041222 
L 578.109887 245.727083 
L 587.793159 238.375657 
L 596.888271 231.193917 
L 605.66454 223.979369 
L 613.880928 216.940709 
L 621.789025 209.873414 
L 629.166373 202.987713 
L 636.246846 196.077243 
L 642.826356 189.35358 
L 649.121131 182.608706 
L 650.459898 181.13054 
L 650.459898 181.13054 
" style="fill:none;stroke:#ff7f0e;stroke-linecap:square;stroke-width:4;"/>
   </g>
   <g id="line2d_43">
    <path clip-path="url(#p8a24fd0cb4)" d="M 295.778885 474.806809 
L 319.456878 459.566991 
L 342.628318 444.390215 
L 364.828785 429.586707 
L 386.529534 414.848463 
L 407.287561 400.482784 
L 427.127849 386.487697 
L 446.491372 372.558966 
L 464.967139 358.999262 
L 482.975897 345.507049 
L 500.127884 332.381819 
L 516.823548 319.324855 
L 532.694299 306.632373 
L 548.12026 294.008588 
L 562.753913 281.746356 
L 576.621999 269.842433 
L 590.07426 258.005574 
L 602.794215 246.523479 
L 615.111613 235.10803 
L 626.730366 224.043458 
L 637.960346 213.044843 
L 648.525626 202.392906 
L 658.71635 191.805985 
L 668.276491 181.561261 
L 670.296298 179.354542 
L 670.296298 179.354542 
" style="fill:none;stroke:#2ca02c;stroke-linecap:square;stroke-width:4;"/>
   </g>
   <g id="line2d_44">
    <path clip-path="url(#p8a24fd0cb4)" d="M 710.525365 434.428421 
L 708.802548 402.673236 
L 706.858141 370.938251 
L 704.693922 339.256311 
L 702.312168 307.660208 
L 699.715653 276.18256 
L 696.907634 244.855686 
L 693.891842 213.71149 
L 690.672466 182.78134 
L 690.108951 177.580671 
L 690.108951 177.580671 
" style="fill:none;stroke:#d62728;stroke-linecap:square;stroke-width:4;"/>
   </g>
   <g id="line2d_45">
    <path clip-path="url(#p8a24fd0cb4)" d="M 547.589999 339.985024 
L 524.423632 320.490076 
L 502.858978 302.630504 
L 483.064969 286.522022 
L 464.863558 271.992738 
L 448.373912 259.107985 
L 433.398241 247.680702 
L 419.754814 237.545031 
L 407.523478 228.730655 
L 398.568543 222.476081 
L 398.568543 222.476081 
" style="fill:none;stroke:#9467bd;stroke-linecap:square;stroke-width:4;"/>
   </g>
   <g id="line2d_46">
    <path clip-path="url(#p8a24fd0cb4)" d="M 618.161339 405.876437 
L 603.553689 390.148841 
L 589.0418 374.198254 
L 574.458654 357.839898 
L 559.790254 341.051292 
L 545.022056 323.808571 
L 530.138911 306.08637 
L 515.285463 288.054376 
L 500.287968 269.498764 
L 485.12959 250.38982 
L 469.792613 230.695803 
L 459.292144 217.005163 
L 459.292144 217.005163 
" style="fill:none;stroke:#8c564b;stroke-linecap:square;stroke-width:4;"/>
   </g>
   <g id="line2d_47">
    <path clip-path="url(#p8a24fd0cb4)" d="M 664.137599 420.088826 
L 582.611584 329.808195 
L 493.84882 231.176839 
L 479.484266 215.185946 
L 479.484266 215.185946 
" style="fill:none;stroke:#e377c2;stroke-linecap:square;stroke-width:4;"/>
   </g>
   <g id="line2d_48">
    <path clip-path="url(#p8a24fd0cb4)" d="M 379.628133 391.88437 
L 423.669412 345.225239 
L 459.498936 307.577215 
L 488.27124 277.65449 
L 510.521186 254.819629 
L 527.32129 237.87765 
L 539.66463 225.728631 
L 548.246472 217.574514 
L 553.896568 212.48875 
L 557.366976 209.634149 
L 559.34252 208.2671 
L 560.008546 207.931078 
L 560.008546 207.931078 
" style="fill:none;stroke:#7f7f7f;stroke-linecap:square;stroke-width:4;"/>
   </g>
   <g id="line2d_49">
    <path clip-path="url(#p8a24fd0cb4)" d="M 363.917572 546.573349 
L 380.02943 526.891954 
L 395.259065 507.941604 
L 409.946013 489.309567 
L 423.79313 471.382855 
L 436.832637 454.142205 
L 449.369319 437.195326 
L 461.139452 420.909763 
L 472.174219 405.266978 
L 482.744792 389.894371 
L 492.619743 375.140745 
L 501.82922 360.988274 
L 510.611928 347.083306 
L 518.76759 333.756625 
L 526.325304 320.991117 
L 533.492475 308.451328 
L 540.098801 296.450764 
L 546.331528 284.665652 
L 552.039886 273.398264 
L 557.251401 262.632535 
L 562.12376 252.061777 
L 566.534388 241.972095 
L 570.621999 232.067733 
L 574.282341 222.624306 
L 577.635536 213.356751 
L 580.078786 206.122842 
L 580.078786 206.122842 
" style="fill:none;stroke:#bcbd22;stroke-linecap:square;stroke-width:4;"/>
   </g>
   <g id="line2d_50">
    <path clip-path="url(#p8a24fd0cb4)" d="M 673.246305 438.057791 
L 669.884823 421.63795 
L 666.865428 405.780191 
L 664.178191 390.480195 
L 661.812774 375.732769 
L 659.758469 361.53189 
L 658.004237 347.870747 
L 656.538749 334.741789 
L 655.350423 322.136775 
L 654.411139 309.802843 
L 653.735079 297.985412 
L 653.309978 286.674501 
L 653.123447 275.859595 
L 653.163003 265.529698 
L 653.424161 255.457187 
L 653.895743 245.857588 
L 654.56498 236.718677 
L 655.419127 228.027911 
L 656.472252 219.578761 
L 657.693988 211.563011 
L 659.071569 203.967283 
L 660.117744 198.9117 
L 660.117744 198.9117 
" style="fill:none;stroke:#17becf;stroke-linecap:square;stroke-width:4;"/>
   </g>
   <g id="line2d_51">
    <path clip-path="url(#p8a24fd0cb4)" d="M 527.421629 377.82657 
L 577.069442 318.75719 
L 632.19785 253.518624 
L 680.067202 197.114345 
L 680.067202 197.114345 
" style="fill:none;stroke:#1f77b4;stroke-linecap:square;stroke-width:4;"/>
   </g>
   <g id="line2d_52">
    <path clip-path="url(#p8a24fd0cb4)" d="M 518.948884 531.116157 
L 529.448037 510.813477 
L 540.044819 490.805667 
L 550.534235 471.468193 
L 561.120726 452.412738 
L 571.805906 433.638586 
L 582.378964 415.504999 
L 593.050042 397.640588 
L 603.820751 380.044835 
L 614.474294 363.061202 
L 625.22668 346.334756 
L 636.079518 329.865159 
L 646.809848 313.98044 
L 657.639719 298.341694 
L 668.570735 282.948742 
L 679.3736 268.114518 
L 690.276573 253.51575 
L 701.281249 239.152402 
L 712.389256 225.024484 
L 723.362573 211.42518 
L 734.438048 198.051536 
L 739.771597 191.735254 
L 739.771597 191.735254 
" style="fill:none;stroke:#ff7f0e;stroke-linecap:square;stroke-width:4;"/>
   </g>
   <g id="line2d_53">
    <path clip-path="url(#p8a24fd0cb4)" d="M 371.637488 565.993235 
L 402.686862 231.589374 
L 402.686862 231.589374 
" style="fill:none;stroke:#2ca02c;stroke-linecap:square;stroke-width:4;"/>
   </g>
   <g id="line2d_54">
    <path clip-path="url(#p8a24fd0cb4)" d="M 324.933598 550.460195 
L 402.794977 337.990349 
L 443.311449 227.917738 
L 443.311449 227.917738 
" style="fill:none;stroke:#d62728;stroke-linecap:square;stroke-width:4;"/>
   </g>
   <g id="line2d_55">
    <path clip-path="url(#p8a24fd0cb4)" d="M 447.79436 460.00707 
L 504.063191 222.427017 
L 504.063191 222.427017 
" style="fill:none;stroke:#9467bd;stroke-linecap:square;stroke-width:4;"/>
   </g>
   <g id="line2d_56">
    <path clip-path="url(#p8a24fd0cb4)" d="M 628.69652 350.173357 
L 622.817987 346.03677 
L 617.24009 341.842066 
L 611.833096 337.497316 
L 606.716808 333.104728 
L 601.769075 328.565659 
L 596.992561 323.87853 
L 592.494993 319.155956 
L 588.16585 314.289148 
L 584.007666 309.276626 
L 580.115828 304.241484 
L 576.391722 299.064698 
L 572.837746 293.744888 
L 569.456317 288.280677 
L 566.249861 282.670682 
L 563.220818 276.913524 
L 560.438975 271.153644 
L 557.830621 265.251098 
L 555.398056 259.204606 
L 553.143591 253.01289 
L 551.069544 246.674674 
L 549.178247 240.188681 
L 547.472037 233.55364 
L 545.953264 226.768282 
L 544.624283 219.831338 
L 544.441451 218.777644 
L 544.441451 218.777644 
" style="fill:none;stroke:#8c564b;stroke-linecap:square;stroke-width:4;"/>
   </g>
   <g id="line2d_57">
    <path clip-path="url(#p8a24fd0cb4)" d="M 445.93397 367.457964 
L 456.461875 360.107255 
L 466.657004 352.722018 
L 476.700752 345.173533 
L 486.413315 337.599819 
L 495.970965 329.866461 
L 505.199817 322.117411 
L 514.270797 314.21257 
L 523.17963 306.15106 
L 531.761663 298.085689 
L 540.179276 289.867851 
L 548.274307 281.65621 
L 556.203224 273.296506 
L 563.81454 264.953191 
L 571.258621 256.466398 
L 578.531764 247.83567 
L 585.492778 239.234043 
L 592.282431 230.493324 
L 598.897222 221.613209 
L 604.825384 213.320166 
L 604.825384 213.320166 
" style="fill:none;stroke:#e377c2;stroke-linecap:square;stroke-width:4;"/>
   </g>
   <g id="line2d_58">
    <path clip-path="url(#p8a24fd0cb4)" d="M 634.281339 519.617087 
L 643.549972 252.920471 
L 644.959552 209.692854 
L 644.959552 209.692854 
" style="fill:none;stroke:#7f7f7f;stroke-linecap:square;stroke-width:4;"/>
   </g>
   <g id="line2d_59">
    <path clip-path="url(#p8a24fd0cb4)" d="M 527.532463 550.355692 
L 548.751242 506.891056 
L 569.437185 465.020019 
L 589.780364 424.343544 
L 609.609068 385.190539 
L 628.933387 347.519825 
L 647.93837 310.95602 
L 666.455541 275.808483 
L 684.666863 241.716933 
L 702.405923 208.977882 
L 704.979007 204.268317 
L 704.979007 204.268317 
" style="fill:none;stroke:#bcbd22;stroke-linecap:square;stroke-width:4;"/>
   </g>
   <g id="line2d_60">
    <path clip-path="url(#p8a24fd0cb4)" d="M 665.008732 346.739161 
L 744.87129 200.662867 
L 744.87129 200.662867 
" style="fill:none;stroke:#17becf;stroke-linecap:square;stroke-width:4;"/>
   </g>
   <g id="line2d_61">
    <path clip-path="url(#p8a24fd0cb4)" d="M 485.582742 456.328114 
L 475.567244 427.072678 
L 465.11271 397.22251 
L 454.13752 366.559487 
L 442.625973 335.061118 
L 430.561823 302.704155 
L 418.01677 269.695289 
L 406.830223 240.758081 
L 406.830223 240.758081 
" style="fill:none;stroke:#1f77b4;stroke-linecap:square;stroke-width:4;"/>
   </g>
   <g id="line2d_62">
    <path clip-path="url(#p8a24fd0cb4)" d="M 417.708312 482.157161 
L 422.509734 452.465226 
L 426.835007 424.33384 
L 430.70119 397.74693 
L 434.160562 372.427503 
L 437.19285 348.617311 
L 439.846204 326.04432 
L 442.132851 304.694591 
L 444.045932 284.77258 
L 445.626242 266.018002 
L 446.888465 248.40605 
L 447.57311 237.064099 
L 447.57311 237.064099 
" style="fill:none;stroke:#ff7f0e;stroke-linecap:square;stroke-width:4;"/>
   </g>
   <g id="line2d_63">
    <path clip-path="url(#p8a24fd0cb4)" d="M 472.053044 515.904117 
L 474.686603 496.80182 
L 477.440152 478.431025 
L 480.361899 460.437372 
L 483.395001 443.140488 
L 486.532107 426.517152 
L 489.830906 410.235109 
L 493.225347 394.59538 
L 496.708188 379.576753 
L 500.346538 364.867615 
L 504.06509 350.751317 
L 507.937229 336.929214 
L 511.881432 323.673203 
L 515.890501 310.964663 
L 520.047249 298.523671 
L 524.260741 286.605703 
L 528.620095 274.942664 
L 533.028047 263.779364 
L 537.580067 252.859188 
L 542.172491 242.416518 
L 546.90719 232.205902 
L 548.996296 227.868497 
L 548.996296 227.868497 
" style="fill:none;stroke:#2ca02c;stroke-linecap:square;stroke-width:4;"/>
   </g>
   <g id="line2d_64">
    <path clip-path="url(#p8a24fd0cb4)" d="M 673.912557 363.892667 
L 617.93857 240.790253 
L 609.554395 222.377955 
L 609.554395 222.377955 
" style="fill:none;stroke:#d62728;stroke-linecap:square;stroke-width:4;"/>
   </g>
   <g id="line2d_65">
    <path clip-path="url(#p8a24fd0cb4)" d="M 719.936373 452.55903 
L 649.803954 218.728701 
L 649.803954 218.728701 
" style="fill:none;stroke:#9467bd;stroke-linecap:square;stroke-width:4;"/>
   </g>
   <g id="line2d_66">
    <path clip-path="url(#p8a24fd0cb4)" d="M 589.724342 427.291079 
L 750.001672 209.644207 
L 750.001672 209.644207 
" style="fill:none;stroke:#8c564b;stroke-linecap:square;stroke-width:4;"/>
   </g>
   <g id="line2d_67">
    <path clip-path="url(#p8a24fd0cb4)" d="M 637.410998 367.364617 
L 582.647108 337.860903 
L 537.239011 313.640814 
L 500.631721 294.356243 
L 471.77694 279.395455 
L 449.760542 268.217608 
L 433.422479 260.159149 
L 421.922855 254.719029 
L 414.15557 251.272831 
L 410.998855 249.982709 
L 410.998855 249.982709 
" style="fill:none;stroke:#e377c2;stroke-linecap:square;stroke-width:4;"/>
   </g>
   <g id="line2d_68">
    <path clip-path="url(#p8a24fd0cb4)" d="M 469.457898 420.185323 
L 451.860731 246.266177 
L 451.860731 246.266177 
" style="fill:none;stroke:#7f7f7f;stroke-linecap:square;stroke-width:4;"/>
   </g>
   <g id="line2d_69">
    <path clip-path="url(#p8a24fd0cb4)" d="M 519.280346 360.521295 
L 520.850935 359.732987 
L 522.441145 358.679298 
L 524.048527 357.336907 
L 525.67052 355.681425 
L 527.30444 353.687341 
L 528.947479 351.327986 
L 530.636477 348.504084 
L 532.326754 345.240457 
L 534.052867 341.416115 
L 535.808291 336.969138 
L 537.550306 331.943336 
L 539.309495 326.180073 
L 541.078083 319.605871 
L 542.847769 312.142374 
L 544.578889 303.862997 
L 546.295599 294.548493 
L 547.98804 284.106224 
L 549.619288 272.636054 
L 551.207779 259.865034 
L 552.741812 245.683706 
L 553.578802 237.014558 
L 553.578802 237.014558 
" style="fill:none;stroke:#bcbd22;stroke-linecap:square;stroke-width:4;"/>
   </g>
   <g id="line2d_70">
    <path clip-path="url(#p8a24fd0cb4)" d="M 357.051909 431.001511 
L 414.264842 385.608546 
L 463.08998 347.145338 
L 504.542437 314.76479 
L 539.30099 287.887289 
L 568.049872 265.929145 
L 591.469397 248.310501 
L 610.386695 234.34639 
L 614.312073 231.490652 
L 614.312073 231.490652 
" style="fill:none;stroke:#17becf;stroke-linecap:square;stroke-width:4;"/>
   </g>
   <g id="line2d_71">
    <path clip-path="url(#p8a24fd0cb4)" d="M 488.695318 554.251376 
L 664.306065 244.582922 
L 674.823659 225.986909 
L 674.823659 225.986909 
" style="fill:none;stroke:#1f77b4;stroke-linecap:square;stroke-width:4;"/>
   </g>
   <g id="line2d_72">
    <path clip-path="url(#p8a24fd0cb4)" d="M 401.661611 353.707629 
L 492.937109 312.893043 
L 567.71772 279.688379 
L 627.270429 253.478735 
L 672.875376 233.638934 
L 694.945134 224.15679 
L 694.945134 224.15679 
" style="fill:none;stroke:#ff7f0e;stroke-linecap:square;stroke-width:4;"/>
   </g>
   <g id="line2d_73">
    <path clip-path="url(#p8a24fd0cb4)" d="M 261.144503 384.934265 
L 293.203943 371.807387 
L 324.54959 359.213782 
L 355.156015 347.156494 
L 385.000602 335.636804 
L 414.063573 324.654268 
L 442.327997 314.20677 
L 470.294792 304.106794 
L 497.425323 294.546168 
L 523.709849 285.518522 
L 549.141423 277.016031 
L 573.715811 269.029508 
L 597.911444 261.399459 
L 621.233127 254.27772 
L 643.683364 247.651694 
L 665.26704 241.507754 
L 686.437278 235.711704 
L 706.73915 230.382588 
L 726.183376 225.50423 
L 745.200429 220.962561 
L 755.163023 218.67976 
L 755.163023 218.67976 
" style="fill:none;stroke:#2ca02c;stroke-linecap:square;stroke-width:4;"/>
   </g>
   <g id="line2d_74">
    <path clip-path="url(#p8a24fd0cb4)" d="M 455.788758 478.427825 
L 425.79234 316.654448 
L 415.19299 259.263771 
L 415.19299 259.263771 
" style="fill:none;stroke:#d62728;stroke-linecap:square;stroke-width:4;"/>
   </g>
   <g id="line2d_75">
    <path clip-path="url(#p8a24fd0cb4)" d="M 477.475105 438.155373 
L 477.948161 426.500175 
L 478.193536 415.01083 
L 478.215908 403.510099 
L 478.016032 392.191309 
L 477.592076 380.876646 
L 476.952816 369.759053 
L 476.089743 358.660566 
L 475.01975 347.77317 
L 473.727518 336.919182 
L 472.238104 326.289065 
L 470.529276 315.705847 
L 468.634249 305.357929 
L 466.523809 295.069479 
L 464.239278 285.026317 
L 461.744417 275.054174 
L 459.038386 265.159836 
L 456.174551 255.524481 
L 456.174551 255.524481 
" style="fill:none;stroke:#9467bd;stroke-linecap:square;stroke-width:4;"/>
   </g>
   <g id="line2d_76">
    <path clip-path="url(#p8a24fd0cb4)" d="M 620.076601 333.168633 
L 617.796155 329.084858 
L 614.544584 323.739159 
L 610.128095 316.924345 
L 604.302656 308.360173 
L 596.792051 297.729924 
L 587.361546 284.781091 
L 575.699821 269.158068 
L 561.460739 250.466142 
L 558.189223 246.216333 
L 558.189223 246.216333 
" style="fill:none;stroke:#8c564b;stroke-linecap:square;stroke-width:4;"/>
   </g>
   <g id="line2d_77">
    <path clip-path="url(#p8a24fd0cb4)" d="M 548.786019 508.299387 
L 554.911349 484.75313 
L 560.35905 462.950962 
L 565.262081 442.427408 
L 569.638449 423.151598 
L 573.433519 405.444044 
L 576.756191 388.884757 
L 579.568742 373.759334 
L 581.963837 359.678971 
L 583.919546 346.896421 
L 585.512442 335.054185 
L 586.762092 324.114957 
L 587.66846 314.285697 
L 588.284761 305.255068 
L 588.630006 296.985859 
L 588.72303 289.440955 
L 588.589647 282.772782 
L 588.253589 276.729268 
L 587.73246 271.275039 
L 587.043517 266.375225 
L 586.203653 261.995539 
L 585.229361 258.102341 
L 584.136714 254.662705 
L 582.941344 251.644478 
L 581.658418 249.016333 
L 580.302623 246.747819 
L 578.888149 244.80941 
L 578.517229 244.361541 
L 578.517229 244.361541 
" style="fill:none;stroke:#e377c2;stroke-linecap:square;stroke-width:4;"/>
   </g>
   <g id="line2d_78">
    <path clip-path="url(#p8a24fd0cb4)" d="M 656.201414 329.77158 
L 652.477386 329.275936 
L 648.861506 328.568228 
L 645.443738 327.672057 
L 642.217168 326.601033 
L 639.091782 325.331764 
L 636.068868 323.861781 
L 633.227252 322.236493 
L 630.485103 320.416475 
L 627.843664 318.399346 
L 625.304193 316.182689 
L 622.86797 313.764049 
L 620.536296 311.140935 
L 618.250186 308.229219 
L 616.077362 305.096045 
L 614.019303 301.738578 
L 612.026659 298.053871 
L 610.158306 294.12637 
L 608.371792 289.839667 
L 606.719818 285.290277 
L 605.167217 280.347579 
L 603.760189 275.120795 
L 602.471263 269.464293 
L 601.339795 263.500665 
L 600.346448 257.068424 
L 599.505868 250.139097 
L 598.846572 242.856435 
L 598.820366 242.509017 
L 598.820366 242.509017 
" style="fill:none;stroke:#7f7f7f;stroke-linecap:square;stroke-width:4;"/>
   </g>
   <g id="line2d_79">
    <path clip-path="url(#p8a24fd0cb4)" d="M 710.726186 511.995254 
L 706.784822 504.941295 
L 702.744455 497.245102 
L 698.60215 488.869457 
L 694.35466 479.775178 
L 689.998402 469.920937 
L 685.529433 459.263075 
L 680.854914 447.527663 
L 676.057235 434.867119 
L 671.13095 421.227845 
L 666.070091 406.55275 
L 660.868126 390.780891 
L 655.517905 373.847087 
L 650.011608 355.681481 
L 644.340674 336.209051 
L 638.399213 314.997978 
L 632.270476 292.274519 
L 625.942798 267.941664 
L 619.403384 241.89423 
L 619.09868 240.658758 
L 619.09868 240.658758 
" style="fill:none;stroke:#bcbd22;stroke-linecap:square;stroke-width:4;"/>
   </g>
   <g id="line2d_80">
    <path clip-path="url(#p8a24fd0cb4)" d="M 402.810772 542.695554 
L 464.307267 480.905179 
L 517.767645 427.497259 
L 564.037057 381.580297 
L 603.586394 342.638799 
L 636.663214 310.371771 
L 664.187689 283.81913 
L 686.746798 262.351536 
L 705.119425 245.16401 
L 719.638676 231.875178 
L 720.119483 231.441294 
L 720.119483 231.441294 
" style="fill:none;stroke:#17becf;stroke-linecap:square;stroke-width:4;"/>
   </g>
   <g id="line2d_81">
    <path clip-path="url(#p8a24fd0cb4)" d="M 720.366464 531.012863 
L 736.760471 401.719903 
L 747.641823 317.535866 
L 754.330308 267.368602 
L 757.987036 241.427634 
L 759.705069 230.599409 
L 760.317452 227.844676 
L 760.355624 227.770019 
L 760.355624 227.770019 
" style="fill:none;stroke:#1f77b4;stroke-linecap:square;stroke-width:4;"/>
   </g>
   <g id="line2d_82">
    <path clip-path="url(#p8a24fd0cb4)" d="M 510.463789 512.097366 
L 506.513613 493.097999 
L 502.525396 475.015769 
L 498.583919 458.1597 
L 494.621245 442.165734 
L 490.6436 427.015023 
L 486.657122 412.687624 
L 482.667855 399.162594 
L 478.681733 386.418093 
L 474.704571 374.431482 
L 470.742056 363.179422 
L 466.799739 352.637972 
L 462.883026 342.782686 
L 458.997174 333.5887 
L 455.050297 324.822143 
L 451.141497 316.686759 
L 447.275706 309.156554 
L 443.457683 302.205413 
L 439.692019 295.80718 
L 435.983131 289.935735 
L 432.335265 284.565072 
L 428.646536 279.530195 
L 425.024608 274.963273 
L 421.47335 270.838393 
L 419.412862 268.601788 
L 419.412862 268.601788 
" style="fill:none;stroke:#ff7f0e;stroke-linecap:square;stroke-width:4;"/>
   </g>
   <g id="line2d_83">
    <path clip-path="url(#p8a24fd0cb4)" d="M 682.914484 381.235169 
L 663.097056 367.864377 
L 644.386891 355.507133 
L 626.782885 344.144999 
L 610.276778 333.75357 
L 594.853638 324.303035 
L 580.492422 315.758789 
L 567.166581 308.082062 
L 554.608176 301.101604 
L 543.03819 294.922245 
L 532.417469 289.496205 
L 522.49777 284.676525 
L 513.460539 280.530166 
L 505.258833 277.004931 
L 497.668551 273.981265 
L 490.835752 271.493118 
L 484.553973 269.439935 
L 478.948087 267.836171 
L 473.830012 266.600499 
L 469.305438 265.729947 
L 465.204961 265.162244 
L 461.505701 264.873944 
L 460.514811 264.83953 
L 460.514811 264.83953 
" style="fill:none;stroke:#2ca02c;stroke-linecap:square;stroke-width:4;"/>
   </g>
   <g id="line2d_84">
    <path clip-path="url(#p8a24fd0cb4)" d="M 663.224669 496.957783 
L 609.909282 407.737369 
L 565.249261 332.582079 
L 528.52375 270.358287 
L 521.978129 259.2135 
L 521.978129 259.2135 
" style="fill:none;stroke:#d62728;stroke-linecap:square;stroke-width:4;"/>
   </g>
   <g id="line2d_85">
    <path clip-path="url(#p8a24fd0cb4)" d="M 583.872882 336.573107 
L 582.408588 336.258325 
L 580.991218 335.724772 
L 579.621334 334.969563 
L 578.267088 333.962344 
L 576.932833 332.68247 
L 575.623127 331.108292 
L 574.342743 329.217104 
L 573.069726 326.932026 
L 571.813878 324.206576 
L 570.585693 320.9909 
L 569.396403 317.231537 
L 568.258024 312.871166 
L 567.18342 307.848322 
L 566.186358 302.097078 
L 565.281578 295.546697 
L 564.484875 288.121247 
L 563.813178 279.739158 
L 563.284651 270.312748 
L 562.918796 259.747678 
L 562.827814 255.474333 
L 562.827814 255.474333 
" style="fill:none;stroke:#9467bd;stroke-linecap:square;stroke-width:4;"/>
   </g>
   <g id="line2d_86">
    <path clip-path="url(#p8a24fd0cb4)" d="M 333.912635 471.09423 
L 361.54607 452.284737 
L 388.047985 433.977786 
L 413.06138 416.430767 
L 436.60879 399.64523 
L 459.037668 383.385959 
L 480.038688 367.890529 
L 499.944979 352.927366 
L 518.478658 338.720476 
L 535.956441 325.043144 
L 552.131394 312.105615 
L 567.301973 299.687177 
L 581.251275 287.98438 
L 594.257933 276.783539 
L 606.133827 266.267787 
L 617.136533 256.231359 
L 623.914479 249.88278 
L 623.914479 249.88278 
" style="fill:none;stroke:#8c564b;stroke-linecap:square;stroke-width:4;"/>
   </g>
   <g id="line2d_87">
    <path clip-path="url(#p8a24fd0cb4)" d="M 493.782346 474.706995 
L 507.421953 458.171175 
L 521.452466 440.810997 
L 535.892689 422.585611 
L 550.597825 403.665709 
L 565.747962 383.807128 
L 581.194233 363.192245 
L 597.125205 341.556202 
L 613.387623 319.093626 
L 630.179564 295.516936 
L 647.343048 271.033608 
L 664.514217 246.166492 
L 664.514217 246.166492 
" style="fill:none;stroke:#e377c2;stroke-linecap:square;stroke-width:4;"/>
   </g>
   <g id="line2d_88">
    <path clip-path="url(#p8a24fd0cb4)" d="M 480.326113 534.966989 
L 509.926741 497.829677 
L 538.587777 462.225088 
L 566.331332 428.112362 
L 593.178957 395.451335 
L 619.151674 364.202497 
L 644.269999 334.326947 
L 668.553966 305.78636 
L 692.02315 278.542949 
L 714.696686 252.559436 
L 725.227681 240.609099 
L 725.227681 240.609099 
" style="fill:none;stroke:#7f7f7f;stroke-linecap:square;stroke-width:4;"/>
   </g>
   <g id="line2d_89">
    <path clip-path="url(#p8a24fd0cb4)" d="M 387.074841 409.537521 
L 398.201693 407.110158 
L 409.50352 404.421595 
L 421.303014 401.383608 
L 433.290186 398.064485 
L 445.466489 394.461555 
L 457.833384 390.572131 
L 470.392337 386.393509 
L 483.492181 381.798067 
L 496.79776 376.891753 
L 510.310681 371.671584 
L 524.032561 366.134563 
L 538.334524 360.119196 
L 552.860057 353.763623 
L 567.610928 347.064545 
L 582.588913 340.018644 
L 597.795794 332.622581 
L 613.632245 324.669613 
L 629.713299 316.341124 
L 646.040903 307.633449 
L 662.617009 298.542904 
L 679.443575 289.065785 
L 696.952795 278.946649 
L 714.729347 268.413422 
L 732.775362 257.462047 
L 751.092981 246.088448 
L 765.579758 236.915481 
L 765.579758 236.915481 
" style="fill:none;stroke:#bcbd22;stroke-linecap:square;stroke-width:4;"/>
   </g>
   <g id="line2d_90">
    <path clip-path="url(#p8a24fd0cb4)" d="M 463.874462 497.058965 
L 464.155426 477.997816 
L 464.196391 460.333734 
L 464.014731 443.677948 
L 463.620557 428.012296 
L 463.039203 413.622288 
L 462.275284 400.152147 
L 461.339645 387.577336 
L 460.270846 376.1373 
L 459.060625 365.51217 
L 457.71995 355.673349 
L 456.259789 346.591291 
L 454.69107 338.235662 
L 453.024643 330.5755 
L 451.321715 323.767566 
L 449.549368 317.567433 
L 447.717733 311.943808 
L 445.836733 306.86542 
L 443.916059 302.301142 
L 441.965156 298.220098 
L 439.993198 294.591773 
L 438.009081 291.386105 
L 435.946388 288.474682 
L 433.883143 285.947561 
L 431.827654 283.775549 
L 429.78791 281.930179 
L 427.686328 280.324142 
L 425.610866 279.008339 
L 423.658709 277.997283 
L 423.658709 277.997283 
" style="fill:none;stroke:#17becf;stroke-linecap:square;stroke-width:4;"/>
   </g>
   <g id="line2d_91">
    <path clip-path="url(#p8a24fd0cb4)" d="M 433.553477 519.719672 
L 436.339917 502.929412 
L 439.727878 483.909324 
L 443.74863 462.626373 
L 448.512102 438.632026 
L 454.106777 411.622306 
L 460.573222 381.522912 
L 468.003338 348.010505 
L 476.574933 310.398107 
L 485.455079 272.322635 
L 485.455079 272.322635 
" style="fill:none;stroke:#1f77b4;stroke-linecap:square;stroke-width:4;"/>
   </g>
   <g id="line2d_92">
    <path clip-path="url(#p8a24fd0cb4)" d="M 317.518752 531.219457 
L 344.714587 495.001118 
L 370.724865 459.993431 
L 395.559392 426.199771 
L 419.419386 393.359434 
L 442.122164 361.737866 
L 463.864263 331.076223 
L 484.650909 301.378112 
L 504.32075 272.890865 
L 506.003003 270.435757 
L 506.003003 270.435757 
" style="fill:none;stroke:#ff7f0e;stroke-linecap:square;stroke-width:4;"/>
   </g>
   <g id="line2d_93">
    <path clip-path="url(#p8a24fd0cb4)" d="M 692.016144 398.76981 
L 680.764899 388.620307 
L 669.786777 378.416431 
L 659.077558 368.158216 
L 648.633107 357.845805 
L 638.44937 347.479457 
L 628.522373 337.059546 
L 618.848213 326.58657 
L 609.301474 315.923212 
L 600.003217 305.203125 
L 590.949718 294.427033 
L 582.137309 283.595802 
L 573.447322 272.56196 
L 567.494835 264.789074 
L 567.494835 264.789074 
" style="fill:none;stroke:#2ca02c;stroke-linecap:square;stroke-width:4;"/>
   </g>
   <g id="line2d_94">
    <path clip-path="url(#p8a24fd0cb4)" d="M 410.74815 562.070115 
L 456.715962 496.817235 
L 496.688946 440.450615 
L 531.121732 392.269185 
L 560.689032 351.267891 
L 585.624929 317.056126 
L 606.573373 288.678961 
L 623.951093 265.499606 
L 628.75974 259.16323 
L 628.75974 259.16323 
" style="fill:none;stroke:#d62728;stroke-linecap:square;stroke-width:4;"/>
   </g>
   <g id="line2d_95">
    <path clip-path="url(#p8a24fd0cb4)" d="M 572.591134 391.789571 
L 572.773405 389.377643 
L 573.200149 386.757295 
L 573.894684 383.914851 
L 574.881421 380.835925 
L 576.185936 377.505379 
L 577.835036 373.90727 
L 579.913101 369.922695 
L 582.411467 365.625574 
L 585.362177 360.996553 
L 588.883926 355.89638 
L 592.947952 350.410087 
L 597.592929 344.513968 
L 602.977571 338.044742 
L 609.051034 331.099725 
L 616.003206 323.496711 
L 623.768044 315.341461 
L 632.400715 306.599385 
L 642.144503 297.055558 
L 652.908408 286.829731 
L 664.761957 275.877837 
L 678.012909 263.944983 
L 689.798971 253.558108 
L 689.798971 253.558108 
" style="fill:none;stroke:#9467bd;stroke-linecap:square;stroke-width:4;"/>
   </g>
   <g id="line2d_96">
    <path clip-path="url(#p8a24fd0cb4)" d="M 274.766471 420.281825 
L 343.686794 392.521894 
L 406.915555 367.290064 
L 464.661469 344.482347 
L 517.152504 323.986284 
L 564.63328 305.682159 
L 607.362374 289.444258 
L 645.609544 275.142151 
L 679.995435 262.517507 
L 710.095447 251.69432 
L 710.095447 251.69432 
" style="fill:none;stroke:#8c564b;stroke-linecap:square;stroke-width:4;"/>
   </g>
   <g id="line2d_97">
    <path clip-path="url(#p8a24fd0cb4)" d="M 356.286641 527.377311 
L 398.946593 499.365675 
L 443.234782 470.018015 
L 489.260772 439.250916 
L 537.143679 406.973569 
L 587.013246 373.086933 
L 639.011068 337.482792 
L 693.291988 300.042674 
L 749.555963 260.963968 
L 770.835714 246.116652 
L 770.835714 246.116652 
" style="fill:none;stroke:#e377c2;stroke-linecap:square;stroke-width:4;"/>
   </g>
   <g id="line2d_98">
    <path clip-path="url(#p8a24fd0cb4)" d="M 332.43501 569.925564 
L 473.696679 293.130407 
L 473.696679 293.130407 
" style="fill:none;stroke:#7f7f7f;stroke-linecap:square;stroke-width:4;"/>
   </g>
   <g id="line2d_99">
    <path clip-path="url(#p8a24fd0cb4)" d="M 432.073362 423.782624 
L 435.749012 411.375997 
L 439.451327 399.646055 
L 443.224066 388.42691 
L 447.003435 377.88021 
L 450.777838 367.994684 
L 454.596408 358.612538 
L 458.390717 349.872419 
L 462.21334 341.623517 
L 465.993244 333.989278 
L 469.786339 326.826901 
L 473.519389 320.244864 
L 477.251485 314.109285 
L 480.9771 308.411601 
L 484.620278 303.238651 
L 488.244437 298.471375 
L 491.844729 294.098397 
L 494.39171 291.217758 
L 494.39171 291.217758 
" style="fill:none;stroke:#bcbd22;stroke-linecap:square;stroke-width:4;"/>
   </g>
   <g id="line2d_100">
    <path clip-path="url(#p8a24fd0cb4)" d="M 310.188983 512.199484 
L 326.390781 491.576224 
L 342.065466 471.979206 
L 357.224556 453.38302 
L 371.659403 436.024272 
L 385.609365 419.595431 
L 398.873382 404.313289 
L 411.681996 389.891895 
L 424.045623 376.307253 
L 435.774243 363.747125 
L 447.085838 351.956729 
L 457.990281 340.912741 
L 468.308083 330.774943 
L 478.245282 321.318592 
L 487.811256 312.521002 
L 497.015267 304.359619 
L 505.691117 296.958544 
L 514.029879 290.131258 
L 515.061032 289.307485 
L 515.061032 289.307485 
" style="fill:none;stroke:#17becf;stroke-linecap:square;stroke-width:4;"/>
   </g>
   <g id="line2d_101">
    <path clip-path="url(#p8a24fd0cb4)" d="M 326.622691 452.755961 
L 401.985081 393.321146 
L 499.593186 316.045787 
L 535.704692 287.399584 
L 535.704692 287.399584 
" style="fill:none;stroke:#1f77b4;stroke-linecap:square;stroke-width:4;"/>
   </g>
   <g id="line2d_102">
    <path clip-path="url(#p8a24fd0cb4)" d="M 625.166155 500.729626 
L 616.57998 480.574729 
L 608.729075 461.591591 
L 601.480398 443.486068 
L 594.914639 426.489421 
L 588.998189 410.560778 
L 583.697343 395.659002 
L 578.978387 381.742808 
L 574.741498 368.558844 
L 571.032311 356.294101 
L 567.817171 344.907033 
L 565.015824 334.168515 
L 562.654481 324.240922 
L 560.700116 315.083194 
L 559.091612 306.490031 
L 557.837168 298.600905 
L 556.887995 291.225927 
L 556.322738 285.49405 
L 556.322738 285.49405 
" style="fill:none;stroke:#ff7f0e;stroke-linecap:square;stroke-width:4;"/>
   </g>
   <g id="line2d_103">
    <path clip-path="url(#p8a24fd0cb4)" d="M 490.596047 381.32934 
L 494.1757 373.067923 
L 497.813008 365.225516 
L 501.501131 357.798959 
L 505.233181 350.783999 
L 509.002246 344.175335 
L 512.80142 337.96667 
L 516.623826 332.15076 
L 520.462639 326.719476 
L 524.311111 321.663865 
L 528.162589 316.97421 
L 532.010536 312.640098 
L 535.84855 308.650486 
L 539.670375 304.993768 
L 543.469924 301.657841 
L 547.336375 298.557391 
L 551.171981 295.763676 
L 555.069192 293.202167 
L 558.927204 290.931854 
L 562.841584 288.889178 
L 566.708684 287.120862 
L 570.627019 285.574452 
L 574.490317 284.284464 
L 576.915217 283.59088 
L 576.915217 283.59088 
" style="fill:none;stroke:#2ca02c;stroke-linecap:square;stroke-width:4;"/>
   </g>
   <g id="line2d_104">
    <path clip-path="url(#p8a24fd0cb4)" d="M 387.208603 504.611799 
L 398.619686 487.858252 
L 409.706973 471.973385 
L 420.473107 456.933444 
L 430.920974 442.714206 
L 441.053685 429.291044 
L 451.09675 416.356928 
L 460.827482 404.190137 
L 470.249561 392.764891 
L 479.366841 382.055196 
L 488.183336 372.034912 
L 496.915156 362.44922 
L 505.350523 353.521224 
L 513.493865 345.224227 
L 521.349717 337.531566 
L 529.126329 330.229545 
L 536.620665 323.498896 
L 543.837553 317.312829 
L 550.781881 311.644759 
L 557.653907 306.321052 
L 564.259207 301.482053 
L 570.602842 297.101443 
L 576.879073 293.03466 
L 582.899791 289.393106 
L 588.855266 286.051096 
L 594.561557 283.101193 
L 597.482178 281.690067 
L 597.482178 281.690067 
" style="fill:none;stroke:#d62728;stroke-linecap:square;stroke-width:4;"/>
   </g>
   <g id="line2d_105">
    <path clip-path="url(#p8a24fd0cb4)" d="M 298.266167 381.423517 
L 309.57247 381.28211 
L 320.847802 380.918179 
L 332.094562 380.329821 
L 343.315161 379.515008 
L 354.192423 378.504586 
L 365.049528 377.276328 
L 375.888734 375.828013 
L 386.712319 374.15729 
L 397.52258 372.261683 
L 408.321838 370.138579 
L 419.112442 367.785229 
L 429.579647 365.278171 
L 440.043133 362.548711 
L 450.505129 359.593939 
L 460.967891 356.410806 
L 471.43371 352.996118 
L 481.904912 349.346533 
L 492.383861 345.458555 
L 502.87296 341.328529 
L 513.374655 336.952633 
L 523.891438 332.326877 
L 534.425848 327.44709 
L 544.980475 322.308917 
L 555.557965 316.907813 
L 566.161018 311.23903 
L 576.792397 305.297616 
L 587.454928 299.078399 
L 598.151505 292.575985 
L 608.885094 285.784743 
L 618.023668 279.791609 
L 618.023668 279.791609 
" style="fill:none;stroke:#9467bd;stroke-linecap:square;stroke-width:4;"/>
   </g>
   <g id="line2d_106">
    <path clip-path="url(#p8a24fd0cb4)" d="M 543.975998 413.01487 
L 549.380327 400.626684 
L 554.653571 389.084503 
L 559.880253 378.173393 
L 564.962692 368.066841 
L 569.987656 358.561493 
L 574.950789 349.647844 
L 579.753528 341.471456 
L 584.485477 333.848156 
L 589.143097 326.764783 
L 593.62749 320.339928 
L 598.03057 314.410149 
L 602.349608 308.959701 
L 606.582091 303.9722 
L 610.725723 299.430696 
L 614.778415 295.317756 
L 618.738286 291.615543 
L 622.603654 288.30589 
L 626.373035 285.370373 
L 630.045128 282.790388 
L 633.618816 280.547217 
L 637.093151 278.622093 
L 638.539733 277.8955 
L 638.539733 277.8955 
" style="fill:none;stroke:#8c564b;stroke-linecap:square;stroke-width:4;"/>
   </g>
   <g id="line2d_107">
    <path clip-path="url(#p8a24fd0cb4)" d="M 409.920078 463.694389 
L 442.962289 440.311576 
L 473.53269 418.408861 
L 502.008815 397.736238 
L 528.461745 378.259682 
L 552.964919 359.943832 
L 575.356459 342.934035 
L 596.200375 326.822946 
L 615.326256 311.759871 
L 632.814254 297.705509 
L 648.745491 284.619948 
L 659.030421 276.001737 
L 659.030421 276.001737 
" style="fill:none;stroke:#e377c2;stroke-linecap:square;stroke-width:4;"/>
   </g>
   <g id="line2d_108">
    <path clip-path="url(#p8a24fd0cb4)" d="M 595.926187 523.441237 
L 595.592805 510.568111 
L 595.493905 498.331323 
L 595.61812 486.368868 
L 595.9535 475.010498 
L 596.501595 463.910319 
L 597.238101 453.383308 
L 598.177226 443.099156 
L 599.320164 433.057777 
L 600.624296 423.552511 
L 602.122458 414.275546 
L 603.760021 405.506286 
L 605.582056 396.95151 
L 607.589813 388.611409 
L 609.710864 380.744971 
L 612.008299 373.080077 
L 614.398018 365.862554 
L 616.954952 358.833982 
L 619.680344 351.99473 
L 622.472811 345.571341 
L 625.42472 339.325232 
L 628.537313 333.256848 
L 631.811872 327.366676 
L 635.124114 321.856134 
L 638.589419 316.512292 
L 642.209049 311.335688 
L 645.984309 306.326899 
L 649.916541 301.486533 
L 654.00713 296.815238 
L 658.097212 292.477385 
L 662.336767 288.297588 
L 666.727144 284.276523 
L 671.269726 280.4149 
L 675.965938 276.713463 
L 679.49578 274.110315 
L 679.49578 274.110315 
" style="fill:none;stroke:#7f7f7f;stroke-linecap:square;stroke-width:4;"/>
   </g>
   <g id="line2d_109">
    <path clip-path="url(#p8a24fd0cb4)" d="M 607.24492 463.595254 
L 615.097619 451.335886 
L 622.621436 439.181517 
L 629.931021 426.949496 
L 636.916399 414.826668 
L 643.583394 402.816292 
L 650.037175 390.732218 
L 656.178022 378.764777 
L 662.104598 366.725531 
L 667.724142 354.807099 
L 673.128672 342.818775 
L 678.232522 330.955444 
L 683.04255 319.220299 
L 687.640635 307.419272 
L 691.951971 295.750564 
L 696.051527 284.017918 
L 699.935855 272.221229 
L 699.935855 272.221229 
" style="fill:none;stroke:#bcbd22;stroke-linecap:square;stroke-width:4;"/>
   </g>
   <g id="line2d_110">
    <path clip-path="url(#p8a24fd0cb4)" d="M 564.165802 374.331543 
L 570.587076 371.092485 
L 577.906688 367.14426 
L 586.223951 362.399559 
L 595.649086 356.762081 
L 606.304996 350.125064 
L 618.329409 342.369513 
L 631.877492 333.362029 
L 647.12504 322.952159 
L 664.272405 310.969119 
L 683.342069 297.366988 
L 704.76896 281.804644 
L 720.350695 270.334476 
L 720.350695 270.334476 
" style="fill:none;stroke:#17becf;stroke-linecap:square;stroke-width:4;"/>
   </g>
   <g id="line2d_111">
    <path clip-path="url(#p8a24fd0cb4)" d="M 598.435393 445.341141 
L 617.974062 420.976984 
L 715.962496 299.218155 
L 740.740345 268.450051 
L 740.740345 268.450051 
" style="fill:none;stroke:#1f77b4;stroke-linecap:square;stroke-width:4;"/>
   </g>
   <g id="line2d_112">
    <path clip-path="url(#p8a24fd0cb4)" d="M 409.139304 370.937787 
L 414.759239 370.676491 
L 420.305754 370.197841 
L 425.647854 369.517757 
L 430.916949 368.624265 
L 435.98571 367.543896 
L 440.982089 366.254462 
L 445.904631 364.752992 
L 450.631615 363.082047 
L 455.285628 361.203887 
L 459.865278 359.115689 
L 464.369153 356.81461 
L 468.795829 354.297783 
L 473.033369 351.635215 
L 477.194902 348.762388 
L 481.279068 345.676593 
L 485.284491 342.375099 
L 489.209782 338.85516 
L 493.053539 335.114009 
L 496.814347 331.148861 
L 500.586369 326.843512 
L 504.267951 322.296221 
L 507.857516 317.50392 
L 511.353473 312.463523 
L 514.754215 307.171924 
L 518.058123 301.626 
L 519.632148 298.831065 
L 519.632148 298.831065 
" style="fill:none;stroke:#ff7f0e;stroke-linecap:square;stroke-width:4;"/>
   </g>
   <g id="line2d_113">
    <path clip-path="url(#p8a24fd0cb4)" d="M 569.510132 467.290738 
L 563.07504 442.588645 
L 557.526875 420.425191 
L 552.816065 400.705648 
L 548.885999 383.31263 
L 545.674641 368.110258 
L 543.116125 354.948389 
L 541.142268 343.666768 
L 539.662944 333.947955 
L 538.642753 325.806026 
L 538.013408 319.070448 
L 537.705519 313.469194 
L 537.66992 308.97292 
L 537.852969 305.347199 
L 538.211993 302.481009 
L 538.706701 300.268502 
L 539.299421 298.609839 
L 539.955283 297.411869 
L 540.336889 296.911325 
L 540.336889 296.911325 
" style="fill:none;stroke:#2ca02c;stroke-linecap:square;stroke-width:4;"/>
   </g>
   <g id="line2d_114">
    <path clip-path="url(#p8a24fd0cb4)" d="M 371.959601 467.390099 
L 390.916908 452.141494 
L 409.13746 437.200176 
L 426.417552 422.742762 
L 442.782774 408.763395 
L 458.259205 395.256038 
L 473.065102 382.041386 
L 487.023373 369.289275 
L 500.340746 356.823212 
L 512.853302 344.809655 
L 524.75613 333.074972 
L 535.8984 321.782248 
L 546.463483 310.760755 
L 556.461934 300.008087 
L 561.015861 294.993975 
L 561.015861 294.993975 
" style="fill:none;stroke:#d62728;stroke-linecap:square;stroke-width:4;"/>
   </g>
   <g id="line2d_115">
    <path clip-path="url(#p8a24fd0cb4)" d="M 341.285651 489.641469 
L 384.810844 454.842199 
L 426.334159 421.360057 
L 465.830268 389.229174 
L 503.285619 358.475712 
L 538.928224 328.926245 
L 572.748894 300.600658 
L 581.669112 293.07901 
L 581.669112 293.07901 
" style="fill:none;stroke:#9467bd;stroke-linecap:square;stroke-width:4;"/>
   </g>
   <g id="line2d_116">
    <path clip-path="url(#p8a24fd0cb4)" d="M 291.371247 364.078956 
L 327.806516 356.590084 
L 363.214083 349.088432 
L 397.794412 341.535956 
L 431.111648 334.033595 
L 463.385016 326.538985 
L 494.211142 319.154119 
L 523.827913 311.831594 
L 551.871834 304.672164 
L 578.597213 297.623035 
L 602.29669 291.166425 
L 602.29669 291.166425 
" style="fill:none;stroke:#8c564b;stroke-linecap:square;stroke-width:4;"/>
   </g>
   <g id="line2d_117">
    <path clip-path="url(#p8a24fd0cb4)" d="M 701.195881 493.194592 
L 694.475556 480.397246 
L 687.955963 467.504774 
L 681.735403 454.714898 
L 675.717603 441.833243 
L 669.994427 429.060376 
L 664.47564 416.199115 
L 659.246515 403.452803 
L 654.223003 390.621507 
L 649.483651 377.911279 
L 644.950733 365.119495 
L 640.695938 352.454842 
L 636.647999 339.712067 
L 632.810426 326.891623 
L 629.244408 314.206044 
L 625.888695 301.446267 
L 622.898643 289.256216 
L 622.898643 289.256216 
" style="fill:none;stroke:#e377c2;stroke-linecap:square;stroke-width:4;"/>
   </g>
   <g id="line2d_118">
    <path clip-path="url(#p8a24fd0cb4)" d="M 646.221598 384.7455 
L 642.749417 384.403032 
L 639.595117 383.866852 
L 636.822494 383.176002 
L 634.321975 382.332655 
L 632.008029 381.316894 
L 629.945655 380.166857 
L 628.119069 378.896835 
L 626.460258 377.470789 
L 625.017467 375.94251 
L 623.733938 374.26554 
L 622.610963 372.438384 
L 621.649881 370.4595 
L 620.827501 368.251019 
L 620.181451 365.876642 
L 619.700868 363.246842 
L 619.412224 360.435756 
L 619.317675 357.341491 
L 619.438942 353.943075 
L 619.798888 350.21837 
L 620.42159 346.143994 
L 621.332413 341.695247 
L 622.55809 336.846017 
L 624.126818 331.568689 
L 626.068353 325.834033 
L 628.414126 319.611089 
L 631.197361 312.867037 
L 634.453216 305.567053 
L 638.218929 297.67415 
L 642.533987 289.149005 
L 643.475017 287.348379 
L 643.475017 287.348379 
" style="fill:none;stroke:#7f7f7f;stroke-linecap:square;stroke-width:4;"/>
   </g>
   <g id="line2d_119">
    <path clip-path="url(#p8a24fd0cb4)" d="M 540.188991 489.540743 
L 566.618064 444.284631 
L 589.331069 405.819566 
L 608.686678 373.462911 
L 625.04485 346.537848 
L 638.543447 324.733188 
L 649.580458 307.312272 
L 658.437636 293.732738 
L 664.025862 285.442909 
L 664.025862 285.442909 
" style="fill:none;stroke:#bcbd22;stroke-linecap:square;stroke-width:4;"/>
   </g>
   <g id="line2d_120">
    <path clip-path="url(#p8a24fd0cb4)" d="M 701.219203 416.4998 
L 698.207629 411.857037 
L 695.38931 407.097548 
L 692.823161 402.329656 
L 690.447085 397.447583 
L 688.26375 392.450033 
L 686.275855 387.3357 
L 684.524581 382.223503 
L 682.965142 376.997268 
L 681.600137 371.655739 
L 680.432194 366.197652 
L 679.463967 360.621731 
L 678.698138 354.926689 
L 678.137418 349.111227 
L 677.784544 343.174035 
L 677.641503 336.971382 
L 677.721979 330.63846 
L 678.028998 324.173829 
L 678.565615 317.576038 
L 679.334922 310.84362 
L 680.365645 303.817402 
L 681.64639 296.647229 
L 683.180564 289.331493 
L 684.551224 283.539801 
L 684.551224 283.539801 
" style="fill:none;stroke:#17becf;stroke-linecap:square;stroke-width:4;"/>
   </g>
   <g id="line2d_121">
    <path clip-path="url(#p8a24fd0cb4)" d="M 502.075492 493.295543 
L 531.170556 465.176786 
L 557.513778 439.411699 
L 581.210624 415.928178 
L 602.382862 394.639406 
L 621.165739 375.446134 
L 637.903346 358.030737 
L 652.518078 342.510898 
L 665.335106 328.581479 
L 676.320821 316.322562 
L 685.774229 305.447864 
L 693.69669 296.007243 
L 700.355565 287.738254 
L 705.051151 281.639052 
L 705.051151 281.639052 
" style="fill:none;stroke:#1f77b4;stroke-linecap:square;stroke-width:4;"/>
   </g>
   <g id="line2d_122">
    <defs>
     <path d="M 0 10 
C 2.652031 10 5.195799 8.946337 7.071068 7.071068 
C 8.946337 5.195799 10 2.652031 10 0 
C 10 -2.652031 8.946337 -5.195799 7.071068 -7.071068 
C 5.195799 -8.946337 2.652031 -10 0 -10 
C -2.652031 -10 -5.195799 -8.946337 -7.071068 -7.071068 
C -8.946337 -5.195799 -10 -2.652031 -10 0 
C -10 2.652031 -8.946337 5.195799 -7.071068 7.071068 
C -5.195799 8.946337 -2.652031 10 0 10 
z
" id="maec655924b" style="stroke:#000000;"/>
    </defs>
    <g clip-path="url(#p8a24fd0cb4)">
     <use style="stroke:#000000;" x="466.581418" xlink:href="#maec655924b" y="188.303823"/>
    </g>
   </g>
   <g id="line2d_123">
    <g clip-path="url(#p8a24fd0cb4)">
     <use style="stroke:#000000;" x="486.576173" xlink:href="#maec655924b" y="186.519225"/>
    </g>
   </g>
   <g id="line2d_124">
    <g clip-path="url(#p8a24fd0cb4)">
     <use style="stroke:#000000;" x="506.546933" xlink:href="#maec655924b" y="184.736768"/>
    </g>
   </g>
   <g id="line2d_125">
    <g clip-path="url(#p8a24fd0cb4)">
     <use style="stroke:#000000;" x="526.493742" xlink:href="#maec655924b" y="182.95645"/>
    </g>
   </g>
   <g id="line2d_126">
    <g clip-path="url(#p8a24fd0cb4)">
     <use style="stroke:#000000;" x="546.416643" xlink:href="#maec655924b" y="181.178265"/>
    </g>
   </g>
   <g id="line2d_127">
    <g clip-path="url(#p8a24fd0cb4)">
     <use style="stroke:#000000;" x="566.315678" xlink:href="#maec655924b" y="179.40221"/>
    </g>
   </g>
   <g id="line2d_128">
    <g clip-path="url(#p8a24fd0cb4)">
     <use style="stroke:#000000;" x="586.190891" xlink:href="#maec655924b" y="177.628281"/>
    </g>
   </g>
   <g id="line2d_129">
    <g clip-path="url(#p8a24fd0cb4)">
     <use style="stroke:#000000;" x="606.042324" xlink:href="#maec655924b" y="175.856475"/>
    </g>
   </g>
   <g id="line2d_130">
    <g clip-path="url(#p8a24fd0cb4)">
     <use style="stroke:#000000;" x="625.87002" xlink:href="#maec655924b" y="174.086788"/>
    </g>
   </g>
   <g id="line2d_131">
    <g clip-path="url(#p8a24fd0cb4)">
     <use style="stroke:#000000;" x="645.674022" xlink:href="#maec655924b" y="172.319215"/>
    </g>
   </g>
   <g id="line2d_132">
    <g clip-path="url(#p8a24fd0cb4)">
     <use style="stroke:#000000;" x="430.679893" xlink:href="#maec655924b" y="200.807939"/>
    </g>
   </g>
   <g id="line2d_133">
    <g clip-path="url(#p8a24fd0cb4)">
     <use style="stroke:#000000;" x="450.780353" xlink:href="#maec655924b" y="199.008299"/>
    </g>
   </g>
   <g id="line2d_134">
    <g clip-path="url(#p8a24fd0cb4)">
     <use style="stroke:#000000;" x="470.856591" xlink:href="#maec655924b" y="197.210829"/>
    </g>
   </g>
   <g id="line2d_135">
    <g clip-path="url(#p8a24fd0cb4)">
     <use style="stroke:#000000;" x="490.908651" xlink:href="#maec655924b" y="195.415523"/>
    </g>
   </g>
   <g id="line2d_136">
    <g clip-path="url(#p8a24fd0cb4)">
     <use style="stroke:#000000;" x="510.936574" xlink:href="#maec655924b" y="193.622377"/>
    </g>
   </g>
   <g id="line2d_137">
    <g clip-path="url(#p8a24fd0cb4)">
     <use style="stroke:#000000;" x="530.940406" xlink:href="#maec655924b" y="191.831389"/>
    </g>
   </g>
   <g id="line2d_138">
    <g clip-path="url(#p8a24fd0cb4)">
     <use style="stroke:#000000;" x="550.92019" xlink:href="#maec655924b" y="190.042554"/>
    </g>
   </g>
   <g id="line2d_139">
    <g clip-path="url(#p8a24fd0cb4)">
     <use style="stroke:#000000;" x="570.875969" xlink:href="#maec655924b" y="188.255868"/>
    </g>
   </g>
   <g id="line2d_140">
    <g clip-path="url(#p8a24fd0cb4)">
     <use style="stroke:#000000;" x="590.807786" xlink:href="#maec655924b" y="186.471328"/>
    </g>
   </g>
   <g id="line2d_141">
    <g clip-path="url(#p8a24fd0cb4)">
     <use style="stroke:#000000;" x="610.715684" xlink:href="#maec655924b" y="184.688929"/>
    </g>
   </g>
   <g id="line2d_142">
    <g clip-path="url(#p8a24fd0cb4)">
     <use style="stroke:#000000;" x="630.599707" xlink:href="#maec655924b" y="182.908667"/>
    </g>
   </g>
   <g id="line2d_143">
    <g clip-path="url(#p8a24fd0cb4)">
     <use style="stroke:#000000;" x="650.459898" xlink:href="#maec655924b" y="181.13054"/>
    </g>
   </g>
   <g id="line2d_144">
    <g clip-path="url(#p8a24fd0cb4)">
     <use style="stroke:#000000;" x="670.296298" xlink:href="#maec655924b" y="179.354542"/>
    </g>
   </g>
   <g id="line2d_145">
    <g clip-path="url(#p8a24fd0cb4)">
     <use style="stroke:#000000;" x="690.108951" xlink:href="#maec655924b" y="177.580671"/>
    </g>
   </g>
   <g id="line2d_146">
    <g clip-path="url(#p8a24fd0cb4)">
     <use style="stroke:#000000;" x="398.568543" xlink:href="#maec655924b" y="222.476081"/>
    </g>
   </g>
   <g id="line2d_147">
    <g clip-path="url(#p8a24fd0cb4)">
     <use style="stroke:#000000;" x="459.292144" xlink:href="#maec655924b" y="217.005163"/>
    </g>
   </g>
   <g id="line2d_148">
    <g clip-path="url(#p8a24fd0cb4)">
     <use style="stroke:#000000;" x="479.484266" xlink:href="#maec655924b" y="215.185946"/>
    </g>
   </g>
   <g id="line2d_149">
    <g clip-path="url(#p8a24fd0cb4)">
     <use style="stroke:#000000;" x="560.008546" xlink:href="#maec655924b" y="207.931078"/>
    </g>
   </g>
   <g id="line2d_150">
    <g clip-path="url(#p8a24fd0cb4)">
     <use style="stroke:#000000;" x="580.078786" xlink:href="#maec655924b" y="206.122842"/>
    </g>
   </g>
   <g id="line2d_151">
    <g clip-path="url(#p8a24fd0cb4)">
     <use style="stroke:#000000;" x="660.117744" xlink:href="#maec655924b" y="198.9117"/>
    </g>
   </g>
   <g id="line2d_152">
    <g clip-path="url(#p8a24fd0cb4)">
     <use style="stroke:#000000;" x="680.067202" xlink:href="#maec655924b" y="197.114345"/>
    </g>
   </g>
   <g id="line2d_153">
    <g clip-path="url(#p8a24fd0cb4)">
     <use style="stroke:#000000;" x="739.771597" xlink:href="#maec655924b" y="191.735254"/>
    </g>
   </g>
   <g id="line2d_154">
    <g clip-path="url(#p8a24fd0cb4)">
     <use style="stroke:#000000;" x="402.686862" xlink:href="#maec655924b" y="231.589374"/>
    </g>
   </g>
   <g id="line2d_155">
    <g clip-path="url(#p8a24fd0cb4)">
     <use style="stroke:#000000;" x="443.311449" xlink:href="#maec655924b" y="227.917738"/>
    </g>
   </g>
   <g id="line2d_156">
    <g clip-path="url(#p8a24fd0cb4)">
     <use style="stroke:#000000;" x="504.063191" xlink:href="#maec655924b" y="222.427017"/>
    </g>
   </g>
   <g id="line2d_157">
    <g clip-path="url(#p8a24fd0cb4)">
     <use style="stroke:#000000;" x="544.441451" xlink:href="#maec655924b" y="218.777644"/>
    </g>
   </g>
   <g id="line2d_158">
    <g clip-path="url(#p8a24fd0cb4)">
     <use style="stroke:#000000;" x="604.825384" xlink:href="#maec655924b" y="213.320166"/>
    </g>
   </g>
   <g id="line2d_159">
    <g clip-path="url(#p8a24fd0cb4)">
     <use style="stroke:#000000;" x="644.959552" xlink:href="#maec655924b" y="209.692854"/>
    </g>
   </g>
   <g id="line2d_160">
    <g clip-path="url(#p8a24fd0cb4)">
     <use style="stroke:#000000;" x="704.979007" xlink:href="#maec655924b" y="204.268317"/>
    </g>
   </g>
   <g id="line2d_161">
    <g clip-path="url(#p8a24fd0cb4)">
     <use style="stroke:#000000;" x="744.87129" xlink:href="#maec655924b" y="200.662867"/>
    </g>
   </g>
   <g id="line2d_162">
    <g clip-path="url(#p8a24fd0cb4)">
     <use style="stroke:#000000;" x="406.830223" xlink:href="#maec655924b" y="240.758081"/>
    </g>
   </g>
   <g id="line2d_163">
    <g clip-path="url(#p8a24fd0cb4)">
     <use style="stroke:#000000;" x="447.57311" xlink:href="#maec655924b" y="237.064099"/>
    </g>
   </g>
   <g id="line2d_164">
    <g clip-path="url(#p8a24fd0cb4)">
     <use style="stroke:#000000;" x="548.996296" xlink:href="#maec655924b" y="227.868497"/>
    </g>
   </g>
   <g id="line2d_165">
    <g clip-path="url(#p8a24fd0cb4)">
     <use style="stroke:#000000;" x="609.554395" xlink:href="#maec655924b" y="222.377955"/>
    </g>
   </g>
   <g id="line2d_166">
    <g clip-path="url(#p8a24fd0cb4)">
     <use style="stroke:#000000;" x="649.803954" xlink:href="#maec655924b" y="218.728701"/>
    </g>
   </g>
   <g id="line2d_167">
    <g clip-path="url(#p8a24fd0cb4)">
     <use style="stroke:#000000;" x="750.001672" xlink:href="#maec655924b" y="209.644207"/>
    </g>
   </g>
   <g id="line2d_168">
    <g clip-path="url(#p8a24fd0cb4)">
     <use style="stroke:#000000;" x="410.998855" xlink:href="#maec655924b" y="249.982709"/>
    </g>
   </g>
   <g id="line2d_169">
    <g clip-path="url(#p8a24fd0cb4)">
     <use style="stroke:#000000;" x="451.860731" xlink:href="#maec655924b" y="246.266177"/>
    </g>
   </g>
   <g id="line2d_170">
    <g clip-path="url(#p8a24fd0cb4)">
     <use style="stroke:#000000;" x="553.578802" xlink:href="#maec655924b" y="237.014558"/>
    </g>
   </g>
   <g id="line2d_171">
    <g clip-path="url(#p8a24fd0cb4)">
     <use style="stroke:#000000;" x="614.312073" xlink:href="#maec655924b" y="231.490652"/>
    </g>
   </g>
   <g id="line2d_172">
    <g clip-path="url(#p8a24fd0cb4)">
     <use style="stroke:#000000;" x="674.823659" xlink:href="#maec655924b" y="225.986909"/>
    </g>
   </g>
   <g id="line2d_173">
    <g clip-path="url(#p8a24fd0cb4)">
     <use style="stroke:#000000;" x="694.945134" xlink:href="#maec655924b" y="224.15679"/>
    </g>
   </g>
   <g id="line2d_174">
    <g clip-path="url(#p8a24fd0cb4)">
     <use style="stroke:#000000;" x="755.163023" xlink:href="#maec655924b" y="218.67976"/>
    </g>
   </g>
   <g id="line2d_175">
    <g clip-path="url(#p8a24fd0cb4)">
     <use style="stroke:#000000;" x="415.19299" xlink:href="#maec655924b" y="259.263771"/>
    </g>
   </g>
   <g id="line2d_176">
    <g clip-path="url(#p8a24fd0cb4)">
     <use style="stroke:#000000;" x="456.174551" xlink:href="#maec655924b" y="255.524481"/>
    </g>
   </g>
   <g id="line2d_177">
    <g clip-path="url(#p8a24fd0cb4)">
     <use style="stroke:#000000;" x="558.189223" xlink:href="#maec655924b" y="246.216333"/>
    </g>
   </g>
   <g id="line2d_178">
    <g clip-path="url(#p8a24fd0cb4)">
     <use style="stroke:#000000;" x="578.517229" xlink:href="#maec655924b" y="244.361541"/>
    </g>
   </g>
   <g id="line2d_179">
    <g clip-path="url(#p8a24fd0cb4)">
     <use style="stroke:#000000;" x="598.820366" xlink:href="#maec655924b" y="242.509017"/>
    </g>
   </g>
   <g id="line2d_180">
    <g clip-path="url(#p8a24fd0cb4)">
     <use style="stroke:#000000;" x="619.09868" xlink:href="#maec655924b" y="240.658758"/>
    </g>
   </g>
   <g id="line2d_181">
    <g clip-path="url(#p8a24fd0cb4)">
     <use style="stroke:#000000;" x="720.119483" xlink:href="#maec655924b" y="231.441294"/>
    </g>
   </g>
   <g id="line2d_182">
    <g clip-path="url(#p8a24fd0cb4)">
     <use style="stroke:#000000;" x="760.355624" xlink:href="#maec655924b" y="227.770019"/>
    </g>
   </g>
   <g id="line2d_183">
    <g clip-path="url(#p8a24fd0cb4)">
     <use style="stroke:#000000;" x="419.412862" xlink:href="#maec655924b" y="268.601788"/>
    </g>
   </g>
   <g id="line2d_184">
    <g clip-path="url(#p8a24fd0cb4)">
     <use style="stroke:#000000;" x="460.514811" xlink:href="#maec655924b" y="264.83953"/>
    </g>
   </g>
   <g id="line2d_185">
    <g clip-path="url(#p8a24fd0cb4)">
     <use style="stroke:#000000;" x="521.978129" xlink:href="#maec655924b" y="259.2135"/>
    </g>
   </g>
   <g id="line2d_186">
    <g clip-path="url(#p8a24fd0cb4)">
     <use style="stroke:#000000;" x="562.827814" xlink:href="#maec655924b" y="255.474333"/>
    </g>
   </g>
   <g id="line2d_187">
    <g clip-path="url(#p8a24fd0cb4)">
     <use style="stroke:#000000;" x="623.914479" xlink:href="#maec655924b" y="249.88278"/>
    </g>
   </g>
   <g id="line2d_188">
    <g clip-path="url(#p8a24fd0cb4)">
     <use style="stroke:#000000;" x="664.514217" xlink:href="#maec655924b" y="246.166492"/>
    </g>
   </g>
   <g id="line2d_189">
    <g clip-path="url(#p8a24fd0cb4)">
     <use style="stroke:#000000;" x="725.227681" xlink:href="#maec655924b" y="240.609099"/>
    </g>
   </g>
   <g id="line2d_190">
    <g clip-path="url(#p8a24fd0cb4)">
     <use style="stroke:#000000;" x="765.579758" xlink:href="#maec655924b" y="236.915481"/>
    </g>
   </g>
   <g id="line2d_191">
    <g clip-path="url(#p8a24fd0cb4)">
     <use style="stroke:#000000;" x="423.658709" xlink:href="#maec655924b" y="277.997283"/>
    </g>
   </g>
   <g id="line2d_192">
    <g clip-path="url(#p8a24fd0cb4)">
     <use style="stroke:#000000;" x="485.455079" xlink:href="#maec655924b" y="272.322635"/>
    </g>
   </g>
   <g id="line2d_193">
    <g clip-path="url(#p8a24fd0cb4)">
     <use style="stroke:#000000;" x="506.003003" xlink:href="#maec655924b" y="270.435757"/>
    </g>
   </g>
   <g id="line2d_194">
    <g clip-path="url(#p8a24fd0cb4)">
     <use style="stroke:#000000;" x="567.494835" xlink:href="#maec655924b" y="264.789074"/>
    </g>
   </g>
   <g id="line2d_195">
    <g clip-path="url(#p8a24fd0cb4)">
     <use style="stroke:#000000;" x="628.75974" xlink:href="#maec655924b" y="259.16323"/>
    </g>
   </g>
   <g id="line2d_196">
    <g clip-path="url(#p8a24fd0cb4)">
     <use style="stroke:#000000;" x="689.798971" xlink:href="#maec655924b" y="253.558108"/>
    </g>
   </g>
   <g id="line2d_197">
    <g clip-path="url(#p8a24fd0cb4)">
     <use style="stroke:#000000;" x="710.095447" xlink:href="#maec655924b" y="251.69432"/>
    </g>
   </g>
   <g id="line2d_198">
    <g clip-path="url(#p8a24fd0cb4)">
     <use style="stroke:#000000;" x="770.835714" xlink:href="#maec655924b" y="246.116652"/>
    </g>
   </g>
   <g id="line2d_199">
    <g clip-path="url(#p8a24fd0cb4)">
     <use style="stroke:#000000;" x="473.696679" xlink:href="#maec655924b" y="293.130407"/>
    </g>
   </g>
   <g id="line2d_200">
    <g clip-path="url(#p8a24fd0cb4)">
     <use style="stroke:#000000;" x="494.39171" xlink:href="#maec655924b" y="291.217758"/>
    </g>
   </g>
   <g id="line2d_201">
    <g clip-path="url(#p8a24fd0cb4)">
     <use style="stroke:#000000;" x="515.061032" xlink:href="#maec655924b" y="289.307485"/>
    </g>
   </g>
   <g id="line2d_202">
    <g clip-path="url(#p8a24fd0cb4)">
     <use style="stroke:#000000;" x="535.704692" xlink:href="#maec655924b" y="287.399584"/>
    </g>
   </g>
   <g id="line2d_203">
    <g clip-path="url(#p8a24fd0cb4)">
     <use style="stroke:#000000;" x="556.322738" xlink:href="#maec655924b" y="285.49405"/>
    </g>
   </g>
   <g id="line2d_204">
    <g clip-path="url(#p8a24fd0cb4)">
     <use style="stroke:#000000;" x="576.915217" xlink:href="#maec655924b" y="283.59088"/>
    </g>
   </g>
   <g id="line2d_205">
    <g clip-path="url(#p8a24fd0cb4)">
     <use style="stroke:#000000;" x="597.482178" xlink:href="#maec655924b" y="281.690067"/>
    </g>
   </g>
   <g id="line2d_206">
    <g clip-path="url(#p8a24fd0cb4)">
     <use style="stroke:#000000;" x="618.023668" xlink:href="#maec655924b" y="279.791609"/>
    </g>
   </g>
   <g id="line2d_207">
    <g clip-path="url(#p8a24fd0cb4)">
     <use style="stroke:#000000;" x="638.539733" xlink:href="#maec655924b" y="277.8955"/>
    </g>
   </g>
   <g id="line2d_208">
    <g clip-path="url(#p8a24fd0cb4)">
     <use style="stroke:#000000;" x="659.030421" xlink:href="#maec655924b" y="276.001737"/>
    </g>
   </g>
   <g id="line2d_209">
    <g clip-path="url(#p8a24fd0cb4)">
     <use style="stroke:#000000;" x="679.49578" xlink:href="#maec655924b" y="274.110315"/>
    </g>
   </g>
   <g id="line2d_210">
    <g clip-path="url(#p8a24fd0cb4)">
     <use style="stroke:#000000;" x="699.935855" xlink:href="#maec655924b" y="272.221229"/>
    </g>
   </g>
   <g id="line2d_211">
    <g clip-path="url(#p8a24fd0cb4)">
     <use style="stroke:#000000;" x="720.350695" xlink:href="#maec655924b" y="270.334476"/>
    </g>
   </g>
   <g id="line2d_212">
    <g clip-path="url(#p8a24fd0cb4)">
     <use style="stroke:#000000;" x="740.740345" xlink:href="#maec655924b" y="268.450051"/>
    </g>
   </g>
   <g id="line2d_213">
    <g clip-path="url(#p8a24fd0cb4)">
     <use style="stroke:#000000;" x="519.632148" xlink:href="#maec655924b" y="298.831065"/>
    </g>
   </g>
   <g id="line2d_214">
    <g clip-path="url(#p8a24fd0cb4)">
     <use style="stroke:#000000;" x="540.336889" xlink:href="#maec655924b" y="296.911325"/>
    </g>
   </g>
   <g id="line2d_215">
    <g clip-path="url(#p8a24fd0cb4)">
     <use style="stroke:#000000;" x="561.015861" xlink:href="#maec655924b" y="294.993975"/>
    </g>
   </g>
   <g id="line2d_216">
    <g clip-path="url(#p8a24fd0cb4)">
     <use style="stroke:#000000;" x="581.669112" xlink:href="#maec655924b" y="293.07901"/>
    </g>
   </g>
   <g id="line2d_217">
    <g clip-path="url(#p8a24fd0cb4)">
     <use style="stroke:#000000;" x="602.29669" xlink:href="#maec655924b" y="291.166425"/>
    </g>
   </g>
   <g id="line2d_218">
    <g clip-path="url(#p8a24fd0cb4)">
     <use style="stroke:#000000;" x="622.898643" xlink:href="#maec655924b" y="289.256216"/>
    </g>
   </g>
   <g id="line2d_219">
    <g clip-path="url(#p8a24fd0cb4)">
     <use style="stroke:#000000;" x="643.475017" xlink:href="#maec655924b" y="287.348379"/>
    </g>
   </g>
   <g id="line2d_220">
    <g clip-path="url(#p8a24fd0cb4)">
     <use style="stroke:#000000;" x="664.025862" xlink:href="#maec655924b" y="285.442909"/>
    </g>
   </g>
   <g id="line2d_221">
    <g clip-path="url(#p8a24fd0cb4)">
     <use style="stroke:#000000;" x="684.551224" xlink:href="#maec655924b" y="283.539801"/>
    </g>
   </g>
   <g id="line2d_222">
    <g clip-path="url(#p8a24fd0cb4)">
     <use style="stroke:#000000;" x="705.051151" xlink:href="#maec655924b" y="281.639052"/>
    </g>
   </g>
  </g>
 </g>
 <defs>
  <clipPath id="p8a24fd0cb4">
   <rect height="596.333278" width="929.927987" x="32.196006" y="42.393361"/>
  </clipPath>
 </defs>
</svg>
