<?xml version="1.0" encoding="utf-8" standalone="no"?>
<!DOCTYPE svg PUBLIC "-//W3C//DTD SVG 1.1//EN"
  "http://www.w3.org/Graphics/SVG/1.1/DTD/svg11.dtd">
<svg height="720pt" version="1.1" viewBox="0 0 959.976 720" width="959.976pt" xmlns="http://www.w3.org/2000/svg" xmlns:xlink="http://www.w3.org/1999/xlink">
 <metadata>
  <rdf:RDF xmlns:cc="http://creativecommons.org/ns#" xmlns:dc="http://purl.org/dc/elements/1.1/" xmlns:rdf="http://www.w3.org/1999/02/22-rdf-syntax-ns#">
   <cc:Work>
    <dc:type rdf:resource="http://purl.org/dc/dcmitype/StillImage"/>
    <dc:date>2021-10-18T11:14:02.134306</dc:date>
    <dc:format>image/svg+xml</dc:format>
    <dc:creator>
     <cc:Agent>
      <dc:title>Matplotlib v3.4.2, https://matplotlib.org/</dc:title>
     </cc:Agent>
    </dc:creator>
   </cc:Work>
  </rdf:RDF>
 </metadata>
 <defs>
  <style type="text/css">*{stroke-linecap:butt;stroke-linejoin:round;}</style>
 </defs>
 <g id="figure_1">
  <g id="patch_1">
   <path d="M 0 720 
L 959.976 720 
L 959.976 0 
L 0 0 
z
" style="fill:#ffffff;"/>
  </g>
  <g id="axes_1">
   <g id="patch_2">
    <path d="M 144.08225 619.72 
L 925.416 619.72 
L 925.416 34.56 
L 144.08225 34.56 
z
" style="fill:#ffffff;"/>
   </g>
   <g id="matplotlib.axis_1">
    <g id="xtick_1">
     <g id="line2d_1">
      <defs>
       <path d="M 0 0 
L 0 3.5 
" id="m149fa8295d" style="stroke:#000000;stroke-width:0.8;"/>
      </defs>
      <g>
       <use style="stroke:#000000;stroke-width:0.8;" x="179.59742" xlink:href="#m149fa8295d" y="619.72"/>
      </g>
     </g>
     <g id="text_1">
      <!-- 10 -->
      <g transform="translate(164.32742 644.95625)scale(0.24 -0.24)">
       <defs>
        <path d="M 794 531 
L 1825 531 
L 1825 4091 
L 703 3866 
L 703 4441 
L 1819 4666 
L 2450 4666 
L 2450 531 
L 3481 531 
L 3481 0 
L 794 0 
L 794 531 
z
" id="DejaVuSans-31" transform="scale(0.015625)"/>
        <path d="M 2034 4250 
Q 1547 4250 1301 3770 
Q 1056 3291 1056 2328 
Q 1056 1369 1301 889 
Q 1547 409 2034 409 
Q 2525 409 2770 889 
Q 3016 1369 3016 2328 
Q 3016 3291 2770 3770 
Q 2525 4250 2034 4250 
z
M 2034 4750 
Q 2819 4750 3233 4129 
Q 3647 3509 3647 2328 
Q 3647 1150 3233 529 
Q 2819 -91 2034 -91 
Q 1250 -91 836 529 
Q 422 1150 422 2328 
Q 422 3509 836 4129 
Q 1250 4750 2034 4750 
z
" id="DejaVuSans-30" transform="scale(0.015625)"/>
       </defs>
       <use xlink:href="#DejaVuSans-31"/>
       <use x="63.623047" xlink:href="#DejaVuSans-30"/>
      </g>
     </g>
    </g>
    <g id="xtick_2">
     <g id="line2d_2">
      <g>
       <use style="stroke:#000000;stroke-width:0.8;" x="321.658102" xlink:href="#m149fa8295d" y="619.72"/>
      </g>
     </g>
     <g id="text_2">
      <!-- 12 -->
      <g transform="translate(306.388102 644.95625)scale(0.24 -0.24)">
       <defs>
        <path d="M 1228 531 
L 3431 531 
L 3431 0 
L 469 0 
L 469 531 
Q 828 903 1448 1529 
Q 2069 2156 2228 2338 
Q 2531 2678 2651 2914 
Q 2772 3150 2772 3378 
Q 2772 3750 2511 3984 
Q 2250 4219 1831 4219 
Q 1534 4219 1204 4116 
Q 875 4013 500 3803 
L 500 4441 
Q 881 4594 1212 4672 
Q 1544 4750 1819 4750 
Q 2544 4750 2975 4387 
Q 3406 4025 3406 3419 
Q 3406 3131 3298 2873 
Q 3191 2616 2906 2266 
Q 2828 2175 2409 1742 
Q 1991 1309 1228 531 
z
" id="DejaVuSans-32" transform="scale(0.015625)"/>
       </defs>
       <use xlink:href="#DejaVuSans-31"/>
       <use x="63.623047" xlink:href="#DejaVuSans-32"/>
      </g>
     </g>
    </g>
    <g id="xtick_3">
     <g id="line2d_3">
      <g>
       <use style="stroke:#000000;stroke-width:0.8;" x="463.718784" xlink:href="#m149fa8295d" y="619.72"/>
      </g>
     </g>
     <g id="text_3">
      <!-- 14 -->
      <g transform="translate(448.448784 644.95625)scale(0.24 -0.24)">
       <defs>
        <path d="M 2419 4116 
L 825 1625 
L 2419 1625 
L 2419 4116 
z
M 2253 4666 
L 3047 4666 
L 3047 1625 
L 3713 1625 
L 3713 1100 
L 3047 1100 
L 3047 0 
L 2419 0 
L 2419 1100 
L 313 1100 
L 313 1709 
L 2253 4666 
z
" id="DejaVuSans-34" transform="scale(0.015625)"/>
       </defs>
       <use xlink:href="#DejaVuSans-31"/>
       <use x="63.623047" xlink:href="#DejaVuSans-34"/>
      </g>
     </g>
    </g>
    <g id="xtick_4">
     <g id="line2d_4">
      <g>
       <use style="stroke:#000000;stroke-width:0.8;" x="605.779466" xlink:href="#m149fa8295d" y="619.72"/>
      </g>
     </g>
     <g id="text_4">
      <!-- 16 -->
      <g transform="translate(590.509466 644.95625)scale(0.24 -0.24)">
       <defs>
        <path d="M 2113 2584 
Q 1688 2584 1439 2293 
Q 1191 2003 1191 1497 
Q 1191 994 1439 701 
Q 1688 409 2113 409 
Q 2538 409 2786 701 
Q 3034 994 3034 1497 
Q 3034 2003 2786 2293 
Q 2538 2584 2113 2584 
z
M 3366 4563 
L 3366 3988 
Q 3128 4100 2886 4159 
Q 2644 4219 2406 4219 
Q 1781 4219 1451 3797 
Q 1122 3375 1075 2522 
Q 1259 2794 1537 2939 
Q 1816 3084 2150 3084 
Q 2853 3084 3261 2657 
Q 3669 2231 3669 1497 
Q 3669 778 3244 343 
Q 2819 -91 2113 -91 
Q 1303 -91 875 529 
Q 447 1150 447 2328 
Q 447 3434 972 4092 
Q 1497 4750 2381 4750 
Q 2619 4750 2861 4703 
Q 3103 4656 3366 4563 
z
" id="DejaVuSans-36" transform="scale(0.015625)"/>
       </defs>
       <use xlink:href="#DejaVuSans-31"/>
       <use x="63.623047" xlink:href="#DejaVuSans-36"/>
      </g>
     </g>
    </g>
    <g id="xtick_5">
     <g id="line2d_5">
      <g>
       <use style="stroke:#000000;stroke-width:0.8;" x="747.840148" xlink:href="#m149fa8295d" y="619.72"/>
      </g>
     </g>
     <g id="text_5">
      <!-- 18 -->
      <g transform="translate(732.570148 644.95625)scale(0.24 -0.24)">
       <defs>
        <path d="M 2034 2216 
Q 1584 2216 1326 1975 
Q 1069 1734 1069 1313 
Q 1069 891 1326 650 
Q 1584 409 2034 409 
Q 2484 409 2743 651 
Q 3003 894 3003 1313 
Q 3003 1734 2745 1975 
Q 2488 2216 2034 2216 
z
M 1403 2484 
Q 997 2584 770 2862 
Q 544 3141 544 3541 
Q 544 4100 942 4425 
Q 1341 4750 2034 4750 
Q 2731 4750 3128 4425 
Q 3525 4100 3525 3541 
Q 3525 3141 3298 2862 
Q 3072 2584 2669 2484 
Q 3125 2378 3379 2068 
Q 3634 1759 3634 1313 
Q 3634 634 3220 271 
Q 2806 -91 2034 -91 
Q 1263 -91 848 271 
Q 434 634 434 1313 
Q 434 1759 690 2068 
Q 947 2378 1403 2484 
z
M 1172 3481 
Q 1172 3119 1398 2916 
Q 1625 2713 2034 2713 
Q 2441 2713 2670 2916 
Q 2900 3119 2900 3481 
Q 2900 3844 2670 4047 
Q 2441 4250 2034 4250 
Q 1625 4250 1398 4047 
Q 1172 3844 1172 3481 
z
" id="DejaVuSans-38" transform="scale(0.015625)"/>
       </defs>
       <use xlink:href="#DejaVuSans-31"/>
       <use x="63.623047" xlink:href="#DejaVuSans-38"/>
      </g>
     </g>
    </g>
    <g id="xtick_6">
     <g id="line2d_6">
      <g>
       <use style="stroke:#000000;stroke-width:0.8;" x="889.90083" xlink:href="#m149fa8295d" y="619.72"/>
      </g>
     </g>
     <g id="text_6">
      <!-- 20 -->
      <g transform="translate(874.63083 644.95625)scale(0.24 -0.24)">
       <use xlink:href="#DejaVuSans-32"/>
       <use x="63.623047" xlink:href="#DejaVuSans-30"/>
      </g>
     </g>
    </g>
    <g id="text_7">
     <!-- Time (s) -->
     <g transform="translate(469.696625 678.2625)scale(0.32 -0.32)">
      <defs>
       <path d="M -19 4666 
L 3928 4666 
L 3928 4134 
L 2272 4134 
L 2272 0 
L 1638 0 
L 1638 4134 
L -19 4134 
L -19 4666 
z
" id="DejaVuSans-54" transform="scale(0.015625)"/>
       <path d="M 603 3500 
L 1178 3500 
L 1178 0 
L 603 0 
L 603 3500 
z
M 603 4863 
L 1178 4863 
L 1178 4134 
L 603 4134 
L 603 4863 
z
" id="DejaVuSans-69" transform="scale(0.015625)"/>
       <path d="M 3328 2828 
Q 3544 3216 3844 3400 
Q 4144 3584 4550 3584 
Q 5097 3584 5394 3201 
Q 5691 2819 5691 2113 
L 5691 0 
L 5113 0 
L 5113 2094 
Q 5113 2597 4934 2840 
Q 4756 3084 4391 3084 
Q 3944 3084 3684 2787 
Q 3425 2491 3425 1978 
L 3425 0 
L 2847 0 
L 2847 2094 
Q 2847 2600 2669 2842 
Q 2491 3084 2119 3084 
Q 1678 3084 1418 2786 
Q 1159 2488 1159 1978 
L 1159 0 
L 581 0 
L 581 3500 
L 1159 3500 
L 1159 2956 
Q 1356 3278 1631 3431 
Q 1906 3584 2284 3584 
Q 2666 3584 2933 3390 
Q 3200 3197 3328 2828 
z
" id="DejaVuSans-6d" transform="scale(0.015625)"/>
       <path d="M 3597 1894 
L 3597 1613 
L 953 1613 
Q 991 1019 1311 708 
Q 1631 397 2203 397 
Q 2534 397 2845 478 
Q 3156 559 3463 722 
L 3463 178 
Q 3153 47 2828 -22 
Q 2503 -91 2169 -91 
Q 1331 -91 842 396 
Q 353 884 353 1716 
Q 353 2575 817 3079 
Q 1281 3584 2069 3584 
Q 2775 3584 3186 3129 
Q 3597 2675 3597 1894 
z
M 3022 2063 
Q 3016 2534 2758 2815 
Q 2500 3097 2075 3097 
Q 1594 3097 1305 2825 
Q 1016 2553 972 2059 
L 3022 2063 
z
" id="DejaVuSans-65" transform="scale(0.015625)"/>
       <path id="DejaVuSans-20" transform="scale(0.015625)"/>
       <path d="M 1984 4856 
Q 1566 4138 1362 3434 
Q 1159 2731 1159 2009 
Q 1159 1288 1364 580 
Q 1569 -128 1984 -844 
L 1484 -844 
Q 1016 -109 783 600 
Q 550 1309 550 2009 
Q 550 2706 781 3412 
Q 1013 4119 1484 4856 
L 1984 4856 
z
" id="DejaVuSans-28" transform="scale(0.015625)"/>
       <path d="M 2834 3397 
L 2834 2853 
Q 2591 2978 2328 3040 
Q 2066 3103 1784 3103 
Q 1356 3103 1142 2972 
Q 928 2841 928 2578 
Q 928 2378 1081 2264 
Q 1234 2150 1697 2047 
L 1894 2003 
Q 2506 1872 2764 1633 
Q 3022 1394 3022 966 
Q 3022 478 2636 193 
Q 2250 -91 1575 -91 
Q 1294 -91 989 -36 
Q 684 19 347 128 
L 347 722 
Q 666 556 975 473 
Q 1284 391 1588 391 
Q 1994 391 2212 530 
Q 2431 669 2431 922 
Q 2431 1156 2273 1281 
Q 2116 1406 1581 1522 
L 1381 1569 
Q 847 1681 609 1914 
Q 372 2147 372 2553 
Q 372 3047 722 3315 
Q 1072 3584 1716 3584 
Q 2034 3584 2315 3537 
Q 2597 3491 2834 3397 
z
" id="DejaVuSans-73" transform="scale(0.015625)"/>
       <path d="M 513 4856 
L 1013 4856 
Q 1481 4119 1714 3412 
Q 1947 2706 1947 2009 
Q 1947 1309 1714 600 
Q 1481 -109 1013 -844 
L 513 -844 
Q 928 -128 1133 580 
Q 1338 1288 1338 2009 
Q 1338 2731 1133 3434 
Q 928 4138 513 4856 
z
" id="DejaVuSans-29" transform="scale(0.015625)"/>
      </defs>
      <use xlink:href="#DejaVuSans-54"/>
      <use x="57.958984" xlink:href="#DejaVuSans-69"/>
      <use x="85.742188" xlink:href="#DejaVuSans-6d"/>
      <use x="183.154297" xlink:href="#DejaVuSans-65"/>
      <use x="244.677734" xlink:href="#DejaVuSans-20"/>
      <use x="276.464844" xlink:href="#DejaVuSans-28"/>
      <use x="315.478516" xlink:href="#DejaVuSans-73"/>
      <use x="367.578125" xlink:href="#DejaVuSans-29"/>
     </g>
    </g>
   </g>
   <g id="matplotlib.axis_2">
    <g id="ytick_1">
     <g id="line2d_7">
      <defs>
       <path d="M 0 0 
L -3.5 0 
" id="m59cc4f245d" style="stroke:#000000;stroke-width:0.8;"/>
      </defs>
      <g>
       <use style="stroke:#000000;stroke-width:0.8;" x="144.08225" xlink:href="#m59cc4f245d" y="572.97168"/>
      </g>
     </g>
     <g id="text_8">
      <!-- −5.0 -->
      <g transform="translate(78.8035 582.089805)scale(0.24 -0.24)">
       <defs>
        <path d="M 678 2272 
L 4684 2272 
L 4684 1741 
L 678 1741 
L 678 2272 
z
" id="DejaVuSans-2212" transform="scale(0.015625)"/>
        <path d="M 691 4666 
L 3169 4666 
L 3169 4134 
L 1269 4134 
L 1269 2991 
Q 1406 3038 1543 3061 
Q 1681 3084 1819 3084 
Q 2600 3084 3056 2656 
Q 3513 2228 3513 1497 
Q 3513 744 3044 326 
Q 2575 -91 1722 -91 
Q 1428 -91 1123 -41 
Q 819 9 494 109 
L 494 744 
Q 775 591 1075 516 
Q 1375 441 1709 441 
Q 2250 441 2565 725 
Q 2881 1009 2881 1497 
Q 2881 1984 2565 2268 
Q 2250 2553 1709 2553 
Q 1456 2553 1204 2497 
Q 953 2441 691 2322 
L 691 4666 
z
" id="DejaVuSans-35" transform="scale(0.015625)"/>
        <path d="M 684 794 
L 1344 794 
L 1344 0 
L 684 0 
L 684 794 
z
" id="DejaVuSans-2e" transform="scale(0.015625)"/>
       </defs>
       <use xlink:href="#DejaVuSans-2212"/>
       <use x="83.789062" xlink:href="#DejaVuSans-35"/>
       <use x="147.412109" xlink:href="#DejaVuSans-2e"/>
       <use x="179.199219" xlink:href="#DejaVuSans-30"/>
      </g>
     </g>
    </g>
    <g id="ytick_2">
     <g id="line2d_8">
      <g>
       <use style="stroke:#000000;stroke-width:0.8;" x="144.08225" xlink:href="#m59cc4f245d" y="492.371129"/>
      </g>
     </g>
     <g id="text_9">
      <!-- −2.5 -->
      <g transform="translate(78.8035 501.489254)scale(0.24 -0.24)">
       <use xlink:href="#DejaVuSans-2212"/>
       <use x="83.789062" xlink:href="#DejaVuSans-32"/>
       <use x="147.412109" xlink:href="#DejaVuSans-2e"/>
       <use x="179.199219" xlink:href="#DejaVuSans-35"/>
      </g>
     </g>
    </g>
    <g id="ytick_3">
     <g id="line2d_9">
      <g>
       <use style="stroke:#000000;stroke-width:0.8;" x="144.08225" xlink:href="#m59cc4f245d" y="411.770579"/>
      </g>
     </g>
     <g id="text_10">
      <!-- 0.0 -->
      <g transform="translate(98.91475 420.888704)scale(0.24 -0.24)">
       <use xlink:href="#DejaVuSans-30"/>
       <use x="63.623047" xlink:href="#DejaVuSans-2e"/>
       <use x="95.410156" xlink:href="#DejaVuSans-30"/>
      </g>
     </g>
    </g>
    <g id="ytick_4">
     <g id="line2d_10">
      <g>
       <use style="stroke:#000000;stroke-width:0.8;" x="144.08225" xlink:href="#m59cc4f245d" y="331.170028"/>
      </g>
     </g>
     <g id="text_11">
      <!-- 2.5 -->
      <g transform="translate(98.91475 340.288153)scale(0.24 -0.24)">
       <use xlink:href="#DejaVuSans-32"/>
       <use x="63.623047" xlink:href="#DejaVuSans-2e"/>
       <use x="95.410156" xlink:href="#DejaVuSans-35"/>
      </g>
     </g>
    </g>
    <g id="ytick_5">
     <g id="line2d_11">
      <g>
       <use style="stroke:#000000;stroke-width:0.8;" x="144.08225" xlink:href="#m59cc4f245d" y="250.569477"/>
      </g>
     </g>
     <g id="text_12">
      <!-- 5.0 -->
      <g transform="translate(98.91475 259.687602)scale(0.24 -0.24)">
       <use xlink:href="#DejaVuSans-35"/>
       <use x="63.623047" xlink:href="#DejaVuSans-2e"/>
       <use x="95.410156" xlink:href="#DejaVuSans-30"/>
      </g>
     </g>
    </g>
    <g id="ytick_6">
     <g id="line2d_12">
      <g>
       <use style="stroke:#000000;stroke-width:0.8;" x="144.08225" xlink:href="#m59cc4f245d" y="169.968926"/>
      </g>
     </g>
     <g id="text_13">
      <!-- 7.5 -->
      <g transform="translate(98.91475 179.087051)scale(0.24 -0.24)">
       <defs>
        <path d="M 525 4666 
L 3525 4666 
L 3525 4397 
L 1831 0 
L 1172 0 
L 2766 4134 
L 525 4134 
L 525 4666 
z
" id="DejaVuSans-37" transform="scale(0.015625)"/>
       </defs>
       <use xlink:href="#DejaVuSans-37"/>
       <use x="63.623047" xlink:href="#DejaVuSans-2e"/>
       <use x="95.410156" xlink:href="#DejaVuSans-35"/>
      </g>
     </g>
    </g>
    <g id="ytick_7">
     <g id="line2d_13">
      <g>
       <use style="stroke:#000000;stroke-width:0.8;" x="144.08225" xlink:href="#m59cc4f245d" y="89.368375"/>
      </g>
     </g>
     <g id="text_14">
      <!-- 10.0 -->
      <g transform="translate(83.64475 98.4865)scale(0.24 -0.24)">
       <use xlink:href="#DejaVuSans-31"/>
       <use x="63.623047" xlink:href="#DejaVuSans-30"/>
       <use x="127.246094" xlink:href="#DejaVuSans-2e"/>
       <use x="159.033203" xlink:href="#DejaVuSans-30"/>
      </g>
     </g>
    </g>
    <g id="text_15">
     <!-- Squared Speed $\left( \frac{m}{s} \right)^2$ -->
     <g transform="translate(65.8435 488.42)rotate(-90)scale(0.32 -0.32)">
      <defs>
       <path d="M 3425 4513 
L 3425 3897 
Q 3066 4069 2747 4153 
Q 2428 4238 2131 4238 
Q 1616 4238 1336 4038 
Q 1056 3838 1056 3469 
Q 1056 3159 1242 3001 
Q 1428 2844 1947 2747 
L 2328 2669 
Q 3034 2534 3370 2195 
Q 3706 1856 3706 1288 
Q 3706 609 3251 259 
Q 2797 -91 1919 -91 
Q 1588 -91 1214 -16 
Q 841 59 441 206 
L 441 856 
Q 825 641 1194 531 
Q 1563 422 1919 422 
Q 2459 422 2753 634 
Q 3047 847 3047 1241 
Q 3047 1584 2836 1778 
Q 2625 1972 2144 2069 
L 1759 2144 
Q 1053 2284 737 2584 
Q 422 2884 422 3419 
Q 422 4038 858 4394 
Q 1294 4750 2059 4750 
Q 2388 4750 2728 4690 
Q 3069 4631 3425 4513 
z
" id="DejaVuSans-53" transform="scale(0.015625)"/>
       <path d="M 947 1747 
Q 947 1113 1208 752 
Q 1469 391 1925 391 
Q 2381 391 2643 752 
Q 2906 1113 2906 1747 
Q 2906 2381 2643 2742 
Q 2381 3103 1925 3103 
Q 1469 3103 1208 2742 
Q 947 2381 947 1747 
z
M 2906 525 
Q 2725 213 2448 61 
Q 2172 -91 1784 -91 
Q 1150 -91 751 415 
Q 353 922 353 1747 
Q 353 2572 751 3078 
Q 1150 3584 1784 3584 
Q 2172 3584 2448 3432 
Q 2725 3281 2906 2969 
L 2906 3500 
L 3481 3500 
L 3481 -1331 
L 2906 -1331 
L 2906 525 
z
" id="DejaVuSans-71" transform="scale(0.015625)"/>
       <path d="M 544 1381 
L 544 3500 
L 1119 3500 
L 1119 1403 
Q 1119 906 1312 657 
Q 1506 409 1894 409 
Q 2359 409 2629 706 
Q 2900 1003 2900 1516 
L 2900 3500 
L 3475 3500 
L 3475 0 
L 2900 0 
L 2900 538 
Q 2691 219 2414 64 
Q 2138 -91 1772 -91 
Q 1169 -91 856 284 
Q 544 659 544 1381 
z
M 1991 3584 
L 1991 3584 
z
" id="DejaVuSans-75" transform="scale(0.015625)"/>
       <path d="M 2194 1759 
Q 1497 1759 1228 1600 
Q 959 1441 959 1056 
Q 959 750 1161 570 
Q 1363 391 1709 391 
Q 2188 391 2477 730 
Q 2766 1069 2766 1631 
L 2766 1759 
L 2194 1759 
z
M 3341 1997 
L 3341 0 
L 2766 0 
L 2766 531 
Q 2569 213 2275 61 
Q 1981 -91 1556 -91 
Q 1019 -91 701 211 
Q 384 513 384 1019 
Q 384 1609 779 1909 
Q 1175 2209 1959 2209 
L 2766 2209 
L 2766 2266 
Q 2766 2663 2505 2880 
Q 2244 3097 1772 3097 
Q 1472 3097 1187 3025 
Q 903 2953 641 2809 
L 641 3341 
Q 956 3463 1253 3523 
Q 1550 3584 1831 3584 
Q 2591 3584 2966 3190 
Q 3341 2797 3341 1997 
z
" id="DejaVuSans-61" transform="scale(0.015625)"/>
       <path d="M 2631 2963 
Q 2534 3019 2420 3045 
Q 2306 3072 2169 3072 
Q 1681 3072 1420 2755 
Q 1159 2438 1159 1844 
L 1159 0 
L 581 0 
L 581 3500 
L 1159 3500 
L 1159 2956 
Q 1341 3275 1631 3429 
Q 1922 3584 2338 3584 
Q 2397 3584 2469 3576 
Q 2541 3569 2628 3553 
L 2631 2963 
z
" id="DejaVuSans-72" transform="scale(0.015625)"/>
       <path d="M 2906 2969 
L 2906 4863 
L 3481 4863 
L 3481 0 
L 2906 0 
L 2906 525 
Q 2725 213 2448 61 
Q 2172 -91 1784 -91 
Q 1150 -91 751 415 
Q 353 922 353 1747 
Q 353 2572 751 3078 
Q 1150 3584 1784 3584 
Q 2172 3584 2448 3432 
Q 2725 3281 2906 2969 
z
M 947 1747 
Q 947 1113 1208 752 
Q 1469 391 1925 391 
Q 2381 391 2643 752 
Q 2906 1113 2906 1747 
Q 2906 2381 2643 2742 
Q 2381 3103 1925 3103 
Q 1469 3103 1208 2742 
Q 947 2381 947 1747 
z
" id="DejaVuSans-64" transform="scale(0.015625)"/>
       <path d="M 1159 525 
L 1159 -1331 
L 581 -1331 
L 581 3500 
L 1159 3500 
L 1159 2969 
Q 1341 3281 1617 3432 
Q 1894 3584 2278 3584 
Q 2916 3584 3314 3078 
Q 3713 2572 3713 1747 
Q 3713 922 3314 415 
Q 2916 -91 2278 -91 
Q 1894 -91 1617 61 
Q 1341 213 1159 525 
z
M 3116 1747 
Q 3116 2381 2855 2742 
Q 2594 3103 2138 3103 
Q 1681 3103 1420 2742 
Q 1159 2381 1159 1747 
Q 1159 1113 1420 752 
Q 1681 391 2138 391 
Q 2594 391 2855 752 
Q 3116 1113 3116 1747 
z
" id="DejaVuSans-70" transform="scale(0.015625)"/>
       <path d="M 2445 -858 
L 2445 -1050 
Q 1728 -371 1309 630 
Q 890 1632 890 2886 
Q 890 4122 1309 5136 
Q 1728 6150 2445 6822 
L 2445 6630 
Q 1408 5363 1408 2886 
Q 1408 410 2445 -858 
z
" id="STIXSizeOneSym-Regular-28" transform="scale(0.015625)"/>
       <path d="M 5747 2113 
L 5338 0 
L 4763 0 
L 5166 2094 
Q 5191 2228 5203 2325 
Q 5216 2422 5216 2491 
Q 5216 2772 5059 2928 
Q 4903 3084 4622 3084 
Q 4203 3084 3875 2770 
Q 3547 2456 3450 1953 
L 3066 0 
L 2491 0 
L 2900 2094 
Q 2925 2209 2937 2307 
Q 2950 2406 2950 2484 
Q 2950 2769 2794 2926 
Q 2638 3084 2363 3084 
Q 1938 3084 1609 2770 
Q 1281 2456 1184 1953 
L 800 0 
L 225 0 
L 909 3500 
L 1484 3500 
L 1375 2956 
Q 1609 3263 1923 3423 
Q 2238 3584 2597 3584 
Q 2978 3584 3223 3384 
Q 3469 3184 3519 2828 
Q 3781 3197 4126 3390 
Q 4472 3584 4856 3584 
Q 5306 3584 5551 3325 
Q 5797 3066 5797 2591 
Q 5797 2488 5784 2364 
Q 5772 2241 5747 2113 
z
" id="DejaVuSans-Oblique-6d" transform="scale(0.015625)"/>
       <path d="M 3200 3397 
L 3091 2853 
Q 2863 2978 2609 3040 
Q 2356 3103 2088 3103 
Q 1634 3103 1373 2948 
Q 1113 2794 1113 2528 
Q 1113 2219 1719 2053 
Q 1766 2041 1788 2034 
L 1972 1978 
Q 2547 1819 2739 1644 
Q 2931 1469 2931 1166 
Q 2931 609 2489 259 
Q 2047 -91 1331 -91 
Q 1053 -91 747 -37 
Q 441 16 72 128 
L 184 722 
Q 500 559 806 475 
Q 1113 391 1394 391 
Q 1816 391 2080 572 
Q 2344 753 2344 1031 
Q 2344 1331 1650 1516 
L 1591 1531 
L 1394 1581 
Q 956 1697 753 1886 
Q 550 2075 550 2369 
Q 550 2928 970 3256 
Q 1391 3584 2113 3584 
Q 2397 3584 2667 3537 
Q 2938 3491 3200 3397 
z
" id="DejaVuSans-Oblique-73" transform="scale(0.015625)"/>
       <path d="M 550 6630 
L 550 6822 
Q 1267 6144 1686 5142 
Q 2106 4141 2106 2886 
Q 2106 1651 1686 636 
Q 1267 -378 550 -1050 
L 550 -858 
Q 1587 410 1587 2886 
Q 1587 5363 550 6630 
z
" id="STIXSizeOneSym-Regular-29" transform="scale(0.015625)"/>
      </defs>
      <use transform="translate(0 0.765625)" xlink:href="#DejaVuSans-53"/>
      <use transform="translate(63.476562 0.765625)" xlink:href="#DejaVuSans-71"/>
      <use transform="translate(126.953125 0.765625)" xlink:href="#DejaVuSans-75"/>
      <use transform="translate(190.332031 0.765625)" xlink:href="#DejaVuSans-61"/>
      <use transform="translate(251.611328 0.765625)" xlink:href="#DejaVuSans-72"/>
      <use transform="translate(292.724609 0.765625)" xlink:href="#DejaVuSans-65"/>
      <use transform="translate(354.248047 0.765625)" xlink:href="#DejaVuSans-64"/>
      <use transform="translate(417.724609 0.765625)" xlink:href="#DejaVuSans-20"/>
      <use transform="translate(449.511719 0.765625)" xlink:href="#DejaVuSans-53"/>
      <use transform="translate(512.988281 0.765625)" xlink:href="#DejaVuSans-70"/>
      <use transform="translate(576.464844 0.765625)" xlink:href="#DejaVuSans-65"/>
      <use transform="translate(637.988281 0.765625)" xlink:href="#DejaVuSans-65"/>
      <use transform="translate(699.511719 0.765625)" xlink:href="#DejaVuSans-64"/>
      <use transform="translate(762.988281 0.765625)" xlink:href="#DejaVuSans-20"/>
      <use transform="translate(794.775391 -12.132812)scale(0.899555)" xlink:href="#STIXSizeOneSym-Regular-28"/>
      <use transform="translate(836.873444 44.5625)scale(0.7)" xlink:href="#DejaVuSans-Oblique-6d"/>
      <use transform="translate(852.873444 -25.8875)scale(0.7)" xlink:href="#DejaVuSans-Oblique-73"/>
      <use transform="translate(917.56192 -12.132812)scale(0.899555)" xlink:href="#STIXSizeOneSym-Regular-29"/>
      <use transform="translate(960.617004 39.046875)scale(0.7)" xlink:href="#DejaVuSans-32"/>
      <path d="M 836.873444 19.5625 
L 836.873444 25.8125 
L 905.06192 25.8125 
L 905.06192 19.5625 
L 836.873444 19.5625 
z
"/>
     </g>
    </g>
   </g>
   <g id="line2d_14">
    <path clip-path="url(#p2274210e6c)" d="M 179.59742 157.878843 
L 183.859241 165.77261 
L 188.121061 173.227777 
L 192.382882 180.276438 
L 196.644702 186.947781 
L 201.616826 194.289353 
L 206.58895 201.191202 
L 211.561074 207.687042 
L 216.533198 213.806827 
L 221.505322 219.577131 
L 226.477445 225.021489 
L 231.449569 230.160732 
L 236.421693 235.01328 
L 242.10412 240.22881 
L 247.786548 245.112467 
L 253.468975 249.682891 
L 259.151402 253.95642 
L 264.83383 257.94747 
L 270.516257 261.668879 
L 276.198684 265.132211 
L 281.881111 268.348029 
L 287.563539 271.326135 
L 293.245966 274.075781 
L 299.638697 276.907099 
L 306.031427 279.472838 
L 312.424158 281.785214 
L 318.816889 283.856513 
L 325.209619 285.699236 
L 331.60235 287.3262 
L 338.705384 288.896961 
L 345.808418 290.236391 
L 353.621756 291.465732 
L 361.435093 292.465298 
L 369.958734 293.325954 
L 379.192678 294.028928 
L 389.84723 294.603492 
L 402.632691 295.055714 
L 425.3624 295.578576 
L 443.830289 296.098934 
L 456.61575 296.670254 
L 467.980605 297.390487 
L 478.635156 298.280891 
L 489.289707 299.398694 
L 499.944258 300.751514 
L 510.598809 302.335873 
L 521.963664 304.264593 
L 534.038822 306.549785 
L 548.24489 309.478584 
L 572.395206 314.742103 
L 590.152791 318.506788 
L 602.227949 320.845163 
L 612.172197 322.558474 
L 621.406141 323.929919 
L 629.929782 324.974268 
L 637.743119 325.720306 
L 645.556457 326.244375 
L 653.369794 326.529516 
L 660.472828 326.569193 
L 667.575863 326.390497 
L 674.678897 325.986371 
L 681.781931 325.351645 
L 688.884965 324.482981 
L 695.987999 323.378747 
L 703.091033 322.038832 
L 710.194067 320.464364 
L 717.297101 318.657349 
L 724.400135 316.620211 
L 731.503169 314.355225 
L 738.606203 311.863834 
L 745.709237 309.145849 
L 752.812272 306.198505 
L 759.915306 303.015384 
L 767.01834 299.585174 
L 774.121374 295.890277 
L 780.514105 292.317709 
L 786.906835 288.485086 
L 792.589263 284.833816 
L 798.27169 280.922785 
L 803.954117 276.717159 
L 808.926241 272.762868 
L 813.898365 268.518148 
L 818.870489 263.944935 
L 823.132309 259.73063 
L 827.39413 255.211891 
L 831.65595 250.354033 
L 835.91777 245.118496 
L 839.469287 240.436355 
L 843.020805 235.435268 
L 846.572322 230.085873 
L 850.123839 224.356388 
L 853.675356 218.212478 
L 857.226873 211.61711 
L 860.77839 204.530403 
L 864.329907 196.909478 
L 867.881424 188.708292 
L 871.432941 179.87748 
L 874.984458 170.364181 
L 878.535975 160.111859 
L 882.087492 149.060128 
L 885.639009 137.144553 
L 889.190526 124.296467 
L 889.90083 121.608595 
L 889.90083 121.608595 
" style="fill:none;stroke:#1f77b4;stroke-linecap:square;stroke-width:4;"/>
   </g>
   <g id="line2d_15">
    <path clip-path="url(#p2274210e6c)" d="M 179.59742 157.878843 
L 250.627761 293.287769 
L 321.658102 282.541028 
L 392.688443 362.604242 
L 463.718784 253.563211 
L 534.749125 222.55119 
L 605.779466 387.360126 
L 676.809807 421.442645 
L 747.840148 209.731864 
L 818.870489 392.426446 
L 889.90083 121.608595 
" style="fill:none;stroke:#1f77b4;stroke-dasharray:14.8,6.4;stroke-dashoffset:0;stroke-width:4;"/>
    <defs>
     <path d="M 0 4.5 
C 1.193414 4.5 2.338109 4.025852 3.181981 3.181981 
C 4.025852 2.338109 4.5 1.193414 4.5 0 
C 4.5 -1.193414 4.025852 -2.338109 3.181981 -3.181981 
C 2.338109 -4.025852 1.193414 -4.5 0 -4.5 
C -1.193414 -4.5 -2.338109 -4.025852 -3.181981 -3.181981 
C -4.025852 -2.338109 -4.5 -1.193414 -4.5 0 
C -4.5 1.193414 -4.025852 2.338109 -3.181981 3.181981 
C -2.338109 4.025852 -1.193414 4.5 0 4.5 
z
" id="m45d8d32172" style="stroke:#1f77b4;"/>
    </defs>
    <g clip-path="url(#p2274210e6c)">
     <use style="fill:#1f77b4;stroke:#1f77b4;" x="179.59742" xlink:href="#m45d8d32172" y="157.878843"/>
     <use style="fill:#1f77b4;stroke:#1f77b4;" x="250.627761" xlink:href="#m45d8d32172" y="293.287769"/>
     <use style="fill:#1f77b4;stroke:#1f77b4;" x="321.658102" xlink:href="#m45d8d32172" y="282.541028"/>
     <use style="fill:#1f77b4;stroke:#1f77b4;" x="392.688443" xlink:href="#m45d8d32172" y="362.604242"/>
     <use style="fill:#1f77b4;stroke:#1f77b4;" x="463.718784" xlink:href="#m45d8d32172" y="253.563211"/>
     <use style="fill:#1f77b4;stroke:#1f77b4;" x="534.749125" xlink:href="#m45d8d32172" y="222.55119"/>
     <use style="fill:#1f77b4;stroke:#1f77b4;" x="605.779466" xlink:href="#m45d8d32172" y="387.360126"/>
     <use style="fill:#1f77b4;stroke:#1f77b4;" x="676.809807" xlink:href="#m45d8d32172" y="421.442645"/>
     <use style="fill:#1f77b4;stroke:#1f77b4;" x="747.840148" xlink:href="#m45d8d32172" y="209.731864"/>
     <use style="fill:#1f77b4;stroke:#1f77b4;" x="818.870489" xlink:href="#m45d8d32172" y="392.426446"/>
     <use style="fill:#1f77b4;stroke:#1f77b4;" x="889.90083" xlink:href="#m45d8d32172" y="121.608595"/>
    </g>
   </g>
   <g id="line2d_16">
    <path clip-path="url(#p2274210e6c)" d="M 179.59742 399.680496 
L 184.569544 398.199468 
L 189.541668 396.486744 
L 195.224095 394.285799 
L 201.616826 391.550364 
L 208.71986 388.253596 
L 217.243501 384.031572 
L 227.898052 378.491426 
L 266.96474 357.935789 
L 277.619291 352.702279 
L 287.563539 348.066412 
L 296.797483 344.000799 
L 306.031427 340.17893 
L 315.265372 336.607081 
L 324.499316 333.28584 
L 333.73326 330.211046 
L 342.967205 327.37465 
L 352.201149 324.765501 
L 362.145397 322.194211 
L 372.089644 319.851596 
L 382.744195 317.571959 
L 394.10905 315.374009 
L 406.184208 313.268204 
L 419.679973 311.150621 
L 434.596344 309.04644 
L 450.933323 306.967017 
L 469.401211 304.839717 
L 489.289707 302.774935 
L 507.757595 301.07475 
L 524.094574 299.786798 
L 538.300642 298.883487 
L 551.086103 298.292933 
L 562.450958 297.987703 
L 573.105509 297.926825 
L 583.049757 298.099024 
L 592.283701 298.483963 
L 600.807342 299.053207 
L 609.330983 299.84698 
L 617.14432 300.786912 
L 624.957658 301.942679 
L 632.770995 303.325001 
L 640.584333 304.942453 
L 648.39767 306.800897 
L 656.211008 308.902857 
L 664.024345 311.246828 
L 671.837683 313.826526 
L 679.65102 316.63006 
L 688.174661 319.92193 
L 697.408606 323.724015 
L 708.77346 328.652061 
L 735.76499 340.484346 
L 743.578327 343.594387 
L 749.971058 345.895863 
L 755.653485 347.694805 
L 760.625609 349.031418 
L 764.88743 349.967132 
L 769.14925 350.678574 
L 773.41107 351.134607 
L 776.962587 351.295488 
L 780.514105 351.235219 
L 784.065622 350.931981 
L 787.617139 350.362698 
L 790.458352 349.699382 
L 793.299566 348.837116 
L 796.14078 347.762223 
L 798.981993 346.460435 
L 801.823207 344.916877 
L 804.66442 343.116049 
L 807.505634 341.041802 
L 810.346848 338.677325 
L 813.188061 336.005125 
L 816.029275 333.007003 
L 818.870489 329.664036 
L 821.711702 325.956556 
L 824.552916 321.86413 
L 827.39413 317.365537 
L 830.235343 312.438746 
L 833.076557 307.060893 
L 835.91777 301.208259 
L 838.758984 294.856245 
L 841.600198 287.979353 
L 844.441411 280.551153 
L 847.282625 272.544265 
L 850.123839 263.930333 
L 852.965052 254.679996 
L 855.806266 244.762863 
L 858.64748 234.147488 
L 861.488693 222.80134 
L 864.329907 210.690776 
L 867.17112 197.781014 
L 870.722638 180.465056 
L 874.274155 161.771227 
L 877.825672 141.62365 
L 881.377189 119.943335 
L 884.928706 96.648081 
L 888.480223 71.652384 
L 889.90083 61.158182 
L 889.90083 61.158182 
" style="fill:none;stroke:#ff7f0e;stroke-linecap:square;stroke-width:4;"/>
   </g>
   <g id="line2d_17">
    <path clip-path="url(#p2274210e6c)" d="M 179.59742 399.680496 
L 250.627761 380.336364 
L 321.658102 300.810487 
L 392.688443 303.76584 
L 463.718784 310.674459 
L 534.749125 307.373674 
L 605.779466 284.651995 
L 676.809807 245.733444 
L 747.840148 313.706575 
L 818.870489 593.121818 
L 889.90083 61.158182 
" style="fill:none;stroke:#ff7f0e;stroke-dasharray:14.8,6.4;stroke-dashoffset:0;stroke-width:4;"/>
    <defs>
     <path d="M 0 4.5 
C 1.193414 4.5 2.338109 4.025852 3.181981 3.181981 
C 4.025852 2.338109 4.5 1.193414 4.5 0 
C 4.5 -1.193414 4.025852 -2.338109 3.181981 -3.181981 
C 2.338109 -4.025852 1.193414 -4.5 0 -4.5 
C -1.193414 -4.5 -2.338109 -4.025852 -3.181981 -3.181981 
C -4.025852 -2.338109 -4.5 -1.193414 -4.5 0 
C -4.5 1.193414 -4.025852 2.338109 -3.181981 3.181981 
C -2.338109 4.025852 -1.193414 4.5 0 4.5 
z
" id="mb4949860a8" style="stroke:#ff7f0e;"/>
    </defs>
    <g clip-path="url(#p2274210e6c)">
     <use style="fill:#ff7f0e;stroke:#ff7f0e;" x="179.59742" xlink:href="#mb4949860a8" y="399.680496"/>
     <use style="fill:#ff7f0e;stroke:#ff7f0e;" x="250.627761" xlink:href="#mb4949860a8" y="380.336364"/>
     <use style="fill:#ff7f0e;stroke:#ff7f0e;" x="321.658102" xlink:href="#mb4949860a8" y="300.810487"/>
     <use style="fill:#ff7f0e;stroke:#ff7f0e;" x="392.688443" xlink:href="#mb4949860a8" y="303.76584"/>
     <use style="fill:#ff7f0e;stroke:#ff7f0e;" x="463.718784" xlink:href="#mb4949860a8" y="310.674459"/>
     <use style="fill:#ff7f0e;stroke:#ff7f0e;" x="534.749125" xlink:href="#mb4949860a8" y="307.373674"/>
     <use style="fill:#ff7f0e;stroke:#ff7f0e;" x="605.779466" xlink:href="#mb4949860a8" y="284.651995"/>
     <use style="fill:#ff7f0e;stroke:#ff7f0e;" x="676.809807" xlink:href="#mb4949860a8" y="245.733444"/>
     <use style="fill:#ff7f0e;stroke:#ff7f0e;" x="747.840148" xlink:href="#mb4949860a8" y="313.706575"/>
     <use style="fill:#ff7f0e;stroke:#ff7f0e;" x="818.870489" xlink:href="#mb4949860a8" y="593.121818"/>
     <use style="fill:#ff7f0e;stroke:#ff7f0e;" x="889.90083" xlink:href="#mb4949860a8" y="61.158182"/>
    </g>
   </g>
   <g id="line2d_18">
    <path clip-path="url(#p2274210e6c)" d="M 889.90083 121.608595 
L 179.59742 157.878843 
" style="fill:none;stroke:#000000;stroke-dasharray:4,6.6;stroke-dashoffset:0;stroke-width:4;"/>
   </g>
   <g id="line2d_19">
    <path clip-path="url(#p2274210e6c)" d="M 250.627761 293.287769 
L 179.59742 157.878843 
" style="fill:none;stroke:#000000;stroke-dasharray:4,6.6;stroke-dashoffset:0;stroke-width:4;"/>
   </g>
   <g id="line2d_20">
    <path clip-path="url(#p2274210e6c)" d="M 818.870489 392.426446 
L 889.90083 121.608595 
" style="fill:none;stroke:#000000;stroke-dasharray:4,6.6;stroke-dashoffset:0;stroke-width:4;"/>
   </g>
   <g id="line2d_21">
    <path clip-path="url(#p2274210e6c)" d="M 818.870489 392.426446 
L 676.809807 421.442645 
" style="fill:none;stroke:#000000;stroke-dasharray:4,6.6;stroke-dashoffset:0;stroke-width:4;"/>
   </g>
   <g id="line2d_22">
    <path clip-path="url(#p2274210e6c)" d="M 392.688443 362.604242 
L 676.809807 421.442645 
" style="fill:none;stroke:#000000;stroke-dasharray:4,6.6;stroke-dashoffset:0;stroke-width:4;"/>
   </g>
   <g id="line2d_23">
    <path clip-path="url(#p2274210e6c)" d="M 392.688443 362.604242 
L 250.627761 293.287769 
" style="fill:none;stroke:#000000;stroke-dasharray:4,6.6;stroke-dashoffset:0;stroke-width:4;"/>
   </g>
   <g id="line2d_24">
    <path clip-path="url(#p2274210e6c)" d="M 818.870489 593.121818 
L 179.59742 399.680496 
" style="fill:none;stroke:#000000;stroke-dasharray:4,6.6;stroke-dashoffset:0;stroke-width:4;"/>
   </g>
   <g id="line2d_25">
    <path clip-path="url(#p2274210e6c)" d="M 818.870489 593.121818 
L 889.90083 61.158182 
" style="fill:none;stroke:#000000;stroke-dasharray:4,6.6;stroke-dashoffset:0;stroke-width:4;"/>
   </g>
   <g id="line2d_26">
    <path clip-path="url(#p2274210e6c)" d="M 321.658102 300.810487 
L 179.59742 399.680496 
" style="fill:none;stroke:#000000;stroke-dasharray:4,6.6;stroke-dashoffset:0;stroke-width:4;"/>
   </g>
   <g id="line2d_27">
    <path clip-path="url(#p2274210e6c)" d="M 321.658102 300.810487 
L 889.90083 61.158182 
" style="fill:none;stroke:#000000;stroke-dasharray:4,6.6;stroke-dashoffset:0;stroke-width:4;"/>
   </g>
   <g id="patch_3">
    <path d="M 144.08225 619.72 
L 144.08225 34.56 
" style="fill:none;stroke:#000000;stroke-linecap:square;stroke-linejoin:miter;stroke-width:0.8;"/>
   </g>
   <g id="patch_4">
    <path d="M 925.416 619.72 
L 925.416 34.56 
" style="fill:none;stroke:#000000;stroke-linecap:square;stroke-linejoin:miter;stroke-width:0.8;"/>
   </g>
   <g id="patch_5">
    <path d="M 144.08225 619.72 
L 925.416 619.72 
" style="fill:none;stroke:#000000;stroke-linecap:square;stroke-linejoin:miter;stroke-width:0.8;"/>
   </g>
   <g id="patch_6">
    <path d="M 144.08225 34.56 
L 925.416 34.56 
" style="fill:none;stroke:#000000;stroke-linecap:square;stroke-linejoin:miter;stroke-width:0.8;"/>
   </g>
   <g id="legend_1">
    <g id="patch_7">
     <path d="M 160.88225 140.64 
L 352.16225 140.64 
Q 356.96225 140.64 356.96225 135.84 
L 356.96225 51.36 
Q 356.96225 46.56 352.16225 46.56 
L 160.88225 46.56 
Q 156.08225 46.56 156.08225 51.36 
L 156.08225 135.84 
Q 156.08225 140.64 160.88225 140.64 
z
" style="fill:#ffffff;opacity:0.8;stroke:#cccccc;stroke-linejoin:miter;"/>
    </g>
    <g id="line2d_28">
     <path d="M 165.68225 73.44 
L 213.68225 73.44 
" style="fill:none;stroke:#1f77b4;stroke-linecap:square;stroke-width:4;"/>
    </g>
    <g id="line2d_29"/>
    <g id="text_16">
     <!-- $||\dot \mathbf{C}^{[3]}(t)||^2$ -->
     <g transform="translate(232.88225 81.84)scale(0.24 -0.24)">
      <defs>
       <path d="M 1344 4891 
L 1344 -1509 
L 813 -1509 
L 813 4891 
L 1344 4891 
z
" id="DejaVuSans-7c" transform="scale(0.015625)"/>
       <path d="M -1894 4863 
L -1319 4863 
L -1319 4134 
L -1894 4134 
L -1894 4863 
z
M -1600 3584 
L -1600 3584 
z
" id="DejaVuSans-307" transform="scale(0.015625)"/>
       <path d="M 4288 256 
Q 3956 84 3597 -3 
Q 3238 -91 2847 -91 
Q 1681 -91 1000 561 
Q 319 1213 319 2328 
Q 319 3447 1000 4098 
Q 1681 4750 2847 4750 
Q 3238 4750 3597 4662 
Q 3956 4575 4288 4403 
L 4288 3438 
Q 3953 3666 3628 3772 
Q 3303 3878 2944 3878 
Q 2300 3878 1931 3465 
Q 1563 3053 1563 2328 
Q 1563 1606 1931 1193 
Q 2300 781 2944 781 
Q 3303 781 3628 887 
Q 3953 994 4288 1222 
L 4288 256 
z
" id="DejaVuSans-Bold-43" transform="scale(0.015625)"/>
       <path d="M 550 4863 
L 1875 4863 
L 1875 4416 
L 1125 4416 
L 1125 -397 
L 1875 -397 
L 1875 -844 
L 550 -844 
L 550 4863 
z
" id="DejaVuSans-5b" transform="scale(0.015625)"/>
       <path d="M 2597 2516 
Q 3050 2419 3304 2112 
Q 3559 1806 3559 1356 
Q 3559 666 3084 287 
Q 2609 -91 1734 -91 
Q 1441 -91 1130 -33 
Q 819 25 488 141 
L 488 750 
Q 750 597 1062 519 
Q 1375 441 1716 441 
Q 2309 441 2620 675 
Q 2931 909 2931 1356 
Q 2931 1769 2642 2001 
Q 2353 2234 1838 2234 
L 1294 2234 
L 1294 2753 
L 1863 2753 
Q 2328 2753 2575 2939 
Q 2822 3125 2822 3475 
Q 2822 3834 2567 4026 
Q 2313 4219 1838 4219 
Q 1578 4219 1281 4162 
Q 984 4106 628 3988 
L 628 4550 
Q 988 4650 1302 4700 
Q 1616 4750 1894 4750 
Q 2613 4750 3031 4423 
Q 3450 4097 3450 3541 
Q 3450 3153 3228 2886 
Q 3006 2619 2597 2516 
z
" id="DejaVuSans-33" transform="scale(0.015625)"/>
       <path d="M 1947 4863 
L 1947 -844 
L 622 -844 
L 622 -397 
L 1369 -397 
L 1369 4416 
L 622 4416 
L 622 4863 
L 1947 4863 
z
" id="DejaVuSans-5d" transform="scale(0.015625)"/>
       <path d="M 2706 3500 
L 2619 3053 
L 1472 3053 
L 1100 1153 
Q 1081 1047 1072 975 
Q 1063 903 1063 863 
Q 1063 663 1183 572 
Q 1303 481 1569 481 
L 2150 481 
L 2053 0 
L 1503 0 
Q 991 0 739 200 
Q 488 400 488 806 
Q 488 878 497 964 
Q 506 1050 525 1153 
L 897 3053 
L 409 3053 
L 500 3500 
L 978 3500 
L 1172 4494 
L 1747 4494 
L 1556 3500 
L 2706 3500 
z
" id="DejaVuSans-Oblique-74" transform="scale(0.015625)"/>
      </defs>
      <use transform="translate(0 0.296875)" xlink:href="#DejaVuSans-7c"/>
      <use transform="translate(33.691406 0.296875)" xlink:href="#DejaVuSans-7c"/>
      <use transform="translate(138.32373 31.015625)" xlink:href="#DejaVuSans-307"/>
      <use transform="translate(67.382812 0.296875)" xlink:href="#DejaVuSans-Bold-43"/>
      <use transform="translate(141.728516 38.578125)scale(0.7)" xlink:href="#DejaVuSans-5b"/>
      <use transform="translate(169.038086 38.578125)scale(0.7)" xlink:href="#DejaVuSans-33"/>
      <use transform="translate(213.574219 38.578125)scale(0.7)" xlink:href="#DejaVuSans-5d"/>
      <use transform="translate(243.618164 0.296875)" xlink:href="#DejaVuSans-28"/>
      <use transform="translate(282.631836 0.296875)" xlink:href="#DejaVuSans-Oblique-74"/>
      <use transform="translate(321.84082 0.296875)" xlink:href="#DejaVuSans-29"/>
      <use transform="translate(360.854492 0.296875)" xlink:href="#DejaVuSans-7c"/>
      <use transform="translate(394.545898 0.296875)" xlink:href="#DejaVuSans-7c"/>
      <use transform="translate(429.194336 38.578125)scale(0.7)" xlink:href="#DejaVuSans-32"/>
     </g>
    </g>
    <g id="line2d_30">
     <path d="M 165.68225 116.88 
L 213.68225 116.88 
" style="fill:none;stroke:#ff7f0e;stroke-linecap:square;stroke-width:4;"/>
    </g>
    <g id="line2d_31"/>
    <g id="text_17">
     <!-- $||\dot \mathbf{C}^{[4]}(t)||^2$ -->
     <g transform="translate(232.88225 125.28)scale(0.24 -0.24)">
      <use transform="translate(0 0.296875)" xlink:href="#DejaVuSans-7c"/>
      <use transform="translate(33.691406 0.296875)" xlink:href="#DejaVuSans-7c"/>
      <use transform="translate(138.32373 31.015625)" xlink:href="#DejaVuSans-307"/>
      <use transform="translate(67.382812 0.296875)" xlink:href="#DejaVuSans-Bold-43"/>
      <use transform="translate(141.728516 38.578125)scale(0.7)" xlink:href="#DejaVuSans-5b"/>
      <use transform="translate(169.038086 38.578125)scale(0.7)" xlink:href="#DejaVuSans-34"/>
      <use transform="translate(213.574219 38.578125)scale(0.7)" xlink:href="#DejaVuSans-5d"/>
      <use transform="translate(243.618164 0.296875)" xlink:href="#DejaVuSans-28"/>
      <use transform="translate(282.631836 0.296875)" xlink:href="#DejaVuSans-Oblique-74"/>
      <use transform="translate(321.84082 0.296875)" xlink:href="#DejaVuSans-29"/>
      <use transform="translate(360.854492 0.296875)" xlink:href="#DejaVuSans-7c"/>
      <use transform="translate(394.545898 0.296875)" xlink:href="#DejaVuSans-7c"/>
      <use transform="translate(429.194336 38.578125)scale(0.7)" xlink:href="#DejaVuSans-32"/>
     </g>
    </g>
   </g>
  </g>
 </g>
 <defs>
  <clipPath id="p2274210e6c">
   <rect height="585.16" width="781.33375" x="144.08225" y="34.56"/>
  </clipPath>
 </defs>
</svg>
