<?xml version="1.0" encoding="utf-8" standalone="no"?>
<!DOCTYPE svg PUBLIC "-//W3C//DTD SVG 1.1//EN"
  "http://www.w3.org/Graphics/SVG/1.1/DTD/svg11.dtd">
<svg height="720pt" version="1.1" viewBox="0 0 959.76 720" width="959.76pt" xmlns="http://www.w3.org/2000/svg" xmlns:xlink="http://www.w3.org/1999/xlink">
 <metadata>
  <rdf:RDF xmlns:cc="http://creativecommons.org/ns#" xmlns:dc="http://purl.org/dc/elements/1.1/" xmlns:rdf="http://www.w3.org/1999/02/22-rdf-syntax-ns#">
   <cc:Work>
    <dc:type rdf:resource="http://purl.org/dc/dcmitype/StillImage"/>
    <dc:date>2021-10-18T11:14:42.888756</dc:date>
    <dc:format>image/svg+xml</dc:format>
    <dc:creator>
     <cc:Agent>
      <dc:title>Matplotlib v3.4.2, https://matplotlib.org/</dc:title>
     </cc:Agent>
    </dc:creator>
   </cc:Work>
  </rdf:RDF>
 </metadata>
 <defs>
  <style type="text/css">*{stroke-linecap:butt;stroke-linejoin:round;}</style>
 </defs>
 <g id="figure_1">
  <g id="patch_1">
   <path d="M 0 720 
L 959.76 720 
L 959.76 0 
L 0 0 
z
" style="fill:#ffffff;"/>
  </g>
  <g id="axes_1">
   <g id="patch_2">
    <path d="M 114.77 619.72 
L 925.2 619.72 
L 925.2 34.56 
L 114.77 34.56 
z
" style="fill:#ffffff;"/>
   </g>
   <g id="matplotlib.axis_1">
    <g id="xtick_1">
     <g id="line2d_1">
      <defs>
       <path d="M 0 0 
L 0 3.5 
" id="m9043e66091" style="stroke:#000000;stroke-width:0.8;"/>
      </defs>
      <g>
       <use style="stroke:#000000;stroke-width:0.8;" x="151.607727" xlink:href="#m9043e66091" y="619.72"/>
      </g>
     </g>
     <g id="text_1">
      <!-- 10 -->
      <g transform="translate(136.337727 644.95625)scale(0.24 -0.24)">
       <defs>
        <path d="M 794 531 
L 1825 531 
L 1825 4091 
L 703 3866 
L 703 4441 
L 1819 4666 
L 2450 4666 
L 2450 531 
L 3481 531 
L 3481 0 
L 794 0 
L 794 531 
z
" id="DejaVuSans-31" transform="scale(0.015625)"/>
        <path d="M 2034 4250 
Q 1547 4250 1301 3770 
Q 1056 3291 1056 2328 
Q 1056 1369 1301 889 
Q 1547 409 2034 409 
Q 2525 409 2770 889 
Q 3016 1369 3016 2328 
Q 3016 3291 2770 3770 
Q 2525 4250 2034 4250 
z
M 2034 4750 
Q 2819 4750 3233 4129 
Q 3647 3509 3647 2328 
Q 3647 1150 3233 529 
Q 2819 -91 2034 -91 
Q 1250 -91 836 529 
Q 422 1150 422 2328 
Q 422 3509 836 4129 
Q 1250 4750 2034 4750 
z
" id="DejaVuSans-30" transform="scale(0.015625)"/>
       </defs>
       <use xlink:href="#DejaVuSans-31"/>
       <use x="63.623047" xlink:href="#DejaVuSans-30"/>
      </g>
     </g>
    </g>
    <g id="xtick_2">
     <g id="line2d_2">
      <g>
       <use style="stroke:#000000;stroke-width:0.8;" x="298.958636" xlink:href="#m9043e66091" y="619.72"/>
      </g>
     </g>
     <g id="text_2">
      <!-- 12 -->
      <g transform="translate(283.688636 644.95625)scale(0.24 -0.24)">
       <defs>
        <path d="M 1228 531 
L 3431 531 
L 3431 0 
L 469 0 
L 469 531 
Q 828 903 1448 1529 
Q 2069 2156 2228 2338 
Q 2531 2678 2651 2914 
Q 2772 3150 2772 3378 
Q 2772 3750 2511 3984 
Q 2250 4219 1831 4219 
Q 1534 4219 1204 4116 
Q 875 4013 500 3803 
L 500 4441 
Q 881 4594 1212 4672 
Q 1544 4750 1819 4750 
Q 2544 4750 2975 4387 
Q 3406 4025 3406 3419 
Q 3406 3131 3298 2873 
Q 3191 2616 2906 2266 
Q 2828 2175 2409 1742 
Q 1991 1309 1228 531 
z
" id="DejaVuSans-32" transform="scale(0.015625)"/>
       </defs>
       <use xlink:href="#DejaVuSans-31"/>
       <use x="63.623047" xlink:href="#DejaVuSans-32"/>
      </g>
     </g>
    </g>
    <g id="xtick_3">
     <g id="line2d_3">
      <g>
       <use style="stroke:#000000;stroke-width:0.8;" x="446.309545" xlink:href="#m9043e66091" y="619.72"/>
      </g>
     </g>
     <g id="text_3">
      <!-- 14 -->
      <g transform="translate(431.039545 644.95625)scale(0.24 -0.24)">
       <defs>
        <path d="M 2419 4116 
L 825 1625 
L 2419 1625 
L 2419 4116 
z
M 2253 4666 
L 3047 4666 
L 3047 1625 
L 3713 1625 
L 3713 1100 
L 3047 1100 
L 3047 0 
L 2419 0 
L 2419 1100 
L 313 1100 
L 313 1709 
L 2253 4666 
z
" id="DejaVuSans-34" transform="scale(0.015625)"/>
       </defs>
       <use xlink:href="#DejaVuSans-31"/>
       <use x="63.623047" xlink:href="#DejaVuSans-34"/>
      </g>
     </g>
    </g>
    <g id="xtick_4">
     <g id="line2d_4">
      <g>
       <use style="stroke:#000000;stroke-width:0.8;" x="593.660455" xlink:href="#m9043e66091" y="619.72"/>
      </g>
     </g>
     <g id="text_4">
      <!-- 16 -->
      <g transform="translate(578.390455 644.95625)scale(0.24 -0.24)">
       <defs>
        <path d="M 2113 2584 
Q 1688 2584 1439 2293 
Q 1191 2003 1191 1497 
Q 1191 994 1439 701 
Q 1688 409 2113 409 
Q 2538 409 2786 701 
Q 3034 994 3034 1497 
Q 3034 2003 2786 2293 
Q 2538 2584 2113 2584 
z
M 3366 4563 
L 3366 3988 
Q 3128 4100 2886 4159 
Q 2644 4219 2406 4219 
Q 1781 4219 1451 3797 
Q 1122 3375 1075 2522 
Q 1259 2794 1537 2939 
Q 1816 3084 2150 3084 
Q 2853 3084 3261 2657 
Q 3669 2231 3669 1497 
Q 3669 778 3244 343 
Q 2819 -91 2113 -91 
Q 1303 -91 875 529 
Q 447 1150 447 2328 
Q 447 3434 972 4092 
Q 1497 4750 2381 4750 
Q 2619 4750 2861 4703 
Q 3103 4656 3366 4563 
z
" id="DejaVuSans-36" transform="scale(0.015625)"/>
       </defs>
       <use xlink:href="#DejaVuSans-31"/>
       <use x="63.623047" xlink:href="#DejaVuSans-36"/>
      </g>
     </g>
    </g>
    <g id="xtick_5">
     <g id="line2d_5">
      <g>
       <use style="stroke:#000000;stroke-width:0.8;" x="741.011364" xlink:href="#m9043e66091" y="619.72"/>
      </g>
     </g>
     <g id="text_5">
      <!-- 18 -->
      <g transform="translate(725.741364 644.95625)scale(0.24 -0.24)">
       <defs>
        <path d="M 2034 2216 
Q 1584 2216 1326 1975 
Q 1069 1734 1069 1313 
Q 1069 891 1326 650 
Q 1584 409 2034 409 
Q 2484 409 2743 651 
Q 3003 894 3003 1313 
Q 3003 1734 2745 1975 
Q 2488 2216 2034 2216 
z
M 1403 2484 
Q 997 2584 770 2862 
Q 544 3141 544 3541 
Q 544 4100 942 4425 
Q 1341 4750 2034 4750 
Q 2731 4750 3128 4425 
Q 3525 4100 3525 3541 
Q 3525 3141 3298 2862 
Q 3072 2584 2669 2484 
Q 3125 2378 3379 2068 
Q 3634 1759 3634 1313 
Q 3634 634 3220 271 
Q 2806 -91 2034 -91 
Q 1263 -91 848 271 
Q 434 634 434 1313 
Q 434 1759 690 2068 
Q 947 2378 1403 2484 
z
M 1172 3481 
Q 1172 3119 1398 2916 
Q 1625 2713 2034 2713 
Q 2441 2713 2670 2916 
Q 2900 3119 2900 3481 
Q 2900 3844 2670 4047 
Q 2441 4250 2034 4250 
Q 1625 4250 1398 4047 
Q 1172 3844 1172 3481 
z
" id="DejaVuSans-38" transform="scale(0.015625)"/>
       </defs>
       <use xlink:href="#DejaVuSans-31"/>
       <use x="63.623047" xlink:href="#DejaVuSans-38"/>
      </g>
     </g>
    </g>
    <g id="xtick_6">
     <g id="line2d_6">
      <g>
       <use style="stroke:#000000;stroke-width:0.8;" x="888.362273" xlink:href="#m9043e66091" y="619.72"/>
      </g>
     </g>
     <g id="text_6">
      <!-- 20 -->
      <g transform="translate(873.092273 644.95625)scale(0.24 -0.24)">
       <use xlink:href="#DejaVuSans-32"/>
       <use x="63.623047" xlink:href="#DejaVuSans-30"/>
      </g>
     </g>
    </g>
    <g id="text_7">
     <!-- Time (s) -->
     <g transform="translate(454.9325 678.2625)scale(0.32 -0.32)">
      <defs>
       <path d="M -19 4666 
L 3928 4666 
L 3928 4134 
L 2272 4134 
L 2272 0 
L 1638 0 
L 1638 4134 
L -19 4134 
L -19 4666 
z
" id="DejaVuSans-54" transform="scale(0.015625)"/>
       <path d="M 603 3500 
L 1178 3500 
L 1178 0 
L 603 0 
L 603 3500 
z
M 603 4863 
L 1178 4863 
L 1178 4134 
L 603 4134 
L 603 4863 
z
" id="DejaVuSans-69" transform="scale(0.015625)"/>
       <path d="M 3328 2828 
Q 3544 3216 3844 3400 
Q 4144 3584 4550 3584 
Q 5097 3584 5394 3201 
Q 5691 2819 5691 2113 
L 5691 0 
L 5113 0 
L 5113 2094 
Q 5113 2597 4934 2840 
Q 4756 3084 4391 3084 
Q 3944 3084 3684 2787 
Q 3425 2491 3425 1978 
L 3425 0 
L 2847 0 
L 2847 2094 
Q 2847 2600 2669 2842 
Q 2491 3084 2119 3084 
Q 1678 3084 1418 2786 
Q 1159 2488 1159 1978 
L 1159 0 
L 581 0 
L 581 3500 
L 1159 3500 
L 1159 2956 
Q 1356 3278 1631 3431 
Q 1906 3584 2284 3584 
Q 2666 3584 2933 3390 
Q 3200 3197 3328 2828 
z
" id="DejaVuSans-6d" transform="scale(0.015625)"/>
       <path d="M 3597 1894 
L 3597 1613 
L 953 1613 
Q 991 1019 1311 708 
Q 1631 397 2203 397 
Q 2534 397 2845 478 
Q 3156 559 3463 722 
L 3463 178 
Q 3153 47 2828 -22 
Q 2503 -91 2169 -91 
Q 1331 -91 842 396 
Q 353 884 353 1716 
Q 353 2575 817 3079 
Q 1281 3584 2069 3584 
Q 2775 3584 3186 3129 
Q 3597 2675 3597 1894 
z
M 3022 2063 
Q 3016 2534 2758 2815 
Q 2500 3097 2075 3097 
Q 1594 3097 1305 2825 
Q 1016 2553 972 2059 
L 3022 2063 
z
" id="DejaVuSans-65" transform="scale(0.015625)"/>
       <path id="DejaVuSans-20" transform="scale(0.015625)"/>
       <path d="M 1984 4856 
Q 1566 4138 1362 3434 
Q 1159 2731 1159 2009 
Q 1159 1288 1364 580 
Q 1569 -128 1984 -844 
L 1484 -844 
Q 1016 -109 783 600 
Q 550 1309 550 2009 
Q 550 2706 781 3412 
Q 1013 4119 1484 4856 
L 1984 4856 
z
" id="DejaVuSans-28" transform="scale(0.015625)"/>
       <path d="M 2834 3397 
L 2834 2853 
Q 2591 2978 2328 3040 
Q 2066 3103 1784 3103 
Q 1356 3103 1142 2972 
Q 928 2841 928 2578 
Q 928 2378 1081 2264 
Q 1234 2150 1697 2047 
L 1894 2003 
Q 2506 1872 2764 1633 
Q 3022 1394 3022 966 
Q 3022 478 2636 193 
Q 2250 -91 1575 -91 
Q 1294 -91 989 -36 
Q 684 19 347 128 
L 347 722 
Q 666 556 975 473 
Q 1284 391 1588 391 
Q 1994 391 2212 530 
Q 2431 669 2431 922 
Q 2431 1156 2273 1281 
Q 2116 1406 1581 1522 
L 1381 1569 
Q 847 1681 609 1914 
Q 372 2147 372 2553 
Q 372 3047 722 3315 
Q 1072 3584 1716 3584 
Q 2034 3584 2315 3537 
Q 2597 3491 2834 3397 
z
" id="DejaVuSans-73" transform="scale(0.015625)"/>
       <path d="M 513 4856 
L 1013 4856 
Q 1481 4119 1714 3412 
Q 1947 2706 1947 2009 
Q 1947 1309 1714 600 
Q 1481 -109 1013 -844 
L 513 -844 
Q 928 -128 1133 580 
Q 1338 1288 1338 2009 
Q 1338 2731 1133 3434 
Q 928 4138 513 4856 
z
" id="DejaVuSans-29" transform="scale(0.015625)"/>
      </defs>
      <use xlink:href="#DejaVuSans-54"/>
      <use x="57.958984" xlink:href="#DejaVuSans-69"/>
      <use x="85.742188" xlink:href="#DejaVuSans-6d"/>
      <use x="183.154297" xlink:href="#DejaVuSans-65"/>
      <use x="244.677734" xlink:href="#DejaVuSans-20"/>
      <use x="276.464844" xlink:href="#DejaVuSans-28"/>
      <use x="315.478516" xlink:href="#DejaVuSans-73"/>
      <use x="367.578125" xlink:href="#DejaVuSans-29"/>
     </g>
    </g>
   </g>
   <g id="matplotlib.axis_2">
    <g id="ytick_1">
     <g id="line2d_7">
      <defs>
       <path d="M 0 0 
L -3.5 0 
" id="m848f81a02f" style="stroke:#000000;stroke-width:0.8;"/>
      </defs>
      <g>
       <use style="stroke:#000000;stroke-width:0.8;" x="114.77" xlink:href="#m848f81a02f" y="544.761488"/>
      </g>
     </g>
     <g id="text_8">
      <!-- −3 -->
      <g transform="translate(72.38875 553.879613)scale(0.24 -0.24)">
       <defs>
        <path d="M 678 2272 
L 4684 2272 
L 4684 1741 
L 678 1741 
L 678 2272 
z
" id="DejaVuSans-2212" transform="scale(0.015625)"/>
        <path d="M 2597 2516 
Q 3050 2419 3304 2112 
Q 3559 1806 3559 1356 
Q 3559 666 3084 287 
Q 2609 -91 1734 -91 
Q 1441 -91 1130 -33 
Q 819 25 488 141 
L 488 750 
Q 750 597 1062 519 
Q 1375 441 1716 441 
Q 2309 441 2620 675 
Q 2931 909 2931 1356 
Q 2931 1769 2642 2001 
Q 2353 2234 1838 2234 
L 1294 2234 
L 1294 2753 
L 1863 2753 
Q 2328 2753 2575 2939 
Q 2822 3125 2822 3475 
Q 2822 3834 2567 4026 
Q 2313 4219 1838 4219 
Q 1578 4219 1281 4162 
Q 984 4106 628 3988 
L 628 4550 
Q 988 4650 1302 4700 
Q 1616 4750 1894 4750 
Q 2613 4750 3031 4423 
Q 3450 4097 3450 3541 
Q 3450 3153 3228 2886 
Q 3006 2619 2597 2516 
z
" id="DejaVuSans-33" transform="scale(0.015625)"/>
       </defs>
       <use xlink:href="#DejaVuSans-2212"/>
       <use x="83.789062" xlink:href="#DejaVuSans-33"/>
      </g>
     </g>
    </g>
    <g id="ytick_2">
     <g id="line2d_8">
      <g>
       <use style="stroke:#000000;stroke-width:0.8;" x="114.77" xlink:href="#m848f81a02f" y="448.040826"/>
      </g>
     </g>
     <g id="text_9">
      <!-- −2 -->
      <g transform="translate(72.38875 457.158951)scale(0.24 -0.24)">
       <use xlink:href="#DejaVuSans-2212"/>
       <use x="83.789062" xlink:href="#DejaVuSans-32"/>
      </g>
     </g>
    </g>
    <g id="ytick_3">
     <g id="line2d_9">
      <g>
       <use style="stroke:#000000;stroke-width:0.8;" x="114.77" xlink:href="#m848f81a02f" y="351.320165"/>
      </g>
     </g>
     <g id="text_10">
      <!-- −1 -->
      <g transform="translate(72.38875 360.43829)scale(0.24 -0.24)">
       <use xlink:href="#DejaVuSans-2212"/>
       <use x="83.789062" xlink:href="#DejaVuSans-31"/>
      </g>
     </g>
    </g>
    <g id="ytick_4">
     <g id="line2d_10">
      <g>
       <use style="stroke:#000000;stroke-width:0.8;" x="114.77" xlink:href="#m848f81a02f" y="254.599504"/>
      </g>
     </g>
     <g id="text_11">
      <!-- 0 -->
      <g transform="translate(92.5 263.717629)scale(0.24 -0.24)">
       <use xlink:href="#DejaVuSans-30"/>
      </g>
     </g>
    </g>
    <g id="ytick_5">
     <g id="line2d_11">
      <g>
       <use style="stroke:#000000;stroke-width:0.8;" x="114.77" xlink:href="#m848f81a02f" y="157.878843"/>
      </g>
     </g>
     <g id="text_12">
      <!-- 1 -->
      <g transform="translate(92.5 166.996968)scale(0.24 -0.24)">
       <use xlink:href="#DejaVuSans-31"/>
      </g>
     </g>
    </g>
    <g id="ytick_6">
     <g id="line2d_12">
      <g>
       <use style="stroke:#000000;stroke-width:0.8;" x="114.77" xlink:href="#m848f81a02f" y="61.158182"/>
      </g>
     </g>
     <g id="text_13">
      <!-- 2 -->
      <g transform="translate(92.5 70.276307)scale(0.24 -0.24)">
       <use xlink:href="#DejaVuSans-32"/>
      </g>
     </g>
    </g>
    <g id="text_14">
     <!-- $\tan (\psi)$ -->
     <g transform="translate(61.66875 376.42)rotate(-90)scale(0.32 -0.32)">
      <defs>
       <path d="M 1172 4494 
L 1172 3500 
L 2356 3500 
L 2356 3053 
L 1172 3053 
L 1172 1153 
Q 1172 725 1289 603 
Q 1406 481 1766 481 
L 2356 481 
L 2356 0 
L 1766 0 
Q 1100 0 847 248 
Q 594 497 594 1153 
L 594 3053 
L 172 3053 
L 172 3500 
L 594 3500 
L 594 4494 
L 1172 4494 
z
" id="DejaVuSans-74" transform="scale(0.015625)"/>
       <path d="M 2194 1759 
Q 1497 1759 1228 1600 
Q 959 1441 959 1056 
Q 959 750 1161 570 
Q 1363 391 1709 391 
Q 2188 391 2477 730 
Q 2766 1069 2766 1631 
L 2766 1759 
L 2194 1759 
z
M 3341 1997 
L 3341 0 
L 2766 0 
L 2766 531 
Q 2569 213 2275 61 
Q 1981 -91 1556 -91 
Q 1019 -91 701 211 
Q 384 513 384 1019 
Q 384 1609 779 1909 
Q 1175 2209 1959 2209 
L 2766 2209 
L 2766 2266 
Q 2766 2663 2505 2880 
Q 2244 3097 1772 3097 
Q 1472 3097 1187 3025 
Q 903 2953 641 2809 
L 641 3341 
Q 956 3463 1253 3523 
Q 1550 3584 1831 3584 
Q 2591 3584 2966 3190 
Q 3341 2797 3341 1997 
z
" id="DejaVuSans-61" transform="scale(0.015625)"/>
       <path d="M 3513 2113 
L 3513 0 
L 2938 0 
L 2938 2094 
Q 2938 2591 2744 2837 
Q 2550 3084 2163 3084 
Q 1697 3084 1428 2787 
Q 1159 2491 1159 1978 
L 1159 0 
L 581 0 
L 581 3500 
L 1159 3500 
L 1159 2956 
Q 1366 3272 1645 3428 
Q 1925 3584 2291 3584 
Q 2894 3584 3203 3211 
Q 3513 2838 3513 2113 
z
" id="DejaVuSans-6e" transform="scale(0.015625)"/>
       <path d="M 1591 -78 
Q 891 38 616 341 
Q 278 713 425 1472 
L 819 3500 
L 1400 3500 
L 1009 1494 
Q 900 922 1119 684 
Q 1313 478 1691 434 
L 2284 3500 
L 2856 3500 
L 2263 438 
Q 2681 481 2928 688 
Q 3247 950 3353 1497 
L 3741 3500 
L 4322 3500 
L 3928 1475 
Q 3775 688 3300 344 
Q 2872 34 2163 -75 
L 1919 -1331 
L 1347 -1331 
L 1591 -78 
z
" id="DejaVuSans-Oblique-3c8" transform="scale(0.015625)"/>
      </defs>
      <use transform="translate(0 0.125)" xlink:href="#DejaVuSans-74"/>
      <use transform="translate(39.208984 0.125)" xlink:href="#DejaVuSans-61"/>
      <use transform="translate(100.488281 0.125)" xlink:href="#DejaVuSans-6e"/>
      <use transform="translate(163.867188 0.125)" xlink:href="#DejaVuSans-28"/>
      <use transform="translate(202.880859 0.125)" xlink:href="#DejaVuSans-Oblique-3c8"/>
      <use transform="translate(268.847656 0.125)" xlink:href="#DejaVuSans-29"/>
     </g>
    </g>
   </g>
   <g id="line2d_13">
    <path clip-path="url(#p293c560286)" d="M 151.607727 496.401157 
L 158.975273 483.089513 
L 166.342818 470.225002 
L 173.710364 457.790947 
L 181.077909 445.771156 
L 188.445455 434.149926 
L 195.813 422.91204 
L 203.9173 410.975565 
L 212.0216 399.466203 
L 220.1259 388.365745 
L 228.2302 377.656697 
L 236.3345 367.322276 
L 244.4388 357.346415 
L 252.5431 347.713761 
L 260.6474 338.409672 
L 268.7517 329.420222 
L 277.592755 319.956888 
L 286.433809 310.836104 
L 295.274864 302.042697 
L 304.115918 293.562502 
L 312.956973 285.382367 
L 321.798027 277.49015 
L 330.639082 269.87472 
L 340.216891 261.925304 
L 349.7947 254.27734 
L 359.372509 246.920692 
L 368.950318 239.846616 
L 378.528127 233.04776 
L 388.105936 226.518166 
L 397.683745 220.253267 
L 407.261555 214.249887 
L 416.839364 208.506244 
L 426.417173 203.021949 
L 435.994982 197.798002 
L 445.572791 192.8368 
L 455.1506 188.142128 
L 463.991655 184.049606 
L 472.832709 180.193711 
L 481.673764 176.580581 
L 490.514818 173.217363 
L 498.619118 170.360904 
L 506.723418 167.728316 
L 514.827718 165.327343 
L 522.932018 163.166443 
L 530.299564 161.41802 
L 537.667109 159.882978 
L 545.034655 158.569207 
L 552.4022 157.485085 
L 559.769745 156.639477 
L 566.400536 156.090079 
L 573.031327 155.748602 
L 579.662118 155.622521 
L 586.292909 155.719633 
L 592.9237 156.04805 
L 599.554491 156.61621 
L 605.448527 157.329575 
L 611.342564 158.24564 
L 617.2366 159.370965 
L 623.130636 160.71231 
L 629.024673 162.276634 
L 634.918709 164.071098 
L 640.812745 166.103061 
L 646.706782 168.380081 
L 652.600818 170.909917 
L 658.494855 173.700528 
L 664.388891 176.76007 
L 670.282927 180.096903 
L 676.176964 183.719582 
L 682.071 187.636866 
L 687.965036 191.857709 
L 693.859073 196.39127 
L 699.016355 200.622011 
L 704.173636 205.105728 
L 709.330918 209.848933 
L 714.4882 214.858252 
L 719.645482 220.14043 
L 724.802764 225.702328 
L 730.6968 232.410253 
L 736.590836 239.50325 
L 742.484873 246.99212 
L 748.378909 254.887868 
L 754.272945 263.201696 
L 760.166982 271.945007 
L 766.061018 281.129402 
L 771.955055 290.766685 
L 777.849091 300.868855 
L 783.743127 311.448115 
L 789.637164 322.516865 
L 795.5312 334.087705 
L 801.425236 346.173437 
L 807.319273 358.787059 
L 813.213309 371.941772 
L 819.107345 385.650974 
L 825.001382 399.928265 
L 830.895418 414.787442 
L 836.789455 430.242504 
L 842.683491 446.307649 
L 848.577527 462.997275 
L 854.471564 480.325978 
L 860.3656 498.308556 
L 866.259636 516.960005 
L 872.153673 536.295521 
L 878.047709 556.3305 
L 883.941745 577.080538 
L 888.362273 593.121818 
L 888.362273 593.121818 
" style="fill:none;stroke:#1f77b4;stroke-linecap:square;stroke-width:4;"/>
   </g>
   <g id="line2d_14">
    <path clip-path="url(#p293c560286)" d="M 151.607727 61.158182 
L 156.765009 70.424413 
L 162.659045 80.522024 
L 168.553082 90.136019 
L 174.447118 99.304934 
L 180.341155 108.062963 
L 186.235191 116.440535 
L 192.129227 124.464798 
L 198.760018 133.099904 
L 205.390809 141.349289 
L 212.0216 149.240229 
L 218.652391 156.79695 
L 225.283182 164.041008 
L 232.650727 171.746554 
L 240.018273 179.113156 
L 247.385818 186.161456 
L 254.753364 192.909699 
L 262.120909 199.374017 
L 270.225209 206.173818 
L 278.329509 212.664021 
L 286.433809 218.859227 
L 294.538109 224.772186 
L 302.642409 230.414013 
L 310.746709 235.79438 
L 318.851009 240.921683 
L 326.955309 245.803189 
L 335.059609 250.445166 
L 343.900664 255.242261 
L 352.741718 259.766622 
L 361.582773 264.023218 
L 370.423827 268.016184 
L 379.264882 271.74894 
L 388.105936 275.224297 
L 396.946991 278.44456 
L 405.788045 281.41162 
L 414.6291 284.127043 
L 423.470155 286.592159 
L 432.311209 288.808136 
L 441.152264 290.776067 
L 449.993318 292.49704 
L 458.834373 293.972217 
L 467.675427 295.202902 
L 476.516482 296.190618 
L 485.357536 296.937173 
L 494.198591 297.444731 
L 503.039645 297.71588 
L 511.8807 297.753694 
L 520.721755 297.561799 
L 529.562809 297.144437 
L 538.403864 296.506522 
L 547.244918 295.653698 
L 556.822727 294.494758 
L 566.400536 293.100428 
L 575.978345 291.481198 
L 586.292909 289.499415 
L 596.607473 287.286872 
L 607.658791 284.680993 
L 619.446864 281.660588 
L 631.971691 278.215697 
L 645.970027 274.131529 
L 663.652136 268.722267 
L 715.224955 252.773868 
L 727.749782 249.215305 
L 738.8011 246.29264 
L 749.115664 243.795415 
L 758.693473 241.713868 
L 767.534527 240.026011 
L 775.638827 238.700128 
L 783.743127 237.608238 
L 791.110673 236.837092 
L 798.478218 236.29406 
L 805.109009 236.014235 
L 811.7398 235.945109 
L 818.370591 236.099114 
L 825.001382 236.488775 
L 830.895418 237.043181 
L 836.789455 237.802696 
L 842.683491 238.776324 
L 848.577527 239.973146 
L 854.471564 241.402323 
L 860.3656 243.073105 
L 866.259636 244.994845 
L 872.153673 247.177004 
L 877.310955 249.307551 
L 882.468236 251.65133 
L 887.625518 254.214939 
L 888.362273 254.599504 
L 888.362273 254.599504 
" style="fill:none;stroke:#ff7f0e;stroke-linecap:square;stroke-width:4;"/>
   </g>
   <g id="line2d_15">
    <path clip-path="url(#p293c560286)" d="M 151.607727 593.121818 
L 888.362273 593.121818 
" style="fill:none;stroke:#1f77b4;stroke-dasharray:14.8,6.4;stroke-dashoffset:0;stroke-width:4;"/>
   </g>
   <g id="line2d_16">
    <path clip-path="url(#p293c560286)" d="M 151.607727 297.766797 
L 888.362273 297.766797 
" style="fill:none;stroke:#ff7f0e;stroke-dasharray:14.8,6.4;stroke-dashoffset:0;stroke-width:4;"/>
   </g>
   <g id="patch_3">
    <path d="M 114.77 619.72 
L 114.77 34.56 
" style="fill:none;stroke:#000000;stroke-linecap:square;stroke-linejoin:miter;stroke-width:0.8;"/>
   </g>
   <g id="patch_4">
    <path d="M 925.2 619.72 
L 925.2 34.56 
" style="fill:none;stroke:#000000;stroke-linecap:square;stroke-linejoin:miter;stroke-width:0.8;"/>
   </g>
   <g id="patch_5">
    <path d="M 114.77 619.72 
L 925.2 619.72 
" style="fill:none;stroke:#000000;stroke-linecap:square;stroke-linejoin:miter;stroke-width:0.8;"/>
   </g>
   <g id="patch_6">
    <path d="M 114.77 34.56 
L 925.2 34.56 
" style="fill:none;stroke:#000000;stroke-linecap:square;stroke-linejoin:miter;stroke-width:0.8;"/>
   </g>
   <g id="legend_1">
    <g id="patch_7">
     <path d="M 355.80625 607.72 
L 684.16375 607.72 
Q 688.96375 607.72 688.96375 602.92 
L 688.96375 464.41 
Q 688.96375 459.61 684.16375 459.61 
L 355.80625 459.61 
Q 351.00625 459.61 351.00625 464.41 
L 351.00625 602.92 
Q 351.00625 607.72 355.80625 607.72 
z
" style="fill:#ffffff;opacity:0.8;stroke:#cccccc;stroke-linejoin:miter;"/>
    </g>
    <g id="line2d_17">
     <path d="M 360.60625 479.04625 
L 408.60625 479.04625 
" style="fill:none;stroke:#1f77b4;stroke-linecap:square;stroke-width:4;"/>
    </g>
    <g id="line2d_18"/>
    <g id="text_15">
     <!-- c1 tangent -->
     <g transform="translate(427.80625 487.44625)scale(0.24 -0.24)">
      <defs>
       <path d="M 3122 3366 
L 3122 2828 
Q 2878 2963 2633 3030 
Q 2388 3097 2138 3097 
Q 1578 3097 1268 2742 
Q 959 2388 959 1747 
Q 959 1106 1268 751 
Q 1578 397 2138 397 
Q 2388 397 2633 464 
Q 2878 531 3122 666 
L 3122 134 
Q 2881 22 2623 -34 
Q 2366 -91 2075 -91 
Q 1284 -91 818 406 
Q 353 903 353 1747 
Q 353 2603 823 3093 
Q 1294 3584 2113 3584 
Q 2378 3584 2631 3529 
Q 2884 3475 3122 3366 
z
" id="DejaVuSans-63" transform="scale(0.015625)"/>
       <path d="M 2906 1791 
Q 2906 2416 2648 2759 
Q 2391 3103 1925 3103 
Q 1463 3103 1205 2759 
Q 947 2416 947 1791 
Q 947 1169 1205 825 
Q 1463 481 1925 481 
Q 2391 481 2648 825 
Q 2906 1169 2906 1791 
z
M 3481 434 
Q 3481 -459 3084 -895 
Q 2688 -1331 1869 -1331 
Q 1566 -1331 1297 -1286 
Q 1028 -1241 775 -1147 
L 775 -588 
Q 1028 -725 1275 -790 
Q 1522 -856 1778 -856 
Q 2344 -856 2625 -561 
Q 2906 -266 2906 331 
L 2906 616 
Q 2728 306 2450 153 
Q 2172 0 1784 0 
Q 1141 0 747 490 
Q 353 981 353 1791 
Q 353 2603 747 3093 
Q 1141 3584 1784 3584 
Q 2172 3584 2450 3431 
Q 2728 3278 2906 2969 
L 2906 3500 
L 3481 3500 
L 3481 434 
z
" id="DejaVuSans-67" transform="scale(0.015625)"/>
      </defs>
      <use xlink:href="#DejaVuSans-63"/>
      <use x="54.980469" xlink:href="#DejaVuSans-31"/>
      <use x="118.603516" xlink:href="#DejaVuSans-20"/>
      <use x="150.390625" xlink:href="#DejaVuSans-74"/>
      <use x="189.599609" xlink:href="#DejaVuSans-61"/>
      <use x="250.878906" xlink:href="#DejaVuSans-6e"/>
      <use x="314.257812" xlink:href="#DejaVuSans-67"/>
      <use x="377.734375" xlink:href="#DejaVuSans-65"/>
      <use x="439.257812" xlink:href="#DejaVuSans-6e"/>
      <use x="502.636719" xlink:href="#DejaVuSans-74"/>
     </g>
    </g>
    <g id="line2d_19">
     <path d="M 360.60625 514.27375 
L 408.60625 514.27375 
" style="fill:none;stroke:#ff7f0e;stroke-linecap:square;stroke-width:4;"/>
    </g>
    <g id="line2d_20"/>
    <g id="text_16">
     <!-- c2 tangent -->
     <g transform="translate(427.80625 522.67375)scale(0.24 -0.24)">
      <use xlink:href="#DejaVuSans-63"/>
      <use x="54.980469" xlink:href="#DejaVuSans-32"/>
      <use x="118.603516" xlink:href="#DejaVuSans-20"/>
      <use x="150.390625" xlink:href="#DejaVuSans-74"/>
      <use x="189.599609" xlink:href="#DejaVuSans-61"/>
      <use x="250.878906" xlink:href="#DejaVuSans-6e"/>
      <use x="314.257812" xlink:href="#DejaVuSans-67"/>
      <use x="377.734375" xlink:href="#DejaVuSans-65"/>
      <use x="439.257812" xlink:href="#DejaVuSans-6e"/>
      <use x="502.636719" xlink:href="#DejaVuSans-74"/>
     </g>
    </g>
    <g id="line2d_21">
     <path d="M 360.60625 549.50125 
L 408.60625 549.50125 
" style="fill:none;stroke:#1f77b4;stroke-dasharray:14.8,6.4;stroke-dashoffset:0;stroke-width:4;"/>
    </g>
    <g id="line2d_22"/>
    <g id="text_17">
     <!-- c1 minimum tangent -->
     <g transform="translate(427.80625 557.90125)scale(0.24 -0.24)">
      <defs>
       <path d="M 544 1381 
L 544 3500 
L 1119 3500 
L 1119 1403 
Q 1119 906 1312 657 
Q 1506 409 1894 409 
Q 2359 409 2629 706 
Q 2900 1003 2900 1516 
L 2900 3500 
L 3475 3500 
L 3475 0 
L 2900 0 
L 2900 538 
Q 2691 219 2414 64 
Q 2138 -91 1772 -91 
Q 1169 -91 856 284 
Q 544 659 544 1381 
z
M 1991 3584 
L 1991 3584 
z
" id="DejaVuSans-75" transform="scale(0.015625)"/>
      </defs>
      <use xlink:href="#DejaVuSans-63"/>
      <use x="54.980469" xlink:href="#DejaVuSans-31"/>
      <use x="118.603516" xlink:href="#DejaVuSans-20"/>
      <use x="150.390625" xlink:href="#DejaVuSans-6d"/>
      <use x="247.802734" xlink:href="#DejaVuSans-69"/>
      <use x="275.585938" xlink:href="#DejaVuSans-6e"/>
      <use x="338.964844" xlink:href="#DejaVuSans-69"/>
      <use x="366.748047" xlink:href="#DejaVuSans-6d"/>
      <use x="464.160156" xlink:href="#DejaVuSans-75"/>
      <use x="527.539062" xlink:href="#DejaVuSans-6d"/>
      <use x="624.951172" xlink:href="#DejaVuSans-20"/>
      <use x="656.738281" xlink:href="#DejaVuSans-74"/>
      <use x="695.947266" xlink:href="#DejaVuSans-61"/>
      <use x="757.226562" xlink:href="#DejaVuSans-6e"/>
      <use x="820.605469" xlink:href="#DejaVuSans-67"/>
      <use x="884.082031" xlink:href="#DejaVuSans-65"/>
      <use x="945.605469" xlink:href="#DejaVuSans-6e"/>
      <use x="1008.984375" xlink:href="#DejaVuSans-74"/>
     </g>
    </g>
    <g id="line2d_23">
     <path d="M 360.60625 584.72875 
L 408.60625 584.72875 
" style="fill:none;stroke:#ff7f0e;stroke-dasharray:14.8,6.4;stroke-dashoffset:0;stroke-width:4;"/>
    </g>
    <g id="line2d_24"/>
    <g id="text_18">
     <!-- c2 minimum tangent -->
     <g transform="translate(427.80625 593.12875)scale(0.24 -0.24)">
      <use xlink:href="#DejaVuSans-63"/>
      <use x="54.980469" xlink:href="#DejaVuSans-32"/>
      <use x="118.603516" xlink:href="#DejaVuSans-20"/>
      <use x="150.390625" xlink:href="#DejaVuSans-6d"/>
      <use x="247.802734" xlink:href="#DejaVuSans-69"/>
      <use x="275.585938" xlink:href="#DejaVuSans-6e"/>
      <use x="338.964844" xlink:href="#DejaVuSans-69"/>
      <use x="366.748047" xlink:href="#DejaVuSans-6d"/>
      <use x="464.160156" xlink:href="#DejaVuSans-75"/>
      <use x="527.539062" xlink:href="#DejaVuSans-6d"/>
      <use x="624.951172" xlink:href="#DejaVuSans-20"/>
      <use x="656.738281" xlink:href="#DejaVuSans-74"/>
      <use x="695.947266" xlink:href="#DejaVuSans-61"/>
      <use x="757.226562" xlink:href="#DejaVuSans-6e"/>
      <use x="820.605469" xlink:href="#DejaVuSans-67"/>
      <use x="884.082031" xlink:href="#DejaVuSans-65"/>
      <use x="945.605469" xlink:href="#DejaVuSans-6e"/>
      <use x="1008.984375" xlink:href="#DejaVuSans-74"/>
     </g>
    </g>
   </g>
  </g>
 </g>
 <defs>
  <clipPath id="p293c560286">
   <rect height="585.16" width="810.43" x="114.77" y="34.56"/>
  </clipPath>
 </defs>
</svg>
