<?xml version="1.0" encoding="utf-8" standalone="no"?>
<!DOCTYPE svg PUBLIC "-//W3C//DTD SVG 1.1//EN"
  "http://www.w3.org/Graphics/SVG/1.1/DTD/svg11.dtd">
<svg height="720pt" version="1.1" viewBox="0 0 959.976 720" width="959.976pt" xmlns="http://www.w3.org/2000/svg" xmlns:xlink="http://www.w3.org/1999/xlink">
 <metadata>
  <rdf:RDF xmlns:cc="http://creativecommons.org/ns#" xmlns:dc="http://purl.org/dc/elements/1.1/" xmlns:rdf="http://www.w3.org/1999/02/22-rdf-syntax-ns#">
   <cc:Work>
    <dc:type rdf:resource="http://purl.org/dc/dcmitype/StillImage"/>
    <dc:date>2021-10-18T16:29:27.653398</dc:date>
    <dc:format>image/svg+xml</dc:format>
    <dc:creator>
     <cc:Agent>
      <dc:title>Matplotlib v3.4.2, https://matplotlib.org/</dc:title>
     </cc:Agent>
    </dc:creator>
   </cc:Work>
  </rdf:RDF>
 </metadata>
 <defs>
  <style type="text/css">*{stroke-linecap:butt;stroke-linejoin:round;}</style>
 </defs>
 <g id="figure_1">
  <g id="patch_1">
   <path d="M 0 720 
L 959.976 720 
L 959.976 0 
L 0 0 
z
" style="fill:#ffffff;"/>
  </g>
  <g id="axes_1">
   <g id="patch_2">
    <path d="M 162.26225 619.72 
L 925.416 619.72 
L 925.416 34.56 
L 162.26225 34.56 
z
" style="fill:#ffffff;"/>
   </g>
   <g id="matplotlib.axis_1">
    <g id="xtick_1">
     <g id="line2d_1">
      <defs>
       <path d="M 0 0 
L 0 3.5 
" id="m77eb5a0a5c" style="stroke:#000000;stroke-width:0.8;"/>
      </defs>
      <g>
       <use style="stroke:#000000;stroke-width:0.8;" x="196.951057" xlink:href="#m77eb5a0a5c" y="619.72"/>
      </g>
     </g>
     <g id="text_1">
      <!-- −1 -->
      <g transform="translate(179.260432 644.95625)scale(0.24 -0.24)">
       <defs>
        <path d="M 678 2272 
L 4684 2272 
L 4684 1741 
L 678 1741 
L 678 2272 
z
" id="DejaVuSans-2212" transform="scale(0.015625)"/>
        <path d="M 794 531 
L 1825 531 
L 1825 4091 
L 703 3866 
L 703 4441 
L 1819 4666 
L 2450 4666 
L 2450 531 
L 3481 531 
L 3481 0 
L 794 0 
L 794 531 
z
" id="DejaVuSans-31" transform="scale(0.015625)"/>
       </defs>
       <use xlink:href="#DejaVuSans-2212"/>
       <use x="83.789062" xlink:href="#DejaVuSans-31"/>
      </g>
     </g>
    </g>
    <g id="xtick_2">
     <g id="line2d_2">
      <g>
       <use style="stroke:#000000;stroke-width:0.8;" x="288.84809" xlink:href="#m77eb5a0a5c" y="619.72"/>
      </g>
     </g>
     <g id="text_2">
      <!-- 0 -->
      <g transform="translate(281.21309 644.95625)scale(0.24 -0.24)">
       <defs>
        <path d="M 2034 4250 
Q 1547 4250 1301 3770 
Q 1056 3291 1056 2328 
Q 1056 1369 1301 889 
Q 1547 409 2034 409 
Q 2525 409 2770 889 
Q 3016 1369 3016 2328 
Q 3016 3291 2770 3770 
Q 2525 4250 2034 4250 
z
M 2034 4750 
Q 2819 4750 3233 4129 
Q 3647 3509 3647 2328 
Q 3647 1150 3233 529 
Q 2819 -91 2034 -91 
Q 1250 -91 836 529 
Q 422 1150 422 2328 
Q 422 3509 836 4129 
Q 1250 4750 2034 4750 
z
" id="DejaVuSans-30" transform="scale(0.015625)"/>
       </defs>
       <use xlink:href="#DejaVuSans-30"/>
      </g>
     </g>
    </g>
    <g id="xtick_3">
     <g id="line2d_3">
      <g>
       <use style="stroke:#000000;stroke-width:0.8;" x="380.745123" xlink:href="#m77eb5a0a5c" y="619.72"/>
      </g>
     </g>
     <g id="text_3">
      <!-- 1 -->
      <g transform="translate(373.110123 644.95625)scale(0.24 -0.24)">
       <use xlink:href="#DejaVuSans-31"/>
      </g>
     </g>
    </g>
    <g id="xtick_4">
     <g id="line2d_4">
      <g>
       <use style="stroke:#000000;stroke-width:0.8;" x="472.642157" xlink:href="#m77eb5a0a5c" y="619.72"/>
      </g>
     </g>
     <g id="text_4">
      <!-- 2 -->
      <g transform="translate(465.007157 644.95625)scale(0.24 -0.24)">
       <defs>
        <path d="M 1228 531 
L 3431 531 
L 3431 0 
L 469 0 
L 469 531 
Q 828 903 1448 1529 
Q 2069 2156 2228 2338 
Q 2531 2678 2651 2914 
Q 2772 3150 2772 3378 
Q 2772 3750 2511 3984 
Q 2250 4219 1831 4219 
Q 1534 4219 1204 4116 
Q 875 4013 500 3803 
L 500 4441 
Q 881 4594 1212 4672 
Q 1544 4750 1819 4750 
Q 2544 4750 2975 4387 
Q 3406 4025 3406 3419 
Q 3406 3131 3298 2873 
Q 3191 2616 2906 2266 
Q 2828 2175 2409 1742 
Q 1991 1309 1228 531 
z
" id="DejaVuSans-32" transform="scale(0.015625)"/>
       </defs>
       <use xlink:href="#DejaVuSans-32"/>
      </g>
     </g>
    </g>
    <g id="xtick_5">
     <g id="line2d_5">
      <g>
       <use style="stroke:#000000;stroke-width:0.8;" x="564.53919" xlink:href="#m77eb5a0a5c" y="619.72"/>
      </g>
     </g>
     <g id="text_5">
      <!-- 3 -->
      <g transform="translate(556.90419 644.95625)scale(0.24 -0.24)">
       <defs>
        <path d="M 2597 2516 
Q 3050 2419 3304 2112 
Q 3559 1806 3559 1356 
Q 3559 666 3084 287 
Q 2609 -91 1734 -91 
Q 1441 -91 1130 -33 
Q 819 25 488 141 
L 488 750 
Q 750 597 1062 519 
Q 1375 441 1716 441 
Q 2309 441 2620 675 
Q 2931 909 2931 1356 
Q 2931 1769 2642 2001 
Q 2353 2234 1838 2234 
L 1294 2234 
L 1294 2753 
L 1863 2753 
Q 2328 2753 2575 2939 
Q 2822 3125 2822 3475 
Q 2822 3834 2567 4026 
Q 2313 4219 1838 4219 
Q 1578 4219 1281 4162 
Q 984 4106 628 3988 
L 628 4550 
Q 988 4650 1302 4700 
Q 1616 4750 1894 4750 
Q 2613 4750 3031 4423 
Q 3450 4097 3450 3541 
Q 3450 3153 3228 2886 
Q 3006 2619 2597 2516 
z
" id="DejaVuSans-33" transform="scale(0.015625)"/>
       </defs>
       <use xlink:href="#DejaVuSans-33"/>
      </g>
     </g>
    </g>
    <g id="xtick_6">
     <g id="line2d_6">
      <g>
       <use style="stroke:#000000;stroke-width:0.8;" x="656.436224" xlink:href="#m77eb5a0a5c" y="619.72"/>
      </g>
     </g>
     <g id="text_6">
      <!-- 4 -->
      <g transform="translate(648.801224 644.95625)scale(0.24 -0.24)">
       <defs>
        <path d="M 2419 4116 
L 825 1625 
L 2419 1625 
L 2419 4116 
z
M 2253 4666 
L 3047 4666 
L 3047 1625 
L 3713 1625 
L 3713 1100 
L 3047 1100 
L 3047 0 
L 2419 0 
L 2419 1100 
L 313 1100 
L 313 1709 
L 2253 4666 
z
" id="DejaVuSans-34" transform="scale(0.015625)"/>
       </defs>
       <use xlink:href="#DejaVuSans-34"/>
      </g>
     </g>
    </g>
    <g id="xtick_7">
     <g id="line2d_7">
      <g>
       <use style="stroke:#000000;stroke-width:0.8;" x="748.333257" xlink:href="#m77eb5a0a5c" y="619.72"/>
      </g>
     </g>
     <g id="text_7">
      <!-- 5 -->
      <g transform="translate(740.698257 644.95625)scale(0.24 -0.24)">
       <defs>
        <path d="M 691 4666 
L 3169 4666 
L 3169 4134 
L 1269 4134 
L 1269 2991 
Q 1406 3038 1543 3061 
Q 1681 3084 1819 3084 
Q 2600 3084 3056 2656 
Q 3513 2228 3513 1497 
Q 3513 744 3044 326 
Q 2575 -91 1722 -91 
Q 1428 -91 1123 -41 
Q 819 9 494 109 
L 494 744 
Q 775 591 1075 516 
Q 1375 441 1709 441 
Q 2250 441 2565 725 
Q 2881 1009 2881 1497 
Q 2881 1984 2565 2268 
Q 2250 2553 1709 2553 
Q 1456 2553 1204 2497 
Q 953 2441 691 2322 
L 691 4666 
z
" id="DejaVuSans-35" transform="scale(0.015625)"/>
       </defs>
       <use xlink:href="#DejaVuSans-35"/>
      </g>
     </g>
    </g>
    <g id="xtick_8">
     <g id="line2d_8">
      <g>
       <use style="stroke:#000000;stroke-width:0.8;" x="840.23029" xlink:href="#m77eb5a0a5c" y="619.72"/>
      </g>
     </g>
     <g id="text_8">
      <!-- 6 -->
      <g transform="translate(832.59529 644.95625)scale(0.24 -0.24)">
       <defs>
        <path d="M 2113 2584 
Q 1688 2584 1439 2293 
Q 1191 2003 1191 1497 
Q 1191 994 1439 701 
Q 1688 409 2113 409 
Q 2538 409 2786 701 
Q 3034 994 3034 1497 
Q 3034 2003 2786 2293 
Q 2538 2584 2113 2584 
z
M 3366 4563 
L 3366 3988 
Q 3128 4100 2886 4159 
Q 2644 4219 2406 4219 
Q 1781 4219 1451 3797 
Q 1122 3375 1075 2522 
Q 1259 2794 1537 2939 
Q 1816 3084 2150 3084 
Q 2853 3084 3261 2657 
Q 3669 2231 3669 1497 
Q 3669 778 3244 343 
Q 2819 -91 2113 -91 
Q 1303 -91 875 529 
Q 447 1150 447 2328 
Q 447 3434 972 4092 
Q 1497 4750 2381 4750 
Q 2619 4750 2861 4703 
Q 3103 4656 3366 4563 
z
" id="DejaVuSans-36" transform="scale(0.015625)"/>
       </defs>
       <use xlink:href="#DejaVuSans-36"/>
      </g>
     </g>
    </g>
    <g id="text_9">
     <!-- Time (hr) -->
     <g transform="translate(470.404125 678.2625)scale(0.32 -0.32)">
      <defs>
       <path d="M -19 4666 
L 3928 4666 
L 3928 4134 
L 2272 4134 
L 2272 0 
L 1638 0 
L 1638 4134 
L -19 4134 
L -19 4666 
z
" id="DejaVuSans-54" transform="scale(0.015625)"/>
       <path d="M 603 3500 
L 1178 3500 
L 1178 0 
L 603 0 
L 603 3500 
z
M 603 4863 
L 1178 4863 
L 1178 4134 
L 603 4134 
L 603 4863 
z
" id="DejaVuSans-69" transform="scale(0.015625)"/>
       <path d="M 3328 2828 
Q 3544 3216 3844 3400 
Q 4144 3584 4550 3584 
Q 5097 3584 5394 3201 
Q 5691 2819 5691 2113 
L 5691 0 
L 5113 0 
L 5113 2094 
Q 5113 2597 4934 2840 
Q 4756 3084 4391 3084 
Q 3944 3084 3684 2787 
Q 3425 2491 3425 1978 
L 3425 0 
L 2847 0 
L 2847 2094 
Q 2847 2600 2669 2842 
Q 2491 3084 2119 3084 
Q 1678 3084 1418 2786 
Q 1159 2488 1159 1978 
L 1159 0 
L 581 0 
L 581 3500 
L 1159 3500 
L 1159 2956 
Q 1356 3278 1631 3431 
Q 1906 3584 2284 3584 
Q 2666 3584 2933 3390 
Q 3200 3197 3328 2828 
z
" id="DejaVuSans-6d" transform="scale(0.015625)"/>
       <path d="M 3597 1894 
L 3597 1613 
L 953 1613 
Q 991 1019 1311 708 
Q 1631 397 2203 397 
Q 2534 397 2845 478 
Q 3156 559 3463 722 
L 3463 178 
Q 3153 47 2828 -22 
Q 2503 -91 2169 -91 
Q 1331 -91 842 396 
Q 353 884 353 1716 
Q 353 2575 817 3079 
Q 1281 3584 2069 3584 
Q 2775 3584 3186 3129 
Q 3597 2675 3597 1894 
z
M 3022 2063 
Q 3016 2534 2758 2815 
Q 2500 3097 2075 3097 
Q 1594 3097 1305 2825 
Q 1016 2553 972 2059 
L 3022 2063 
z
" id="DejaVuSans-65" transform="scale(0.015625)"/>
       <path id="DejaVuSans-20" transform="scale(0.015625)"/>
       <path d="M 1984 4856 
Q 1566 4138 1362 3434 
Q 1159 2731 1159 2009 
Q 1159 1288 1364 580 
Q 1569 -128 1984 -844 
L 1484 -844 
Q 1016 -109 783 600 
Q 550 1309 550 2009 
Q 550 2706 781 3412 
Q 1013 4119 1484 4856 
L 1984 4856 
z
" id="DejaVuSans-28" transform="scale(0.015625)"/>
       <path d="M 3513 2113 
L 3513 0 
L 2938 0 
L 2938 2094 
Q 2938 2591 2744 2837 
Q 2550 3084 2163 3084 
Q 1697 3084 1428 2787 
Q 1159 2491 1159 1978 
L 1159 0 
L 581 0 
L 581 4863 
L 1159 4863 
L 1159 2956 
Q 1366 3272 1645 3428 
Q 1925 3584 2291 3584 
Q 2894 3584 3203 3211 
Q 3513 2838 3513 2113 
z
" id="DejaVuSans-68" transform="scale(0.015625)"/>
       <path d="M 2631 2963 
Q 2534 3019 2420 3045 
Q 2306 3072 2169 3072 
Q 1681 3072 1420 2755 
Q 1159 2438 1159 1844 
L 1159 0 
L 581 0 
L 581 3500 
L 1159 3500 
L 1159 2956 
Q 1341 3275 1631 3429 
Q 1922 3584 2338 3584 
Q 2397 3584 2469 3576 
Q 2541 3569 2628 3553 
L 2631 2963 
z
" id="DejaVuSans-72" transform="scale(0.015625)"/>
       <path d="M 513 4856 
L 1013 4856 
Q 1481 4119 1714 3412 
Q 1947 2706 1947 2009 
Q 1947 1309 1714 600 
Q 1481 -109 1013 -844 
L 513 -844 
Q 928 -128 1133 580 
Q 1338 1288 1338 2009 
Q 1338 2731 1133 3434 
Q 928 4138 513 4856 
z
" id="DejaVuSans-29" transform="scale(0.015625)"/>
      </defs>
      <use xlink:href="#DejaVuSans-54"/>
      <use x="57.958984" xlink:href="#DejaVuSans-69"/>
      <use x="85.742188" xlink:href="#DejaVuSans-6d"/>
      <use x="183.154297" xlink:href="#DejaVuSans-65"/>
      <use x="244.677734" xlink:href="#DejaVuSans-20"/>
      <use x="276.464844" xlink:href="#DejaVuSans-28"/>
      <use x="315.478516" xlink:href="#DejaVuSans-68"/>
      <use x="378.857422" xlink:href="#DejaVuSans-72"/>
      <use x="419.970703" xlink:href="#DejaVuSans-29"/>
     </g>
    </g>
   </g>
   <g id="matplotlib.axis_2">
    <g id="ytick_1">
     <g id="line2d_9">
      <defs>
       <path d="M 0 0 
L -3.5 0 
" id="m393bf611fa" style="stroke:#000000;stroke-width:0.8;"/>
      </defs>
      <g>
       <use style="stroke:#000000;stroke-width:0.8;" x="162.26225" xlink:href="#m393bf611fa" y="593.121818"/>
      </g>
     </g>
     <g id="text_10">
      <!-- 40000 -->
      <g transform="translate(78.91225 602.239943)scale(0.24 -0.24)">
       <use xlink:href="#DejaVuSans-34"/>
       <use x="63.623047" xlink:href="#DejaVuSans-30"/>
       <use x="127.246094" xlink:href="#DejaVuSans-30"/>
       <use x="190.869141" xlink:href="#DejaVuSans-30"/>
       <use x="254.492188" xlink:href="#DejaVuSans-30"/>
      </g>
     </g>
    </g>
    <g id="ytick_2">
     <g id="line2d_10">
      <g>
       <use style="stroke:#000000;stroke-width:0.8;" x="162.26225" xlink:href="#m393bf611fa" y="496.751594"/>
      </g>
     </g>
     <g id="text_11">
      <!-- 45000 -->
      <g transform="translate(78.91225 505.869719)scale(0.24 -0.24)">
       <use xlink:href="#DejaVuSans-34"/>
       <use x="63.623047" xlink:href="#DejaVuSans-35"/>
       <use x="127.246094" xlink:href="#DejaVuSans-30"/>
       <use x="190.869141" xlink:href="#DejaVuSans-30"/>
       <use x="254.492188" xlink:href="#DejaVuSans-30"/>
      </g>
     </g>
    </g>
    <g id="ytick_3">
     <g id="line2d_11">
      <g>
       <use style="stroke:#000000;stroke-width:0.8;" x="162.26225" xlink:href="#m393bf611fa" y="400.38137"/>
      </g>
     </g>
     <g id="text_12">
      <!-- 50000 -->
      <g transform="translate(78.91225 409.499495)scale(0.24 -0.24)">
       <use xlink:href="#DejaVuSans-35"/>
       <use x="63.623047" xlink:href="#DejaVuSans-30"/>
       <use x="127.246094" xlink:href="#DejaVuSans-30"/>
       <use x="190.869141" xlink:href="#DejaVuSans-30"/>
       <use x="254.492188" xlink:href="#DejaVuSans-30"/>
      </g>
     </g>
    </g>
    <g id="ytick_4">
     <g id="line2d_12">
      <g>
       <use style="stroke:#000000;stroke-width:0.8;" x="162.26225" xlink:href="#m393bf611fa" y="304.011146"/>
      </g>
     </g>
     <g id="text_13">
      <!-- 55000 -->
      <g transform="translate(78.91225 313.129271)scale(0.24 -0.24)">
       <use xlink:href="#DejaVuSans-35"/>
       <use x="63.623047" xlink:href="#DejaVuSans-35"/>
       <use x="127.246094" xlink:href="#DejaVuSans-30"/>
       <use x="190.869141" xlink:href="#DejaVuSans-30"/>
       <use x="254.492188" xlink:href="#DejaVuSans-30"/>
      </g>
     </g>
    </g>
    <g id="ytick_5">
     <g id="line2d_13">
      <g>
       <use style="stroke:#000000;stroke-width:0.8;" x="162.26225" xlink:href="#m393bf611fa" y="207.640922"/>
      </g>
     </g>
     <g id="text_14">
      <!-- 60000 -->
      <g transform="translate(78.91225 216.759047)scale(0.24 -0.24)">
       <use xlink:href="#DejaVuSans-36"/>
       <use x="63.623047" xlink:href="#DejaVuSans-30"/>
       <use x="127.246094" xlink:href="#DejaVuSans-30"/>
       <use x="190.869141" xlink:href="#DejaVuSans-30"/>
       <use x="254.492188" xlink:href="#DejaVuSans-30"/>
      </g>
     </g>
    </g>
    <g id="ytick_6">
     <g id="line2d_14">
      <g>
       <use style="stroke:#000000;stroke-width:0.8;" x="162.26225" xlink:href="#m393bf611fa" y="111.270698"/>
      </g>
     </g>
     <g id="text_15">
      <!-- 65000 -->
      <g transform="translate(78.91225 120.388823)scale(0.24 -0.24)">
       <use xlink:href="#DejaVuSans-36"/>
       <use x="63.623047" xlink:href="#DejaVuSans-35"/>
       <use x="127.246094" xlink:href="#DejaVuSans-30"/>
       <use x="190.869141" xlink:href="#DejaVuSans-30"/>
       <use x="254.492188" xlink:href="#DejaVuSans-30"/>
      </g>
     </g>
    </g>
    <g id="text_16">
     <!-- Squared Speed $\left(\frac{m}{s}\right)^2$ -->
     <g transform="translate(65.95225 488.42)rotate(-90)scale(0.32 -0.32)">
      <defs>
       <path d="M 3425 4513 
L 3425 3897 
Q 3066 4069 2747 4153 
Q 2428 4238 2131 4238 
Q 1616 4238 1336 4038 
Q 1056 3838 1056 3469 
Q 1056 3159 1242 3001 
Q 1428 2844 1947 2747 
L 2328 2669 
Q 3034 2534 3370 2195 
Q 3706 1856 3706 1288 
Q 3706 609 3251 259 
Q 2797 -91 1919 -91 
Q 1588 -91 1214 -16 
Q 841 59 441 206 
L 441 856 
Q 825 641 1194 531 
Q 1563 422 1919 422 
Q 2459 422 2753 634 
Q 3047 847 3047 1241 
Q 3047 1584 2836 1778 
Q 2625 1972 2144 2069 
L 1759 2144 
Q 1053 2284 737 2584 
Q 422 2884 422 3419 
Q 422 4038 858 4394 
Q 1294 4750 2059 4750 
Q 2388 4750 2728 4690 
Q 3069 4631 3425 4513 
z
" id="DejaVuSans-53" transform="scale(0.015625)"/>
       <path d="M 947 1747 
Q 947 1113 1208 752 
Q 1469 391 1925 391 
Q 2381 391 2643 752 
Q 2906 1113 2906 1747 
Q 2906 2381 2643 2742 
Q 2381 3103 1925 3103 
Q 1469 3103 1208 2742 
Q 947 2381 947 1747 
z
M 2906 525 
Q 2725 213 2448 61 
Q 2172 -91 1784 -91 
Q 1150 -91 751 415 
Q 353 922 353 1747 
Q 353 2572 751 3078 
Q 1150 3584 1784 3584 
Q 2172 3584 2448 3432 
Q 2725 3281 2906 2969 
L 2906 3500 
L 3481 3500 
L 3481 -1331 
L 2906 -1331 
L 2906 525 
z
" id="DejaVuSans-71" transform="scale(0.015625)"/>
       <path d="M 544 1381 
L 544 3500 
L 1119 3500 
L 1119 1403 
Q 1119 906 1312 657 
Q 1506 409 1894 409 
Q 2359 409 2629 706 
Q 2900 1003 2900 1516 
L 2900 3500 
L 3475 3500 
L 3475 0 
L 2900 0 
L 2900 538 
Q 2691 219 2414 64 
Q 2138 -91 1772 -91 
Q 1169 -91 856 284 
Q 544 659 544 1381 
z
M 1991 3584 
L 1991 3584 
z
" id="DejaVuSans-75" transform="scale(0.015625)"/>
       <path d="M 2194 1759 
Q 1497 1759 1228 1600 
Q 959 1441 959 1056 
Q 959 750 1161 570 
Q 1363 391 1709 391 
Q 2188 391 2477 730 
Q 2766 1069 2766 1631 
L 2766 1759 
L 2194 1759 
z
M 3341 1997 
L 3341 0 
L 2766 0 
L 2766 531 
Q 2569 213 2275 61 
Q 1981 -91 1556 -91 
Q 1019 -91 701 211 
Q 384 513 384 1019 
Q 384 1609 779 1909 
Q 1175 2209 1959 2209 
L 2766 2209 
L 2766 2266 
Q 2766 2663 2505 2880 
Q 2244 3097 1772 3097 
Q 1472 3097 1187 3025 
Q 903 2953 641 2809 
L 641 3341 
Q 956 3463 1253 3523 
Q 1550 3584 1831 3584 
Q 2591 3584 2966 3190 
Q 3341 2797 3341 1997 
z
" id="DejaVuSans-61" transform="scale(0.015625)"/>
       <path d="M 2906 2969 
L 2906 4863 
L 3481 4863 
L 3481 0 
L 2906 0 
L 2906 525 
Q 2725 213 2448 61 
Q 2172 -91 1784 -91 
Q 1150 -91 751 415 
Q 353 922 353 1747 
Q 353 2572 751 3078 
Q 1150 3584 1784 3584 
Q 2172 3584 2448 3432 
Q 2725 3281 2906 2969 
z
M 947 1747 
Q 947 1113 1208 752 
Q 1469 391 1925 391 
Q 2381 391 2643 752 
Q 2906 1113 2906 1747 
Q 2906 2381 2643 2742 
Q 2381 3103 1925 3103 
Q 1469 3103 1208 2742 
Q 947 2381 947 1747 
z
" id="DejaVuSans-64" transform="scale(0.015625)"/>
       <path d="M 1159 525 
L 1159 -1331 
L 581 -1331 
L 581 3500 
L 1159 3500 
L 1159 2969 
Q 1341 3281 1617 3432 
Q 1894 3584 2278 3584 
Q 2916 3584 3314 3078 
Q 3713 2572 3713 1747 
Q 3713 922 3314 415 
Q 2916 -91 2278 -91 
Q 1894 -91 1617 61 
Q 1341 213 1159 525 
z
M 3116 1747 
Q 3116 2381 2855 2742 
Q 2594 3103 2138 3103 
Q 1681 3103 1420 2742 
Q 1159 2381 1159 1747 
Q 1159 1113 1420 752 
Q 1681 391 2138 391 
Q 2594 391 2855 752 
Q 3116 1113 3116 1747 
z
" id="DejaVuSans-70" transform="scale(0.015625)"/>
       <path d="M 2445 -858 
L 2445 -1050 
Q 1728 -371 1309 630 
Q 890 1632 890 2886 
Q 890 4122 1309 5136 
Q 1728 6150 2445 6822 
L 2445 6630 
Q 1408 5363 1408 2886 
Q 1408 410 2445 -858 
z
" id="STIXSizeOneSym-Regular-28" transform="scale(0.015625)"/>
       <path d="M 5747 2113 
L 5338 0 
L 4763 0 
L 5166 2094 
Q 5191 2228 5203 2325 
Q 5216 2422 5216 2491 
Q 5216 2772 5059 2928 
Q 4903 3084 4622 3084 
Q 4203 3084 3875 2770 
Q 3547 2456 3450 1953 
L 3066 0 
L 2491 0 
L 2900 2094 
Q 2925 2209 2937 2307 
Q 2950 2406 2950 2484 
Q 2950 2769 2794 2926 
Q 2638 3084 2363 3084 
Q 1938 3084 1609 2770 
Q 1281 2456 1184 1953 
L 800 0 
L 225 0 
L 909 3500 
L 1484 3500 
L 1375 2956 
Q 1609 3263 1923 3423 
Q 2238 3584 2597 3584 
Q 2978 3584 3223 3384 
Q 3469 3184 3519 2828 
Q 3781 3197 4126 3390 
Q 4472 3584 4856 3584 
Q 5306 3584 5551 3325 
Q 5797 3066 5797 2591 
Q 5797 2488 5784 2364 
Q 5772 2241 5747 2113 
z
" id="DejaVuSans-Oblique-6d" transform="scale(0.015625)"/>
       <path d="M 3200 3397 
L 3091 2853 
Q 2863 2978 2609 3040 
Q 2356 3103 2088 3103 
Q 1634 3103 1373 2948 
Q 1113 2794 1113 2528 
Q 1113 2219 1719 2053 
Q 1766 2041 1788 2034 
L 1972 1978 
Q 2547 1819 2739 1644 
Q 2931 1469 2931 1166 
Q 2931 609 2489 259 
Q 2047 -91 1331 -91 
Q 1053 -91 747 -37 
Q 441 16 72 128 
L 184 722 
Q 500 559 806 475 
Q 1113 391 1394 391 
Q 1816 391 2080 572 
Q 2344 753 2344 1031 
Q 2344 1331 1650 1516 
L 1591 1531 
L 1394 1581 
Q 956 1697 753 1886 
Q 550 2075 550 2369 
Q 550 2928 970 3256 
Q 1391 3584 2113 3584 
Q 2397 3584 2667 3537 
Q 2938 3491 3200 3397 
z
" id="DejaVuSans-Oblique-73" transform="scale(0.015625)"/>
       <path d="M 550 6630 
L 550 6822 
Q 1267 6144 1686 5142 
Q 2106 4141 2106 2886 
Q 2106 1651 1686 636 
Q 1267 -378 550 -1050 
L 550 -858 
Q 1587 410 1587 2886 
Q 1587 5363 550 6630 
z
" id="STIXSizeOneSym-Regular-29" transform="scale(0.015625)"/>
      </defs>
      <use transform="translate(0 0.765625)" xlink:href="#DejaVuSans-53"/>
      <use transform="translate(63.476562 0.765625)" xlink:href="#DejaVuSans-71"/>
      <use transform="translate(126.953125 0.765625)" xlink:href="#DejaVuSans-75"/>
      <use transform="translate(190.332031 0.765625)" xlink:href="#DejaVuSans-61"/>
      <use transform="translate(251.611328 0.765625)" xlink:href="#DejaVuSans-72"/>
      <use transform="translate(292.724609 0.765625)" xlink:href="#DejaVuSans-65"/>
      <use transform="translate(354.248047 0.765625)" xlink:href="#DejaVuSans-64"/>
      <use transform="translate(417.724609 0.765625)" xlink:href="#DejaVuSans-20"/>
      <use transform="translate(449.511719 0.765625)" xlink:href="#DejaVuSans-53"/>
      <use transform="translate(512.988281 0.765625)" xlink:href="#DejaVuSans-70"/>
      <use transform="translate(576.464844 0.765625)" xlink:href="#DejaVuSans-65"/>
      <use transform="translate(637.988281 0.765625)" xlink:href="#DejaVuSans-65"/>
      <use transform="translate(699.511719 0.765625)" xlink:href="#DejaVuSans-64"/>
      <use transform="translate(762.988281 0.765625)" xlink:href="#DejaVuSans-20"/>
      <use transform="translate(794.775391 -12.132812)scale(0.899555)" xlink:href="#STIXSizeOneSym-Regular-28"/>
      <use transform="translate(836.873444 44.5625)scale(0.7)" xlink:href="#DejaVuSans-Oblique-6d"/>
      <use transform="translate(852.873444 -25.8875)scale(0.7)" xlink:href="#DejaVuSans-Oblique-73"/>
      <use transform="translate(917.56192 -12.132812)scale(0.899555)" xlink:href="#STIXSizeOneSym-Regular-29"/>
      <use transform="translate(960.617004 39.046875)scale(0.7)" xlink:href="#DejaVuSans-32"/>
      <path d="M 836.873444 19.5625 
L 836.873444 25.8125 
L 905.06192 25.8125 
L 905.06192 19.5625 
L 836.873444 19.5625 
z
"/>
     </g>
    </g>
   </g>
   <g id="line2d_15">
    <path clip-path="url(#pe6d25af379)" d="M 288.84809 554.091877 
L 292.613976 500.768218 
L 296.037509 455.392367 
L 299.118688 417.24216 
L 302.199868 381.732482 
L 305.281047 348.912983 
L 308.019873 322.011004 
L 310.7587 297.236201 
L 313.497526 274.56128 
L 315.893999 256.410464 
L 318.290472 239.798854 
L 320.686945 224.683397 
L 323.083417 211.015296 
L 325.47989 198.740841 
L 327.53401 189.285349 
L 329.58813 180.772849 
L 331.642249 173.163346 
L 333.696369 166.415609 
L 335.750489 160.487439 
L 337.462255 156.142421 
L 339.174021 152.311675 
L 340.885788 148.969984 
L 342.597554 146.092077 
L 344.30932 143.652717 
L 346.021087 141.626769 
L 347.732853 139.989275 
L 349.44462 138.715516 
L 350.814033 137.941977 
L 352.183446 137.373254 
L 353.895212 136.931835 
L 355.606978 136.768038 
L 357.318745 136.858956 
L 359.030511 137.182208 
L 360.742278 137.715969 
L 362.796397 138.604509 
L 364.850517 139.730153 
L 367.24699 141.297619 
L 369.985816 143.361091 
L 373.409349 146.242417 
L 378.202294 150.606962 
L 387.10348 158.760872 
L 390.869366 161.904262 
L 394.292898 164.479184 
L 397.374078 166.5155 
L 400.112904 168.071993 
L 402.85173 169.36867 
L 405.248203 170.277442 
L 407.644676 170.966745 
L 410.041149 171.43058 
L 412.437622 171.665065 
L 414.834095 171.668323 
L 417.230568 171.440364 
L 419.627041 170.982972 
L 422.023513 170.299581 
L 424.419986 169.395157 
L 427.158813 168.099121 
L 429.897639 166.534341 
L 432.636465 164.714367 
L 435.717644 162.380972 
L 438.798824 159.768078 
L 442.222357 156.568902 
L 445.988243 152.734313 
L 450.096482 148.235501 
L 455.231781 142.256478 
L 462.078846 133.905103 
L 475.088271 117.984259 
L 480.22357 112.075612 
L 484.674162 107.280051 
L 488.782402 103.192375 
L 492.205934 100.077725 
L 495.629467 97.262482 
L 498.710647 95.010151 
L 501.791826 93.046811 
L 504.530652 91.561186 
L 507.269478 90.334847 
L 509.665951 89.485618 
L 512.062424 88.855109 
L 514.458897 88.452645 
L 516.85537 88.28755 
L 519.251843 88.369196 
L 521.648316 88.707048 
L 523.702436 89.207828 
L 525.756555 89.910048 
L 527.810675 90.819984 
L 529.864795 91.944049 
L 531.918914 93.288818 
L 534.315387 95.145673 
L 536.71186 97.323168 
L 539.108333 99.832726 
L 541.504806 102.686172 
L 543.901279 105.895747 
L 546.297752 109.474114 
L 548.694225 113.434355 
L 551.090697 117.789965 
L 553.829524 123.269746 
L 556.56835 129.30534 
L 559.307176 135.918523 
L 562.046002 143.131453 
L 564.784828 150.966506 
L 567.523655 159.446075 
L 570.262481 168.592334 
L 573.34366 179.705729 
L 576.42484 191.719859 
L 579.506019 204.66224 
L 582.587199 218.557547 
L 585.668378 233.426685 
L 589.091911 251.109463 
L 592.515444 270.027464 
L 595.938976 290.182488 
L 599.704862 313.766705 
L 603.470748 338.792467 
L 607.578988 367.654088 
L 612.02958 400.598101 
L 617.164879 440.440581 
L 623.669591 492.840922 
L 631.201363 554.091877 
L 631.201363 554.091877 
" style="fill:none;stroke:#1f77b4;stroke-linecap:square;stroke-width:4;"/>
   </g>
   <g id="line2d_16">
    <path clip-path="url(#pe6d25af379)" d="M 288.84809 554.091877 
L 292.459365 546.779967 
L 296.672518 537.71456 
L 300.885672 528.111785 
L 305.700705 516.531849 
L 310.515738 504.365569 
L 315.93265 490.055373 
L 321.951441 473.486125 
L 328.572111 454.588289 
L 336.396539 431.563373 
L 347.230363 398.917894 
L 368.296132 335.270696 
L 376.722439 310.588928 
L 383.944988 290.107286 
L 390.565659 272.02218 
L 396.58445 256.251472 
L 402.001362 242.670263 
L 407.418273 229.723135 
L 412.233306 218.785124 
L 417.048339 208.415359 
L 421.261493 199.829105 
L 425.474647 191.714449 
L 429.6878 184.085462 
L 433.900954 176.954296 
L 437.512229 171.245886 
L 441.123503 165.916046 
L 444.734778 160.969005 
L 448.346052 156.407933 
L 451.957327 152.234937 
L 455.568602 148.45107 
L 458.577997 145.595127 
L 461.587393 143.00887 
L 464.596788 140.691242 
L 467.606184 138.640687 
L 470.615579 136.855159 
L 473.624975 135.332125 
L 476.63437 134.068574 
L 479.643766 133.061023 
L 482.653161 132.305527 
L 485.662557 131.797685 
L 488.671952 131.53265 
L 491.681348 131.505143 
L 494.690743 131.70946 
L 497.700139 132.139484 
L 500.709534 132.788701 
L 503.71893 133.650208 
L 506.728325 134.716732 
L 510.3396 136.256412 
L 513.950875 138.066468 
L 517.562149 140.132393 
L 521.173424 142.439043 
L 525.386578 145.413371 
L 529.599731 148.668018 
L 534.414764 152.696429 
L 539.229797 157.014627 
L 544.646709 162.166092 
L 551.267379 168.797096 
L 559.693687 177.597419 
L 582.565092 201.7113 
L 589.185763 208.269207 
L 594.602674 213.35157 
L 600.019586 218.119614 
L 604.834619 222.051782 
L 609.047773 225.227854 
L 613.260927 228.134467 
L 617.47408 230.751735 
L 621.085355 232.750967 
L 624.69663 234.513809 
L 628.307904 236.030879 
L 631.919179 237.293881 
L 635.530453 238.295653 
L 639.141728 239.030218 
L 642.151124 239.434777 
L 645.160519 239.648388 
L 648.169915 239.669613 
L 651.17931 239.497667 
L 654.188706 239.132431 
L 657.198101 238.574465 
L 660.207497 237.825027 
L 663.818771 236.675773 
L 667.430046 235.258428 
L 671.041321 233.579274 
L 674.652595 231.646134 
L 678.26387 229.468387 
L 681.875144 227.056989 
L 686.088298 223.965197 
L 690.301452 220.595156 
L 695.116485 216.43593 
L 699.931518 211.989695 
L 705.950309 206.101659 
L 713.172858 198.690688 
L 733.636747 177.447049 
L 739.053659 172.259866 
L 743.266813 168.495591 
L 747.479967 165.029823 
L 751.091241 162.340873 
L 754.702516 159.951407 
L 757.711911 158.216304 
L 760.721307 156.73766 
L 763.730702 155.537761 
L 766.138219 154.793559 
L 768.545735 154.253511 
L 770.953252 153.929047 
L 773.360768 153.831552 
L 775.768285 153.972343 
L 778.175801 154.362645 
L 780.583317 155.013565 
L 782.990834 155.936059 
L 785.39835 157.140914 
L 787.805867 158.63871 
L 790.213383 160.439794 
L 792.620899 162.554246 
L 795.028416 164.991851 
L 797.435932 167.762061 
L 799.843449 170.873961 
L 802.250965 174.336236 
L 804.658481 178.15713 
L 807.065998 182.344411 
L 809.473514 186.90533 
L 812.48291 193.142045 
L 815.492305 199.984724 
L 818.501701 207.443513 
L 821.511096 215.526823 
L 824.520492 224.241188 
L 827.529887 233.591117 
L 830.539283 243.578942 
L 834.150557 256.406173 
L 837.761832 270.14704 
L 841.373107 284.791142 
L 844.984381 300.322028 
L 849.197535 319.531179 
L 853.410689 339.867271 
L 857.623843 361.267763 
L 862.438875 386.928451 
L 867.855787 417.158484 
L 873.874578 452.14407 
L 881.699007 499.143995 
L 890.727193 554.091877 
L 890.727193 554.091877 
" style="fill:none;stroke:#ff7f0e;stroke-linecap:square;stroke-width:4;"/>
   </g>
   <g id="line2d_17">
    <path clip-path="url(#pe6d25af379)" d="M 288.84809 554.091877 
L 289.843753 555.340248 
L 290.507528 555.858354 
L 291.171304 556.135259 
L 291.835079 556.179401 
L 292.498854 555.999017 
L 293.162629 555.602145 
L 293.826405 554.996631 
L 294.822068 553.713853 
L 295.817731 552.003872 
L 296.813394 549.890829 
L 298.140944 546.486521 
L 299.468495 542.459646 
L 301.127933 536.626691 
L 302.787371 529.991511 
L 304.778697 521.091834 
L 307.10191 509.590918 
L 309.757011 495.218855 
L 312.744 477.807755 
L 316.394764 455.220295 
L 321.704966 420.830374 
L 334.316697 338.560318 
L 339.295011 307.836378 
L 343.609551 282.602881 
L 347.592202 260.652995 
L 351.242966 241.77209 
L 354.561843 225.695834 
L 357.880719 210.692664 
L 360.867708 198.126337 
L 363.854697 186.456917 
L 366.841685 175.687416 
L 369.496787 166.86823 
L 372.151888 158.753537 
L 374.806989 151.335967 
L 377.46209 144.605836 
L 379.785303 139.271688 
L 382.108517 134.44583 
L 384.43173 130.118207 
L 386.754944 126.277844 
L 389.078157 122.91292 
L 391.069483 120.397569 
L 393.060809 118.21389 
L 395.052135 116.35313 
L 397.043461 114.806177 
L 399.034786 113.563574 
L 401.026112 112.615538 
L 403.017438 111.951969 
L 405.008764 111.56246 
L 407.00009 111.436313 
L 408.991416 111.562547 
L 410.982742 111.929904 
L 412.974067 112.526867 
L 414.965393 113.341663 
L 417.288607 114.551534 
L 419.61182 116.022062 
L 422.266921 117.996327 
L 424.922022 120.254812 
L 427.909011 123.096936 
L 431.227888 126.576649 
L 434.878652 130.723735 
L 439.525079 136.357344 
L 446.826607 145.622605 
L 454.460022 155.213314 
L 459.106449 160.69748 
L 462.757213 164.695137 
L 466.07609 168.028465 
L 469.063078 170.743175 
L 472.050067 173.155553 
L 474.705168 175.023987 
L 477.360269 176.615525 
L 479.683483 177.770138 
L 482.006696 178.694917 
L 484.32991 179.384435 
L 486.653123 179.83526 
L 488.976337 180.046071 
L 491.29955 180.017772 
L 493.622764 179.753592 
L 495.945977 179.259193 
L 498.269191 178.542757 
L 500.924292 177.466057 
L 503.579393 176.133942 
L 506.566382 174.361461 
L 509.885258 172.102917 
L 513.86791 169.088055 
L 520.83755 163.443039 
L 525.483977 159.815471 
L 528.802854 157.505428 
L 531.457955 155.928016 
L 533.781168 154.807081 
L 535.772494 154.079257 
L 537.76382 153.601249 
L 539.423258 153.418036 
L 541.082696 153.451525 
L 542.742134 153.721757 
L 544.401573 154.248918 
L 546.061011 155.053266 
L 547.720449 156.155043 
L 549.379887 157.574386 
L 551.039325 159.331234 
L 552.698764 161.445223 
L 554.358202 163.935576 
L 556.01764 166.820988 
L 557.677078 170.119503 
L 559.336516 173.848381 
L 561.327842 178.914042 
L 563.319168 184.649061 
L 565.310494 191.076996 
L 567.30182 198.218382 
L 569.625033 207.474281 
L 571.948247 217.744605 
L 574.27146 229.041251 
L 576.594674 241.366587 
L 579.249775 256.701 
L 581.904876 273.335653 
L 584.891865 293.53394 
L 588.210741 317.677447 
L 591.861505 346.030135 
L 596.176044 381.383273 
L 608.455887 483.339937 
L 611.110988 503.122683 
L 613.434202 518.897322 
L 615.425527 530.948504 
L 617.084966 539.735103 
L 618.412516 545.812493 
L 619.740067 550.936833 
L 620.73573 554.091877 
L 620.73573 554.091877 
" style="fill:none;stroke:#2ca02c;stroke-linecap:square;stroke-width:4;"/>
   </g>
   <g id="line2d_18">
    <path clip-path="url(#pe6d25af379)" d="M 288.84809 554.091877 
L 291.39803 509.521951 
L 293.947971 468.937487 
L 296.242917 435.833619 
L 298.537863 405.935702 
L 300.577816 381.992046 
L 302.617768 360.449921 
L 304.65772 341.218999 
L 306.697672 324.194985 
L 308.482631 311.018671 
L 310.267589 299.360525 
L 312.052547 289.133397 
L 313.837505 280.24716 
L 315.36747 273.627832 
L 316.897434 267.8673 
L 318.427398 262.90667 
L 319.957362 258.687196 
L 321.487326 255.150599 
L 323.01729 252.239367 
L 324.292261 250.250266 
L 325.567231 248.624185 
L 326.842201 247.329815 
L 328.117171 246.336631 
L 329.392141 245.614969 
L 330.667111 245.136091 
L 331.942082 244.872243 
L 333.472046 244.801923 
L 335.00201 244.958727 
L 336.786968 245.373139 
L 338.82692 246.076281 
L 341.631855 247.293546 
L 348.771688 250.517513 
L 351.321628 251.370457 
L 353.616574 251.893577 
L 355.656527 252.129314 
L 357.696479 252.127118 
L 359.481437 251.918642 
L 361.266395 251.511458 
L 363.306348 250.800413 
L 365.3463 249.829715 
L 367.386252 248.606936 
L 369.681198 246.945511 
L 371.976145 245.004727 
L 374.526085 242.557205 
L 377.586013 239.282209 
L 381.15593 235.116292 
L 387.785775 226.944648 
L 392.630661 221.149962 
L 395.945584 217.520268 
L 398.750518 214.769103 
L 401.300458 212.582851 
L 403.595405 210.909404 
L 405.635357 209.679056 
L 407.675309 208.707535 
L 409.460267 208.079938 
L 411.245226 207.666869 
L 413.030184 207.472797 
L 414.815142 207.500124 
L 416.6001 207.749162 
L 418.385059 208.21812 
L 420.170017 208.90311 
L 422.209969 209.942747 
L 424.249921 211.244559 
L 426.544868 213.00306 
L 428.839814 215.04678 
L 431.389754 217.613392 
L 434.449683 221.035763 
L 438.019599 225.37675 
L 451.279289 241.883225 
L 454.084223 244.846891 
L 456.634163 247.214433 
L 458.92911 249.030649 
L 460.969062 250.364138 
L 462.75402 251.295923 
L 464.538978 251.995521 
L 466.323937 252.45336 
L 468.108895 252.662716 
L 469.893853 252.619967 
L 471.678811 252.324835 
L 473.463769 251.78062 
L 475.248728 250.994419 
L 477.033686 249.977344 
L 479.073638 248.552112 
L 481.368584 246.649879 
L 483.918525 244.229761 
L 487.233447 240.753284 
L 493.863292 233.715447 
L 496.158238 231.643691 
L 497.943197 230.305598 
L 499.473161 229.408222 
L 500.748131 228.872669 
L 502.023101 228.560791 
L 503.298071 228.502515 
L 504.318047 228.659249 
L 505.338024 229.014364 
L 506.358 229.584519 
L 507.377976 230.386721 
L 508.397952 231.438294 
L 509.672922 233.130301 
L 510.947892 235.274463 
L 512.222862 237.906281 
L 513.497833 241.061681 
L 514.772803 244.776889 
L 516.302767 250.025347 
L 517.832731 256.195301 
L 519.362695 263.349402 
L 520.892659 271.549608 
L 522.422624 280.856745 
L 524.207582 293.193018 
L 525.99254 307.206858 
L 527.777498 322.983586 
L 529.562457 340.602216 
L 531.602409 363.084306 
L 533.642361 388.156784 
L 535.682313 415.892788 
L 537.97726 450.342361 
L 540.272206 488.261176 
L 542.822146 534.443733 
L 543.842122 554.091877 
L 543.842122 554.091877 
" style="fill:none;stroke:#d62728;stroke-linecap:square;stroke-width:4;"/>
   </g>
   <g id="line2d_19">
    <path clip-path="url(#pe6d25af379)" d="M 196.951057 593.121818 
L 890.727193 593.121818 
" style="fill:none;stroke:#ff0000;stroke-dasharray:14.8,6.4;stroke-dashoffset:0;stroke-width:4;"/>
   </g>
   <g id="line2d_20">
    <path clip-path="url(#pe6d25af379)" d="M 196.951057 61.158182 
L 890.727193 61.158182 
" style="fill:none;stroke:#ff0000;stroke-dasharray:14.8,6.4;stroke-dashoffset:0;stroke-width:4;"/>
   </g>
   <g id="patch_3">
    <path d="M 162.26225 619.72 
L 162.26225 34.56 
" style="fill:none;stroke:#000000;stroke-linecap:square;stroke-linejoin:miter;stroke-width:0.8;"/>
   </g>
   <g id="patch_4">
    <path d="M 925.416 619.72 
L 925.416 34.56 
" style="fill:none;stroke:#000000;stroke-linecap:square;stroke-linejoin:miter;stroke-width:0.8;"/>
   </g>
   <g id="patch_5">
    <path d="M 162.26225 619.72 
L 925.416 619.72 
" style="fill:none;stroke:#000000;stroke-linecap:square;stroke-linejoin:miter;stroke-width:0.8;"/>
   </g>
   <g id="patch_6">
    <path d="M 162.26225 34.56 
L 925.416 34.56 
" style="fill:none;stroke:#000000;stroke-linecap:square;stroke-linejoin:miter;stroke-width:0.8;"/>
   </g>
   <g id="legend_1">
    <g id="patch_7">
     <path d="M 723.08475 607.72 
L 908.616 607.72 
Q 913.416 607.72 913.416 602.92 
L 913.416 383.05 
Q 913.416 378.25 908.616 378.25 
L 723.08475 378.25 
Q 718.28475 378.25 718.28475 383.05 
L 718.28475 602.92 
Q 718.28475 607.72 723.08475 607.72 
z
" style="fill:#ffffff;opacity:0.8;stroke:#cccccc;stroke-linejoin:miter;"/>
    </g>
    <g id="line2d_21">
     <path d="M 727.88475 397.68625 
L 775.88475 397.68625 
" style="fill:none;stroke:#1f77b4;stroke-linecap:square;stroke-width:4;"/>
    </g>
    <g id="line2d_22"/>
    <g id="text_17">
     <!-- Vehicle 1 -->
     <g transform="translate(795.08475 406.08625)scale(0.24 -0.24)">
      <defs>
       <path d="M 1831 0 
L 50 4666 
L 709 4666 
L 2188 738 
L 3669 4666 
L 4325 4666 
L 2547 0 
L 1831 0 
z
" id="DejaVuSans-56" transform="scale(0.015625)"/>
       <path d="M 3122 3366 
L 3122 2828 
Q 2878 2963 2633 3030 
Q 2388 3097 2138 3097 
Q 1578 3097 1268 2742 
Q 959 2388 959 1747 
Q 959 1106 1268 751 
Q 1578 397 2138 397 
Q 2388 397 2633 464 
Q 2878 531 3122 666 
L 3122 134 
Q 2881 22 2623 -34 
Q 2366 -91 2075 -91 
Q 1284 -91 818 406 
Q 353 903 353 1747 
Q 353 2603 823 3093 
Q 1294 3584 2113 3584 
Q 2378 3584 2631 3529 
Q 2884 3475 3122 3366 
z
" id="DejaVuSans-63" transform="scale(0.015625)"/>
       <path d="M 603 4863 
L 1178 4863 
L 1178 0 
L 603 0 
L 603 4863 
z
" id="DejaVuSans-6c" transform="scale(0.015625)"/>
      </defs>
      <use xlink:href="#DejaVuSans-56"/>
      <use x="60.658203" xlink:href="#DejaVuSans-65"/>
      <use x="122.181641" xlink:href="#DejaVuSans-68"/>
      <use x="185.560547" xlink:href="#DejaVuSans-69"/>
      <use x="213.34375" xlink:href="#DejaVuSans-63"/>
      <use x="268.324219" xlink:href="#DejaVuSans-6c"/>
      <use x="296.107422" xlink:href="#DejaVuSans-65"/>
      <use x="357.630859" xlink:href="#DejaVuSans-20"/>
      <use x="389.417969" xlink:href="#DejaVuSans-31"/>
     </g>
    </g>
    <g id="line2d_23">
     <path d="M 727.88475 432.91375 
L 775.88475 432.91375 
" style="fill:none;stroke:#ff7f0e;stroke-linecap:square;stroke-width:4;"/>
    </g>
    <g id="line2d_24"/>
    <g id="text_18">
     <!-- Vehicle 2 -->
     <g transform="translate(795.08475 441.31375)scale(0.24 -0.24)">
      <use xlink:href="#DejaVuSans-56"/>
      <use x="60.658203" xlink:href="#DejaVuSans-65"/>
      <use x="122.181641" xlink:href="#DejaVuSans-68"/>
      <use x="185.560547" xlink:href="#DejaVuSans-69"/>
      <use x="213.34375" xlink:href="#DejaVuSans-63"/>
      <use x="268.324219" xlink:href="#DejaVuSans-6c"/>
      <use x="296.107422" xlink:href="#DejaVuSans-65"/>
      <use x="357.630859" xlink:href="#DejaVuSans-20"/>
      <use x="389.417969" xlink:href="#DejaVuSans-32"/>
     </g>
    </g>
    <g id="line2d_25">
     <path d="M 727.88475 468.14125 
L 775.88475 468.14125 
" style="fill:none;stroke:#2ca02c;stroke-linecap:square;stroke-width:4;"/>
    </g>
    <g id="line2d_26"/>
    <g id="text_19">
     <!-- Vehicle 3 -->
     <g transform="translate(795.08475 476.54125)scale(0.24 -0.24)">
      <use xlink:href="#DejaVuSans-56"/>
      <use x="60.658203" xlink:href="#DejaVuSans-65"/>
      <use x="122.181641" xlink:href="#DejaVuSans-68"/>
      <use x="185.560547" xlink:href="#DejaVuSans-69"/>
      <use x="213.34375" xlink:href="#DejaVuSans-63"/>
      <use x="268.324219" xlink:href="#DejaVuSans-6c"/>
      <use x="296.107422" xlink:href="#DejaVuSans-65"/>
      <use x="357.630859" xlink:href="#DejaVuSans-20"/>
      <use x="389.417969" xlink:href="#DejaVuSans-33"/>
     </g>
    </g>
    <g id="line2d_27">
     <path d="M 727.88475 503.36875 
L 775.88475 503.36875 
" style="fill:none;stroke:#d62728;stroke-linecap:square;stroke-width:4;"/>
    </g>
    <g id="line2d_28"/>
    <g id="text_20">
     <!-- Vehicle 4 -->
     <g transform="translate(795.08475 511.76875)scale(0.24 -0.24)">
      <use xlink:href="#DejaVuSans-56"/>
      <use x="60.658203" xlink:href="#DejaVuSans-65"/>
      <use x="122.181641" xlink:href="#DejaVuSans-68"/>
      <use x="185.560547" xlink:href="#DejaVuSans-69"/>
      <use x="213.34375" xlink:href="#DejaVuSans-63"/>
      <use x="268.324219" xlink:href="#DejaVuSans-6c"/>
      <use x="296.107422" xlink:href="#DejaVuSans-65"/>
      <use x="357.630859" xlink:href="#DejaVuSans-20"/>
      <use x="389.417969" xlink:href="#DejaVuSans-34"/>
     </g>
    </g>
    <g id="line2d_29">
     <path d="M 727.88475 542.2 
L 775.88475 542.2 
" style="fill:none;stroke:#ff0000;stroke-dasharray:14.8,6.4;stroke-dashoffset:0;stroke-width:4;"/>
    </g>
    <g id="line2d_30"/>
    <g id="text_21">
     <!-- $v^2_{min}$ -->
     <g transform="translate(795.08475 550.6)scale(0.24 -0.24)">
      <defs>
       <path d="M 459 3500 
L 1069 3500 
L 1581 525 
L 3256 3500 
L 3866 3500 
L 1875 0 
L 1100 0 
L 459 3500 
z
" id="DejaVuSans-Oblique-76" transform="scale(0.015625)"/>
       <path d="M 1172 4863 
L 1747 4863 
L 1606 4134 
L 1031 4134 
L 1172 4863 
z
M 909 3500 
L 1484 3500 
L 800 0 
L 225 0 
L 909 3500 
z
" id="DejaVuSans-Oblique-69" transform="scale(0.015625)"/>
       <path d="M 3566 2113 
L 3156 0 
L 2578 0 
L 2988 2091 
Q 3016 2238 3031 2350 
Q 3047 2463 3047 2528 
Q 3047 2791 2881 2937 
Q 2716 3084 2419 3084 
Q 1956 3084 1622 2776 
Q 1288 2469 1184 1941 
L 800 0 
L 225 0 
L 903 3500 
L 1478 3500 
L 1363 2950 
Q 1603 3253 1940 3418 
Q 2278 3584 2650 3584 
Q 3113 3584 3367 3334 
Q 3622 3084 3622 2631 
Q 3622 2519 3608 2391 
Q 3594 2263 3566 2113 
z
" id="DejaVuSans-Oblique-6e" transform="scale(0.015625)"/>
      </defs>
      <use transform="translate(0 0.701562)" xlink:href="#DejaVuSans-Oblique-76"/>
      <use transform="translate(63.645833 39.046875)scale(0.7)" xlink:href="#DejaVuSans-32"/>
      <use transform="translate(59.179688 -26.642188)scale(0.7)" xlink:href="#DejaVuSans-Oblique-6d"/>
      <use transform="translate(127.368164 -26.642188)scale(0.7)" xlink:href="#DejaVuSans-Oblique-69"/>
      <use transform="translate(146.816406 -26.642188)scale(0.7)" xlink:href="#DejaVuSans-Oblique-6e"/>
     </g>
    </g>
    <g id="line2d_31">
     <path d="M 727.88475 582.76 
L 775.88475 582.76 
" style="fill:none;stroke:#ff0000;stroke-dasharray:14.8,6.4;stroke-dashoffset:0;stroke-width:4;"/>
    </g>
    <g id="line2d_32"/>
    <g id="text_22">
     <!-- $v^2_{max}$ -->
     <g transform="translate(795.08475 591.16)scale(0.24 -0.24)">
      <defs>
       <path d="M 3438 1997 
L 3047 0 
L 2472 0 
L 2578 531 
Q 2325 219 2001 64 
Q 1678 -91 1281 -91 
Q 834 -91 548 182 
Q 263 456 263 884 
Q 263 1497 752 1853 
Q 1241 2209 2100 2209 
L 2900 2209 
L 2931 2363 
Q 2938 2388 2941 2417 
Q 2944 2447 2944 2509 
Q 2944 2788 2717 2942 
Q 2491 3097 2081 3097 
Q 1800 3097 1504 3025 
Q 1209 2953 897 2809 
L 997 3341 
Q 1322 3463 1633 3523 
Q 1944 3584 2234 3584 
Q 2853 3584 3176 3315 
Q 3500 3047 3500 2534 
Q 3500 2431 3484 2292 
Q 3469 2153 3438 1997 
z
M 2816 1759 
L 2241 1759 
Q 1534 1759 1195 1570 
Q 856 1381 856 984 
Q 856 709 1029 553 
Q 1203 397 1509 397 
Q 1978 397 2328 733 
Q 2678 1069 2791 1631 
L 2816 1759 
z
" id="DejaVuSans-Oblique-61" transform="scale(0.015625)"/>
       <path d="M 3841 3500 
L 2234 1784 
L 3219 0 
L 2559 0 
L 1819 1388 
L 531 0 
L -166 0 
L 1556 1844 
L 641 3500 
L 1300 3500 
L 1972 2234 
L 3144 3500 
L 3841 3500 
z
" id="DejaVuSans-Oblique-78" transform="scale(0.015625)"/>
      </defs>
      <use transform="translate(0 0.765625)" xlink:href="#DejaVuSans-Oblique-76"/>
      <use transform="translate(63.645833 39.046875)scale(0.7)" xlink:href="#DejaVuSans-32"/>
      <use transform="translate(59.179688 -26.578125)scale(0.7)" xlink:href="#DejaVuSans-Oblique-6d"/>
      <use transform="translate(127.368164 -26.578125)scale(0.7)" xlink:href="#DejaVuSans-Oblique-61"/>
      <use transform="translate(170.263672 -26.578125)scale(0.7)" xlink:href="#DejaVuSans-Oblique-78"/>
     </g>
    </g>
   </g>
  </g>
 </g>
 <defs>
  <clipPath id="pe6d25af379">
   <rect height="585.16" width="763.15375" x="162.26225" y="34.56"/>
  </clipPath>
 </defs>
</svg>
