<?xml version="1.0" encoding="utf-8" standalone="no"?>
<!DOCTYPE svg PUBLIC "-//W3C//DTD SVG 1.1//EN"
  "http://www.w3.org/Graphics/SVG/1.1/DTD/svg11.dtd">
<!-- Created with matplotlib (https://matplotlib.org/) -->
<svg height="720pt" version="1.1" viewBox="0 0 959.976 720" width="959.976pt" xmlns="http://www.w3.org/2000/svg" xmlns:xlink="http://www.w3.org/1999/xlink">
 <metadata>
  <rdf:RDF xmlns:cc="http://creativecommons.org/ns#" xmlns:dc="http://purl.org/dc/elements/1.1/" xmlns:rdf="http://www.w3.org/1999/02/22-rdf-syntax-ns#">
   <cc:Work>
    <dc:type rdf:resource="http://purl.org/dc/dcmitype/StillImage"/>
    <dc:date>2020-08-25T11:21:09.711343</dc:date>
    <dc:format>image/svg+xml</dc:format>
    <dc:creator>
     <cc:Agent>
      <dc:title>Matplotlib v3.3.1, https://matplotlib.org/</dc:title>
     </cc:Agent>
    </dc:creator>
   </cc:Work>
  </rdf:RDF>
 </metadata>
 <defs>
  <style type="text/css">*{stroke-linecap:butt;stroke-linejoin:round;}</style>
 </defs>
 <g id="figure_1">
  <g id="patch_1">
   <path d="M 0 720 
L 959.976 720 
L 959.976 0 
L 0 0 
z
" style="fill:#ffffff;"/>
  </g>
  <g id="axes_1">
   <g id="patch_2">
    <path d="M 105.266 635.56 
L 934.056 635.56 
L 934.056 47.64 
L 105.266 47.64 
z
" style="fill:#ffffff;"/>
   </g>
   <g id="matplotlib.axis_1">
    <g id="xtick_1">
     <g id="line2d_1">
      <defs>
       <path d="M 0 0 
L 0 3.5 
" id="mb745b6b50c" style="stroke:#000000;stroke-width:0.8;"/>
      </defs>
      <g>
       <use style="stroke:#000000;stroke-width:0.8;" x="233.186073" xlink:href="#mb745b6b50c" y="635.56"/>
      </g>
     </g>
     <g id="text_1">
      <!-- 0 -->
      <g transform="translate(225.551073 660.79625)scale(0.24 -0.24)">
       <defs>
        <path d="M 31.78125 66.40625 
Q 24.171875 66.40625 20.328125 58.90625 
Q 16.5 51.421875 16.5 36.375 
Q 16.5 21.390625 20.328125 13.890625 
Q 24.171875 6.390625 31.78125 6.390625 
Q 39.453125 6.390625 43.28125 13.890625 
Q 47.125 21.390625 47.125 36.375 
Q 47.125 51.421875 43.28125 58.90625 
Q 39.453125 66.40625 31.78125 66.40625 
z
M 31.78125 74.21875 
Q 44.046875 74.21875 50.515625 64.515625 
Q 56.984375 54.828125 56.984375 36.375 
Q 56.984375 17.96875 50.515625 8.265625 
Q 44.046875 -1.421875 31.78125 -1.421875 
Q 19.53125 -1.421875 13.0625 8.265625 
Q 6.59375 17.96875 6.59375 36.375 
Q 6.59375 54.828125 13.0625 64.515625 
Q 19.53125 74.21875 31.78125 74.21875 
z
" id="DejaVuSans-48"/>
       </defs>
       <use xlink:href="#DejaVuSans-48"/>
      </g>
     </g>
    </g>
    <g id="xtick_2">
     <g id="line2d_2">
      <g>
       <use style="stroke:#000000;stroke-width:0.8;" x="413.681673" xlink:href="#mb745b6b50c" y="635.56"/>
      </g>
     </g>
     <g id="text_2">
      <!-- 2 -->
      <g transform="translate(406.046673 660.79625)scale(0.24 -0.24)">
       <defs>
        <path d="M 19.1875 8.296875 
L 53.609375 8.296875 
L 53.609375 0 
L 7.328125 0 
L 7.328125 8.296875 
Q 12.9375 14.109375 22.625 23.890625 
Q 32.328125 33.6875 34.8125 36.53125 
Q 39.546875 41.84375 41.421875 45.53125 
Q 43.3125 49.21875 43.3125 52.78125 
Q 43.3125 58.59375 39.234375 62.25 
Q 35.15625 65.921875 28.609375 65.921875 
Q 23.96875 65.921875 18.8125 64.3125 
Q 13.671875 62.703125 7.8125 59.421875 
L 7.8125 69.390625 
Q 13.765625 71.78125 18.9375 73 
Q 24.125 74.21875 28.421875 74.21875 
Q 39.75 74.21875 46.484375 68.546875 
Q 53.21875 62.890625 53.21875 53.421875 
Q 53.21875 48.921875 51.53125 44.890625 
Q 49.859375 40.875 45.40625 35.40625 
Q 44.1875 33.984375 37.640625 27.21875 
Q 31.109375 20.453125 19.1875 8.296875 
z
" id="DejaVuSans-50"/>
       </defs>
       <use xlink:href="#DejaVuSans-50"/>
      </g>
     </g>
    </g>
    <g id="xtick_3">
     <g id="line2d_3">
      <g>
       <use style="stroke:#000000;stroke-width:0.8;" x="594.177273" xlink:href="#mb745b6b50c" y="635.56"/>
      </g>
     </g>
     <g id="text_3">
      <!-- 4 -->
      <g transform="translate(586.542273 660.79625)scale(0.24 -0.24)">
       <defs>
        <path d="M 37.796875 64.3125 
L 12.890625 25.390625 
L 37.796875 25.390625 
z
M 35.203125 72.90625 
L 47.609375 72.90625 
L 47.609375 25.390625 
L 58.015625 25.390625 
L 58.015625 17.1875 
L 47.609375 17.1875 
L 47.609375 0 
L 37.796875 0 
L 37.796875 17.1875 
L 4.890625 17.1875 
L 4.890625 26.703125 
z
" id="DejaVuSans-52"/>
       </defs>
       <use xlink:href="#DejaVuSans-52"/>
      </g>
     </g>
    </g>
    <g id="xtick_4">
     <g id="line2d_4">
      <g>
       <use style="stroke:#000000;stroke-width:0.8;" x="774.672873" xlink:href="#mb745b6b50c" y="635.56"/>
      </g>
     </g>
     <g id="text_4">
      <!-- 6 -->
      <g transform="translate(767.037873 660.79625)scale(0.24 -0.24)">
       <defs>
        <path d="M 33.015625 40.375 
Q 26.375 40.375 22.484375 35.828125 
Q 18.609375 31.296875 18.609375 23.390625 
Q 18.609375 15.53125 22.484375 10.953125 
Q 26.375 6.390625 33.015625 6.390625 
Q 39.65625 6.390625 43.53125 10.953125 
Q 47.40625 15.53125 47.40625 23.390625 
Q 47.40625 31.296875 43.53125 35.828125 
Q 39.65625 40.375 33.015625 40.375 
z
M 52.59375 71.296875 
L 52.59375 62.3125 
Q 48.875 64.0625 45.09375 64.984375 
Q 41.3125 65.921875 37.59375 65.921875 
Q 27.828125 65.921875 22.671875 59.328125 
Q 17.53125 52.734375 16.796875 39.40625 
Q 19.671875 43.65625 24.015625 45.921875 
Q 28.375 48.1875 33.59375 48.1875 
Q 44.578125 48.1875 50.953125 41.515625 
Q 57.328125 34.859375 57.328125 23.390625 
Q 57.328125 12.15625 50.6875 5.359375 
Q 44.046875 -1.421875 33.015625 -1.421875 
Q 20.359375 -1.421875 13.671875 8.265625 
Q 6.984375 17.96875 6.984375 36.375 
Q 6.984375 53.65625 15.1875 63.9375 
Q 23.390625 74.21875 37.203125 74.21875 
Q 40.921875 74.21875 44.703125 73.484375 
Q 48.484375 72.75 52.59375 71.296875 
z
" id="DejaVuSans-54"/>
       </defs>
       <use xlink:href="#DejaVuSans-54"/>
      </g>
     </g>
    </g>
    <g id="text_5">
     <!-- Time (hr) -->
     <g transform="translate(464.58475 688.02375)scale(0.24 -0.24)">
      <defs>
       <path d="M -0.296875 72.90625 
L 61.375 72.90625 
L 61.375 64.59375 
L 35.5 64.59375 
L 35.5 0 
L 25.59375 0 
L 25.59375 64.59375 
L -0.296875 64.59375 
z
" id="DejaVuSans-84"/>
       <path d="M 9.421875 54.6875 
L 18.40625 54.6875 
L 18.40625 0 
L 9.421875 0 
z
M 9.421875 75.984375 
L 18.40625 75.984375 
L 18.40625 64.59375 
L 9.421875 64.59375 
z
" id="DejaVuSans-105"/>
       <path d="M 52 44.1875 
Q 55.375 50.25 60.0625 53.125 
Q 64.75 56 71.09375 56 
Q 79.640625 56 84.28125 50.015625 
Q 88.921875 44.046875 88.921875 33.015625 
L 88.921875 0 
L 79.890625 0 
L 79.890625 32.71875 
Q 79.890625 40.578125 77.09375 44.375 
Q 74.3125 48.1875 68.609375 48.1875 
Q 61.625 48.1875 57.5625 43.546875 
Q 53.515625 38.921875 53.515625 30.90625 
L 53.515625 0 
L 44.484375 0 
L 44.484375 32.71875 
Q 44.484375 40.625 41.703125 44.40625 
Q 38.921875 48.1875 33.109375 48.1875 
Q 26.21875 48.1875 22.15625 43.53125 
Q 18.109375 38.875 18.109375 30.90625 
L 18.109375 0 
L 9.078125 0 
L 9.078125 54.6875 
L 18.109375 54.6875 
L 18.109375 46.1875 
Q 21.1875 51.21875 25.484375 53.609375 
Q 29.78125 56 35.6875 56 
Q 41.65625 56 45.828125 52.96875 
Q 50 49.953125 52 44.1875 
z
" id="DejaVuSans-109"/>
       <path d="M 56.203125 29.59375 
L 56.203125 25.203125 
L 14.890625 25.203125 
Q 15.484375 15.921875 20.484375 11.0625 
Q 25.484375 6.203125 34.421875 6.203125 
Q 39.59375 6.203125 44.453125 7.46875 
Q 49.3125 8.734375 54.109375 11.28125 
L 54.109375 2.78125 
Q 49.265625 0.734375 44.1875 -0.34375 
Q 39.109375 -1.421875 33.890625 -1.421875 
Q 20.796875 -1.421875 13.15625 6.1875 
Q 5.515625 13.8125 5.515625 26.8125 
Q 5.515625 40.234375 12.765625 48.109375 
Q 20.015625 56 32.328125 56 
Q 43.359375 56 49.78125 48.890625 
Q 56.203125 41.796875 56.203125 29.59375 
z
M 47.21875 32.234375 
Q 47.125 39.59375 43.09375 43.984375 
Q 39.0625 48.390625 32.421875 48.390625 
Q 24.90625 48.390625 20.390625 44.140625 
Q 15.875 39.890625 15.1875 32.171875 
z
" id="DejaVuSans-101"/>
       <path id="DejaVuSans-32"/>
       <path d="M 31 75.875 
Q 24.46875 64.65625 21.28125 53.65625 
Q 18.109375 42.671875 18.109375 31.390625 
Q 18.109375 20.125 21.3125 9.0625 
Q 24.515625 -2 31 -13.1875 
L 23.1875 -13.1875 
Q 15.875 -1.703125 12.234375 9.375 
Q 8.59375 20.453125 8.59375 31.390625 
Q 8.59375 42.28125 12.203125 53.3125 
Q 15.828125 64.359375 23.1875 75.875 
z
" id="DejaVuSans-40"/>
       <path d="M 54.890625 33.015625 
L 54.890625 0 
L 45.90625 0 
L 45.90625 32.71875 
Q 45.90625 40.484375 42.875 44.328125 
Q 39.84375 48.1875 33.796875 48.1875 
Q 26.515625 48.1875 22.3125 43.546875 
Q 18.109375 38.921875 18.109375 30.90625 
L 18.109375 0 
L 9.078125 0 
L 9.078125 75.984375 
L 18.109375 75.984375 
L 18.109375 46.1875 
Q 21.34375 51.125 25.703125 53.5625 
Q 30.078125 56 35.796875 56 
Q 45.21875 56 50.046875 50.171875 
Q 54.890625 44.34375 54.890625 33.015625 
z
" id="DejaVuSans-104"/>
       <path d="M 41.109375 46.296875 
Q 39.59375 47.171875 37.8125 47.578125 
Q 36.03125 48 33.890625 48 
Q 26.265625 48 22.1875 43.046875 
Q 18.109375 38.09375 18.109375 28.8125 
L 18.109375 0 
L 9.078125 0 
L 9.078125 54.6875 
L 18.109375 54.6875 
L 18.109375 46.1875 
Q 20.953125 51.171875 25.484375 53.578125 
Q 30.03125 56 36.53125 56 
Q 37.453125 56 38.578125 55.875 
Q 39.703125 55.765625 41.0625 55.515625 
z
" id="DejaVuSans-114"/>
       <path d="M 8.015625 75.875 
L 15.828125 75.875 
Q 23.140625 64.359375 26.78125 53.3125 
Q 30.421875 42.28125 30.421875 31.390625 
Q 30.421875 20.453125 26.78125 9.375 
Q 23.140625 -1.703125 15.828125 -13.1875 
L 8.015625 -13.1875 
Q 14.5 -2 17.703125 9.0625 
Q 20.90625 20.125 20.90625 31.390625 
Q 20.90625 42.671875 17.703125 53.65625 
Q 14.5 64.65625 8.015625 75.875 
z
" id="DejaVuSans-41"/>
      </defs>
      <use xlink:href="#DejaVuSans-84"/>
      <use x="57.958984" xlink:href="#DejaVuSans-105"/>
      <use x="85.742188" xlink:href="#DejaVuSans-109"/>
      <use x="183.154297" xlink:href="#DejaVuSans-101"/>
      <use x="244.677734" xlink:href="#DejaVuSans-32"/>
      <use x="276.464844" xlink:href="#DejaVuSans-40"/>
      <use x="315.478516" xlink:href="#DejaVuSans-104"/>
      <use x="378.857422" xlink:href="#DejaVuSans-114"/>
      <use x="419.970703" xlink:href="#DejaVuSans-41"/>
     </g>
    </g>
   </g>
   <g id="matplotlib.axis_2">
    <g id="ytick_1">
     <g id="line2d_5">
      <defs>
       <path d="M 0 0 
L -3.5 0 
" id="md2d44920af" style="stroke:#000000;stroke-width:0.8;"/>
      </defs>
      <g>
       <use style="stroke:#000000;stroke-width:0.8;" x="105.266" xlink:href="#md2d44920af" y="608.836808"/>
      </g>
     </g>
     <g id="text_6">
      <!-- 0.0 -->
      <g transform="translate(60.0985 617.954933)scale(0.24 -0.24)">
       <defs>
        <path d="M 10.6875 12.40625 
L 21 12.40625 
L 21 0 
L 10.6875 0 
z
" id="DejaVuSans-46"/>
       </defs>
       <use xlink:href="#DejaVuSans-48"/>
       <use x="63.623047" xlink:href="#DejaVuSans-46"/>
       <use x="95.410156" xlink:href="#DejaVuSans-48"/>
      </g>
     </g>
    </g>
    <g id="ytick_2">
     <g id="line2d_6">
      <g>
       <use style="stroke:#000000;stroke-width:0.8;" x="105.266" xlink:href="#md2d44920af" y="520.020374"/>
      </g>
     </g>
     <g id="text_7">
      <!-- 0.5 -->
      <g transform="translate(60.0985 529.138499)scale(0.24 -0.24)">
       <defs>
        <path d="M 10.796875 72.90625 
L 49.515625 72.90625 
L 49.515625 64.59375 
L 19.828125 64.59375 
L 19.828125 46.734375 
Q 21.96875 47.46875 24.109375 47.828125 
Q 26.265625 48.1875 28.421875 48.1875 
Q 40.625 48.1875 47.75 41.5 
Q 54.890625 34.8125 54.890625 23.390625 
Q 54.890625 11.625 47.5625 5.09375 
Q 40.234375 -1.421875 26.90625 -1.421875 
Q 22.3125 -1.421875 17.546875 -0.640625 
Q 12.796875 0.140625 7.71875 1.703125 
L 7.71875 11.625 
Q 12.109375 9.234375 16.796875 8.0625 
Q 21.484375 6.890625 26.703125 6.890625 
Q 35.15625 6.890625 40.078125 11.328125 
Q 45.015625 15.765625 45.015625 23.390625 
Q 45.015625 31 40.078125 35.4375 
Q 35.15625 39.890625 26.703125 39.890625 
Q 22.75 39.890625 18.8125 39.015625 
Q 14.890625 38.140625 10.796875 36.28125 
z
" id="DejaVuSans-53"/>
       </defs>
       <use xlink:href="#DejaVuSans-48"/>
       <use x="63.623047" xlink:href="#DejaVuSans-46"/>
       <use x="95.410156" xlink:href="#DejaVuSans-53"/>
      </g>
     </g>
    </g>
    <g id="ytick_3">
     <g id="line2d_7">
      <g>
       <use style="stroke:#000000;stroke-width:0.8;" x="105.266" xlink:href="#md2d44920af" y="431.20394"/>
      </g>
     </g>
     <g id="text_8">
      <!-- 1.0 -->
      <g transform="translate(60.0985 440.322065)scale(0.24 -0.24)">
       <defs>
        <path d="M 12.40625 8.296875 
L 28.515625 8.296875 
L 28.515625 63.921875 
L 10.984375 60.40625 
L 10.984375 69.390625 
L 28.421875 72.90625 
L 38.28125 72.90625 
L 38.28125 8.296875 
L 54.390625 8.296875 
L 54.390625 0 
L 12.40625 0 
z
" id="DejaVuSans-49"/>
       </defs>
       <use xlink:href="#DejaVuSans-49"/>
       <use x="63.623047" xlink:href="#DejaVuSans-46"/>
       <use x="95.410156" xlink:href="#DejaVuSans-48"/>
      </g>
     </g>
    </g>
    <g id="ytick_4">
     <g id="line2d_8">
      <g>
       <use style="stroke:#000000;stroke-width:0.8;" x="105.266" xlink:href="#md2d44920af" y="342.387507"/>
      </g>
     </g>
     <g id="text_9">
      <!-- 1.5 -->
      <g transform="translate(60.0985 351.505632)scale(0.24 -0.24)">
       <use xlink:href="#DejaVuSans-49"/>
       <use x="63.623047" xlink:href="#DejaVuSans-46"/>
       <use x="95.410156" xlink:href="#DejaVuSans-53"/>
      </g>
     </g>
    </g>
    <g id="ytick_5">
     <g id="line2d_9">
      <g>
       <use style="stroke:#000000;stroke-width:0.8;" x="105.266" xlink:href="#md2d44920af" y="253.571073"/>
      </g>
     </g>
     <g id="text_10">
      <!-- 2.0 -->
      <g transform="translate(60.0985 262.689198)scale(0.24 -0.24)">
       <use xlink:href="#DejaVuSans-50"/>
       <use x="63.623047" xlink:href="#DejaVuSans-46"/>
       <use x="95.410156" xlink:href="#DejaVuSans-48"/>
      </g>
     </g>
    </g>
    <g id="ytick_6">
     <g id="line2d_10">
      <g>
       <use style="stroke:#000000;stroke-width:0.8;" x="105.266" xlink:href="#md2d44920af" y="164.754639"/>
      </g>
     </g>
     <g id="text_11">
      <!-- 2.5 -->
      <g transform="translate(60.0985 173.872764)scale(0.24 -0.24)">
       <use xlink:href="#DejaVuSans-50"/>
       <use x="63.623047" xlink:href="#DejaVuSans-46"/>
       <use x="95.410156" xlink:href="#DejaVuSans-53"/>
      </g>
     </g>
    </g>
    <g id="ytick_7">
     <g id="line2d_11">
      <g>
       <use style="stroke:#000000;stroke-width:0.8;" x="105.266" xlink:href="#md2d44920af" y="75.938205"/>
      </g>
     </g>
     <g id="text_12">
      <!-- 3.0 -->
      <g transform="translate(60.0985 85.05633)scale(0.24 -0.24)">
       <defs>
        <path d="M 40.578125 39.3125 
Q 47.65625 37.796875 51.625 33 
Q 55.609375 28.21875 55.609375 21.1875 
Q 55.609375 10.40625 48.1875 4.484375 
Q 40.765625 -1.421875 27.09375 -1.421875 
Q 22.515625 -1.421875 17.65625 -0.515625 
Q 12.796875 0.390625 7.625 2.203125 
L 7.625 11.71875 
Q 11.71875 9.328125 16.59375 8.109375 
Q 21.484375 6.890625 26.8125 6.890625 
Q 36.078125 6.890625 40.9375 10.546875 
Q 45.796875 14.203125 45.796875 21.1875 
Q 45.796875 27.640625 41.28125 31.265625 
Q 36.765625 34.90625 28.71875 34.90625 
L 20.21875 34.90625 
L 20.21875 43.015625 
L 29.109375 43.015625 
Q 36.375 43.015625 40.234375 45.921875 
Q 44.09375 48.828125 44.09375 54.296875 
Q 44.09375 59.90625 40.109375 62.90625 
Q 36.140625 65.921875 28.71875 65.921875 
Q 24.65625 65.921875 20.015625 65.03125 
Q 15.375 64.15625 9.8125 62.3125 
L 9.8125 71.09375 
Q 15.4375 72.65625 20.34375 73.4375 
Q 25.25 74.21875 29.59375 74.21875 
Q 40.828125 74.21875 47.359375 69.109375 
Q 53.90625 64.015625 53.90625 55.328125 
Q 53.90625 49.265625 50.4375 45.09375 
Q 46.96875 40.921875 40.578125 39.3125 
z
" id="DejaVuSans-51"/>
       </defs>
       <use xlink:href="#DejaVuSans-51"/>
       <use x="63.623047" xlink:href="#DejaVuSans-46"/>
       <use x="95.410156" xlink:href="#DejaVuSans-48"/>
      </g>
     </g>
    </g>
    <g id="text_13">
     <!-- Squared Euclidean Distance $km^2$ -->
     <g transform="translate(51.0585 539)rotate(-90)scale(0.24 -0.24)">
      <defs>
       <path d="M 53.515625 70.515625 
L 53.515625 60.890625 
Q 47.90625 63.578125 42.921875 64.890625 
Q 37.9375 66.21875 33.296875 66.21875 
Q 25.25 66.21875 20.875 63.09375 
Q 16.5 59.96875 16.5 54.203125 
Q 16.5 49.359375 19.40625 46.890625 
Q 22.3125 44.4375 30.421875 42.921875 
L 36.375 41.703125 
Q 47.40625 39.59375 52.65625 34.296875 
Q 57.90625 29 57.90625 20.125 
Q 57.90625 9.515625 50.796875 4.046875 
Q 43.703125 -1.421875 29.984375 -1.421875 
Q 24.8125 -1.421875 18.96875 -0.25 
Q 13.140625 0.921875 6.890625 3.21875 
L 6.890625 13.375 
Q 12.890625 10.015625 18.65625 8.296875 
Q 24.421875 6.59375 29.984375 6.59375 
Q 38.421875 6.59375 43.015625 9.90625 
Q 47.609375 13.234375 47.609375 19.390625 
Q 47.609375 24.75 44.3125 27.78125 
Q 41.015625 30.8125 33.5 32.328125 
L 27.484375 33.5 
Q 16.453125 35.6875 11.515625 40.375 
Q 6.59375 45.0625 6.59375 53.421875 
Q 6.59375 63.09375 13.40625 68.65625 
Q 20.21875 74.21875 32.171875 74.21875 
Q 37.3125 74.21875 42.625 73.28125 
Q 47.953125 72.359375 53.515625 70.515625 
z
" id="DejaVuSans-83"/>
       <path d="M 14.796875 27.296875 
Q 14.796875 17.390625 18.875 11.75 
Q 22.953125 6.109375 30.078125 6.109375 
Q 37.203125 6.109375 41.296875 11.75 
Q 45.40625 17.390625 45.40625 27.296875 
Q 45.40625 37.203125 41.296875 42.84375 
Q 37.203125 48.484375 30.078125 48.484375 
Q 22.953125 48.484375 18.875 42.84375 
Q 14.796875 37.203125 14.796875 27.296875 
z
M 45.40625 8.203125 
Q 42.578125 3.328125 38.25 0.953125 
Q 33.9375 -1.421875 27.875 -1.421875 
Q 17.96875 -1.421875 11.734375 6.484375 
Q 5.515625 14.40625 5.515625 27.296875 
Q 5.515625 40.1875 11.734375 48.09375 
Q 17.96875 56 27.875 56 
Q 33.9375 56 38.25 53.625 
Q 42.578125 51.265625 45.40625 46.390625 
L 45.40625 54.6875 
L 54.390625 54.6875 
L 54.390625 -20.796875 
L 45.40625 -20.796875 
z
" id="DejaVuSans-113"/>
       <path d="M 8.5 21.578125 
L 8.5 54.6875 
L 17.484375 54.6875 
L 17.484375 21.921875 
Q 17.484375 14.15625 20.5 10.265625 
Q 23.53125 6.390625 29.59375 6.390625 
Q 36.859375 6.390625 41.078125 11.03125 
Q 45.3125 15.671875 45.3125 23.6875 
L 45.3125 54.6875 
L 54.296875 54.6875 
L 54.296875 0 
L 45.3125 0 
L 45.3125 8.40625 
Q 42.046875 3.421875 37.71875 1 
Q 33.40625 -1.421875 27.6875 -1.421875 
Q 18.265625 -1.421875 13.375 4.4375 
Q 8.5 10.296875 8.5 21.578125 
z
M 31.109375 56 
z
" id="DejaVuSans-117"/>
       <path d="M 34.28125 27.484375 
Q 23.390625 27.484375 19.1875 25 
Q 14.984375 22.515625 14.984375 16.5 
Q 14.984375 11.71875 18.140625 8.90625 
Q 21.296875 6.109375 26.703125 6.109375 
Q 34.1875 6.109375 38.703125 11.40625 
Q 43.21875 16.703125 43.21875 25.484375 
L 43.21875 27.484375 
z
M 52.203125 31.203125 
L 52.203125 0 
L 43.21875 0 
L 43.21875 8.296875 
Q 40.140625 3.328125 35.546875 0.953125 
Q 30.953125 -1.421875 24.3125 -1.421875 
Q 15.921875 -1.421875 10.953125 3.296875 
Q 6 8.015625 6 15.921875 
Q 6 25.140625 12.171875 29.828125 
Q 18.359375 34.515625 30.609375 34.515625 
L 43.21875 34.515625 
L 43.21875 35.40625 
Q 43.21875 41.609375 39.140625 45 
Q 35.0625 48.390625 27.6875 48.390625 
Q 23 48.390625 18.546875 47.265625 
Q 14.109375 46.140625 10.015625 43.890625 
L 10.015625 52.203125 
Q 14.9375 54.109375 19.578125 55.046875 
Q 24.21875 56 28.609375 56 
Q 40.484375 56 46.34375 49.84375 
Q 52.203125 43.703125 52.203125 31.203125 
z
" id="DejaVuSans-97"/>
       <path d="M 45.40625 46.390625 
L 45.40625 75.984375 
L 54.390625 75.984375 
L 54.390625 0 
L 45.40625 0 
L 45.40625 8.203125 
Q 42.578125 3.328125 38.25 0.953125 
Q 33.9375 -1.421875 27.875 -1.421875 
Q 17.96875 -1.421875 11.734375 6.484375 
Q 5.515625 14.40625 5.515625 27.296875 
Q 5.515625 40.1875 11.734375 48.09375 
Q 17.96875 56 27.875 56 
Q 33.9375 56 38.25 53.625 
Q 42.578125 51.265625 45.40625 46.390625 
z
M 14.796875 27.296875 
Q 14.796875 17.390625 18.875 11.75 
Q 22.953125 6.109375 30.078125 6.109375 
Q 37.203125 6.109375 41.296875 11.75 
Q 45.40625 17.390625 45.40625 27.296875 
Q 45.40625 37.203125 41.296875 42.84375 
Q 37.203125 48.484375 30.078125 48.484375 
Q 22.953125 48.484375 18.875 42.84375 
Q 14.796875 37.203125 14.796875 27.296875 
z
" id="DejaVuSans-100"/>
       <path d="M 9.8125 72.90625 
L 55.90625 72.90625 
L 55.90625 64.59375 
L 19.671875 64.59375 
L 19.671875 43.015625 
L 54.390625 43.015625 
L 54.390625 34.71875 
L 19.671875 34.71875 
L 19.671875 8.296875 
L 56.78125 8.296875 
L 56.78125 0 
L 9.8125 0 
z
" id="DejaVuSans-69"/>
       <path d="M 48.78125 52.59375 
L 48.78125 44.1875 
Q 44.96875 46.296875 41.140625 47.34375 
Q 37.3125 48.390625 33.40625 48.390625 
Q 24.65625 48.390625 19.8125 42.84375 
Q 14.984375 37.3125 14.984375 27.296875 
Q 14.984375 17.28125 19.8125 11.734375 
Q 24.65625 6.203125 33.40625 6.203125 
Q 37.3125 6.203125 41.140625 7.25 
Q 44.96875 8.296875 48.78125 10.40625 
L 48.78125 2.09375 
Q 45.015625 0.34375 40.984375 -0.53125 
Q 36.96875 -1.421875 32.421875 -1.421875 
Q 20.0625 -1.421875 12.78125 6.34375 
Q 5.515625 14.109375 5.515625 27.296875 
Q 5.515625 40.671875 12.859375 48.328125 
Q 20.21875 56 33.015625 56 
Q 37.15625 56 41.109375 55.140625 
Q 45.0625 54.296875 48.78125 52.59375 
z
" id="DejaVuSans-99"/>
       <path d="M 9.421875 75.984375 
L 18.40625 75.984375 
L 18.40625 0 
L 9.421875 0 
z
" id="DejaVuSans-108"/>
       <path d="M 54.890625 33.015625 
L 54.890625 0 
L 45.90625 0 
L 45.90625 32.71875 
Q 45.90625 40.484375 42.875 44.328125 
Q 39.84375 48.1875 33.796875 48.1875 
Q 26.515625 48.1875 22.3125 43.546875 
Q 18.109375 38.921875 18.109375 30.90625 
L 18.109375 0 
L 9.078125 0 
L 9.078125 54.6875 
L 18.109375 54.6875 
L 18.109375 46.1875 
Q 21.34375 51.125 25.703125 53.5625 
Q 30.078125 56 35.796875 56 
Q 45.21875 56 50.046875 50.171875 
Q 54.890625 44.34375 54.890625 33.015625 
z
" id="DejaVuSans-110"/>
       <path d="M 19.671875 64.796875 
L 19.671875 8.109375 
L 31.59375 8.109375 
Q 46.6875 8.109375 53.6875 14.9375 
Q 60.6875 21.78125 60.6875 36.53125 
Q 60.6875 51.171875 53.6875 57.984375 
Q 46.6875 64.796875 31.59375 64.796875 
z
M 9.8125 72.90625 
L 30.078125 72.90625 
Q 51.265625 72.90625 61.171875 64.09375 
Q 71.09375 55.28125 71.09375 36.53125 
Q 71.09375 17.671875 61.125 8.828125 
Q 51.171875 0 30.078125 0 
L 9.8125 0 
z
" id="DejaVuSans-68"/>
       <path d="M 44.28125 53.078125 
L 44.28125 44.578125 
Q 40.484375 46.53125 36.375 47.5 
Q 32.28125 48.484375 27.875 48.484375 
Q 21.1875 48.484375 17.84375 46.4375 
Q 14.5 44.390625 14.5 40.28125 
Q 14.5 37.15625 16.890625 35.375 
Q 19.28125 33.59375 26.515625 31.984375 
L 29.59375 31.296875 
Q 39.15625 29.25 43.1875 25.515625 
Q 47.21875 21.78125 47.21875 15.09375 
Q 47.21875 7.46875 41.1875 3.015625 
Q 35.15625 -1.421875 24.609375 -1.421875 
Q 20.21875 -1.421875 15.453125 -0.5625 
Q 10.6875 0.296875 5.421875 2 
L 5.421875 11.28125 
Q 10.40625 8.6875 15.234375 7.390625 
Q 20.0625 6.109375 24.8125 6.109375 
Q 31.15625 6.109375 34.5625 8.28125 
Q 37.984375 10.453125 37.984375 14.40625 
Q 37.984375 18.0625 35.515625 20.015625 
Q 33.0625 21.96875 24.703125 23.78125 
L 21.578125 24.515625 
Q 13.234375 26.265625 9.515625 29.90625 
Q 5.8125 33.546875 5.8125 39.890625 
Q 5.8125 47.609375 11.28125 51.796875 
Q 16.75 56 26.8125 56 
Q 31.78125 56 36.171875 55.265625 
Q 40.578125 54.546875 44.28125 53.078125 
z
" id="DejaVuSans-115"/>
       <path d="M 18.3125 70.21875 
L 18.3125 54.6875 
L 36.8125 54.6875 
L 36.8125 47.703125 
L 18.3125 47.703125 
L 18.3125 18.015625 
Q 18.3125 11.328125 20.140625 9.421875 
Q 21.96875 7.515625 27.59375 7.515625 
L 36.8125 7.515625 
L 36.8125 0 
L 27.59375 0 
Q 17.1875 0 13.234375 3.875 
Q 9.28125 7.765625 9.28125 18.015625 
L 9.28125 47.703125 
L 2.6875 47.703125 
L 2.6875 54.6875 
L 9.28125 54.6875 
L 9.28125 70.21875 
z
" id="DejaVuSans-116"/>
       <path d="M 18.3125 75.984375 
L 27.296875 75.984375 
L 18.703125 31.6875 
L 49.515625 54.6875 
L 61.1875 54.6875 
L 26.8125 28.515625 
L 51.90625 0 
L 41.015625 0 
L 17.671875 26.703125 
L 12.5 0 
L 3.515625 0 
z
" id="DejaVuSans-Oblique-107"/>
       <path d="M 89.796875 33.015625 
L 83.40625 0 
L 74.421875 0 
L 80.71875 32.71875 
Q 81.109375 34.8125 81.296875 36.328125 
Q 81.5 37.84375 81.5 38.921875 
Q 81.5 43.3125 79.046875 45.75 
Q 76.609375 48.1875 72.21875 48.1875 
Q 65.671875 48.1875 60.546875 43.28125 
Q 55.421875 38.375 53.90625 30.515625 
L 47.90625 0 
L 38.921875 0 
L 45.3125 32.71875 
Q 45.703125 34.515625 45.890625 36.046875 
Q 46.09375 37.59375 46.09375 38.8125 
Q 46.09375 43.265625 43.65625 45.71875 
Q 41.21875 48.1875 36.921875 48.1875 
Q 30.28125 48.1875 25.140625 43.28125 
Q 20.015625 38.375 18.5 30.515625 
L 12.5 0 
L 3.515625 0 
L 14.203125 54.6875 
L 23.1875 54.6875 
L 21.484375 46.1875 
Q 25.140625 50.984375 30.046875 53.484375 
Q 34.96875 56 40.578125 56 
Q 46.53125 56 50.359375 52.875 
Q 54.203125 49.75 54.984375 44.1875 
Q 59.078125 49.953125 64.46875 52.96875 
Q 69.875 56 75.875 56 
Q 82.90625 56 86.734375 51.953125 
Q 90.578125 47.90625 90.578125 40.484375 
Q 90.578125 38.875 90.375 36.9375 
Q 90.1875 35.015625 89.796875 33.015625 
z
" id="DejaVuSans-Oblique-109"/>
      </defs>
      <use transform="translate(0 0.765625)" xlink:href="#DejaVuSans-83"/>
      <use transform="translate(63.476562 0.765625)" xlink:href="#DejaVuSans-113"/>
      <use transform="translate(126.953125 0.765625)" xlink:href="#DejaVuSans-117"/>
      <use transform="translate(190.332031 0.765625)" xlink:href="#DejaVuSans-97"/>
      <use transform="translate(251.611328 0.765625)" xlink:href="#DejaVuSans-114"/>
      <use transform="translate(292.724609 0.765625)" xlink:href="#DejaVuSans-101"/>
      <use transform="translate(354.248047 0.765625)" xlink:href="#DejaVuSans-100"/>
      <use transform="translate(417.724609 0.765625)" xlink:href="#DejaVuSans-32"/>
      <use transform="translate(449.511719 0.765625)" xlink:href="#DejaVuSans-69"/>
      <use transform="translate(512.695312 0.765625)" xlink:href="#DejaVuSans-117"/>
      <use transform="translate(576.074219 0.765625)" xlink:href="#DejaVuSans-99"/>
      <use transform="translate(631.054688 0.765625)" xlink:href="#DejaVuSans-108"/>
      <use transform="translate(658.837891 0.765625)" xlink:href="#DejaVuSans-105"/>
      <use transform="translate(686.621094 0.765625)" xlink:href="#DejaVuSans-100"/>
      <use transform="translate(750.097656 0.765625)" xlink:href="#DejaVuSans-101"/>
      <use transform="translate(811.621094 0.765625)" xlink:href="#DejaVuSans-97"/>
      <use transform="translate(872.900391 0.765625)" xlink:href="#DejaVuSans-110"/>
      <use transform="translate(936.279297 0.765625)" xlink:href="#DejaVuSans-32"/>
      <use transform="translate(968.066406 0.765625)" xlink:href="#DejaVuSans-68"/>
      <use transform="translate(1045.068359 0.765625)" xlink:href="#DejaVuSans-105"/>
      <use transform="translate(1072.851562 0.765625)" xlink:href="#DejaVuSans-115"/>
      <use transform="translate(1124.951172 0.765625)" xlink:href="#DejaVuSans-116"/>
      <use transform="translate(1164.160156 0.765625)" xlink:href="#DejaVuSans-97"/>
      <use transform="translate(1225.439453 0.765625)" xlink:href="#DejaVuSans-110"/>
      <use transform="translate(1288.818359 0.765625)" xlink:href="#DejaVuSans-99"/>
      <use transform="translate(1343.798828 0.765625)" xlink:href="#DejaVuSans-101"/>
      <use transform="translate(1405.322266 0.765625)" xlink:href="#DejaVuSans-32"/>
      <use transform="translate(1437.109375 0.765625)" xlink:href="#DejaVuSans-Oblique-107"/>
      <use transform="translate(1495.019531 0.765625)" xlink:href="#DejaVuSans-Oblique-109"/>
      <use transform="translate(1597.081536 39.046875)scale(0.7)" xlink:href="#DejaVuSans-50"/>
     </g>
    </g>
    <g id="text_14">
     <!-- 1e7 -->
     <g transform="translate(105.266 44.64)scale(0.24 -0.24)">
      <defs>
       <path d="M 8.203125 72.90625 
L 55.078125 72.90625 
L 55.078125 68.703125 
L 28.609375 0 
L 18.3125 0 
L 43.21875 64.59375 
L 8.203125 64.59375 
z
" id="DejaVuSans-55"/>
      </defs>
      <use xlink:href="#DejaVuSans-49"/>
      <use x="63.623047" xlink:href="#DejaVuSans-101"/>
      <use x="125.146484" xlink:href="#DejaVuSans-55"/>
     </g>
    </g>
   </g>
   <g id="line2d_12">
    <path clip-path="url(#p3b3e97ca5f)" d="M 233.186073 176.905049 
L 244.658786 208.598205 
L 254.281061 234.529454 
L 262.793073 256.847015 
L 270.934999 277.569943 
L 278.706836 296.729772 
L 286.108586 314.37913 
L 293.140249 330.584237 
L 300.171912 346.2284 
L 306.833487 360.524639 
L 313.495062 374.307807 
L 320.156637 387.578735 
L 326.818212 400.341237 
L 333.479787 412.601689 
L 339.771275 423.727684 
L 346.062763 434.422113 
L 352.35425 444.694785 
L 358.645738 454.556411 
L 364.937226 464.018372 
L 371.228713 473.092508 
L 377.520201 481.790916 
L 383.811689 490.125766 
L 390.103176 498.109134 
L 396.394664 505.752844 
L 403.056239 513.488666 
L 409.717814 520.869439 
L 416.379389 527.907284 
L 423.040964 534.613379 
L 429.70254 540.997834 
L 436.364115 547.069588 
L 443.02569 552.836318 
L 449.687265 558.304367 
L 456.34884 563.478684 
L 463.010415 568.36278 
L 469.67199 572.958704 
L 475.963478 577.035228 
L 482.254966 580.854501 
L 488.546453 584.414636 
L 494.837941 587.712607 
L 500.759341 590.573408 
L 506.680741 593.194025 
L 512.602141 595.569355 
L 518.523542 597.693539 
L 524.074854 599.451035 
L 529.626167 600.976081 
L 535.177479 602.262251 
L 540.358705 603.241102 
L 545.53993 603.999969 
L 550.721155 604.53264 
L 555.90238 604.832621 
L 560.713517 604.896911 
L 565.524655 604.749101 
L 570.335793 604.383349 
L 575.14693 603.793595 
L 579.958068 602.973528 
L 584.769206 601.916562 
L 589.580343 600.615789 
L 594.021393 599.19238 
L 598.462443 597.548942 
L 602.903493 595.679 
L 603.273581 595.512733 
L 603.273581 595.512733 
" style="fill:none;stroke:#1f77b4;stroke-linecap:square;stroke-width:4;"/>
   </g>
   <g id="line2d_13">
    <path clip-path="url(#p3b3e97ca5f)" d="M 233.186073 428.09279 
L 236.467349 428.207951 
L 239.748625 428.548082 
L 243.029902 429.104515 
L 246.639306 429.955186 
L 250.24871 431.042867 
L 253.858113 432.353553 
L 257.795645 434.020674 
L 262.061304 436.084347 
L 266.326963 438.391701 
L 270.92075 441.120394 
L 276.170792 444.509645 
L 281.748962 448.378244 
L 288.311515 453.211695 
L 296.186578 459.303334 
L 307.999173 468.759206 
L 324.077426 481.593292 
L 332.608745 488.117414 
L 339.827553 493.374902 
L 346.390105 497.89387 
L 352.62453 501.921226 
L 358.530828 505.471258 
L 364.108997 508.567081 
L 369.359039 511.237968 
L 374.609082 513.661205 
L 379.530996 515.698697 
L 384.45291 517.50163 
L 389.374825 519.063306 
L 393.968612 520.298058 
L 398.562399 521.313495 
L 403.156185 522.106142 
L 407.749972 522.673094 
L 412.343759 523.012005 
L 416.937546 523.121067 
L 421.531333 522.999008 
L 426.12512 522.645094 
L 430.718906 522.059131 
L 435.312693 521.241487 
L 439.90648 520.193116 
L 444.500267 518.915589 
L 449.094054 517.411138 
L 453.687841 515.682705 
L 458.609755 513.586496 
L 463.531669 511.243079 
L 468.453584 508.659305 
L 473.703626 505.647603 
L 478.953668 502.383537 
L 484.531838 498.654498 
L 490.438135 494.434354 
L 496.67256 489.70597 
L 503.56324 484.196924 
L 511.438304 477.610623 
L 522.266515 468.234383 
L 539.329152 453.453551 
L 546.54796 447.517467 
L 552.454257 442.939126 
L 557.704299 439.148629 
L 561.313703 436.726127 
L 561.313703 436.726127 
" style="fill:none;stroke:#ff7f0e;stroke-linecap:square;stroke-width:4;"/>
   </g>
   <g id="line2d_14">
    <path clip-path="url(#p3b3e97ca5f)" d="M 233.186073 518.225633 
L 236.746395 518.329554 
L 240.580588 518.664862 
L 244.414782 519.217433 
L 248.522846 520.033678 
L 252.904781 521.13986 
L 257.560587 522.55754 
L 262.490264 524.302691 
L 267.693812 526.384933 
L 273.445102 528.93358 
L 279.744134 531.973485 
L 286.864779 535.658268 
L 295.628649 540.4556 
L 307.952842 547.482136 
L 331.779614 561.100013 
L 342.186711 566.764155 
L 351.224452 571.441011 
L 359.714451 575.588408 
L 367.656709 579.226299 
L 375.325095 582.498722 
L 382.719611 585.418234 
L 390.114127 588.096575 
L 397.234771 590.441318 
L 404.355416 592.551775 
L 411.476061 594.425527 
L 418.596705 596.061953 
L 425.71735 597.462292 
L 432.837995 598.629757 
L 439.958639 599.569717 
L 447.079284 600.289928 
L 454.4738 600.816442 
L 462.142186 601.14014 
L 470.358315 601.259566 
L 479.122185 601.163163 
L 489.25541 600.824946 
L 503.4967 600.103131 
L 507.057022 599.906605 
L 507.057022 599.906605 
" style="fill:none;stroke:#2ca02c;stroke-linecap:square;stroke-width:4;"/>
   </g>
   <g id="line2d_15">
    <path clip-path="url(#p3b3e97ca5f)" d="M 233.186073 519.733273 
L 241.389264 529.769389 
L 248.608071 538.250829 
L 255.170624 545.624079 
L 261.405049 552.293549 
L 267.311346 558.283086 
L 272.889516 563.625868 
L 278.139558 568.361463 
L 283.3896 572.80204 
L 288.311515 576.68941 
L 293.233429 580.304264 
L 298.155344 583.642421 
L 303.077258 586.700988 
L 307.671045 589.301863 
L 312.264832 591.657101 
L 316.858619 593.766835 
L 321.452405 595.631809 
L 326.046192 597.253294 
L 330.639979 598.633001 
L 335.233766 599.772989 
L 339.827553 600.675589 
L 344.42134 601.343323 
L 349.015126 601.778829 
L 353.608913 601.98479 
L 358.2027 601.963866 
L 362.796487 601.718637 
L 367.390274 601.251539 
L 371.984061 600.564817 
L 376.577847 599.660477 
L 381.171634 598.540246 
L 386.093549 597.102021 
L 391.015463 595.418868 
L 395.937378 593.491597 
L 400.859292 591.320506 
L 405.781206 588.905374 
L 410.703121 586.24546 
L 415.625035 583.339517 
L 420.54695 580.185813 
L 425.468864 576.782176 
L 430.718906 572.873252 
L 435.968948 568.673531 
L 441.218991 564.179209 
L 446.469033 559.386329 
L 451.719075 554.290958 
L 456.969117 548.889378 
L 462.219159 543.178313 
L 467.797329 536.768339 
L 473.375498 530.004224 
L 478.953668 522.885774 
L 484.531838 515.414932 
L 490.438135 507.125661 
L 496.344432 498.455786 
L 502.578857 488.906914 
L 509.14141 478.439816 
L 516.03209 467.029982 
L 523.579026 454.10541 
L 532.766599 437.90053 
L 548.188598 410.134716 
L 559.01681 390.855305 
L 561.313703 386.854426 
L 561.313703 386.854426 
" style="fill:none;stroke:#d62728;stroke-linecap:square;stroke-width:4;"/>
   </g>
   <g id="line2d_16">
    <path clip-path="url(#p3b3e97ca5f)" d="M 233.186073 74.363636 
L 250.166072 127.084967 
L 260.573168 158.65815 
L 269.337038 184.55819 
L 277.553167 208.147789 
L 285.221553 229.487674 
L 292.616069 249.398546 
L 299.736713 267.922553 
L 306.583487 285.114745 
L 313.15639 301.038227 
L 319.729293 316.388584 
L 326.302196 331.166374 
L 332.601227 344.795107 
L 338.900259 357.908463 
L 345.199291 370.515167 
L 351.498323 382.625717 
L 357.797355 394.251997 
L 364.096386 405.406924 
L 370.395418 416.104135 
L 376.69445 426.357708 
L 382.993482 436.181923 
L 389.292514 445.591055 
L 395.591546 454.599208 
L 401.890577 463.220179 
L 408.189609 471.467366 
L 414.488641 479.353697 
L 420.787673 486.891604 
L 427.086705 494.093024 
L 433.385737 500.969432 
L 439.958639 507.810279 
L 446.531542 514.321529 
L 453.104445 520.515197 
L 459.677348 526.403244 
L 466.250251 531.99778 
L 473.097024 537.526747 
L 479.943798 542.765487 
L 486.790572 547.729639 
L 493.911216 552.619102 
L 501.305732 557.423267 
L 507.057022 560.982749 
L 507.057022 560.982749 
" style="fill:none;stroke:#9467bd;stroke-linecap:square;stroke-width:4;"/>
   </g>
   <g id="line2d_17">
    <path clip-path="url(#p3b3e97ca5f)" d="M 233.186073 419.668747 
L 243.319298 419.780674 
L 252.63091 420.102036 
L 261.668651 420.632373 
L 270.706393 421.384418 
L 279.744134 422.356171 
L 289.055746 423.577786 
L 298.915101 425.097642 
L 309.322197 426.927772 
L 320.824777 429.179581 
L 334.244453 432.043255 
L 352.046065 436.090196 
L 388.470901 444.423072 
L 402.438319 447.35149 
L 414.488641 449.65228 
L 425.443479 451.516684 
L 435.576704 453.015995 
L 445.162187 454.209457 
L 454.199929 455.113412 
L 462.963799 455.765558 
L 471.179928 456.158475 
L 479.122185 456.319481 
L 486.790572 456.251983 
L 493.911216 455.973965 
L 500.75799 455.490626 
L 507.057022 454.838425 
L 507.057022 454.838425 
" style="fill:none;stroke:#8c564b;stroke-linecap:square;stroke-width:4;"/>
   </g>
   <g id="line2d_18">
    <path clip-path="url(#p3b3e97ca5f)" d="M 142.938273 608.836364 
L 896.383727 608.836364 
" style="fill:none;stroke:#e377c2;stroke-dasharray:14.8,6.4;stroke-dashoffset:0;stroke-width:4;"/>
   </g>
   <g id="patch_3">
    <path d="M 105.266 635.56 
L 105.266 47.64 
" style="fill:none;stroke:#000000;stroke-linecap:square;stroke-linejoin:miter;stroke-width:0.8;"/>
   </g>
   <g id="patch_4">
    <path d="M 934.056 635.56 
L 934.056 47.64 
" style="fill:none;stroke:#000000;stroke-linecap:square;stroke-linejoin:miter;stroke-width:0.8;"/>
   </g>
   <g id="patch_5">
    <path d="M 105.266 635.56 
L 934.056 635.56 
" style="fill:none;stroke:#000000;stroke-linecap:square;stroke-linejoin:miter;stroke-width:0.8;"/>
   </g>
   <g id="patch_6">
    <path d="M 105.266 47.64 
L 934.056 47.64 
" style="fill:none;stroke:#000000;stroke-linecap:square;stroke-linejoin:miter;stroke-width:0.8;"/>
   </g>
   <g id="legend_1">
    <g id="patch_7">
     <path d="M 651.576 345.24 
L 917.256 345.24 
Q 922.056 345.24 922.056 340.44 
L 922.056 64.44 
Q 922.056 59.64 917.256 59.64 
L 651.576 59.64 
Q 646.776 59.64 646.776 64.44 
L 646.776 340.44 
Q 646.776 345.24 651.576 345.24 
z
" style="fill:#ffffff;opacity:0.8;stroke:#cccccc;stroke-linejoin:miter;"/>
    </g>
    <g id="line2d_19">
     <path d="M 656.376 82.68 
L 704.376 82.68 
" style="fill:none;stroke:#1f77b4;stroke-linecap:square;stroke-width:4;"/>
    </g>
    <g id="line2d_20"/>
    <g id="text_15">
     <!-- $||Veh_1 - Veh_2||^2$ -->
     <g transform="translate(723.576 91.08)scale(0.24 -0.24)">
      <defs>
       <path d="M 21 76.421875 
L 21 -23.578125 
L 12.703125 -23.578125 
L 12.703125 76.421875 
z
" id="DejaVuSans-124"/>
       <path d="M 20.609375 0 
L 7.8125 72.90625 
L 17.484375 72.90625 
L 28.078125 10.203125 
L 63.484375 72.90625 
L 74.21875 72.90625 
L 32.078125 0 
z
" id="DejaVuSans-Oblique-86"/>
       <path d="M 48.09375 32.234375 
Q 48.25 33.015625 48.3125 33.84375 
Q 48.390625 34.671875 48.390625 35.5 
Q 48.390625 41.453125 44.890625 44.921875 
Q 41.40625 48.390625 35.40625 48.390625 
Q 28.71875 48.390625 23.578125 44.15625 
Q 18.453125 39.9375 15.828125 32.171875 
z
M 55.90625 25.203125 
L 14.109375 25.203125 
Q 13.8125 23.34375 13.71875 22.265625 
Q 13.625 21.1875 13.625 20.40625 
Q 13.625 13.625 17.796875 9.90625 
Q 21.96875 6.203125 29.59375 6.203125 
Q 35.453125 6.203125 40.671875 7.515625 
Q 45.90625 8.84375 50.390625 11.375 
L 48.6875 2.484375 
Q 43.84375 0.53125 38.6875 -0.4375 
Q 33.546875 -1.421875 28.21875 -1.421875 
Q 16.84375 -1.421875 10.71875 4.015625 
Q 4.59375 9.46875 4.59375 19.484375 
Q 4.59375 28.03125 7.640625 35.375 
Q 10.6875 42.71875 16.609375 48.484375 
Q 20.40625 52.09375 25.65625 54.046875 
Q 30.90625 56 36.8125 56 
Q 46.09375 56 51.578125 50.4375 
Q 57.078125 44.875 57.078125 35.5 
Q 57.078125 33.25 56.78125 30.6875 
Q 56.5 28.125 55.90625 25.203125 
z
" id="DejaVuSans-Oblique-101"/>
       <path d="M 55.71875 33.015625 
L 49.3125 0 
L 40.28125 0 
L 46.6875 32.671875 
Q 47.125 34.96875 47.359375 36.71875 
Q 47.609375 38.484375 47.609375 39.5 
Q 47.609375 43.609375 45.015625 45.890625 
Q 42.4375 48.1875 37.796875 48.1875 
Q 30.5625 48.1875 25.265625 43.296875 
Q 19.96875 38.421875 18.40625 30.328125 
L 12.5 0 
L 3.515625 0 
L 18.3125 75.984375 
L 27.296875 75.984375 
L 21.484375 46.09375 
Q 24.90625 50.6875 30.21875 53.34375 
Q 35.546875 56 41.40625 56 
Q 48.640625 56 52.609375 52.09375 
Q 56.59375 48.1875 56.59375 41.109375 
Q 56.59375 39.359375 56.375 37.359375 
Q 56.15625 35.359375 55.71875 33.015625 
z
" id="DejaVuSans-Oblique-104"/>
       <path d="M 10.59375 35.5 
L 73.1875 35.5 
L 73.1875 27.203125 
L 10.59375 27.203125 
z
" id="DejaVuSans-8722"/>
      </defs>
      <use transform="translate(0 0.765625)" xlink:href="#DejaVuSans-124"/>
      <use transform="translate(33.691406 0.765625)" xlink:href="#DejaVuSans-124"/>
      <use transform="translate(67.382812 0.765625)" xlink:href="#DejaVuSans-Oblique-86"/>
      <use transform="translate(135.791016 0.765625)" xlink:href="#DejaVuSans-Oblique-101"/>
      <use transform="translate(197.314453 0.765625)" xlink:href="#DejaVuSans-Oblique-104"/>
      <use transform="translate(260.693359 -15.640625)scale(0.7)" xlink:href="#DejaVuSans-49"/>
      <use transform="translate(327.446289 0.765625)" xlink:href="#DejaVuSans-8722"/>
      <use transform="translate(430.717773 0.765625)" xlink:href="#DejaVuSans-Oblique-86"/>
      <use transform="translate(499.125977 0.765625)" xlink:href="#DejaVuSans-Oblique-101"/>
      <use transform="translate(560.649414 0.765625)" xlink:href="#DejaVuSans-Oblique-104"/>
      <use transform="translate(624.02832 -15.640625)scale(0.7)" xlink:href="#DejaVuSans-50"/>
      <use transform="translate(671.298828 0.765625)" xlink:href="#DejaVuSans-124"/>
      <use transform="translate(704.990234 0.765625)" xlink:href="#DejaVuSans-124"/>
      <use transform="translate(739.638672 39.046875)scale(0.7)" xlink:href="#DejaVuSans-50"/>
     </g>
    </g>
    <g id="line2d_21">
     <path d="M 656.376 122.28 
L 704.376 122.28 
" style="fill:none;stroke:#ff7f0e;stroke-linecap:square;stroke-width:4;"/>
    </g>
    <g id="line2d_22"/>
    <g id="text_16">
     <!-- $||Veh_1 - Veh_2||^2$ -->
     <g transform="translate(723.576 130.68)scale(0.24 -0.24)">
      <use transform="translate(0 0.765625)" xlink:href="#DejaVuSans-124"/>
      <use transform="translate(33.691406 0.765625)" xlink:href="#DejaVuSans-124"/>
      <use transform="translate(67.382812 0.765625)" xlink:href="#DejaVuSans-Oblique-86"/>
      <use transform="translate(135.791016 0.765625)" xlink:href="#DejaVuSans-Oblique-101"/>
      <use transform="translate(197.314453 0.765625)" xlink:href="#DejaVuSans-Oblique-104"/>
      <use transform="translate(260.693359 -15.640625)scale(0.7)" xlink:href="#DejaVuSans-49"/>
      <use transform="translate(327.446289 0.765625)" xlink:href="#DejaVuSans-8722"/>
      <use transform="translate(430.717773 0.765625)" xlink:href="#DejaVuSans-Oblique-86"/>
      <use transform="translate(499.125977 0.765625)" xlink:href="#DejaVuSans-Oblique-101"/>
      <use transform="translate(560.649414 0.765625)" xlink:href="#DejaVuSans-Oblique-104"/>
      <use transform="translate(624.02832 -15.640625)scale(0.7)" xlink:href="#DejaVuSans-50"/>
      <use transform="translate(671.298828 0.765625)" xlink:href="#DejaVuSans-124"/>
      <use transform="translate(704.990234 0.765625)" xlink:href="#DejaVuSans-124"/>
      <use transform="translate(739.638672 39.046875)scale(0.7)" xlink:href="#DejaVuSans-50"/>
     </g>
    </g>
    <g id="line2d_23">
     <path d="M 656.376 161.88 
L 704.376 161.88 
" style="fill:none;stroke:#2ca02c;stroke-linecap:square;stroke-width:4;"/>
    </g>
    <g id="line2d_24"/>
    <g id="text_17">
     <!-- $||Veh_1 - Veh_2||^2$ -->
     <g transform="translate(723.576 170.28)scale(0.24 -0.24)">
      <use transform="translate(0 0.765625)" xlink:href="#DejaVuSans-124"/>
      <use transform="translate(33.691406 0.765625)" xlink:href="#DejaVuSans-124"/>
      <use transform="translate(67.382812 0.765625)" xlink:href="#DejaVuSans-Oblique-86"/>
      <use transform="translate(135.791016 0.765625)" xlink:href="#DejaVuSans-Oblique-101"/>
      <use transform="translate(197.314453 0.765625)" xlink:href="#DejaVuSans-Oblique-104"/>
      <use transform="translate(260.693359 -15.640625)scale(0.7)" xlink:href="#DejaVuSans-49"/>
      <use transform="translate(327.446289 0.765625)" xlink:href="#DejaVuSans-8722"/>
      <use transform="translate(430.717773 0.765625)" xlink:href="#DejaVuSans-Oblique-86"/>
      <use transform="translate(499.125977 0.765625)" xlink:href="#DejaVuSans-Oblique-101"/>
      <use transform="translate(560.649414 0.765625)" xlink:href="#DejaVuSans-Oblique-104"/>
      <use transform="translate(624.02832 -15.640625)scale(0.7)" xlink:href="#DejaVuSans-50"/>
      <use transform="translate(671.298828 0.765625)" xlink:href="#DejaVuSans-124"/>
      <use transform="translate(704.990234 0.765625)" xlink:href="#DejaVuSans-124"/>
      <use transform="translate(739.638672 39.046875)scale(0.7)" xlink:href="#DejaVuSans-50"/>
     </g>
    </g>
    <g id="line2d_25">
     <path d="M 656.376 201.48 
L 704.376 201.48 
" style="fill:none;stroke:#d62728;stroke-linecap:square;stroke-width:4;"/>
    </g>
    <g id="line2d_26"/>
    <g id="text_18">
     <!-- $||Veh_2 - Veh_3||^2$ -->
     <g transform="translate(723.576 209.88)scale(0.24 -0.24)">
      <use transform="translate(0 0.765625)" xlink:href="#DejaVuSans-124"/>
      <use transform="translate(33.691406 0.765625)" xlink:href="#DejaVuSans-124"/>
      <use transform="translate(67.382812 0.765625)" xlink:href="#DejaVuSans-Oblique-86"/>
      <use transform="translate(135.791016 0.765625)" xlink:href="#DejaVuSans-Oblique-101"/>
      <use transform="translate(197.314453 0.765625)" xlink:href="#DejaVuSans-Oblique-104"/>
      <use transform="translate(260.693359 -15.640625)scale(0.7)" xlink:href="#DejaVuSans-50"/>
      <use transform="translate(327.446289 0.765625)" xlink:href="#DejaVuSans-8722"/>
      <use transform="translate(430.717773 0.765625)" xlink:href="#DejaVuSans-Oblique-86"/>
      <use transform="translate(499.125977 0.765625)" xlink:href="#DejaVuSans-Oblique-101"/>
      <use transform="translate(560.649414 0.765625)" xlink:href="#DejaVuSans-Oblique-104"/>
      <use transform="translate(624.02832 -15.640625)scale(0.7)" xlink:href="#DejaVuSans-51"/>
      <use transform="translate(671.298828 0.765625)" xlink:href="#DejaVuSans-124"/>
      <use transform="translate(704.990234 0.765625)" xlink:href="#DejaVuSans-124"/>
      <use transform="translate(739.638672 39.046875)scale(0.7)" xlink:href="#DejaVuSans-50"/>
     </g>
    </g>
    <g id="line2d_27">
     <path d="M 656.376 241.08 
L 704.376 241.08 
" style="fill:none;stroke:#9467bd;stroke-linecap:square;stroke-width:4;"/>
    </g>
    <g id="line2d_28"/>
    <g id="text_19">
     <!-- $||Veh_2 - Veh_3||^2$ -->
     <g transform="translate(723.576 249.48)scale(0.24 -0.24)">
      <use transform="translate(0 0.765625)" xlink:href="#DejaVuSans-124"/>
      <use transform="translate(33.691406 0.765625)" xlink:href="#DejaVuSans-124"/>
      <use transform="translate(67.382812 0.765625)" xlink:href="#DejaVuSans-Oblique-86"/>
      <use transform="translate(135.791016 0.765625)" xlink:href="#DejaVuSans-Oblique-101"/>
      <use transform="translate(197.314453 0.765625)" xlink:href="#DejaVuSans-Oblique-104"/>
      <use transform="translate(260.693359 -15.640625)scale(0.7)" xlink:href="#DejaVuSans-50"/>
      <use transform="translate(327.446289 0.765625)" xlink:href="#DejaVuSans-8722"/>
      <use transform="translate(430.717773 0.765625)" xlink:href="#DejaVuSans-Oblique-86"/>
      <use transform="translate(499.125977 0.765625)" xlink:href="#DejaVuSans-Oblique-101"/>
      <use transform="translate(560.649414 0.765625)" xlink:href="#DejaVuSans-Oblique-104"/>
      <use transform="translate(624.02832 -15.640625)scale(0.7)" xlink:href="#DejaVuSans-51"/>
      <use transform="translate(671.298828 0.765625)" xlink:href="#DejaVuSans-124"/>
      <use transform="translate(704.990234 0.765625)" xlink:href="#DejaVuSans-124"/>
      <use transform="translate(739.638672 39.046875)scale(0.7)" xlink:href="#DejaVuSans-50"/>
     </g>
    </g>
    <g id="line2d_29">
     <path d="M 656.376 280.68 
L 704.376 280.68 
" style="fill:none;stroke:#8c564b;stroke-linecap:square;stroke-width:4;"/>
    </g>
    <g id="line2d_30"/>
    <g id="text_20">
     <!-- $||Veh_3 - Veh_4||^2$ -->
     <g transform="translate(723.576 289.08)scale(0.24 -0.24)">
      <use transform="translate(0 0.765625)" xlink:href="#DejaVuSans-124"/>
      <use transform="translate(33.691406 0.765625)" xlink:href="#DejaVuSans-124"/>
      <use transform="translate(67.382812 0.765625)" xlink:href="#DejaVuSans-Oblique-86"/>
      <use transform="translate(135.791016 0.765625)" xlink:href="#DejaVuSans-Oblique-101"/>
      <use transform="translate(197.314453 0.765625)" xlink:href="#DejaVuSans-Oblique-104"/>
      <use transform="translate(260.693359 -15.640625)scale(0.7)" xlink:href="#DejaVuSans-51"/>
      <use transform="translate(327.446289 0.765625)" xlink:href="#DejaVuSans-8722"/>
      <use transform="translate(430.717773 0.765625)" xlink:href="#DejaVuSans-Oblique-86"/>
      <use transform="translate(499.125977 0.765625)" xlink:href="#DejaVuSans-Oblique-101"/>
      <use transform="translate(560.649414 0.765625)" xlink:href="#DejaVuSans-Oblique-104"/>
      <use transform="translate(624.02832 -15.640625)scale(0.7)" xlink:href="#DejaVuSans-52"/>
      <use transform="translate(671.298828 0.765625)" xlink:href="#DejaVuSans-124"/>
      <use transform="translate(704.990234 0.765625)" xlink:href="#DejaVuSans-124"/>
      <use transform="translate(739.638672 39.046875)scale(0.7)" xlink:href="#DejaVuSans-50"/>
     </g>
    </g>
    <g id="line2d_31">
     <path d="M 656.376 320.28 
L 704.376 320.28 
" style="fill:none;stroke:#e377c2;stroke-dasharray:14.8,6.4;stroke-dashoffset:0;stroke-width:4;"/>
    </g>
    <g id="line2d_32"/>
    <g id="text_21">
     <!-- $d^2_{s}$ -->
     <g transform="translate(723.576 328.68)scale(0.24 -0.24)">
      <defs>
       <path d="M 41.796875 8.203125 
Q 38.1875 3.46875 33.25 1.015625 
Q 28.328125 -1.421875 22.3125 -1.421875 
Q 14.109375 -1.421875 9.34375 4.171875 
Q 4.59375 9.765625 4.59375 19.484375 
Q 4.59375 27.59375 7.46875 34.9375 
Q 10.359375 42.28125 15.828125 48.09375 
Q 19.4375 51.953125 23.96875 53.96875 
Q 28.515625 56 33.5 56 
Q 38.765625 56 42.796875 53.453125 
Q 46.828125 50.921875 49.03125 46.1875 
L 54.890625 75.984375 
L 63.921875 75.984375 
L 49.125 0 
L 40.09375 0 
z
M 13.921875 21.09375 
Q 13.921875 14.015625 17.109375 10.0625 
Q 20.3125 6.109375 25.984375 6.109375 
Q 30.171875 6.109375 33.765625 8.125 
Q 37.359375 10.15625 40.09375 14.109375 
Q 42.96875 18.21875 44.625 23.578125 
Q 46.296875 28.953125 46.296875 34.1875 
Q 46.296875 40.96875 43.09375 44.765625 
Q 39.890625 48.578125 34.28125 48.578125 
Q 30.03125 48.578125 26.359375 46.578125 
Q 22.703125 44.578125 20.125 40.828125 
Q 17.28125 36.765625 15.59375 31.390625 
Q 13.921875 26.03125 13.921875 21.09375 
z
" id="DejaVuSans-Oblique-100"/>
       <path d="M 50 53.078125 
L 48.296875 44.578125 
Q 44.734375 46.53125 40.765625 47.5 
Q 36.8125 48.484375 32.625 48.484375 
Q 25.53125 48.484375 21.453125 46.0625 
Q 17.390625 43.65625 17.390625 39.5 
Q 17.390625 34.671875 26.859375 32.078125 
Q 27.59375 31.890625 27.9375 31.78125 
L 30.8125 30.90625 
Q 39.796875 28.421875 42.796875 25.6875 
Q 45.796875 22.953125 45.796875 18.21875 
Q 45.796875 9.515625 38.890625 4.046875 
Q 31.984375 -1.421875 20.796875 -1.421875 
Q 16.453125 -1.421875 11.671875 -0.578125 
Q 6.890625 0.25 1.125 2 
L 2.875 11.28125 
Q 7.8125 8.734375 12.59375 7.421875 
Q 17.390625 6.109375 21.78125 6.109375 
Q 28.375 6.109375 32.5 8.9375 
Q 36.625 11.765625 36.625 16.109375 
Q 36.625 20.796875 25.78125 23.6875 
L 24.859375 23.921875 
L 21.78125 24.703125 
Q 14.9375 26.515625 11.765625 29.46875 
Q 8.59375 32.421875 8.59375 37.015625 
Q 8.59375 45.75 15.15625 50.875 
Q 21.734375 56 33.015625 56 
Q 37.453125 56 41.671875 55.265625 
Q 45.90625 54.546875 50 53.078125 
z
" id="DejaVuSans-Oblique-115"/>
      </defs>
      <use transform="translate(0 0.765625)" xlink:href="#DejaVuSans-Oblique-100"/>
      <use transform="translate(70.924271 39.046875)scale(0.7)" xlink:href="#DejaVuSans-50"/>
      <use transform="translate(63.476562 -26.578125)scale(0.7)" xlink:href="#DejaVuSans-Oblique-115"/>
     </g>
    </g>
   </g>
  </g>
 </g>
 <defs>
  <clipPath id="p3b3e97ca5f">
   <rect height="587.92" width="828.79" x="105.266" y="47.64"/>
  </clipPath>
 </defs>
</svg>
