<?xml version="1.0" encoding="utf-8" standalone="no"?>
<!DOCTYPE svg PUBLIC "-//W3C//DTD SVG 1.1//EN"
  "http://www.w3.org/Graphics/SVG/1.1/DTD/svg11.dtd">
<svg xmlns:xlink="http://www.w3.org/1999/xlink" width="959.976pt" height="720pt" viewBox="0 0 959.976 720" xmlns="http://www.w3.org/2000/svg" version="1.1">
 <metadata>
  <rdf:RDF xmlns:dc="http://purl.org/dc/elements/1.1/" xmlns:cc="http://creativecommons.org/ns#" xmlns:rdf="http://www.w3.org/1999/02/22-rdf-syntax-ns#">
   <cc:Work>
    <dc:type rdf:resource="http://purl.org/dc/dcmitype/StillImage"/>
    <dc:date>2022-02-26T12:12:57.112411</dc:date>
    <dc:format>image/svg+xml</dc:format>
    <dc:creator>
     <cc:Agent>
      <dc:title>Matplotlib v3.5.1, https://matplotlib.org/</dc:title>
     </cc:Agent>
    </dc:creator>
   </cc:Work>
  </rdf:RDF>
 </metadata>
 <defs>
  <style type="text/css">*{stroke-linejoin: round; stroke-linecap: butt}</style>
 </defs>
 <g id="figure_1">
  <g id="patch_1">
   <path d="M 0 720 
L 959.976 720 
L 959.976 0 
L 0 0 
z
" style="fill: #ffffff"/>
  </g>
  <g id="axes_1">
   <g id="patch_2">
    <path d="M 204.536 635.56 
L 934.056 635.56 
L 934.056 25.92 
L 204.536 25.92 
z
" style="fill: #ffffff"/>
   </g>
   <g id="matplotlib.axis_1">
    <g id="xtick_1">
     <g id="line2d_1">
      <defs>
       <path id="mff9e025b70" d="M 0 0 
L 0 3.5 
" style="stroke: #000000; stroke-width: 0.8"/>
      </defs>
      <g>
       <use xlink:href="#mff9e025b70" x="237.696" y="635.56" style="stroke: #000000; stroke-width: 0.8"/>
      </g>
     </g>
     <g id="text_1">
      <!-- -1 -->
      <g transform="translate(225.731625 660.79625)scale(0.24 -0.24)">
       <defs>
        <path id="DejaVuSans-2d" d="M 313 2009 
L 1997 2009 
L 1997 1497 
L 313 1497 
L 313 2009 
z
" transform="scale(0.015625)"/>
        <path id="DejaVuSans-31" d="M 794 531 
L 1825 531 
L 1825 4091 
L 703 3866 
L 703 4441 
L 1819 4666 
L 2450 4666 
L 2450 531 
L 3481 531 
L 3481 0 
L 794 0 
L 794 531 
z
" transform="scale(0.015625)"/>
       </defs>
       <use xlink:href="#DejaVuSans-2d"/>
       <use xlink:href="#DejaVuSans-31" x="36.083984"/>
      </g>
     </g>
    </g>
    <g id="xtick_2">
     <g id="line2d_2">
      <g>
       <use xlink:href="#mff9e025b70" x="319.367424" y="635.56" style="stroke: #000000; stroke-width: 0.8"/>
      </g>
     </g>
     <g id="text_2">
      <!-- 0 -->
      <g transform="translate(311.732424 660.79625)scale(0.24 -0.24)">
       <defs>
        <path id="DejaVuSans-30" d="M 2034 4250 
Q 1547 4250 1301 3770 
Q 1056 3291 1056 2328 
Q 1056 1369 1301 889 
Q 1547 409 2034 409 
Q 2525 409 2770 889 
Q 3016 1369 3016 2328 
Q 3016 3291 2770 3770 
Q 2525 4250 2034 4250 
z
M 2034 4750 
Q 2819 4750 3233 4129 
Q 3647 3509 3647 2328 
Q 3647 1150 3233 529 
Q 2819 -91 2034 -91 
Q 1250 -91 836 529 
Q 422 1150 422 2328 
Q 422 3509 836 4129 
Q 1250 4750 2034 4750 
z
" transform="scale(0.015625)"/>
       </defs>
       <use xlink:href="#DejaVuSans-30"/>
      </g>
     </g>
    </g>
    <g id="xtick_3">
     <g id="line2d_3">
      <g>
       <use xlink:href="#mff9e025b70" x="401.038847" y="635.56" style="stroke: #000000; stroke-width: 0.8"/>
      </g>
     </g>
     <g id="text_3">
      <!-- 1 -->
      <g transform="translate(393.403847 660.79625)scale(0.24 -0.24)">
       <use xlink:href="#DejaVuSans-31"/>
      </g>
     </g>
    </g>
    <g id="xtick_4">
     <g id="line2d_4">
      <g>
       <use xlink:href="#mff9e025b70" x="482.710271" y="635.56" style="stroke: #000000; stroke-width: 0.8"/>
      </g>
     </g>
     <g id="text_4">
      <!-- 2 -->
      <g transform="translate(475.075271 660.79625)scale(0.24 -0.24)">
       <defs>
        <path id="DejaVuSans-32" d="M 1228 531 
L 3431 531 
L 3431 0 
L 469 0 
L 469 531 
Q 828 903 1448 1529 
Q 2069 2156 2228 2338 
Q 2531 2678 2651 2914 
Q 2772 3150 2772 3378 
Q 2772 3750 2511 3984 
Q 2250 4219 1831 4219 
Q 1534 4219 1204 4116 
Q 875 4013 500 3803 
L 500 4441 
Q 881 4594 1212 4672 
Q 1544 4750 1819 4750 
Q 2544 4750 2975 4387 
Q 3406 4025 3406 3419 
Q 3406 3131 3298 2873 
Q 3191 2616 2906 2266 
Q 2828 2175 2409 1742 
Q 1991 1309 1228 531 
z
" transform="scale(0.015625)"/>
       </defs>
       <use xlink:href="#DejaVuSans-32"/>
      </g>
     </g>
    </g>
    <g id="xtick_5">
     <g id="line2d_5">
      <g>
       <use xlink:href="#mff9e025b70" x="564.381695" y="635.56" style="stroke: #000000; stroke-width: 0.8"/>
      </g>
     </g>
     <g id="text_5">
      <!-- 3 -->
      <g transform="translate(556.746695 660.79625)scale(0.24 -0.24)">
       <defs>
        <path id="DejaVuSans-33" d="M 2597 2516 
Q 3050 2419 3304 2112 
Q 3559 1806 3559 1356 
Q 3559 666 3084 287 
Q 2609 -91 1734 -91 
Q 1441 -91 1130 -33 
Q 819 25 488 141 
L 488 750 
Q 750 597 1062 519 
Q 1375 441 1716 441 
Q 2309 441 2620 675 
Q 2931 909 2931 1356 
Q 2931 1769 2642 2001 
Q 2353 2234 1838 2234 
L 1294 2234 
L 1294 2753 
L 1863 2753 
Q 2328 2753 2575 2939 
Q 2822 3125 2822 3475 
Q 2822 3834 2567 4026 
Q 2313 4219 1838 4219 
Q 1578 4219 1281 4162 
Q 984 4106 628 3988 
L 628 4550 
Q 988 4650 1302 4700 
Q 1616 4750 1894 4750 
Q 2613 4750 3031 4423 
Q 3450 4097 3450 3541 
Q 3450 3153 3228 2886 
Q 3006 2619 2597 2516 
z
" transform="scale(0.015625)"/>
       </defs>
       <use xlink:href="#DejaVuSans-33"/>
      </g>
     </g>
    </g>
    <g id="xtick_6">
     <g id="line2d_6">
      <g>
       <use xlink:href="#mff9e025b70" x="646.053118" y="635.56" style="stroke: #000000; stroke-width: 0.8"/>
      </g>
     </g>
     <g id="text_6">
      <!-- 4 -->
      <g transform="translate(638.418118 660.79625)scale(0.24 -0.24)">
       <defs>
        <path id="DejaVuSans-34" d="M 2419 4116 
L 825 1625 
L 2419 1625 
L 2419 4116 
z
M 2253 4666 
L 3047 4666 
L 3047 1625 
L 3713 1625 
L 3713 1100 
L 3047 1100 
L 3047 0 
L 2419 0 
L 2419 1100 
L 313 1100 
L 313 1709 
L 2253 4666 
z
" transform="scale(0.015625)"/>
       </defs>
       <use xlink:href="#DejaVuSans-34"/>
      </g>
     </g>
    </g>
    <g id="xtick_7">
     <g id="line2d_7">
      <g>
       <use xlink:href="#mff9e025b70" x="727.724542" y="635.56" style="stroke: #000000; stroke-width: 0.8"/>
      </g>
     </g>
     <g id="text_7">
      <!-- 5 -->
      <g transform="translate(720.089542 660.79625)scale(0.24 -0.24)">
       <defs>
        <path id="DejaVuSans-35" d="M 691 4666 
L 3169 4666 
L 3169 4134 
L 1269 4134 
L 1269 2991 
Q 1406 3038 1543 3061 
Q 1681 3084 1819 3084 
Q 2600 3084 3056 2656 
Q 3513 2228 3513 1497 
Q 3513 744 3044 326 
Q 2575 -91 1722 -91 
Q 1428 -91 1123 -41 
Q 819 9 494 109 
L 494 744 
Q 775 591 1075 516 
Q 1375 441 1709 441 
Q 2250 441 2565 725 
Q 2881 1009 2881 1497 
Q 2881 1984 2565 2268 
Q 2250 2553 1709 2553 
Q 1456 2553 1204 2497 
Q 953 2441 691 2322 
L 691 4666 
z
" transform="scale(0.015625)"/>
       </defs>
       <use xlink:href="#DejaVuSans-35"/>
      </g>
     </g>
    </g>
    <g id="xtick_8">
     <g id="line2d_8">
      <g>
       <use xlink:href="#mff9e025b70" x="809.395966" y="635.56" style="stroke: #000000; stroke-width: 0.8"/>
      </g>
     </g>
     <g id="text_8">
      <!-- 6 -->
      <g transform="translate(801.760966 660.79625)scale(0.24 -0.24)">
       <defs>
        <path id="DejaVuSans-36" d="M 2113 2584 
Q 1688 2584 1439 2293 
Q 1191 2003 1191 1497 
Q 1191 994 1439 701 
Q 1688 409 2113 409 
Q 2538 409 2786 701 
Q 3034 994 3034 1497 
Q 3034 2003 2786 2293 
Q 2538 2584 2113 2584 
z
M 3366 4563 
L 3366 3988 
Q 3128 4100 2886 4159 
Q 2644 4219 2406 4219 
Q 1781 4219 1451 3797 
Q 1122 3375 1075 2522 
Q 1259 2794 1537 2939 
Q 1816 3084 2150 3084 
Q 2853 3084 3261 2657 
Q 3669 2231 3669 1497 
Q 3669 778 3244 343 
Q 2819 -91 2113 -91 
Q 1303 -91 875 529 
Q 447 1150 447 2328 
Q 447 3434 972 4092 
Q 1497 4750 2381 4750 
Q 2619 4750 2861 4703 
Q 3103 4656 3366 4563 
z
" transform="scale(0.015625)"/>
       </defs>
       <use xlink:href="#DejaVuSans-36"/>
      </g>
     </g>
    </g>
    <g id="xtick_9">
     <g id="line2d_9">
      <g>
       <use xlink:href="#mff9e025b70" x="891.067389" y="635.56" style="stroke: #000000; stroke-width: 0.8"/>
      </g>
     </g>
     <g id="text_9">
      <!-- 7 -->
      <g transform="translate(883.432389 660.79625)scale(0.24 -0.24)">
       <defs>
        <path id="DejaVuSans-37" d="M 525 4666 
L 3525 4666 
L 3525 4397 
L 1831 0 
L 1172 0 
L 2766 4134 
L 525 4134 
L 525 4666 
z
" transform="scale(0.015625)"/>
       </defs>
       <use xlink:href="#DejaVuSans-37"/>
      </g>
     </g>
    </g>
    <g id="text_10">
     <!-- Time (hr) -->
     <g transform="translate(514.21975 688.02375)scale(0.24 -0.24)">
      <defs>
       <path id="DejaVuSans-54" d="M -19 4666 
L 3928 4666 
L 3928 4134 
L 2272 4134 
L 2272 0 
L 1638 0 
L 1638 4134 
L -19 4134 
L -19 4666 
z
" transform="scale(0.015625)"/>
       <path id="DejaVuSans-69" d="M 603 3500 
L 1178 3500 
L 1178 0 
L 603 0 
L 603 3500 
z
M 603 4863 
L 1178 4863 
L 1178 4134 
L 603 4134 
L 603 4863 
z
" transform="scale(0.015625)"/>
       <path id="DejaVuSans-6d" d="M 3328 2828 
Q 3544 3216 3844 3400 
Q 4144 3584 4550 3584 
Q 5097 3584 5394 3201 
Q 5691 2819 5691 2113 
L 5691 0 
L 5113 0 
L 5113 2094 
Q 5113 2597 4934 2840 
Q 4756 3084 4391 3084 
Q 3944 3084 3684 2787 
Q 3425 2491 3425 1978 
L 3425 0 
L 2847 0 
L 2847 2094 
Q 2847 2600 2669 2842 
Q 2491 3084 2119 3084 
Q 1678 3084 1418 2786 
Q 1159 2488 1159 1978 
L 1159 0 
L 581 0 
L 581 3500 
L 1159 3500 
L 1159 2956 
Q 1356 3278 1631 3431 
Q 1906 3584 2284 3584 
Q 2666 3584 2933 3390 
Q 3200 3197 3328 2828 
z
" transform="scale(0.015625)"/>
       <path id="DejaVuSans-65" d="M 3597 1894 
L 3597 1613 
L 953 1613 
Q 991 1019 1311 708 
Q 1631 397 2203 397 
Q 2534 397 2845 478 
Q 3156 559 3463 722 
L 3463 178 
Q 3153 47 2828 -22 
Q 2503 -91 2169 -91 
Q 1331 -91 842 396 
Q 353 884 353 1716 
Q 353 2575 817 3079 
Q 1281 3584 2069 3584 
Q 2775 3584 3186 3129 
Q 3597 2675 3597 1894 
z
M 3022 2063 
Q 3016 2534 2758 2815 
Q 2500 3097 2075 3097 
Q 1594 3097 1305 2825 
Q 1016 2553 972 2059 
L 3022 2063 
z
" transform="scale(0.015625)"/>
       <path id="DejaVuSans-20" transform="scale(0.015625)"/>
       <path id="DejaVuSans-28" d="M 1984 4856 
Q 1566 4138 1362 3434 
Q 1159 2731 1159 2009 
Q 1159 1288 1364 580 
Q 1569 -128 1984 -844 
L 1484 -844 
Q 1016 -109 783 600 
Q 550 1309 550 2009 
Q 550 2706 781 3412 
Q 1013 4119 1484 4856 
L 1984 4856 
z
" transform="scale(0.015625)"/>
       <path id="DejaVuSans-68" d="M 3513 2113 
L 3513 0 
L 2938 0 
L 2938 2094 
Q 2938 2591 2744 2837 
Q 2550 3084 2163 3084 
Q 1697 3084 1428 2787 
Q 1159 2491 1159 1978 
L 1159 0 
L 581 0 
L 581 4863 
L 1159 4863 
L 1159 2956 
Q 1366 3272 1645 3428 
Q 1925 3584 2291 3584 
Q 2894 3584 3203 3211 
Q 3513 2838 3513 2113 
z
" transform="scale(0.015625)"/>
       <path id="DejaVuSans-72" d="M 2631 2963 
Q 2534 3019 2420 3045 
Q 2306 3072 2169 3072 
Q 1681 3072 1420 2755 
Q 1159 2438 1159 1844 
L 1159 0 
L 581 0 
L 581 3500 
L 1159 3500 
L 1159 2956 
Q 1341 3275 1631 3429 
Q 1922 3584 2338 3584 
Q 2397 3584 2469 3576 
Q 2541 3569 2628 3553 
L 2631 2963 
z
" transform="scale(0.015625)"/>
       <path id="DejaVuSans-29" d="M 513 4856 
L 1013 4856 
Q 1481 4119 1714 3412 
Q 1947 2706 1947 2009 
Q 1947 1309 1714 600 
Q 1481 -109 1013 -844 
L 513 -844 
Q 928 -128 1133 580 
Q 1338 1288 1338 2009 
Q 1338 2731 1133 3434 
Q 928 4138 513 4856 
z
" transform="scale(0.015625)"/>
      </defs>
      <use xlink:href="#DejaVuSans-54"/>
      <use xlink:href="#DejaVuSans-69" x="57.958984"/>
      <use xlink:href="#DejaVuSans-6d" x="85.742188"/>
      <use xlink:href="#DejaVuSans-65" x="183.154297"/>
      <use xlink:href="#DejaVuSans-20" x="244.677734"/>
      <use xlink:href="#DejaVuSans-28" x="276.464844"/>
      <use xlink:href="#DejaVuSans-68" x="315.478516"/>
      <use xlink:href="#DejaVuSans-72" x="378.857422"/>
      <use xlink:href="#DejaVuSans-29" x="419.970703"/>
     </g>
    </g>
   </g>
   <g id="matplotlib.axis_2">
    <g id="ytick_1">
     <g id="line2d_10">
      <defs>
       <path id="m3d1ad6686d" d="M 0 0 
L -3.5 0 
" style="stroke: #000000; stroke-width: 0.8"/>
      </defs>
      <g>
       <use xlink:href="#m3d1ad6686d" x="204.536" y="607.849551" style="stroke: #000000; stroke-width: 0.8"/>
      </g>
     </g>
     <g id="text_11">
      <!-- 0 -->
      <g transform="translate(182.266 616.967676)scale(0.24 -0.24)">
       <use xlink:href="#DejaVuSans-30"/>
      </g>
     </g>
    </g>
    <g id="ytick_2">
     <g id="line2d_11">
      <g>
       <use xlink:href="#m3d1ad6686d" x="204.536" y="515.751901" style="stroke: #000000; stroke-width: 0.8"/>
      </g>
     </g>
     <g id="text_12">
      <!-- 5,000,000 -->
      <g transform="translate(75.391 524.870026)scale(0.24 -0.24)">
       <defs>
        <path id="DejaVuSans-2c" d="M 750 794 
L 1409 794 
L 1409 256 
L 897 -744 
L 494 -744 
L 750 256 
L 750 794 
z
" transform="scale(0.015625)"/>
       </defs>
       <use xlink:href="#DejaVuSans-35"/>
       <use xlink:href="#DejaVuSans-2c" x="63.623047"/>
       <use xlink:href="#DejaVuSans-30" x="95.410156"/>
       <use xlink:href="#DejaVuSans-30" x="159.033203"/>
       <use xlink:href="#DejaVuSans-30" x="222.65625"/>
       <use xlink:href="#DejaVuSans-2c" x="286.279297"/>
       <use xlink:href="#DejaVuSans-30" x="318.066406"/>
       <use xlink:href="#DejaVuSans-30" x="381.689453"/>
       <use xlink:href="#DejaVuSans-30" x="445.3125"/>
      </g>
     </g>
    </g>
    <g id="ytick_3">
     <g id="line2d_12">
      <g>
       <use xlink:href="#m3d1ad6686d" x="204.536" y="423.654251" style="stroke: #000000; stroke-width: 0.8"/>
      </g>
     </g>
     <g id="text_13">
      <!-- 10,000,000 -->
      <g transform="translate(60.121 432.772376)scale(0.24 -0.24)">
       <use xlink:href="#DejaVuSans-31"/>
       <use xlink:href="#DejaVuSans-30" x="63.623047"/>
       <use xlink:href="#DejaVuSans-2c" x="127.246094"/>
       <use xlink:href="#DejaVuSans-30" x="159.033203"/>
       <use xlink:href="#DejaVuSans-30" x="222.65625"/>
       <use xlink:href="#DejaVuSans-30" x="286.279297"/>
       <use xlink:href="#DejaVuSans-2c" x="349.902344"/>
       <use xlink:href="#DejaVuSans-30" x="381.689453"/>
       <use xlink:href="#DejaVuSans-30" x="445.3125"/>
       <use xlink:href="#DejaVuSans-30" x="508.935547"/>
      </g>
     </g>
    </g>
    <g id="ytick_4">
     <g id="line2d_13">
      <g>
       <use xlink:href="#m3d1ad6686d" x="204.536" y="331.5566" style="stroke: #000000; stroke-width: 0.8"/>
      </g>
     </g>
     <g id="text_14">
      <!-- 15,000,000 -->
      <g transform="translate(60.121 340.674725)scale(0.24 -0.24)">
       <use xlink:href="#DejaVuSans-31"/>
       <use xlink:href="#DejaVuSans-35" x="63.623047"/>
       <use xlink:href="#DejaVuSans-2c" x="127.246094"/>
       <use xlink:href="#DejaVuSans-30" x="159.033203"/>
       <use xlink:href="#DejaVuSans-30" x="222.65625"/>
       <use xlink:href="#DejaVuSans-30" x="286.279297"/>
       <use xlink:href="#DejaVuSans-2c" x="349.902344"/>
       <use xlink:href="#DejaVuSans-30" x="381.689453"/>
       <use xlink:href="#DejaVuSans-30" x="445.3125"/>
       <use xlink:href="#DejaVuSans-30" x="508.935547"/>
      </g>
     </g>
    </g>
    <g id="ytick_5">
     <g id="line2d_14">
      <g>
       <use xlink:href="#m3d1ad6686d" x="204.536" y="239.45895" style="stroke: #000000; stroke-width: 0.8"/>
      </g>
     </g>
     <g id="text_15">
      <!-- 20,000,000 -->
      <g transform="translate(60.121 248.577075)scale(0.24 -0.24)">
       <use xlink:href="#DejaVuSans-32"/>
       <use xlink:href="#DejaVuSans-30" x="63.623047"/>
       <use xlink:href="#DejaVuSans-2c" x="127.246094"/>
       <use xlink:href="#DejaVuSans-30" x="159.033203"/>
       <use xlink:href="#DejaVuSans-30" x="222.65625"/>
       <use xlink:href="#DejaVuSans-30" x="286.279297"/>
       <use xlink:href="#DejaVuSans-2c" x="349.902344"/>
       <use xlink:href="#DejaVuSans-30" x="381.689453"/>
       <use xlink:href="#DejaVuSans-30" x="445.3125"/>
       <use xlink:href="#DejaVuSans-30" x="508.935547"/>
      </g>
     </g>
    </g>
    <g id="ytick_6">
     <g id="line2d_15">
      <g>
       <use xlink:href="#m3d1ad6686d" x="204.536" y="147.361299" style="stroke: #000000; stroke-width: 0.8"/>
      </g>
     </g>
     <g id="text_16">
      <!-- 25,000,000 -->
      <g transform="translate(60.121 156.479424)scale(0.24 -0.24)">
       <use xlink:href="#DejaVuSans-32"/>
       <use xlink:href="#DejaVuSans-35" x="63.623047"/>
       <use xlink:href="#DejaVuSans-2c" x="127.246094"/>
       <use xlink:href="#DejaVuSans-30" x="159.033203"/>
       <use xlink:href="#DejaVuSans-30" x="222.65625"/>
       <use xlink:href="#DejaVuSans-30" x="286.279297"/>
       <use xlink:href="#DejaVuSans-2c" x="349.902344"/>
       <use xlink:href="#DejaVuSans-30" x="381.689453"/>
       <use xlink:href="#DejaVuSans-30" x="445.3125"/>
       <use xlink:href="#DejaVuSans-30" x="508.935547"/>
      </g>
     </g>
    </g>
    <g id="ytick_7">
     <g id="line2d_16">
      <g>
       <use xlink:href="#m3d1ad6686d" x="204.536" y="55.263649" style="stroke: #000000; stroke-width: 0.8"/>
      </g>
     </g>
     <g id="text_17">
      <!-- 30,000,000 -->
      <g transform="translate(60.121 64.381774)scale(0.24 -0.24)">
       <use xlink:href="#DejaVuSans-33"/>
       <use xlink:href="#DejaVuSans-30" x="63.623047"/>
       <use xlink:href="#DejaVuSans-2c" x="127.246094"/>
       <use xlink:href="#DejaVuSans-30" x="159.033203"/>
       <use xlink:href="#DejaVuSans-30" x="222.65625"/>
       <use xlink:href="#DejaVuSans-30" x="286.279297"/>
       <use xlink:href="#DejaVuSans-2c" x="349.902344"/>
       <use xlink:href="#DejaVuSans-30" x="381.689453"/>
       <use xlink:href="#DejaVuSans-30" x="445.3125"/>
       <use xlink:href="#DejaVuSans-30" x="508.935547"/>
      </g>
     </g>
    </g>
    <g id="text_18">
     <!-- Squared Euclidean Distance $km^2$ -->
     <g transform="translate(51.081 528.14)rotate(-90)scale(0.24 -0.24)">
      <defs>
       <path id="DejaVuSans-53" d="M 3425 4513 
L 3425 3897 
Q 3066 4069 2747 4153 
Q 2428 4238 2131 4238 
Q 1616 4238 1336 4038 
Q 1056 3838 1056 3469 
Q 1056 3159 1242 3001 
Q 1428 2844 1947 2747 
L 2328 2669 
Q 3034 2534 3370 2195 
Q 3706 1856 3706 1288 
Q 3706 609 3251 259 
Q 2797 -91 1919 -91 
Q 1588 -91 1214 -16 
Q 841 59 441 206 
L 441 856 
Q 825 641 1194 531 
Q 1563 422 1919 422 
Q 2459 422 2753 634 
Q 3047 847 3047 1241 
Q 3047 1584 2836 1778 
Q 2625 1972 2144 2069 
L 1759 2144 
Q 1053 2284 737 2584 
Q 422 2884 422 3419 
Q 422 4038 858 4394 
Q 1294 4750 2059 4750 
Q 2388 4750 2728 4690 
Q 3069 4631 3425 4513 
z
" transform="scale(0.015625)"/>
       <path id="DejaVuSans-71" d="M 947 1747 
Q 947 1113 1208 752 
Q 1469 391 1925 391 
Q 2381 391 2643 752 
Q 2906 1113 2906 1747 
Q 2906 2381 2643 2742 
Q 2381 3103 1925 3103 
Q 1469 3103 1208 2742 
Q 947 2381 947 1747 
z
M 2906 525 
Q 2725 213 2448 61 
Q 2172 -91 1784 -91 
Q 1150 -91 751 415 
Q 353 922 353 1747 
Q 353 2572 751 3078 
Q 1150 3584 1784 3584 
Q 2172 3584 2448 3432 
Q 2725 3281 2906 2969 
L 2906 3500 
L 3481 3500 
L 3481 -1331 
L 2906 -1331 
L 2906 525 
z
" transform="scale(0.015625)"/>
       <path id="DejaVuSans-75" d="M 544 1381 
L 544 3500 
L 1119 3500 
L 1119 1403 
Q 1119 906 1312 657 
Q 1506 409 1894 409 
Q 2359 409 2629 706 
Q 2900 1003 2900 1516 
L 2900 3500 
L 3475 3500 
L 3475 0 
L 2900 0 
L 2900 538 
Q 2691 219 2414 64 
Q 2138 -91 1772 -91 
Q 1169 -91 856 284 
Q 544 659 544 1381 
z
M 1991 3584 
L 1991 3584 
z
" transform="scale(0.015625)"/>
       <path id="DejaVuSans-61" d="M 2194 1759 
Q 1497 1759 1228 1600 
Q 959 1441 959 1056 
Q 959 750 1161 570 
Q 1363 391 1709 391 
Q 2188 391 2477 730 
Q 2766 1069 2766 1631 
L 2766 1759 
L 2194 1759 
z
M 3341 1997 
L 3341 0 
L 2766 0 
L 2766 531 
Q 2569 213 2275 61 
Q 1981 -91 1556 -91 
Q 1019 -91 701 211 
Q 384 513 384 1019 
Q 384 1609 779 1909 
Q 1175 2209 1959 2209 
L 2766 2209 
L 2766 2266 
Q 2766 2663 2505 2880 
Q 2244 3097 1772 3097 
Q 1472 3097 1187 3025 
Q 903 2953 641 2809 
L 641 3341 
Q 956 3463 1253 3523 
Q 1550 3584 1831 3584 
Q 2591 3584 2966 3190 
Q 3341 2797 3341 1997 
z
" transform="scale(0.015625)"/>
       <path id="DejaVuSans-64" d="M 2906 2969 
L 2906 4863 
L 3481 4863 
L 3481 0 
L 2906 0 
L 2906 525 
Q 2725 213 2448 61 
Q 2172 -91 1784 -91 
Q 1150 -91 751 415 
Q 353 922 353 1747 
Q 353 2572 751 3078 
Q 1150 3584 1784 3584 
Q 2172 3584 2448 3432 
Q 2725 3281 2906 2969 
z
M 947 1747 
Q 947 1113 1208 752 
Q 1469 391 1925 391 
Q 2381 391 2643 752 
Q 2906 1113 2906 1747 
Q 2906 2381 2643 2742 
Q 2381 3103 1925 3103 
Q 1469 3103 1208 2742 
Q 947 2381 947 1747 
z
" transform="scale(0.015625)"/>
       <path id="DejaVuSans-45" d="M 628 4666 
L 3578 4666 
L 3578 4134 
L 1259 4134 
L 1259 2753 
L 3481 2753 
L 3481 2222 
L 1259 2222 
L 1259 531 
L 3634 531 
L 3634 0 
L 628 0 
L 628 4666 
z
" transform="scale(0.015625)"/>
       <path id="DejaVuSans-63" d="M 3122 3366 
L 3122 2828 
Q 2878 2963 2633 3030 
Q 2388 3097 2138 3097 
Q 1578 3097 1268 2742 
Q 959 2388 959 1747 
Q 959 1106 1268 751 
Q 1578 397 2138 397 
Q 2388 397 2633 464 
Q 2878 531 3122 666 
L 3122 134 
Q 2881 22 2623 -34 
Q 2366 -91 2075 -91 
Q 1284 -91 818 406 
Q 353 903 353 1747 
Q 353 2603 823 3093 
Q 1294 3584 2113 3584 
Q 2378 3584 2631 3529 
Q 2884 3475 3122 3366 
z
" transform="scale(0.015625)"/>
       <path id="DejaVuSans-6c" d="M 603 4863 
L 1178 4863 
L 1178 0 
L 603 0 
L 603 4863 
z
" transform="scale(0.015625)"/>
       <path id="DejaVuSans-6e" d="M 3513 2113 
L 3513 0 
L 2938 0 
L 2938 2094 
Q 2938 2591 2744 2837 
Q 2550 3084 2163 3084 
Q 1697 3084 1428 2787 
Q 1159 2491 1159 1978 
L 1159 0 
L 581 0 
L 581 3500 
L 1159 3500 
L 1159 2956 
Q 1366 3272 1645 3428 
Q 1925 3584 2291 3584 
Q 2894 3584 3203 3211 
Q 3513 2838 3513 2113 
z
" transform="scale(0.015625)"/>
       <path id="DejaVuSans-44" d="M 1259 4147 
L 1259 519 
L 2022 519 
Q 2988 519 3436 956 
Q 3884 1394 3884 2338 
Q 3884 3275 3436 3711 
Q 2988 4147 2022 4147 
L 1259 4147 
z
M 628 4666 
L 1925 4666 
Q 3281 4666 3915 4102 
Q 4550 3538 4550 2338 
Q 4550 1131 3912 565 
Q 3275 0 1925 0 
L 628 0 
L 628 4666 
z
" transform="scale(0.015625)"/>
       <path id="DejaVuSans-73" d="M 2834 3397 
L 2834 2853 
Q 2591 2978 2328 3040 
Q 2066 3103 1784 3103 
Q 1356 3103 1142 2972 
Q 928 2841 928 2578 
Q 928 2378 1081 2264 
Q 1234 2150 1697 2047 
L 1894 2003 
Q 2506 1872 2764 1633 
Q 3022 1394 3022 966 
Q 3022 478 2636 193 
Q 2250 -91 1575 -91 
Q 1294 -91 989 -36 
Q 684 19 347 128 
L 347 722 
Q 666 556 975 473 
Q 1284 391 1588 391 
Q 1994 391 2212 530 
Q 2431 669 2431 922 
Q 2431 1156 2273 1281 
Q 2116 1406 1581 1522 
L 1381 1569 
Q 847 1681 609 1914 
Q 372 2147 372 2553 
Q 372 3047 722 3315 
Q 1072 3584 1716 3584 
Q 2034 3584 2315 3537 
Q 2597 3491 2834 3397 
z
" transform="scale(0.015625)"/>
       <path id="DejaVuSans-74" d="M 1172 4494 
L 1172 3500 
L 2356 3500 
L 2356 3053 
L 1172 3053 
L 1172 1153 
Q 1172 725 1289 603 
Q 1406 481 1766 481 
L 2356 481 
L 2356 0 
L 1766 0 
Q 1100 0 847 248 
Q 594 497 594 1153 
L 594 3053 
L 172 3053 
L 172 3500 
L 594 3500 
L 594 4494 
L 1172 4494 
z
" transform="scale(0.015625)"/>
       <path id="DejaVuSans-Oblique-6b" d="M 1172 4863 
L 1747 4863 
L 1197 2028 
L 3169 3500 
L 3916 3500 
L 1716 1825 
L 3322 0 
L 2625 0 
L 1131 1709 
L 800 0 
L 225 0 
L 1172 4863 
z
" transform="scale(0.015625)"/>
       <path id="DejaVuSans-Oblique-6d" d="M 5747 2113 
L 5338 0 
L 4763 0 
L 5166 2094 
Q 5191 2228 5203 2325 
Q 5216 2422 5216 2491 
Q 5216 2772 5059 2928 
Q 4903 3084 4622 3084 
Q 4203 3084 3875 2770 
Q 3547 2456 3450 1953 
L 3066 0 
L 2491 0 
L 2900 2094 
Q 2925 2209 2937 2307 
Q 2950 2406 2950 2484 
Q 2950 2769 2794 2926 
Q 2638 3084 2363 3084 
Q 1938 3084 1609 2770 
Q 1281 2456 1184 1953 
L 800 0 
L 225 0 
L 909 3500 
L 1484 3500 
L 1375 2956 
Q 1609 3263 1923 3423 
Q 2238 3584 2597 3584 
Q 2978 3584 3223 3384 
Q 3469 3184 3519 2828 
Q 3781 3197 4126 3390 
Q 4472 3584 4856 3584 
Q 5306 3584 5551 3325 
Q 5797 3066 5797 2591 
Q 5797 2488 5784 2364 
Q 5772 2241 5747 2113 
z
" transform="scale(0.015625)"/>
      </defs>
      <use xlink:href="#DejaVuSans-53" transform="translate(0 0.765625)"/>
      <use xlink:href="#DejaVuSans-71" transform="translate(63.476562 0.765625)"/>
      <use xlink:href="#DejaVuSans-75" transform="translate(126.953125 0.765625)"/>
      <use xlink:href="#DejaVuSans-61" transform="translate(190.332031 0.765625)"/>
      <use xlink:href="#DejaVuSans-72" transform="translate(251.611328 0.765625)"/>
      <use xlink:href="#DejaVuSans-65" transform="translate(292.724609 0.765625)"/>
      <use xlink:href="#DejaVuSans-64" transform="translate(354.248047 0.765625)"/>
      <use xlink:href="#DejaVuSans-20" transform="translate(417.724609 0.765625)"/>
      <use xlink:href="#DejaVuSans-45" transform="translate(449.511719 0.765625)"/>
      <use xlink:href="#DejaVuSans-75" transform="translate(512.695312 0.765625)"/>
      <use xlink:href="#DejaVuSans-63" transform="translate(576.074219 0.765625)"/>
      <use xlink:href="#DejaVuSans-6c" transform="translate(631.054688 0.765625)"/>
      <use xlink:href="#DejaVuSans-69" transform="translate(658.837891 0.765625)"/>
      <use xlink:href="#DejaVuSans-64" transform="translate(686.621094 0.765625)"/>
      <use xlink:href="#DejaVuSans-65" transform="translate(750.097656 0.765625)"/>
      <use xlink:href="#DejaVuSans-61" transform="translate(811.621094 0.765625)"/>
      <use xlink:href="#DejaVuSans-6e" transform="translate(872.900391 0.765625)"/>
      <use xlink:href="#DejaVuSans-20" transform="translate(936.279297 0.765625)"/>
      <use xlink:href="#DejaVuSans-44" transform="translate(968.066406 0.765625)"/>
      <use xlink:href="#DejaVuSans-69" transform="translate(1045.068359 0.765625)"/>
      <use xlink:href="#DejaVuSans-73" transform="translate(1072.851562 0.765625)"/>
      <use xlink:href="#DejaVuSans-74" transform="translate(1124.951172 0.765625)"/>
      <use xlink:href="#DejaVuSans-61" transform="translate(1164.160156 0.765625)"/>
      <use xlink:href="#DejaVuSans-6e" transform="translate(1225.439453 0.765625)"/>
      <use xlink:href="#DejaVuSans-63" transform="translate(1288.818359 0.765625)"/>
      <use xlink:href="#DejaVuSans-65" transform="translate(1343.798828 0.765625)"/>
      <use xlink:href="#DejaVuSans-20" transform="translate(1405.322266 0.765625)"/>
      <use xlink:href="#DejaVuSans-Oblique-6b" transform="translate(1437.109375 0.765625)"/>
      <use xlink:href="#DejaVuSans-Oblique-6d" transform="translate(1495.019531 0.765625)"/>
      <use xlink:href="#DejaVuSans-32" transform="translate(1597.081536 39.046875)scale(0.7)"/>
     </g>
    </g>
   </g>
   <g id="line2d_17">
    <path d="M 319.367424 159.960591 
L 327.79534 186.541638 
L 335.520931 210.194851 
L 342.895358 232.07733 
L 349.918622 252.247193 
L 356.941886 271.735841 
L 363.613987 289.602565 
L 370.286087 306.829002 
L 376.607025 322.554746 
L 382.927962 337.703329 
L 389.2489 352.279021 
L 395.569837 366.289052 
L 401.890775 379.743183 
L 408.211713 392.653309 
L 414.53265 405.033072 
L 420.502424 416.251626 
L 426.472199 427.024066 
L 432.441973 437.364559 
L 438.762911 447.858703 
L 445.083848 457.902455 
L 451.404786 467.513356 
L 457.725723 476.708727 
L 464.046661 485.505457 
L 470.367599 493.919814 
L 476.688536 501.967262 
L 483.009474 509.662304 
L 489.330411 517.018326 
L 495.651349 524.047464 
L 501.972286 530.760481 
L 508.293224 537.166654 
L 514.614161 543.273676 
L 520.935099 549.087569 
L 527.256036 554.612615 
L 533.576974 559.851293 
L 539.897912 564.80424 
L 546.218849 569.470213 
L 552.188623 573.610669 
L 558.158398 577.488196 
L 564.128172 581.097128 
L 569.746783 584.242046 
L 575.365394 587.135651 
L 580.984006 589.769775 
L 586.251454 591.995445 
L 591.518902 593.976633 
L 596.435186 595.597183 
L 601.351471 596.988993 
L 606.267756 598.143723 
L 610.832877 598.996035 
L 615.397999 599.629066 
L 619.963121 600.035258 
L 624.528242 600.206826 
L 628.7422 600.150056 
L 632.956159 599.880173 
L 637.170117 599.390668 
L 641.384076 598.674939 
L 645.598034 597.726303 
L 649.811992 596.538001 
L 654.025951 595.103206 
L 658.239909 593.415013 
L 662.453867 591.466438 
L 666.667826 589.250399 
L 670.530621 586.977919 
L 670.530621 586.977919 
" clip-path="url(#p19ac49256d)" style="fill: none; stroke: #1f77b4; stroke-width: 4; stroke-linecap: square"/>
   </g>
   <g id="line2d_18">
    <path d="M 319.367424 420.428162 
L 322.322523 420.534764 
L 325.277623 420.850324 
L 328.528233 421.43036 
L 331.778843 422.244229 
L 335.029452 423.280503 
L 338.575572 424.650289 
L 342.121692 426.253583 
L 345.963321 428.233944 
L 350.100461 430.624594 
L 354.533111 433.451169 
L 359.26127 436.729679 
L 364.58045 440.691329 
L 370.786159 445.602808 
L 378.469419 451.9862 
L 392.653897 464.13824 
L 403.292256 473.111577 
L 410.975516 479.306235 
L 417.476735 484.269985 
L 423.386935 488.510686 
L 429.001624 492.264205 
L 434.320804 495.546637 
L 439.344473 498.382764 
L 444.072633 500.80341 
L 448.800792 502.971178 
L 453.233442 504.764873 
L 457.666092 506.320376 
L 462.098741 507.631602 
L 466.235881 508.630508 
L 470.37302 509.408767 
L 474.51016 509.963662 
L 478.6473 510.293139 
L 482.784439 510.395786 
L 486.921579 510.270819 
L 491.058719 509.918072 
L 495.195858 509.337991 
L 499.332998 508.53164 
L 503.470138 507.500704 
L 507.607277 506.24751 
L 512.039927 504.661569 
L 516.472576 502.828474 
L 520.905226 500.753734 
L 525.633386 498.28171 
L 530.361545 495.551488 
L 535.385215 492.379844 
L 540.408884 488.943959 
L 545.728064 485.0372 
L 551.342753 480.63912 
L 557.548463 475.48813 
L 564.345192 469.554134 
L 572.619472 462.023753 
L 600.397409 436.457038 
L 606.307609 431.469238 
L 611.331278 427.501068 
L 614.877398 424.882423 
L 614.877398 424.882423 
" clip-path="url(#p19ac49256d)" style="fill: none; stroke: #ff7f0e; stroke-width: 4; stroke-linecap: square"/>
   </g>
   <g id="line2d_19">
    <path d="M 319.367424 513.890856 
L 322.722561 514.005919 
L 326.077698 514.341429 
L 329.672488 514.929052 
L 333.506931 515.79649 
L 337.341373 516.891654 
L 341.415468 518.281751 
L 345.729216 519.981928 
L 350.522269 522.113981 
L 355.794628 524.713843 
L 361.546292 527.804068 
L 368.256566 531.675988 
L 376.165104 536.510107 
L 386.949474 543.388737 
L 414.988835 561.396035 
L 424.814594 567.373105 
L 433.44209 572.367928 
L 441.59028 576.827779 
L 449.259165 580.769169 
L 456.448745 584.218592 
L 463.398672 587.311364 
L 470.108947 590.059313 
L 476.579568 592.477106 
L 483.05019 594.658248 
L 489.281159 596.528036 
L 495.512128 598.166494 
L 501.743098 599.570616 
L 507.974067 600.739992 
L 514.205036 601.677472 
L 520.436005 602.389861 
L 526.906627 602.903718 
L 533.616901 603.213418 
L 541.046134 603.325435 
L 549.433977 603.221067 
L 559.020083 602.909927 
L 559.020083 602.909927 
" clip-path="url(#p19ac49256d)" style="fill: none; stroke: #2ca02c; stroke-width: 4; stroke-linecap: square"/>
   </g>
   <g id="line2d_20">
    <path d="M 319.367424 515.454193 
L 327.050683 526.226953 
L 333.847412 535.376772 
L 340.053122 543.356285 
L 345.667811 550.224893 
L 350.986991 556.39347 
L 356.01066 561.894114 
L 361.03433 567.060211 
L 365.76249 571.602761 
L 370.195139 575.56982 
L 374.627789 579.246944 
L 379.060438 582.627964 
L 383.197578 585.512129 
L 387.334718 588.131131 
L 391.471857 590.48285 
L 395.608997 592.565954 
L 399.450627 594.2592 
L 403.292256 595.720307 
L 407.133886 596.949709 
L 410.975516 597.948216 
L 414.817145 598.716962 
L 418.658775 599.257362 
L 422.500405 599.571055 
L 426.342034 599.659867 
L 430.183664 599.525759 
L 434.025294 599.170791 
L 437.866923 598.597076 
L 441.708553 597.806746 
L 445.550183 596.801916 
L 449.687322 595.482268 
L 453.824462 593.918709 
L 457.961602 592.113558 
L 462.098741 590.068954 
L 466.235881 587.786823 
L 470.66853 585.080017 
L 475.10118 582.104241 
L 479.53383 578.860911 
L 483.966479 575.3511 
L 488.694639 571.314403 
L 493.422798 566.97584 
L 498.150958 562.335557 
L 502.879118 557.39341 
L 507.902787 551.811252 
L 512.926457 545.887461 
L 517.950126 539.621656 
L 522.973796 533.013794 
L 528.292975 525.645048 
L 533.612155 517.895267 
L 539.226844 509.305382 
L 544.841534 500.301413 
L 550.751733 490.387288 
L 556.661933 480.042264 
L 562.867642 468.741546 
L 569.664372 455.891083 
L 577.052121 441.43213 
L 585.62191 424.152739 
L 598.919859 396.750177 
L 611.035768 371.952214 
L 614.877398 364.290664 
L 614.877398 364.290664 
" clip-path="url(#p19ac49256d)" style="fill: none; stroke: #d62728; stroke-width: 4; stroke-linecap: square"/>
   </g>
   <g id="line2d_21">
    <path d="M 319.367424 53.630909 
L 333.986236 105.58631 
L 342.853384 136.271012 
L 350.522269 162.031634 
L 357.711849 185.408796 
L 364.422124 206.488471 
L 370.892745 226.105158 
L 377.363367 245.007887 
L 383.594336 262.532057 
L 389.825306 279.396141 
L 396.056275 295.612745 
L 402.287244 311.199854 
L 408.518213 326.179328 
L 414.749182 340.575536 
L 420.980151 354.414138 
L 427.21112 367.720995 
L 433.44209 380.521226 
L 439.912711 393.302785 
L 446.383333 405.587233 
L 452.853955 417.395194 
L 459.324577 428.743623 
L 465.795199 439.645554 
L 472.26582 450.110045 
L 478.736442 460.14234 
L 484.967411 469.396301 
L 491.198381 478.250305 
L 497.189697 486.384161 
L 503.181014 494.142701 
L 508.932677 501.234984 
L 514.684341 507.97679 
L 520.436005 514.368068 
L 525.948016 520.166479 
L 531.460027 525.65063 
L 536.972039 530.829524 
L 542.723702 535.922605 
L 548.475366 540.71863 
L 554.466683 545.427676 
L 559.020083 548.833366 
L 559.020083 548.833366 
" clip-path="url(#p19ac49256d)" style="fill: none; stroke: #9467bd; stroke-width: 4; stroke-linecap: square"/>
   </g>
   <g id="line2d_22">
    <path d="M 319.367424 411.692904 
L 329.672488 411.803687 
L 341.175816 412.155318 
L 353.637754 412.760177 
L 366.81865 413.623926 
L 379.520241 414.675302 
L 391.263222 415.863558 
L 402.047591 417.171986 
L 412.113003 418.614657 
L 421.459457 420.174105 
L 430.566258 421.919824 
L 439.433406 423.85013 
L 448.060902 425.954807 
L 456.92805 428.35036 
L 466.034851 431.043749 
L 475.86061 434.183298 
L 487.843243 438.257493 
L 514.923994 447.55887 
L 522.592879 449.897074 
L 528.823848 451.576953 
L 534.335859 452.84239 
L 539.368565 453.771317 
L 543.921966 454.387463 
L 547.996061 454.727208 
L 551.830503 454.837508 
L 555.425293 454.732335 
L 559.020083 454.400784 
L 559.020083 454.400784 
" clip-path="url(#p19ac49256d)" style="fill: none; stroke: #8c564b; stroke-width: 4; stroke-linecap: square"/>
   </g>
   <g id="line2d_23">
    <path d="M 237.696 607.849091 
L 900.896 607.849091 
" clip-path="url(#p19ac49256d)" style="fill: none; stroke-dasharray: 14.8,6.4; stroke-dashoffset: 0; stroke: #e377c2; stroke-width: 4"/>
   </g>
   <g id="patch_3">
    <path d="M 204.536 635.56 
L 204.536 25.92 
" style="fill: none; stroke: #000000; stroke-width: 0.8; stroke-linejoin: miter; stroke-linecap: square"/>
   </g>
   <g id="patch_4">
    <path d="M 934.056 635.56 
L 934.056 25.92 
" style="fill: none; stroke: #000000; stroke-width: 0.8; stroke-linejoin: miter; stroke-linecap: square"/>
   </g>
   <g id="patch_5">
    <path d="M 204.536 635.56 
L 934.056 635.56 
" style="fill: none; stroke: #000000; stroke-width: 0.8; stroke-linejoin: miter; stroke-linecap: square"/>
   </g>
   <g id="patch_6">
    <path d="M 204.536 25.92 
L 934.056 25.92 
" style="fill: none; stroke: #000000; stroke-width: 0.8; stroke-linejoin: miter; stroke-linecap: square"/>
   </g>
   <g id="legend_1">
    <g id="patch_7">
     <path d="M 651.576 323.52 
L 917.256 323.52 
Q 922.056 323.52 922.056 318.72 
L 922.056 42.72 
Q 922.056 37.92 917.256 37.92 
L 651.576 37.92 
Q 646.776 37.92 646.776 42.72 
L 646.776 318.72 
Q 646.776 323.52 651.576 323.52 
z
" style="fill: #ffffff; opacity: 0.8; stroke: #cccccc; stroke-linejoin: miter"/>
    </g>
    <g id="line2d_24">
     <path d="M 656.376 60.96 
L 680.376 60.96 
L 704.376 60.96 
" style="fill: none; stroke: #1f77b4; stroke-width: 4; stroke-linecap: square"/>
    </g>
    <g id="text_19">
     <!-- $||Veh_1 - Veh_2||^2$ -->
     <g transform="translate(723.576 69.36)scale(0.24 -0.24)">
      <defs>
       <path id="DejaVuSans-7c" d="M 1344 4891 
L 1344 -1509 
L 813 -1509 
L 813 4891 
L 1344 4891 
z
" transform="scale(0.015625)"/>
       <path id="DejaVuSans-Oblique-56" d="M 1319 0 
L 500 4666 
L 1119 4666 
L 1797 653 
L 4063 4666 
L 4750 4666 
L 2053 0 
L 1319 0 
z
" transform="scale(0.015625)"/>
       <path id="DejaVuSans-Oblique-65" d="M 3078 2063 
Q 3088 2113 3092 2166 
Q 3097 2219 3097 2272 
Q 3097 2653 2873 2875 
Q 2650 3097 2266 3097 
Q 1838 3097 1509 2826 
Q 1181 2556 1013 2059 
L 3078 2063 
z
M 3578 1613 
L 903 1613 
Q 884 1494 878 1425 
Q 872 1356 872 1306 
Q 872 872 1139 634 
Q 1406 397 1894 397 
Q 2269 397 2603 481 
Q 2938 566 3225 728 
L 3116 159 
Q 2806 34 2476 -28 
Q 2147 -91 1806 -91 
Q 1078 -91 686 257 
Q 294 606 294 1247 
Q 294 1794 489 2264 
Q 684 2734 1063 3103 
Q 1306 3334 1642 3459 
Q 1978 3584 2356 3584 
Q 2950 3584 3301 3228 
Q 3653 2872 3653 2272 
Q 3653 2128 3634 1964 
Q 3616 1800 3578 1613 
z
" transform="scale(0.015625)"/>
       <path id="DejaVuSans-Oblique-68" d="M 3566 2113 
L 3156 0 
L 2578 0 
L 2988 2091 
Q 3016 2238 3031 2350 
Q 3047 2463 3047 2528 
Q 3047 2791 2881 2937 
Q 2716 3084 2419 3084 
Q 1956 3084 1617 2771 
Q 1278 2459 1178 1941 
L 800 0 
L 225 0 
L 1172 4863 
L 1747 4863 
L 1375 2950 
Q 1594 3244 1934 3414 
Q 2275 3584 2650 3584 
Q 3113 3584 3367 3334 
Q 3622 3084 3622 2631 
Q 3622 2519 3608 2391 
Q 3594 2263 3566 2113 
z
" transform="scale(0.015625)"/>
       <path id="DejaVuSans-2212" d="M 678 2272 
L 4684 2272 
L 4684 1741 
L 678 1741 
L 678 2272 
z
" transform="scale(0.015625)"/>
      </defs>
      <use xlink:href="#DejaVuSans-7c" transform="translate(0 0.765625)"/>
      <use xlink:href="#DejaVuSans-7c" transform="translate(33.691406 0.765625)"/>
      <use xlink:href="#DejaVuSans-Oblique-56" transform="translate(67.382812 0.765625)"/>
      <use xlink:href="#DejaVuSans-Oblique-65" transform="translate(135.791016 0.765625)"/>
      <use xlink:href="#DejaVuSans-Oblique-68" transform="translate(197.314453 0.765625)"/>
      <use xlink:href="#DejaVuSans-31" transform="translate(260.693359 -15.640625)scale(0.7)"/>
      <use xlink:href="#DejaVuSans-2212" transform="translate(327.446289 0.765625)"/>
      <use xlink:href="#DejaVuSans-Oblique-56" transform="translate(430.717773 0.765625)"/>
      <use xlink:href="#DejaVuSans-Oblique-65" transform="translate(499.125977 0.765625)"/>
      <use xlink:href="#DejaVuSans-Oblique-68" transform="translate(560.649414 0.765625)"/>
      <use xlink:href="#DejaVuSans-32" transform="translate(624.02832 -15.640625)scale(0.7)"/>
      <use xlink:href="#DejaVuSans-7c" transform="translate(671.298828 0.765625)"/>
      <use xlink:href="#DejaVuSans-7c" transform="translate(704.990234 0.765625)"/>
      <use xlink:href="#DejaVuSans-32" transform="translate(739.638672 39.046875)scale(0.7)"/>
     </g>
    </g>
    <g id="line2d_25">
     <path d="M 656.376 100.56 
L 680.376 100.56 
L 704.376 100.56 
" style="fill: none; stroke: #ff7f0e; stroke-width: 4; stroke-linecap: square"/>
    </g>
    <g id="text_20">
     <!-- $||Veh_1 - Veh_2||^2$ -->
     <g transform="translate(723.576 108.96)scale(0.24 -0.24)">
      <use xlink:href="#DejaVuSans-7c" transform="translate(0 0.765625)"/>
      <use xlink:href="#DejaVuSans-7c" transform="translate(33.691406 0.765625)"/>
      <use xlink:href="#DejaVuSans-Oblique-56" transform="translate(67.382812 0.765625)"/>
      <use xlink:href="#DejaVuSans-Oblique-65" transform="translate(135.791016 0.765625)"/>
      <use xlink:href="#DejaVuSans-Oblique-68" transform="translate(197.314453 0.765625)"/>
      <use xlink:href="#DejaVuSans-31" transform="translate(260.693359 -15.640625)scale(0.7)"/>
      <use xlink:href="#DejaVuSans-2212" transform="translate(327.446289 0.765625)"/>
      <use xlink:href="#DejaVuSans-Oblique-56" transform="translate(430.717773 0.765625)"/>
      <use xlink:href="#DejaVuSans-Oblique-65" transform="translate(499.125977 0.765625)"/>
      <use xlink:href="#DejaVuSans-Oblique-68" transform="translate(560.649414 0.765625)"/>
      <use xlink:href="#DejaVuSans-32" transform="translate(624.02832 -15.640625)scale(0.7)"/>
      <use xlink:href="#DejaVuSans-7c" transform="translate(671.298828 0.765625)"/>
      <use xlink:href="#DejaVuSans-7c" transform="translate(704.990234 0.765625)"/>
      <use xlink:href="#DejaVuSans-32" transform="translate(739.638672 39.046875)scale(0.7)"/>
     </g>
    </g>
    <g id="line2d_26">
     <path d="M 656.376 140.16 
L 680.376 140.16 
L 704.376 140.16 
" style="fill: none; stroke: #2ca02c; stroke-width: 4; stroke-linecap: square"/>
    </g>
    <g id="text_21">
     <!-- $||Veh_1 - Veh_2||^2$ -->
     <g transform="translate(723.576 148.56)scale(0.24 -0.24)">
      <use xlink:href="#DejaVuSans-7c" transform="translate(0 0.765625)"/>
      <use xlink:href="#DejaVuSans-7c" transform="translate(33.691406 0.765625)"/>
      <use xlink:href="#DejaVuSans-Oblique-56" transform="translate(67.382812 0.765625)"/>
      <use xlink:href="#DejaVuSans-Oblique-65" transform="translate(135.791016 0.765625)"/>
      <use xlink:href="#DejaVuSans-Oblique-68" transform="translate(197.314453 0.765625)"/>
      <use xlink:href="#DejaVuSans-31" transform="translate(260.693359 -15.640625)scale(0.7)"/>
      <use xlink:href="#DejaVuSans-2212" transform="translate(327.446289 0.765625)"/>
      <use xlink:href="#DejaVuSans-Oblique-56" transform="translate(430.717773 0.765625)"/>
      <use xlink:href="#DejaVuSans-Oblique-65" transform="translate(499.125977 0.765625)"/>
      <use xlink:href="#DejaVuSans-Oblique-68" transform="translate(560.649414 0.765625)"/>
      <use xlink:href="#DejaVuSans-32" transform="translate(624.02832 -15.640625)scale(0.7)"/>
      <use xlink:href="#DejaVuSans-7c" transform="translate(671.298828 0.765625)"/>
      <use xlink:href="#DejaVuSans-7c" transform="translate(704.990234 0.765625)"/>
      <use xlink:href="#DejaVuSans-32" transform="translate(739.638672 39.046875)scale(0.7)"/>
     </g>
    </g>
    <g id="line2d_27">
     <path d="M 656.376 179.76 
L 680.376 179.76 
L 704.376 179.76 
" style="fill: none; stroke: #d62728; stroke-width: 4; stroke-linecap: square"/>
    </g>
    <g id="text_22">
     <!-- $||Veh_2 - Veh_3||^2$ -->
     <g transform="translate(723.576 188.16)scale(0.24 -0.24)">
      <use xlink:href="#DejaVuSans-7c" transform="translate(0 0.765625)"/>
      <use xlink:href="#DejaVuSans-7c" transform="translate(33.691406 0.765625)"/>
      <use xlink:href="#DejaVuSans-Oblique-56" transform="translate(67.382812 0.765625)"/>
      <use xlink:href="#DejaVuSans-Oblique-65" transform="translate(135.791016 0.765625)"/>
      <use xlink:href="#DejaVuSans-Oblique-68" transform="translate(197.314453 0.765625)"/>
      <use xlink:href="#DejaVuSans-32" transform="translate(260.693359 -15.640625)scale(0.7)"/>
      <use xlink:href="#DejaVuSans-2212" transform="translate(327.446289 0.765625)"/>
      <use xlink:href="#DejaVuSans-Oblique-56" transform="translate(430.717773 0.765625)"/>
      <use xlink:href="#DejaVuSans-Oblique-65" transform="translate(499.125977 0.765625)"/>
      <use xlink:href="#DejaVuSans-Oblique-68" transform="translate(560.649414 0.765625)"/>
      <use xlink:href="#DejaVuSans-33" transform="translate(624.02832 -15.640625)scale(0.7)"/>
      <use xlink:href="#DejaVuSans-7c" transform="translate(671.298828 0.765625)"/>
      <use xlink:href="#DejaVuSans-7c" transform="translate(704.990234 0.765625)"/>
      <use xlink:href="#DejaVuSans-32" transform="translate(739.638672 39.046875)scale(0.7)"/>
     </g>
    </g>
    <g id="line2d_28">
     <path d="M 656.376 219.36 
L 680.376 219.36 
L 704.376 219.36 
" style="fill: none; stroke: #9467bd; stroke-width: 4; stroke-linecap: square"/>
    </g>
    <g id="text_23">
     <!-- $||Veh_2 - Veh_3||^2$ -->
     <g transform="translate(723.576 227.76)scale(0.24 -0.24)">
      <use xlink:href="#DejaVuSans-7c" transform="translate(0 0.765625)"/>
      <use xlink:href="#DejaVuSans-7c" transform="translate(33.691406 0.765625)"/>
      <use xlink:href="#DejaVuSans-Oblique-56" transform="translate(67.382812 0.765625)"/>
      <use xlink:href="#DejaVuSans-Oblique-65" transform="translate(135.791016 0.765625)"/>
      <use xlink:href="#DejaVuSans-Oblique-68" transform="translate(197.314453 0.765625)"/>
      <use xlink:href="#DejaVuSans-32" transform="translate(260.693359 -15.640625)scale(0.7)"/>
      <use xlink:href="#DejaVuSans-2212" transform="translate(327.446289 0.765625)"/>
      <use xlink:href="#DejaVuSans-Oblique-56" transform="translate(430.717773 0.765625)"/>
      <use xlink:href="#DejaVuSans-Oblique-65" transform="translate(499.125977 0.765625)"/>
      <use xlink:href="#DejaVuSans-Oblique-68" transform="translate(560.649414 0.765625)"/>
      <use xlink:href="#DejaVuSans-33" transform="translate(624.02832 -15.640625)scale(0.7)"/>
      <use xlink:href="#DejaVuSans-7c" transform="translate(671.298828 0.765625)"/>
      <use xlink:href="#DejaVuSans-7c" transform="translate(704.990234 0.765625)"/>
      <use xlink:href="#DejaVuSans-32" transform="translate(739.638672 39.046875)scale(0.7)"/>
     </g>
    </g>
    <g id="line2d_29">
     <path d="M 656.376 258.96 
L 680.376 258.96 
L 704.376 258.96 
" style="fill: none; stroke: #8c564b; stroke-width: 4; stroke-linecap: square"/>
    </g>
    <g id="text_24">
     <!-- $||Veh_3 - Veh_4||^2$ -->
     <g transform="translate(723.576 267.36)scale(0.24 -0.24)">
      <use xlink:href="#DejaVuSans-7c" transform="translate(0 0.765625)"/>
      <use xlink:href="#DejaVuSans-7c" transform="translate(33.691406 0.765625)"/>
      <use xlink:href="#DejaVuSans-Oblique-56" transform="translate(67.382812 0.765625)"/>
      <use xlink:href="#DejaVuSans-Oblique-65" transform="translate(135.791016 0.765625)"/>
      <use xlink:href="#DejaVuSans-Oblique-68" transform="translate(197.314453 0.765625)"/>
      <use xlink:href="#DejaVuSans-33" transform="translate(260.693359 -15.640625)scale(0.7)"/>
      <use xlink:href="#DejaVuSans-2212" transform="translate(327.446289 0.765625)"/>
      <use xlink:href="#DejaVuSans-Oblique-56" transform="translate(430.717773 0.765625)"/>
      <use xlink:href="#DejaVuSans-Oblique-65" transform="translate(499.125977 0.765625)"/>
      <use xlink:href="#DejaVuSans-Oblique-68" transform="translate(560.649414 0.765625)"/>
      <use xlink:href="#DejaVuSans-34" transform="translate(624.02832 -15.640625)scale(0.7)"/>
      <use xlink:href="#DejaVuSans-7c" transform="translate(671.298828 0.765625)"/>
      <use xlink:href="#DejaVuSans-7c" transform="translate(704.990234 0.765625)"/>
      <use xlink:href="#DejaVuSans-32" transform="translate(739.638672 39.046875)scale(0.7)"/>
     </g>
    </g>
    <g id="line2d_30">
     <path d="M 656.376 298.56 
L 680.376 298.56 
L 704.376 298.56 
" style="fill: none; stroke-dasharray: 14.8,6.4; stroke-dashoffset: 0; stroke: #e377c2; stroke-width: 4"/>
    </g>
    <g id="text_25">
     <!-- $d^2_{s}$ -->
     <g transform="translate(723.576 306.96)scale(0.24 -0.24)">
      <defs>
       <path id="DejaVuSans-Oblique-64" d="M 2675 525 
Q 2444 222 2128 65 
Q 1813 -91 1428 -91 
Q 903 -91 598 267 
Q 294 625 294 1247 
Q 294 1766 478 2236 
Q 663 2706 1013 3078 
Q 1244 3325 1534 3454 
Q 1825 3584 2144 3584 
Q 2481 3584 2739 3421 
Q 2997 3259 3138 2956 
L 3513 4863 
L 4091 4863 
L 3144 0 
L 2566 0 
L 2675 525 
z
M 891 1350 
Q 891 897 1095 644 
Q 1300 391 1663 391 
Q 1931 391 2161 520 
Q 2391 650 2566 903 
Q 2750 1166 2856 1509 
Q 2963 1853 2963 2188 
Q 2963 2622 2758 2865 
Q 2553 3109 2194 3109 
Q 1922 3109 1687 2981 
Q 1453 2853 1288 2613 
Q 1106 2353 998 2009 
Q 891 1666 891 1350 
z
" transform="scale(0.015625)"/>
       <path id="DejaVuSans-Oblique-73" d="M 3200 3397 
L 3091 2853 
Q 2863 2978 2609 3040 
Q 2356 3103 2088 3103 
Q 1634 3103 1373 2948 
Q 1113 2794 1113 2528 
Q 1113 2219 1719 2053 
Q 1766 2041 1788 2034 
L 1972 1978 
Q 2547 1819 2739 1644 
Q 2931 1469 2931 1166 
Q 2931 609 2489 259 
Q 2047 -91 1331 -91 
Q 1053 -91 747 -37 
Q 441 16 72 128 
L 184 722 
Q 500 559 806 475 
Q 1113 391 1394 391 
Q 1816 391 2080 572 
Q 2344 753 2344 1031 
Q 2344 1331 1650 1516 
L 1591 1531 
L 1394 1581 
Q 956 1697 753 1886 
Q 550 2075 550 2369 
Q 550 2928 970 3256 
Q 1391 3584 2113 3584 
Q 2397 3584 2667 3537 
Q 2938 3491 3200 3397 
z
" transform="scale(0.015625)"/>
      </defs>
      <use xlink:href="#DejaVuSans-Oblique-64" transform="translate(0 0.765625)"/>
      <use xlink:href="#DejaVuSans-32" transform="translate(70.924271 39.046875)scale(0.7)"/>
      <use xlink:href="#DejaVuSans-Oblique-73" transform="translate(63.476562 -26.578125)scale(0.7)"/>
     </g>
    </g>
   </g>
  </g>
 </g>
 <defs>
  <clipPath id="p19ac49256d">
   <rect x="204.536" y="25.92" width="729.52" height="609.64"/>
  </clipPath>
 </defs>
</svg>
