<?xml version="1.0" encoding="utf-8" standalone="no"?>
<!DOCTYPE svg PUBLIC "-//W3C//DTD SVG 1.1//EN"
  "http://www.w3.org/Graphics/SVG/1.1/DTD/svg11.dtd">
<!-- Created with matplotlib (https://matplotlib.org/) -->
<svg height="720pt" version="1.1" viewBox="0 0 959.976 720" width="959.976pt" xmlns="http://www.w3.org/2000/svg" xmlns:xlink="http://www.w3.org/1999/xlink">
 <defs>
  <style type="text/css">
*{stroke-linecap:butt;stroke-linejoin:round;}
  </style>
 </defs>
 <g id="figure_1">
  <g id="patch_1">
   <path d="M 0 720 
L 959.976 720 
L 959.976 0 
L 0 0 
z
" style="fill:#ffffff;"/>
  </g>
  <g id="axes_1">
   <g id="patch_2">
    <path d="M 144.783875 635.56 
L 934.056 635.56 
L 934.056 25.92 
L 144.783875 25.92 
z
" style="fill:#ffffff;"/>
   </g>
   <g id="matplotlib.axis_1">
    <g id="xtick_1">
     <g id="line2d_1">
      <defs>
       <path d="M 0 0 
L 0 3.5 
" id="m8063fd295f" style="stroke:#000000;stroke-width:0.8;"/>
      </defs>
      <g>
       <use style="stroke:#000000;stroke-width:0.8;" x="267.052721" xlink:href="#m8063fd295f" y="635.56"/>
      </g>
     </g>
     <g id="text_1">
      <!-- 0 -->
      <defs>
       <path d="M 31.78125 66.40625 
Q 24.171875 66.40625 20.328125 58.90625 
Q 16.5 51.421875 16.5 36.375 
Q 16.5 21.390625 20.328125 13.890625 
Q 24.171875 6.390625 31.78125 6.390625 
Q 39.453125 6.390625 43.28125 13.890625 
Q 47.125 21.390625 47.125 36.375 
Q 47.125 51.421875 43.28125 58.90625 
Q 39.453125 66.40625 31.78125 66.40625 
z
M 31.78125 74.21875 
Q 44.046875 74.21875 50.515625 64.515625 
Q 56.984375 54.828125 56.984375 36.375 
Q 56.984375 17.96875 50.515625 8.265625 
Q 44.046875 -1.421875 31.78125 -1.421875 
Q 19.53125 -1.421875 13.0625 8.265625 
Q 6.59375 17.96875 6.59375 36.375 
Q 6.59375 54.828125 13.0625 64.515625 
Q 19.53125 74.21875 31.78125 74.21875 
z
" id="DejaVuSans-48"/>
      </defs>
      <g transform="translate(259.417721 660.79625)scale(0.24 -0.24)">
       <use xlink:href="#DejaVuSans-48"/>
      </g>
     </g>
    </g>
    <g id="xtick_2">
     <g id="line2d_2">
      <g>
       <use style="stroke:#000000;stroke-width:0.8;" x="439.838402" xlink:href="#m8063fd295f" y="635.56"/>
      </g>
     </g>
     <g id="text_2">
      <!-- 2 -->
      <defs>
       <path d="M 19.1875 8.296875 
L 53.609375 8.296875 
L 53.609375 0 
L 7.328125 0 
L 7.328125 8.296875 
Q 12.9375 14.109375 22.625 23.890625 
Q 32.328125 33.6875 34.8125 36.53125 
Q 39.546875 41.84375 41.421875 45.53125 
Q 43.3125 49.21875 43.3125 52.78125 
Q 43.3125 58.59375 39.234375 62.25 
Q 35.15625 65.921875 28.609375 65.921875 
Q 23.96875 65.921875 18.8125 64.3125 
Q 13.671875 62.703125 7.8125 59.421875 
L 7.8125 69.390625 
Q 13.765625 71.78125 18.9375 73 
Q 24.125 74.21875 28.421875 74.21875 
Q 39.75 74.21875 46.484375 68.546875 
Q 53.21875 62.890625 53.21875 53.421875 
Q 53.21875 48.921875 51.53125 44.890625 
Q 49.859375 40.875 45.40625 35.40625 
Q 44.1875 33.984375 37.640625 27.21875 
Q 31.109375 20.453125 19.1875 8.296875 
z
" id="DejaVuSans-50"/>
      </defs>
      <g transform="translate(432.203402 660.79625)scale(0.24 -0.24)">
       <use xlink:href="#DejaVuSans-50"/>
      </g>
     </g>
    </g>
    <g id="xtick_3">
     <g id="line2d_3">
      <g>
       <use style="stroke:#000000;stroke-width:0.8;" x="612.624083" xlink:href="#m8063fd295f" y="635.56"/>
      </g>
     </g>
     <g id="text_3">
      <!-- 4 -->
      <defs>
       <path d="M 37.796875 64.3125 
L 12.890625 25.390625 
L 37.796875 25.390625 
z
M 35.203125 72.90625 
L 47.609375 72.90625 
L 47.609375 25.390625 
L 58.015625 25.390625 
L 58.015625 17.1875 
L 47.609375 17.1875 
L 47.609375 0 
L 37.796875 0 
L 37.796875 17.1875 
L 4.890625 17.1875 
L 4.890625 26.703125 
z
" id="DejaVuSans-52"/>
      </defs>
      <g transform="translate(604.989083 660.79625)scale(0.24 -0.24)">
       <use xlink:href="#DejaVuSans-52"/>
      </g>
     </g>
    </g>
    <g id="xtick_4">
     <g id="line2d_4">
      <g>
       <use style="stroke:#000000;stroke-width:0.8;" x="785.409764" xlink:href="#m8063fd295f" y="635.56"/>
      </g>
     </g>
     <g id="text_4">
      <!-- 6 -->
      <defs>
       <path d="M 33.015625 40.375 
Q 26.375 40.375 22.484375 35.828125 
Q 18.609375 31.296875 18.609375 23.390625 
Q 18.609375 15.53125 22.484375 10.953125 
Q 26.375 6.390625 33.015625 6.390625 
Q 39.65625 6.390625 43.53125 10.953125 
Q 47.40625 15.53125 47.40625 23.390625 
Q 47.40625 31.296875 43.53125 35.828125 
Q 39.65625 40.375 33.015625 40.375 
z
M 52.59375 71.296875 
L 52.59375 62.3125 
Q 48.875 64.0625 45.09375 64.984375 
Q 41.3125 65.921875 37.59375 65.921875 
Q 27.828125 65.921875 22.671875 59.328125 
Q 17.53125 52.734375 16.796875 39.40625 
Q 19.671875 43.65625 24.015625 45.921875 
Q 28.375 48.1875 33.59375 48.1875 
Q 44.578125 48.1875 50.953125 41.515625 
Q 57.328125 34.859375 57.328125 23.390625 
Q 57.328125 12.15625 50.6875 5.359375 
Q 44.046875 -1.421875 33.015625 -1.421875 
Q 20.359375 -1.421875 13.671875 8.265625 
Q 6.984375 17.96875 6.984375 36.375 
Q 6.984375 53.65625 15.1875 63.9375 
Q 23.390625 74.21875 37.203125 74.21875 
Q 40.921875 74.21875 44.703125 73.484375 
Q 48.484375 72.75 52.59375 71.296875 
z
" id="DejaVuSans-54"/>
      </defs>
      <g transform="translate(777.774764 660.79625)scale(0.24 -0.24)">
       <use xlink:href="#DejaVuSans-54"/>
      </g>
     </g>
    </g>
    <g id="text_5">
     <!-- Time (hr) -->
     <defs>
      <path d="M -0.296875 72.90625 
L 61.375 72.90625 
L 61.375 64.59375 
L 35.5 64.59375 
L 35.5 0 
L 25.59375 0 
L 25.59375 64.59375 
L -0.296875 64.59375 
z
" id="DejaVuSans-84"/>
      <path d="M 9.421875 54.6875 
L 18.40625 54.6875 
L 18.40625 0 
L 9.421875 0 
z
M 9.421875 75.984375 
L 18.40625 75.984375 
L 18.40625 64.59375 
L 9.421875 64.59375 
z
" id="DejaVuSans-105"/>
      <path d="M 52 44.1875 
Q 55.375 50.25 60.0625 53.125 
Q 64.75 56 71.09375 56 
Q 79.640625 56 84.28125 50.015625 
Q 88.921875 44.046875 88.921875 33.015625 
L 88.921875 0 
L 79.890625 0 
L 79.890625 32.71875 
Q 79.890625 40.578125 77.09375 44.375 
Q 74.3125 48.1875 68.609375 48.1875 
Q 61.625 48.1875 57.5625 43.546875 
Q 53.515625 38.921875 53.515625 30.90625 
L 53.515625 0 
L 44.484375 0 
L 44.484375 32.71875 
Q 44.484375 40.625 41.703125 44.40625 
Q 38.921875 48.1875 33.109375 48.1875 
Q 26.21875 48.1875 22.15625 43.53125 
Q 18.109375 38.875 18.109375 30.90625 
L 18.109375 0 
L 9.078125 0 
L 9.078125 54.6875 
L 18.109375 54.6875 
L 18.109375 46.1875 
Q 21.1875 51.21875 25.484375 53.609375 
Q 29.78125 56 35.6875 56 
Q 41.65625 56 45.828125 52.96875 
Q 50 49.953125 52 44.1875 
z
" id="DejaVuSans-109"/>
      <path d="M 56.203125 29.59375 
L 56.203125 25.203125 
L 14.890625 25.203125 
Q 15.484375 15.921875 20.484375 11.0625 
Q 25.484375 6.203125 34.421875 6.203125 
Q 39.59375 6.203125 44.453125 7.46875 
Q 49.3125 8.734375 54.109375 11.28125 
L 54.109375 2.78125 
Q 49.265625 0.734375 44.1875 -0.34375 
Q 39.109375 -1.421875 33.890625 -1.421875 
Q 20.796875 -1.421875 13.15625 6.1875 
Q 5.515625 13.8125 5.515625 26.8125 
Q 5.515625 40.234375 12.765625 48.109375 
Q 20.015625 56 32.328125 56 
Q 43.359375 56 49.78125 48.890625 
Q 56.203125 41.796875 56.203125 29.59375 
z
M 47.21875 32.234375 
Q 47.125 39.59375 43.09375 43.984375 
Q 39.0625 48.390625 32.421875 48.390625 
Q 24.90625 48.390625 20.390625 44.140625 
Q 15.875 39.890625 15.1875 32.171875 
z
" id="DejaVuSans-101"/>
      <path id="DejaVuSans-32"/>
      <path d="M 31 75.875 
Q 24.46875 64.65625 21.28125 53.65625 
Q 18.109375 42.671875 18.109375 31.390625 
Q 18.109375 20.125 21.3125 9.0625 
Q 24.515625 -2 31 -13.1875 
L 23.1875 -13.1875 
Q 15.875 -1.703125 12.234375 9.375 
Q 8.59375 20.453125 8.59375 31.390625 
Q 8.59375 42.28125 12.203125 53.3125 
Q 15.828125 64.359375 23.1875 75.875 
z
" id="DejaVuSans-40"/>
      <path d="M 54.890625 33.015625 
L 54.890625 0 
L 45.90625 0 
L 45.90625 32.71875 
Q 45.90625 40.484375 42.875 44.328125 
Q 39.84375 48.1875 33.796875 48.1875 
Q 26.515625 48.1875 22.3125 43.546875 
Q 18.109375 38.921875 18.109375 30.90625 
L 18.109375 0 
L 9.078125 0 
L 9.078125 75.984375 
L 18.109375 75.984375 
L 18.109375 46.1875 
Q 21.34375 51.125 25.703125 53.5625 
Q 30.078125 56 35.796875 56 
Q 45.21875 56 50.046875 50.171875 
Q 54.890625 44.34375 54.890625 33.015625 
z
" id="DejaVuSans-104"/>
      <path d="M 41.109375 46.296875 
Q 39.59375 47.171875 37.8125 47.578125 
Q 36.03125 48 33.890625 48 
Q 26.265625 48 22.1875 43.046875 
Q 18.109375 38.09375 18.109375 28.8125 
L 18.109375 0 
L 9.078125 0 
L 9.078125 54.6875 
L 18.109375 54.6875 
L 18.109375 46.1875 
Q 20.953125 51.171875 25.484375 53.578125 
Q 30.03125 56 36.53125 56 
Q 37.453125 56 38.578125 55.875 
Q 39.703125 55.765625 41.0625 55.515625 
z
" id="DejaVuSans-114"/>
      <path d="M 8.015625 75.875 
L 15.828125 75.875 
Q 23.140625 64.359375 26.78125 53.3125 
Q 30.421875 42.28125 30.421875 31.390625 
Q 30.421875 20.453125 26.78125 9.375 
Q 23.140625 -1.703125 15.828125 -13.1875 
L 8.015625 -13.1875 
Q 14.5 -2 17.703125 9.0625 
Q 20.90625 20.125 20.90625 31.390625 
Q 20.90625 42.671875 17.703125 53.65625 
Q 14.5 64.65625 8.015625 75.875 
z
" id="DejaVuSans-41"/>
     </defs>
     <g transform="translate(484.343688 688.02375)scale(0.24 -0.24)">
      <use xlink:href="#DejaVuSans-84"/>
      <use x="57.958984" xlink:href="#DejaVuSans-105"/>
      <use x="85.742188" xlink:href="#DejaVuSans-109"/>
      <use x="183.154297" xlink:href="#DejaVuSans-101"/>
      <use x="244.677734" xlink:href="#DejaVuSans-32"/>
      <use x="276.464844" xlink:href="#DejaVuSans-40"/>
      <use x="315.478516" xlink:href="#DejaVuSans-104"/>
      <use x="378.857422" xlink:href="#DejaVuSans-114"/>
      <use x="419.970703" xlink:href="#DejaVuSans-41"/>
     </g>
    </g>
   </g>
   <g id="matplotlib.axis_2">
    <g id="ytick_1">
     <g id="line2d_5">
      <defs>
       <path d="M 0 0 
L -3.5 0 
" id="m8a4e078fe1" style="stroke:#000000;stroke-width:0.8;"/>
      </defs>
      <g>
       <use style="stroke:#000000;stroke-width:0.8;" x="144.783875" xlink:href="#m8a4e078fe1" y="607.849091"/>
      </g>
     </g>
     <g id="text_6">
      <!-- 40000 -->
      <g transform="translate(61.433875 616.967216)scale(0.24 -0.24)">
       <use xlink:href="#DejaVuSans-52"/>
       <use x="63.623047" xlink:href="#DejaVuSans-48"/>
       <use x="127.246094" xlink:href="#DejaVuSans-48"/>
       <use x="190.869141" xlink:href="#DejaVuSans-48"/>
       <use x="254.492188" xlink:href="#DejaVuSans-48"/>
      </g>
     </g>
    </g>
    <g id="ytick_2">
     <g id="line2d_6">
      <g>
       <use style="stroke:#000000;stroke-width:0.8;" x="144.783875" xlink:href="#m8a4e078fe1" y="507.447246"/>
      </g>
     </g>
     <g id="text_7">
      <!-- 45000 -->
      <defs>
       <path d="M 10.796875 72.90625 
L 49.515625 72.90625 
L 49.515625 64.59375 
L 19.828125 64.59375 
L 19.828125 46.734375 
Q 21.96875 47.46875 24.109375 47.828125 
Q 26.265625 48.1875 28.421875 48.1875 
Q 40.625 48.1875 47.75 41.5 
Q 54.890625 34.8125 54.890625 23.390625 
Q 54.890625 11.625 47.5625 5.09375 
Q 40.234375 -1.421875 26.90625 -1.421875 
Q 22.3125 -1.421875 17.546875 -0.640625 
Q 12.796875 0.140625 7.71875 1.703125 
L 7.71875 11.625 
Q 12.109375 9.234375 16.796875 8.0625 
Q 21.484375 6.890625 26.703125 6.890625 
Q 35.15625 6.890625 40.078125 11.328125 
Q 45.015625 15.765625 45.015625 23.390625 
Q 45.015625 31 40.078125 35.4375 
Q 35.15625 39.890625 26.703125 39.890625 
Q 22.75 39.890625 18.8125 39.015625 
Q 14.890625 38.140625 10.796875 36.28125 
z
" id="DejaVuSans-53"/>
      </defs>
      <g transform="translate(61.433875 516.565371)scale(0.24 -0.24)">
       <use xlink:href="#DejaVuSans-52"/>
       <use x="63.623047" xlink:href="#DejaVuSans-53"/>
       <use x="127.246094" xlink:href="#DejaVuSans-48"/>
       <use x="190.869141" xlink:href="#DejaVuSans-48"/>
       <use x="254.492188" xlink:href="#DejaVuSans-48"/>
      </g>
     </g>
    </g>
    <g id="ytick_3">
     <g id="line2d_7">
      <g>
       <use style="stroke:#000000;stroke-width:0.8;" x="144.783875" xlink:href="#m8a4e078fe1" y="407.045402"/>
      </g>
     </g>
     <g id="text_8">
      <!-- 50000 -->
      <g transform="translate(61.433875 416.163527)scale(0.24 -0.24)">
       <use xlink:href="#DejaVuSans-53"/>
       <use x="63.623047" xlink:href="#DejaVuSans-48"/>
       <use x="127.246094" xlink:href="#DejaVuSans-48"/>
       <use x="190.869141" xlink:href="#DejaVuSans-48"/>
       <use x="254.492188" xlink:href="#DejaVuSans-48"/>
      </g>
     </g>
    </g>
    <g id="ytick_4">
     <g id="line2d_8">
      <g>
       <use style="stroke:#000000;stroke-width:0.8;" x="144.783875" xlink:href="#m8a4e078fe1" y="306.643557"/>
      </g>
     </g>
     <g id="text_9">
      <!-- 55000 -->
      <g transform="translate(61.433875 315.761682)scale(0.24 -0.24)">
       <use xlink:href="#DejaVuSans-53"/>
       <use x="63.623047" xlink:href="#DejaVuSans-53"/>
       <use x="127.246094" xlink:href="#DejaVuSans-48"/>
       <use x="190.869141" xlink:href="#DejaVuSans-48"/>
       <use x="254.492188" xlink:href="#DejaVuSans-48"/>
      </g>
     </g>
    </g>
    <g id="ytick_5">
     <g id="line2d_9">
      <g>
       <use style="stroke:#000000;stroke-width:0.8;" x="144.783875" xlink:href="#m8a4e078fe1" y="206.241713"/>
      </g>
     </g>
     <g id="text_10">
      <!-- 60000 -->
      <g transform="translate(61.433875 215.359838)scale(0.24 -0.24)">
       <use xlink:href="#DejaVuSans-54"/>
       <use x="63.623047" xlink:href="#DejaVuSans-48"/>
       <use x="127.246094" xlink:href="#DejaVuSans-48"/>
       <use x="190.869141" xlink:href="#DejaVuSans-48"/>
       <use x="254.492188" xlink:href="#DejaVuSans-48"/>
      </g>
     </g>
    </g>
    <g id="ytick_6">
     <g id="line2d_10">
      <g>
       <use style="stroke:#000000;stroke-width:0.8;" x="144.783875" xlink:href="#m8a4e078fe1" y="105.839868"/>
      </g>
     </g>
     <g id="text_11">
      <!-- 65000 -->
      <g transform="translate(61.433875 114.957993)scale(0.24 -0.24)">
       <use xlink:href="#DejaVuSans-54"/>
       <use x="63.623047" xlink:href="#DejaVuSans-53"/>
       <use x="127.246094" xlink:href="#DejaVuSans-48"/>
       <use x="190.869141" xlink:href="#DejaVuSans-48"/>
       <use x="254.492188" xlink:href="#DejaVuSans-48"/>
      </g>
     </g>
    </g>
    <g id="text_12">
     <!-- Squared Speed $\left(\frac{m}{s}\right)^2$ -->
     <defs>
      <path d="M 53.515625 70.515625 
L 53.515625 60.890625 
Q 47.90625 63.578125 42.921875 64.890625 
Q 37.9375 66.21875 33.296875 66.21875 
Q 25.25 66.21875 20.875 63.09375 
Q 16.5 59.96875 16.5 54.203125 
Q 16.5 49.359375 19.40625 46.890625 
Q 22.3125 44.4375 30.421875 42.921875 
L 36.375 41.703125 
Q 47.40625 39.59375 52.65625 34.296875 
Q 57.90625 29 57.90625 20.125 
Q 57.90625 9.515625 50.796875 4.046875 
Q 43.703125 -1.421875 29.984375 -1.421875 
Q 24.8125 -1.421875 18.96875 -0.25 
Q 13.140625 0.921875 6.890625 3.21875 
L 6.890625 13.375 
Q 12.890625 10.015625 18.65625 8.296875 
Q 24.421875 6.59375 29.984375 6.59375 
Q 38.421875 6.59375 43.015625 9.90625 
Q 47.609375 13.234375 47.609375 19.390625 
Q 47.609375 24.75 44.3125 27.78125 
Q 41.015625 30.8125 33.5 32.328125 
L 27.484375 33.5 
Q 16.453125 35.6875 11.515625 40.375 
Q 6.59375 45.0625 6.59375 53.421875 
Q 6.59375 63.09375 13.40625 68.65625 
Q 20.21875 74.21875 32.171875 74.21875 
Q 37.3125 74.21875 42.625 73.28125 
Q 47.953125 72.359375 53.515625 70.515625 
z
" id="DejaVuSans-83"/>
      <path d="M 14.796875 27.296875 
Q 14.796875 17.390625 18.875 11.75 
Q 22.953125 6.109375 30.078125 6.109375 
Q 37.203125 6.109375 41.296875 11.75 
Q 45.40625 17.390625 45.40625 27.296875 
Q 45.40625 37.203125 41.296875 42.84375 
Q 37.203125 48.484375 30.078125 48.484375 
Q 22.953125 48.484375 18.875 42.84375 
Q 14.796875 37.203125 14.796875 27.296875 
z
M 45.40625 8.203125 
Q 42.578125 3.328125 38.25 0.953125 
Q 33.9375 -1.421875 27.875 -1.421875 
Q 17.96875 -1.421875 11.734375 6.484375 
Q 5.515625 14.40625 5.515625 27.296875 
Q 5.515625 40.1875 11.734375 48.09375 
Q 17.96875 56 27.875 56 
Q 33.9375 56 38.25 53.625 
Q 42.578125 51.265625 45.40625 46.390625 
L 45.40625 54.6875 
L 54.390625 54.6875 
L 54.390625 -20.796875 
L 45.40625 -20.796875 
z
" id="DejaVuSans-113"/>
      <path d="M 8.5 21.578125 
L 8.5 54.6875 
L 17.484375 54.6875 
L 17.484375 21.921875 
Q 17.484375 14.15625 20.5 10.265625 
Q 23.53125 6.390625 29.59375 6.390625 
Q 36.859375 6.390625 41.078125 11.03125 
Q 45.3125 15.671875 45.3125 23.6875 
L 45.3125 54.6875 
L 54.296875 54.6875 
L 54.296875 0 
L 45.3125 0 
L 45.3125 8.40625 
Q 42.046875 3.421875 37.71875 1 
Q 33.40625 -1.421875 27.6875 -1.421875 
Q 18.265625 -1.421875 13.375 4.4375 
Q 8.5 10.296875 8.5 21.578125 
z
M 31.109375 56 
z
" id="DejaVuSans-117"/>
      <path d="M 34.28125 27.484375 
Q 23.390625 27.484375 19.1875 25 
Q 14.984375 22.515625 14.984375 16.5 
Q 14.984375 11.71875 18.140625 8.90625 
Q 21.296875 6.109375 26.703125 6.109375 
Q 34.1875 6.109375 38.703125 11.40625 
Q 43.21875 16.703125 43.21875 25.484375 
L 43.21875 27.484375 
z
M 52.203125 31.203125 
L 52.203125 0 
L 43.21875 0 
L 43.21875 8.296875 
Q 40.140625 3.328125 35.546875 0.953125 
Q 30.953125 -1.421875 24.3125 -1.421875 
Q 15.921875 -1.421875 10.953125 3.296875 
Q 6 8.015625 6 15.921875 
Q 6 25.140625 12.171875 29.828125 
Q 18.359375 34.515625 30.609375 34.515625 
L 43.21875 34.515625 
L 43.21875 35.40625 
Q 43.21875 41.609375 39.140625 45 
Q 35.0625 48.390625 27.6875 48.390625 
Q 23 48.390625 18.546875 47.265625 
Q 14.109375 46.140625 10.015625 43.890625 
L 10.015625 52.203125 
Q 14.9375 54.109375 19.578125 55.046875 
Q 24.21875 56 28.609375 56 
Q 40.484375 56 46.34375 49.84375 
Q 52.203125 43.703125 52.203125 31.203125 
z
" id="DejaVuSans-97"/>
      <path d="M 45.40625 46.390625 
L 45.40625 75.984375 
L 54.390625 75.984375 
L 54.390625 0 
L 45.40625 0 
L 45.40625 8.203125 
Q 42.578125 3.328125 38.25 0.953125 
Q 33.9375 -1.421875 27.875 -1.421875 
Q 17.96875 -1.421875 11.734375 6.484375 
Q 5.515625 14.40625 5.515625 27.296875 
Q 5.515625 40.1875 11.734375 48.09375 
Q 17.96875 56 27.875 56 
Q 33.9375 56 38.25 53.625 
Q 42.578125 51.265625 45.40625 46.390625 
z
M 14.796875 27.296875 
Q 14.796875 17.390625 18.875 11.75 
Q 22.953125 6.109375 30.078125 6.109375 
Q 37.203125 6.109375 41.296875 11.75 
Q 45.40625 17.390625 45.40625 27.296875 
Q 45.40625 37.203125 41.296875 42.84375 
Q 37.203125 48.484375 30.078125 48.484375 
Q 22.953125 48.484375 18.875 42.84375 
Q 14.796875 37.203125 14.796875 27.296875 
z
" id="DejaVuSans-100"/>
      <path d="M 18.109375 8.203125 
L 18.109375 -20.796875 
L 9.078125 -20.796875 
L 9.078125 54.6875 
L 18.109375 54.6875 
L 18.109375 46.390625 
Q 20.953125 51.265625 25.265625 53.625 
Q 29.59375 56 35.59375 56 
Q 45.5625 56 51.78125 48.09375 
Q 58.015625 40.1875 58.015625 27.296875 
Q 58.015625 14.40625 51.78125 6.484375 
Q 45.5625 -1.421875 35.59375 -1.421875 
Q 29.59375 -1.421875 25.265625 0.953125 
Q 20.953125 3.328125 18.109375 8.203125 
z
M 48.6875 27.296875 
Q 48.6875 37.203125 44.609375 42.84375 
Q 40.53125 48.484375 33.40625 48.484375 
Q 26.265625 48.484375 22.1875 42.84375 
Q 18.109375 37.203125 18.109375 27.296875 
Q 18.109375 17.390625 22.1875 11.75 
Q 26.265625 6.109375 33.40625 6.109375 
Q 40.53125 6.109375 44.609375 11.75 
Q 48.6875 17.390625 48.6875 27.296875 
z
" id="DejaVuSans-112"/>
      <path d="M 38.203125 -13.40625 
L 38.203125 -16.40625 
Q 27 -5.796875 20.453125 9.84375 
Q 13.90625 25.5 13.90625 45.09375 
Q 13.90625 64.40625 20.453125 80.25 
Q 27 96.09375 38.203125 106.59375 
L 38.203125 103.59375 
Q 22 83.796875 22 45.09375 
Q 22 6.40625 38.203125 -13.40625 
z
" id="STIXSizeOneSym-Regular-40"/>
      <path d="M 89.796875 33.015625 
L 83.40625 0 
L 74.421875 0 
L 80.71875 32.71875 
Q 81.109375 34.8125 81.296875 36.328125 
Q 81.5 37.84375 81.5 38.921875 
Q 81.5 43.3125 79.046875 45.75 
Q 76.609375 48.1875 72.21875 48.1875 
Q 65.671875 48.1875 60.546875 43.28125 
Q 55.421875 38.375 53.90625 30.515625 
L 47.90625 0 
L 38.921875 0 
L 45.3125 32.71875 
Q 45.703125 34.515625 45.890625 36.046875 
Q 46.09375 37.59375 46.09375 38.8125 
Q 46.09375 43.265625 43.65625 45.71875 
Q 41.21875 48.1875 36.921875 48.1875 
Q 30.28125 48.1875 25.140625 43.28125 
Q 20.015625 38.375 18.5 30.515625 
L 12.5 0 
L 3.515625 0 
L 14.203125 54.6875 
L 23.1875 54.6875 
L 21.484375 46.1875 
Q 25.140625 50.984375 30.046875 53.484375 
Q 34.96875 56 40.578125 56 
Q 46.53125 56 50.359375 52.875 
Q 54.203125 49.75 54.984375 44.1875 
Q 59.078125 49.953125 64.46875 52.96875 
Q 69.875 56 75.875 56 
Q 82.90625 56 86.734375 51.953125 
Q 90.578125 47.90625 90.578125 40.484375 
Q 90.578125 38.875 90.375 36.9375 
Q 90.1875 35.015625 89.796875 33.015625 
z
" id="DejaVuSans-Oblique-109"/>
      <path d="M 50 53.078125 
L 48.296875 44.578125 
Q 44.734375 46.53125 40.765625 47.5 
Q 36.8125 48.484375 32.625 48.484375 
Q 25.53125 48.484375 21.453125 46.0625 
Q 17.390625 43.65625 17.390625 39.5 
Q 17.390625 34.671875 26.859375 32.078125 
Q 27.59375 31.890625 27.9375 31.78125 
L 30.8125 30.90625 
Q 39.796875 28.421875 42.796875 25.6875 
Q 45.796875 22.953125 45.796875 18.21875 
Q 45.796875 9.515625 38.890625 4.046875 
Q 31.984375 -1.421875 20.796875 -1.421875 
Q 16.453125 -1.421875 11.671875 -0.578125 
Q 6.890625 0.25 1.125 2 
L 2.875 11.28125 
Q 7.8125 8.734375 12.59375 7.421875 
Q 17.390625 6.109375 21.78125 6.109375 
Q 28.375 6.109375 32.5 8.9375 
Q 36.625 11.765625 36.625 16.109375 
Q 36.625 20.796875 25.78125 23.6875 
L 24.859375 23.921875 
L 21.78125 24.703125 
Q 14.9375 26.515625 11.765625 29.46875 
Q 8.59375 32.421875 8.59375 37.015625 
Q 8.59375 45.75 15.15625 50.875 
Q 21.734375 56 33.015625 56 
Q 37.453125 56 41.671875 55.265625 
Q 45.90625 54.546875 50 53.078125 
z
" id="DejaVuSans-Oblique-115"/>
      <path d="M 8.59375 103.59375 
L 8.59375 106.59375 
Q 19.796875 96 26.34375 80.34375 
Q 32.90625 64.703125 32.90625 45.09375 
Q 32.90625 25.796875 26.34375 9.9375 
Q 19.796875 -5.90625 8.59375 -16.40625 
L 8.59375 -13.40625 
Q 24.796875 6.40625 24.796875 45.09375 
Q 24.796875 83.796875 8.59375 103.59375 
z
" id="STIXSizeOneSym-Regular-41"/>
     </defs>
     <g transform="translate(50.713875 451.7)rotate(-90)scale(0.24 -0.24)">
      <use transform="translate(0 0.765625)" xlink:href="#DejaVuSans-83"/>
      <use transform="translate(63.476562 0.765625)" xlink:href="#DejaVuSans-113"/>
      <use transform="translate(126.953125 0.765625)" xlink:href="#DejaVuSans-117"/>
      <use transform="translate(190.332031 0.765625)" xlink:href="#DejaVuSans-97"/>
      <use transform="translate(251.611328 0.765625)" xlink:href="#DejaVuSans-114"/>
      <use transform="translate(292.724609 0.765625)" xlink:href="#DejaVuSans-101"/>
      <use transform="translate(354.248047 0.765625)" xlink:href="#DejaVuSans-100"/>
      <use transform="translate(417.724609 0.765625)" xlink:href="#DejaVuSans-32"/>
      <use transform="translate(449.511719 0.765625)" xlink:href="#DejaVuSans-83"/>
      <use transform="translate(512.988281 0.765625)" xlink:href="#DejaVuSans-112"/>
      <use transform="translate(576.464844 0.765625)" xlink:href="#DejaVuSans-101"/>
      <use transform="translate(637.988281 0.765625)" xlink:href="#DejaVuSans-101"/>
      <use transform="translate(699.511719 0.765625)" xlink:href="#DejaVuSans-100"/>
      <use transform="translate(762.988281 0.765625)" xlink:href="#DejaVuSans-32"/>
      <use transform="translate(794.775391 -12.132812)scale(0.899555)" xlink:href="#STIXSizeOneSym-Regular-40"/>
      <use transform="translate(836.873444 44.5625)scale(0.7)" xlink:href="#DejaVuSans-Oblique-109"/>
      <use transform="translate(852.873444 -25.8875)scale(0.7)" xlink:href="#DejaVuSans-Oblique-115"/>
      <use transform="translate(917.56192 -12.132812)scale(0.899555)" xlink:href="#STIXSizeOneSym-Regular-41"/>
      <use transform="translate(960.617004 39.046875)scale(0.7)" xlink:href="#DejaVuSans-50"/>
      <path d="M 836.873444 19.5625 
L 836.873444 25.8125 
L 905.06192 25.8125 
L 905.06192 19.5625 
L 836.873444 19.5625 
z
"/>
     </g>
    </g>
   </g>
   <g id="line2d_11">
    <path clip-path="url(#pfeca50fd11)" d="M 267.052721 567.186344 
L 270.398001 512.771621 
L 273.743281 462.111768 
L 276.754032 419.941838 
L 279.430256 385.286837 
L 282.10648 353.349305 
L 284.782704 324.150914 
L 287.1244 300.8461 
L 289.466095 279.617073 
L 291.807791 260.433481 
L 294.149487 243.254038 
L 296.156655 230.085568 
L 298.163823 218.315194 
L 300.170991 207.901832 
L 302.178159 198.800873 
L 303.850798 192.184964 
L 305.523438 186.418402 
L 307.196078 181.471111 
L 308.868718 177.312083 
L 310.20683 174.531074 
L 311.544942 172.217655 
L 312.883054 170.355039 
L 314.221166 168.926272 
L 315.22475 168.129135 
L 316.228333 167.559187 
L 317.231917 167.209165 
L 318.235501 167.071794 
L 319.239085 167.139798 
L 320.242669 167.405905 
L 321.246253 167.862857 
L 322.584365 168.756486 
L 323.922477 169.959448 
L 325.260589 171.454774 
L 326.933229 173.709452 
L 328.605868 176.362177 
L 330.613036 180.025826 
L 332.620204 184.162302 
L 334.9619 189.515143 
L 337.638124 196.227706 
L 340.648876 204.398041 
L 344.328683 215.05061 
L 349.681131 231.331421 
L 360.051498 263.043165 
L 364.400362 275.558097 
L 368.080169 285.494563 
L 371.425449 293.894881 
L 374.436201 300.872163 
L 377.112425 306.570419 
L 379.788649 311.766034 
L 382.130344 315.882616 
L 384.47204 319.586251 
L 386.813736 322.868466 
L 388.820904 325.341965 
L 390.828072 327.499517 
L 392.83524 329.340374 
L 394.842407 330.865054 
L 396.849575 332.075268 
L 398.522215 332.845575 
L 400.194855 333.401657 
L 401.867495 333.746196 
L 403.540135 333.882326 
L 405.212775 333.813606 
L 406.885415 333.54399 
L 408.558054 333.077802 
L 410.565222 332.26549 
L 412.57239 331.185504 
L 414.579558 329.847086 
L 416.586726 328.26001 
L 418.928422 326.107825 
L 421.270117 323.648089 
L 423.946341 320.482948 
L 426.622565 316.96615 
L 429.633317 312.623965 
L 432.978597 307.367404 
L 436.658404 301.124476 
L 440.67274 293.848415 
L 445.356132 284.870273 
L 451.043107 273.465624 
L 461.748002 251.36576 
L 469.442146 235.724189 
L 474.794593 225.308103 
L 479.477985 216.672323 
L 483.492321 209.720618 
L 487.172128 203.78094 
L 490.517408 198.790621 
L 493.52816 194.670355 
L 496.538912 190.935532 
L 499.215136 187.966363 
L 501.891359 185.352409 
L 504.233055 183.376119 
L 506.574751 181.707962 
L 508.581919 180.536707 
L 510.589087 179.616172 
L 512.596254 178.95804 
L 514.268894 178.618672 
L 515.941534 178.476922 
L 517.614174 178.540014 
L 519.286814 178.815309 
L 520.959454 179.310302 
L 522.632094 180.032613 
L 524.304734 180.989983 
L 525.977373 182.190257 
L 527.650013 183.641379 
L 529.322653 185.35137 
L 531.329821 187.756455 
L 533.336989 190.560002 
L 535.344157 193.776086 
L 537.351325 197.418741 
L 539.358492 201.501887 
L 541.36566 206.039238 
L 543.707356 211.924752 
L 546.049052 218.467305 
L 548.390748 225.686447 
L 550.732444 233.600406 
L 553.074139 242.225757 
L 555.750363 252.972962 
L 558.426587 264.68608 
L 561.102811 277.377928 
L 564.113563 292.834418 
L 567.124314 309.537138 
L 570.135066 327.471781 
L 573.480346 348.806934 
L 576.825626 371.557742 
L 580.505433 398.09781 
L 584.519769 428.643411 
L 589.537689 468.657952 
L 601.580696 567.186344 
L 601.580696 567.186344 
" style="fill:none;stroke:#1f77b4;stroke-linecap:square;stroke-width:4;"/>
   </g>
   <g id="line2d_12">
    <path clip-path="url(#pfeca50fd11)" d="M 267.052721 567.186344 
L 269.57723 568.349656 
L 272.101739 569.260837 
L 274.626248 569.926222 
L 277.150758 570.352286 
L 279.675267 570.545632 
L 282.199776 570.51298 
L 284.724285 570.261164 
L 287.248794 569.797118 
L 289.773303 569.127874 
L 292.297812 568.260544 
L 295.453448 566.908789 
L 298.609085 565.272963 
L 301.764721 563.367405 
L 304.920358 561.206569 
L 308.075994 558.804999 
L 311.862758 555.625926 
L 315.649521 552.146571 
L 320.067412 547.741629 
L 324.485303 543.002687 
L 329.534321 537.22911 
L 335.214467 530.348621 
L 341.525739 522.322781 
L 349.099267 512.314847 
L 362.352939 494.344918 
L 373.71323 479.083908 
L 381.286758 469.268827 
L 387.59803 461.433692 
L 393.278176 454.718025 
L 398.327194 449.059266 
L 403.376212 443.727685 
L 407.794103 439.354864 
L 412.211994 435.274268 
L 416.629885 431.502565 
L 421.047776 428.054609 
L 424.834539 425.366813 
L 428.621303 422.933584 
L 432.408067 420.76103 
L 436.19483 418.854253 
L 439.981594 417.217343 
L 443.768358 415.853384 
L 447.555121 414.764452 
L 450.710758 414.067906 
L 453.866394 413.563214 
L 457.02203 413.249998 
L 460.177667 413.127412 
L 463.333303 413.194143 
L 466.488939 413.448423 
L 470.275703 413.997962 
L 474.062467 414.809667 
L 477.84923 415.877956 
L 481.635994 417.19637 
L 485.422758 418.757597 
L 489.209521 420.553497 
L 492.996285 422.575133 
L 497.414176 425.206021 
L 501.832067 428.114242 
L 506.249958 431.28183 
L 511.298976 435.194863 
L 516.347994 439.391138 
L 522.02814 444.410357 
L 528.339412 450.301126 
L 535.91294 457.711271 
L 545.379849 467.31606 
L 566.838176 489.214413 
L 574.411703 496.555641 
L 580.722976 502.363622 
L 586.403121 507.285685 
L 591.45214 511.375188 
L 596.501158 515.159928 
L 600.919049 518.195746 
L 605.33694 520.952271 
L 609.123703 523.077805 
L 612.910467 524.972112 
L 616.697231 526.624355 
L 620.483994 528.024506 
L 624.270758 529.163391 
L 628.057521 530.03274 
L 631.213158 530.545991 
L 634.368794 530.863253 
L 637.524431 530.98131 
L 640.680067 530.89746 
L 643.835703 530.609529 
L 646.99134 530.115889 
L 650.146976 529.415466 
L 653.302612 528.507762 
L 656.458249 527.39286 
L 659.613885 526.071442 
L 662.769521 524.544796 
L 666.556285 522.444645 
L 670.343049 520.056225 
L 674.129812 517.385337 
L 677.916576 514.439115 
L 681.70334 511.226039 
L 686.121231 507.153371 
L 690.539121 502.748879 
L 694.957012 498.033034 
L 700.006031 492.29184 
L 705.055049 486.212347 
L 710.735194 479.021551 
L 717.046467 470.673952 
L 725.251121 459.420604 
L 749.233958 426.218316 
L 754.914103 418.834662 
L 759.963122 412.599424 
L 764.381012 407.457966 
L 768.798903 402.662796 
L 772.585667 398.86667 
L 776.372431 395.394025 
L 779.528067 392.770087 
L 782.683703 390.410868 
L 785.83934 388.334232 
L 788.994976 386.557719 
L 791.519485 385.364136 
L 794.043994 384.382182 
L 796.568503 383.620203 
L 799.093012 383.086298 
L 801.617522 382.788291 
L 804.142031 382.733703 
L 806.66654 382.929718 
L 809.191049 383.383153 
L 811.715558 384.10043 
L 814.240067 385.087536 
L 816.764576 386.349994 
L 819.289085 387.892825 
L 821.813594 389.720511 
L 824.338103 391.836959 
L 826.862612 394.245464 
L 829.387122 396.948665 
L 831.911631 399.948506 
L 834.43614 403.246194 
L 837.591776 407.787727 
L 840.747412 412.794266 
L 843.903049 418.262668 
L 847.058685 424.187495 
L 850.214322 430.560859 
L 853.369958 437.372274 
L 857.156722 446.105343 
L 860.943485 455.421495 
L 864.730249 465.285765 
L 869.14814 477.430552 
L 874.197158 492.051299 
L 879.877303 509.272784 
L 886.819703 531.084877 
L 898.179994 567.186344 
L 898.179994 567.186344 
" style="fill:none;stroke:#ff7f0e;stroke-linecap:square;stroke-width:4;"/>
   </g>
   <g id="line2d_13">
    <path clip-path="url(#pfeca50fd11)" d="M 267.052721 567.186344 
L 267.992382 569.282299 
L 268.932043 570.714947 
L 269.558484 571.318378 
L 270.184924 571.651915 
L 270.811365 571.725106 
L 271.437805 571.547273 
L 272.064246 571.127515 
L 272.690687 570.474714 
L 273.630348 569.077465 
L 274.570008 567.203705 
L 275.509669 564.880784 
L 276.762551 561.130258 
L 278.015432 556.687732 
L 279.581533 550.247752 
L 281.460855 541.356531 
L 283.340177 531.355022 
L 285.532719 518.490407 
L 288.038481 502.486193 
L 291.170684 480.970559 
L 295.242548 451.287928 
L 302.446615 396.718059 
L 309.337462 345.177069 
L 314.035767 311.727195 
L 318.10763 284.357339 
L 321.866274 260.668878 
L 325.311697 240.417166 
L 328.4439 223.293723 
L 331.576103 207.441169 
L 334.395086 194.283362 
L 337.214069 182.187708 
L 339.719831 172.329937 
L 342.225594 163.31074 
L 344.731356 155.123513 
L 347.237119 147.758259 
L 349.429661 141.977764 
L 351.622203 136.806226 
L 353.814745 132.231775 
L 355.694067 128.776095 
L 357.573389 125.740434 
L 359.45271 123.115199 
L 361.332032 120.890245 
L 363.211354 119.054915 
L 364.777455 117.815078 
L 366.343557 116.831397 
L 367.909658 116.096981 
L 369.47576 115.604741 
L 371.041862 115.347402 
L 372.607963 115.317512 
L 374.174065 115.507449 
L 375.740166 115.909429 
L 377.306268 116.515512 
L 379.185589 117.500829 
L 381.064911 118.754157 
L 382.944233 120.260975 
L 385.136775 122.319573 
L 387.329317 124.679167 
L 389.83508 127.713198 
L 392.654062 131.512444 
L 395.786265 136.150416 
L 399.231689 141.672691 
L 403.303553 148.633736 
L 408.941518 158.752919 
L 419.591008 177.943946 
L 423.976093 185.332858 
L 427.421516 190.74062 
L 430.553719 195.274551 
L 433.372702 198.993059 
L 436.191684 202.327345 
L 438.697447 204.93946 
L 440.889989 206.934969 
L 443.082531 208.645787 
L 445.275073 210.060498 
L 447.154395 211.030204 
L 449.033717 211.770639 
L 450.913039 212.278252 
L 452.79236 212.550742 
L 454.671682 212.587111 
L 456.551004 212.387727 
L 458.430326 211.954373 
L 460.309648 211.2903 
L 462.188969 210.400278 
L 464.381512 209.084879 
L 466.574054 207.483441 
L 468.766596 205.611839 
L 471.272358 203.166561 
L 474.091341 200.065464 
L 477.223544 196.251128 
L 480.982188 191.285191 
L 487.246594 182.548488 
L 492.258118 175.727562 
L 495.390321 171.82755 
L 497.896084 169.038131 
L 500.088626 166.91208 
L 501.967948 165.37113 
L 503.84727 164.130669 
L 505.413371 163.354825 
L 506.979473 162.83792 
L 508.232354 162.626376 
L 509.485235 162.607228 
L 510.738116 162.79234 
L 511.990997 163.193531 
L 513.243879 163.822545 
L 514.49676 164.691016 
L 515.749641 165.810422 
L 517.002522 167.192054 
L 518.568624 169.304665 
L 520.134725 171.865226 
L 521.700827 174.893883 
L 523.266928 178.409808 
L 524.83303 182.431038 
L 526.712352 187.946972 
L 528.591673 194.240616 
L 530.470995 201.334478 
L 532.350317 209.247014 
L 534.542859 219.531249 
L 536.735401 230.961554 
L 538.927943 243.540185 
L 541.433706 259.308482 
L 543.939468 276.526223 
L 546.758451 297.548681 
L 549.890654 322.796854 
L 553.336077 352.55693 
L 557.407941 389.755162 
L 568.683872 494.093556 
L 571.189635 514.834541 
L 573.382177 531.297258 
L 575.261499 543.790401 
L 576.8276 552.816984 
L 578.080481 558.988131 
L 579.333362 564.107171 
L 580.273023 567.186344 
L 580.273023 567.186344 
" style="fill:none;stroke:#2ca02c;stroke-linecap:square;stroke-width:4;"/>
   </g>
   <g id="line2d_14">
    <path clip-path="url(#pfeca50fd11)" d="M 267.052721 567.186344 
L 269.572146 525.697772 
L 271.839628 491.945933 
L 274.107111 461.5412 
L 276.122651 437.252263 
L 278.13819 415.451302 
L 280.15373 396.035561 
L 282.16927 378.888137 
L 283.932868 365.644283 
L 285.696465 353.947542 
L 287.460062 343.702496 
L 289.22366 334.810941 
L 290.987257 327.172931 
L 292.498912 321.547423 
L 294.010567 316.705443 
L 295.522222 312.583971 
L 297.033877 309.120739 
L 298.545532 306.254536 
L 300.057186 303.925492 
L 301.316899 302.352851 
L 302.576611 301.079964 
L 303.836324 300.075022 
L 305.347979 299.179529 
L 306.859634 298.574554 
L 308.371288 298.211461 
L 310.134886 298.032232 
L 312.150426 298.066111 
L 314.921793 298.363778 
L 320.968413 299.093903 
L 323.235895 299.123635 
L 325.251435 298.948871 
L 327.266975 298.547635 
L 329.282515 297.893145 
L 331.046112 297.097971 
L 333.061652 295.924969 
L 335.077192 294.466507 
L 337.092731 292.725711 
L 339.360214 290.442262 
L 341.627696 287.837241 
L 344.147121 284.604961 
L 347.170431 280.33362 
L 350.949568 274.561506 
L 361.783095 257.721868 
L 364.554462 253.952367 
L 366.821945 251.201879 
L 368.837484 249.063925 
L 370.853024 247.258754 
L 372.616622 245.983525 
L 374.128277 245.136437 
L 375.639931 244.531877 
L 377.151586 244.183402 
L 378.411299 244.097618 
L 379.671011 244.204847 
L 380.930724 244.51101 
L 382.190436 245.021386 
L 383.450148 245.74059 
L 384.961803 246.884771 
L 386.473458 248.340735 
L 387.985113 250.112435 
L 389.496768 252.202294 
L 391.260365 255.043651 
L 393.023963 258.317842 
L 395.039503 262.584168 
L 397.055042 267.399089 
L 399.322525 273.451435 
L 401.590007 280.14736 
L 404.109432 288.295691 
L 406.880799 298.047096 
L 409.904109 309.514 
L 413.431304 323.793194 
L 417.966269 343.16788 
L 431.31922 400.933707 
L 434.846415 414.814098 
L 437.869725 425.782732 
L 440.38915 434.131604 
L 442.656632 440.947244 
L 444.924114 447.038246 
L 446.939654 451.801531 
L 448.703252 455.441306 
L 450.466849 458.570611 
L 451.978504 460.836889 
L 453.490159 462.713316 
L 455.001814 464.19687 
L 456.261526 465.132641 
L 457.521238 465.796359 
L 458.780951 466.1905 
L 460.040663 466.31891 
L 461.300376 466.186846 
L 462.560088 465.801008 
L 463.819801 465.169574 
L 465.079513 464.302225 
L 466.591168 462.965894 
L 468.102823 461.3284 
L 469.86642 459.07167 
L 471.88196 456.093081 
L 474.149442 452.327931 
L 477.172752 446.842589 
L 483.723257 434.778152 
L 485.990739 431.15068 
L 487.754336 428.740051 
L 489.265991 427.045217 
L 490.525704 425.945881 
L 491.533474 425.299935 
L 492.541244 424.884059 
L 493.549014 424.719335 
L 494.556783 424.8271 
L 495.564553 425.228903 
L 496.572323 425.946464 
L 497.580093 427.001622 
L 498.587863 428.416286 
L 499.595633 430.212382 
L 500.603403 432.411797 
L 501.863115 435.761413 
L 503.122828 439.817432 
L 504.38254 444.621446 
L 505.642253 450.214241 
L 507.153908 458.022678 
L 508.665562 467.090383 
L 510.177217 477.480341 
L 511.940815 491.351679 
L 513.704412 507.188645 
L 515.46801 525.066717 
L 517.231607 545.049394 
L 518.995204 567.186344 
L 518.995204 567.186344 
" style="fill:none;stroke:#d62728;stroke-linecap:square;stroke-width:4;"/>
   </g>
   <g id="line2d_15">
    <path clip-path="url(#pfeca50fd11)" d="M 180.659881 607.849091 
L 898.179994 607.849091 
" style="fill:none;stroke:#ff0000;stroke-dasharray:14.8,6.4;stroke-dashoffset:0;stroke-width:4;"/>
   </g>
   <g id="line2d_16">
    <path clip-path="url(#pfeca50fd11)" d="M 180.659881 53.630909 
L 898.179994 53.630909 
" style="fill:none;stroke:#ff0000;stroke-dasharray:14.8,6.4;stroke-dashoffset:0;stroke-width:4;"/>
   </g>
   <g id="patch_3">
    <path d="M 144.783875 635.56 
L 144.783875 25.92 
" style="fill:none;stroke:#000000;stroke-linecap:square;stroke-linejoin:miter;stroke-width:0.8;"/>
   </g>
   <g id="patch_4">
    <path d="M 934.056 635.56 
L 934.056 25.92 
" style="fill:none;stroke:#000000;stroke-linecap:square;stroke-linejoin:miter;stroke-width:0.8;"/>
   </g>
   <g id="patch_5">
    <path d="M 144.783875 635.56 
L 934.056 635.56 
" style="fill:none;stroke:#000000;stroke-linecap:square;stroke-linejoin:miter;stroke-width:0.8;"/>
   </g>
   <g id="patch_6">
    <path d="M 144.783875 25.92 
L 934.056 25.92 
" style="fill:none;stroke:#000000;stroke-linecap:square;stroke-linejoin:miter;stroke-width:0.8;"/>
   </g>
   <g id="legend_1">
    <g id="patch_7">
     <path d="M 731.72475 267.39 
L 917.256 267.39 
Q 922.056 267.39 922.056 262.59 
L 922.056 42.72 
Q 922.056 37.92 917.256 37.92 
L 731.72475 37.92 
Q 726.92475 37.92 726.92475 42.72 
L 726.92475 262.59 
Q 726.92475 267.39 731.72475 267.39 
z
" style="fill:#ffffff;opacity:0.8;stroke:#cccccc;stroke-linejoin:miter;"/>
    </g>
    <g id="line2d_17">
     <path d="M 736.52475 57.35625 
L 784.52475 57.35625 
" style="fill:none;stroke:#1f77b4;stroke-linecap:square;stroke-width:4;"/>
    </g>
    <g id="line2d_18"/>
    <g id="text_13">
     <!-- Vehicle 1 -->
     <defs>
      <path d="M 28.609375 0 
L 0.78125 72.90625 
L 11.078125 72.90625 
L 34.1875 11.53125 
L 57.328125 72.90625 
L 67.578125 72.90625 
L 39.796875 0 
z
" id="DejaVuSans-86"/>
      <path d="M 48.78125 52.59375 
L 48.78125 44.1875 
Q 44.96875 46.296875 41.140625 47.34375 
Q 37.3125 48.390625 33.40625 48.390625 
Q 24.65625 48.390625 19.8125 42.84375 
Q 14.984375 37.3125 14.984375 27.296875 
Q 14.984375 17.28125 19.8125 11.734375 
Q 24.65625 6.203125 33.40625 6.203125 
Q 37.3125 6.203125 41.140625 7.25 
Q 44.96875 8.296875 48.78125 10.40625 
L 48.78125 2.09375 
Q 45.015625 0.34375 40.984375 -0.53125 
Q 36.96875 -1.421875 32.421875 -1.421875 
Q 20.0625 -1.421875 12.78125 6.34375 
Q 5.515625 14.109375 5.515625 27.296875 
Q 5.515625 40.671875 12.859375 48.328125 
Q 20.21875 56 33.015625 56 
Q 37.15625 56 41.109375 55.140625 
Q 45.0625 54.296875 48.78125 52.59375 
z
" id="DejaVuSans-99"/>
      <path d="M 9.421875 75.984375 
L 18.40625 75.984375 
L 18.40625 0 
L 9.421875 0 
z
" id="DejaVuSans-108"/>
      <path d="M 12.40625 8.296875 
L 28.515625 8.296875 
L 28.515625 63.921875 
L 10.984375 60.40625 
L 10.984375 69.390625 
L 28.421875 72.90625 
L 38.28125 72.90625 
L 38.28125 8.296875 
L 54.390625 8.296875 
L 54.390625 0 
L 12.40625 0 
z
" id="DejaVuSans-49"/>
     </defs>
     <g transform="translate(803.72475 65.75625)scale(0.24 -0.24)">
      <use xlink:href="#DejaVuSans-86"/>
      <use x="60.658203" xlink:href="#DejaVuSans-101"/>
      <use x="122.181641" xlink:href="#DejaVuSans-104"/>
      <use x="185.560547" xlink:href="#DejaVuSans-105"/>
      <use x="213.34375" xlink:href="#DejaVuSans-99"/>
      <use x="268.324219" xlink:href="#DejaVuSans-108"/>
      <use x="296.107422" xlink:href="#DejaVuSans-101"/>
      <use x="357.630859" xlink:href="#DejaVuSans-32"/>
      <use x="389.417969" xlink:href="#DejaVuSans-49"/>
     </g>
    </g>
    <g id="line2d_19">
     <path d="M 736.52475 92.58375 
L 784.52475 92.58375 
" style="fill:none;stroke:#ff7f0e;stroke-linecap:square;stroke-width:4;"/>
    </g>
    <g id="line2d_20"/>
    <g id="text_14">
     <!-- Vehicle 2 -->
     <g transform="translate(803.72475 100.98375)scale(0.24 -0.24)">
      <use xlink:href="#DejaVuSans-86"/>
      <use x="60.658203" xlink:href="#DejaVuSans-101"/>
      <use x="122.181641" xlink:href="#DejaVuSans-104"/>
      <use x="185.560547" xlink:href="#DejaVuSans-105"/>
      <use x="213.34375" xlink:href="#DejaVuSans-99"/>
      <use x="268.324219" xlink:href="#DejaVuSans-108"/>
      <use x="296.107422" xlink:href="#DejaVuSans-101"/>
      <use x="357.630859" xlink:href="#DejaVuSans-32"/>
      <use x="389.417969" xlink:href="#DejaVuSans-50"/>
     </g>
    </g>
    <g id="line2d_21">
     <path d="M 736.52475 127.81125 
L 784.52475 127.81125 
" style="fill:none;stroke:#2ca02c;stroke-linecap:square;stroke-width:4;"/>
    </g>
    <g id="line2d_22"/>
    <g id="text_15">
     <!-- Vehicle 3 -->
     <defs>
      <path d="M 40.578125 39.3125 
Q 47.65625 37.796875 51.625 33 
Q 55.609375 28.21875 55.609375 21.1875 
Q 55.609375 10.40625 48.1875 4.484375 
Q 40.765625 -1.421875 27.09375 -1.421875 
Q 22.515625 -1.421875 17.65625 -0.515625 
Q 12.796875 0.390625 7.625 2.203125 
L 7.625 11.71875 
Q 11.71875 9.328125 16.59375 8.109375 
Q 21.484375 6.890625 26.8125 6.890625 
Q 36.078125 6.890625 40.9375 10.546875 
Q 45.796875 14.203125 45.796875 21.1875 
Q 45.796875 27.640625 41.28125 31.265625 
Q 36.765625 34.90625 28.71875 34.90625 
L 20.21875 34.90625 
L 20.21875 43.015625 
L 29.109375 43.015625 
Q 36.375 43.015625 40.234375 45.921875 
Q 44.09375 48.828125 44.09375 54.296875 
Q 44.09375 59.90625 40.109375 62.90625 
Q 36.140625 65.921875 28.71875 65.921875 
Q 24.65625 65.921875 20.015625 65.03125 
Q 15.375 64.15625 9.8125 62.3125 
L 9.8125 71.09375 
Q 15.4375 72.65625 20.34375 73.4375 
Q 25.25 74.21875 29.59375 74.21875 
Q 40.828125 74.21875 47.359375 69.109375 
Q 53.90625 64.015625 53.90625 55.328125 
Q 53.90625 49.265625 50.4375 45.09375 
Q 46.96875 40.921875 40.578125 39.3125 
z
" id="DejaVuSans-51"/>
     </defs>
     <g transform="translate(803.72475 136.21125)scale(0.24 -0.24)">
      <use xlink:href="#DejaVuSans-86"/>
      <use x="60.658203" xlink:href="#DejaVuSans-101"/>
      <use x="122.181641" xlink:href="#DejaVuSans-104"/>
      <use x="185.560547" xlink:href="#DejaVuSans-105"/>
      <use x="213.34375" xlink:href="#DejaVuSans-99"/>
      <use x="268.324219" xlink:href="#DejaVuSans-108"/>
      <use x="296.107422" xlink:href="#DejaVuSans-101"/>
      <use x="357.630859" xlink:href="#DejaVuSans-32"/>
      <use x="389.417969" xlink:href="#DejaVuSans-51"/>
     </g>
    </g>
    <g id="line2d_23">
     <path d="M 736.52475 163.03875 
L 784.52475 163.03875 
" style="fill:none;stroke:#d62728;stroke-linecap:square;stroke-width:4;"/>
    </g>
    <g id="line2d_24"/>
    <g id="text_16">
     <!-- Vehicle 4 -->
     <g transform="translate(803.72475 171.43875)scale(0.24 -0.24)">
      <use xlink:href="#DejaVuSans-86"/>
      <use x="60.658203" xlink:href="#DejaVuSans-101"/>
      <use x="122.181641" xlink:href="#DejaVuSans-104"/>
      <use x="185.560547" xlink:href="#DejaVuSans-105"/>
      <use x="213.34375" xlink:href="#DejaVuSans-99"/>
      <use x="268.324219" xlink:href="#DejaVuSans-108"/>
      <use x="296.107422" xlink:href="#DejaVuSans-101"/>
      <use x="357.630859" xlink:href="#DejaVuSans-32"/>
      <use x="389.417969" xlink:href="#DejaVuSans-52"/>
     </g>
    </g>
    <g id="line2d_25">
     <path d="M 736.52475 201.87 
L 784.52475 201.87 
" style="fill:none;stroke:#ff0000;stroke-dasharray:14.8,6.4;stroke-dashoffset:0;stroke-width:4;"/>
    </g>
    <g id="line2d_26"/>
    <g id="text_17">
     <!-- $v^2_{min}$ -->
     <defs>
      <path d="M 7.171875 54.6875 
L 16.703125 54.6875 
L 24.703125 8.203125 
L 50.875 54.6875 
L 60.40625 54.6875 
L 29.296875 0 
L 17.1875 0 
z
" id="DejaVuSans-Oblique-118"/>
      <path d="M 18.3125 75.984375 
L 27.296875 75.984375 
L 25.09375 64.59375 
L 16.109375 64.59375 
z
M 14.203125 54.6875 
L 23.1875 54.6875 
L 12.5 0 
L 3.515625 0 
z
" id="DejaVuSans-Oblique-105"/>
      <path d="M 55.71875 33.015625 
L 49.3125 0 
L 40.28125 0 
L 46.6875 32.671875 
Q 47.125 34.96875 47.359375 36.71875 
Q 47.609375 38.484375 47.609375 39.5 
Q 47.609375 43.609375 45.015625 45.890625 
Q 42.4375 48.1875 37.796875 48.1875 
Q 30.5625 48.1875 25.34375 43.375 
Q 20.125 38.578125 18.5 30.328125 
L 12.5 0 
L 3.515625 0 
L 14.109375 54.6875 
L 23.09375 54.6875 
L 21.296875 46.09375 
Q 25.046875 50.828125 30.3125 53.40625 
Q 35.59375 56 41.40625 56 
Q 48.640625 56 52.609375 52.09375 
Q 56.59375 48.1875 56.59375 41.109375 
Q 56.59375 39.359375 56.375 37.359375 
Q 56.15625 35.359375 55.71875 33.015625 
z
" id="DejaVuSans-Oblique-110"/>
     </defs>
     <g transform="translate(803.72475 210.27)scale(0.24 -0.24)">
      <use transform="translate(0 0.701562)" xlink:href="#DejaVuSans-Oblique-118"/>
      <use transform="translate(63.645833 39.046875)scale(0.7)" xlink:href="#DejaVuSans-50"/>
      <use transform="translate(59.179688 -26.642188)scale(0.7)" xlink:href="#DejaVuSans-Oblique-109"/>
      <use transform="translate(127.368164 -26.642188)scale(0.7)" xlink:href="#DejaVuSans-Oblique-105"/>
      <use transform="translate(146.816406 -26.642188)scale(0.7)" xlink:href="#DejaVuSans-Oblique-110"/>
     </g>
    </g>
    <g id="line2d_27">
     <path d="M 736.52475 242.43 
L 784.52475 242.43 
" style="fill:none;stroke:#ff0000;stroke-dasharray:14.8,6.4;stroke-dashoffset:0;stroke-width:4;"/>
    </g>
    <g id="line2d_28"/>
    <g id="text_18">
     <!-- $v^2_{max}$ -->
     <defs>
      <path d="M 53.71875 31.203125 
L 47.609375 0 
L 38.625 0 
L 40.28125 8.296875 
Q 36.328125 3.421875 31.265625 1 
Q 26.21875 -1.421875 20.015625 -1.421875 
Q 13.03125 -1.421875 8.5625 2.84375 
Q 4.109375 7.125 4.109375 13.8125 
Q 4.109375 23.390625 11.75 28.953125 
Q 19.390625 34.515625 32.8125 34.515625 
L 45.3125 34.515625 
L 45.796875 36.921875 
Q 45.90625 37.3125 45.953125 37.765625 
Q 46 38.234375 46 39.203125 
Q 46 43.5625 42.453125 45.96875 
Q 38.921875 48.390625 32.515625 48.390625 
Q 28.125 48.390625 23.5 47.265625 
Q 18.890625 46.140625 14.015625 43.890625 
L 15.578125 52.203125 
Q 20.65625 54.109375 25.515625 55.046875 
Q 30.375 56 34.90625 56 
Q 44.578125 56 49.625 51.796875 
Q 54.6875 47.609375 54.6875 39.59375 
Q 54.6875 37.984375 54.4375 35.8125 
Q 54.203125 33.640625 53.71875 31.203125 
z
M 44 27.484375 
L 35.015625 27.484375 
Q 23.96875 27.484375 18.671875 24.53125 
Q 13.375 21.578125 13.375 15.375 
Q 13.375 11.078125 16.078125 8.640625 
Q 18.796875 6.203125 23.578125 6.203125 
Q 30.90625 6.203125 36.375 11.453125 
Q 41.84375 16.703125 43.609375 25.484375 
z
" id="DejaVuSans-Oblique-97"/>
      <path d="M 60.015625 54.6875 
L 34.90625 27.875 
L 50.296875 0 
L 39.984375 0 
L 28.421875 21.6875 
L 8.296875 0 
L -2.59375 0 
L 24.3125 28.8125 
L 10.015625 54.6875 
L 20.3125 54.6875 
L 30.8125 34.90625 
L 49.125 54.6875 
z
" id="DejaVuSans-Oblique-120"/>
     </defs>
     <g transform="translate(803.72475 250.83)scale(0.24 -0.24)">
      <use transform="translate(0 0.765625)" xlink:href="#DejaVuSans-Oblique-118"/>
      <use transform="translate(63.645833 39.046875)scale(0.7)" xlink:href="#DejaVuSans-50"/>
      <use transform="translate(59.179688 -26.578125)scale(0.7)" xlink:href="#DejaVuSans-Oblique-109"/>
      <use transform="translate(127.368164 -26.578125)scale(0.7)" xlink:href="#DejaVuSans-Oblique-97"/>
      <use transform="translate(170.263672 -26.578125)scale(0.7)" xlink:href="#DejaVuSans-Oblique-120"/>
     </g>
    </g>
   </g>
  </g>
 </g>
 <defs>
  <clipPath id="pfeca50fd11">
   <rect height="609.64" width="789.272125" x="144.783875" y="25.92"/>
  </clipPath>
 </defs>
</svg>
