<?xml version="1.0" encoding="utf-8" standalone="no"?>
<!DOCTYPE svg PUBLIC "-//W3C//DTD SVG 1.1//EN"
  "http://www.w3.org/Graphics/SVG/1.1/DTD/svg11.dtd">
<!-- Created with matplotlib (https://matplotlib.org/) -->
<svg height="720pt" version="1.1" viewBox="0 0 959.976 720" width="959.976pt" xmlns="http://www.w3.org/2000/svg" xmlns:xlink="http://www.w3.org/1999/xlink">
 <metadata>
  <rdf:RDF xmlns:cc="http://creativecommons.org/ns#" xmlns:dc="http://purl.org/dc/elements/1.1/" xmlns:rdf="http://www.w3.org/1999/02/22-rdf-syntax-ns#">
   <cc:Work>
    <dc:type rdf:resource="http://purl.org/dc/dcmitype/StillImage"/>
    <dc:date>2020-08-31T20:20:02.742375</dc:date>
    <dc:format>image/svg+xml</dc:format>
    <dc:creator>
     <cc:Agent>
      <dc:title>Matplotlib v3.3.1, https://matplotlib.org/</dc:title>
     </cc:Agent>
    </dc:creator>
   </cc:Work>
  </rdf:RDF>
 </metadata>
 <defs>
  <style type="text/css">*{stroke-linecap:butt;stroke-linejoin:round;}</style>
 </defs>
 <g id="figure_1">
  <g id="patch_1">
   <path d="M 0 720 
L 959.976 720 
L 959.976 0 
L 0 0 
z
" style="fill:#ffffff;"/>
  </g>
  <g id="axes_1">
   <g id="patch_2">
    <path d="M 163.22675 588.04 
L 916.776 588.04 
L 916.776 43.2 
L 163.22675 43.2 
z
" style="fill:#ffffff;"/>
   </g>
   <g id="matplotlib.axis_1">
    <g id="xtick_1">
     <g id="line2d_1">
      <defs>
       <path d="M 0 0 
L 0 3.5 
" id="madd2fd30b6" style="stroke:#000000;stroke-width:0.8;"/>
      </defs>
      <g>
       <use style="stroke:#000000;stroke-width:0.8;" x="197.478989" xlink:href="#madd2fd30b6" y="588.04"/>
      </g>
     </g>
     <g id="text_1">
      <!-- 10 -->
      <g transform="translate(172.028989 625.43375)scale(0.4 -0.4)">
       <defs>
        <path d="M 12.40625 8.296875 
L 28.515625 8.296875 
L 28.515625 63.921875 
L 10.984375 60.40625 
L 10.984375 69.390625 
L 28.421875 72.90625 
L 38.28125 72.90625 
L 38.28125 8.296875 
L 54.390625 8.296875 
L 54.390625 0 
L 12.40625 0 
z
" id="DejaVuSans-49"/>
        <path d="M 31.78125 66.40625 
Q 24.171875 66.40625 20.328125 58.90625 
Q 16.5 51.421875 16.5 36.375 
Q 16.5 21.390625 20.328125 13.890625 
Q 24.171875 6.390625 31.78125 6.390625 
Q 39.453125 6.390625 43.28125 13.890625 
Q 47.125 21.390625 47.125 36.375 
Q 47.125 51.421875 43.28125 58.90625 
Q 39.453125 66.40625 31.78125 66.40625 
z
M 31.78125 74.21875 
Q 44.046875 74.21875 50.515625 64.515625 
Q 56.984375 54.828125 56.984375 36.375 
Q 56.984375 17.96875 50.515625 8.265625 
Q 44.046875 -1.421875 31.78125 -1.421875 
Q 19.53125 -1.421875 13.0625 8.265625 
Q 6.59375 17.96875 6.59375 36.375 
Q 6.59375 54.828125 13.0625 64.515625 
Q 19.53125 74.21875 31.78125 74.21875 
z
" id="DejaVuSans-48"/>
       </defs>
       <use xlink:href="#DejaVuSans-49"/>
       <use x="63.623047" xlink:href="#DejaVuSans-48"/>
      </g>
     </g>
    </g>
    <g id="xtick_2">
     <g id="line2d_2">
      <g>
       <use style="stroke:#000000;stroke-width:0.8;" x="334.487943" xlink:href="#madd2fd30b6" y="588.04"/>
      </g>
     </g>
     <g id="text_2">
      <!-- 12 -->
      <g transform="translate(309.037943 625.43375)scale(0.4 -0.4)">
       <defs>
        <path d="M 19.1875 8.296875 
L 53.609375 8.296875 
L 53.609375 0 
L 7.328125 0 
L 7.328125 8.296875 
Q 12.9375 14.109375 22.625 23.890625 
Q 32.328125 33.6875 34.8125 36.53125 
Q 39.546875 41.84375 41.421875 45.53125 
Q 43.3125 49.21875 43.3125 52.78125 
Q 43.3125 58.59375 39.234375 62.25 
Q 35.15625 65.921875 28.609375 65.921875 
Q 23.96875 65.921875 18.8125 64.3125 
Q 13.671875 62.703125 7.8125 59.421875 
L 7.8125 69.390625 
Q 13.765625 71.78125 18.9375 73 
Q 24.125 74.21875 28.421875 74.21875 
Q 39.75 74.21875 46.484375 68.546875 
Q 53.21875 62.890625 53.21875 53.421875 
Q 53.21875 48.921875 51.53125 44.890625 
Q 49.859375 40.875 45.40625 35.40625 
Q 44.1875 33.984375 37.640625 27.21875 
Q 31.109375 20.453125 19.1875 8.296875 
z
" id="DejaVuSans-50"/>
       </defs>
       <use xlink:href="#DejaVuSans-49"/>
       <use x="63.623047" xlink:href="#DejaVuSans-50"/>
      </g>
     </g>
    </g>
    <g id="xtick_3">
     <g id="line2d_3">
      <g>
       <use style="stroke:#000000;stroke-width:0.8;" x="471.496898" xlink:href="#madd2fd30b6" y="588.04"/>
      </g>
     </g>
     <g id="text_3">
      <!-- 14 -->
      <g transform="translate(446.046898 625.43375)scale(0.4 -0.4)">
       <defs>
        <path d="M 37.796875 64.3125 
L 12.890625 25.390625 
L 37.796875 25.390625 
z
M 35.203125 72.90625 
L 47.609375 72.90625 
L 47.609375 25.390625 
L 58.015625 25.390625 
L 58.015625 17.1875 
L 47.609375 17.1875 
L 47.609375 0 
L 37.796875 0 
L 37.796875 17.1875 
L 4.890625 17.1875 
L 4.890625 26.703125 
z
" id="DejaVuSans-52"/>
       </defs>
       <use xlink:href="#DejaVuSans-49"/>
       <use x="63.623047" xlink:href="#DejaVuSans-52"/>
      </g>
     </g>
    </g>
    <g id="xtick_4">
     <g id="line2d_4">
      <g>
       <use style="stroke:#000000;stroke-width:0.8;" x="608.505852" xlink:href="#madd2fd30b6" y="588.04"/>
      </g>
     </g>
     <g id="text_4">
      <!-- 16 -->
      <g transform="translate(583.055852 625.43375)scale(0.4 -0.4)">
       <defs>
        <path d="M 33.015625 40.375 
Q 26.375 40.375 22.484375 35.828125 
Q 18.609375 31.296875 18.609375 23.390625 
Q 18.609375 15.53125 22.484375 10.953125 
Q 26.375 6.390625 33.015625 6.390625 
Q 39.65625 6.390625 43.53125 10.953125 
Q 47.40625 15.53125 47.40625 23.390625 
Q 47.40625 31.296875 43.53125 35.828125 
Q 39.65625 40.375 33.015625 40.375 
z
M 52.59375 71.296875 
L 52.59375 62.3125 
Q 48.875 64.0625 45.09375 64.984375 
Q 41.3125 65.921875 37.59375 65.921875 
Q 27.828125 65.921875 22.671875 59.328125 
Q 17.53125 52.734375 16.796875 39.40625 
Q 19.671875 43.65625 24.015625 45.921875 
Q 28.375 48.1875 33.59375 48.1875 
Q 44.578125 48.1875 50.953125 41.515625 
Q 57.328125 34.859375 57.328125 23.390625 
Q 57.328125 12.15625 50.6875 5.359375 
Q 44.046875 -1.421875 33.015625 -1.421875 
Q 20.359375 -1.421875 13.671875 8.265625 
Q 6.984375 17.96875 6.984375 36.375 
Q 6.984375 53.65625 15.1875 63.9375 
Q 23.390625 74.21875 37.203125 74.21875 
Q 40.921875 74.21875 44.703125 73.484375 
Q 48.484375 72.75 52.59375 71.296875 
z
" id="DejaVuSans-54"/>
       </defs>
       <use xlink:href="#DejaVuSans-49"/>
       <use x="63.623047" xlink:href="#DejaVuSans-54"/>
      </g>
     </g>
    </g>
    <g id="xtick_5">
     <g id="line2d_5">
      <g>
       <use style="stroke:#000000;stroke-width:0.8;" x="745.514807" xlink:href="#madd2fd30b6" y="588.04"/>
      </g>
     </g>
     <g id="text_5">
      <!-- 18 -->
      <g transform="translate(720.064807 625.43375)scale(0.4 -0.4)">
       <defs>
        <path d="M 31.78125 34.625 
Q 24.75 34.625 20.71875 30.859375 
Q 16.703125 27.09375 16.703125 20.515625 
Q 16.703125 13.921875 20.71875 10.15625 
Q 24.75 6.390625 31.78125 6.390625 
Q 38.8125 6.390625 42.859375 10.171875 
Q 46.921875 13.96875 46.921875 20.515625 
Q 46.921875 27.09375 42.890625 30.859375 
Q 38.875 34.625 31.78125 34.625 
z
M 21.921875 38.8125 
Q 15.578125 40.375 12.03125 44.71875 
Q 8.5 49.078125 8.5 55.328125 
Q 8.5 64.0625 14.71875 69.140625 
Q 20.953125 74.21875 31.78125 74.21875 
Q 42.671875 74.21875 48.875 69.140625 
Q 55.078125 64.0625 55.078125 55.328125 
Q 55.078125 49.078125 51.53125 44.71875 
Q 48 40.375 41.703125 38.8125 
Q 48.828125 37.15625 52.796875 32.3125 
Q 56.78125 27.484375 56.78125 20.515625 
Q 56.78125 9.90625 50.3125 4.234375 
Q 43.84375 -1.421875 31.78125 -1.421875 
Q 19.734375 -1.421875 13.25 4.234375 
Q 6.78125 9.90625 6.78125 20.515625 
Q 6.78125 27.484375 10.78125 32.3125 
Q 14.796875 37.15625 21.921875 38.8125 
z
M 18.3125 54.390625 
Q 18.3125 48.734375 21.84375 45.5625 
Q 25.390625 42.390625 31.78125 42.390625 
Q 38.140625 42.390625 41.71875 45.5625 
Q 45.3125 48.734375 45.3125 54.390625 
Q 45.3125 60.0625 41.71875 63.234375 
Q 38.140625 66.40625 31.78125 66.40625 
Q 25.390625 66.40625 21.84375 63.234375 
Q 18.3125 60.0625 18.3125 54.390625 
z
" id="DejaVuSans-56"/>
       </defs>
       <use xlink:href="#DejaVuSans-49"/>
       <use x="63.623047" xlink:href="#DejaVuSans-56"/>
      </g>
     </g>
    </g>
    <g id="xtick_6">
     <g id="line2d_6">
      <g>
       <use style="stroke:#000000;stroke-width:0.8;" x="882.523761" xlink:href="#madd2fd30b6" y="588.04"/>
      </g>
     </g>
     <g id="text_6">
      <!-- 20 -->
      <g transform="translate(857.073761 625.43375)scale(0.4 -0.4)">
       <use xlink:href="#DejaVuSans-50"/>
       <use x="63.623047" xlink:href="#DejaVuSans-48"/>
      </g>
     </g>
    </g>
    <g id="text_7">
     <!-- Time (s) -->
     <g transform="translate(458.68575 668.14625)scale(0.4 -0.4)">
      <defs>
       <path d="M -0.296875 72.90625 
L 61.375 72.90625 
L 61.375 64.59375 
L 35.5 64.59375 
L 35.5 0 
L 25.59375 0 
L 25.59375 64.59375 
L -0.296875 64.59375 
z
" id="DejaVuSans-84"/>
       <path d="M 9.421875 54.6875 
L 18.40625 54.6875 
L 18.40625 0 
L 9.421875 0 
z
M 9.421875 75.984375 
L 18.40625 75.984375 
L 18.40625 64.59375 
L 9.421875 64.59375 
z
" id="DejaVuSans-105"/>
       <path d="M 52 44.1875 
Q 55.375 50.25 60.0625 53.125 
Q 64.75 56 71.09375 56 
Q 79.640625 56 84.28125 50.015625 
Q 88.921875 44.046875 88.921875 33.015625 
L 88.921875 0 
L 79.890625 0 
L 79.890625 32.71875 
Q 79.890625 40.578125 77.09375 44.375 
Q 74.3125 48.1875 68.609375 48.1875 
Q 61.625 48.1875 57.5625 43.546875 
Q 53.515625 38.921875 53.515625 30.90625 
L 53.515625 0 
L 44.484375 0 
L 44.484375 32.71875 
Q 44.484375 40.625 41.703125 44.40625 
Q 38.921875 48.1875 33.109375 48.1875 
Q 26.21875 48.1875 22.15625 43.53125 
Q 18.109375 38.875 18.109375 30.90625 
L 18.109375 0 
L 9.078125 0 
L 9.078125 54.6875 
L 18.109375 54.6875 
L 18.109375 46.1875 
Q 21.1875 51.21875 25.484375 53.609375 
Q 29.78125 56 35.6875 56 
Q 41.65625 56 45.828125 52.96875 
Q 50 49.953125 52 44.1875 
z
" id="DejaVuSans-109"/>
       <path d="M 56.203125 29.59375 
L 56.203125 25.203125 
L 14.890625 25.203125 
Q 15.484375 15.921875 20.484375 11.0625 
Q 25.484375 6.203125 34.421875 6.203125 
Q 39.59375 6.203125 44.453125 7.46875 
Q 49.3125 8.734375 54.109375 11.28125 
L 54.109375 2.78125 
Q 49.265625 0.734375 44.1875 -0.34375 
Q 39.109375 -1.421875 33.890625 -1.421875 
Q 20.796875 -1.421875 13.15625 6.1875 
Q 5.515625 13.8125 5.515625 26.8125 
Q 5.515625 40.234375 12.765625 48.109375 
Q 20.015625 56 32.328125 56 
Q 43.359375 56 49.78125 48.890625 
Q 56.203125 41.796875 56.203125 29.59375 
z
M 47.21875 32.234375 
Q 47.125 39.59375 43.09375 43.984375 
Q 39.0625 48.390625 32.421875 48.390625 
Q 24.90625 48.390625 20.390625 44.140625 
Q 15.875 39.890625 15.1875 32.171875 
z
" id="DejaVuSans-101"/>
       <path id="DejaVuSans-32"/>
       <path d="M 31 75.875 
Q 24.46875 64.65625 21.28125 53.65625 
Q 18.109375 42.671875 18.109375 31.390625 
Q 18.109375 20.125 21.3125 9.0625 
Q 24.515625 -2 31 -13.1875 
L 23.1875 -13.1875 
Q 15.875 -1.703125 12.234375 9.375 
Q 8.59375 20.453125 8.59375 31.390625 
Q 8.59375 42.28125 12.203125 53.3125 
Q 15.828125 64.359375 23.1875 75.875 
z
" id="DejaVuSans-40"/>
       <path d="M 44.28125 53.078125 
L 44.28125 44.578125 
Q 40.484375 46.53125 36.375 47.5 
Q 32.28125 48.484375 27.875 48.484375 
Q 21.1875 48.484375 17.84375 46.4375 
Q 14.5 44.390625 14.5 40.28125 
Q 14.5 37.15625 16.890625 35.375 
Q 19.28125 33.59375 26.515625 31.984375 
L 29.59375 31.296875 
Q 39.15625 29.25 43.1875 25.515625 
Q 47.21875 21.78125 47.21875 15.09375 
Q 47.21875 7.46875 41.1875 3.015625 
Q 35.15625 -1.421875 24.609375 -1.421875 
Q 20.21875 -1.421875 15.453125 -0.5625 
Q 10.6875 0.296875 5.421875 2 
L 5.421875 11.28125 
Q 10.40625 8.6875 15.234375 7.390625 
Q 20.0625 6.109375 24.8125 6.109375 
Q 31.15625 6.109375 34.5625 8.28125 
Q 37.984375 10.453125 37.984375 14.40625 
Q 37.984375 18.0625 35.515625 20.015625 
Q 33.0625 21.96875 24.703125 23.78125 
L 21.578125 24.515625 
Q 13.234375 26.265625 9.515625 29.90625 
Q 5.8125 33.546875 5.8125 39.890625 
Q 5.8125 47.609375 11.28125 51.796875 
Q 16.75 56 26.8125 56 
Q 31.78125 56 36.171875 55.265625 
Q 40.578125 54.546875 44.28125 53.078125 
z
" id="DejaVuSans-115"/>
       <path d="M 8.015625 75.875 
L 15.828125 75.875 
Q 23.140625 64.359375 26.78125 53.3125 
Q 30.421875 42.28125 30.421875 31.390625 
Q 30.421875 20.453125 26.78125 9.375 
Q 23.140625 -1.703125 15.828125 -13.1875 
L 8.015625 -13.1875 
Q 14.5 -2 17.703125 9.0625 
Q 20.90625 20.125 20.90625 31.390625 
Q 20.90625 42.671875 17.703125 53.65625 
Q 14.5 64.65625 8.015625 75.875 
z
" id="DejaVuSans-41"/>
      </defs>
      <use xlink:href="#DejaVuSans-84"/>
      <use x="57.958984" xlink:href="#DejaVuSans-105"/>
      <use x="85.742188" xlink:href="#DejaVuSans-109"/>
      <use x="183.154297" xlink:href="#DejaVuSans-101"/>
      <use x="244.677734" xlink:href="#DejaVuSans-32"/>
      <use x="276.464844" xlink:href="#DejaVuSans-40"/>
      <use x="315.478516" xlink:href="#DejaVuSans-115"/>
      <use x="367.578125" xlink:href="#DejaVuSans-41"/>
     </g>
    </g>
   </g>
   <g id="matplotlib.axis_2">
    <g id="ytick_1">
     <g id="line2d_7">
      <defs>
       <path d="M 0 0 
L -3.5 0 
" id="m3de9431408" style="stroke:#000000;stroke-width:0.8;"/>
      </defs>
      <g>
       <use style="stroke:#000000;stroke-width:0.8;" x="163.22675" xlink:href="#m3de9431408" y="544.512837"/>
      </g>
     </g>
     <g id="text_8">
      <!-- −5 -->
      <g transform="translate(97.258 559.709712)scale(0.4 -0.4)">
       <defs>
        <path d="M 10.59375 35.5 
L 73.1875 35.5 
L 73.1875 27.203125 
L 10.59375 27.203125 
z
" id="DejaVuSans-8722"/>
        <path d="M 10.796875 72.90625 
L 49.515625 72.90625 
L 49.515625 64.59375 
L 19.828125 64.59375 
L 19.828125 46.734375 
Q 21.96875 47.46875 24.109375 47.828125 
Q 26.265625 48.1875 28.421875 48.1875 
Q 40.625 48.1875 47.75 41.5 
Q 54.890625 34.8125 54.890625 23.390625 
Q 54.890625 11.625 47.5625 5.09375 
Q 40.234375 -1.421875 26.90625 -1.421875 
Q 22.3125 -1.421875 17.546875 -0.640625 
Q 12.796875 0.140625 7.71875 1.703125 
L 7.71875 11.625 
Q 12.109375 9.234375 16.796875 8.0625 
Q 21.484375 6.890625 26.703125 6.890625 
Q 35.15625 6.890625 40.078125 11.328125 
Q 45.015625 15.765625 45.015625 23.390625 
Q 45.015625 31 40.078125 35.4375 
Q 35.15625 39.890625 26.703125 39.890625 
Q 22.75 39.890625 18.8125 39.015625 
Q 14.890625 38.140625 10.796875 36.28125 
z
" id="DejaVuSans-53"/>
       </defs>
       <use xlink:href="#DejaVuSans-8722"/>
       <use x="83.789062" xlink:href="#DejaVuSans-53"/>
      </g>
     </g>
    </g>
    <g id="ytick_2">
     <g id="line2d_8">
      <g>
       <use style="stroke:#000000;stroke-width:0.8;" x="163.22675" xlink:href="#m3de9431408" y="394.419174"/>
      </g>
     </g>
     <g id="text_9">
      <!-- 0 -->
      <g transform="translate(130.77675 409.616049)scale(0.4 -0.4)">
       <use xlink:href="#DejaVuSans-48"/>
      </g>
     </g>
    </g>
    <g id="ytick_3">
     <g id="line2d_9">
      <g>
       <use style="stroke:#000000;stroke-width:0.8;" x="163.22675" xlink:href="#m3de9431408" y="244.32551"/>
      </g>
     </g>
     <g id="text_10">
      <!-- 5 -->
      <g transform="translate(130.77675 259.522385)scale(0.4 -0.4)">
       <use xlink:href="#DejaVuSans-53"/>
      </g>
     </g>
    </g>
    <g id="ytick_4">
     <g id="line2d_10">
      <g>
       <use style="stroke:#000000;stroke-width:0.8;" x="163.22675" xlink:href="#m3de9431408" y="94.231846"/>
      </g>
     </g>
     <g id="text_11">
      <!-- 10 -->
      <g transform="translate(105.32675 109.428721)scale(0.4 -0.4)">
       <use xlink:href="#DejaVuSans-49"/>
       <use x="63.623047" xlink:href="#DejaVuSans-48"/>
      </g>
     </g>
    </g>
    <g id="text_12">
     <!-- Squared Speed $\left( \frac{m}{s} \right)^2$ -->
     <g transform="translate(82.058 517.22)rotate(-90)scale(0.4 -0.4)">
      <defs>
       <path d="M 53.515625 70.515625 
L 53.515625 60.890625 
Q 47.90625 63.578125 42.921875 64.890625 
Q 37.9375 66.21875 33.296875 66.21875 
Q 25.25 66.21875 20.875 63.09375 
Q 16.5 59.96875 16.5 54.203125 
Q 16.5 49.359375 19.40625 46.890625 
Q 22.3125 44.4375 30.421875 42.921875 
L 36.375 41.703125 
Q 47.40625 39.59375 52.65625 34.296875 
Q 57.90625 29 57.90625 20.125 
Q 57.90625 9.515625 50.796875 4.046875 
Q 43.703125 -1.421875 29.984375 -1.421875 
Q 24.8125 -1.421875 18.96875 -0.25 
Q 13.140625 0.921875 6.890625 3.21875 
L 6.890625 13.375 
Q 12.890625 10.015625 18.65625 8.296875 
Q 24.421875 6.59375 29.984375 6.59375 
Q 38.421875 6.59375 43.015625 9.90625 
Q 47.609375 13.234375 47.609375 19.390625 
Q 47.609375 24.75 44.3125 27.78125 
Q 41.015625 30.8125 33.5 32.328125 
L 27.484375 33.5 
Q 16.453125 35.6875 11.515625 40.375 
Q 6.59375 45.0625 6.59375 53.421875 
Q 6.59375 63.09375 13.40625 68.65625 
Q 20.21875 74.21875 32.171875 74.21875 
Q 37.3125 74.21875 42.625 73.28125 
Q 47.953125 72.359375 53.515625 70.515625 
z
" id="DejaVuSans-83"/>
       <path d="M 14.796875 27.296875 
Q 14.796875 17.390625 18.875 11.75 
Q 22.953125 6.109375 30.078125 6.109375 
Q 37.203125 6.109375 41.296875 11.75 
Q 45.40625 17.390625 45.40625 27.296875 
Q 45.40625 37.203125 41.296875 42.84375 
Q 37.203125 48.484375 30.078125 48.484375 
Q 22.953125 48.484375 18.875 42.84375 
Q 14.796875 37.203125 14.796875 27.296875 
z
M 45.40625 8.203125 
Q 42.578125 3.328125 38.25 0.953125 
Q 33.9375 -1.421875 27.875 -1.421875 
Q 17.96875 -1.421875 11.734375 6.484375 
Q 5.515625 14.40625 5.515625 27.296875 
Q 5.515625 40.1875 11.734375 48.09375 
Q 17.96875 56 27.875 56 
Q 33.9375 56 38.25 53.625 
Q 42.578125 51.265625 45.40625 46.390625 
L 45.40625 54.6875 
L 54.390625 54.6875 
L 54.390625 -20.796875 
L 45.40625 -20.796875 
z
" id="DejaVuSans-113"/>
       <path d="M 8.5 21.578125 
L 8.5 54.6875 
L 17.484375 54.6875 
L 17.484375 21.921875 
Q 17.484375 14.15625 20.5 10.265625 
Q 23.53125 6.390625 29.59375 6.390625 
Q 36.859375 6.390625 41.078125 11.03125 
Q 45.3125 15.671875 45.3125 23.6875 
L 45.3125 54.6875 
L 54.296875 54.6875 
L 54.296875 0 
L 45.3125 0 
L 45.3125 8.40625 
Q 42.046875 3.421875 37.71875 1 
Q 33.40625 -1.421875 27.6875 -1.421875 
Q 18.265625 -1.421875 13.375 4.4375 
Q 8.5 10.296875 8.5 21.578125 
z
M 31.109375 56 
z
" id="DejaVuSans-117"/>
       <path d="M 34.28125 27.484375 
Q 23.390625 27.484375 19.1875 25 
Q 14.984375 22.515625 14.984375 16.5 
Q 14.984375 11.71875 18.140625 8.90625 
Q 21.296875 6.109375 26.703125 6.109375 
Q 34.1875 6.109375 38.703125 11.40625 
Q 43.21875 16.703125 43.21875 25.484375 
L 43.21875 27.484375 
z
M 52.203125 31.203125 
L 52.203125 0 
L 43.21875 0 
L 43.21875 8.296875 
Q 40.140625 3.328125 35.546875 0.953125 
Q 30.953125 -1.421875 24.3125 -1.421875 
Q 15.921875 -1.421875 10.953125 3.296875 
Q 6 8.015625 6 15.921875 
Q 6 25.140625 12.171875 29.828125 
Q 18.359375 34.515625 30.609375 34.515625 
L 43.21875 34.515625 
L 43.21875 35.40625 
Q 43.21875 41.609375 39.140625 45 
Q 35.0625 48.390625 27.6875 48.390625 
Q 23 48.390625 18.546875 47.265625 
Q 14.109375 46.140625 10.015625 43.890625 
L 10.015625 52.203125 
Q 14.9375 54.109375 19.578125 55.046875 
Q 24.21875 56 28.609375 56 
Q 40.484375 56 46.34375 49.84375 
Q 52.203125 43.703125 52.203125 31.203125 
z
" id="DejaVuSans-97"/>
       <path d="M 41.109375 46.296875 
Q 39.59375 47.171875 37.8125 47.578125 
Q 36.03125 48 33.890625 48 
Q 26.265625 48 22.1875 43.046875 
Q 18.109375 38.09375 18.109375 28.8125 
L 18.109375 0 
L 9.078125 0 
L 9.078125 54.6875 
L 18.109375 54.6875 
L 18.109375 46.1875 
Q 20.953125 51.171875 25.484375 53.578125 
Q 30.03125 56 36.53125 56 
Q 37.453125 56 38.578125 55.875 
Q 39.703125 55.765625 41.0625 55.515625 
z
" id="DejaVuSans-114"/>
       <path d="M 45.40625 46.390625 
L 45.40625 75.984375 
L 54.390625 75.984375 
L 54.390625 0 
L 45.40625 0 
L 45.40625 8.203125 
Q 42.578125 3.328125 38.25 0.953125 
Q 33.9375 -1.421875 27.875 -1.421875 
Q 17.96875 -1.421875 11.734375 6.484375 
Q 5.515625 14.40625 5.515625 27.296875 
Q 5.515625 40.1875 11.734375 48.09375 
Q 17.96875 56 27.875 56 
Q 33.9375 56 38.25 53.625 
Q 42.578125 51.265625 45.40625 46.390625 
z
M 14.796875 27.296875 
Q 14.796875 17.390625 18.875 11.75 
Q 22.953125 6.109375 30.078125 6.109375 
Q 37.203125 6.109375 41.296875 11.75 
Q 45.40625 17.390625 45.40625 27.296875 
Q 45.40625 37.203125 41.296875 42.84375 
Q 37.203125 48.484375 30.078125 48.484375 
Q 22.953125 48.484375 18.875 42.84375 
Q 14.796875 37.203125 14.796875 27.296875 
z
" id="DejaVuSans-100"/>
       <path d="M 18.109375 8.203125 
L 18.109375 -20.796875 
L 9.078125 -20.796875 
L 9.078125 54.6875 
L 18.109375 54.6875 
L 18.109375 46.390625 
Q 20.953125 51.265625 25.265625 53.625 
Q 29.59375 56 35.59375 56 
Q 45.5625 56 51.78125 48.09375 
Q 58.015625 40.1875 58.015625 27.296875 
Q 58.015625 14.40625 51.78125 6.484375 
Q 45.5625 -1.421875 35.59375 -1.421875 
Q 29.59375 -1.421875 25.265625 0.953125 
Q 20.953125 3.328125 18.109375 8.203125 
z
M 48.6875 27.296875 
Q 48.6875 37.203125 44.609375 42.84375 
Q 40.53125 48.484375 33.40625 48.484375 
Q 26.265625 48.484375 22.1875 42.84375 
Q 18.109375 37.203125 18.109375 27.296875 
Q 18.109375 17.390625 22.1875 11.75 
Q 26.265625 6.109375 33.40625 6.109375 
Q 40.53125 6.109375 44.609375 11.75 
Q 48.6875 17.390625 48.6875 27.296875 
z
" id="DejaVuSans-112"/>
       <path d="M 38.203125 -13.40625 
L 38.203125 -16.40625 
Q 27 -5.796875 20.453125 9.84375 
Q 13.90625 25.5 13.90625 45.09375 
Q 13.90625 64.40625 20.453125 80.25 
Q 27 96.09375 38.203125 106.59375 
L 38.203125 103.59375 
Q 22 83.796875 22 45.09375 
Q 22 6.40625 38.203125 -13.40625 
z
" id="STIXSizeOneSym-Regular-40"/>
       <path d="M 89.796875 33.015625 
L 83.40625 0 
L 74.421875 0 
L 80.71875 32.71875 
Q 81.109375 34.8125 81.296875 36.328125 
Q 81.5 37.84375 81.5 38.921875 
Q 81.5 43.3125 79.046875 45.75 
Q 76.609375 48.1875 72.21875 48.1875 
Q 65.671875 48.1875 60.546875 43.28125 
Q 55.421875 38.375 53.90625 30.515625 
L 47.90625 0 
L 38.921875 0 
L 45.3125 32.71875 
Q 45.703125 34.515625 45.890625 36.046875 
Q 46.09375 37.59375 46.09375 38.8125 
Q 46.09375 43.265625 43.65625 45.71875 
Q 41.21875 48.1875 36.921875 48.1875 
Q 30.28125 48.1875 25.140625 43.28125 
Q 20.015625 38.375 18.5 30.515625 
L 12.5 0 
L 3.515625 0 
L 14.203125 54.6875 
L 23.1875 54.6875 
L 21.484375 46.1875 
Q 25.140625 50.984375 30.046875 53.484375 
Q 34.96875 56 40.578125 56 
Q 46.53125 56 50.359375 52.875 
Q 54.203125 49.75 54.984375 44.1875 
Q 59.078125 49.953125 64.46875 52.96875 
Q 69.875 56 75.875 56 
Q 82.90625 56 86.734375 51.953125 
Q 90.578125 47.90625 90.578125 40.484375 
Q 90.578125 38.875 90.375 36.9375 
Q 90.1875 35.015625 89.796875 33.015625 
z
" id="DejaVuSans-Oblique-109"/>
       <path d="M 50 53.078125 
L 48.296875 44.578125 
Q 44.734375 46.53125 40.765625 47.5 
Q 36.8125 48.484375 32.625 48.484375 
Q 25.53125 48.484375 21.453125 46.0625 
Q 17.390625 43.65625 17.390625 39.5 
Q 17.390625 34.671875 26.859375 32.078125 
Q 27.59375 31.890625 27.9375 31.78125 
L 30.8125 30.90625 
Q 39.796875 28.421875 42.796875 25.6875 
Q 45.796875 22.953125 45.796875 18.21875 
Q 45.796875 9.515625 38.890625 4.046875 
Q 31.984375 -1.421875 20.796875 -1.421875 
Q 16.453125 -1.421875 11.671875 -0.578125 
Q 6.890625 0.25 1.125 2 
L 2.875 11.28125 
Q 7.8125 8.734375 12.59375 7.421875 
Q 17.390625 6.109375 21.78125 6.109375 
Q 28.375 6.109375 32.5 8.9375 
Q 36.625 11.765625 36.625 16.109375 
Q 36.625 20.796875 25.78125 23.6875 
L 24.859375 23.921875 
L 21.78125 24.703125 
Q 14.9375 26.515625 11.765625 29.46875 
Q 8.59375 32.421875 8.59375 37.015625 
Q 8.59375 45.75 15.15625 50.875 
Q 21.734375 56 33.015625 56 
Q 37.453125 56 41.671875 55.265625 
Q 45.90625 54.546875 50 53.078125 
z
" id="DejaVuSans-Oblique-115"/>
       <path d="M 8.59375 103.59375 
L 8.59375 106.59375 
Q 19.796875 96 26.34375 80.34375 
Q 32.90625 64.703125 32.90625 45.09375 
Q 32.90625 25.796875 26.34375 9.9375 
Q 19.796875 -5.90625 8.59375 -16.40625 
L 8.59375 -13.40625 
Q 24.796875 6.40625 24.796875 45.09375 
Q 24.796875 83.796875 8.59375 103.59375 
z
" id="STIXSizeOneSym-Regular-41"/>
      </defs>
      <use transform="translate(0 0.765625)" xlink:href="#DejaVuSans-83"/>
      <use transform="translate(63.476562 0.765625)" xlink:href="#DejaVuSans-113"/>
      <use transform="translate(126.953125 0.765625)" xlink:href="#DejaVuSans-117"/>
      <use transform="translate(190.332031 0.765625)" xlink:href="#DejaVuSans-97"/>
      <use transform="translate(251.611328 0.765625)" xlink:href="#DejaVuSans-114"/>
      <use transform="translate(292.724609 0.765625)" xlink:href="#DejaVuSans-101"/>
      <use transform="translate(354.248047 0.765625)" xlink:href="#DejaVuSans-100"/>
      <use transform="translate(417.724609 0.765625)" xlink:href="#DejaVuSans-32"/>
      <use transform="translate(449.511719 0.765625)" xlink:href="#DejaVuSans-83"/>
      <use transform="translate(512.988281 0.765625)" xlink:href="#DejaVuSans-112"/>
      <use transform="translate(576.464844 0.765625)" xlink:href="#DejaVuSans-101"/>
      <use transform="translate(637.988281 0.765625)" xlink:href="#DejaVuSans-101"/>
      <use transform="translate(699.511719 0.765625)" xlink:href="#DejaVuSans-100"/>
      <use transform="translate(762.988281 0.765625)" xlink:href="#DejaVuSans-32"/>
      <use transform="translate(794.775391 -12.132812)scale(0.899555)" xlink:href="#STIXSizeOneSym-Regular-40"/>
      <use transform="translate(836.873444 44.5625)scale(0.7)" xlink:href="#DejaVuSans-Oblique-109"/>
      <use transform="translate(852.873444 -25.8875)scale(0.7)" xlink:href="#DejaVuSans-Oblique-115"/>
      <use transform="translate(917.56192 -12.132812)scale(0.899555)" xlink:href="#STIXSizeOneSym-Regular-41"/>
      <use transform="translate(960.617004 39.046875)scale(0.7)" xlink:href="#DejaVuSans-50"/>
      <path d="M 836.873444 19.5625 
L 836.873444 25.8125 
L 905.06192 25.8125 
L 905.06192 19.5625 
L 836.873444 19.5625 
z
"/>
     </g>
    </g>
   </g>
   <g id="line2d_11">
    <path clip-path="url(#pe82d7b2e72)" d="M 197.478989 158.021653 
L 201.589257 165.371506 
L 205.699526 172.312981 
L 209.809795 178.875958 
L 214.605108 186.090506 
L 219.400421 192.865659 
L 224.195735 199.236101 
L 228.991048 205.232699 
L 233.786362 210.882874 
L 238.581675 216.210944 
L 243.376988 221.238447 
L 248.857347 226.640465 
L 254.337705 231.699675 
L 259.818063 236.437769 
L 265.298421 240.873642 
L 270.778779 245.023801 
L 276.259138 248.902748 
L 281.739496 252.523319 
L 287.219854 255.89699 
L 292.700212 259.034151 
L 298.865615 262.292614 
L 305.031018 265.276459 
L 311.196421 267.997654 
L 317.361824 270.467764 
L 323.527227 272.698178 
L 329.69263 274.700296 
L 335.858033 276.48568 
L 342.70848 278.229641 
L 349.558928 279.73736 
L 356.409376 281.026152 
L 363.944868 282.212376 
L 371.480361 283.180084 
L 379.700898 284.016461 
L 388.60648 284.702505 
L 398.882152 285.265451 
L 411.212958 285.708323 
L 431.079256 286.160769 
L 451.630599 286.693984 
L 464.64645 287.249748 
L 476.292211 287.969331 
L 487.252928 288.875684 
L 497.528599 289.945457 
L 507.804271 291.234219 
L 518.079942 292.737357 
L 529.040659 294.560154 
L 541.371465 296.844134 
L 556.44245 299.884224 
L 599.60027 308.762452 
L 610.560987 310.695859 
L 620.151613 312.165701 
L 629.057195 313.3031 
L 637.277733 314.128463 
L 644.813225 314.674447 
L 652.348718 315.002049 
L 659.88421 315.09716 
L 666.734658 314.972024 
L 673.585106 314.638165 
L 680.435553 314.090419 
L 687.286001 313.325343 
L 694.136449 312.341113 
L 700.986897 311.137361 
L 707.837344 309.71493 
L 714.687792 308.075556 
L 721.53824 306.221456 
L 728.388687 304.154824 
L 735.92418 301.637874 
L 743.459672 298.865722 
L 750.995165 295.835097 
L 757.845613 292.848859 
L 764.69606 289.631206 
L 771.546508 286.165089 
L 777.711911 282.813056 
L 783.877314 279.215877 
L 790.042717 275.342342 
L 795.523075 271.635506 
L 801.003433 267.645276 
L 805.798747 263.889521 
L 810.59406 259.853729 
L 815.389374 255.50101 
L 819.499642 251.48598 
L 823.609911 247.177112 
L 827.72018 242.540937 
L 831.830448 237.540292 
L 835.940717 232.134046 
L 839.365941 227.286392 
L 842.791165 222.096952 
L 846.216388 216.534726 
L 849.641612 210.566251 
L 853.066836 204.155473 
L 856.49206 197.263601 
L 859.917284 189.848962 
L 863.342508 181.866848 
L 866.767732 173.269361 
L 870.192955 164.00525 
L 873.618179 154.019745 
L 877.043403 143.25438 
L 880.468627 131.646817 
L 882.523761 124.250579 
L 882.523761 124.250579 
" style="fill:none;stroke:#1f77b4;stroke-linecap:square;stroke-width:4;"/>
   </g>
   <g id="line2d_12">
    <path clip-path="url(#pe82d7b2e72)" d="M 197.478989 158.021653 
L 265.983466 284.100331 
L 334.487943 274.094086 
L 402.99242 348.640606 
L 471.496898 247.112963 
L 540.001375 218.237801 
L 608.505852 371.690704 
L 677.01033 403.424793 
L 745.514807 206.301781 
L 814.019284 376.407934 
L 882.523761 124.250579 
" style="fill:none;stroke:#1f77b4;stroke-dasharray:14.8,6.4;stroke-dashoffset:0;stroke-width:4;"/>
    <defs>
     <path d="M 0 4.5 
C 1.193414 4.5 2.338109 4.025852 3.181981 3.181981 
C 4.025852 2.338109 4.5 1.193414 4.5 0 
C 4.5 -1.193414 4.025852 -2.338109 3.181981 -3.181981 
C 2.338109 -4.025852 1.193414 -4.5 0 -4.5 
C -1.193414 -4.5 -2.338109 -4.025852 -3.181981 -3.181981 
C -4.025852 -2.338109 -4.5 -1.193414 -4.5 0 
C -4.5 1.193414 -4.025852 2.338109 -3.181981 3.181981 
C -2.338109 4.025852 -1.193414 4.5 0 4.5 
z
" id="mb5776bd16d" style="stroke:#1f77b4;"/>
    </defs>
    <g clip-path="url(#pe82d7b2e72)">
     <use style="fill:#1f77b4;stroke:#1f77b4;" x="197.478989" xlink:href="#mb5776bd16d" y="158.021653"/>
     <use style="fill:#1f77b4;stroke:#1f77b4;" x="265.983466" xlink:href="#mb5776bd16d" y="284.100331"/>
     <use style="fill:#1f77b4;stroke:#1f77b4;" x="334.487943" xlink:href="#mb5776bd16d" y="274.094086"/>
     <use style="fill:#1f77b4;stroke:#1f77b4;" x="402.99242" xlink:href="#mb5776bd16d" y="348.640606"/>
     <use style="fill:#1f77b4;stroke:#1f77b4;" x="471.496898" xlink:href="#mb5776bd16d" y="247.112963"/>
     <use style="fill:#1f77b4;stroke:#1f77b4;" x="540.001375" xlink:href="#mb5776bd16d" y="218.237801"/>
     <use style="fill:#1f77b4;stroke:#1f77b4;" x="608.505852" xlink:href="#mb5776bd16d" y="371.690704"/>
     <use style="fill:#1f77b4;stroke:#1f77b4;" x="677.01033" xlink:href="#mb5776bd16d" y="403.424793"/>
     <use style="fill:#1f77b4;stroke:#1f77b4;" x="745.514807" xlink:href="#mb5776bd16d" y="206.301781"/>
     <use style="fill:#1f77b4;stroke:#1f77b4;" x="814.019284" xlink:href="#mb5776bd16d" y="376.407934"/>
     <use style="fill:#1f77b4;stroke:#1f77b4;" x="882.523761" xlink:href="#mb5776bd16d" y="124.250579"/>
    </g>
   </g>
   <g id="line2d_13">
    <path clip-path="url(#pe82d7b2e72)" d="M 197.478989 383.162149 
L 202.274302 381.78317 
L 207.75466 379.944767 
L 213.235018 377.867911 
L 219.400421 375.295608 
L 226.250869 372.204149 
L 234.471406 368.254539 
L 245.432123 362.732596 
L 279.684361 345.295632 
L 290.645078 340.056593 
L 300.235705 335.70634 
L 309.826331 331.602265 
L 318.731913 328.026 
L 327.637495 324.682278 
L 336.543078 321.572022 
L 345.44866 318.691667 
L 354.354242 316.033973 
L 363.944868 313.409114 
L 373.535495 311.014997 
L 383.811167 308.685644 
L 394.771883 306.443721 
L 406.417644 304.303675 
L 418.74845 302.271058 
L 432.449346 300.246775 
L 447.520331 298.249029 
L 464.64645 296.206154 
L 483.827704 294.145302 
L 503.008957 292.300073 
L 520.820121 290.802921 
L 535.891106 289.746609 
L 549.592002 289.008003 
L 561.237763 288.591987 
L 572.198479 288.418754 
L 582.474151 288.484271 
L 592.064778 288.775238 
L 600.97036 289.269446 
L 609.190897 289.936959 
L 617.411434 290.824599 
L 625.631972 291.9478 
L 633.167464 293.195861 
L 640.702957 294.661571 
L 648.238449 296.350889 
L 655.773942 298.266776 
L 663.309434 300.408562 
L 670.844927 302.771262 
L 679.065464 305.588725 
L 687.286001 308.63588 
L 696.876628 312.439391 
L 708.522389 317.320368 
L 733.869046 328.044864 
L 741.404538 330.94061 
L 747.569941 333.083505 
L 753.050299 334.758492 
L 757.845613 336.003006 
L 762.640926 336.999908 
L 766.751195 337.624763 
L 770.861463 338.006772 
L 774.286687 338.116956 
L 777.711911 338.017257 
L 781.137135 337.687127 
L 784.562359 337.104844 
L 787.302538 336.442087 
L 790.042717 335.590955 
L 792.782896 334.538579 
L 795.523075 333.271533 
L 798.263254 331.775823 
L 801.003433 330.036868 
L 803.743612 328.03948 
L 806.483792 325.767848 
L 809.223971 323.205522 
L 811.96415 320.335391 
L 814.704329 317.139663 
L 817.444508 313.599851 
L 820.184687 309.696748 
L 822.924866 305.410406 
L 825.665045 300.720123 
L 828.405224 295.604412 
L 831.145403 290.040986 
L 833.885582 284.006734 
L 836.625762 277.4777 
L 839.365941 270.429056 
L 842.10612 262.835084 
L 844.846299 254.66915 
L 847.586478 245.903678 
L 850.326657 236.510129 
L 853.066836 226.458973 
L 855.807015 215.719664 
L 859.232239 201.279591 
L 862.657463 185.650797 
L 866.082687 168.766542 
L 869.507911 150.557312 
L 872.933135 130.950727 
L 876.358358 109.871459 
L 879.783582 87.241137 
L 882.523761 67.965455 
L 882.523761 67.965455 
" style="fill:none;stroke:#ff7f0e;stroke-linecap:square;stroke-width:4;"/>
   </g>
   <g id="line2d_14">
    <path clip-path="url(#pe82d7b2e72)" d="M 197.478989 383.162149 
L 265.983466 365.150909 
L 334.487943 291.104702 
L 402.99242 293.856419 
L 471.496898 300.289004 
L 540.001375 297.215658 
L 608.505852 276.059599 
L 677.01033 239.8227 
L 745.514807 303.112195 
L 814.019284 563.274545 
L 882.523761 67.965455 
" style="fill:none;stroke:#ff7f0e;stroke-dasharray:14.8,6.4;stroke-dashoffset:0;stroke-width:4;"/>
    <defs>
     <path d="M 0 4.5 
C 1.193414 4.5 2.338109 4.025852 3.181981 3.181981 
C 4.025852 2.338109 4.5 1.193414 4.5 0 
C 4.5 -1.193414 4.025852 -2.338109 3.181981 -3.181981 
C 2.338109 -4.025852 1.193414 -4.5 0 -4.5 
C -1.193414 -4.5 -2.338109 -4.025852 -3.181981 -3.181981 
C -4.025852 -2.338109 -4.5 -1.193414 -4.5 0 
C -4.5 1.193414 -4.025852 2.338109 -3.181981 3.181981 
C -2.338109 4.025852 -1.193414 4.5 0 4.5 
z
" id="mdee1f00e2d" style="stroke:#ff7f0e;"/>
    </defs>
    <g clip-path="url(#pe82d7b2e72)">
     <use style="fill:#ff7f0e;stroke:#ff7f0e;" x="197.478989" xlink:href="#mdee1f00e2d" y="383.162149"/>
     <use style="fill:#ff7f0e;stroke:#ff7f0e;" x="265.983466" xlink:href="#mdee1f00e2d" y="365.150909"/>
     <use style="fill:#ff7f0e;stroke:#ff7f0e;" x="334.487943" xlink:href="#mdee1f00e2d" y="291.104702"/>
     <use style="fill:#ff7f0e;stroke:#ff7f0e;" x="402.99242" xlink:href="#mdee1f00e2d" y="293.856419"/>
     <use style="fill:#ff7f0e;stroke:#ff7f0e;" x="471.496898" xlink:href="#mdee1f00e2d" y="300.289004"/>
     <use style="fill:#ff7f0e;stroke:#ff7f0e;" x="540.001375" xlink:href="#mdee1f00e2d" y="297.215658"/>
     <use style="fill:#ff7f0e;stroke:#ff7f0e;" x="608.505852" xlink:href="#mdee1f00e2d" y="276.059599"/>
     <use style="fill:#ff7f0e;stroke:#ff7f0e;" x="677.01033" xlink:href="#mdee1f00e2d" y="239.8227"/>
     <use style="fill:#ff7f0e;stroke:#ff7f0e;" x="745.514807" xlink:href="#mdee1f00e2d" y="303.112195"/>
     <use style="fill:#ff7f0e;stroke:#ff7f0e;" x="814.019284" xlink:href="#mdee1f00e2d" y="563.274545"/>
     <use style="fill:#ff7f0e;stroke:#ff7f0e;" x="882.523761" xlink:href="#mdee1f00e2d" y="67.965455"/>
    </g>
   </g>
   <g id="line2d_15">
    <path clip-path="url(#pe82d7b2e72)" d="M 882.523761 124.250579 
L 197.478989 158.021653 
" style="fill:none;stroke:#000000;stroke-dasharray:4,6.6;stroke-dashoffset:0;stroke-width:4;"/>
   </g>
   <g id="line2d_16">
    <path clip-path="url(#pe82d7b2e72)" d="M 265.983466 284.100331 
L 197.478989 158.021653 
" style="fill:none;stroke:#000000;stroke-dasharray:4,6.6;stroke-dashoffset:0;stroke-width:4;"/>
   </g>
   <g id="line2d_17">
    <path clip-path="url(#pe82d7b2e72)" d="M 814.019284 376.407934 
L 882.523761 124.250579 
" style="fill:none;stroke:#000000;stroke-dasharray:4,6.6;stroke-dashoffset:0;stroke-width:4;"/>
   </g>
   <g id="line2d_18">
    <path clip-path="url(#pe82d7b2e72)" d="M 814.019284 376.407934 
L 677.01033 403.424793 
" style="fill:none;stroke:#000000;stroke-dasharray:4,6.6;stroke-dashoffset:0;stroke-width:4;"/>
   </g>
   <g id="line2d_19">
    <path clip-path="url(#pe82d7b2e72)" d="M 402.99242 348.640606 
L 677.01033 403.424793 
" style="fill:none;stroke:#000000;stroke-dasharray:4,6.6;stroke-dashoffset:0;stroke-width:4;"/>
   </g>
   <g id="line2d_20">
    <path clip-path="url(#pe82d7b2e72)" d="M 402.99242 348.640606 
L 265.983466 284.100331 
" style="fill:none;stroke:#000000;stroke-dasharray:4,6.6;stroke-dashoffset:0;stroke-width:4;"/>
   </g>
   <g id="line2d_21">
    <path clip-path="url(#pe82d7b2e72)" d="M 814.019284 563.274545 
L 197.478989 383.162149 
" style="fill:none;stroke:#000000;stroke-dasharray:4,6.6;stroke-dashoffset:0;stroke-width:4;"/>
   </g>
   <g id="line2d_22">
    <path clip-path="url(#pe82d7b2e72)" d="M 814.019284 563.274545 
L 882.523761 67.965455 
" style="fill:none;stroke:#000000;stroke-dasharray:4,6.6;stroke-dashoffset:0;stroke-width:4;"/>
   </g>
   <g id="line2d_23">
    <path clip-path="url(#pe82d7b2e72)" d="M 334.487943 291.104702 
L 197.478989 383.162149 
" style="fill:none;stroke:#000000;stroke-dasharray:4,6.6;stroke-dashoffset:0;stroke-width:4;"/>
   </g>
   <g id="line2d_24">
    <path clip-path="url(#pe82d7b2e72)" d="M 334.487943 291.104702 
L 882.523761 67.965455 
" style="fill:none;stroke:#000000;stroke-dasharray:4,6.6;stroke-dashoffset:0;stroke-width:4;"/>
   </g>
   <g id="patch_3">
    <path d="M 163.22675 588.04 
L 163.22675 43.2 
" style="fill:none;stroke:#000000;stroke-linecap:square;stroke-linejoin:miter;stroke-width:0.8;"/>
   </g>
   <g id="patch_4">
    <path d="M 916.776 588.04 
L 916.776 43.2 
" style="fill:none;stroke:#000000;stroke-linecap:square;stroke-linejoin:miter;stroke-width:0.8;"/>
   </g>
   <g id="patch_5">
    <path d="M 163.22675 588.04 
L 916.776 588.04 
" style="fill:none;stroke:#000000;stroke-linecap:square;stroke-linejoin:miter;stroke-width:0.8;"/>
   </g>
   <g id="patch_6">
    <path d="M 163.22675 43.2 
L 916.776 43.2 
" style="fill:none;stroke:#000000;stroke-linecap:square;stroke-linejoin:miter;stroke-width:0.8;"/>
   </g>
   <g id="legend_1">
    <g id="patch_7">
     <path d="M 191.22675 568.04 
L 510.02675 568.04 
Q 518.02675 568.04 518.02675 560.04 
L 518.02675 419.24 
Q 518.02675 411.24 510.02675 411.24 
L 191.22675 411.24 
Q 183.22675 411.24 183.22675 419.24 
L 183.22675 560.04 
Q 183.22675 568.04 191.22675 568.04 
z
" style="fill:#ffffff;opacity:0.8;stroke:#cccccc;stroke-linejoin:miter;"/>
    </g>
    <g id="line2d_25">
     <path d="M 199.22675 456.04 
L 279.22675 456.04 
" style="fill:none;stroke:#1f77b4;stroke-linecap:square;stroke-width:4;"/>
    </g>
    <g id="line2d_26"/>
    <g id="text_13">
     <!-- $||\dot \mathbf{C}^{[3]}(t)||^2$ -->
     <g transform="translate(311.22675 470.04)scale(0.4 -0.4)">
      <defs>
       <path d="M 21 76.421875 
L 21 -23.578125 
L 12.703125 -23.578125 
L 12.703125 76.421875 
z
" id="DejaVuSans-124"/>
       <path d="M -29.59375 75.984375 
L -20.609375 75.984375 
L -20.609375 64.59375 
L -29.59375 64.59375 
z
M -25 56 
z
" id="DejaVuSans-775"/>
       <path d="M 67 4 
Q 61.8125 1.3125 56.203125 -0.046875 
Q 50.59375 -1.421875 44.484375 -1.421875 
Q 26.265625 -1.421875 15.625 8.765625 
Q 4.984375 18.953125 4.984375 36.375 
Q 4.984375 53.859375 15.625 64.03125 
Q 26.265625 74.21875 44.484375 74.21875 
Q 50.59375 74.21875 56.203125 72.84375 
Q 61.8125 71.484375 67 68.796875 
L 67 53.71875 
Q 61.765625 57.28125 56.6875 58.9375 
Q 51.609375 60.59375 46 60.59375 
Q 35.9375 60.59375 30.171875 54.140625 
Q 24.421875 47.703125 24.421875 36.375 
Q 24.421875 25.09375 30.171875 18.640625 
Q 35.9375 12.203125 46 12.203125 
Q 51.609375 12.203125 56.6875 13.859375 
Q 61.765625 15.53125 67 19.09375 
z
" id="DejaVuSans-Bold-67"/>
       <path d="M 8.59375 75.984375 
L 29.296875 75.984375 
L 29.296875 69 
L 17.578125 69 
L 17.578125 -6.203125 
L 29.296875 -6.203125 
L 29.296875 -13.1875 
L 8.59375 -13.1875 
z
" id="DejaVuSans-91"/>
       <path d="M 40.578125 39.3125 
Q 47.65625 37.796875 51.625 33 
Q 55.609375 28.21875 55.609375 21.1875 
Q 55.609375 10.40625 48.1875 4.484375 
Q 40.765625 -1.421875 27.09375 -1.421875 
Q 22.515625 -1.421875 17.65625 -0.515625 
Q 12.796875 0.390625 7.625 2.203125 
L 7.625 11.71875 
Q 11.71875 9.328125 16.59375 8.109375 
Q 21.484375 6.890625 26.8125 6.890625 
Q 36.078125 6.890625 40.9375 10.546875 
Q 45.796875 14.203125 45.796875 21.1875 
Q 45.796875 27.640625 41.28125 31.265625 
Q 36.765625 34.90625 28.71875 34.90625 
L 20.21875 34.90625 
L 20.21875 43.015625 
L 29.109375 43.015625 
Q 36.375 43.015625 40.234375 45.921875 
Q 44.09375 48.828125 44.09375 54.296875 
Q 44.09375 59.90625 40.109375 62.90625 
Q 36.140625 65.921875 28.71875 65.921875 
Q 24.65625 65.921875 20.015625 65.03125 
Q 15.375 64.15625 9.8125 62.3125 
L 9.8125 71.09375 
Q 15.4375 72.65625 20.34375 73.4375 
Q 25.25 74.21875 29.59375 74.21875 
Q 40.828125 74.21875 47.359375 69.109375 
Q 53.90625 64.015625 53.90625 55.328125 
Q 53.90625 49.265625 50.4375 45.09375 
Q 46.96875 40.921875 40.578125 39.3125 
z
" id="DejaVuSans-51"/>
       <path d="M 30.421875 75.984375 
L 30.421875 -13.1875 
L 9.71875 -13.1875 
L 9.71875 -6.203125 
L 21.390625 -6.203125 
L 21.390625 69 
L 9.71875 69 
L 9.71875 75.984375 
z
" id="DejaVuSans-93"/>
       <path d="M 42.28125 54.6875 
L 40.921875 47.703125 
L 23 47.703125 
L 17.1875 18.015625 
Q 16.890625 16.359375 16.75 15.234375 
Q 16.609375 14.109375 16.609375 13.484375 
Q 16.609375 10.359375 18.484375 8.9375 
Q 20.359375 7.515625 24.515625 7.515625 
L 33.59375 7.515625 
L 32.078125 0 
L 23.484375 0 
Q 15.484375 0 11.546875 3.125 
Q 7.625 6.25 7.625 12.59375 
Q 7.625 13.71875 7.765625 15.0625 
Q 7.90625 16.40625 8.203125 18.015625 
L 14.015625 47.703125 
L 6.390625 47.703125 
L 7.8125 54.6875 
L 15.28125 54.6875 
L 18.3125 70.21875 
L 27.296875 70.21875 
L 24.3125 54.6875 
z
" id="DejaVuSans-Oblique-116"/>
      </defs>
      <use transform="translate(0 0.296875)" xlink:href="#DejaVuSans-124"/>
      <use transform="translate(33.691406 0.296875)" xlink:href="#DejaVuSans-124"/>
      <use transform="translate(138.32373 31.015625)" xlink:href="#DejaVuSans-775"/>
      <use transform="translate(67.382812 0.296875)" xlink:href="#DejaVuSans-Bold-67"/>
      <use transform="translate(141.728516 38.578125)scale(0.7)" xlink:href="#DejaVuSans-91"/>
      <use transform="translate(169.038086 38.578125)scale(0.7)" xlink:href="#DejaVuSans-51"/>
      <use transform="translate(213.574219 38.578125)scale(0.7)" xlink:href="#DejaVuSans-93"/>
      <use transform="translate(243.618164 0.296875)" xlink:href="#DejaVuSans-40"/>
      <use transform="translate(282.631836 0.296875)" xlink:href="#DejaVuSans-Oblique-116"/>
      <use transform="translate(321.84082 0.296875)" xlink:href="#DejaVuSans-41"/>
      <use transform="translate(360.854492 0.296875)" xlink:href="#DejaVuSans-124"/>
      <use transform="translate(394.545898 0.296875)" xlink:href="#DejaVuSans-124"/>
      <use transform="translate(429.194336 38.578125)scale(0.7)" xlink:href="#DejaVuSans-50"/>
     </g>
    </g>
    <g id="line2d_27">
     <path d="M 199.22675 528.44 
L 279.22675 528.44 
" style="fill:none;stroke:#ff7f0e;stroke-linecap:square;stroke-width:4;"/>
    </g>
    <g id="line2d_28"/>
    <g id="text_14">
     <!-- $||\dot \mathbf{C}^{[4]}(t)||^2$ -->
     <g transform="translate(311.22675 542.44)scale(0.4 -0.4)">
      <use transform="translate(0 0.296875)" xlink:href="#DejaVuSans-124"/>
      <use transform="translate(33.691406 0.296875)" xlink:href="#DejaVuSans-124"/>
      <use transform="translate(138.32373 31.015625)" xlink:href="#DejaVuSans-775"/>
      <use transform="translate(67.382812 0.296875)" xlink:href="#DejaVuSans-Bold-67"/>
      <use transform="translate(141.728516 38.578125)scale(0.7)" xlink:href="#DejaVuSans-91"/>
      <use transform="translate(169.038086 38.578125)scale(0.7)" xlink:href="#DejaVuSans-52"/>
      <use transform="translate(213.574219 38.578125)scale(0.7)" xlink:href="#DejaVuSans-93"/>
      <use transform="translate(243.618164 0.296875)" xlink:href="#DejaVuSans-40"/>
      <use transform="translate(282.631836 0.296875)" xlink:href="#DejaVuSans-Oblique-116"/>
      <use transform="translate(321.84082 0.296875)" xlink:href="#DejaVuSans-41"/>
      <use transform="translate(360.854492 0.296875)" xlink:href="#DejaVuSans-124"/>
      <use transform="translate(394.545898 0.296875)" xlink:href="#DejaVuSans-124"/>
      <use transform="translate(429.194336 38.578125)scale(0.7)" xlink:href="#DejaVuSans-50"/>
     </g>
    </g>
   </g>
  </g>
 </g>
 <defs>
  <clipPath id="pe82d7b2e72">
   <rect height="544.84" width="753.54925" x="163.22675" y="43.2"/>
  </clipPath>
 </defs>
</svg>
